<svg width="218" height="335" viewBox="0 0 218 335" fill="none" xmlns="http://www.w3.org/2000/svg">
<path d="M145.16 274.971C147.33 273.791 148.85 273.301 150.48 273.301C152.11 273.301 153.68 273.351 153.68 273.351C153.68 273.351 158.51 275.421 162.15 275.421C165.79 275.421 169.54 275.321 172.59 273.151C175.64 270.981 178.11 267.631 179.44 267.241C180.77 266.851 181.8 266.501 182.99 266.941C184.17 267.381 185.5 268.911 185.5 268.911L186.68 274.081C186.68 274.081 188.4 275.161 189.73 275.461C191.06 275.761 195.79 275.661 198.05 274.331C200.32 273.001 202.63 269.951 203.22 267.681C203.81 265.411 204.16 264.681 204.65 264.041C205.14 263.401 206.18 262.411 206.77 262.121C207.36 261.821 209.77 262.121 211.15 262.711C212.53 263.301 217.31 261.531 217.31 261.531C217.31 261.531 213.76 260.541 211.1 253.451C208.44 246.361 201.54 228.921 200.17 220.251C198.79 211.581 195.24 190.111 194.46 187.251C193.67 184.391 176.73 91.7908 176.73 91.7908C176.73 91.7908 175.65 86.3208 173.87 82.1608C172.1 78.0008 168.65 71.7908 166.88 69.7208C165.11 67.6508 160.84 63.3108 160.84 63.3108C160.84 63.3108 159.39 62.4208 155.65 63.3108C151.91 64.2008 133.88 66.7609 133.88 66.7609L98.2499 82.1508C98.2499 82.1508 96.3499 170.191 92.0099 185.561C87.6699 200.931 82.36 229.301 80.78 236.591C79.2 243.881 75.46 273.631 75.46 273.631C75.46 273.631 77.92 270.921 79.55 270.431C81.18 269.941 82.5499 269.691 83.5399 270.281C84.5299 270.871 86.8899 273.781 88.0699 275.251C89.2499 276.731 93.14 278.891 95.7 279.191C98.26 279.491 105.16 280.081 106.19 279.191C107.22 278.301 109.1 276.781 110.18 277.071C111.26 277.371 114.07 280.761 116.53 283.621C118.99 286.481 119.73 287.361 122 287.411C124.27 287.461 129.14 287.361 131.01 287.161C132.88 286.961 136.58 285.931 138.2 284.751C139.83 283.571 141.8 280.661 141.8 280.661C141.8 280.661 141.26 279.431 141.46 278.841C141.66 278.251 142.99 276.131 145.15 274.951L145.16 274.971Z" fill="#343434"/>
<path d="M131.81 219.561C131.65 219.561 131.52 219.691 131.52 219.851C131.52 219.991 131.55 233.941 134.38 249.361C136.36 260.131 140.74 279.711 140.79 279.911C140.82 280.041 140.94 280.141 141.07 280.141C141.09 280.141 141.11 280.141 141.13 280.141C141.29 280.111 141.38 279.951 141.35 279.791C141.31 279.591 136.92 260.021 134.95 249.261C132.13 233.901 132.1 220.001 132.1 219.861C132.1 219.701 131.97 219.571 131.81 219.571V219.561Z" fill="#E22547"/>
<path d="M173.309 205.581C173.149 205.621 173.059 205.781 173.099 205.931C173.129 206.071 176.569 220.091 179.499 235.471C181.089 243.831 183.999 267.561 184.029 267.801C184.049 267.951 184.169 268.051 184.319 268.051C184.329 268.051 184.339 268.051 184.359 268.051C184.519 268.031 184.629 267.891 184.609 267.731C184.579 267.491 181.679 243.741 180.079 235.361C177.139 219.971 173.709 205.931 173.669 205.791C173.629 205.641 173.479 205.541 173.319 205.581H173.309Z" fill="#E22547"/>
<path d="M179.5 167.171C179.35 167.211 179.25 167.371 179.29 167.521C179.47 168.211 197.75 236.761 199.9 243.581C202.04 250.401 205.78 260.631 205.81 260.731C205.85 260.851 205.96 260.921 206.08 260.921C206.11 260.921 206.15 260.921 206.18 260.901C206.33 260.851 206.41 260.681 206.35 260.531C206.31 260.431 202.58 250.211 200.44 243.401C198.3 236.591 180.02 168.051 179.84 167.361C179.8 167.211 179.64 167.111 179.49 167.161L179.5 167.171Z" fill="#E22547"/>
<path d="M115.67 212.471C115.51 212.471 115.39 212.611 115.39 212.771C115.39 212.901 115.97 225.571 116.82 242.131C117.68 258.691 119.33 283.261 119.35 283.511C119.36 283.661 119.49 283.781 119.64 283.781C119.64 283.781 119.65 283.781 119.66 283.781C119.82 283.771 119.94 283.631 119.93 283.471C119.91 283.221 118.26 258.651 117.4 242.101C116.54 225.551 115.97 212.871 115.97 212.751C115.97 212.591 115.83 212.471 115.67 212.471Z" fill="#E22547"/>
<path d="M77.8299 99.891C75.4699 104.101 71.4799 116.201 71.4799 116.201C71.4799 116.201 64.3199 119.811 61.2799 121.841C55.2999 125.831 43.6799 137.851 42.0499 138.501C38.5399 139.901 38.4699 138.971 35.5999 138.981C31.6699 138.991 27.9199 139.871 27.9199 139.871C27.9199 139.871 29.4999 159.971 30.3499 159.921C33.3499 159.721 38.2299 157.251 42.7399 150.591C45.8699 145.961 59.1399 140.961 68.6099 134.351C71.2999 132.471 77.8299 125.831 77.8299 125.831C77.8299 125.831 87.4999 119.341 90.2399 116.201C94.8399 110.951 101.04 101.381 101.04 101.381L99.3499 94.111L97.6299 75.291C97.6299 75.291 95.1199 75.291 90.3899 81.131C85.6599 86.971 85.9599 91.991 85.9599 91.991C85.9599 91.991 80.1999 95.681 77.8299 99.901V99.891Z" fill="#E22547"/>
<path d="M13.0829 37.434L9.43555 37.9934L53.1678 323.119L56.8151 322.56L13.0829 37.434Z" fill="#343434"/>
<path d="M3.95975 0.100915L0.00974166 24.3509C-0.0202583 24.5109 0.0197575 24.6809 0.119758 24.8209L9.43973 38.0009L13.0898 37.4409L16.3897 22.0809C16.4197 21.9509 16.3897 21.8109 16.3297 21.6809L4.17976 0.0609062C4.12976 -0.0390938 3.97975 -0.0090853 3.95975 0.100915Z" fill="#343434"/>
<path d="M5.99936 9.16094C5.83936 9.19094 5.73937 9.34096 5.75937 9.49096L10.1894 35.1309C10.2094 35.2709 10.3394 35.3709 10.4694 35.3709C10.4894 35.3709 10.4994 35.3709 10.5194 35.3709C10.6794 35.3409 10.7794 35.1909 10.7594 35.0409L6.32938 9.40093C6.29938 9.24093 6.14936 9.13094 5.99936 9.16094Z" fill="#E22547"/>
<path d="M25.0403 160.771C25.2803 161.991 26.5503 162.771 27.8903 162.511L32.8703 161.541C34.2103 161.281 35.0903 160.081 34.8603 158.861C34.7103 158.101 34.1603 157.511 33.4503 157.241C33.8803 156.741 34.0903 156.091 33.9603 155.421L33.8503 154.881C33.6603 153.881 32.7603 153.181 31.7103 153.111C32.4503 152.601 32.8703 151.731 32.7003 150.861L32.5903 150.321C32.4103 149.411 31.6503 148.741 30.7203 148.571C31.8103 148.161 32.4903 147.101 32.2803 146.011L32.1703 145.471C31.9303 144.251 30.6603 143.471 29.3203 143.731L22.6603 145.031C21.3203 145.291 20.4403 146.491 20.6703 147.711L20.7803 148.251C20.9603 149.161 21.7203 149.831 22.6503 150.001C21.5603 150.411 20.8803 151.471 21.0903 152.561L21.2003 153.101C21.3903 154.101 22.2903 154.801 23.3403 154.871C22.6003 155.391 22.1803 156.251 22.3503 157.121L22.4603 157.661C22.6903 158.861 23.9303 159.631 25.2403 159.411C25.0303 159.831 24.9503 160.301 25.0403 160.771Z" fill="#E22547"/>
<path d="M20.5098 142.311C19.9698 144.281 21.4298 146.211 22.4398 146.161C23.4498 146.121 24.0198 146.221 24.7098 145.551C25.3998 144.881 25.9398 144.311 25.9398 144.311L24.9998 139.281C24.9998 139.281 24.2298 139.311 23.0498 139.821C22.1598 140.211 20.9298 140.771 20.5198 142.301L20.5098 142.311Z" fill="#E22547"/>
<path d="M22.4297 149.731C22.2697 149.761 22.1696 149.911 22.1996 150.071C22.2296 150.211 22.3496 150.311 22.4796 150.311C22.4996 150.311 22.5197 150.311 22.5297 150.311L31.0496 148.721C31.2096 148.691 31.3097 148.541 31.2797 148.381C31.2497 148.221 31.0996 148.121 30.9396 148.151L22.4196 149.741L22.4297 149.731Z" fill="#343434"/>
<path d="M23.14 154.611C22.98 154.641 22.88 154.801 22.92 154.951C22.95 155.091 23.07 155.181 23.2 155.181C23.22 155.181 23.2399 155.181 23.2599 155.181L31.77 153.391C31.93 153.361 32.03 153.201 31.99 153.051C31.96 152.891 31.8 152.801 31.65 152.831L23.14 154.621V154.611Z" fill="#343434"/>
<path d="M24.9395 159.171C24.7895 159.211 24.6896 159.371 24.7296 159.521C24.7596 159.651 24.8796 159.741 25.0096 159.741C25.0296 159.741 25.0596 159.741 25.0796 159.741L33.5196 157.531C33.6696 157.491 33.7696 157.331 33.7296 157.181C33.6896 157.031 33.5296 156.941 33.3796 156.971L24.9395 159.181V159.171Z" fill="#343434"/>
<path d="M32.8095 161.261C32.6495 161.291 32.5495 161.441 32.5795 161.601C32.6095 161.741 32.7295 161.831 32.8595 161.831C32.8795 161.831 32.8995 161.831 32.9195 161.831C33.6395 161.691 34.2595 161.301 34.6795 160.741C35.0995 160.171 35.2695 159.481 35.1395 158.811C34.9995 158.101 34.5395 157.491 33.8895 157.131C34.2295 156.591 34.3595 155.971 34.2395 155.371L34.1295 154.831C33.9495 153.921 33.2595 153.211 32.3495 152.941C32.8895 152.351 33.1295 151.581 32.9795 150.811L32.8695 150.271C32.7195 149.491 32.1895 148.851 31.4695 148.511C32.3095 147.931 32.7595 146.941 32.5695 145.961L32.4595 145.421C32.1895 144.041 30.7595 143.161 29.2695 143.451C29.1095 143.481 29.0095 143.631 29.0395 143.791C29.0695 143.951 29.2295 144.051 29.3795 144.021C30.5595 143.801 31.6795 144.471 31.8895 145.531L31.9995 146.071C32.1795 147.001 31.5995 147.941 30.6195 148.301C30.4995 148.351 30.4195 148.471 30.4295 148.601C30.4395 148.731 30.5395 148.841 30.6695 148.861C31.5095 149.011 32.1495 149.611 32.2995 150.381L32.4095 150.921C32.5495 151.661 32.2195 152.411 31.5395 152.881C31.4395 152.951 31.3895 153.081 31.4295 153.191C31.4595 153.311 31.5695 153.391 31.6895 153.401C32.6495 153.471 33.3995 154.091 33.5695 154.941L33.6795 155.481C33.7895 156.031 33.6295 156.591 33.2395 157.061C33.1795 157.131 33.1595 157.231 33.1795 157.321C33.1995 157.411 33.2695 157.481 33.3595 157.521C34.0095 157.771 34.4695 158.291 34.5895 158.931C34.6895 159.441 34.5595 159.961 34.2395 160.411C33.9095 160.861 33.4095 161.171 32.8295 161.281L32.8095 161.261Z" fill="#343434"/>
<path d="M36.9895 145.941C36.6395 146.531 35.9695 146.951 35.1995 147.081C34.5095 147.191 33.7395 147.061 32.9895 146.711C32.8495 146.641 32.6695 146.711 32.6095 146.851C32.5395 146.991 32.6095 147.171 32.7495 147.231C33.3995 147.531 34.0695 147.681 34.7095 147.681C34.9095 147.681 35.0995 147.671 35.2895 147.641C36.2195 147.491 37.0395 146.971 37.4895 146.231C37.5695 146.091 37.5295 145.911 37.3895 145.831C37.2495 145.751 37.0795 145.791 36.9895 145.931V145.941Z" fill="#343434"/>
<path d="M40.8994 151.761C40.6394 152.431 40.3694 153.121 39.9394 153.691C39.8394 153.821 39.8694 154.001 39.9994 154.091C40.0494 154.131 40.1094 154.151 40.1694 154.151C40.2594 154.151 40.3494 154.111 40.3994 154.031C40.8794 153.391 41.1694 152.631 41.4394 151.961C41.7894 151.061 42.1894 150.051 42.3094 148.991C42.4594 147.641 42.1494 146.311 41.8394 145.031C41.6594 144.251 41.4694 143.451 41.3894 142.661C41.3694 142.501 41.2294 142.381 41.0694 142.401C40.9094 142.421 40.7994 142.561 40.8094 142.721C40.8894 143.551 41.0894 144.371 41.2794 145.161C41.5794 146.451 41.8694 147.671 41.7394 148.921C41.6294 149.901 41.2694 150.831 40.9094 151.741L40.8994 151.761Z" fill="#343434"/>
<path d="M70.8302 116.291C70.6702 116.261 70.5202 116.341 70.4802 116.501C70.4402 116.651 70.5302 116.811 70.6902 116.851C70.7102 116.851 71.0002 116.931 71.5302 116.931C72.1202 116.931 73.0102 116.841 74.1802 116.481C74.3302 116.431 74.4202 116.271 74.3702 116.121C74.3202 115.971 74.1602 115.881 74.0102 115.931C71.9902 116.551 70.8702 116.301 70.8402 116.291H70.8302Z" fill="#343434"/>
<path d="M96.9601 80.4608C96.8801 79.5108 96.86 77.9408 96.86 76.3608C96.86 76.3608 96.29 92.1808 96.29 94.5508C96.29 96.9208 97.78 105.101 98.2 105.441C99.05 104.451 99.3001 103.751 100.31 102.471C99.6101 101.951 98.76 101.241 98.58 100.851C98.06 99.7408 97.18 82.9708 96.95 80.4608H96.9601Z" fill="white"/>
<path d="M122.75 24.441C125.41 22.301 133.24 20.301 133.24 20.301C133.24 20.301 134.13 17.641 135.6 15.051C137.08 12.461 141.88 6.85102 141.88 6.85102C141.88 6.85102 137.71 3.96101 126.41 7.65101C123.47 8.61101 118.49 11.201 114.91 15.791C109.67 22.511 106.71 33.251 106.19 34.791C105.67 36.331 102.89 53.971 109.15 68.651C109.93 70.491 117.29 73.341 117.29 73.341L123.33 70.681C123.33 70.681 124.53 58.541 123.78 57.551C123.03 56.571 116.68 40.391 116.9 37.951C117.12 35.511 120.08 26.571 122.74 24.431L122.75 24.441Z" fill="#343434"/>
<path d="M123.87 11.8211C123.71 11.7711 123.56 11.8711 123.51 12.0211C123.48 12.1111 122.9 14.2111 123.16 16.7511C123.42 19.2711 124.82 22.8211 124.88 22.9711C124.93 23.0811 125.03 23.1511 125.15 23.1511C125.19 23.1511 125.22 23.1511 125.26 23.1311C125.41 23.0711 125.48 22.9011 125.42 22.7511C125.41 22.7111 123.99 19.1311 123.74 16.6811C123.49 14.2611 124.07 12.1911 124.07 12.1711C124.11 12.0211 124.02 11.8611 123.87 11.8111V11.8211Z" fill="#E22547"/>
<path d="M119.129 21.5509C118.539 20.8409 117.529 18.7809 116.929 17.5409C116.479 16.6309 116.419 16.5009 116.349 16.4309C116.239 16.3209 116.039 16.3109 115.929 16.4209C115.819 16.5309 115.809 16.7009 115.919 16.8209C115.969 16.8909 116.199 17.3509 116.419 17.8009C117.079 19.1409 118.069 21.1609 118.699 21.9209C119.589 23.0009 121.709 24.9009 121.799 24.9809C121.859 25.0309 121.919 25.0509 121.989 25.0509C122.069 25.0509 122.149 25.0209 122.209 24.9509C122.319 24.8309 122.309 24.6509 122.189 24.5409C122.169 24.5209 120.019 22.5809 119.149 21.5409L119.129 21.5509Z" fill="#E22547"/>
<path d="M113.869 27.9511C112.469 27.1811 111.179 25.2911 111.159 25.2711C111.069 25.1411 110.889 25.1011 110.759 25.1911C110.629 25.2811 110.589 25.4611 110.679 25.5911C110.739 25.6711 112.069 27.6111 113.589 28.4511C115.089 29.2711 119.119 30.2211 119.289 30.2611C119.309 30.2611 119.329 30.2611 119.359 30.2611C119.489 30.2611 119.609 30.1711 119.639 30.0411C119.679 29.8911 119.579 29.7311 119.419 29.6911C119.379 29.6811 115.289 28.7211 113.869 27.9311V27.9511Z" fill="#E22547"/>
<path d="M112.64 37.821C111.06 37.101 109.4 35.061 109.38 35.041C109.28 34.921 109.1 34.901 108.97 35.001C108.85 35.101 108.83 35.281 108.93 35.411C109 35.501 110.69 37.5811 112.4 38.3611C114.06 39.1211 115.49 39.521 115.54 39.541C115.57 39.541 115.59 39.5511 115.62 39.5511C115.75 39.5511 115.86 39.471 115.9 39.341C115.94 39.191 115.85 39.031 115.7 38.981C115.69 38.981 114.26 38.5711 112.64 37.8311V37.821Z" fill="#E22547"/>
<path d="M115.2 42.8709C115.2 42.8709 114.79 43.2109 113.64 44.0409C112.48 44.8809 109.03 47.1909 108.99 47.2109C108.86 47.3009 108.82 47.4809 108.91 47.6109C108.97 47.6909 109.06 47.7409 109.15 47.7409C109.21 47.7409 109.26 47.7209 109.31 47.6909C109.35 47.6709 112.8 45.3509 113.97 44.5109C115.15 43.6609 115.55 43.3309 115.57 43.3109C115.69 43.2109 115.71 43.0309 115.61 42.9009C115.51 42.7809 115.32 42.7609 115.2 42.8609V42.8709Z" fill="#E22547"/>
<path d="M130.7 8.10109C129.93 8.71109 128.75 16.3111 128.41 18.6311C128.39 18.7911 128.5 18.9411 128.65 18.9611C128.66 18.9611 128.68 18.9611 128.69 18.9611C128.83 18.9611 128.95 18.8611 128.98 18.7111C129.67 14.0511 130.64 8.97111 131.06 8.55111C131.51 8.19111 134.45 8.1111 136.39 8.1711C136.57 8.1911 136.68 8.0511 136.69 7.8911C136.69 7.7311 136.57 7.60108 136.41 7.59108C135.59 7.57108 131.49 7.47109 130.71 8.10109H130.7Z" fill="#E22547"/>
<path d="M119.25 25.801C116.91 29.751 115.73 35.371 115.47 37.141C115.21 38.911 115.64 41.851 115.64 41.851C115.64 41.851 118.94 32.8409 121.75 30.9109C124.56 28.9809 132.57 26.321 132.57 26.321L133.23 19.9709H127.9C127.9 19.9709 121.58 21.8509 119.24 25.8109L119.25 25.801Z" fill="#343434"/>
<path d="M132.5 25.9911C129.36 25.7311 124.41 26.581 121.23 29.461C118.05 32.341 116.5 37.1411 116.39 37.2911C116.28 37.4411 115.61 42.0211 115.61 42.0211C115.61 42.0211 119.08 37.291 123.52 35.961C127.95 34.631 131.54 33.911 134.71 34.181C137.89 34.451 141.88 35.1111 141.88 35.1111C141.84 35.0011 141.98 32.0511 140.51 30.2711C138.53 27.8711 135.34 26.2211 132.5 25.9811V25.9911Z" fill="#343434"/>
<path d="M119.25 37.7711C114.82 41.4411 114.521 43.401 114.521 43.401L116.091 47.0211C116.091 47.0211 119.06 41.5911 124.98 38.3011C126.04 37.7111 130.121 35.791 134.901 36.171C139.681 36.551 142.661 38.891 142.661 38.891L143.82 36.8011C143.82 36.8011 141.78 32.961 135.98 32.421C130.18 31.881 125.401 32.681 119.241 37.781L119.25 37.7711Z" fill="#343434"/>
<path d="M133.21 20.251C133.37 20.271 133.51 20.151 133.52 19.991C133.53 19.831 133.42 19.691 133.26 19.681C127.91 19.231 127.73 19.651 127.64 19.851C127.45 20.301 127.74 24.281 127.87 25.971C127.88 26.121 128.01 26.241 128.16 26.241H128.18C128.34 26.231 128.46 26.091 128.44 25.931C128.27 23.811 128.08 20.721 128.15 20.151C128.65 20.001 131.1 20.091 133.2 20.261L133.21 20.251Z" fill="white"/>
<path d="M136.01 32.131C130.24 31.591 125.39 32.311 119.06 37.551C114.6 41.251 114.24 43.281 114.23 43.361C114.21 43.521 114.31 43.661 114.47 43.691C114.49 43.691 114.5 43.691 114.52 43.691C114.66 43.691 114.78 43.591 114.81 43.451C114.81 43.431 115.19 41.511 119.44 37.991C125.62 32.881 130.34 32.171 135.96 32.701C141.52 33.221 143.55 36.891 143.57 36.931C143.65 37.071 143.82 37.121 143.96 37.051C144.1 36.971 144.15 36.801 144.08 36.661C143.99 36.501 141.9 32.671 136.01 32.121V32.131Z" fill="white"/>
<path d="M121.041 29.2511C117.751 32.2411 116.311 36.1311 115.981 37.9611C115.951 38.1411 115.311 41.4011 115.311 41.4011L115.881 41.5111C115.881 41.5111 116.521 38.2411 116.551 38.0611C116.851 36.4211 118.251 32.5711 121.431 29.6811C124.421 26.9711 129.251 26.0111 132.481 26.2811C132.631 26.3111 132.781 26.1811 132.791 26.0211C132.801 25.8611 132.681 25.7211 132.531 25.7111C129.071 25.4211 124.181 26.4111 121.051 29.2611L121.041 29.2511Z" fill="white"/>
<path d="M136.75 58.2309C136.75 58.2309 138.06 58.6109 138.91 58.5909C139.76 58.5709 141.31 57.9909 141.88 56.8209C142.59 55.3709 142.16 52.7009 142.16 52.7009L139.36 52.1208L136.74 58.2309H136.75Z" fill="#343434"/>
<path d="M137.291 58.1009C137.141 58.0409 136.971 58.1009 136.911 58.2509C136.851 58.4009 136.911 58.5709 137.061 58.6309C137.081 58.6309 137.801 58.9309 138.751 58.9309C139.751 58.9309 141.001 58.5909 141.891 57.2109C142.801 55.8009 142.701 54.3909 141.651 53.6909C141.081 53.3109 140.071 53.3509 139.411 53.7909C138.911 54.1209 138.681 54.6309 138.781 55.1809C138.981 56.3109 140.541 56.2809 140.601 56.2909C140.761 56.2909 140.891 56.1509 140.881 55.9909C140.881 55.8309 140.721 55.7109 140.591 55.7109C140.591 55.7209 139.461 55.7209 139.351 55.0809C139.291 54.7509 139.421 54.4709 139.731 54.2709C140.191 53.9709 140.961 53.9209 141.341 54.1709C142.291 54.8009 141.971 56.0309 141.421 56.9009C139.961 59.1709 137.411 58.1409 137.311 58.1009H137.291Z" fill="white"/>
<path d="M142.37 47.3608C141.45 47.0008 140.38 45.6008 140.38 45.6008C140.38 45.6008 140.26 49.1708 140 50.0808C139.74 50.9908 139.37 52.1308 139.37 52.1308C139.37 52.1308 141.76 53.4808 143.07 53.0908C144.38 52.7008 144.96 51.2908 144.96 50.4808C144.96 49.3208 144.01 47.3508 144.01 47.3508C144.01 47.3508 143.72 47.8908 142.36 47.3708L142.37 47.3608Z" fill="#343434"/>
<path d="M143.09 52.9407C141.75 53.3207 139.88 52.0707 139.86 52.0607C139.73 51.9707 139.55 52.0008 139.46 52.1408C139.37 52.2708 139.4 52.4507 139.54 52.5407C139.61 52.5907 141.11 53.6007 142.54 53.6007C142.78 53.6007 143.02 53.5707 143.25 53.5107C143.9 53.3207 144.39 52.8707 144.7 52.1707C145.31 50.7807 145.13 49.7007 144.75 49.1607C144.32 48.5407 142.73 47.7707 141.83 48.2907C141.19 48.6607 140.82 49.1108 140.76 49.5808C140.71 49.9908 140.89 50.3908 141.3 50.7708C142.19 51.6208 143.33 51.0507 143.81 50.6307C143.93 50.5207 143.94 50.3407 143.84 50.2207C143.73 50.1007 143.55 50.0907 143.43 50.1907C143.39 50.2307 142.44 51.0507 141.7 50.3407C141.44 50.0907 141.31 49.8508 141.34 49.6408C141.37 49.3608 141.65 49.0607 142.12 48.7907C142.69 48.4607 143.99 49.0808 144.28 49.4908C144.56 49.8908 144.7 50.7707 144.18 51.9407C143.94 52.4807 143.59 52.8207 143.1 52.9507L143.09 52.9407Z" fill="white"/>
<path d="M140.391 40.1309V45.7509C140.391 45.7509 140.771 46.4809 142.031 47.3209C143.291 48.1609 144.571 47.4608 145.161 46.6808C146.061 45.4908 146.111 43.9408 145.161 42.6508C144.081 41.2008 140.391 40.1309 140.391 40.1309Z" fill="#343434"/>
<path d="M144.39 47.1409C143.86 47.5209 143.15 47.5209 142.28 47.1409C141.78 46.9209 141.14 46.1509 140.93 45.8809C140.84 45.7509 140.65 45.7309 140.53 45.8209C140.4 45.9109 140.38 46.1009 140.47 46.2209C140.5 46.2709 141.31 47.3309 142.05 47.6609C142.56 47.8909 143.04 48.0009 143.48 48.0009C143.95 48.0009 144.36 47.8709 144.73 47.6109C145.86 46.8109 146.15 44.9509 146.07 43.9709C145.97 42.6809 144.83 41.9109 143.8 41.9109C142.99 41.9109 142 42.4309 141.88 43.8809C141.84 44.4209 142.07 44.9309 142.52 45.2609C142.93 45.5609 143.42 45.6509 143.85 45.4809C144 45.4209 144.07 45.2509 144.02 45.1109C143.96 44.9609 143.8 44.8909 143.65 44.9409C143.41 45.0309 143.11 44.9809 142.87 44.8009C142.59 44.5909 142.44 44.2609 142.46 43.9309C142.53 43.0309 143.03 42.4909 143.8 42.4909C144.57 42.4909 145.42 43.0609 145.5 44.0209C145.56 44.7409 145.37 46.4509 144.4 47.1409H144.39Z" fill="white"/>
<path d="M126.33 37.6908C123.17 38.3408 120.49 41.3108 119.84 44.1308C119.27 46.5808 119.25 55.2508 119.25 55.2508C119.25 55.2508 122.65 59.1508 124.26 60.1908C126.29 61.5008 127.87 62.2208 128.92 62.6108C129.77 62.9208 130.69 62.9608 131.57 62.7408L132.7 62.4508L134.15 62.1608C134.62 62.0608 135.02 61.7608 135.22 61.3208C136.23 59.1108 139.35 53.6608 140.04 49.8908C140.56 47.0108 140.45 38.7008 140.45 38.7008C140.45 38.7008 139.36 37.6308 134.91 37.0908C132.65 36.8108 130.22 36.9108 126.34 37.7108L126.33 37.6908Z" fill="#E22547"/>
<path d="M129.23 44.5308C128.3 44.1608 128.12 43.5708 127.01 42.8808C125.9 42.1908 124.82 43.2508 124.82 43.2508C124.82 43.2508 123.51 44.4008 124.98 44.4208C125.04 44.4208 126.59 44.2708 127.15 44.4608C127.7 44.6408 129.12 45.4608 130.08 45.5708C131.04 45.6808 131.45 45.4408 131.52 45.0708C131.57 44.8208 131.52 44.4208 131.52 44.4208C131.52 44.4208 130.17 44.9108 129.23 44.5408V44.5308Z" fill="#343434"/>
<path d="M137.129 42.6108C136.229 43.3008 136.079 43.8908 135.319 44.2608C134.559 44.6308 133.449 44.1408 133.449 44.1408C133.449 44.1408 133.409 44.5508 133.449 44.7908C133.509 45.1708 133.839 45.4108 134.629 45.2908C135.409 45.1808 136.569 44.3708 137.019 44.1808C137.469 44.0008 138.739 44.1408 138.789 44.1408C139.989 44.1208 138.919 42.9708 138.919 42.9708C138.919 42.9708 138.039 41.9108 137.129 42.6008V42.6108Z" fill="#343434"/>
<path d="M131.31 51.8409C131.31 52.1509 131.58 52.4009 131.89 52.4009H131.91C132.81 52.3809 133.97 52.2909 134.37 52.0009C134.95 51.5809 134.76 50.9009 134.67 50.5809C134.65 50.5009 134.62 50.4209 134.61 50.3409C134.6 50.2409 134.56 50.0709 134.51 49.8409C134.38 49.2509 134.17 48.2609 134.17 47.3609C134.17 46.4109 134.42 45.6009 134.57 45.2009C134.57 45.2009 134.58 45.1609 134.59 45.1609C134.69 44.8609 134.53 44.5509 134.23 44.4409C133.93 44.3309 133.6 44.5009 133.49 44.8009C133.31 45.2709 133.02 46.2309 133.02 47.3609C133.02 48.3809 133.25 49.4509 133.39 50.0809C133.43 50.2609 133.46 50.4009 133.47 50.4909C133.49 50.6209 133.52 50.7509 133.56 50.8909C133.58 50.9409 133.6 51.0109 133.61 51.0709C133.3 51.1509 132.57 51.2209 131.88 51.2409C131.56 51.2409 131.31 51.5109 131.32 51.8309L131.31 51.8409Z" fill="#343434"/>
<path d="M129.899 56.1408L129.959 57.0108C129.959 57.0108 131.489 56.9108 132.509 56.8308C133.509 56.7408 134.929 56.6708 134.929 56.6708L134.879 55.8008C134.879 55.8008 133.439 55.8708 132.429 55.9608C131.419 56.0508 129.899 56.1408 129.899 56.1408Z" fill="#343434"/>
<path d="M135.99 48.2608C135.99 49.0508 136.63 49.6808 137.41 49.6808C138.19 49.6808 138.83 49.0408 138.83 48.2608C138.83 47.4808 138.19 46.8408 137.41 46.8408C136.63 46.8408 135.99 47.4808 135.99 48.2608Z" fill="#343434"/>
<path d="M137.48 48.7707C137.48 49.0707 137.72 49.3207 138.01 49.3207C138.3 49.3207 138.54 49.0707 138.54 48.7707C138.54 48.4707 138.3 48.2207 138.01 48.2207C137.72 48.2207 137.48 48.4707 137.48 48.7707Z" fill="white"/>
<path d="M126.54 48.4407C126.54 49.2307 127.18 49.8607 127.96 49.8607C128.74 49.8607 129.38 49.2207 129.38 48.4407C129.38 47.6607 128.74 47.0208 127.96 47.0208C127.18 47.0208 126.54 47.6607 126.54 48.4407Z" fill="#343434"/>
<path d="M128.16 48.7607C128.16 49.0607 128.4 49.3107 128.69 49.3107C128.98 49.3107 129.22 49.0607 129.22 48.7607C129.22 48.4607 128.98 48.2107 128.69 48.2107C128.4 48.2107 128.16 48.4507 128.16 48.7607Z" fill="white"/>
<path d="M119.22 50.481C119.22 50.481 118.18 50.941 117.04 50.851C115.9 50.761 114.54 52.811 115.02 54.551C115.49 56.291 117.55 56.921 119.42 56.611C121.29 56.301 122.89 53.331 122.67 52.131C122.45 50.931 121.81 49.741 121.81 49.741L119.22 50.481Z" fill="#343434"/>
<path d="M117.9 54.9609C117.74 54.9809 117.63 55.131 117.65 55.291C117.67 55.451 117.82 55.561 117.98 55.531C118.62 55.441 118.99 54.801 118.97 54.251C118.95 53.661 118.53 53.241 117.89 53.191C115.35 52.971 115.01 54.191 114.96 54.571C114.84 55.571 115.83 56.831 117.52 57.111C117.82 57.161 118.1 57.1809 118.37 57.1809C121.31 57.1809 122.48 54.371 122.7 53.761C123.11 52.621 122.39 50.181 122.36 50.071C122.31 49.921 122.15 49.821 122 49.881C121.85 49.931 121.76 50.091 121.8 50.241C121.99 50.891 122.43 52.771 122.15 53.571C121.94 54.161 120.74 57.071 117.62 56.541C116.28 56.311 115.45 55.361 115.54 54.641C115.62 53.981 116.48 53.651 117.85 53.771C118.29 53.811 118.39 54.071 118.4 54.281C118.4 54.581 118.21 54.931 117.91 54.971L117.9 54.9609Z" fill="white"/>
<path d="M141.02 37.8908C141.02 37.8908 140.45 36.5908 138.04 36.7308C137.66 36.7508 135.99 36.5408 135.99 36.5408C135.99 36.5408 138.19 39.0008 138.84 40.2008C139.48 41.4108 141.03 42.1508 142.6 41.7508C143.82 41.4408 144.64 40.2008 144.96 39.0208C145.28 37.8408 144.57 36.4908 143.41 36.2408C141.32 35.8008 141.02 37.9008 141.02 37.9008V37.8908Z" fill="#343434"/>
<path d="M142.87 41.1909C142.17 41.5109 140.71 41.3809 139.74 40.6909C138.76 39.9909 138.14 38.7009 138.14 38.6909C138.07 38.5509 137.9 38.4909 137.76 38.5509C137.62 38.6209 137.55 38.7909 137.62 38.9409C137.65 39.0009 138.3 40.3809 139.41 41.1709C140.15 41.7009 141.12 41.9409 141.95 41.9409C142.4 41.9409 142.81 41.8709 143.11 41.7309C143.95 41.3509 145.78 39.8309 145.31 38.3209C144.91 37.0209 144.39 36.2108 143.77 35.9008C143.43 35.7308 143.07 35.7108 142.7 35.8408C141.06 36.4208 140.86 37.4409 140.9 38.0009C140.95 38.9009 141.63 39.7209 142.2 39.8509C142.36 39.8909 142.51 39.7909 142.55 39.6309C142.59 39.4809 142.49 39.3209 142.33 39.2809C142.02 39.2109 141.51 38.6108 141.48 37.9608C141.44 37.2608 141.93 36.7208 142.9 36.3708C143.12 36.2908 143.32 36.3008 143.51 36.4008C143.97 36.6308 144.41 37.3509 144.76 38.4809C145.1 39.5609 143.59 40.8709 142.87 41.1909Z" fill="white"/>
<path d="M117.77 43.7809L116.12 46.6309C116.12 46.6309 114.91 47.0109 114.27 47.8009C113.63 48.5909 113.95 50.6609 115.38 51.6909C116.81 52.7209 119.46 52.5309 120.54 51.6909C121.8 50.7209 122.39 48.6009 122.52 47.5709C122.64 46.5409 122.13 44.8109 121.19 44.2109C119.84 43.3409 117.77 43.7909 117.77 43.7909V43.7809Z" fill="#343434"/>
<path d="M117.01 49.621C116.86 49.581 116.7 49.661 116.65 49.821C116.61 49.971 116.69 50.131 116.84 50.181C116.89 50.201 118.16 50.561 119.08 49.811C119.48 49.481 119.64 48.931 119.5 48.341C119.3 47.481 118.57 46.781 117.63 46.561C115.96 46.171 114.03 47.681 113.67 49.141C113.31 50.611 114.86 52.121 116.09 52.511C116.85 52.751 117.56 52.871 118.21 52.871C119.17 52.871 119.99 52.611 120.68 52.081C123.04 50.261 122.84 45.991 122.83 45.811C122.83 45.651 122.69 45.541 122.53 45.541C122.37 45.541 122.25 45.691 122.26 45.851C122.26 45.891 122.45 50.001 120.34 51.631C119.35 52.391 117.99 52.511 116.29 51.971C115.29 51.651 113.97 50.421 114.25 49.291C114.52 48.201 116.09 46.801 117.52 47.131C118.4 47.331 118.84 47.981 118.96 48.481C119.05 48.861 118.96 49.181 118.74 49.371C118.06 49.931 117.04 49.641 117.03 49.631L117.01 49.621Z" fill="white"/>
<path d="M118.84 41.181C118.16 41.371 117.53 42.171 117.35 42.901C117.32 43.001 117.31 43.111 117.3 43.211C117.22 44.161 117.89 45.021 118.8 45.301C119.65 45.571 120.85 45.871 121.71 45.771C124.09 45.481 125.18 42.861 125.15 41.891C125.07 39.941 123.96 38.791 123.96 38.791C123.96 38.791 122.68 39.441 121.1 40.931C120.79 41.221 120.05 40.841 118.85 41.181H118.84Z" fill="#343434"/>
<path d="M120.771 43.7111C120.601 43.6911 120.471 43.8111 120.451 43.9711C120.431 44.1311 120.551 44.2711 120.701 44.2911C120.801 44.3011 121.671 44.3811 122.161 43.8711C122.341 43.6911 122.531 43.3511 122.441 42.7911C122.151 40.9411 120.621 40.8911 120.111 40.8811C119.541 40.8811 118.301 41.0411 117.601 41.8411C117.161 42.3411 117.001 42.9911 117.121 43.7611C117.341 45.1911 118.941 45.7011 120.301 45.9911C120.721 46.0811 121.121 46.1311 121.501 46.1311C122.391 46.1311 123.151 45.8811 123.771 45.3911C125.401 44.0911 125.461 41.5811 125.461 41.4711C125.461 41.3111 125.341 41.1811 125.181 41.1811C125.041 41.2011 124.891 41.3111 124.891 41.4611C124.891 41.4811 124.831 43.8111 123.421 44.9411C122.681 45.5311 121.671 45.7011 120.431 45.4311C118.671 45.0611 117.831 44.5111 117.701 43.6711C117.611 43.0711 117.721 42.5811 118.041 42.2211C118.621 41.5611 119.701 41.4211 120.101 41.4611C120.871 41.4811 121.681 41.6711 121.871 42.8911C121.911 43.1611 121.871 43.3511 121.751 43.4811C121.501 43.7411 120.961 43.7411 120.771 43.7211V43.7111Z" fill="white"/>
<path d="M125.81 35.041C123.51 35.221 122.82 37.781 123.04 38.931C123.48 41.281 125.8 41.901 127.28 41.751C131.63 41.321 131.64 36.101 131.64 36.101C131.64 36.101 129.28 36.741 128.7 36.411C127.98 36.001 128.21 34.851 125.81 35.051V35.041Z" fill="#343434"/>
<path d="M127.97 38.3609C127.44 38.7009 126.49 38.4009 126.16 38.2609C126.01 38.2009 125.84 38.2609 125.78 38.4109C125.72 38.5609 125.78 38.7309 125.93 38.7909C125.99 38.8209 127.39 39.4309 128.29 38.8509C128.75 38.5509 128.98 38.0209 128.99 37.2709C128.99 37.0009 128.94 36.0909 128.22 35.4209C127.65 34.9009 126.84 34.6809 125.79 34.7609C124.88 34.8309 124.11 35.2609 123.55 35.9909C122.83 36.9309 122.61 38.2109 122.75 38.9909C123.05 40.6009 124.13 41.3509 124.99 41.7009C125.31 41.8309 126.04 42.0309 126.92 42.0309C127.54 42.0309 128.24 41.9309 128.9 41.6309C130.05 41.1209 130.89 40.1509 131.4 38.7509C131.45 38.6009 131.38 38.4309 131.23 38.3809C131.08 38.3309 130.91 38.4009 130.86 38.5509C130.41 39.8009 129.68 40.6609 128.67 41.1009C127.25 41.7309 125.66 41.3409 125.21 41.1609C124.49 40.8609 123.58 40.2309 123.32 38.8809C123.2 38.2409 123.4 37.1309 124.01 36.3409C124.47 35.7409 125.08 35.4009 125.83 35.3409C126.7 35.2709 127.37 35.4409 127.82 35.8509C128.36 36.3509 128.4 37.0609 128.4 37.2709C128.4 37.8109 128.25 38.1909 127.97 38.3709V38.3609Z" fill="white"/>
<path d="M136.791 35.3108C135.991 34.9408 135.051 34.6808 133.911 34.8308C133.911 34.8308 131.991 35.2208 131.431 35.9908C130.411 37.4108 131.021 38.7008 131.541 39.1908C132.761 40.3208 133.171 40.1508 134.191 40.2208C135.471 40.3108 136.711 39.8508 137.411 39.3908C138.111 38.9308 138.191 37.6008 138.101 36.9708C138.011 36.3408 137.481 35.6208 136.791 35.3108Z" fill="#343434"/>
<path d="M131.28 36.0909C131.13 36.0409 130.97 36.1409 130.92 36.2909C130.51 37.7509 130.82 38.7109 131.16 39.2509C131.57 39.9109 132.28 40.3809 133.09 40.5309C133.46 40.6009 133.91 40.6409 134.4 40.6409C135.6 40.6409 136.97 40.3809 137.63 39.5909C138.59 38.4309 138.74 36.4609 137.33 35.1909C136.72 34.6409 135.8 34.4409 134.92 34.6809C134.18 34.8809 133.63 35.3509 133.44 35.9309C133.14 36.8709 133.2 37.6209 133.61 38.1509C134.29 39.0109 135.65 38.9209 135.71 38.9109C135.87 38.9009 135.99 38.7609 135.98 38.6009C135.97 38.4409 135.81 38.3009 135.67 38.3309C135.66 38.3309 134.55 38.4009 134.07 37.7909C133.78 37.4209 133.75 36.8609 133.99 36.1109C134.11 35.7209 134.53 35.3909 135.07 35.2409C135.61 35.1009 136.38 35.1209 136.94 35.6309C138.21 36.7809 137.85 38.4309 137.18 39.2309C136.46 40.1009 134.38 40.1909 133.19 39.9709C132.53 39.8509 131.97 39.4809 131.64 38.9609C131.24 38.3209 131.18 37.4609 131.46 36.4609C131.5 36.3109 131.41 36.1509 131.26 36.1009L131.28 36.0909Z" fill="white"/>
<path d="M116.64 71.921C116.64 71.921 116.25 75.291 116.64 78.151C117.03 81.011 124.96 82.931 125.41 83.221C125.85 83.521 128.32 82.581 131.27 80.661C134.23 78.741 139.15 70.761 139.15 70.761C139.15 70.761 134.86 70.371 134.52 70.071C134.18 69.771 133.88 68.591 133.88 68.591V60.561L121.86 57.261C121.86 57.261 122.11 65.681 122.11 66.221C122.11 66.761 121.77 68.141 120.48 69.721C119.2 71.301 116.64 71.911 116.64 71.911V71.921Z" fill="#E22547"/>
<path d="M132.7 62.441L131.57 62.731C130.69 62.951 129.77 62.921 128.92 62.601C127.87 62.211 126.29 61.501 124.26 60.181C123.64 59.781 122.74 58.9411 121.88 58.0811L121.91 58.871C121.91 58.871 125.47 63.031 129.58 64.061C131.85 64.631 133.88 63.821 133.88 63.821V62.201H133.86L132.68 62.441H132.7Z" fill="#343434"/>
<path d="M158.88 85.2709C158.57 87.1409 157.99 91.2509 157.58 94.2309C162 92.1909 166.89 91.0109 172.04 90.9409C171.3 88.6109 168.78 80.8009 167.16 77.7309C165.24 74.1109 162.36 70.6909 162.36 70.6909C160.99 75.9009 159.21 83.3209 158.89 85.2709H158.88Z" fill="#E22547"/>
<path d="M162.35 70.6909C161.41 74.1209 160.12 79.1309 159.05 84.3809C158.66 86.3009 158 90.9709 157.56 94.2309C158.53 93.7809 159.53 93.3709 160.54 93.0109C160.35 92.3509 159.81 89.9009 160.27 83.8709C160.42 81.8809 162.33 70.7309 162.34 70.7009L162.35 70.6909Z" fill="white"/>
<path d="M157.1 97.6809C157.1 97.6809 158.42 87.461 159.05 84.381C160.97 74.931 163.63 66.2109 163.63 66.2109L156.58 68.201L136.97 70.391C136.97 70.391 137 74.881 133.41 76.701C132.93 76.951 128.88 79.1809 127.67 79.6909C126.45 80.2109 126.36 81.701 126.36 81.701C126.36 81.701 125.89 80.491 125.64 80.301C124.86 79.711 123.45 79.371 121.08 78.271C116.54 76.151 117.43 71.6809 117.43 71.6809L101.98 75.891L96.9601 71.1609C96.9601 71.1609 96.7401 77.9609 96.9601 80.4709C97.1801 82.9809 98.0701 99.751 98.5901 100.861C99.1101 101.971 102.95 104.151 102.95 104.151C102.95 104.151 105.61 113.491 106.35 118.001C107.09 122.511 110.51 137.101 110.51 137.101L109.82 137.501L110.19 143.411C110.19 143.411 118.97 147.611 124.52 148.881C128.73 149.841 135.23 149.401 139.37 149.101C143.51 148.801 151.86 146.071 151.86 146.071L151.12 138.391L153.78 100.861L157.1 97.6809Z" fill="#343434"/>
<path d="M101.99 75.591C101.82 75.611 101.7 75.721 101.7 75.871C101.7 76.041 101.41 92.841 102.29 102.211C102.3 102.361 102.43 102.471 102.58 102.471C102.58 102.471 102.6 102.471 102.61 102.471C102.77 102.461 102.89 102.311 102.87 102.151C101.99 92.811 102.28 76.041 102.28 75.871C102.28 75.711 102.16 75.5811 102 75.5811L101.99 75.591Z" fill="white"/>
<path d="M126.34 81.8708C126.18 81.8808 126.06 82.0208 126.08 82.1808L127.6 99.0308C127.61 99.1808 127.74 99.2908 127.89 99.2908C127.89 99.2908 127.91 99.2908 127.92 99.2908C128.08 99.2808 128.2 99.1408 128.18 98.9808L126.66 82.1308C126.65 81.9708 126.5 81.8508 126.35 81.8708H126.34Z" fill="white"/>
<path d="M133.11 103.201C131.87 102.331 128.29 99.681 128.25 99.661C128.16 99.591 128.03 99.581 127.93 99.641C127.88 99.671 123.38 102.241 120.76 103.551C118.44 104.711 117.88 105.321 117.43 105.821C117.36 105.901 117.29 105.971 117.22 106.051C117.11 106.161 117.11 106.351 117.22 106.461C117.28 106.521 117.35 106.541 117.42 106.541C117.49 106.541 117.57 106.511 117.62 106.461C117.7 106.381 117.77 106.301 117.85 106.221C118.27 105.761 118.8 105.191 121.02 104.081C123.37 102.901 127.22 100.731 128.05 100.251C128.75 100.761 131.67 102.911 132.76 103.691C134.05 104.601 137.51 105.471 137.66 105.511C137.82 105.561 137.97 105.451 138.01 105.301C138.05 105.151 137.95 104.991 137.8 104.951C137.76 104.951 134.29 104.071 133.09 103.221L133.11 103.201Z" fill="white"/>
<path d="M128.28 107.661C128.12 107.661 128 107.801 128 107.961L128.89 131.681C128.89 131.841 129.02 131.961 129.18 131.961H129.19C129.35 131.961 129.47 131.821 129.47 131.661L128.58 107.941C128.58 107.781 128.45 107.661 128.28 107.661Z" fill="white"/>
<path d="M127.79 113.431C127.79 113.431 125 116.981 123.31 117.781C121.63 118.581 119.67 118.491 119.66 118.491C119.49 118.491 119.37 118.611 119.36 118.771C119.35 118.931 119.48 119.071 119.63 119.071C119.65 119.071 119.73 119.071 119.86 119.071C120.45 119.071 122.08 119.001 123.56 118.301C125.37 117.441 128.13 113.931 128.25 113.781C128.35 113.651 128.33 113.471 128.2 113.371C128.08 113.271 127.89 113.291 127.79 113.421V113.431Z" fill="white"/>
<path d="M128.53 124.041C128.53 124.041 124.31 128.191 123.04 129.351C121.88 130.421 120.29 130.211 120.27 130.211C120.13 130.211 119.97 130.301 119.94 130.461C119.92 130.621 120.03 130.761 120.19 130.791C120.21 130.791 120.38 130.821 120.63 130.821C121.26 130.821 122.46 130.681 123.43 129.781C124.7 128.611 128.89 124.501 128.93 124.451C129.04 124.341 129.05 124.151 128.93 124.041C128.82 123.931 128.64 123.921 128.52 124.041H128.53Z" fill="white"/>
<path d="M130.92 116.841C130.09 116.111 129.01 113.521 129 113.501C128.94 113.351 128.77 113.281 128.62 113.341C128.47 113.401 128.4 113.571 128.46 113.721C128.51 113.831 129.6 116.451 130.53 117.271C131.5 118.131 133.8 118.971 134.78 119.071C134.78 119.071 134.8 119.071 134.81 119.071C134.96 119.071 135.08 118.961 135.1 118.811C135.12 118.651 135 118.511 134.84 118.491C133.87 118.401 131.72 117.541 130.92 116.841Z" fill="white"/>
<path d="M132.36 127.991C131.2 126.831 130.23 125.341 129.71 124.541C129.58 124.341 129.48 124.181 129.41 124.091C129.32 123.961 129.13 123.931 129.01 124.031C128.88 124.121 128.85 124.301 128.95 124.431C129.01 124.521 129.11 124.671 129.23 124.861C129.76 125.681 130.75 127.201 131.96 128.411C133.5 129.951 134.76 130.021 134.81 130.021H134.82C134.97 130.021 135.1 129.901 135.11 129.741C135.11 129.581 135 129.451 134.84 129.441C134.83 129.441 133.74 129.361 132.37 128.001L132.36 127.991Z" fill="white"/>
<path d="M139.87 143.271C136.55 143.461 132.671 143.621 129.01 143.411C125.88 143.231 122.74 142.601 118.85 141.361C115.66 140.351 110.671 137.861 110.621 137.831C110.481 137.761 110.301 137.821 110.231 137.961C110.161 138.101 110.221 138.281 110.361 138.351C110.411 138.371 115.441 140.881 118.681 141.911C122.571 143.151 125.841 143.811 128.981 143.991C130.211 144.061 131.461 144.091 132.701 144.091C135.201 144.091 137.681 143.981 139.901 143.851C142.551 143.701 149.471 142.351 149.771 142.291C149.931 142.261 150.03 142.111 150 141.951C149.97 141.791 149.811 141.691 149.661 141.721C149.591 141.731 142.48 143.121 139.87 143.271Z" fill="white"/>
<path d="M155.86 68.811C155.84 68.901 154.08 78.271 153.57 83.251C153.06 88.221 152.98 99.781 152.98 99.901C152.98 100.061 153.11 100.191 153.27 100.191C153.43 100.191 153.56 100.061 153.56 99.901C153.56 99.781 153.64 88.261 154.15 83.311C154.66 78.361 156.42 69.021 156.44 68.921C156.47 68.761 156.37 68.611 156.21 68.581C156.05 68.551 155.9 68.651 155.87 68.811H155.86Z" fill="white"/>
<path d="M122.3 77.621C120.78 77.131 118.25 74.761 117.54 74.111C117.87 75.511 118.77 77.191 121.08 78.271C123.46 79.381 124.87 79.711 125.64 80.301C125.89 80.491 126.36 81.701 126.36 81.701C126.36 81.701 126.45 80.201 127.67 79.691C128.89 79.171 132.93 76.941 133.41 76.701C135.99 75.391 136.69 72.701 136.89 71.301C136.89 71.301 132.9 75.471 130.24 76.891C127.58 78.311 124.14 78.231 122.29 77.631L122.3 77.621Z" fill="white"/>
<path d="M124.52 148.881C119.03 147.631 110.39 143.511 110.2 143.421C110.2 143.421 115.96 147.931 119.75 148.881C131.28 151.761 133.86 151.131 140.47 150.621C144.86 150.281 153.28 147.701 153.28 147.701L152.59 145.711L151.83 145.911L151.85 146.081C151.85 146.081 143.5 148.811 139.36 149.111C135.22 149.411 128.72 149.851 124.51 148.891L124.52 148.881Z" fill="#343434"/>
<path d="M150.97 61.7309C149.71 61.9109 148.46 63.3909 148.46 63.3909C148.46 63.3909 146.02 62.4809 144.77 62.8609C143.51 63.2409 143.4 63.9809 143.4 63.9809C143.4 63.9809 142.59 62.6508 139.19 63.4608C137.34 63.9008 133.9 65.4809 133.9 65.4809V67.5309C133.9 67.5309 136.27 66.9709 138.31 68.4809C140.35 70.0009 140.78 71.2508 141.19 71.8408C141.6 72.4308 142.43 72.8509 142.43 72.8509L150.17 72.5109C150.58 72.5109 152.02 71.7709 152.94 70.0009C153.86 68.2309 154.93 65.6408 157.34 64.6808C159.74 63.7208 161.63 63.8708 161.63 63.8708C161.63 63.8708 159.01 61.8009 157.38 61.7609C155.75 61.7209 153.54 62.8609 153.54 62.8609C153.54 62.8609 152.25 61.5409 150.99 61.7309H150.97Z" fill="#E22547"/>
<path d="M143.381 65.5508C143.231 65.5208 143.071 65.6308 143.051 65.7908C143.041 65.8608 142.751 67.6408 143.051 68.9308C143.341 70.1808 143.551 70.8208 143.561 70.8508C143.601 70.9708 143.711 71.0508 143.841 71.0508C143.871 71.0508 143.901 71.0508 143.931 71.0408C144.081 70.9908 144.161 70.8308 144.121 70.6808C144.121 70.6808 143.911 70.0308 143.621 68.8108C143.341 67.6308 143.621 65.9108 143.621 65.8908C143.651 65.7308 143.541 65.5808 143.381 65.5608V65.5508Z" fill="white"/>
<path d="M147 70.2709C146.95 70.4209 147.03 70.5909 147.19 70.6409C147.22 70.6409 147.25 70.6508 147.28 70.6508C147.4 70.6508 147.52 70.5709 147.56 70.4509C147.58 70.3909 148.05 68.9509 148.23 68.1309C148.42 67.2909 148.4 65.7309 148.4 65.6609C148.4 65.5009 148.27 65.3708 148.11 65.3708C147.95 65.3708 147.82 65.5009 147.82 65.6609C147.82 65.6809 147.84 67.2209 147.66 67.9909C147.48 68.7809 147.01 70.2409 147 70.2609V70.2709Z" fill="white"/>
<path d="M142.17 74.3608C142.17 76.5708 143.96 78.3608 146.17 78.3608C148.38 78.3608 150.17 76.5708 150.17 74.3608C150.17 72.1508 148.38 70.3608 146.17 70.3608C143.96 70.3608 142.17 72.1508 142.17 74.3608Z" fill="white"/>
<path d="M146.15 71.9509C144.87 71.9509 143.84 72.9809 143.84 74.2609C143.84 75.5409 144.87 76.5709 146.15 76.5709C147.43 76.5709 148.46 75.5409 148.46 74.2609C148.46 72.9809 147.43 71.9509 146.15 71.9509Z" fill="#343434"/>
<path d="M112.22 67.9208C109.01 69.0808 110.24 70.4208 108.07 70.2708C105.9 70.1208 107.23 69.2808 104.18 69.9208C101.13 70.5608 101.72 70.4608 100.54 71.0008C99.36 71.5408 98.25 72.3608 98.25 72.3608C98.25 72.3608 100.57 74.7708 101.8 75.8808C103.03 76.9908 107.13 78.2608 107.13 78.2608L112.92 76.2808C112.92 76.2808 115.55 72.3208 117.44 71.6708C119.59 70.9308 120.61 69.5708 120.61 69.5708C120.61 69.5708 118.77 69.1308 116.7 68.8608C114.63 68.5908 115.44 66.7608 112.23 67.9208H112.22Z" fill="#E22547"/>
<path d="M105.92 78.9209C105.92 81.1309 107.71 82.9209 109.92 82.9209C112.13 82.9209 113.92 81.1309 113.92 78.9209C113.92 76.7109 112.13 74.9209 109.92 74.9209C107.71 74.9209 105.92 76.7109 105.92 78.9209Z" fill="white"/>
<path d="M107.6 78.821C107.6 80.101 108.63 81.131 109.91 81.131C111.19 81.131 112.22 80.101 112.22 78.821C112.22 77.541 111.19 76.511 109.91 76.511C108.63 76.511 107.6 77.541 107.6 78.821Z" fill="#343434"/>
<path d="M102.82 72.7008C102.73 72.5708 102.55 72.5408 102.42 72.6308C102.29 72.7208 102.26 72.9008 102.35 73.0308C102.4 73.1008 103.57 74.7708 104.64 75.5308C105.68 76.2708 107.41 77.1108 107.49 77.1408C107.53 77.1608 107.57 77.1708 107.62 77.1708C107.73 77.1708 107.83 77.1108 107.88 77.0108C107.95 76.8708 107.88 76.6908 107.74 76.6208C107.72 76.6208 105.98 75.7708 104.98 75.0608C104 74.3608 102.84 72.7208 102.83 72.7008H102.82Z" fill="white"/>
<path d="M107.03 70.4908C106.99 70.3408 106.83 70.2508 106.67 70.2908C106.52 70.3308 106.43 70.4907 106.47 70.6507C106.49 70.7307 107.02 72.6108 107.32 73.4508C107.62 74.2908 108.23 75.6507 108.25 75.7107C108.3 75.8207 108.4 75.8807 108.51 75.8807C108.55 75.8807 108.59 75.8808 108.63 75.8608C108.78 75.7908 108.84 75.6208 108.78 75.4808C108.78 75.4708 108.15 74.0808 107.86 73.2608C107.57 72.4408 107.02 70.5207 107.02 70.5007L107.03 70.4908Z" fill="white"/>
<path d="M113.01 70.5608C111.94 71.6908 110.92 75.1008 110.87 75.2408C110.82 75.3908 110.91 75.5508 111.06 75.6008C111.09 75.6008 111.12 75.6108 111.14 75.6108C111.26 75.6108 111.38 75.5308 111.42 75.4008C111.43 75.3708 112.45 71.9808 113.42 70.9508C114.38 69.9308 115.13 69.6908 115.14 69.6908C115.29 69.6408 115.38 69.4808 115.33 69.3308C115.28 69.1808 115.12 69.0908 114.97 69.1408C114.93 69.1508 114.07 69.4208 113 70.5608H113.01Z" fill="white"/>
<path d="M174.77 302.181L165.46 304.031L167.28 307.331C167.28 307.331 169.43 311.471 169.59 315.111C169.75 318.751 170.46 327.281 171.44 327.871C172.42 328.461 177.28 327.721 181.66 327.851C187.32 328.021 188.95 327.071 188.43 325.151C187.91 323.231 183.7 315.991 181.19 312.221C178.68 308.451 174.77 302.171 174.77 302.171V302.181Z" fill="#E22547"/>
<path d="M177.55 304.811L165.7 306.531C164.75 306.671 164.09 307.551 164.23 308.501C164.36 309.361 165.1 309.991 165.95 309.991C166.03 309.991 166.12 309.991 166.2 309.971L178.05 308.251C179 308.111 179.66 307.231 179.52 306.281C179.38 305.331 178.5 304.671 177.55 304.811Z" fill="#343434"/>
<path d="M184.579 314.561C185.059 313.731 184.789 312.671 183.959 312.191C183.499 311.921 180.899 310.651 174.639 311.991C170.929 312.781 168.689 314.761 167.739 315.601C167.649 315.671 167.579 315.741 167.529 315.791C166.819 316.211 166.489 317.101 166.789 317.901C167.049 318.601 167.709 319.031 168.419 319.031C168.619 319.031 168.829 318.991 169.029 318.921C169.409 318.781 169.659 318.551 170.039 318.221C170.859 317.501 172.559 316.001 175.379 315.401C180.279 314.351 182.209 315.201 182.219 315.201C183.049 315.681 184.109 315.401 184.599 314.581L184.579 314.561Z" fill="#343434"/>
<path d="M176.68 318.671C172.36 319.441 168.59 322.731 168.43 322.871C167.71 323.501 167.64 324.601 168.28 325.321C168.62 325.711 169.1 325.911 169.58 325.911C169.99 325.911 170.4 325.771 170.73 325.481C170.76 325.451 173.94 322.691 177.29 322.091C182.49 321.171 186.39 322.671 186.43 322.681C187.32 323.041 188.33 322.611 188.69 321.721C189.05 320.831 188.62 319.821 187.73 319.461C187.54 319.381 182.91 317.561 176.69 318.671H176.68Z" fill="#343434"/>
<path d="M170.53 328.101C169.57 328.121 168.81 328.921 168.84 329.881C168.86 330.831 169.64 331.571 170.58 331.571H170.62L188.89 331.131C189.85 331.111 190.61 330.311 190.58 329.351C190.56 328.391 189.78 327.681 188.8 327.661L170.53 328.101Z" fill="#343434"/>
<path d="M172.219 306.351C171.299 306.611 170.759 307.571 171.019 308.491C171.059 308.621 171.949 311.771 173.489 314.531C174.949 317.151 177.159 321.021 177.159 321.021L180.169 319.291C180.169 319.291 177.969 315.441 176.519 312.841C175.189 310.451 174.369 307.571 174.359 307.541C174.099 306.621 173.139 306.091 172.219 306.341V306.351Z" fill="#343434"/>
<path d="M164.35 231.881C163.28 231.001 159.26 226.771 158.5 226.251C156.61 224.951 154.98 225.521 153.49 226.431C151.77 227.481 150.58 230.331 149.85 232.111C149.11 233.891 144.47 241.081 144.47 241.081C144.47 241.081 150.76 259.591 151.71 263.021C152.66 266.451 163.35 303.561 163.35 303.561C163.35 303.561 164.6 303.661 167.54 303.451C170.48 303.241 174.76 300.861 174.76 300.861C174.76 300.861 173.34 279.071 172.74 269.641C172.15 260.211 168.51 234.231 168.51 234.231C168.51 234.231 165.58 232.901 164.34 231.891L164.35 231.881Z" fill="#343434"/>
<path d="M162.17 302.811L163.11 305.791C163.11 305.791 165.86 305.811 168.45 305.301C171.04 304.801 177.07 302.781 176.99 302.531C176.91 302.281 176.27 299.391 176.27 299.391C176.27 299.391 172.39 301.211 169.34 301.861C166.29 302.511 162.17 302.821 162.17 302.821V302.811Z" fill="#E22547"/>
<path d="M160.38 209.711C158.02 210.701 145.7 216.011 142.06 216.311C141.6 216.351 141.1 216.381 140.58 216.411C141.76 219.321 144.1 225.171 144.53 227.141C144.85 228.601 145.67 233.461 146.49 237.891C147.84 235.731 149.44 233.091 149.85 232.111C150.59 230.331 151.77 227.491 153.49 226.431C154.98 225.521 156.61 224.941 158.5 226.251C159.26 226.771 163.28 231.001 164.35 231.881C164.64 232.121 165.02 232.371 165.43 232.621C164.27 228.991 162.81 224.261 162.64 222.811C162.45 221.201 161.75 214.081 161.29 209.331C160.91 209.481 160.6 209.611 160.38 209.701V209.711Z" fill="#E22547"/>
<path d="M142.06 216.311C141.6 216.351 141.1 216.381 140.58 216.411L141.51 218.731C141.51 218.731 148.6 216.651 149.93 216.011C151.26 215.371 161.56 212.121 161.56 212.121L161.41 209.281C160.98 209.451 160.62 209.601 160.38 209.701C158.02 210.691 145.7 216.001 142.06 216.301V216.311Z" fill="#343434"/>
<mask id="mask0_372_684" style="mask-type:luminance" maskUnits="userSpaceOnUse" x="144" y="225" width="31" height="79">
<path d="M144.47 241.081C144.47 241.081 149.11 233.891 149.85 232.111C150.59 230.331 151.77 227.491 153.49 226.431C154.98 225.521 156.61 224.941 158.5 226.251C159.26 226.771 163.28 231.001 164.35 231.881C165.59 232.901 168.52 234.221 168.52 234.221C168.52 234.221 172.15 260.201 172.75 269.631C173.34 279.061 174.77 300.851 174.77 300.851C174.77 300.851 170.49 303.231 167.55 303.441C164.61 303.651 163.36 303.551 163.36 303.551C163.36 303.551 152.67 266.451 151.72 263.011C150.77 259.571 144.48 241.071 144.48 241.071L144.47 241.081Z" fill="white"/>
</mask>
<g mask="url(#mask0_372_684)">
<path d="M159.479 231.991C159.189 231.721 158.939 231.461 158.709 231.221C157.689 230.161 156.939 229.391 155.199 229.961C154.419 230.211 153.789 231.451 152.979 233.031C152.529 233.911 152.059 234.831 151.519 235.661C151.229 236.111 150.839 236.721 150.419 237.391C149.409 238.981 147.719 241.651 147.399 241.891C147.269 241.981 147.239 242.161 147.329 242.291C147.389 242.371 147.479 242.411 147.569 242.411C147.629 242.411 147.689 242.391 147.739 242.361C148.129 242.081 149.299 240.251 150.919 237.701C151.339 237.031 151.729 236.421 152.019 235.971C152.579 235.111 153.079 234.151 153.509 233.291C154.199 231.951 154.849 230.691 155.399 230.511C156.799 230.061 157.339 230.611 158.309 231.621C158.549 231.871 158.809 232.141 159.099 232.411C160.769 233.971 163.439 235.961 165.309 236.731C165.919 236.981 168.099 238.011 168.129 238.021C168.269 238.091 168.449 238.021 168.509 237.881C168.579 237.741 168.509 237.561 168.369 237.491C168.279 237.451 166.149 236.451 165.529 236.191C163.929 235.531 161.389 233.771 159.489 231.981L159.479 231.991Z" fill="#E22547"/>
<path d="M160.049 237.241C159.029 236.181 158.29 235.411 156.54 235.981C155.76 236.231 155.119 237.471 154.319 239.051C153.869 239.931 153.399 240.851 152.859 241.681C150.989 244.551 147.28 250.071 146.84 250.421C146.71 250.511 146.68 250.691 146.77 250.821C146.83 250.901 146.919 250.941 147.009 250.941C147.069 250.941 147.129 250.921 147.179 250.891C147.819 250.441 153.29 242.081 153.35 242.001C153.91 241.141 154.41 240.181 154.84 239.321C155.53 237.981 156.18 236.721 156.73 236.541C158.13 236.091 158.669 236.641 159.639 237.651C159.879 237.901 160.139 238.171 160.429 238.441C162.099 240.001 164.769 241.991 166.639 242.761C167.269 243.021 170.46 244.341 170.46 244.341L170.679 243.811C170.679 243.811 167.48 242.481 166.85 242.231C165.25 241.571 162.709 239.811 160.809 238.021C160.519 237.751 160.27 237.491 160.04 237.251L160.049 237.241Z" fill="#E22547"/>
<path d="M161.82 244.551C161.53 244.281 161.28 244.021 161.05 243.781C160.03 242.721 159.29 241.951 157.54 242.521C156.76 242.771 156.13 244.011 155.32 245.591C154.87 246.471 154.4 247.391 153.85 248.221C153.61 248.591 153.26 249.141 152.85 249.771C151.58 251.761 149.21 255.461 148.83 255.741C148.7 255.831 148.67 256.011 148.76 256.141C148.82 256.221 148.91 256.261 149 256.261C149.06 256.261 149.12 256.241 149.17 256.211C149.54 255.941 150.87 253.941 153.34 250.081C153.74 249.451 154.09 248.901 154.33 248.531C154.89 247.671 155.39 246.701 155.83 245.851C156.52 244.511 157.17 243.251 157.72 243.071C159.12 242.621 159.66 243.171 160.63 244.181C160.87 244.431 161.13 244.701 161.42 244.971C163.09 246.531 165.75 248.521 167.63 249.291C168.24 249.541 170.42 250.571 170.45 250.581C170.59 250.651 170.77 250.581 170.83 250.441C170.9 250.301 170.83 250.121 170.69 250.051C170.6 250.011 168.48 249.011 167.85 248.751C166.25 248.091 163.71 246.321 161.81 244.541L161.82 244.551Z" fill="#E22547"/>
<path d="M164.929 253.511C164.639 253.241 164.389 252.981 164.159 252.741C163.139 251.681 162.389 250.911 160.649 251.481C159.869 251.731 159.239 252.971 158.429 254.541C157.979 255.421 157.509 256.341 156.959 257.171C155.489 259.431 151.719 264.991 151.269 265.341C151.139 265.431 151.109 265.611 151.199 265.741C151.259 265.821 151.349 265.861 151.439 265.861C151.499 265.861 151.559 265.841 151.609 265.811C152.219 265.371 156.849 258.411 157.449 257.491C158.009 256.631 158.509 255.671 158.949 254.811C159.639 253.471 160.289 252.211 160.839 252.031C162.239 251.581 162.779 252.131 163.749 253.141C163.989 253.391 164.249 253.661 164.539 253.931C166.209 255.491 168.879 257.481 170.749 258.251C171.359 258.501 173.539 259.531 173.569 259.541C173.709 259.601 173.889 259.541 173.949 259.401C174.019 259.261 173.949 259.081 173.809 259.011C173.719 258.971 171.589 257.971 170.969 257.711C169.369 257.051 166.829 255.291 164.929 253.501V253.511Z" fill="#E22547"/>
<path d="M166.46 261.561C166.17 261.291 165.92 261.031 165.69 260.791C164.67 259.731 163.93 258.971 162.18 259.531C161.4 259.781 160.76 261.031 159.96 262.601C159.51 263.481 159.04 264.401 158.5 265.231C158.06 265.911 157.27 267.261 156.43 268.701C155.32 270.611 153.79 273.231 153.5 273.481C153.37 273.571 153.34 273.751 153.43 273.881C153.49 273.961 153.58 274.001 153.67 274.001C153.73 274.001 153.79 273.981 153.84 273.951C154.16 273.721 155.08 272.191 156.94 268.991C157.77 267.561 158.56 266.221 158.99 265.551C159.55 264.691 160.05 263.731 160.48 262.871C161.17 261.531 161.82 260.271 162.37 260.091C163.77 259.641 164.3 260.191 165.28 261.201C165.52 261.451 165.78 261.721 166.07 261.991C167.74 263.551 170.4 265.541 172.28 266.311C172.89 266.561 175.07 267.591 175.1 267.601C175.24 267.671 175.42 267.601 175.48 267.461C175.55 267.321 175.48 267.141 175.34 267.071C175.25 267.031 173.13 266.031 172.5 265.771C170.9 265.111 168.36 263.341 166.46 261.561Z" fill="#E22547"/>
<path d="M167.539 271.311C167.249 271.041 166.999 270.781 166.769 270.541C165.749 269.481 165.009 268.711 163.259 269.281C162.479 269.531 161.849 270.771 161.039 272.351C160.589 273.231 160.119 274.151 159.569 274.981C159.279 275.431 158.889 276.051 158.459 276.731C157.449 278.321 155.769 280.981 155.439 281.221C155.309 281.311 155.279 281.491 155.369 281.621C155.429 281.701 155.519 281.741 155.609 281.741C155.669 281.741 155.729 281.721 155.779 281.691C156.169 281.411 157.339 279.591 158.949 277.041C159.379 276.371 159.769 275.751 160.059 275.301C160.619 274.441 161.119 273.481 161.559 272.621C162.249 271.281 162.899 270.021 163.449 269.841C164.849 269.381 165.389 269.941 166.359 270.951C166.599 271.201 166.859 271.471 167.149 271.741C168.809 273.301 171.479 275.291 173.359 276.061C173.969 276.311 176.149 277.341 176.179 277.351C176.319 277.421 176.499 277.351 176.559 277.211C176.619 277.071 176.559 276.891 176.419 276.821C176.329 276.781 174.199 275.781 173.579 275.521C171.979 274.861 169.439 273.091 167.539 271.311Z" fill="#E22547"/>
<path d="M169.05 279.391C168.76 279.121 168.51 278.861 168.28 278.621C167.26 277.561 166.51 276.801 164.77 277.361C163.99 277.611 163.35 278.861 162.55 280.431C162.1 281.311 161.63 282.231 161.09 283.061C160.8 283.511 160.41 284.121 159.99 284.791C158.98 286.391 157.29 289.061 156.96 289.291C156.83 289.381 156.8 289.561 156.89 289.691C156.95 289.771 157.04 289.811 157.13 289.811C157.19 289.811 157.25 289.791 157.3 289.761C157.69 289.481 158.86 287.651 160.48 285.101C160.9 284.431 161.29 283.821 161.58 283.381C162.14 282.521 162.64 281.561 163.07 280.701C163.76 279.361 164.41 278.101 164.96 277.921C166.36 277.471 166.9 278.021 167.87 279.031C168.11 279.281 168.37 279.541 168.66 279.821C170.33 281.381 172.99 283.371 174.87 284.141C175.48 284.391 177.66 285.421 177.69 285.431C177.83 285.501 178.01 285.431 178.07 285.291C178.14 285.151 178.07 284.971 177.93 284.901C177.84 284.861 175.72 283.861 175.09 283.601C173.49 282.941 170.95 281.171 169.05 279.391Z" fill="#E22547"/>
<path d="M170.819 288.681C170.529 288.411 170.279 288.151 170.049 287.911C169.029 286.851 168.289 286.081 166.539 286.651C165.759 286.901 165.129 288.141 164.319 289.721C163.869 290.601 163.399 291.521 162.859 292.351C162.569 292.801 162.179 293.411 161.759 294.071C160.749 295.671 159.059 298.351 158.729 298.581C158.599 298.671 158.569 298.851 158.659 298.981C158.719 299.061 158.809 299.101 158.899 299.101C158.959 299.101 159.019 299.081 159.069 299.051C159.459 298.771 160.639 296.941 162.259 294.381C162.679 293.721 163.059 293.111 163.349 292.671C163.909 291.811 164.409 290.851 164.839 289.991C165.529 288.651 166.179 287.391 166.729 287.211C168.129 286.751 168.659 287.311 169.639 288.321C169.879 288.571 170.139 288.831 170.429 289.111C172.099 290.671 174.759 292.661 176.639 293.431C177.249 293.681 179.429 294.711 179.459 294.721C179.599 294.791 179.779 294.721 179.839 294.581C179.909 294.441 179.839 294.261 179.699 294.191C179.609 294.151 177.489 293.151 176.859 292.891C175.259 292.231 172.719 290.461 170.819 288.681Z" fill="#E22547"/>
</g>
<path d="M80.1902 327.181C78.2702 327.721 78.0702 327.621 77.3802 328.611C76.6902 329.591 76.7902 331.891 76.7902 331.891C76.7902 331.891 88.0202 332.261 91.0502 331.891C94.0802 331.521 93.1202 330.631 95.8502 328.271C98.5802 325.911 99.1702 324.951 100.14 323.021C101.1 321.101 99.2002 318.561 98.3202 317.871C97.4302 317.181 97.4302 314.821 97.4302 311.961C97.4302 309.101 98.3202 306.941 98.3202 305.951C98.3202 304.961 87.7802 305.951 87.7802 305.951H87.0402C87.0402 305.951 87.6802 314.911 86.4002 317.481C85.1202 320.041 82.1102 326.641 80.1902 327.181Z" fill="#E22547"/>
<path d="M86.4207 310.601C85.4607 310.551 84.6507 311.311 84.6207 312.271C84.5807 313.231 85.3307 314.031 86.2907 314.071L98.2506 314.531C98.2506 314.531 98.3007 314.531 98.3207 314.531C99.2507 314.531 100.021 313.801 100.051 312.861C100.091 311.901 99.3406 311.101 98.3806 311.061L86.4207 310.601Z" fill="#343434"/>
<path d="M90.2604 320.011C87.5404 319.261 83.9704 318.471 83.8204 318.441C82.8804 318.231 81.9604 318.821 81.7504 319.761C81.5404 320.701 82.1304 321.621 83.0704 321.831C83.1104 321.831 86.7005 322.631 89.3405 323.361C93.6105 324.541 95.1904 327.951 95.2504 328.081C95.5304 328.731 96.1705 329.121 96.8405 329.121C97.0705 329.121 97.3105 329.071 97.5305 328.981C98.4105 328.601 98.8105 327.571 98.4305 326.691C98.3405 326.491 96.1704 321.641 90.2604 320.011Z" fill="#343434"/>
<path d="M88.2104 325.451C85.9404 324.321 80.8404 323.651 80.2604 323.581C79.3004 323.461 78.4404 324.141 78.3204 325.091C78.2004 326.041 78.8804 326.911 79.8304 327.031C81.7704 327.271 85.3504 327.901 86.6604 328.561C88.5804 329.521 91.7904 331.801 91.8204 331.821C92.1304 332.041 92.4804 332.141 92.8204 332.141C93.3604 332.141 93.9004 331.891 94.2404 331.411C94.8004 330.631 94.6104 329.541 93.8304 328.991C93.6904 328.891 90.3704 326.531 88.2104 325.451Z" fill="#343434"/>
<path d="M99.3602 323.511C97.0402 326.511 92.3302 331.291 89.5602 331.351C85.0202 331.451 76.9002 331.311 76.8202 331.311C75.8802 331.311 75.0702 332.061 75.0502 333.021C75.0302 333.981 75.8002 334.771 76.7602 334.791C76.8202 334.791 81.3402 334.871 85.5502 334.871C87.0202 334.871 88.4402 334.871 89.6402 334.841C94.9502 334.731 101.39 326.581 102.11 325.651C102.7 324.891 102.56 323.801 101.8 323.221C101.04 322.631 99.9502 322.771 99.3602 323.531V323.511Z" fill="#343434"/>
<path d="M87.3403 312.191C86.9703 314.721 86.0403 319.281 85.1103 320.781C83.8703 322.801 82.4103 323.911 82.4103 323.911C81.6403 324.481 81.4803 325.571 82.0503 326.341C82.3903 326.801 82.9203 327.041 83.4503 327.041C83.8103 327.041 84.1703 326.931 84.4803 326.701C84.5603 326.641 86.4703 325.211 88.0803 322.591C89.6703 320.001 90.6703 313.431 90.7803 312.681C90.9203 311.731 90.2603 310.851 89.3203 310.711C88.3703 310.571 87.4903 311.231 87.3503 312.181L87.3403 312.191Z" fill="#343434"/>
<path d="M117.11 209.641L97.7703 198.081C97.7703 198.081 93.6603 211.261 92.3803 219.291C91.3503 225.741 89.5703 235.221 89.5703 237.101C89.5703 238.981 109.15 238.581 109.15 238.581C109.15 238.581 108.92 232.931 109.47 230.061C110.92 222.551 117.11 209.651 117.11 209.651V209.641Z" fill="#E22547"/>
<path d="M90.6706 306.541C93.5606 307.131 98.3206 305.951 98.3206 305.951C98.3206 305.951 102.751 284.081 104.691 274.621C106.631 265.161 110.041 238.571 110.041 238.571C110.041 238.571 107.561 236.461 106.641 235.121C105.851 233.971 103.091 228.701 102.501 227.981C101.021 226.181 99.3006 226.311 97.6206 226.801C95.6806 227.371 93.7806 229.851 92.6006 231.411C91.4206 232.961 87.4306 238.581 87.4306 238.581C87.4306 238.581 87.6806 256.311 87.6806 259.961C87.6806 263.611 86.6006 305.531 86.6006 305.531C86.6006 305.531 87.7806 305.971 90.6706 306.561V306.541Z" fill="#343434"/>
<path d="M85.5898 303.591V306.711C85.5898 306.711 88.2098 307.551 90.8298 307.841C93.4498 308.141 99.8098 308.021 99.8098 307.761C99.8098 307.501 100.07 304.551 100.07 304.551C100.07 304.551 95.8198 305.121 92.7198 304.831C89.6198 304.531 85.5898 303.591 85.5898 303.591Z" fill="#E22547"/>
<path d="M96.3698 202.811L96.0898 203.791C96.0898 203.791 96.8898 204.591 97.9198 205.501C98.9498 206.411 102.5 207.131 106.17 208.681C109.84 210.231 115.68 212.771 115.68 212.771L116.45 211.221C114.67 210.101 112.55 209.171 110.48 208.281C107.38 206.951 102.06 206.361 99.6198 204.881C98.4498 204.171 97.4298 203.501 96.3698 202.811Z" fill="#343434"/>
<mask id="mask1_372_684" style="mask-type:luminance" maskUnits="userSpaceOnUse" x="86" y="226" width="25" height="81">
<path d="M87.4306 238.571C87.4306 238.571 91.4206 232.961 92.6006 231.401C93.7806 229.851 95.6806 227.371 97.6206 226.791C99.2906 226.301 101.021 226.171 102.501 227.971C103.091 228.691 105.841 233.961 106.641 235.111C107.561 236.451 110.041 238.561 110.041 238.561C110.041 238.561 106.631 265.161 104.691 274.611C102.751 284.071 98.3206 305.941 98.3206 305.941C98.3206 305.941 93.5606 307.121 90.6706 306.531C87.7806 305.941 86.6006 305.501 86.6006 305.501C86.6006 305.501 87.6806 263.581 87.6806 259.931C87.6806 256.281 87.4306 238.551 87.4306 238.551V238.571Z" fill="white"/>
</mask>
<g mask="url(#mask1_372_684)">
<path d="M101.76 233.921C101.57 233.571 101.41 233.251 101.26 232.951C100.62 231.631 100.15 230.671 98.3203 230.671C96.9903 230.671 94.1203 233.471 93.0003 235.001C92.6203 235.521 92.0503 236.361 91.4503 237.251C90.3503 238.881 88.6903 241.341 88.3003 241.541C88.1503 241.591 88.0704 241.751 88.1204 241.901C88.1704 242.051 88.3303 242.141 88.4803 242.091C88.9103 241.961 89.7603 240.791 91.9303 237.571C92.5303 236.691 93.0903 235.851 93.4703 235.331C94.7203 233.621 97.4003 231.241 98.3203 231.241C99.7803 231.241 100.12 231.941 100.74 233.191C100.89 233.501 101.05 233.831 101.25 234.191C102.35 236.191 104.28 238.911 105.82 240.221C106.32 240.651 108.08 242.301 108.1 242.321C108.16 242.371 108.23 242.401 108.3 242.401C108.38 242.401 108.45 242.371 108.51 242.311C108.62 242.191 108.61 242.011 108.5 241.901C108.43 241.831 106.72 240.221 106.2 239.791C104.88 238.671 103.01 236.201 101.76 233.921Z" fill="#E22547"/>
<path d="M100.8 239.501C100.61 239.151 100.45 238.831 100.3 238.531C99.6604 237.211 99.1904 236.251 97.3604 236.251C96.0304 236.251 93.1604 239.051 92.0404 240.581C91.6604 241.101 91.0904 241.951 90.4904 242.841C89.3904 244.471 87.7304 246.931 87.3404 247.131C87.1904 247.181 87.1104 247.341 87.1604 247.491C87.2104 247.641 87.3704 247.731 87.5204 247.681C87.9504 247.551 88.7904 246.381 90.9704 243.161C91.5704 242.271 92.1304 241.441 92.5104 240.921C93.7604 239.211 96.4404 236.831 97.3604 236.831C98.8204 236.831 99.1604 237.531 99.7804 238.781C99.9304 239.091 100.09 239.421 100.29 239.781C101.39 241.781 103.32 244.501 104.86 245.811C105.38 246.251 108.84 249.251 108.84 249.251L109.22 248.811C109.22 248.811 105.75 245.811 105.24 245.371C103.92 244.251 102.05 241.781 100.8 239.501Z" fill="#E22547"/>
<path d="M104.69 253.101C103.37 251.981 101.5 249.511 100.25 247.231C100.06 246.881 99.8998 246.561 99.7498 246.261C99.1098 244.941 98.6399 243.981 96.8099 243.981C95.4799 243.981 92.6099 246.781 91.4899 248.311C91.0999 248.841 90.5399 249.681 89.9299 250.571C88.8299 252.201 87.1699 254.651 86.7799 254.861C86.6299 254.911 86.5498 255.071 86.5998 255.221C86.6498 255.371 86.8099 255.461 86.9599 255.411C87.3899 255.281 88.2299 254.111 90.3999 250.901C90.9999 250.011 91.5598 249.181 91.9398 248.661C93.1898 246.951 95.8698 244.571 96.7898 244.571C98.2498 244.571 98.5899 245.271 99.2099 246.521C99.3599 246.831 99.5198 247.161 99.7198 247.521C100.82 249.521 102.75 252.231 104.29 253.551C104.7 253.901 106.93 256.571 107.75 257.571C107.81 257.641 107.89 257.681 107.97 257.681C108.03 257.681 108.1 257.661 108.15 257.611C108.27 257.511 108.29 257.331 108.19 257.201C108.07 257.051 105.19 253.561 104.66 253.111L104.69 253.101Z" fill="#E22547"/>
<path d="M100.251 256.351C100.061 256.001 99.9006 255.681 99.7506 255.381C99.1106 254.061 98.6406 253.101 96.8106 253.101C95.4806 253.101 92.6106 255.911 91.4906 257.431C91.1006 257.961 90.5306 258.801 89.9306 259.691C88.8306 261.321 87.1806 263.771 86.7906 263.971C86.6406 264.021 86.5606 264.181 86.6106 264.331C86.6606 264.481 86.8206 264.571 86.9706 264.521C87.4006 264.391 88.2406 263.221 90.4106 260.011C91.0106 259.121 91.5806 258.281 91.9606 257.761C93.2106 256.051 95.8906 253.671 96.8106 253.671C98.2706 253.671 98.6106 254.371 99.2306 255.621C99.3806 255.931 99.5406 256.261 99.7406 256.621C100.841 258.621 102.771 261.331 104.311 262.651C104.821 263.081 106.571 264.731 106.591 264.751C106.651 264.801 106.721 264.831 106.791 264.831C106.871 264.831 106.941 264.801 107.001 264.741C107.111 264.621 107.101 264.441 106.991 264.331C106.921 264.261 105.211 262.651 104.691 262.221C103.371 261.101 101.501 258.631 100.251 256.351Z" fill="#E22547"/>
<path d="M99.5006 265.161C99.3106 264.811 99.1506 264.491 99.0006 264.191C98.3606 262.871 97.8906 261.911 96.0606 261.911C94.7306 261.911 91.8606 264.721 90.7406 266.241C90.3506 266.771 89.7806 267.611 89.1806 268.501C88.0806 270.131 86.4306 272.581 86.0406 272.781C85.8906 272.831 85.8106 272.991 85.8606 273.141C85.9106 273.291 86.0706 273.381 86.2206 273.331C86.6506 273.201 87.4906 272.031 89.6606 268.821C90.2606 267.931 90.8306 267.091 91.2106 266.571C92.4606 264.861 95.1406 262.481 96.0606 262.481C97.5306 262.481 97.8606 263.181 98.4806 264.431C98.6306 264.741 98.7906 265.071 98.9906 265.431C100.091 267.431 102.021 270.141 103.561 271.461C104.071 271.891 105.821 273.541 105.841 273.561C105.901 273.611 105.971 273.641 106.041 273.641C106.121 273.641 106.191 273.611 106.251 273.551C106.361 273.431 106.351 273.251 106.241 273.141C106.171 273.071 104.461 271.461 103.941 271.031C102.621 269.911 100.751 267.441 99.5006 265.161Z" fill="#E22547"/>
<path d="M98.1998 274.521C98.0098 274.171 97.8498 273.851 97.6998 273.551C97.0598 272.231 96.5898 271.271 94.7598 271.271C93.4298 271.271 90.5598 274.071 89.4398 275.601C89.0598 276.121 88.4898 276.961 87.8898 277.851C86.7898 279.481 85.1298 281.941 84.7398 282.141C84.5898 282.191 84.5098 282.351 84.5598 282.501C84.6098 282.651 84.7698 282.741 84.9198 282.691C85.3498 282.561 86.1998 281.391 88.3698 278.171C88.9698 277.291 89.5298 276.451 89.9098 275.931C91.1598 274.221 93.8398 271.841 94.7598 271.841C96.2198 271.841 96.5598 272.541 97.1798 273.791C97.3298 274.101 97.4898 274.431 97.6898 274.791C98.7898 276.791 100.72 279.511 102.26 280.821C102.77 281.251 104.52 282.901 104.54 282.921C104.6 282.971 104.67 283.001 104.74 283.001C104.82 283.001 104.89 282.971 104.95 282.911C105.06 282.791 105.05 282.611 104.94 282.501C104.87 282.431 103.16 280.821 102.64 280.391C101.32 279.271 99.4498 276.801 98.1998 274.521Z" fill="#E22547"/>
<path d="M96.8102 284.831C96.6202 284.481 96.4602 284.161 96.3102 283.861C95.6702 282.541 95.2002 281.581 93.3702 281.581C92.0402 281.581 89.1702 284.391 88.0502 285.911C87.6602 286.441 87.1002 287.281 86.4902 288.171C85.3902 289.801 83.7301 292.251 83.3501 292.461C83.2001 292.511 83.1202 292.671 83.1702 292.821C83.2202 292.971 83.3802 293.061 83.5302 293.011C83.9602 292.881 84.8001 291.711 86.9701 288.501C87.5701 287.611 88.1302 286.771 88.5102 286.261C89.7602 284.551 92.4402 282.171 93.3602 282.171C94.8202 282.171 95.1602 282.871 95.7802 284.121C95.9302 284.431 96.0902 284.761 96.2902 285.121C97.3902 287.121 99.3202 289.841 100.86 291.151C101.37 291.581 103.12 293.231 103.14 293.251C103.2 293.301 103.27 293.331 103.34 293.331C103.42 293.331 103.49 293.301 103.55 293.241C103.66 293.121 103.65 292.941 103.54 292.831C103.47 292.761 101.76 291.151 101.24 290.721C99.9202 289.601 98.0502 287.131 96.8002 284.851L96.8102 284.831Z" fill="#E22547"/>
<path d="M96.8102 294.401C96.6202 294.051 96.4602 293.731 96.3102 293.431C95.6702 292.111 95.2002 291.151 93.3702 291.151C92.0402 291.151 89.1702 293.951 88.0502 295.481C87.6702 296.001 87.1001 296.851 86.5001 297.741C85.4001 299.371 83.7401 301.831 83.3501 302.031C83.2001 302.081 83.1202 302.241 83.1702 302.391C83.2202 302.541 83.3802 302.631 83.5302 302.581C83.9602 302.451 84.8002 301.281 86.9802 298.061C87.5802 297.171 88.1402 296.341 88.5202 295.821C89.7702 294.111 92.4502 291.731 93.3702 291.731C94.8302 291.731 95.1702 292.431 95.7902 293.681C95.9402 293.991 96.1002 294.321 96.3002 294.681C97.4002 296.681 99.3302 299.401 100.87 300.711C101.38 301.141 103.13 302.791 103.15 302.811C103.21 302.861 103.28 302.891 103.35 302.891C103.43 302.891 103.5 302.861 103.56 302.801C103.67 302.681 103.66 302.501 103.55 302.391C103.48 302.321 101.77 300.711 101.25 300.281C99.9301 299.161 98.0602 296.691 96.8102 294.411V294.401Z" fill="#E22547"/>
</g>
<path d="M148.31 145.481C147.57 145.331 143.58 147.551 139.44 147.991C135.3 148.431 125.89 148.331 122.15 147.051C118.41 145.771 110.09 141.981 110.09 141.981L83.5098 198.491C83.5098 198.491 89.4898 198.821 92.4498 200.441C95.4098 202.071 97.1798 203.401 99.6198 204.871C102.06 206.341 107.38 206.941 110.48 208.271C113.58 209.601 116.44 210.981 118.8 213.051C121.16 215.121 128.06 215.911 130.33 216.301C132.6 216.691 138.41 216.601 142.05 216.301C145.69 216.001 158.01 210.681 160.37 209.701C162.73 208.711 182.08 201.511 182.08 201.511C182.08 201.511 160.86 162.321 160.12 160.841C159.38 159.361 149.04 145.621 148.3 145.471L148.31 145.481Z" fill="#E22547"/>
<path d="M94.0795 194.241L114.7 145.421C112.16 144.341 110.29 143.451 110.21 143.411L85.0195 197.681L94.0795 194.231V194.241Z" fill="#343434"/>
<path d="M98.71 195.131L103.54 204.981L113.1 200.051L124.81 148.921C124.72 148.901 124.62 148.891 124.53 148.871C122.08 148.311 119.01 147.191 116.34 146.101L98.7199 195.121L98.71 195.131Z" fill="#343434"/>
<path d="M116.39 202.811L124.48 213.741L133.24 202.811L131.95 149.461C130.01 149.481 128.07 149.411 126.35 149.191L116.39 202.811Z" fill="#343434"/>
<path d="M133.92 149.411L136.04 202.811L147.08 212.761L153.29 199.361L139.08 149.121C137.57 149.231 135.8 149.351 133.93 149.411H133.92Z" fill="#343434"/>
<path d="M140.869 148.921L156.139 198.461L165.079 204.991L167.299 194.921L147.669 147.351C145.529 147.951 142.949 148.611 140.869 148.941V148.921Z" fill="#343434"/>
<path d="M169.029 194.931L175.349 200.251L177.019 193.061L151.509 146.181C150.989 146.341 149.919 146.681 148.579 147.071L169.019 194.931H169.029Z" fill="#343434"/>
<path d="M87.8799 187.911C87.8799 189.451 89.1299 190.691 90.6599 190.691C92.1899 190.691 93.4399 189.441 93.4399 187.911C93.4399 186.381 92.1899 185.131 90.6599 185.131C89.1299 185.131 87.8799 186.381 87.8799 187.911Z" fill="white"/>
<path d="M170.609 190.931C170.609 192.471 171.859 193.711 173.389 193.711C174.919 193.711 176.169 192.461 176.169 190.931C176.169 189.401 174.919 188.151 173.389 188.151C171.859 188.151 170.609 189.401 170.609 190.931Z" fill="white"/>
<path d="M103.439 193.711C103.439 195.381 104.789 196.731 106.459 196.731C108.129 196.731 109.479 195.381 109.479 193.711C109.479 192.041 108.129 190.691 106.459 190.691C104.789 190.691 103.439 192.041 103.439 193.711Z" fill="white"/>
<path d="M121.87 200.251C121.87 201.921 123.22 203.271 124.89 203.271C126.56 203.271 127.91 201.921 127.91 200.251C127.91 198.581 126.56 197.231 124.89 197.231C123.22 197.231 121.87 198.581 121.87 200.251Z" fill="white"/>
<path d="M141.51 199.501C141.51 201.171 142.86 202.521 144.53 202.521C146.2 202.521 147.55 201.171 147.55 199.501C147.55 197.831 146.2 196.481 144.53 196.481C142.86 196.481 141.51 197.831 141.51 199.501Z" fill="white"/>
<path d="M158.72 195.061C158.72 196.731 160.07 198.081 161.74 198.081C163.41 198.081 164.76 196.731 164.76 195.061C164.76 193.391 163.41 192.041 161.74 192.041C160.07 192.041 158.72 193.391 158.72 195.061Z" fill="white"/>
<path d="M172.57 165.781C192.739 165.781 209.09 149.023 209.09 128.351C209.09 107.679 192.739 90.9209 172.57 90.9209C152.4 90.9209 136.05 107.679 136.05 128.351C136.05 149.023 152.4 165.781 172.57 165.781Z" fill="#E22547"/>
<path d="M135.46 128.361C135.46 149.321 152.1 166.371 172.56 166.371C193.02 166.371 209.66 149.321 209.66 128.361C209.66 107.401 193.02 90.3508 172.56 90.3508C152.1 90.3508 135.46 107.401 135.46 128.361ZM208.51 128.361C208.51 148.681 192.39 165.211 172.57 165.211C152.75 165.211 136.63 148.681 136.63 128.361C136.63 108.041 152.75 91.5008 172.57 91.5008C192.39 91.5008 208.51 108.031 208.51 128.361Z" fill="#343434"/>
<path d="M184.796 152.576C198.162 147.091 204.551 131.809 199.067 118.443C193.582 105.077 178.3 98.6876 164.934 104.172C151.568 109.657 145.179 124.939 150.663 138.305C156.148 151.671 171.429 158.06 184.796 152.576Z" fill="#343434"/>
<path d="M166.89 128.361C166.89 133.401 170.99 137.511 176.04 137.511C181.09 137.511 185.19 133.411 185.19 128.361C185.19 123.311 181.09 119.211 176.04 119.211C170.99 119.211 166.89 123.311 166.89 128.361ZM184.03 128.361C184.03 132.771 180.45 136.351 176.04 136.351C171.63 136.351 168.05 132.761 168.05 128.361C168.05 123.961 171.63 120.371 176.04 120.371C180.45 120.371 184.03 123.961 184.03 128.361Z" fill="white"/>
<path d="M171.93 128.361C171.93 130.631 173.77 132.471 176.04 132.471C178.31 132.471 180.15 130.631 180.15 128.361C180.15 126.091 178.31 124.251 176.04 124.251C173.77 124.251 171.93 126.091 171.93 128.361ZM178.99 128.361C178.99 129.991 177.66 131.311 176.03 131.311C174.4 131.311 173.07 129.981 173.07 128.361C173.07 126.741 174.4 125.401 176.03 125.401C177.66 125.401 178.99 126.731 178.99 128.361Z" fill="white"/>
<path d="M207.38 133.601C207.5 133.611 207.62 133.571 207.71 133.481C207.8 133.401 207.85 133.281 207.85 133.151L207.6 122.121C207.6 121.881 207.4 121.701 207.17 121.701H202.05L199.41 114.611L203.82 111.451C204.01 111.311 204.06 111.051 203.93 110.851L199.1 103.751C199.03 103.651 198.93 103.591 198.82 103.571C198.71 103.551 198.59 103.571 198.49 103.641L193.4 107.281L188.79 103.391L191.33 98.0808C191.43 97.8608 191.34 97.6108 191.13 97.5008L184 94.0608C183.89 94.0108 183.76 94.0008 183.64 94.0608C183.52 94.1108 183.44 94.2108 183.4 94.3308L181.45 100.451L176.26 99.6008L175.64 92.1708C175.62 91.9308 175.41 91.7508 175.18 91.7708L167.04 92.3708C166.92 92.3708 166.81 92.4408 166.73 92.5308C166.65 92.6208 166.62 92.7408 166.64 92.8608L167.72 100.581L163.97 101.821L160.75 94.7608C160.7 94.6508 160.6 94.5608 160.49 94.5308C160.37 94.4908 160.25 94.5108 160.14 94.5708L151.64 99.5208C151.53 99.5808 151.46 99.6908 151.43 99.8108C151.41 99.9308 151.43 100.061 151.51 100.161L156.07 106.221L152.83 109.541L146.63 105.331C146.53 105.261 146.41 105.241 146.29 105.271C146.17 105.301 146.07 105.371 146.01 105.471L141.38 113.401C141.32 113.501 141.3 113.631 141.34 113.741C141.37 113.861 141.45 113.951 141.56 114.001L148.22 117.401L147.08 122.851L138.4 122.001C138.28 122.001 138.16 122.031 138.07 122.111C137.98 122.191 137.93 122.311 137.93 122.431V134.551C137.93 134.671 137.98 134.791 138.07 134.871C138.16 134.951 138.27 135.001 138.4 134.981L147.56 134.271L149.52 140.531L141.83 145.261C141.72 145.321 141.65 145.431 141.63 145.551C141.61 145.671 141.63 145.801 141.71 145.891L149.15 155.491C149.22 155.591 149.33 155.651 149.45 155.661C149.57 155.671 149.69 155.631 149.78 155.551L156.62 149.471L161.41 152.841L157.78 160.761C157.73 160.871 157.73 161.001 157.78 161.121C157.83 161.231 157.93 161.321 158.04 161.361L166.94 164.211C167.05 164.251 167.18 164.231 167.29 164.171C167.4 164.111 167.47 164.011 167.5 163.891L169.34 155.851L176.64 156.791L177.44 163.841C177.45 163.971 177.52 164.081 177.63 164.151C177.7 164.201 177.78 164.221 177.87 164.221C177.91 164.221 177.95 164.221 177.99 164.201L187.55 161.341C187.66 161.311 187.76 161.231 187.81 161.121C187.86 161.011 187.87 160.891 187.83 160.781L185.73 154.671L191.89 150.551L196.12 154.801C196.21 154.891 196.33 154.941 196.46 154.931C196.59 154.921 196.7 154.851 196.78 154.751L203.33 145.661C203.46 145.481 203.43 145.231 203.27 145.081L199.88 142.021L202.68 133.221L207.38 133.581V133.601ZM201.96 132.651L198.97 142.051C198.92 142.211 198.97 142.391 199.09 142.501L202.4 145.491L196.38 153.851L192.26 149.711C192.11 149.561 191.88 149.541 191.71 149.661L184.97 154.171C184.81 154.281 184.74 154.491 184.8 154.671L186.86 160.671L178.23 163.251L177.45 156.381C177.43 156.181 177.27 156.021 177.07 156.001L169.04 154.971C168.83 154.951 168.61 155.091 168.56 155.301L166.74 163.261L158.76 160.701L162.33 152.891C162.42 152.701 162.36 152.471 162.19 152.351L156.82 148.581C156.66 148.461 156.43 148.481 156.28 148.611L149.53 154.611L142.67 145.751L150.23 141.101C150.4 141.001 150.48 140.791 150.42 140.601L148.26 133.681C148.2 133.491 148.03 133.351 147.81 133.381L138.77 134.081V122.911L147.36 123.751C147.59 123.771 147.78 123.621 147.83 123.411L149.12 117.251C149.16 117.061 149.07 116.861 148.89 116.771L142.34 113.431L146.5 106.301L152.62 110.451C152.79 110.571 153.03 110.551 153.17 110.391L156.92 106.551C157.07 106.401 157.09 106.161 156.96 105.991L152.47 100.031L160.13 95.5708L163.31 102.551C163.4 102.751 163.63 102.851 163.84 102.781L168.3 101.301C168.5 101.231 168.62 101.041 168.59 100.831L167.53 93.2108L174.78 92.6808L175.4 100.021C175.42 100.221 175.57 100.381 175.76 100.411L181.65 101.381C181.86 101.411 182.07 101.291 182.13 101.081L184.04 95.0808L190.33 98.1108L187.83 103.331C187.74 103.511 187.79 103.721 187.94 103.851L193.06 108.171C193.21 108.301 193.43 108.311 193.59 108.191L198.59 104.611L202.94 111.001L198.61 114.101C198.45 114.211 198.39 114.421 198.46 114.601L201.32 122.281C201.38 122.451 201.55 122.561 201.73 122.561H206.72L206.95 132.691L202.38 132.341C202.18 132.331 201.99 132.451 201.93 132.641L201.96 132.651Z" fill="#343434"/>
<path d="M115.5 41.0109C115.5 41.0109 115.46 41.0109 115.45 41.0109C115.24 40.9809 115.1 40.7909 115.13 40.5809C115.17 40.2809 115.2 39.7909 115.23 39.1809C115.38 36.2809 115.7 30.2409 118.94 25.5909C121.6 21.7609 127.53 19.7009 127.78 19.6109C127.98 19.5509 128.19 19.6509 128.26 19.8409C128.33 20.0409 128.22 20.2509 128.03 20.3209C127.97 20.3409 122.08 22.3909 119.56 26.0209C116.44 30.5009 116.13 36.3909 115.98 39.2209C115.95 39.8609 115.92 40.3609 115.87 40.6909C115.84 40.8809 115.68 41.0109 115.5 41.0109Z" fill="white"/>
<path d="M110.19 143.791C109.99 143.791 109.83 143.641 109.82 143.441L109.45 137.531C109.45 137.391 109.51 137.251 109.64 137.181L110.09 136.921C109.62 134.901 106.66 122.191 105.98 118.061C105.3 113.931 102.97 105.611 102.63 104.401C101.86 103.961 98.7601 102.111 98.2501 101.021C98.1601 100.831 98.2502 100.611 98.4302 100.521C98.6202 100.431 98.8402 100.521 98.9302 100.701C99.2702 101.431 101.69 103.001 103.13 103.831C103.22 103.881 103.28 103.961 103.31 104.051C103.34 104.141 105.98 113.461 106.72 117.941C107.45 122.381 110.85 136.871 110.88 137.021C110.92 137.181 110.85 137.351 110.7 137.431L110.21 137.711L110.56 143.391C110.57 143.601 110.42 143.771 110.21 143.791H110.19Z" fill="white"/>
</svg>
