<svg width="23" height="44" viewBox="0 0 23 44" fill="none" xmlns="http://www.w3.org/2000/svg">
<path d="M15.3577 33.0921C15.5873 32.9672 15.7481 32.9154 15.9205 32.9154C16.093 32.9154 16.2591 32.9207 16.2591 32.9207C16.2591 32.9207 16.7701 33.1397 17.1552 33.1397C17.5403 33.1397 17.9371 33.1291 18.2598 32.8995C18.5825 32.6699 18.8438 32.3155 18.9845 32.2742C19.1252 32.233 19.2342 32.1959 19.3601 32.2425C19.485 32.289 19.6257 32.4509 19.6257 32.4509L19.7505 32.9979C19.7505 32.9979 19.9325 33.1122 20.0732 33.1439C20.2139 33.1756 20.7144 33.1651 20.9535 33.0243C21.1936 32.8836 21.438 32.5609 21.5005 32.3208C21.5629 32.0806 21.5999 32.0034 21.6517 31.9357C21.7036 31.8679 21.8136 31.7632 21.876 31.7325C21.9385 31.7008 22.1934 31.7325 22.3395 31.7949C22.4855 31.8574 22.9912 31.6701 22.9912 31.6701C22.9912 31.6701 22.6156 31.5654 22.3342 30.8152C22.0527 30.0651 21.3227 28.2199 21.1778 27.3027C21.0318 26.3854 20.6562 24.1138 20.5736 23.8112C20.4901 23.5087 18.6978 13.7115 18.6978 13.7115C18.6978 13.7115 18.5835 13.1328 18.3952 12.6927C18.2079 12.2526 17.8429 11.5955 17.6557 11.3765C17.4684 11.1575 17.0166 10.6983 17.0166 10.6983C17.0166 10.6983 16.8632 10.6042 16.4675 10.6983C16.0718 10.7925 14.1643 11.0634 14.1643 11.0634L10.3946 12.6916C10.3946 12.6916 10.1936 22.0063 9.73439 23.6324C9.27522 25.2586 8.71342 28.2601 8.54626 29.0314C8.37909 29.8027 7.9834 32.9503 7.9834 32.9503C7.9834 32.9503 8.24367 32.6636 8.41612 32.6117C8.58858 32.5599 8.73352 32.5334 8.83826 32.5958C8.94301 32.6583 9.1927 32.9662 9.31754 33.1217C9.44238 33.2783 9.85395 33.5068 10.1248 33.5385C10.3956 33.5703 11.1257 33.6327 11.2346 33.5385C11.3436 33.4444 11.5425 33.2835 11.6568 33.3142C11.7711 33.346 12.0684 33.7046 12.3286 34.0072C12.5889 34.3098 12.6672 34.4029 12.9073 34.4082C13.1475 34.4135 13.6628 34.4029 13.8606 34.3818C14.0585 34.3606 14.4499 34.2516 14.6213 34.1268C14.7938 34.0019 15.0022 33.6941 15.0022 33.6941C15.0022 33.6941 14.9451 33.5639 14.9662 33.5015C14.9874 33.4391 15.1281 33.2148 15.3566 33.0899L15.3577 33.0921Z" fill="#343434"/>
<path d="M13.9447 27.2297C13.9278 27.2297 13.9141 27.2435 13.9141 27.2604C13.9141 27.2752 13.9172 28.7511 14.2167 30.3826C14.4261 31.5221 14.8895 33.5936 14.8948 33.6148C14.898 33.6285 14.9107 33.6391 14.9245 33.6391C14.9266 33.6391 14.9287 33.6391 14.9308 33.6391C14.9477 33.6359 14.9573 33.619 14.9541 33.6021C14.9498 33.5809 14.4854 31.5104 14.277 30.372C13.9786 28.7469 13.9754 27.2763 13.9754 27.2615C13.9754 27.2445 13.9617 27.2308 13.9447 27.2308V27.2297Z" fill="white"/>
<path d="M18.3357 25.7504C18.3188 25.7547 18.3093 25.7716 18.3135 25.7875C18.3167 25.8023 18.6806 27.2856 18.9906 28.9128C19.1588 29.7973 19.4667 32.308 19.4699 32.3334C19.472 32.3492 19.4847 32.3598 19.5006 32.3598C19.5016 32.3598 19.5027 32.3598 19.5048 32.3598C19.5217 32.3577 19.5334 32.3429 19.5313 32.3259C19.5281 32.3006 19.2213 29.7878 19.052 28.9012C18.7409 27.2729 18.378 25.7875 18.3738 25.7727C18.3696 25.7568 18.3537 25.7462 18.3368 25.7504H18.3357Z" fill="white"/>
<path d="M18.9909 21.6868C18.9751 21.691 18.9645 21.7079 18.9687 21.7238C18.9878 21.7968 20.9218 29.0494 21.1493 29.771C21.3757 30.4925 21.7714 31.5749 21.7745 31.5854C21.7788 31.5981 21.7904 31.6055 21.8031 31.6055C21.8063 31.6055 21.8105 31.6055 21.8137 31.6034C21.8295 31.5981 21.838 31.5802 21.8317 31.5643C21.8274 31.5537 21.4328 30.4724 21.2064 29.7519C20.98 29.0314 19.0459 21.7799 19.0269 21.7069C19.0227 21.691 19.0057 21.6804 18.9899 21.6857L18.9909 21.6868Z" fill="white"/>
<path d="M12.2376 26.4795C12.2207 26.4795 12.208 26.4943 12.208 26.5112C12.208 26.525 12.2694 27.8655 12.3593 29.6175C12.4503 31.3696 12.6249 33.9691 12.627 33.9955C12.628 34.0114 12.6418 34.0241 12.6577 34.0241C12.6577 34.0241 12.6587 34.0241 12.6598 34.0241C12.6767 34.0231 12.6894 34.0082 12.6883 33.9913C12.6862 33.9649 12.5117 31.3654 12.4207 29.6144C12.3297 27.8634 12.2694 26.5218 12.2694 26.5091C12.2694 26.4922 12.2546 26.4795 12.2376 26.4795Z" fill="white"/>
<path d="M8.2346 14.5685C7.98491 15.0139 7.56277 16.2941 7.56277 16.2941C7.56277 16.2941 6.80524 16.6761 6.4836 16.8908C5.85092 17.313 4.62152 18.5847 4.44906 18.6535C4.0777 18.8016 4.07029 18.7032 3.76665 18.7042C3.35085 18.7053 2.9541 18.7984 2.9541 18.7984C2.9541 18.7984 3.12127 20.925 3.2112 20.9197C3.5286 20.8985 4.0449 20.6372 4.52206 19.9326C4.85322 19.4427 6.25719 18.9137 7.25912 18.2144C7.54372 18.0155 8.2346 17.313 8.2346 17.313C8.2346 17.313 9.25769 16.6263 9.54758 16.2941C10.0343 15.7387 10.6902 14.7262 10.6902 14.7262L10.5114 13.957L10.3294 11.9658C10.3294 11.9658 10.0639 11.9658 9.56345 12.5837C9.06301 13.2016 9.09476 13.7327 9.09476 13.7327C9.09476 13.7327 8.48535 14.1231 8.2346 14.5696V14.5685Z" fill="white"/>
<path d="M1.38394 7.96059L0.998047 8.01978L5.62493 38.1862L6.01082 38.127L1.38394 7.96059Z" fill="#343434"/>
<path d="M0.418943 4.01068L0.00103067 6.57634C-0.00214334 6.59326 0.00209035 6.61125 0.0126704 6.62606L0.998727 8.02051L1.3849 7.96126L1.73404 6.33617C1.73722 6.32242 1.73404 6.3076 1.72769 6.29385L0.44222 4.00644C0.43693 3.99586 0.421059 3.99904 0.418943 4.01068Z" fill="#343434"/>
<path d="M0.635034 4.96927C0.618106 4.97245 0.607527 4.98832 0.609643 5.00419L1.07834 7.71691C1.08045 7.73172 1.09421 7.7423 1.10796 7.7423C1.11008 7.7423 1.11114 7.7423 1.11325 7.7423C1.13018 7.73913 1.14076 7.72326 1.13865 7.70739L0.66995 4.99466C0.666776 4.97774 0.650904 4.9661 0.635034 4.96927Z" fill="white"/>
<path d="M2.64883 21.0098C2.67422 21.1389 2.80859 21.2214 2.95036 21.1939L3.47725 21.0913C3.61902 21.0637 3.71212 20.9368 3.68779 20.8077C3.67192 20.7273 3.61373 20.6649 3.53861 20.6363C3.5841 20.5834 3.60632 20.5146 3.59257 20.4438L3.58093 20.3866C3.56083 20.2808 3.46561 20.2068 3.35452 20.1994C3.43281 20.1454 3.47724 20.0534 3.45926 19.9613L3.44762 19.9042C3.42858 19.8079 3.34817 19.737 3.24977 19.719C3.36509 19.6756 3.43704 19.5635 3.41482 19.4482L3.40318 19.391C3.37779 19.262 3.24342 19.1794 3.10165 19.2069L2.39702 19.3445C2.25525 19.372 2.16214 19.499 2.18648 19.628L2.19812 19.6852C2.21716 19.7814 2.29757 19.8523 2.39596 19.8703C2.28064 19.9137 2.2087 20.0258 2.23092 20.1412L2.24255 20.1983C2.26266 20.3041 2.35788 20.3782 2.46897 20.3856C2.39068 20.4406 2.34624 20.5316 2.36422 20.6236L2.37586 20.6807C2.4002 20.8077 2.53139 20.8892 2.66999 20.8659C2.64777 20.9103 2.6393 20.9601 2.64883 21.0098Z" fill="white"/>
<path d="M2.16953 19.0567C2.1124 19.2651 2.26686 19.4693 2.37372 19.464C2.48058 19.4598 2.54089 19.4703 2.61389 19.3995C2.68689 19.3286 2.74402 19.2683 2.74402 19.2683L2.64457 18.7361C2.64457 18.7361 2.56311 18.7393 2.43826 18.7932C2.3441 18.8345 2.21397 18.8937 2.17059 19.0556L2.16953 19.0567Z" fill="white"/>
<path d="M2.37255 19.8418C2.35562 19.845 2.34504 19.8608 2.34822 19.8778C2.35139 19.8926 2.36409 19.9032 2.37784 19.9032C2.37996 19.9032 2.38208 19.9032 2.38313 19.9032L3.28455 19.7349C3.30148 19.7318 3.31206 19.7159 3.30889 19.699C3.30571 19.682 3.28984 19.6715 3.27291 19.6746L2.37149 19.8429L2.37255 19.8418Z" fill="#343434"/>
<path d="M2.44804 20.3581C2.43111 20.3613 2.42053 20.3782 2.42476 20.3941C2.42794 20.4089 2.44063 20.4184 2.45439 20.4184C2.4565 20.4184 2.45862 20.4184 2.46073 20.4184L3.3611 20.229C3.37802 20.2259 3.3886 20.2089 3.38437 20.1931C3.3812 20.1761 3.36427 20.1666 3.3484 20.1698L2.44804 20.3592V20.3581Z" fill="#343434"/>
<path d="M2.63839 20.8405C2.62252 20.8448 2.61194 20.8617 2.61617 20.8776C2.61935 20.8913 2.63204 20.9009 2.6458 20.9009C2.64791 20.9009 2.65109 20.9009 2.6532 20.9009L3.54616 20.667C3.56203 20.6628 3.57261 20.6459 3.56837 20.63C3.56414 20.6141 3.54721 20.6046 3.53134 20.6078L2.63839 20.8416V20.8405Z" fill="#343434"/>
<path d="M3.47072 21.0615C3.45379 21.0647 3.44321 21.0806 3.44638 21.0975C3.44956 21.1123 3.46225 21.1218 3.47601 21.1218C3.47812 21.1218 3.48024 21.1218 3.48236 21.1218C3.55853 21.107 3.62413 21.0658 3.66857 21.0065C3.713 20.9462 3.73099 20.8732 3.71723 20.8023C3.70242 20.7272 3.65375 20.6627 3.58498 20.6246C3.62095 20.5675 3.63471 20.5019 3.62201 20.4384L3.61037 20.3812C3.59133 20.285 3.51833 20.2099 3.42205 20.1813C3.47918 20.1189 3.50457 20.0374 3.4887 19.9559L3.47707 19.8988C3.4612 19.8163 3.40512 19.7486 3.32894 19.7126C3.41782 19.6512 3.46543 19.5465 3.44533 19.4428L3.43369 19.3857C3.40512 19.2397 3.25383 19.1466 3.09619 19.1772C3.07926 19.1804 3.06868 19.1963 3.07185 19.2132C3.07502 19.2301 3.09195 19.2407 3.10782 19.2375C3.23267 19.2143 3.35116 19.2852 3.37338 19.3973L3.38502 19.4544C3.40406 19.5528 3.3427 19.6523 3.23902 19.6904C3.22632 19.6957 3.21786 19.7084 3.21891 19.7221C3.21997 19.7359 3.23055 19.7475 3.24431 19.7496C3.33318 19.7655 3.40089 19.829 3.41676 19.9104L3.4284 19.9676C3.44321 20.0459 3.4083 20.1252 3.33635 20.1749C3.32577 20.1823 3.32048 20.1961 3.32471 20.2077C3.32789 20.2204 3.33952 20.2289 3.35222 20.2299C3.45379 20.2374 3.53314 20.303 3.55113 20.3929L3.56277 20.45C3.5744 20.5082 3.55748 20.5675 3.51621 20.6172C3.50987 20.6246 3.50775 20.6352 3.50987 20.6447C3.51198 20.6542 3.51939 20.6616 3.52891 20.6658C3.59768 20.6923 3.64635 20.7473 3.65904 20.815C3.66962 20.869 3.65587 20.924 3.62201 20.9716C3.5871 21.0192 3.5342 21.052 3.47283 21.0637L3.47072 21.0615Z" fill="#343434"/>
<path d="M3.91358 19.4408C3.87655 19.5032 3.80566 19.5476 3.72419 19.5614C3.65119 19.573 3.56973 19.5593 3.49038 19.5222C3.47556 19.5148 3.45652 19.5222 3.45017 19.537C3.44277 19.5518 3.45017 19.5709 3.46498 19.5772C3.53375 19.609 3.60464 19.6249 3.67235 19.6249C3.69351 19.6249 3.71361 19.6238 3.73372 19.6206C3.83211 19.6047 3.91887 19.5497 3.96648 19.4714C3.97494 19.4566 3.97071 19.4376 3.9559 19.4291C3.94108 19.4207 3.9231 19.4249 3.91358 19.4397V19.4408Z" fill="#343434"/>
<path d="M4.32662 20.0564C4.29911 20.1273 4.27054 20.2003 4.22505 20.2606C4.21447 20.2744 4.21764 20.2934 4.2314 20.303C4.23669 20.3072 4.24303 20.3093 4.24938 20.3093C4.25891 20.3093 4.26843 20.3051 4.27372 20.2966C4.3245 20.2289 4.35518 20.1485 4.38375 20.0776C4.42078 19.9824 4.4631 19.8755 4.4758 19.7634C4.49167 19.6205 4.45887 19.4798 4.42607 19.3444C4.40703 19.2619 4.38692 19.1772 4.37846 19.0937C4.37634 19.0767 4.36153 19.064 4.3446 19.0661C4.32767 19.0683 4.31604 19.0831 4.3171 19.1C4.32556 19.1878 4.34672 19.2746 4.36682 19.3582C4.39856 19.4946 4.42924 19.6237 4.41549 19.756C4.40385 19.8597 4.36576 19.958 4.32767 20.0543L4.32662 20.0564Z" fill="#343434"/>
<path d="M7.49409 16.3037C7.47716 16.3005 7.46129 16.309 7.45706 16.3259C7.45282 16.3418 7.46234 16.3587 7.47927 16.363C7.48139 16.363 7.51207 16.3714 7.56815 16.3714C7.63057 16.3714 7.72473 16.3619 7.84852 16.3238C7.86439 16.3185 7.87391 16.3016 7.86862 16.2857C7.86333 16.2699 7.8464 16.2603 7.83053 16.2656C7.61681 16.3312 7.49832 16.3048 7.49515 16.3037H7.49409Z" fill="#343434"/>
<path d="M10.2584 12.5129C10.2499 12.4124 10.2478 12.2463 10.2478 12.0791C10.2478 12.0791 10.1875 13.7529 10.1875 14.0036C10.1875 14.2544 10.3451 15.1198 10.3896 15.1558C10.4795 15.051 10.506 14.977 10.6128 14.8415C10.5388 14.7865 10.4488 14.7114 10.4298 14.6702C10.3748 14.5527 10.2817 12.7784 10.2573 12.5129H10.2584Z" fill="white"/>
<path d="M12.9866 6.58577C13.268 6.35936 14.0964 6.14776 14.0964 6.14776C14.0964 6.14776 14.1906 5.86633 14.3461 5.59231C14.5027 5.31829 15.0105 4.72475 15.0105 4.72475C15.0105 4.72475 14.5694 4.41898 13.3738 4.80938C13.0628 4.91095 12.5359 5.18498 12.1571 5.6706C11.6027 6.38158 11.2895 7.51788 11.2345 7.68081C11.1795 7.84374 10.8854 9.71006 11.5477 11.2632C11.6302 11.4579 12.4089 11.7594 12.4089 11.7594L13.0479 11.478C13.0479 11.478 13.1749 10.1936 13.0956 10.0888C13.0162 9.98514 12.3444 8.27329 12.3677 8.01514C12.3909 7.75698 12.7041 6.81113 12.9855 6.58471L12.9866 6.58577Z" fill="#343434"/>
<path d="M13.1047 5.25064C13.0877 5.24535 13.0719 5.25593 13.0666 5.2718C13.0634 5.28133 13.002 5.50351 13.0295 5.77224C13.057 6.03886 13.2052 6.41445 13.2115 6.43032C13.2168 6.44196 13.2274 6.44936 13.2401 6.44936C13.2443 6.44936 13.2475 6.44936 13.2517 6.44725C13.2676 6.4409 13.275 6.42291 13.2686 6.40704C13.2676 6.40281 13.1174 6.02404 13.0909 5.76483C13.0645 5.50879 13.1258 5.28979 13.1258 5.28767C13.13 5.2718 13.1205 5.25487 13.1047 5.24958V5.25064Z" fill="white"/>
<path d="M12.6037 6.27998C12.5413 6.20486 12.4344 5.98691 12.3709 5.85572C12.3233 5.75944 12.317 5.74568 12.3096 5.73828C12.2979 5.72664 12.2768 5.72558 12.2651 5.73722C12.2535 5.74886 12.2524 5.76685 12.2641 5.77954C12.2694 5.78695 12.2937 5.83562 12.317 5.88323C12.3868 6.025 12.4915 6.23872 12.5582 6.31912C12.6524 6.43339 12.8767 6.63441 12.8862 6.64287C12.8925 6.64816 12.8989 6.65028 12.9063 6.65028C12.9147 6.65028 12.9232 6.64711 12.9296 6.6397C12.9412 6.627 12.9401 6.60796 12.9274 6.59632C12.9253 6.5942 12.6979 6.38895 12.6058 6.27892L12.6037 6.27998Z" fill="white"/>
<path d="M12.0467 6.95706C11.8986 6.87559 11.7621 6.67563 11.76 6.67351C11.7505 6.65976 11.7315 6.65552 11.7177 6.66505C11.7039 6.67457 11.6997 6.69361 11.7092 6.70737C11.7156 6.71583 11.8563 6.92108 12.0171 7.00996C12.1758 7.09671 12.6022 7.19722 12.6202 7.20146C12.6223 7.20146 12.6244 7.20146 12.6276 7.20146C12.6413 7.20146 12.654 7.19193 12.6572 7.17818C12.6614 7.16231 12.6509 7.14538 12.6339 7.14115C12.6297 7.14009 12.197 7.03852 12.0467 6.95494V6.95706Z" fill="white"/>
<path d="M11.9169 8.00142C11.7497 7.92524 11.5741 7.70941 11.572 7.7073C11.5614 7.6946 11.5423 7.69248 11.5286 7.70306C11.5159 7.71364 11.5138 7.73269 11.5244 7.74644C11.5318 7.75596 11.7106 7.97603 11.8915 8.05855C12.0671 8.13896 12.2184 8.18128 12.2237 8.1834C12.2269 8.1834 12.229 8.18446 12.2322 8.18446C12.2459 8.18446 12.2575 8.17599 12.2618 8.16224C12.266 8.14637 12.2565 8.12944 12.2406 8.12415C12.2396 8.12415 12.0883 8.08077 11.9169 8.00248V8.00142Z" fill="white"/>
<path d="M12.1882 8.53566C12.1882 8.53566 12.1448 8.57164 12.0231 8.65945C11.9004 8.74832 11.5354 8.99272 11.5312 8.99484C11.5174 9.00436 11.5132 9.0234 11.5227 9.03716C11.5291 9.04562 11.5386 9.05091 11.5481 9.05091C11.5545 9.05091 11.5597 9.0488 11.565 9.04562C11.5693 9.04351 11.9343 8.79805 12.0581 8.70918C12.1829 8.61925 12.2252 8.58433 12.2273 8.58222C12.24 8.57164 12.2422 8.55259 12.2316 8.53884C12.221 8.52614 12.2009 8.52403 12.1882 8.53461V8.53566Z" fill="white"/>
<path d="M13.8275 4.85687C13.746 4.92141 13.6212 5.72549 13.5852 5.97095C13.5831 5.98788 13.5947 6.00375 13.6106 6.00586C13.6117 6.00586 13.6138 6.00586 13.6148 6.00586C13.6296 6.00586 13.6423 5.99528 13.6455 5.97941C13.7185 5.48638 13.8211 4.94892 13.8656 4.90448C13.9132 4.8664 14.2242 4.85793 14.4295 4.86428C14.4485 4.8664 14.4602 4.85158 14.4612 4.83466C14.4612 4.81773 14.4485 4.80397 14.4316 4.80291C14.3449 4.8008 13.9111 4.79022 13.8286 4.85687H13.8275Z" fill="white"/>
<path d="M12.6168 6.72961C12.3692 7.14752 12.2444 7.74212 12.2168 7.92939C12.1893 8.11665 12.2348 8.42771 12.2348 8.42771C12.2348 8.42771 12.584 7.47444 12.8813 7.27025C13.1786 7.06605 14.026 6.78463 14.026 6.78463L14.0959 6.11279H13.5319C13.5319 6.11279 12.8633 6.3117 12.6157 6.73067L12.6168 6.72961Z" fill="#343434"/>
<path d="M14.0184 6.74956C13.6862 6.72205 13.1625 6.81198 12.826 7.11668C12.4896 7.42139 12.3256 7.92923 12.314 7.9451C12.3023 7.96097 12.2314 8.44554 12.2314 8.44554C12.2314 8.44554 12.5986 7.9451 13.0683 7.80439C13.537 7.66367 13.9168 7.5875 14.2522 7.61606C14.5887 7.64463 15.0108 7.71446 15.0108 7.71446C15.0066 7.70282 15.0214 7.39071 14.8659 7.20239C14.6564 6.94846 14.3189 6.77389 14.0184 6.7485V6.74956Z" fill="#343434"/>
<path d="M12.6166 7.99589C12.1479 8.38418 12.1162 8.59154 12.1162 8.59154L12.2823 8.97454C12.2823 8.97454 12.5965 8.40005 13.2229 8.05196C13.335 7.98954 13.7667 7.78641 14.2724 7.82661C14.7781 7.86681 15.0934 8.11439 15.0934 8.11439L15.2162 7.89326C15.2162 7.89326 15.0003 7.48699 14.3867 7.42986C13.773 7.37273 13.2673 7.45736 12.6156 7.99695L12.6166 7.99589Z" fill="#343434"/>
<path d="M14.093 6.14231C14.1099 6.14443 14.1248 6.13173 14.1258 6.1148C14.1269 6.09788 14.1152 6.08306 14.0983 6.082C13.5323 6.03439 13.5132 6.07883 13.5037 6.09999C13.4836 6.1476 13.5143 6.56868 13.528 6.74749C13.5291 6.76336 13.5429 6.77606 13.5587 6.77606H13.5608C13.5778 6.775 13.5905 6.76018 13.5883 6.74325C13.5704 6.51896 13.5503 6.19203 13.5577 6.13173C13.6106 6.11586 13.8698 6.12538 14.092 6.14337L14.093 6.14231Z" fill="white"/>
<path d="M14.3896 7.3992C13.7791 7.34207 13.266 7.41824 12.5962 7.97264C12.1244 8.3641 12.0863 8.57887 12.0852 8.58734C12.0831 8.60427 12.0937 8.61908 12.1106 8.62225C12.1127 8.62225 12.1138 8.62225 12.1159 8.62225C12.1307 8.62225 12.1434 8.61167 12.1466 8.59686C12.1466 8.59474 12.1868 8.39161 12.6364 8.01919C13.2903 7.47855 13.7897 7.40343 14.3843 7.45951C14.9725 7.51452 15.1873 7.90281 15.1894 7.90704C15.1979 7.92185 15.2159 7.92714 15.2307 7.91974C15.2455 7.91127 15.2508 7.89329 15.2434 7.87847C15.2338 7.86155 15.0127 7.45633 14.3896 7.39814V7.3992Z" fill="white"/>
<path d="M12.8055 7.09451C12.4574 7.41085 12.305 7.82241 12.2701 8.01603C12.2669 8.03507 12.1992 8.37998 12.1992 8.37998L12.2595 8.39162C12.2595 8.39162 12.3272 8.04565 12.3304 8.02661C12.3622 7.85309 12.5103 7.44576 12.8467 7.14C13.1631 6.85328 13.6741 6.75171 14.0158 6.78028C14.0317 6.78345 14.0475 6.7697 14.0486 6.75277C14.0497 6.73584 14.037 6.72103 14.0211 6.71997C13.655 6.68929 13.1377 6.79403 12.8065 7.09556L12.8055 7.09451Z" fill="white"/>
<path d="M14.4679 10.1608C14.4679 10.1608 14.6065 10.201 14.6964 10.1989C14.7863 10.1968 14.9503 10.1355 15.0106 10.0117C15.0857 9.85826 15.0402 9.57577 15.0402 9.57577L14.744 9.5144L14.4668 10.1608H14.4679Z" fill="#343434"/>
<path d="M14.5251 10.1471C14.5092 10.1408 14.4912 10.1471 14.4849 10.163C14.4785 10.1789 14.4849 10.1969 14.5007 10.2032C14.5028 10.2032 14.579 10.2349 14.6795 10.2349C14.7853 10.2349 14.9176 10.199 15.0117 10.053C15.108 9.90379 15.0974 9.75462 14.9864 9.68056C14.926 9.64035 14.8192 9.64458 14.7494 9.69114C14.6965 9.72605 14.6721 9.78001 14.6827 9.8382C14.7039 9.95775 14.8689 9.95458 14.8753 9.95564C14.8922 9.95564 14.9059 9.94083 14.9049 9.9239C14.9049 9.90697 14.888 9.89427 14.8742 9.89427C14.8742 9.89533 14.7546 9.89533 14.743 9.82762C14.7367 9.79271 14.7504 9.76308 14.7832 9.74192C14.8319 9.71018 14.9133 9.70489 14.9536 9.73134C15.0541 9.798 15.0202 9.92813 14.962 10.0202C14.8075 10.2603 14.5378 10.1514 14.5272 10.1471H14.5251Z" fill="white"/>
<path d="M15.0625 9.01092C14.9652 8.97283 14.852 8.82471 14.852 8.82471C14.852 8.82471 14.8393 9.20242 14.8118 9.29869C14.7843 9.39497 14.7451 9.51558 14.7451 9.51558C14.7451 9.51558 14.998 9.65841 15.1366 9.61715C15.2752 9.57589 15.3365 9.42671 15.3365 9.34101C15.3365 9.21828 15.236 9.00986 15.236 9.00986C15.236 9.00986 15.2053 9.06699 15.0615 9.01197L15.0625 9.01092Z" fill="#343434"/>
<path d="M15.1385 9.60119C14.9967 9.6414 14.7989 9.50914 14.7968 9.50809C14.783 9.49856 14.764 9.50174 14.7544 9.51655C14.7449 9.53031 14.7481 9.54935 14.7629 9.55887C14.7703 9.56416 14.929 9.67102 15.0803 9.67102C15.1057 9.67102 15.1311 9.66785 15.1554 9.6615C15.2242 9.6414 15.276 9.59379 15.3088 9.51973C15.3734 9.37266 15.3543 9.2584 15.3141 9.20127C15.2686 9.13567 15.1004 9.0542 15.0052 9.10922C14.9375 9.14837 14.8983 9.19598 14.892 9.2457C14.8867 9.28908 14.9057 9.3314 14.9491 9.37161C15.0433 9.46154 15.1639 9.40123 15.2147 9.35679C15.2274 9.34515 15.2284 9.32611 15.2178 9.31341C15.2062 9.30072 15.1872 9.29966 15.1745 9.31024C15.1702 9.31447 15.0697 9.40123 14.9914 9.32611C14.9639 9.29966 14.9502 9.27427 14.9533 9.25205C14.9565 9.22243 14.9861 9.19069 15.0359 9.16212C15.0962 9.12721 15.2337 9.1928 15.2644 9.23618C15.294 9.2785 15.3088 9.3716 15.2538 9.49539C15.2284 9.55252 15.1914 9.5885 15.1396 9.60225L15.1385 9.60119Z" fill="white"/>
<path d="M14.8525 8.24585V8.84045C14.8525 8.84045 14.8927 8.91768 15.0261 9.00655C15.1594 9.09543 15.2948 9.02137 15.3572 8.93884C15.4524 8.81294 15.4577 8.64895 15.3572 8.51247C15.2429 8.35905 14.8525 8.24585 14.8525 8.24585Z" fill="#343434"/>
<path d="M15.276 8.98766C15.22 9.02787 15.1449 9.02787 15.0528 8.98766C14.9999 8.96439 14.9322 8.88292 14.91 8.85435C14.9005 8.8406 14.8804 8.83848 14.8677 8.84801C14.8539 8.85753 14.8518 8.87763 14.8613 8.89033C14.8645 8.89562 14.9502 9.00776 15.0285 9.04268C15.0824 9.06701 15.1332 9.07865 15.1798 9.07865C15.2295 9.07865 15.2729 9.0649 15.312 9.03739C15.4316 8.95275 15.4623 8.75596 15.4538 8.65227C15.4432 8.51579 15.3226 8.43433 15.2136 8.43433C15.1279 8.43433 15.0232 8.48934 15.0105 8.64275C15.0063 8.69989 15.0306 8.75384 15.0782 8.78876C15.1216 8.8205 15.1734 8.83002 15.2189 8.81203C15.2348 8.80569 15.2422 8.7877 15.2369 8.77289C15.2306 8.75702 15.2136 8.74961 15.1978 8.7549C15.1724 8.76442 15.1406 8.75913 15.1152 8.74009C15.0856 8.71787 15.0697 8.68296 15.0719 8.64804C15.0793 8.55282 15.1322 8.49569 15.2136 8.49569C15.2951 8.49569 15.385 8.556 15.3935 8.65757C15.3998 8.73374 15.3797 8.91466 15.2771 8.98766H15.276Z" fill="white"/>
<path d="M13.3653 7.98764C13.031 8.05641 12.7474 8.37064 12.6786 8.669C12.6183 8.92821 12.6162 9.8455 12.6162 9.8455C12.6162 9.8455 12.9759 10.2581 13.1463 10.3682C13.361 10.5067 13.5282 10.5829 13.6393 10.6242C13.7292 10.657 13.8266 10.6612 13.9197 10.6379L14.0392 10.6073L14.1926 10.5766C14.2424 10.566 14.2847 10.5343 14.3058 10.4877C14.4127 10.2539 14.7428 9.67728 14.8158 9.27841C14.8708 8.9737 14.8592 8.0945 14.8592 8.0945C14.8592 8.0945 14.7439 7.98129 14.273 7.92416C14.0339 7.89454 13.7768 7.90512 13.3663 7.98976L13.3653 7.98764Z" fill="white"/>
<path d="M13.6719 8.71122C13.5735 8.67207 13.5545 8.60965 13.437 8.53665C13.3196 8.46365 13.2053 8.5758 13.2053 8.5758C13.2053 8.5758 13.0667 8.69747 13.2222 8.69958C13.2286 8.69958 13.3926 8.68371 13.4518 8.70381C13.51 8.72286 13.6603 8.80962 13.7618 8.82125C13.8634 8.83289 13.9068 8.8075 13.9142 8.76835C13.9195 8.7419 13.9142 8.69958 13.9142 8.69958C13.9142 8.69958 13.7713 8.75143 13.6719 8.71228V8.71122Z" fill="#343434"/>
<path d="M14.5074 8.50817C14.4122 8.58117 14.3963 8.64359 14.3159 8.68274C14.2355 8.72188 14.1181 8.67004 14.1181 8.67004C14.1181 8.67004 14.1139 8.71342 14.1181 8.73881C14.1244 8.77902 14.1594 8.80441 14.2429 8.79171C14.3255 8.78008 14.4482 8.69438 14.4958 8.67427C14.5434 8.65523 14.6778 8.67004 14.6831 8.67004C14.81 8.66793 14.6968 8.54626 14.6968 8.54626C14.6968 8.54626 14.6037 8.43411 14.5074 8.50711V8.50817Z" fill="#343434"/>
<path d="M13.8916 9.48472C13.8916 9.51752 13.9202 9.54397 13.953 9.54397H13.9551C14.0503 9.54186 14.173 9.53233 14.2154 9.50165C14.2767 9.45722 14.2566 9.38527 14.2471 9.35142C14.245 9.34295 14.2418 9.33449 14.2407 9.32602C14.2397 9.31544 14.2355 9.29746 14.2302 9.27312C14.2164 9.2107 14.1942 9.10596 14.1942 9.01074C14.1942 8.91023 14.2206 8.82453 14.2365 8.78221C14.2365 8.78221 14.2376 8.77798 14.2386 8.77798C14.2492 8.74624 14.2323 8.71344 14.2005 8.7018C14.1688 8.69016 14.1339 8.70815 14.1222 8.73989C14.1032 8.78962 14.0725 8.89119 14.0725 9.01074C14.0725 9.11866 14.0969 9.23186 14.1117 9.29852C14.1159 9.31756 14.1191 9.33237 14.1201 9.3419C14.1222 9.35565 14.1254 9.3694 14.1297 9.38422C14.1318 9.38951 14.1339 9.39691 14.1349 9.40326C14.1021 9.41172 14.0249 9.41913 13.9519 9.42125C13.918 9.42125 13.8916 9.44981 13.8927 9.48367L13.8916 9.48472Z" fill="#343434"/>
<path d="M13.7432 9.93954L13.7495 10.0316C13.7495 10.0316 13.9114 10.021 14.0193 10.0125C14.1251 10.003 14.2753 9.99561 14.2753 9.99561L14.27 9.90356C14.27 9.90356 14.1177 9.91097 14.0108 9.92049C13.904 9.93001 13.7432 9.93954 13.7432 9.93954Z" fill="#343434"/>
<path d="M14.3877 9.1058C14.3877 9.18939 14.4554 9.25604 14.5379 9.25604C14.6205 9.25604 14.6882 9.18833 14.6882 9.1058C14.6882 9.02328 14.6205 8.95557 14.5379 8.95557C14.4554 8.95557 14.3877 9.02328 14.3877 9.1058Z" fill="#343434"/>
<path d="M14.5449 9.15975C14.5449 9.19149 14.5703 9.21794 14.601 9.21794C14.6317 9.21794 14.6571 9.19149 14.6571 9.15975C14.6571 9.12801 14.6317 9.10156 14.601 9.10156C14.5703 9.10156 14.5449 9.12801 14.5449 9.15975Z" fill="white"/>
<path d="M13.3877 9.12484C13.3877 9.20843 13.4554 9.27508 13.5379 9.27508C13.6205 9.27508 13.6882 9.20737 13.6882 9.12484C13.6882 9.04232 13.6205 8.97461 13.5379 8.97461C13.4554 8.97461 13.3877 9.04232 13.3877 9.12484Z" fill="#343434"/>
<path d="M13.5596 9.15878C13.5596 9.19052 13.585 9.21697 13.6156 9.21697C13.6463 9.21697 13.6717 9.19052 13.6717 9.15878C13.6717 9.12704 13.6463 9.10059 13.6156 9.10059C13.585 9.10059 13.5596 9.12598 13.5596 9.15878Z" fill="white"/>
<path d="M12.613 9.34099C12.613 9.34099 12.503 9.38965 12.3824 9.38013C12.2618 9.37061 12.1179 9.5875 12.1687 9.77159C12.2184 9.95569 12.4364 10.0223 12.6342 9.98954C12.8321 9.95675 13.0013 9.64252 12.9781 9.51556C12.9548 9.3886 12.8871 9.2627 12.8871 9.2627L12.613 9.34099Z" fill="#343434"/>
<path d="M12.4732 9.81497C12.4563 9.81709 12.4447 9.83296 12.4468 9.84989C12.4489 9.86681 12.4648 9.87845 12.4817 9.87528C12.5494 9.86575 12.5885 9.79804 12.5864 9.73985C12.5843 9.67743 12.5399 9.63299 12.4722 9.6277C12.2034 9.60443 12.1675 9.73351 12.1622 9.77371C12.1495 9.87951 12.2542 10.0128 12.433 10.0424C12.4648 10.0477 12.4944 10.0498 12.5229 10.0498C12.834 10.0498 12.9578 9.75255 12.9811 9.68801C13.0244 9.5674 12.9483 9.30925 12.9451 9.29761C12.9398 9.28174 12.9229 9.27116 12.907 9.27751C12.8911 9.2828 12.8816 9.29973 12.8858 9.3156C12.9059 9.38437 12.9525 9.58327 12.9229 9.66791C12.9007 9.73033 12.7737 10.0382 12.4436 9.98214C12.3018 9.9578 12.214 9.85729 12.2235 9.78112C12.232 9.71129 12.323 9.67637 12.4679 9.68907C12.5145 9.6933 12.5251 9.72081 12.5261 9.74303C12.5261 9.77477 12.506 9.8118 12.4743 9.81603L12.4732 9.81497Z" fill="white"/>
<path d="M14.9199 8.00886C14.9199 8.00886 14.8596 7.87132 14.6046 7.88613C14.5644 7.88825 14.3877 7.86603 14.3877 7.86603C14.3877 7.86603 14.6205 8.1263 14.6892 8.25326C14.7569 8.38128 14.9209 8.45957 15.087 8.41725C15.2161 8.38445 15.3029 8.25326 15.3367 8.12842C15.3706 8.00357 15.2955 7.86074 15.1727 7.83429C14.9516 7.78774 14.9199 8.00992 14.9199 8.00992V8.00886Z" fill="#343434"/>
<path d="M15.116 8.35793C15.0419 8.39179 14.8874 8.37803 14.7848 8.30503C14.6811 8.23097 14.6155 8.09449 14.6155 8.09343C14.6081 8.07862 14.5901 8.07227 14.5753 8.07862C14.5605 8.08603 14.5531 8.10401 14.5605 8.11988C14.5637 8.12623 14.6325 8.27223 14.7499 8.35582C14.8282 8.41189 14.9308 8.43728 15.0186 8.43728C15.0662 8.43728 15.1096 8.42988 15.1414 8.41506C15.2302 8.37486 15.4239 8.21404 15.3741 8.05429C15.3318 7.91674 15.2768 7.83105 15.2112 7.79825C15.1752 7.78026 15.1371 7.77815 15.098 7.7919C14.9245 7.85326 14.9033 7.96118 14.9075 8.02043C14.9128 8.11565 14.9848 8.20241 15.0451 8.21616C15.062 8.22039 15.0779 8.20981 15.0821 8.19288C15.0863 8.17701 15.0758 8.16008 15.0588 8.15585C15.026 8.14845 14.9721 8.08497 14.9689 8.0162C14.9647 7.94214 15.0165 7.885 15.1191 7.84797C15.1424 7.83951 15.1636 7.84057 15.1837 7.85115C15.2324 7.87548 15.2789 7.95166 15.3159 8.07121C15.3519 8.18548 15.1921 8.32408 15.116 8.35793Z" fill="white"/>
<path d="M12.4602 8.6321L12.2857 8.93363C12.2857 8.93363 12.1576 8.97384 12.0899 9.05742C12.0222 9.141 12.0561 9.36001 12.2074 9.46898C12.3587 9.57796 12.639 9.55785 12.7533 9.46898C12.8866 9.36636 12.949 9.14206 12.9628 9.03309C12.9755 8.92411 12.9215 8.74107 12.8221 8.67759C12.6792 8.58555 12.4602 8.63316 12.4602 8.63316V8.6321Z" fill="#343434"/>
<path d="M12.3795 9.25002C12.3636 9.24579 12.3467 9.25426 12.3414 9.27118C12.3372 9.28705 12.3456 9.30398 12.3615 9.30927C12.3668 9.31139 12.5012 9.34948 12.5985 9.27013C12.6408 9.23521 12.6577 9.17702 12.6429 9.1146C12.6218 9.02361 12.5445 8.94955 12.4451 8.92627C12.2684 8.88501 12.0642 9.04477 12.0261 9.19924C11.988 9.35477 12.152 9.51453 12.2821 9.55579C12.3626 9.58118 12.4377 9.59387 12.5064 9.59387C12.608 9.59387 12.6948 9.56637 12.7678 9.51029C13.0175 9.31774 12.9963 8.86597 12.9952 8.84692C12.9952 8.83 12.9804 8.81836 12.9635 8.81836C12.9466 8.81836 12.9339 8.83423 12.9349 8.85116C12.9349 8.85539 12.955 9.29023 12.7318 9.46268C12.6271 9.54309 12.4832 9.55579 12.3033 9.49866C12.1975 9.4648 12.0578 9.33467 12.0875 9.21511C12.116 9.09979 12.2821 8.95167 12.4334 8.98658C12.5265 9.00774 12.5731 9.07651 12.5858 9.12941C12.5953 9.16962 12.5858 9.20347 12.5625 9.22357C12.4906 9.28282 12.3827 9.25214 12.3816 9.25108L12.3795 9.25002Z" fill="white"/>
<path d="M12.5728 8.35687C12.5009 8.37697 12.4342 8.46161 12.4152 8.53884C12.412 8.54942 12.4109 8.56106 12.4099 8.57164C12.4014 8.67215 12.4723 8.76314 12.5686 8.79277C12.6585 8.82133 12.7855 8.85307 12.8764 8.84249C13.1283 8.81181 13.2436 8.53461 13.2404 8.43199C13.2319 8.22567 13.1145 8.104 13.1145 8.104C13.1145 8.104 12.9791 8.17277 12.8119 8.33042C12.7791 8.3611 12.7008 8.32089 12.5739 8.35687H12.5728Z" fill="#343434"/>
<path d="M12.777 8.62461C12.759 8.62249 12.7452 8.63519 12.7431 8.65212C12.741 8.66905 12.7537 8.68386 12.7696 8.68597C12.7801 8.68703 12.8722 8.6955 12.924 8.64154C12.9431 8.62249 12.9632 8.58652 12.9537 8.52727C12.923 8.33154 12.7611 8.32625 12.7071 8.3252C12.6468 8.3252 12.5156 8.34212 12.4416 8.42676C12.395 8.47966 12.3781 8.54843 12.3908 8.6299C12.4141 8.7812 12.5834 8.83515 12.7272 8.86584C12.7717 8.87536 12.814 8.88065 12.8542 8.88065C12.9484 8.88065 13.0288 8.8542 13.0944 8.80236C13.2668 8.66482 13.2732 8.39926 13.2732 8.38762C13.2732 8.37069 13.2605 8.35693 13.2436 8.35693C13.2287 8.35905 13.2129 8.37069 13.2129 8.38656C13.2129 8.38867 13.2065 8.63519 13.0573 8.75474C12.979 8.81717 12.8722 8.83515 12.741 8.80659C12.5548 8.76744 12.4659 8.70925 12.4522 8.62038C12.4426 8.5569 12.4543 8.50506 12.4881 8.46697C12.5495 8.39714 12.6638 8.38233 12.7061 8.38656C12.7875 8.38867 12.8732 8.40878 12.8934 8.53786C12.8976 8.56642 12.8933 8.58652 12.8807 8.60028C12.8542 8.62779 12.7971 8.62778 12.777 8.62567V8.62461Z" fill="white"/>
<path d="M13.3108 7.70745C13.0675 7.72649 12.9945 7.99734 13.0178 8.11901C13.0643 8.36764 13.3098 8.43324 13.4664 8.41736C13.9266 8.37187 13.9277 7.81959 13.9277 7.81959C13.9277 7.81959 13.678 7.88731 13.6166 7.85239C13.5404 7.80901 13.5648 7.68734 13.3108 7.7085V7.70745Z" fill="#343434"/>
<path d="M13.5389 8.0586C13.4828 8.09457 13.3823 8.06283 13.3474 8.04802C13.3315 8.04167 13.3136 8.04802 13.3072 8.06389C13.3009 8.07976 13.3072 8.09775 13.3231 8.10409C13.3294 8.10727 13.4776 8.17181 13.5728 8.11044C13.6214 8.0787 13.6458 8.02263 13.6468 7.94328C13.6468 7.91471 13.6415 7.81843 13.5654 7.74755C13.5051 7.69253 13.4194 7.66925 13.3083 7.67772C13.212 7.68512 13.1305 7.73062 13.0713 7.80785C12.9951 7.90731 12.9718 8.04273 12.9866 8.12525C13.0184 8.29559 13.1326 8.37494 13.2236 8.41197C13.2575 8.42573 13.3347 8.44689 13.4278 8.44689C13.4934 8.44689 13.5675 8.43631 13.6373 8.40457C13.759 8.35061 13.8479 8.24798 13.9018 8.09986C13.9071 8.08399 13.8997 8.06601 13.8838 8.06071C13.868 8.05542 13.85 8.06283 13.8447 8.0787C13.7971 8.21095 13.7198 8.30194 13.613 8.34849C13.4627 8.41515 13.2945 8.37388 13.2469 8.35484C13.1707 8.3231 13.0745 8.25645 13.0469 8.11362C13.0342 8.0459 13.0554 7.92846 13.1199 7.84488C13.1686 7.7814 13.2332 7.74543 13.3125 7.73908C13.4046 7.73167 13.4754 7.74966 13.523 7.79304C13.5802 7.84594 13.5844 7.92106 13.5844 7.94328C13.5844 8.00041 13.5685 8.04061 13.5389 8.05966V8.0586Z" fill="white"/>
<path d="M14.4721 7.73602C14.3875 7.69687 14.288 7.66937 14.1674 7.68524C14.1674 7.68524 13.9643 7.7265 13.9051 7.80796C13.7971 7.9582 13.8617 8.09468 13.9167 8.14652C14.0458 8.26608 14.0891 8.24809 14.1971 8.2555C14.3325 8.26502 14.4637 8.21635 14.5377 8.16769C14.6118 8.11902 14.6203 7.9783 14.6107 7.91165C14.6012 7.84499 14.5451 7.76882 14.4721 7.73602Z" fill="#343434"/>
<path d="M13.8889 7.81846C13.873 7.81317 13.8561 7.82375 13.8508 7.83962C13.8074 7.99409 13.8402 8.09566 13.8762 8.15279C13.9195 8.22262 13.9947 8.27234 14.0804 8.28821C14.1195 8.29562 14.1671 8.29985 14.219 8.29985C14.3459 8.29985 14.4909 8.27234 14.5607 8.18876C14.6623 8.06603 14.6781 7.85761 14.529 7.72324C14.4644 7.66505 14.3671 7.64389 14.274 7.66928C14.1957 7.69044 14.1375 7.74017 14.1174 7.80153C14.0857 7.90098 14.092 7.98033 14.1354 8.03641C14.2073 8.1274 14.3512 8.11788 14.3576 8.11682C14.3745 8.11576 14.3872 8.10095 14.3861 8.08402C14.3851 8.06709 14.3681 8.05228 14.3533 8.05545C14.3523 8.05545 14.2348 8.06286 14.184 7.99832C14.1534 7.95918 14.1502 7.89993 14.1756 7.82058C14.1883 7.77932 14.2327 7.7444 14.2898 7.72853C14.347 7.71372 14.4284 7.71583 14.4877 7.76979C14.6221 7.89146 14.584 8.06603 14.5131 8.15067C14.4369 8.24272 14.2168 8.25224 14.0909 8.22897C14.0211 8.21627 13.9619 8.17712 13.927 8.12211C13.8846 8.05439 13.8783 7.96341 13.9079 7.85761C13.9121 7.84174 13.9026 7.82481 13.8867 7.81952L13.8889 7.81846Z" fill="white"/>
<path d="M12.3406 11.6094C12.3406 11.6094 12.2993 11.9659 12.3406 12.2685C12.3819 12.5711 13.2209 12.7742 13.2685 12.8049C13.315 12.8367 13.5764 12.7372 13.8885 12.5341C14.2016 12.3309 14.7222 11.4867 14.7222 11.4867C14.7222 11.4867 14.2683 11.4454 14.2323 11.4137C14.1963 11.3819 14.1646 11.2571 14.1646 11.2571V10.4075L12.8929 10.0583C12.8929 10.0583 12.9193 10.9492 12.9193 11.0063C12.9193 11.0635 12.8834 11.2095 12.7469 11.3766C12.6115 11.5438 12.3406 11.6083 12.3406 11.6083V11.6094Z" fill="white"/>
<path d="M14.0403 10.6063L13.9207 10.637C13.8276 10.6603 13.7303 10.6571 13.6403 10.6232C13.5293 10.582 13.3621 10.5069 13.1473 10.3672C13.0817 10.3249 12.9865 10.236 12.8955 10.145L12.8987 10.2286C12.8987 10.2286 13.2753 10.6687 13.7102 10.7777C13.9503 10.838 14.1651 10.7523 14.1651 10.7523V10.5809H14.163L14.0382 10.6063H14.0403Z" fill="#343434"/>
<path d="M16.8094 13.0216C16.7766 13.2194 16.7153 13.6543 16.6719 13.9695C17.1395 13.7537 17.6569 13.6289 18.2018 13.6215C18.1235 13.3749 17.8568 12.5486 17.6854 12.2238C17.4823 11.8408 17.1776 11.479 17.1776 11.479C17.0327 12.0302 16.8443 12.8153 16.8105 13.0216H16.8094Z" fill="white"/>
<path d="M17.1767 11.479C17.0773 11.8419 16.9408 12.372 16.8276 12.9274C16.7863 13.1305 16.7165 13.6246 16.6699 13.9695C16.7725 13.9219 16.8784 13.8786 16.9852 13.8405C16.9651 13.7706 16.908 13.5114 16.9566 12.8735C16.9725 12.6629 17.1746 11.4832 17.1757 11.4801L17.1767 11.479Z" fill="white"/>
<path d="M16.6212 14.3349C16.6212 14.3349 16.7609 13.2536 16.8275 12.9278C17.0307 11.928 17.3121 11.0054 17.3121 11.0054L16.5662 11.2159L14.4915 11.4476C14.4915 11.4476 14.4946 11.9227 14.1148 12.1152C14.064 12.1417 13.6355 12.3776 13.5075 12.4316C13.3784 12.4866 13.3689 12.6442 13.3689 12.6442C13.3689 12.6442 13.3192 12.5162 13.2927 12.4961C13.2102 12.4337 13.061 12.3977 12.8103 12.2813C12.33 12.057 12.4241 11.5841 12.4241 11.5841L10.7895 12.0295L10.2584 11.5291C10.2584 11.5291 10.2351 12.2485 10.2584 12.5141C10.2817 12.7796 10.3758 14.5539 10.4308 14.6714C10.4859 14.7888 10.8921 15.0194 10.8921 15.0194C10.8921 15.0194 11.1736 16.0076 11.2519 16.4848C11.3301 16.9619 11.692 18.5056 11.692 18.5056L11.619 18.5479L11.6581 19.1732C11.6581 19.1732 12.5871 19.6175 13.1742 19.7519C13.6197 19.8535 14.3074 19.8069 14.7454 19.7752C15.1834 19.7434 16.0668 19.4546 16.0668 19.4546L15.9885 18.642L16.27 14.6714L16.6212 14.3349Z" fill="#343434"/>
<path d="M10.7904 11.9979C10.7724 12 10.7597 12.0116 10.7597 12.0275C10.7597 12.0455 10.729 13.8229 10.8221 14.8143C10.8232 14.8302 10.837 14.8418 10.8528 14.8418C10.8528 14.8418 10.8549 14.8418 10.856 14.8418C10.8729 14.8407 10.8856 14.8249 10.8835 14.8079C10.7904 13.8198 10.8211 12.0455 10.8211 12.0275C10.8211 12.0106 10.8084 11.9968 10.7915 11.9968L10.7904 11.9979Z" fill="white"/>
<path d="M13.3666 12.6621C13.3497 12.6632 13.337 12.678 13.3391 12.6949L13.4999 14.4776C13.501 14.4935 13.5147 14.5051 13.5306 14.5051C13.5306 14.5051 13.5327 14.5051 13.5338 14.5051C13.5507 14.5041 13.5634 14.4893 13.5613 14.4723L13.4005 12.6896C13.3994 12.6727 13.3835 12.66 13.3677 12.6621H13.3666Z" fill="white"/>
<path d="M14.0835 14.9189C13.9523 14.8269 13.5735 14.5465 13.5693 14.5444C13.5597 14.537 13.546 14.5359 13.5354 14.5423C13.5301 14.5454 13.054 14.8173 12.7768 14.9559C12.5314 15.0787 12.4721 15.1432 12.4245 15.1961C12.4171 15.2046 12.4097 15.212 12.4023 15.2204C12.3906 15.2321 12.3906 15.2522 12.4023 15.2638C12.4086 15.2702 12.416 15.2723 12.4234 15.2723C12.4309 15.2723 12.4393 15.2691 12.4446 15.2638C12.4531 15.2553 12.4605 15.2469 12.4689 15.2384C12.5134 15.1898 12.5694 15.1294 12.8043 15.012C13.053 14.8872 13.4603 14.6576 13.5481 14.6068C13.6222 14.6607 13.9311 14.8882 14.0464 14.9707C14.1829 15.067 14.549 15.1591 14.5648 15.1633C14.5818 15.1686 14.5976 15.157 14.6019 15.1411C14.6061 15.1252 14.5955 15.1083 14.5797 15.1041C14.5754 15.1041 14.2083 15.0109 14.0813 14.921L14.0835 14.9189Z" fill="white"/>
<path d="M13.5716 15.3909C13.5547 15.3909 13.542 15.4057 13.542 15.4226L13.6362 17.9322C13.6362 17.9491 13.6499 17.9618 13.6668 17.9618H13.6679C13.6848 17.9618 13.6975 17.947 13.6975 17.9301L13.6034 15.4205C13.6034 15.4036 13.5896 15.3909 13.5716 15.3909Z" fill="white"/>
<path d="M13.5199 16.0013C13.5199 16.0013 13.2247 16.3769 13.0459 16.4616C12.8682 16.5462 12.6608 16.5367 12.6597 16.5367C12.6417 16.5367 12.629 16.5494 12.628 16.5663C12.6269 16.5832 12.6407 16.598 12.6566 16.598C12.6587 16.598 12.6671 16.598 12.6809 16.598C12.7433 16.598 12.9158 16.5906 13.0723 16.5166C13.2638 16.4256 13.5559 16.0542 13.5686 16.0384C13.5791 16.0246 13.577 16.0056 13.5633 15.995C13.5506 15.9844 13.5305 15.9865 13.5199 16.0003V16.0013Z" fill="white"/>
<path d="M13.5985 17.1239C13.5985 17.1239 13.152 17.5629 13.0177 17.6857C12.895 17.7989 12.7267 17.7767 12.7246 17.7767C12.7098 17.7767 12.6929 17.7862 12.6897 17.8031C12.6876 17.82 12.6992 17.8349 12.7162 17.838C12.7183 17.838 12.7363 17.8412 12.7627 17.8412C12.8294 17.8412 12.9563 17.8264 13.0589 17.7312C13.1933 17.6074 13.6366 17.1725 13.6408 17.1673C13.6525 17.1556 13.6535 17.1355 13.6408 17.1239C13.6292 17.1122 13.6102 17.1112 13.5975 17.1239H13.5985Z" fill="white"/>
<path d="M13.8514 16.3621C13.7636 16.2848 13.6493 16.0108 13.6483 16.0087C13.6419 15.9928 13.6239 15.9854 13.6081 15.9918C13.5922 15.9981 13.5848 16.0161 13.5911 16.032C13.5964 16.0436 13.7117 16.3208 13.8101 16.4076C13.9128 16.4986 14.1561 16.5874 14.2598 16.598C14.2598 16.598 14.2619 16.598 14.263 16.598C14.2788 16.598 14.2915 16.5864 14.2936 16.5705C14.2958 16.5536 14.2831 16.5388 14.2661 16.5366C14.1635 16.5271 13.936 16.4361 13.8514 16.3621Z" fill="white"/>
<path d="M14.0038 17.5417C13.8811 17.419 13.7784 17.2614 13.7234 17.1767C13.7097 17.1556 13.6991 17.1386 13.6917 17.1291C13.6822 17.1153 13.6621 17.1122 13.6494 17.1228C13.6356 17.1323 13.6324 17.1513 13.643 17.1651C13.6494 17.1746 13.6599 17.1905 13.6726 17.2106C13.7287 17.2973 13.8335 17.4581 13.9615 17.5862C14.1244 17.7491 14.2577 17.7565 14.263 17.7565H14.2641C14.2799 17.7565 14.2937 17.7438 14.2947 17.7269C14.2947 17.7099 14.2831 17.6962 14.2662 17.6951C14.2651 17.6951 14.1498 17.6867 14.0049 17.5428L14.0038 17.5417Z" fill="white"/>
<path d="M14.7982 19.1582C14.4469 19.1783 14.0364 19.1953 13.6492 19.1731C13.3181 19.154 12.9858 19.0874 12.5743 18.9562C12.2368 18.8493 11.7088 18.5859 11.7035 18.5827C11.6887 18.5753 11.6697 18.5816 11.6623 18.5964C11.6549 18.6113 11.6612 18.6303 11.676 18.6377C11.6813 18.6398 12.2135 18.9054 12.5563 19.0144C12.9679 19.1456 13.3138 19.2154 13.646 19.2344C13.7762 19.2418 13.9084 19.245 14.0396 19.245C14.3041 19.245 14.5665 19.2334 14.8014 19.2196C15.0818 19.2037 15.8139 19.0609 15.8456 19.0546C15.8626 19.0514 15.8731 19.0355 15.87 19.0186C15.8668 19.0017 15.8499 18.9911 15.834 18.9943C15.8266 18.9953 15.0743 19.1424 14.7982 19.1582Z" fill="white"/>
<path d="M16.4902 11.2805C16.4881 11.29 16.3019 12.2814 16.248 12.8083C16.194 13.3341 16.1855 14.5571 16.1855 14.5698C16.1855 14.5868 16.1993 14.6005 16.2162 14.6005C16.2332 14.6005 16.2469 14.5868 16.2469 14.5698C16.2469 14.5571 16.2554 13.3383 16.3093 12.8146C16.3633 12.2909 16.5495 11.3027 16.5516 11.2921C16.5548 11.2752 16.5442 11.2594 16.5273 11.2562C16.5104 11.253 16.4945 11.2636 16.4913 11.2805H16.4902Z" fill="white"/>
<path d="M12.9392 12.2126C12.7783 12.1608 12.5107 11.91 12.4355 11.8412C12.4705 11.9894 12.5657 12.1671 12.8101 12.2814C13.0619 12.3988 13.2111 12.4337 13.2925 12.4961C13.319 12.5163 13.3687 12.6443 13.3687 12.6443C13.3687 12.6443 13.3782 12.4856 13.5073 12.4316C13.6364 12.3766 14.0638 12.1407 14.1146 12.1153C14.3876 11.9767 14.4616 11.6921 14.4828 11.5439C14.4828 11.5439 14.0606 11.9851 13.7792 12.1354C13.4978 12.2856 13.1338 12.2771 12.9381 12.2137L12.9392 12.2126Z" fill="white"/>
<path d="M13.1742 19.752C12.5934 19.6197 11.6793 19.1838 11.6592 19.1743C11.6592 19.1743 12.2686 19.6515 12.6696 19.752C13.8895 20.0567 14.1624 19.99 14.8618 19.9361C15.3262 19.9001 16.2171 19.6271 16.2171 19.6271L16.1441 19.4166L16.0636 19.4378L16.0658 19.4557C16.0658 19.4557 15.1823 19.7446 14.7443 19.7763C14.3063 19.8081 13.6186 19.8546 13.1732 19.753L13.1742 19.752Z" fill="#343434"/>
<path d="M15.972 10.5313C15.8387 10.5503 15.7065 10.7069 15.7065 10.7069C15.7065 10.7069 15.4483 10.6106 15.3161 10.6508C15.1828 10.691 15.1711 10.7693 15.1711 10.7693C15.1711 10.7693 15.0854 10.6286 14.7257 10.7143C14.53 10.7609 14.166 10.928 14.166 10.928V11.1449C14.166 11.1449 14.4168 11.0857 14.6326 11.2454C14.8484 11.4062 14.8939 11.5385 14.9373 11.6009C14.9807 11.6633 15.0685 11.7078 15.0685 11.7078L15.8874 11.6718C15.9308 11.6718 16.0831 11.5935 16.1805 11.4062C16.2778 11.219 16.391 10.945 16.646 10.8434C16.8999 10.7418 17.0999 10.7577 17.0999 10.7577C17.0999 10.7577 16.8227 10.5387 16.6502 10.5344C16.4778 10.5302 16.2439 10.6508 16.2439 10.6508C16.2439 10.6508 16.1074 10.5112 15.9741 10.5313H15.972Z" fill="white"/>
<path d="M15.1694 10.9353C15.1535 10.9322 15.1366 10.9438 15.1345 10.9607C15.1334 10.9681 15.1027 11.1565 15.1345 11.2929C15.1651 11.4252 15.1874 11.4929 15.1884 11.4961C15.1927 11.5088 15.2043 11.5172 15.218 11.5172C15.2212 11.5172 15.2244 11.5172 15.2276 11.5162C15.2434 11.5109 15.2519 11.494 15.2477 11.4781C15.2477 11.4781 15.2255 11.4093 15.1948 11.2802C15.1651 11.1554 15.1948 10.9734 15.1948 10.9713C15.1979 10.9544 15.1863 10.9385 15.1694 10.9364V10.9353Z" fill="white"/>
<path d="M15.5523 11.4349C15.5471 11.4508 15.5555 11.4688 15.5724 11.4741C15.5756 11.4741 15.5788 11.4751 15.582 11.4751C15.5947 11.4751 15.6074 11.4667 15.6116 11.454C15.6137 11.4476 15.6634 11.2953 15.6825 11.2085C15.7026 11.1196 15.7005 10.9546 15.7005 10.9472C15.7005 10.9303 15.6867 10.9165 15.6698 10.9165C15.6529 10.9165 15.6391 10.9303 15.6391 10.9472C15.6391 10.9493 15.6412 11.1122 15.6222 11.1937C15.6031 11.2773 15.5534 11.4318 15.5523 11.4339V11.4349Z" fill="white"/>
<path d="M15.041 11.8675C15.041 12.1014 15.2304 12.2907 15.4642 12.2907C15.698 12.2907 15.8874 12.1014 15.8874 11.8675C15.8874 11.6337 15.698 11.4443 15.4642 11.4443C15.2304 11.4443 15.041 11.6337 15.041 11.8675Z" fill="white"/>
<path d="M15.4622 11.6125C15.3267 11.6125 15.2178 11.7215 15.2178 11.8569C15.2178 11.9924 15.3267 12.1013 15.4622 12.1013C15.5976 12.1013 15.7066 11.9924 15.7066 11.8569C15.7066 11.7215 15.5976 11.6125 15.4622 11.6125Z" fill="#343434"/>
<path d="M11.8726 11.1861C11.5329 11.3088 11.6631 11.4506 11.4335 11.4347C11.2039 11.4189 11.3446 11.33 11.0219 11.3977C10.6992 11.4654 10.7617 11.4548 10.6368 11.512C10.512 11.5691 10.3945 11.6559 10.3945 11.6559C10.3945 11.6559 10.64 11.9108 10.7701 12.0283C10.9003 12.1457 11.334 12.2801 11.334 12.2801L11.9466 12.0706C11.9466 12.0706 12.2249 11.6516 12.4248 11.5829C12.6523 11.5046 12.7602 11.3607 12.7602 11.3607C12.7602 11.3607 12.5656 11.3141 12.3465 11.2856C12.1275 11.257 12.2132 11.0634 11.8736 11.1861H11.8726Z" fill="white"/>
<path d="M11.2061 12.35C11.2061 12.5838 11.3954 12.7732 11.6293 12.7732C11.8631 12.7732 12.0525 12.5838 12.0525 12.35C12.0525 12.1161 11.8631 11.9268 11.6293 11.9268C11.3954 11.9268 11.2061 12.1161 11.2061 12.35Z" fill="white"/>
<path d="M11.3838 12.3394C11.3838 12.4748 11.4928 12.5838 11.6282 12.5838C11.7636 12.5838 11.8726 12.4748 11.8726 12.3394C11.8726 12.2039 11.7636 12.095 11.6282 12.095C11.4928 12.095 11.3838 12.2039 11.3838 12.3394Z" fill="#343434"/>
<path d="M10.8784 11.6918C10.8689 11.6781 10.8499 11.6749 10.8361 11.6844C10.8224 11.694 10.8192 11.713 10.8287 11.7267C10.834 11.7342 10.9578 11.9108 11.071 11.9912C11.181 12.0695 11.3641 12.1584 11.3725 12.1616C11.3768 12.1637 11.381 12.1648 11.3863 12.1648C11.3979 12.1648 11.4085 12.1584 11.4138 12.1478C11.4212 12.133 11.4138 12.114 11.399 12.1066C11.3969 12.1066 11.2128 12.0166 11.107 11.9415C11.0033 11.8675 10.8806 11.694 10.8795 11.6918H10.8784Z" fill="white"/>
<path d="M11.323 11.458C11.3187 11.4421 11.3018 11.4326 11.2849 11.4368C11.269 11.441 11.2595 11.458 11.2637 11.4749C11.2658 11.4833 11.3219 11.6823 11.3536 11.7711C11.3854 11.86 11.4499 12.0039 11.452 12.0102C11.4573 12.0219 11.4679 12.0282 11.4795 12.0282C11.4838 12.0282 11.488 12.0282 11.4922 12.0261C11.5081 12.0187 11.5145 12.0007 11.5081 11.9859C11.5081 11.9848 11.4414 11.8378 11.4108 11.751C11.3801 11.6643 11.3219 11.4611 11.3219 11.459L11.323 11.458Z" fill="white"/>
<path d="M11.9564 11.4654C11.8432 11.585 11.7353 11.9458 11.73 11.9606C11.7247 11.9764 11.7342 11.9934 11.7501 11.9987C11.7533 11.9987 11.7564 11.9997 11.7585 11.9997C11.7712 11.9997 11.7839 11.9913 11.7882 11.9775C11.7892 11.9743 11.8971 11.6157 11.9998 11.5067C12.1013 11.3988 12.1807 11.3734 12.1818 11.3734C12.1976 11.3681 12.2071 11.3512 12.2019 11.3353C12.1966 11.3194 12.1796 11.3099 12.1638 11.3152C12.1595 11.3162 12.0685 11.3448 11.9553 11.4654H11.9564Z" fill="white"/>
<path d="M18.4899 35.971L17.5049 36.1668L17.6974 36.5159C17.6974 36.5159 17.9249 36.9539 17.9418 37.339C17.9588 37.7241 18.0339 38.6266 18.1376 38.689C18.2413 38.7515 18.7554 38.6732 19.2189 38.6869C19.8177 38.7049 19.9901 38.6044 19.9351 38.4013C19.8801 38.1981 19.4347 37.4321 19.1691 37.0333C18.9036 36.6344 18.4899 35.97 18.4899 35.97V35.971Z" fill="white"/>
<path d="M18.7843 36.2493L17.5306 36.4313C17.43 36.4461 17.3602 36.5392 17.375 36.6397C17.3888 36.7307 17.4671 36.7973 17.557 36.7973C17.5655 36.7973 17.575 36.7973 17.5835 36.7952L18.8372 36.6132C18.9377 36.5984 19.0075 36.5053 18.9927 36.4048C18.9779 36.3043 18.8848 36.2345 18.7843 36.2493Z" fill="#343434"/>
<path d="M19.5277 37.2808C19.5785 37.193 19.5499 37.0809 19.4621 37.0301C19.4134 37.0015 19.1384 36.8672 18.476 37.0089C18.0835 37.0925 17.8465 37.302 17.746 37.3909C17.7365 37.3983 17.7291 37.4057 17.7238 37.411C17.6487 37.4554 17.6138 37.5496 17.6455 37.6342C17.673 37.7083 17.7428 37.7538 17.818 37.7538C17.8391 37.7538 17.8613 37.7495 17.8825 37.7421C17.9227 37.7273 17.9492 37.703 17.9894 37.6681C18.0761 37.5919 18.256 37.4332 18.5543 37.3697C19.0728 37.2586 19.277 37.3486 19.278 37.3486C19.3658 37.3993 19.478 37.3697 19.5298 37.283L19.5277 37.2808Z" fill="#343434"/>
<path d="M18.6919 37.7156C18.2349 37.7971 17.836 38.1451 17.8191 38.1599C17.7429 38.2266 17.7355 38.343 17.8032 38.4192C17.8392 38.4604 17.89 38.4816 17.9408 38.4816C17.9841 38.4816 18.0275 38.4668 18.0624 38.4361C18.0656 38.4329 18.402 38.1409 18.7565 38.0774C19.3066 37.9801 19.7193 38.1388 19.7235 38.1398C19.8176 38.1779 19.9245 38.1324 19.9626 38.0383C20.0007 37.9441 19.9552 37.8373 19.861 37.7992C19.8409 37.7907 19.3511 37.5981 18.693 37.7156H18.6919Z" fill="#343434"/>
<path d="M18.0412 38.7133C17.9396 38.7154 17.8592 38.8001 17.8624 38.9016C17.8645 39.0021 17.947 39.0804 18.0465 39.0804H18.0507L19.9837 39.0339C20.0853 39.0318 20.1657 38.9471 20.1625 38.8456C20.1604 38.744 20.0779 38.6689 19.9742 38.6667L18.0412 38.7133Z" fill="#343434"/>
<path d="M18.2208 36.4121C18.1234 36.4396 18.0663 36.5412 18.0938 36.6386C18.0981 36.6523 18.1922 36.9856 18.3551 37.2776C18.5096 37.5548 18.7434 37.9642 18.7434 37.9642L19.0619 37.7812C19.0619 37.7812 18.8291 37.3739 18.6757 37.0988C18.535 36.8459 18.4483 36.5412 18.4472 36.538C18.4197 36.4407 18.3181 36.3846 18.2208 36.4111V36.4121Z" fill="#343434"/>
<path d="M17.3875 28.5332C17.2743 28.4401 16.849 27.9925 16.7686 27.9375C16.5686 27.8 16.3961 27.8603 16.2385 27.9566C16.0565 28.0677 15.9306 28.3692 15.8534 28.5575C15.7751 28.7458 15.2842 29.5065 15.2842 29.5065C15.2842 29.5065 15.9497 31.4649 16.0502 31.8278C16.1507 32.1907 17.2817 36.117 17.2817 36.117C17.2817 36.117 17.4139 36.1275 17.725 36.1053C18.036 36.0831 18.4889 35.8313 18.4889 35.8313C18.4889 35.8313 18.3386 33.5259 18.2752 32.5282C18.2127 31.5305 17.8276 28.7818 17.8276 28.7818C17.8276 28.7818 17.5176 28.6411 17.3864 28.5342L17.3875 28.5332Z" fill="#343434"/>
<path d="M17.1572 36.0376L17.2567 36.3529C17.2567 36.3529 17.5476 36.355 17.8216 36.3011C18.0957 36.2482 18.7336 36.0344 18.7252 36.008C18.7167 35.9815 18.649 35.6758 18.649 35.6758C18.649 35.6758 18.2385 35.8683 17.9158 35.9371C17.5931 36.0059 17.1572 36.0387 17.1572 36.0387V36.0376Z" fill="white"/>
<path d="M16.9679 26.1877C16.7182 26.2924 15.4147 26.8542 15.0296 26.886C14.981 26.8902 14.9281 26.8934 14.873 26.8965C14.9979 27.2044 15.2455 27.8233 15.291 28.0318C15.3248 28.1862 15.4116 28.7004 15.4983 29.1691C15.6412 28.9406 15.8104 28.6613 15.8538 28.5576C15.9321 28.3693 16.057 28.0688 16.2389 27.9567C16.3966 27.8604 16.569 27.799 16.769 27.9376C16.8494 27.9926 17.2747 28.4402 17.3879 28.5333C17.4186 28.5587 17.4588 28.5851 17.5022 28.6116C17.3795 28.2275 17.225 27.7271 17.207 27.5737C17.1869 27.4033 17.1128 26.65 17.0642 26.1475C17.024 26.1633 16.9912 26.1771 16.9679 26.1866V26.1877Z" fill="white"/>
<path d="M15.0296 26.8859C14.981 26.8901 14.9281 26.8933 14.873 26.8964L14.9714 27.1419C14.9714 27.1419 15.7216 26.9218 15.8623 26.8541C16.003 26.7864 17.0927 26.4426 17.0927 26.4426L17.0769 26.1421C17.0314 26.1601 16.9933 26.1759 16.9679 26.1865C16.7182 26.2913 15.4147 26.8531 15.0296 26.8848V26.8859Z" fill="#343434"/>
<mask id="mask0_372_2595" style="mask-type:luminance" maskUnits="userSpaceOnUse" x="15" y="27" width="4" height="10">
<path d="M15.2842 29.5065C15.2842 29.5065 15.7751 28.7458 15.8534 28.5575C15.9317 28.3692 16.0565 28.0687 16.2385 27.9565C16.3961 27.8603 16.5686 27.7989 16.7686 27.9375C16.849 27.9925 17.2743 28.44 17.3875 28.5331C17.5187 28.6411 17.8287 28.7807 17.8287 28.7807C17.8287 28.7807 18.2127 31.5294 18.2762 32.5271C18.3386 33.5248 18.4899 35.8302 18.4899 35.8302C18.4899 35.8302 18.0371 36.082 17.726 36.1042C17.415 36.1264 17.2827 36.1159 17.2827 36.1159C17.2827 36.1159 16.1517 32.1907 16.0512 31.8267C15.9507 31.4628 15.2852 29.5054 15.2852 29.5054L15.2842 29.5065Z" fill="white"/>
</mask>
<g mask="url(#mask0_372_2595)">
<path d="M16.873 28.5448C16.8423 28.5163 16.8158 28.4887 16.7915 28.4633C16.6836 28.3512 16.6042 28.2697 16.4202 28.33C16.3376 28.3565 16.271 28.4877 16.1853 28.6548C16.1377 28.748 16.0879 28.8453 16.0308 28.9331C16.0001 28.9807 15.9589 29.0452 15.9144 29.1161C15.8076 29.2844 15.6288 29.5668 15.5949 29.5922C15.5812 29.6018 15.578 29.6208 15.5875 29.6346C15.5939 29.643 15.6034 29.6473 15.6129 29.6473C15.6192 29.6473 15.6256 29.6451 15.6309 29.642C15.6721 29.6123 15.7959 29.4187 15.9673 29.1489C16.0118 29.078 16.053 29.0135 16.0837 28.9659C16.143 28.8749 16.1959 28.7733 16.2413 28.6824C16.3144 28.5406 16.3831 28.4073 16.4413 28.3882C16.5894 28.3406 16.6466 28.3988 16.7492 28.5057C16.7746 28.5321 16.8021 28.5607 16.8328 28.5893C17.0095 28.7543 17.2919 28.9648 17.4898 29.0463C17.5543 29.0728 17.785 29.1817 17.7882 29.1828C17.803 29.1902 17.822 29.1828 17.8284 29.168C17.8358 29.1532 17.8284 29.1341 17.8135 29.1267C17.804 29.1225 17.5787 29.0167 17.5131 28.9892C17.3438 28.9194 17.0751 28.7331 16.874 28.5438L16.873 28.5448Z" fill="white"/>
<path d="M16.933 29.1003C16.825 28.9882 16.7468 28.9067 16.5616 28.967C16.4791 28.9935 16.4114 29.1246 16.3267 29.2918C16.2791 29.3849 16.2294 29.4823 16.1723 29.5701C15.9744 29.8737 15.5819 30.4577 15.5353 30.4948C15.5216 30.5043 15.5184 30.5233 15.5279 30.5371C15.5343 30.5455 15.5438 30.5498 15.5533 30.5498C15.5597 30.5498 15.566 30.5477 15.5713 30.5445C15.639 30.4969 16.2178 29.6124 16.2241 29.6039C16.2834 29.5129 16.3362 29.4114 16.3817 29.3204C16.4547 29.1786 16.5235 29.0453 16.5817 29.0263C16.7298 28.9786 16.787 29.0368 16.8896 29.1437C16.915 29.1701 16.9425 29.1987 16.9732 29.2273C17.1499 29.3923 17.4323 29.6029 17.6302 29.6843C17.6968 29.7118 18.0343 29.8515 18.0343 29.8515L18.0576 29.7954C18.0576 29.7954 17.7191 29.6547 17.6524 29.6283C17.4831 29.5584 17.2144 29.3722 17.0134 29.1828C16.9827 29.1543 16.9562 29.1268 16.9319 29.1014L16.933 29.1003Z" fill="white"/>
<path d="M17.1206 29.8737C17.0899 29.8451 17.0635 29.8176 17.0392 29.7922C16.9312 29.6801 16.853 29.5986 16.6678 29.6589C16.5853 29.6853 16.5186 29.8165 16.4329 29.9837C16.3853 30.0768 16.3356 30.1741 16.2774 30.262C16.252 30.3011 16.215 30.3593 16.1716 30.426C16.0372 30.6365 15.7865 31.028 15.7463 31.0576C15.7325 31.0671 15.7293 31.0861 15.7389 31.0999C15.7452 31.1084 15.7547 31.1126 15.7643 31.1126C15.7706 31.1126 15.777 31.1105 15.7823 31.1073C15.8214 31.0787 15.9621 30.8671 16.2234 30.4587C16.2658 30.3921 16.3028 30.3339 16.3282 30.2948C16.3874 30.2038 16.4403 30.1011 16.4869 30.0112C16.5599 29.8694 16.6287 29.7361 16.6868 29.7171C16.835 29.6695 16.8921 29.7277 16.9947 29.8345C17.0201 29.861 17.0476 29.8895 17.0783 29.9181C17.255 30.0832 17.5364 30.2937 17.7353 30.3752C17.7999 30.4016 18.0305 30.5106 18.0337 30.5116C18.0485 30.5191 18.0675 30.5117 18.0739 30.4968C18.0813 30.482 18.0739 30.463 18.0591 30.4556C18.0496 30.4513 17.8253 30.3455 17.7586 30.318C17.5893 30.2482 17.3206 30.0609 17.1196 29.8726L17.1206 29.8737Z" fill="white"/>
<path d="M17.4493 30.8217C17.4186 30.7931 17.3922 30.7656 17.3679 30.7402C17.2599 30.6281 17.1806 30.5466 16.9965 30.6069C16.914 30.6333 16.8473 30.7645 16.7616 30.9306C16.714 31.0237 16.6643 31.1211 16.6061 31.2089C16.4506 31.448 16.0517 32.0363 16.0041 32.0733C15.9903 32.0828 15.9872 32.1019 15.9967 32.1156C16.003 32.1241 16.0126 32.1283 16.0221 32.1283C16.0284 32.1283 16.0348 32.1262 16.0401 32.123C16.1046 32.0765 16.5945 31.3401 16.6579 31.2428C16.7172 31.1518 16.7701 31.0502 16.8166 30.9592C16.8896 30.8174 16.9584 30.6841 17.0166 30.6651C17.1647 30.6175 17.2219 30.6757 17.3245 30.7825C17.3499 30.809 17.3774 30.8375 17.4081 30.8661C17.5848 31.0312 17.8672 31.2417 18.0651 31.3232C18.1296 31.3496 18.3603 31.4586 18.3634 31.4596C18.3782 31.466 18.3973 31.4596 18.4036 31.4448C18.411 31.43 18.4036 31.411 18.3888 31.4036C18.3793 31.3993 18.154 31.2935 18.0884 31.266C17.9191 31.1962 17.6503 31.01 17.4493 30.8206V30.8217Z" fill="white"/>
<path d="M17.6116 31.6733C17.5809 31.6447 17.5545 31.6172 17.5301 31.5918C17.4222 31.4797 17.3439 31.3993 17.1588 31.4585C17.0762 31.485 17.0085 31.6172 16.9239 31.7833C16.8763 31.8764 16.8266 31.9738 16.7694 32.0616C16.7229 32.1335 16.6393 32.2763 16.5504 32.4287C16.433 32.6308 16.2711 32.908 16.2404 32.9344C16.2267 32.9439 16.2235 32.963 16.233 32.9767C16.2394 32.9852 16.2489 32.9894 16.2584 32.9894C16.2648 32.9894 16.2711 32.9873 16.2764 32.9842C16.3103 32.9598 16.4076 32.7979 16.6044 32.4594C16.6922 32.3081 16.7758 32.1663 16.8213 32.0954C16.8805 32.0044 16.9334 31.9029 16.9789 31.8119C17.0519 31.6701 17.1207 31.5368 17.1789 31.5178C17.327 31.4701 17.3831 31.5283 17.4868 31.6352C17.5121 31.6616 17.5396 31.6902 17.5703 31.7188C17.747 31.8838 18.0284 32.0944 18.2274 32.1758C18.2919 32.2023 18.5225 32.3113 18.5257 32.3123C18.5405 32.3197 18.5596 32.3123 18.5659 32.2975C18.5733 32.2827 18.5659 32.2636 18.5511 32.2562C18.5416 32.252 18.3173 32.1462 18.2506 32.1187C18.0813 32.0489 17.8126 31.8616 17.6116 31.6733Z" fill="white"/>
<path d="M17.7257 32.705C17.695 32.6764 17.6686 32.6489 17.6442 32.6235C17.5363 32.5114 17.458 32.4299 17.2729 32.4902C17.1903 32.5166 17.1237 32.6478 17.038 32.815C16.9904 32.9081 16.9406 33.0054 16.8825 33.0933C16.8518 33.1409 16.8105 33.2065 16.765 33.2784C16.6582 33.4466 16.4804 33.7281 16.4455 33.7535C16.4317 33.763 16.4286 33.782 16.4381 33.7958C16.4444 33.8042 16.454 33.8085 16.4635 33.8085C16.4698 33.8085 16.4762 33.8064 16.4815 33.8032C16.5227 33.7736 16.6465 33.581 16.8169 33.3112C16.8624 33.2403 16.9036 33.1747 16.9343 33.1271C16.9935 33.0361 17.0464 32.9346 17.093 32.8436C17.166 32.7018 17.2348 32.5685 17.293 32.5494C17.4411 32.5008 17.4982 32.56 17.6008 32.6669C17.6262 32.6933 17.6537 32.7219 17.6844 32.7505C17.8601 32.9155 18.1425 33.1261 18.3414 33.2075C18.406 33.234 18.6366 33.3429 18.6398 33.344C18.6546 33.3514 18.6737 33.344 18.68 33.3292C18.6863 33.3144 18.68 33.2953 18.6652 33.2879C18.6557 33.2837 18.4303 33.1779 18.3647 33.1504C18.1954 33.0806 17.9267 32.8933 17.7257 32.705Z" fill="white"/>
<path d="M17.8848 33.5598C17.8541 33.5312 17.8276 33.5037 17.8033 33.4783C17.6954 33.3661 17.616 33.2857 17.432 33.345C17.3494 33.3714 17.2817 33.5037 17.1971 33.6698C17.1495 33.7629 17.0997 33.8602 17.0426 33.948C17.0119 33.9957 16.9707 34.0602 16.9262 34.1311C16.8194 34.3004 16.6406 34.5828 16.6057 34.6072C16.5919 34.6167 16.5887 34.6358 16.5982 34.6495C16.6046 34.658 16.6141 34.6622 16.6236 34.6622C16.63 34.6622 16.6363 34.6601 16.6416 34.6569C16.6829 34.6273 16.8067 34.4337 16.9781 34.1639C17.0225 34.093 17.0638 34.0285 17.0945 33.9819C17.1537 33.8909 17.2066 33.7893 17.2521 33.6984C17.3251 33.5566 17.3939 33.4233 17.4521 33.4042C17.6002 33.3566 17.6573 33.4148 17.7599 33.5217C17.7853 33.5481 17.8128 33.5756 17.8435 33.6052C18.0202 33.7703 18.3016 33.9808 18.5005 34.0623C18.5651 34.0888 18.7957 34.1977 18.7989 34.1988C18.8137 34.2062 18.8327 34.1988 18.8391 34.184C18.8465 34.1692 18.8391 34.1501 18.8243 34.1427C18.8148 34.1385 18.5905 34.0327 18.5238 34.0052C18.3545 33.9354 18.0858 33.7481 17.8848 33.5598Z" fill="white"/>
<path d="M18.0723 34.5426C18.0416 34.5141 18.0151 34.4865 17.9908 34.4612C17.8829 34.349 17.8046 34.2675 17.6195 34.3278C17.5369 34.3543 17.4703 34.4855 17.3846 34.6527C17.337 34.7458 17.2872 34.8431 17.2301 34.9309C17.1994 34.9785 17.1582 35.0431 17.1137 35.1129C17.0069 35.2822 16.8281 35.5657 16.7932 35.59C16.7794 35.5996 16.7762 35.6186 16.7857 35.6324C16.7921 35.6408 16.8016 35.6451 16.8111 35.6451C16.8175 35.6451 16.8238 35.6429 16.8291 35.6398C16.8704 35.6101 16.9952 35.4165 17.1666 35.1457C17.2111 35.0759 17.2513 35.0113 17.282 34.9648C17.3412 34.8738 17.3941 34.7722 17.4396 34.6812C17.5126 34.5394 17.5814 34.4061 17.6396 34.3871C17.7877 34.3384 17.8437 34.3977 17.9474 34.5045C17.9728 34.531 18.0003 34.5585 18.031 34.5881C18.2077 34.7532 18.4891 34.9637 18.688 35.0452C18.7526 35.0716 18.9832 35.1806 18.9864 35.1817C19.0012 35.1891 19.0202 35.1817 19.0266 35.1668C19.034 35.152 19.0266 35.133 19.0118 35.1256C19.0023 35.1213 18.778 35.0155 18.7113 34.988C18.542 34.9182 18.2733 34.7309 18.0723 34.5426Z" fill="white"/>
</g>
<path d="M8.48428 38.6159C8.28114 38.6731 8.25998 38.6625 8.18698 38.7672C8.11398 38.8709 8.12456 39.1143 8.12456 39.1143C8.12456 39.1143 9.3127 39.1534 9.63327 39.1143C9.95385 39.0751 9.85228 38.9809 10.1411 38.7313C10.4299 38.4816 10.4924 38.38 10.595 38.1758C10.6966 37.9727 10.4955 37.7039 10.4024 37.6309C10.3083 37.5579 10.3083 37.3082 10.3083 37.0057C10.3083 36.7031 10.4024 36.4745 10.4024 36.3698C10.4024 36.2651 9.28731 36.3698 9.28731 36.3698H9.20901C9.20901 36.3698 9.27673 37.3178 9.1413 37.5897C9.00588 37.8605 8.68742 38.5588 8.48428 38.6159Z" fill="white"/>
<path d="M9.14373 36.8618C9.04216 36.8565 8.95646 36.9369 8.95329 37.0385C8.94905 37.1401 9.0284 37.2247 9.12997 37.2289L10.3953 37.2776C10.3953 37.2776 10.4006 37.2776 10.4028 37.2776C10.5011 37.2776 10.5826 37.2004 10.5858 37.1009C10.59 36.9994 10.5107 36.9147 10.4091 36.9105L9.14373 36.8618Z" fill="#343434"/>
<path d="M9.54938 37.8574C9.2616 37.778 8.8839 37.6944 8.86803 37.6913C8.76857 37.669 8.67124 37.7315 8.64902 37.8309C8.6268 37.9304 8.68922 38.0277 8.78868 38.0499C8.79291 38.0499 9.17273 38.1346 9.45205 38.2118C9.90381 38.3366 10.071 38.6974 10.0773 38.7112C10.1069 38.7799 10.1747 38.8212 10.2455 38.8212C10.2699 38.8212 10.2953 38.8159 10.3186 38.8064C10.4117 38.7662 10.454 38.6572 10.4138 38.5641C10.4043 38.5429 10.1747 38.0298 9.54938 37.8574Z" fill="#343434"/>
<path d="M9.33298 38.4329C9.09281 38.3134 8.55323 38.2425 8.49186 38.2351C8.39029 38.2224 8.29931 38.2943 8.28661 38.3949C8.27391 38.4954 8.34586 38.5874 8.44637 38.6001C8.65162 38.6255 9.03039 38.6922 9.16898 38.762C9.37212 38.8636 9.71174 39.1048 9.71491 39.1069C9.74771 39.1302 9.78474 39.1407 9.82071 39.1407C9.87785 39.1407 9.93498 39.1143 9.97095 39.0635C10.0302 38.981 10.0101 38.8657 9.92757 38.8075C9.91276 38.7969 9.56151 38.5472 9.33298 38.4329Z" fill="#343434"/>
<path d="M10.5125 38.2278C10.267 38.5452 9.7687 39.0509 9.47563 39.0572C8.9953 39.0678 8.1362 39.053 8.12774 39.053C8.02828 39.053 7.94259 39.1324 7.94047 39.2339C7.93835 39.3355 8.01982 39.4191 8.12139 39.4212C8.12774 39.4212 8.60595 39.4297 9.05137 39.4297C9.2069 39.4297 9.35714 39.4297 9.4841 39.4265C10.0459 39.4149 10.7273 38.5526 10.8034 38.4542C10.8659 38.3738 10.851 38.2585 10.7706 38.1971C10.6902 38.1347 10.5749 38.1495 10.5125 38.2299V38.2278Z" fill="#343434"/>
<path d="M9.24033 37.0299C9.20118 37.2976 9.10279 37.78 9.00439 37.9387C8.8732 38.1524 8.71873 38.2699 8.71873 38.2699C8.63726 38.3302 8.62034 38.4455 8.68064 38.527C8.71661 38.5756 8.77269 38.601 8.82876 38.601C8.86685 38.601 8.90494 38.5894 8.93774 38.5651C8.9462 38.5587 9.14828 38.4074 9.31862 38.1302C9.48684 37.8562 9.59264 37.1611 9.60428 37.0817C9.61909 36.9812 9.54926 36.8881 9.44981 36.8733C9.3493 36.8585 9.2562 36.9283 9.24138 37.0288L9.24033 37.0299Z" fill="#343434"/>
<path d="M12.3903 26.1801L10.3441 24.957C10.3441 24.957 9.90929 26.3515 9.77386 27.2011C9.66489 27.8835 9.47656 28.8865 9.47656 29.0854C9.47656 29.2843 11.5481 29.2419 11.5481 29.2419C11.5481 29.2419 11.5238 28.6442 11.582 28.3405C11.7354 27.546 12.3903 26.1811 12.3903 26.1811V26.1801Z" fill="white"/>
<path d="M9.59272 36.4322C9.89848 36.4946 10.4021 36.3697 10.4021 36.3697C10.4021 36.3697 10.8708 34.0559 11.076 33.055C11.2813 32.0542 11.6421 29.2409 11.6421 29.2409C11.6421 29.2409 11.3797 29.0177 11.2823 28.8759C11.1988 28.7542 10.9068 28.1967 10.8443 28.1205C10.6878 27.9301 10.5058 27.9438 10.328 27.9957C10.1228 28.056 9.92176 28.3183 9.79691 28.4834C9.67207 28.6474 9.24993 29.242 9.24993 29.242C9.24993 29.242 9.27638 31.1178 9.27638 31.504C9.27638 31.8902 9.16211 36.3253 9.16211 36.3253C9.16211 36.3253 9.28695 36.3719 9.59272 36.4343V36.4322Z" fill="#343434"/>
<path d="M9.05566 36.1201V36.4502C9.05566 36.4502 9.33286 36.5391 9.61006 36.5698C9.88725 36.6015 10.5601 36.5888 10.5601 36.5613C10.5601 36.5338 10.5877 36.2217 10.5877 36.2217C10.5877 36.2217 10.138 36.282 9.81002 36.2513C9.48204 36.2196 9.05566 36.1201 9.05566 36.1201Z" fill="white"/>
<path d="M10.1966 25.4575L10.167 25.5612C10.167 25.5612 10.2516 25.6458 10.3606 25.7421C10.4696 25.8384 10.8452 25.9146 11.2335 26.0786C11.6217 26.2426 12.2396 26.5113 12.2396 26.5113L12.3211 26.3473C12.1328 26.2288 11.9085 26.1304 11.6895 26.0362C11.3615 25.8955 10.7986 25.8331 10.5405 25.6765C10.4167 25.6014 10.3088 25.5305 10.1966 25.4575Z" fill="#343434"/>
<mask id="mask1_372_2595" style="mask-type:luminance" maskUnits="userSpaceOnUse" x="9" y="27" width="3" height="10">
<path d="M9.24993 29.241C9.24993 29.241 9.67207 28.6475 9.79691 28.4824C9.92176 28.3184 10.1228 28.056 10.328 27.9947C10.5047 27.9428 10.6878 27.9291 10.8443 28.1195C10.9068 28.1957 11.1977 28.7533 11.2823 28.8749C11.3797 29.0167 11.6421 29.2399 11.6421 29.2399C11.6421 29.2399 11.2813 32.0542 11.076 33.0541C10.8708 34.0549 10.4021 36.3688 10.4021 36.3688C10.4021 36.3688 9.89848 36.4936 9.59272 36.4312C9.28695 36.3688 9.16211 36.3222 9.16211 36.3222C9.16211 36.3222 9.27638 31.8871 9.27638 31.5009C9.27638 31.1147 9.24993 29.2389 9.24993 29.2389V29.241Z" fill="white"/>
</mask>
<g mask="url(#mask1_372_2595)">
<path d="M10.766 28.7491C10.7459 28.7121 10.7289 28.6782 10.7131 28.6465C10.6454 28.5068 10.5956 28.4053 10.402 28.4053C10.2613 28.4053 9.95766 28.7015 9.83917 28.8634C9.79896 28.9184 9.73866 29.0073 9.67518 29.1014C9.5588 29.2739 9.38317 29.5342 9.34191 29.5553C9.32604 29.5606 9.31757 29.5775 9.32286 29.5934C9.32815 29.6093 9.34508 29.6188 9.36095 29.6135C9.40644 29.5998 9.49638 29.476 9.72596 29.1353C9.78944 29.0422 9.84869 28.9533 9.88889 28.8983C10.0211 28.7174 10.3047 28.4656 10.402 28.4656C10.5565 28.4656 10.5925 28.5396 10.6581 28.6719C10.6739 28.7047 10.6909 28.7396 10.712 28.7777C10.8284 28.9893 11.0326 29.2771 11.1955 29.4157C11.2484 29.4612 11.4346 29.6357 11.4368 29.6378C11.4431 29.6431 11.4505 29.6463 11.4579 29.6463C11.4664 29.6463 11.4738 29.6431 11.4801 29.6368C11.4918 29.6241 11.4907 29.605 11.4791 29.5934C11.4717 29.586 11.2907 29.4157 11.2357 29.3702C11.0961 29.2517 10.8982 28.9903 10.766 28.7491Z" fill="white"/>
<path d="M10.6644 29.3395C10.6443 29.3024 10.6274 29.2686 10.6115 29.2368C10.5438 29.0972 10.4941 28.9956 10.3005 28.9956C10.1598 28.9956 9.8561 29.2918 9.73761 29.4537C9.6974 29.5087 9.6371 29.5987 9.57362 29.6928C9.45724 29.8653 9.28161 30.1256 9.24035 30.1467C9.22448 30.152 9.21601 30.1689 9.2213 30.1848C9.22659 30.2007 9.24352 30.2102 9.25939 30.2049C9.30488 30.1911 9.39376 30.0674 9.6244 29.7267C9.68788 29.6325 9.74713 29.5447 9.78733 29.4897C9.91958 29.3088 10.2031 29.057 10.3005 29.057C10.4549 29.057 10.4909 29.131 10.5565 29.2633C10.5724 29.2961 10.5893 29.331 10.6105 29.3691C10.7268 29.5807 10.931 29.8685 11.094 30.0071C11.149 30.0536 11.5151 30.371 11.5151 30.371L11.5553 30.3245C11.5553 30.3245 11.1881 30.0071 11.1342 29.9605C10.9945 29.842 10.7967 29.5807 10.6644 29.3395Z" fill="white"/>
<path d="M11.0766 30.7784C10.937 30.6599 10.7391 30.3986 10.6069 30.1573C10.5868 30.1203 10.5699 30.0864 10.554 30.0547C10.4863 29.915 10.4365 29.8135 10.2429 29.8135C10.1022 29.8135 9.79857 30.1097 9.68007 30.2716C9.63881 30.3277 9.57956 30.4165 9.51502 30.5107C9.39864 30.6832 9.22302 30.9424 9.18175 30.9646C9.16588 30.9699 9.15742 30.9868 9.16271 31.0027C9.168 31.0185 9.18493 31.0281 9.2008 31.0228C9.24629 31.009 9.33516 30.8852 9.56475 30.5456C9.62823 30.4515 9.68748 30.3636 9.72768 30.3086C9.85993 30.1277 10.1435 29.8759 10.2408 29.8759C10.3953 29.8759 10.4313 29.95 10.4969 30.0822C10.5127 30.115 10.5296 30.1499 10.5508 30.188C10.6672 30.3996 10.8714 30.6863 11.0343 30.826C11.0777 30.863 11.3136 31.1455 11.4004 31.2513C11.4067 31.2587 11.4152 31.2629 11.4237 31.2629C11.43 31.2629 11.4374 31.2608 11.4427 31.2555C11.4554 31.245 11.4575 31.2259 11.4469 31.2122C11.4342 31.1963 11.1295 30.827 11.0735 30.7794L11.0766 30.7784Z" fill="white"/>
<path d="M10.6068 31.1222C10.5867 31.0851 10.5698 31.0513 10.5539 31.0195C10.4862 30.8799 10.4365 30.7783 10.2428 30.7783C10.1021 30.7783 9.79849 31.0756 9.67999 31.2364C9.63873 31.2925 9.57842 31.3814 9.51494 31.4755C9.39856 31.648 9.22399 31.9072 9.18273 31.9284C9.16686 31.9337 9.15839 31.9506 9.16368 31.9665C9.16897 31.9823 9.1859 31.9918 9.20177 31.9866C9.24726 31.9728 9.33614 31.849 9.56572 31.5094C9.6292 31.4152 9.68951 31.3264 9.72972 31.2713C9.86197 31.0904 10.1455 30.8386 10.2428 30.8386C10.3973 30.8386 10.4333 30.9127 10.4989 31.0449C10.5148 31.0777 10.5317 31.1127 10.5528 31.1507C10.6692 31.3623 10.8734 31.6491 11.0364 31.7887C11.0903 31.8342 11.2755 32.0088 11.2776 32.0109C11.2839 32.0162 11.2913 32.0194 11.2987 32.0194C11.3072 32.0194 11.3146 32.0162 11.321 32.0098C11.3326 31.9971 11.3315 31.9781 11.3199 31.9665C11.3125 31.9591 11.1316 31.7887 11.0766 31.7432C10.9369 31.6247 10.739 31.3634 10.6068 31.1222Z" fill="white"/>
<path d="M10.5267 32.0543C10.5066 32.0173 10.4897 31.9834 10.4738 31.9517C10.4061 31.812 10.3564 31.7104 10.1628 31.7104C10.0221 31.7104 9.71841 32.0078 9.59991 32.1686C9.55865 32.2246 9.49834 32.3135 9.43486 32.4077C9.31848 32.5801 9.14391 32.8393 9.10265 32.8605C9.08678 32.8658 9.07832 32.8827 9.08361 32.8986C9.0889 32.9145 9.10582 32.924 9.12169 32.9187C9.16719 32.9049 9.25606 32.7811 9.48565 32.4415C9.54913 32.3474 9.60943 32.2585 9.64964 32.2035C9.78189 32.0226 10.0654 31.7708 10.1628 31.7708C10.3183 31.7708 10.3532 31.8448 10.4188 31.9771C10.4347 32.0099 10.4516 32.0448 10.4728 32.0829C10.5891 32.2945 10.7933 32.5812 10.9563 32.7208C11.0102 32.7663 11.1954 32.9409 11.1975 32.943C11.2038 32.9483 11.2113 32.9515 11.2187 32.9515C11.2271 32.9515 11.2345 32.9483 11.2409 32.942C11.2525 32.9293 11.2515 32.9102 11.2398 32.8986C11.2324 32.8912 11.0515 32.7208 10.9965 32.6753C10.8568 32.5569 10.659 32.2955 10.5267 32.0543Z" fill="white"/>
<path d="M10.39 33.0445C10.3699 33.0075 10.353 32.9737 10.3371 32.9419C10.2694 32.8023 10.2197 32.7007 10.026 32.7007C9.88533 32.7007 9.58169 32.9969 9.46319 33.1588C9.42299 33.2138 9.36268 33.3027 9.2992 33.3969C9.18282 33.5693 9.00719 33.8296 8.96593 33.8507C8.95006 33.856 8.9416 33.873 8.94689 33.8888C8.95218 33.9047 8.9691 33.9142 8.98497 33.9089C9.03047 33.8952 9.1204 33.7714 9.34999 33.4307C9.41347 33.3376 9.47271 33.2487 9.51292 33.1937C9.64517 33.0128 9.92871 32.761 10.026 32.761C10.1805 32.761 10.2165 32.8351 10.2821 32.9673C10.298 33.0001 10.3149 33.035 10.336 33.0731C10.4524 33.2847 10.6566 33.5725 10.8196 33.7111C10.8735 33.7566 11.0587 33.9311 11.0608 33.9333C11.0671 33.9386 11.0745 33.9417 11.0819 33.9417C11.0904 33.9417 11.0978 33.9385 11.1042 33.9322C11.1158 33.9195 11.1147 33.9005 11.1031 33.8888C11.0957 33.8814 10.9148 33.7111 10.8598 33.6656C10.7201 33.5471 10.5223 33.2858 10.39 33.0445Z" fill="white"/>
<path d="M10.2425 34.1354C10.2224 34.0983 10.2055 34.0645 10.1896 34.0327C10.1219 33.8931 10.0722 33.7915 9.87859 33.7915C9.73788 33.7915 9.43423 34.0888 9.31573 34.2496C9.27447 34.3057 9.21522 34.3946 9.15068 34.4887C9.0343 34.6612 8.85867 34.9204 8.81847 34.9426C8.8026 34.9479 8.79414 34.9648 8.79943 34.9807C8.80472 34.9966 8.82165 35.0061 8.83752 35.0008C8.88301 34.987 8.97188 34.8633 9.20147 34.5236C9.26495 34.4295 9.3242 34.3406 9.3644 34.2866C9.49665 34.1057 9.7802 33.8539 9.87753 33.8539C10.032 33.8539 10.068 33.928 10.1336 34.0602C10.1494 34.093 10.1664 34.128 10.1875 34.166C10.3039 34.3776 10.5081 34.6654 10.671 34.804C10.725 34.8495 10.9101 35.0241 10.9123 35.0262C10.9186 35.0315 10.926 35.0347 10.9334 35.0347C10.9419 35.0347 10.9493 35.0315 10.9556 35.0251C10.9673 35.0124 10.9662 34.9934 10.9546 34.9818C10.9472 34.9744 10.7663 34.804 10.7112 34.7585C10.5716 34.64 10.3737 34.3787 10.2415 34.1375L10.2425 34.1354Z" fill="white"/>
<path d="M10.2425 35.1478C10.2224 35.1108 10.2055 35.0769 10.1896 35.0452C10.1219 34.9055 10.0722 34.804 9.87859 34.804C9.73788 34.804 9.43423 35.1002 9.31573 35.2621C9.27553 35.3171 9.21522 35.407 9.15174 35.5012C9.03536 35.6736 8.85973 35.9339 8.81847 35.9551C8.8026 35.9604 8.79414 35.9773 8.79943 35.9932C8.80472 36.009 8.82165 36.0185 8.83752 36.0133C8.88301 35.9995 8.97188 35.8757 9.20253 35.535C9.26601 35.4409 9.32525 35.3531 9.36546 35.298C9.49771 35.1171 9.78125 34.8653 9.87859 34.8653C10.0331 34.8653 10.069 34.9394 10.1346 35.0716C10.1505 35.1044 10.1674 35.1393 10.1886 35.1774C10.305 35.389 10.5092 35.6768 10.6721 35.8154C10.7261 35.8609 10.9112 36.0355 10.9133 36.0376C10.9197 36.0429 10.9271 36.0461 10.9345 36.0461C10.9429 36.0461 10.9503 36.0429 10.9567 36.0365C10.9683 36.0238 10.9673 36.0048 10.9556 35.9932C10.9482 35.9857 10.7673 35.8154 10.7123 35.7699C10.5726 35.6514 10.3748 35.3901 10.2425 35.1489V35.1478Z" fill="white"/>
</g>
<path d="M15.6918 19.392C15.6135 19.3762 15.1914 19.611 14.7534 19.6576C14.3153 19.7041 13.3198 19.6936 12.9241 19.5581C12.5284 19.4227 11.6481 19.0217 11.6481 19.0217L8.83594 25.0005C8.83594 25.0005 9.46862 25.0354 9.78179 25.2068C10.095 25.3793 10.2822 25.52 10.5404 25.6755C10.7985 25.831 11.3614 25.8945 11.6894 26.0352C12.0174 26.1759 12.3199 26.322 12.5696 26.541C12.8193 26.76 13.5493 26.8436 13.7895 26.8848C14.0297 26.9261 14.6444 26.9166 15.0295 26.8848C15.4146 26.8531 16.7181 26.2902 16.9678 26.1865C17.2174 26.0818 19.2647 25.32 19.2647 25.32C19.2647 25.32 17.0196 21.1737 16.9413 21.0171C16.863 20.8605 15.769 19.4068 15.6907 19.391L15.6918 19.392Z" fill="white"/>
<path d="M9.95464 24.5509L12.1362 19.3858C11.8675 19.2715 11.6697 19.1773 11.6612 19.1731L8.99609 24.9149L9.95464 24.5499V24.5509Z" fill="#343434"/>
<path d="M10.4443 24.6452L10.9554 25.6873L11.9668 25.1657L13.2057 19.7561C13.1962 19.754 13.1856 19.7529 13.1761 19.7508C12.9169 19.6916 12.5921 19.5731 12.3096 19.4578L10.4454 24.6441L10.4443 24.6452Z" fill="#343434"/>
<path d="M12.3154 25.4577L13.1714 26.6141L14.0982 25.4577L13.9617 19.8132C13.7564 19.8153 13.5512 19.8079 13.3692 19.7847L12.3154 25.4577Z" fill="#343434"/>
<path d="M14.1699 19.808L14.3942 25.4578L15.5623 26.5105L16.2193 25.0928L14.7159 19.7773C14.5561 19.789 14.3688 19.8017 14.171 19.808H14.1699Z" fill="#343434"/>
<path d="M14.9053 19.7562L16.5208 24.9975L17.4667 25.6884L17.7016 24.623L15.6247 19.5901C15.3983 19.6536 15.1253 19.7234 14.9053 19.7583V19.7562Z" fill="#343434"/>
<path d="M17.8843 24.6238L18.553 25.1867L18.7297 24.426L16.0307 19.4661C15.9757 19.483 15.8625 19.519 15.7207 19.5602L17.8833 24.6238H17.8843Z" fill="#343434"/>
<path d="M9.29883 23.8813C9.29883 24.0442 9.43108 24.1754 9.59295 24.1754C9.75483 24.1754 9.88708 24.0432 9.88708 23.8813C9.88708 23.7194 9.75483 23.5872 9.59295 23.5872C9.43108 23.5872 9.29883 23.7194 9.29883 23.8813Z" fill="white"/>
<path d="M18.0518 24.2009C18.0518 24.3638 18.184 24.495 18.3459 24.495C18.5078 24.495 18.64 24.3627 18.64 24.2009C18.64 24.039 18.5078 23.9067 18.3459 23.9067C18.184 23.9067 18.0518 24.039 18.0518 24.2009Z" fill="white"/>
<path d="M10.9453 24.495C10.9453 24.6717 11.0881 24.8146 11.2648 24.8146C11.4415 24.8146 11.5843 24.6717 11.5843 24.495C11.5843 24.3184 11.4415 24.1755 11.2648 24.1755C11.0881 24.1755 10.9453 24.3184 10.9453 24.495Z" fill="white"/>
<path d="M12.8955 25.187C12.8955 25.3636 13.0383 25.5065 13.215 25.5065C13.3917 25.5065 13.5345 25.3636 13.5345 25.187C13.5345 25.0103 13.3917 24.8674 13.215 24.8674C13.0383 24.8674 12.8955 25.0103 12.8955 25.187Z" fill="white"/>
<path d="M14.9727 25.1076C14.9727 25.2843 15.1155 25.4271 15.2922 25.4271C15.4689 25.4271 15.6117 25.2843 15.6117 25.1076C15.6117 24.9309 15.4689 24.7881 15.2922 24.7881C15.1155 24.7881 14.9727 24.9309 14.9727 25.1076Z" fill="white"/>
<path d="M16.7939 24.6379C16.7939 24.8146 16.9368 24.9574 17.1135 24.9574C17.2901 24.9574 17.433 24.8146 17.433 24.6379C17.433 24.4612 17.2901 24.3184 17.1135 24.3184C16.9368 24.3184 16.7939 24.4612 16.7939 24.6379Z" fill="white"/>
<path d="M18.2584 21.5396C20.3923 21.5396 22.1222 19.7666 22.1222 17.5795C22.1222 15.3924 20.3923 13.6194 18.2584 13.6194C16.1244 13.6194 14.3945 15.3924 14.3945 17.5795C14.3945 19.7666 16.1244 21.5396 18.2584 21.5396Z" fill="white"/>
<path d="M14.332 17.5806C14.332 19.7981 16.0925 21.602 18.2572 21.602C20.4219 21.602 22.1824 19.7981 22.1824 17.5806C22.1824 15.363 20.4219 13.5591 18.2572 13.5591C16.0925 13.5591 14.332 15.363 14.332 17.5806ZM22.0607 17.5806C22.0607 19.7304 20.3552 21.4793 18.2583 21.4793C16.1613 21.4793 14.4558 19.7304 14.4558 17.5806C14.4558 15.4307 16.1613 13.6808 18.2583 13.6808C20.3552 13.6808 22.0607 15.4296 22.0607 17.5806Z" fill="#343434"/>
<path d="M19.5516 20.1424C20.9657 19.5622 21.6417 17.9454 21.0614 16.5312C20.4812 15.1171 18.8644 14.4411 17.4502 15.0213C16.036 15.6016 15.3601 17.2184 15.9403 18.6326C16.5206 20.0467 18.1374 20.7227 19.5516 20.1424Z" fill="#343434"/>
<path d="M17.6572 17.5806C17.6572 18.1139 18.091 18.5487 18.6253 18.5487C19.1596 18.5487 19.5934 18.1149 19.5934 17.5806C19.5934 17.0463 19.1596 16.6125 18.6253 16.6125C18.091 16.6125 17.6572 17.0463 17.6572 17.5806ZM19.4706 17.5806C19.4706 18.0472 19.0919 18.426 18.6253 18.426C18.1587 18.426 17.78 18.0461 17.78 17.5806C17.78 17.1151 18.1587 16.7353 18.6253 16.7353C19.0919 16.7353 19.4706 17.1151 19.4706 17.5806Z" fill="white"/>
<path d="M18.1904 17.5806C18.1904 17.8208 18.3851 18.0154 18.6253 18.0154C18.8654 18.0154 19.0601 17.8208 19.0601 17.5806C19.0601 17.3404 18.8654 17.1458 18.6253 17.1458C18.3851 17.1458 18.1904 17.3404 18.1904 17.5806ZM18.9374 17.5806C18.9374 17.753 18.7967 17.8927 18.6242 17.8927C18.4518 17.8927 18.311 17.752 18.311 17.5806C18.311 17.4092 18.4518 17.2674 18.6242 17.2674C18.7967 17.2674 18.9374 17.4081 18.9374 17.5806Z" fill="white"/>
<path d="M21.9416 18.135C21.9543 18.1361 21.967 18.1318 21.9765 18.1223C21.986 18.1139 21.9913 18.1012 21.9913 18.0874L21.9649 16.9204C21.9649 16.895 21.9437 16.876 21.9194 16.876H21.3777L21.0984 16.1259L21.5649 15.7915C21.585 15.7767 21.5903 15.7492 21.5766 15.7281L21.0656 14.9769C21.0582 14.9663 21.0476 14.9599 21.0359 14.9578C21.0243 14.9557 21.0116 14.9578 21.001 14.9652L20.4625 15.3504L19.9748 14.9388L20.2435 14.377C20.2541 14.3537 20.2445 14.3273 20.2223 14.3156L19.468 13.9517C19.4563 13.9464 19.4426 13.9453 19.4299 13.9517C19.4172 13.957 19.4087 13.9675 19.4045 13.9802L19.1982 14.6277L18.6491 14.5378L18.5835 13.7517C18.5814 13.7263 18.5591 13.7073 18.5348 13.7094L17.6736 13.7729C17.6609 13.7729 17.6493 13.7803 17.6408 13.7898C17.6323 13.7993 17.6292 13.812 17.6313 13.8247L17.7455 14.6415L17.3488 14.7727L17.0081 14.0257C17.0028 14.0141 16.9922 14.0046 16.9806 14.0014C16.9679 13.9972 16.9552 13.9993 16.9436 14.0056L16.0443 14.5293C16.0326 14.5357 16.0252 14.5473 16.0221 14.56C16.0199 14.5727 16.0221 14.5865 16.0305 14.5971L16.513 15.2382L16.1702 15.5895L15.5142 15.144C15.5036 15.1366 15.4909 15.1345 15.4782 15.1377C15.4656 15.1409 15.455 15.1483 15.4486 15.1589L14.9588 15.9978C14.9524 16.0084 14.9503 16.0222 14.9545 16.0338C14.9577 16.0465 14.9662 16.056 14.9778 16.0613L15.6824 16.421L15.5618 16.9977L14.6435 16.9077C14.6308 16.9077 14.6181 16.9109 14.6086 16.9194C14.599 16.9278 14.5938 16.9405 14.5938 16.9532V18.2355C14.5938 18.2482 14.599 18.2609 14.6086 18.2694C14.6181 18.2778 14.6297 18.2831 14.6435 18.281L15.6126 18.2059L15.82 18.8682L15.0064 19.3686C14.9947 19.375 14.9873 19.3866 14.9852 19.3993C14.9831 19.412 14.9852 19.4258 14.9937 19.4353L15.7808 20.451C15.7882 20.4616 15.7999 20.4679 15.8126 20.469C15.8253 20.47 15.838 20.4658 15.8475 20.4573L16.5712 19.8141L17.0779 20.1706L16.6939 21.0086C16.6886 21.0202 16.6886 21.0339 16.6939 21.0466C16.6992 21.0583 16.7098 21.0678 16.7214 21.072L17.663 21.3736C17.6747 21.3778 17.6884 21.3757 17.7001 21.3693C17.7117 21.363 17.7191 21.3524 17.7223 21.3397L17.9169 20.4891L18.6893 20.5885L18.7739 21.3344C18.775 21.3482 18.7824 21.3598 18.794 21.3672C18.8014 21.3725 18.8099 21.3746 18.8194 21.3746C18.8236 21.3746 18.8279 21.3746 18.8321 21.3725L19.8436 21.0699C19.8552 21.0667 19.8658 21.0583 19.8711 21.0466C19.8764 21.035 19.8774 21.0223 19.8732 21.0107L19.651 20.3642L20.3027 19.9283L20.7503 20.378C20.7598 20.3875 20.7725 20.3928 20.7862 20.3917C20.8 20.3907 20.8116 20.3833 20.8201 20.3727L21.5131 19.411C21.5269 19.3919 21.5237 19.3655 21.5067 19.3496L21.1481 19.0259L21.4443 18.0948L21.9416 18.1329V18.135ZM21.3682 18.0345L21.0518 19.029C21.0465 19.046 21.0518 19.065 21.0645 19.0766L21.4147 19.393L20.7778 20.2775L20.3419 19.8395C20.326 19.8236 20.3017 19.8215 20.2837 19.8342L19.5706 20.3113C19.5537 20.323 19.5463 20.3452 19.5526 20.3642L19.7706 20.999L18.8575 21.272L18.775 20.5452C18.7729 20.524 18.7559 20.5071 18.7348 20.5049L17.8852 20.396C17.863 20.3939 17.8397 20.4087 17.8344 20.4309L17.6419 21.2731L16.7976 21.0022L17.1753 20.1759C17.1848 20.1558 17.1785 20.1315 17.1605 20.1188L16.5923 19.7199C16.5754 19.7072 16.5511 19.7093 16.5352 19.7231L15.821 20.3579L15.0952 19.4205L15.8951 18.9285C15.9131 18.9179 15.9216 18.8957 15.9152 18.8756L15.6867 18.1435C15.6803 18.1234 15.6623 18.1086 15.6391 18.1117L14.6826 18.1858V17.004L15.5914 17.0929C15.6158 17.095 15.6359 17.0791 15.6412 17.0569L15.7777 16.4052C15.7819 16.3851 15.7724 16.3639 15.7533 16.3544L15.0603 16.001L15.5005 15.2467L16.148 15.6857C16.1659 15.6984 16.1913 15.6963 16.2062 15.6794L16.6029 15.2731C16.6188 15.2572 16.6209 15.2319 16.6071 15.2139L16.1321 14.5833L16.9425 14.1114L17.279 14.8499C17.2885 14.8711 17.3128 14.8817 17.335 14.8742L17.8069 14.7177C17.8281 14.7103 17.8408 14.6902 17.8376 14.6679L17.7254 13.8617L18.4925 13.8057L18.5581 14.5822C18.5602 14.6034 18.5761 14.6203 18.5962 14.6235L19.2193 14.7261C19.2416 14.7293 19.2638 14.7166 19.2701 14.6944L19.4722 14.0596L20.1377 14.3802L19.8732 14.9324C19.8637 14.9515 19.869 14.9737 19.8848 14.9875L20.4265 15.4445C20.4424 15.4583 20.4657 15.4593 20.4826 15.4466L21.0116 15.0679L21.4718 15.7439L21.0137 16.0719C20.9968 16.0835 20.9904 16.1058 20.9978 16.1248L21.3004 16.9374C21.3068 16.9553 21.3248 16.967 21.3438 16.967H21.8718L21.8961 18.0387L21.4126 18.0017C21.3914 18.0006 21.3713 18.0133 21.365 18.0334L21.3682 18.0345Z" fill="#343434"/>
<path d="M12.2202 8.33896C12.2202 8.33896 12.216 8.33896 12.2149 8.33896C12.1927 8.33579 12.1779 8.31569 12.1811 8.29347C12.1853 8.26173 12.1885 8.20988 12.1917 8.14535C12.2075 7.83853 12.2414 7.19949 12.5842 6.70752C12.8656 6.3023 13.493 6.08436 13.5195 6.07484C13.5406 6.06849 13.5628 6.07907 13.5703 6.09917C13.5777 6.12033 13.566 6.14255 13.5459 6.14995C13.5396 6.15207 12.9164 6.36896 12.6498 6.75302C12.3197 7.227 12.2869 7.85016 12.271 8.14958C12.2678 8.21729 12.2647 8.27019 12.2594 8.30511C12.2562 8.32521 12.2393 8.33896 12.2202 8.33896Z" fill="white"/>
<path d="M11.6586 19.2131C11.6374 19.2131 11.6205 19.1972 11.6194 19.176L11.5803 18.5508C11.5803 18.5359 11.5867 18.5211 11.6004 18.5137L11.648 18.4862C11.5983 18.2725 11.2851 16.9278 11.2132 16.4908C11.1412 16.0539 10.8947 15.1736 10.8587 15.0456C10.7773 14.999 10.4493 14.8033 10.3953 14.688C10.3858 14.6679 10.3953 14.6446 10.4144 14.6351C10.4345 14.6256 10.4578 14.6351 10.4673 14.6541C10.5033 14.7314 10.7593 14.8975 10.9116 14.9853C10.9212 14.9906 10.9275 14.999 10.9307 15.0086C10.9339 15.0181 11.2132 16.0041 11.2915 16.4781C11.3687 16.9479 11.7284 18.4809 11.7316 18.4968C11.7358 18.5137 11.7284 18.5317 11.7126 18.5402L11.6607 18.5698L11.6977 19.1707C11.6988 19.193 11.6829 19.2109 11.6607 19.2131H11.6586Z" fill="white"/>
</svg>
