<svg width="25" height="41" viewBox="0 0 25 41" fill="none" xmlns="http://www.w3.org/2000/svg">
<path d="M6.67256 39.3748C7.01135 39.3748 7.18663 39.2139 7.18663 39.2139C7.18663 39.2139 7.11992 38.8516 7.11992 38.73C7.3436 37.6246 7.98585 34.4919 8.15852 34.1125C8.36911 33.6508 9.16702 33.2296 9.50319 32.9353C9.83936 32.641 11.1003 31.8849 11.689 31.3381C12.2776 30.7914 12.6556 30.2028 12.6556 30.2028C12.6556 30.2028 12.9368 30.8568 14.4306 31.1969C15.031 31.3342 16.6818 31.6625 18.1769 31.4245C18.4503 31.3813 18.5235 31.8156 18.5615 32.089C18.6373 32.637 18.7655 33.5631 18.8754 34.3087C18.9853 35.0465 19.2364 35.6246 19.3986 35.9386C19.4915 36.1191 19.5255 36.3244 19.4889 36.5246L19.0925 38.6868L19.3424 38.7823L19.2011 39.3029C19.2011 39.3029 19.566 39.367 19.6772 39.3748C19.9362 39.3931 20.3993 39.2715 20.4071 39.0125L20.2005 38.5743L20.2619 36.4958C20.2619 36.4958 20.1364 34.6881 20.1364 34.4788C20.1364 34.2695 20.4307 31.4219 20.4307 31.4219C20.4307 31.4219 20.6687 34.4879 20.8793 34.7404C21.0376 34.9301 21.2731 35.4036 21.3816 35.6286C21.4196 35.707 21.4353 35.796 21.4274 35.8823L21.2181 38.1753L21.4339 38.3245L21.1553 38.866C21.1553 38.866 21.3986 38.9654 21.7505 38.951C21.9755 38.9418 22.2502 38.883 22.2502 38.658C22.2502 38.5677 22.0579 38.2643 22.0566 38.1544C22.0527 37.3395 22.0487 36.0785 22.0487 35.7711C22.0487 35.3944 21.9375 32.6449 21.8957 31.6403C21.8865 31.4192 21.9611 31.2047 22.0998 31.0321C22.2567 30.8359 22.466 30.5258 22.606 30.1282C22.8584 29.414 22.3326 27.2282 22.2907 26.7233C22.2489 26.2184 22.0383 22.7194 22.0383 22.7194L20.3365 21.584C20.3365 21.584 20.3051 23.5173 20.1782 24.1059C20.0526 24.6945 19.7165 25.4087 19.5896 25.5356C19.4627 25.6625 19.3515 26.0641 18.4699 26.0641C17.5883 26.0641 16.5628 26.3034 16.2279 26.3348C15.3031 26.4186 13.0755 25.2845 11.6039 25.8731C10.1324 26.4617 9.12386 27.0922 9.12386 27.0922C9.12386 27.0922 8.91326 27.4702 8.95512 28.2695C8.99697 29.0687 9.54374 30.2446 9.54374 30.6226C9.54374 31.0007 8.91326 31.758 8.28277 31.9673C7.65229 32.1779 7.35537 32.4291 7.21018 33.8588C7.06498 35.2885 6.33901 38.7744 6.33901 38.7744L6.52868 38.866L6.30762 39.3016C6.30762 39.3016 6.3861 39.3722 6.66995 39.3722L6.67256 39.3748Z" fill="#343434"/>
<path d="M12.8137 32.2328C13.1917 31.7816 14.127 30.4146 14.127 30.4146L12.144 29.1118C12.144 29.1118 11.83 31.1236 11.541 31.707C11.2924 32.2119 10.3428 33.1472 10.3428 33.4833C10.3428 33.8195 11.8091 38.2329 11.8091 38.2329L11.9909 38.28L11.9621 38.7796C11.9621 38.7796 12.4304 38.9575 12.6188 38.811C12.8071 38.6645 12.781 38.5272 12.781 38.5272C12.781 38.5272 12.7404 38.4265 12.679 38.2669C12.6659 38.2316 12.6502 38.1936 12.6358 38.1531C12.4448 37.656 12.1217 36.7979 12.0249 36.4251C11.8889 35.8993 11.6927 34.5311 11.6103 33.9346C11.5854 33.7567 11.643 33.5788 11.7659 33.448C12.0328 33.1642 12.5861 32.5036 12.8137 32.2315V32.2328Z" fill="#343434"/>
<path d="M22.7829 20.3022C23.055 20.242 23.6017 20.0471 23.7417 19.4454C23.7796 19.2806 23.9929 18.7155 24.0674 18.5481C24.0923 18.4932 24.0334 18.4369 23.9798 18.4657C23.7456 18.5873 23.3218 18.7979 23.0171 18.8986C22.7057 19.002 22.3892 19.4886 22.2296 19.7659C22.159 19.8888 22.0347 19.9699 21.8947 19.9856L20.8915 20.0916C20.8051 20.1007 20.7227 20.0484 20.6966 19.966C20.6115 19.7044 20.3905 19.1485 19.9706 18.8895C19.5599 18.6357 18.9163 18.4945 18.5788 18.4343C18.4637 18.4134 18.3604 18.5088 18.3708 18.6253C18.4062 19.0347 18.5016 19.8888 18.69 20.297C18.9425 20.8437 19.9719 20.8333 19.9719 20.8333C19.9719 20.8333 19.93 21.9686 20.1406 22.263C20.3512 22.5573 20.9909 22.6161 21.1596 22.8045C21.4526 23.1289 22.3264 23.9019 22.6626 23.6508C22.9987 23.3983 22.7868 22.8961 22.7881 22.6423C22.7908 22.3519 23.0197 21.7489 23.0419 21.3212C23.0524 21.1354 22.8117 20.7548 22.6953 20.4814C22.6639 20.4068 22.7057 20.3218 22.7842 20.3048L22.7829 20.3022Z" fill="#343434"/>
<path d="M20.0372 20.4906C20.0581 20.488 20.0725 20.4697 20.0699 20.4488C20.0673 20.4279 20.049 20.4135 20.028 20.4161C20.0215 20.4161 19.3295 20.4959 19.1346 20.301C18.9685 20.1348 18.7069 19.1054 18.6193 18.7221C18.6153 18.7012 18.5944 18.6895 18.5735 18.6934C18.5525 18.6986 18.5408 18.7182 18.5447 18.7392C18.5578 18.7967 18.8652 20.1388 19.0797 20.3546C19.2066 20.4815 19.4904 20.509 19.7167 20.509C19.8855 20.509 20.0228 20.4933 20.0346 20.4919L20.0372 20.4906Z" fill="white"/>
<path d="M20.4534 20.2395C20.4534 20.2395 20.456 20.2395 20.4573 20.2395C20.4782 20.2369 20.4926 20.2186 20.4913 20.1976C20.4704 20.0053 19.9746 19.1826 19.9184 19.0897C19.9079 19.0714 19.8844 19.0662 19.8661 19.0766C19.8478 19.0871 19.8425 19.1106 19.853 19.1289C20.0034 19.3788 20.3984 20.0577 20.4154 20.2068C20.4181 20.2264 20.4338 20.2408 20.4534 20.2408V20.2395Z" fill="white"/>
<path d="M22.503 20.3637C22.5331 20.3545 23.2551 20.1243 23.4278 19.8208C23.5952 19.5265 23.8608 18.7744 23.8725 18.743C23.8791 18.7234 23.8686 18.7011 23.849 18.6946C23.8294 18.688 23.8071 18.6985 23.8006 18.7181C23.798 18.726 23.5272 19.4964 23.3624 19.7842C23.2041 20.0615 22.4873 20.2904 22.4808 20.2917C22.4611 20.2982 22.4494 20.3192 22.4559 20.3388C22.4612 20.3545 22.4755 20.365 22.4925 20.365C22.4965 20.365 22.5004 20.365 22.5043 20.3637H22.503Z" fill="white"/>
<path d="M22.8037 21.1341C22.822 21.1419 22.8455 21.1341 22.8534 21.1145C22.8612 21.0948 22.8534 21.0726 22.8338 21.0648C22.6663 20.9915 22.4688 21.0896 22.3746 21.227C22.2713 21.3787 22.2595 21.5723 22.2608 21.7057C22.2634 22.0563 22.3485 22.4055 22.5067 22.7181C22.5133 22.7312 22.5264 22.7391 22.5408 22.7391C22.546 22.7391 22.5525 22.7378 22.5578 22.7351C22.5761 22.726 22.5839 22.7024 22.5748 22.6841C22.4217 22.3833 22.3393 22.0445 22.3367 21.7057C22.3367 21.5841 22.3459 21.4049 22.4374 21.2701C22.5146 21.1576 22.6716 21.0765 22.8037 21.1341Z" fill="white"/>
<path d="M20.4448 31.2009C20.433 31.2074 20.4252 31.2205 20.4252 31.2336C20.4252 31.2388 20.4252 31.7502 20.1937 33.4036C20.1911 33.4246 20.2054 33.4429 20.2264 33.4468C20.2277 33.4468 20.2303 33.4468 20.2316 33.4468C20.2499 33.4468 20.2669 33.4324 20.2695 33.4141C20.4749 31.9425 20.4984 31.3709 20.5011 31.2558C22.0433 30.382 21.9282 28.5272 21.6561 27.0072C21.6522 26.9863 21.6325 26.9719 21.6116 26.9772C21.5907 26.9811 21.5776 27.0007 21.5815 27.0216C21.868 28.6161 21.9569 30.3598 20.4461 31.2009H20.4448Z" fill="white"/>
<path d="M11.7763 31.286C11.7567 31.2938 11.7475 31.3148 11.754 31.3344C11.7593 31.3501 11.7737 31.3592 11.7894 31.3592C11.7933 31.3592 11.7985 31.3592 11.8024 31.3566C12.2616 31.1839 12.6919 30.9969 12.9208 30.6162C13.1327 30.2644 13.1432 29.7922 12.9522 29.1748C12.7756 28.6045 12.5166 28.0642 12.1844 27.5698C12.1726 27.5528 12.1491 27.5476 12.1321 27.5593C12.1151 27.5711 12.1098 27.5946 12.1216 27.6117C12.4499 28.1009 12.705 28.6345 12.879 29.197C13.0634 29.7935 13.0556 30.2448 12.8554 30.577C12.6383 30.9367 12.221 31.1172 11.775 31.286H11.7763Z" fill="white"/>
<path d="M16.9801 31.5476C17.3463 31.5476 17.7139 31.5293 18.0788 31.4901C18.0998 31.4874 18.1141 31.4691 18.1128 31.4482C18.1102 31.4273 18.0932 31.4129 18.071 31.4142C16.3901 31.5908 14.6687 31.3553 13.0965 30.734C13.0768 30.7262 13.0546 30.7353 13.0467 30.7549C13.0389 30.7746 13.0481 30.7968 13.0677 30.8046C14.3103 31.2952 15.6445 31.5476 16.9801 31.5476Z" fill="white"/>
<path d="M14.2592 26.8307C14.3128 26.8307 14.3691 26.8033 14.3887 26.7523C14.4083 26.7012 14.3704 26.6345 14.3168 26.6371C14.3168 26.6371 13.8681 26.577 13.9675 26.7143C13.9989 26.7575 14.0564 26.7719 14.1048 26.7915C14.1546 26.8111 14.2056 26.8321 14.2592 26.8307Z" fill="white"/>
<path d="M14.8785 27.4704C14.9478 27.4599 15.0093 27.401 15.0145 27.3304C15.0185 27.2598 14.9661 27.1564 14.8955 27.1617C14.8955 27.1617 14.698 27.1185 14.6784 27.2205C14.6666 27.2781 14.664 27.3422 14.6914 27.3932C14.7242 27.4547 14.8092 27.4795 14.8785 27.469V27.4704Z" fill="white"/>
<path d="M17.251 27.0988C17.2653 27.0059 17.196 26.9261 17.111 26.8869C17.111 26.8869 16.8324 26.7875 16.7853 26.8581C16.7382 26.9287 16.7526 27.0282 16.8062 27.0949C16.8585 27.1616 16.9423 27.1969 17.026 27.2087C17.1175 27.2217 17.2366 27.189 17.251 27.0975V27.0988Z" fill="white"/>
<path d="M16.0754 28.1806C16.1303 28.1859 16.1931 28.1872 16.231 28.1479C16.3801 27.991 15.9472 27.8497 15.8386 27.8719C15.7575 27.889 15.734 27.94 15.7627 28.0224C15.8072 28.1506 15.9603 28.1702 16.0754 28.1806Z" fill="white"/>
<path d="M18.9901 27.1198C18.9901 27.1198 19.0006 27.0414 18.9286 27.0244C18.8855 27.0139 18.841 27.0126 18.7965 27.0204C18.7534 27.0283 18.7102 27.0505 18.688 27.0884C18.6487 27.1565 18.7024 27.2559 18.7808 27.2611C18.8593 27.2663 18.9731 27.2153 18.9888 27.1198H18.9901Z" fill="white"/>
<path d="M15.9831 27.0086C16.0328 27.0021 16.0812 26.9589 16.076 26.9092C16.072 26.8739 16.0459 26.8451 16.0145 26.8294C15.9831 26.8137 15.8745 26.7732 15.8261 26.7653C15.7816 26.7575 15.7502 26.8177 15.7594 26.8621C15.7686 26.9066 15.8052 26.9393 15.8418 26.9642C15.8837 26.9916 15.9334 27.0139 15.9831 27.0086Z" fill="white"/>
<path d="M13.5058 27.7187C13.5908 27.7475 13.6941 27.673 13.6902 27.5827C13.685 27.4924 13.5843 27.4283 13.494 27.4401C13.4495 27.4453 13.3671 27.4846 13.3828 27.5278V27.5905C13.3841 27.6403 13.4587 27.703 13.5071 27.7187H13.5058Z" fill="white"/>
<path d="M20.7346 22.637C20.9033 22.6972 21.0629 22.7535 21.1296 22.8267C21.3154 23.0334 22.0505 23.7345 22.4965 23.7345C22.5672 23.7345 22.6299 23.7175 22.6823 23.6783C22.6993 23.6652 22.7019 23.6416 22.6901 23.6246C22.677 23.6076 22.6535 23.605 22.6365 23.6168C22.3474 23.8339 21.5351 23.1655 21.1845 22.7757C21.1048 22.6881 20.9452 22.6305 20.7581 22.5651C20.5344 22.4853 20.2794 22.3951 20.1669 22.2381C20.1551 22.2211 20.1303 22.2172 20.1146 22.2289C20.0976 22.2407 20.0936 22.2643 20.1054 22.2813C20.2323 22.4578 20.4978 22.552 20.732 22.6357L20.7346 22.637Z" fill="white"/>
<path d="M11.6186 31.4663L11.9025 29.2766C11.7102 29.3983 11.4355 29.5435 11.2027 29.6782C10.8351 29.8914 10.478 30.1425 10.1392 30.4029C9.97048 30.5337 9.74549 30.7285 9.52051 30.9352C9.52051 30.9352 9.54013 33.0791 9.69448 33.775C9.84883 34.4709 10.0215 35.5919 10.1575 36.017C10.2936 36.4421 10.2256 36.9837 10.2256 37.1956C10.2256 37.4075 9.83968 38.1674 10.1379 38.6253C10.3184 38.9026 10.4597 38.9667 10.7566 38.9824C11.0326 38.9968 11.3295 39.0308 11.4656 39.1472C11.6003 39.2636 12.3067 39.588 12.5473 39.6756C12.7893 39.762 13.3531 39.8614 13.5454 39.8234C13.739 39.7842 14.2347 39.6796 14.032 39.4376C13.8292 39.1956 13.3753 38.9837 13.1425 38.8293C12.911 38.675 12.0699 37.7476 11.9051 37.5056C11.7403 37.2636 11.6055 36.8188 11.5768 36.6645C11.548 36.5101 11.3636 35.6782 11.4028 34.9444C11.442 34.2093 11.616 31.465 11.616 31.465L11.6186 31.4663Z" fill="white"/>
<path d="M9.57693 32.1361C9.90002 32.1858 10.0609 32.2107 10.3343 32.2107C10.4403 32.2107 10.5632 32.2067 10.7189 32.1989C11.0943 32.1806 11.6044 32.0864 11.7352 31.9791C11.7679 31.953 11.7718 31.9046 11.7457 31.8719C11.7195 31.8392 11.6711 31.8352 11.6397 31.8614C11.5665 31.9216 11.144 32.0262 10.7123 32.0471C10.1695 32.072 10.0491 32.055 9.60048 31.9857L9.41343 31.9569C9.37288 31.9504 9.33364 31.9791 9.3271 32.021C9.32056 32.0629 9.34933 32.1008 9.39119 32.1073L9.57824 32.1361H9.57693Z" fill="#343434"/>
<path d="M10.3653 33.5841C10.4661 33.5841 10.5812 33.5815 10.7198 33.5736C11.124 33.554 11.5687 33.4533 11.6904 33.3539C11.7231 33.3277 11.727 33.2793 11.7008 33.2466C11.6747 33.2139 11.6263 33.21 11.5949 33.2362C11.519 33.2976 11.1384 33.401 10.7133 33.4219C10.1874 33.4468 10.0174 33.4219 9.5648 33.3552C9.52425 33.3487 9.48501 33.3774 9.47847 33.4193C9.47193 33.4612 9.5007 33.4991 9.54256 33.5056C9.88789 33.5566 10.071 33.5841 10.3666 33.5841H10.3653Z" fill="#343434"/>
<path d="M10.3121 34.726C10.439 34.726 10.5816 34.7195 10.7647 34.709C11.0656 34.6907 11.4005 34.624 11.5273 34.5573C11.564 34.5377 11.5783 34.4919 11.5587 34.4552C11.5391 34.4173 11.4933 34.4042 11.4567 34.4238C11.3612 34.4736 11.0564 34.5403 10.7556 34.5586C10.2938 34.5874 10.0963 34.5808 9.7523 34.5285C9.71175 34.522 9.67251 34.5507 9.66597 34.5913C9.65943 34.6331 9.68821 34.6711 9.72876 34.6776C9.94851 34.7116 10.1094 34.7273 10.3121 34.7273V34.726Z" fill="#343434"/>
<path d="M10.4693 35.9136C10.5661 35.9136 10.6864 35.907 10.8761 35.8953C11.1979 35.8756 11.4347 35.8037 11.5485 35.7435C11.5851 35.7239 11.5995 35.6781 11.5798 35.6415C11.5602 35.6049 11.5144 35.5905 11.4778 35.6101C11.381 35.6611 11.1639 35.7265 10.8657 35.7448C10.4039 35.7736 10.383 35.771 10.0455 35.7187H10.035C9.99318 35.7108 9.96048 35.7396 9.95393 35.7815C9.94739 35.8233 9.98141 35.8626 10.022 35.8691C10.226 35.9005 10.3202 35.9149 10.468 35.9149L10.4693 35.9136Z" fill="#343434"/>
<path d="M10.2349 37.0766C10.2427 37.0766 10.2506 37.0766 10.2584 37.0727C10.282 37.0649 10.3121 37.0518 10.35 37.0361C10.4716 36.9838 10.6757 36.8974 10.9752 36.853C11.3663 36.7967 11.641 36.7823 11.645 36.7823C11.6868 36.781 11.7195 36.7457 11.7169 36.7038C11.7156 36.662 11.6803 36.624 11.6384 36.6319C11.6266 36.6319 11.3533 36.645 10.9543 36.7038C10.6338 36.7509 10.4193 36.8425 10.2911 36.8974C10.2584 36.9118 10.2323 36.9236 10.2113 36.9301C10.1721 36.9432 10.1499 36.9864 10.1629 37.0256C10.1734 37.057 10.2035 37.0779 10.2349 37.0779V37.0766Z" fill="#343434"/>
<path d="M10.3906 38.8987C10.3958 38.8922 10.9517 38.195 11.4841 37.9752C11.9642 37.7764 12.1447 37.7555 12.146 37.7555C12.1878 37.7515 12.2179 37.7136 12.214 37.673C12.2101 37.6312 12.1721 37.6037 12.1316 37.605C12.1237 37.605 11.9341 37.626 11.4265 37.8366C10.8575 38.072 10.2951 38.7757 10.2715 38.8058C10.2454 38.8385 10.2506 38.8856 10.2833 38.9118C10.2977 38.9222 10.3134 38.9288 10.3304 38.9288C10.3526 38.9288 10.3749 38.9183 10.3893 38.9L10.3906 38.8987Z" fill="#343434"/>
<path d="M11.2521 39.3474C11.2521 39.3474 11.4679 39.0427 11.8734 38.8988C12.2933 38.7484 12.9408 38.6516 12.9473 38.6516C12.9892 38.645 13.0179 38.6071 13.0114 38.5652C13.0049 38.5234 12.9656 38.4959 12.9251 38.5011C12.8976 38.5051 12.2553 38.6005 11.8211 38.7562C11.3724 38.9171 11.1369 39.2467 11.1278 39.2611C11.1042 39.2951 11.1121 39.3422 11.1461 39.3671C11.1592 39.3762 11.1749 39.3814 11.1893 39.3814C11.2128 39.3814 11.2364 39.3697 11.2507 39.3487L11.2521 39.3474Z" fill="#343434"/>
<path d="M12.3536 39.6966C12.3536 39.6966 12.6636 39.4402 13.0115 39.3238C13.3647 39.2061 13.7689 39.1734 13.7728 39.1721C13.8147 39.1695 13.8461 39.1328 13.8422 39.091C13.8395 39.0491 13.8016 39.019 13.7611 39.0216C13.7441 39.023 13.3359 39.0556 12.9631 39.1799C12.5864 39.3055 12.2686 39.5697 12.2555 39.5802C12.2241 39.6077 12.2189 39.6547 12.2463 39.6874C12.262 39.7058 12.283 39.7149 12.3039 39.7149C12.3209 39.7149 12.3379 39.7097 12.3523 39.6979L12.3536 39.6966Z" fill="#343434"/>
<path d="M11.3659 39.6025C11.5843 39.7307 12.5654 40.1074 12.8231 40.1493C12.9539 40.1702 13.1344 40.2003 13.3411 40.2003C13.5987 40.2003 13.897 40.1545 14.1926 39.9923C14.3025 39.9321 14.343 39.7935 14.2815 39.6836C14.2214 39.5737 14.0827 39.5332 13.9728 39.5946C13.6079 39.7961 13.2246 39.7555 12.895 39.7019C12.6988 39.6705 11.7622 39.3095 11.5948 39.2114C11.3947 39.0937 10.4032 38.8477 10.1036 38.7745C9.98198 38.7444 9.85902 38.819 9.82893 38.9419C9.79884 39.0636 9.87341 39.1865 9.99636 39.2166C10.5732 39.3566 11.2599 39.5449 11.3659 39.6038V39.6025Z" fill="#343434"/>
<path d="M11.3097 37.1028C11.5308 37.5305 12.4843 38.6397 12.5327 38.6947L13.0664 39.1551C13.0808 39.1669 13.0978 39.1734 13.1161 39.1734C13.1371 39.1734 13.158 39.1643 13.1737 39.1472C13.2012 39.1159 13.1972 39.0675 13.1658 39.04L12.64 38.5887C12.6295 38.5769 11.6563 37.4468 11.4444 37.0334C11.2561 36.6672 11.1527 35.796 11.1828 34.815C11.209 33.9595 11.1828 32.1008 11.1828 32.0812C11.1828 32.0393 11.1423 32.0014 11.1056 32.0066C11.0638 32.0066 11.0298 32.0419 11.0311 32.0838C11.0311 32.1021 11.0573 33.9582 11.0311 34.8111C11.0075 35.6103 11.0677 36.6319 11.3097 37.1028Z" fill="#343434"/>
<path d="M6.42957 30.5518C6.19543 30.4237 5.96129 30.3046 5.77293 30.2196C5.26017 29.9881 4.62315 29.7068 4.42956 29.6885C4.39294 29.6846 4.355 29.6728 4.31968 29.6584C4.30268 29.9698 4.26998 30.7886 4.32753 31.6702C4.40078 32.7912 4.8259 34.8213 5.05743 35.3616C5.28895 35.9031 5.55318 36.824 5.57934 37.185C5.6055 37.546 5.43807 38.3321 5.37266 38.6408C5.30857 38.9495 5.12806 39.4911 5.14114 39.6454C5.15422 39.7998 5.18039 40.1608 5.41191 40.2118C5.64344 40.2628 6.03716 40.2563 6.32624 40.2759C6.61663 40.2955 7.00904 40.3086 7.08622 40.2118C7.16339 40.115 7.08622 39.6507 7.06006 39.5617C7.03389 39.4715 6.82853 38.3635 6.76312 38.132C6.69903 37.9005 6.49236 36.8881 6.47274 36.6827C6.45312 36.476 6.29877 35.3367 6.31839 34.6918C6.33409 34.149 6.40603 31.4086 6.42826 30.5532L6.42957 30.5518Z" fill="white"/>
<path d="M4.40604 32.1359C4.72913 32.1856 4.89002 32.2104 5.1634 32.2104C5.26936 32.2104 5.39231 32.2065 5.54797 32.1986C5.92338 32.1803 6.43353 32.0862 6.56433 31.9789C6.59703 31.9527 6.60095 31.9043 6.57479 31.8716C6.54863 31.8389 6.50023 31.835 6.46884 31.8612C6.39559 31.9213 5.97309 32.026 5.54143 32.0469C4.99859 32.0718 4.87825 32.0548 4.42959 31.9854L4.24254 31.9566C4.20068 31.9501 4.16274 31.9789 4.1562 32.0208C4.14966 32.0626 4.17844 32.1005 4.22029 32.1071L4.40735 32.1359H4.40604Z" fill="#343434"/>
<path d="M4.5769 33.5577C4.87514 33.6074 5.02295 33.6323 5.27409 33.6323C5.37089 33.6323 5.48469 33.6283 5.62858 33.6205C5.97521 33.6022 6.4448 33.5067 6.56645 33.3981C6.59784 33.3706 6.60046 33.3223 6.573 33.2909C6.54553 33.2595 6.49713 33.2568 6.46573 33.2843C6.39902 33.3445 6.01445 33.4478 5.62073 33.4688C5.12498 33.4936 5.0138 33.4766 4.60176 33.4073L4.42909 33.3785C4.38854 33.372 4.3493 33.3994 4.34276 33.4413C4.33622 33.4831 4.36369 33.5211 4.40555 33.5276L4.5769 33.5564V33.5577Z" fill="#343434"/>
<path d="M4.92022 34.854C5.14782 34.9011 5.26031 34.9234 5.4526 34.9234C5.52716 34.9234 5.61349 34.9194 5.72337 34.9129C5.99544 34.8959 6.35123 34.8056 6.44802 34.701C6.4768 34.6696 6.47419 34.6225 6.44279 34.5937C6.4114 34.5663 6.36431 34.5676 6.33553 34.599C6.28844 34.65 5.99936 34.7442 5.7129 34.7625C5.34141 34.786 5.259 34.769 4.9503 34.7062L4.82081 34.6801C4.78026 34.6722 4.73971 34.6984 4.73186 34.7389C4.72401 34.7795 4.75017 34.82 4.79072 34.8279L4.92022 34.854Z" fill="#343434"/>
<path d="M5.54051 36.1124C5.65562 36.1124 5.79035 36.1033 5.97348 36.0902C6.23901 36.0706 6.44438 35.9921 6.51632 35.9437C6.55033 35.9201 6.56079 35.8731 6.53725 35.8391C6.5137 35.8037 6.46661 35.7959 6.4326 35.8181C6.38551 35.8508 6.20762 35.9215 5.96432 35.9398C5.58498 35.9673 5.42278 35.9751 5.21742 35.9228C5.17556 35.911 5.13502 35.9358 5.12455 35.9764C5.11409 36.0169 5.13763 36.0588 5.17818 36.0693C5.30113 36.102 5.40709 36.1137 5.54051 36.1137V36.1124Z" fill="#343434"/>
<path d="M5.67322 37.1509C6.00808 37.1509 6.57185 37.0698 6.64771 37.0188C6.68303 36.9952 6.6935 36.9468 6.67127 36.9128C6.64772 36.8775 6.60324 36.867 6.56793 36.8906C6.48683 36.9285 5.71246 37.0397 5.51625 36.9887C5.4757 36.9769 5.43384 37.0018 5.42338 37.0423C5.41291 37.0829 5.43646 37.1247 5.47701 37.1352C5.52018 37.147 5.5895 37.1522 5.67191 37.1522L5.67322 37.1509Z" fill="#343434"/>
<path d="M5.46631 38.2694C5.51079 38.2145 5.89535 38.1268 6.18181 38.1229C6.39372 38.1138 6.6985 38.1936 6.82799 38.3204C6.84238 38.3348 6.86201 38.3414 6.88032 38.3414C6.89863 38.3414 6.91956 38.3335 6.93395 38.3191C6.96272 38.289 6.96272 38.2406 6.93395 38.2119C6.76782 38.0497 6.41596 37.9659 6.18051 37.9712C6.02747 37.9738 5.45193 38.0301 5.34467 38.1818C5.32112 38.2158 5.32897 38.2603 5.36167 38.2838C5.39437 38.3087 5.44146 38.3008 5.46762 38.2694H5.46631Z" fill="#343434"/>
<path d="M5.21555 39.2059C5.50201 38.8868 6.21097 38.9443 6.47781 38.9666C6.65571 38.981 6.88855 39.1039 6.98796 39.168C7.02328 39.1902 7.07036 39.1811 7.0926 39.1445C7.11484 39.1091 7.10437 39.062 7.06906 39.0398C7.03636 39.0189 6.74466 38.8358 6.48959 38.8161C6.20313 38.7926 5.43922 38.7298 5.10305 39.1052C5.07558 39.1366 5.0782 39.1837 5.10829 39.2125C5.12267 39.2255 5.14099 39.2321 5.1593 39.2321C5.18023 39.2321 5.20116 39.2242 5.21555 39.2072V39.2059Z" fill="#343434"/>
<path d="M5.16053 39.7762C5.37112 39.6532 5.67328 39.5721 5.9689 39.559C6.59154 39.5329 7.02974 39.7186 7.14485 39.7932C7.15793 39.801 7.17232 39.8049 7.1854 39.8049C7.21025 39.8049 7.2351 39.7932 7.24949 39.7696C7.27173 39.7343 7.26258 39.6872 7.22726 39.665C7.06898 39.563 6.602 39.3772 5.96236 39.4073C5.63797 39.4217 5.31881 39.508 5.08467 39.6454C5.04804 39.6663 5.03626 39.7134 5.05719 39.7487C5.07812 39.7853 5.12521 39.7971 5.16053 39.7762Z" fill="#343434"/>
<path d="M7.12011 40.6578C7.24568 40.6578 7.34771 40.5558 7.34771 40.4302C7.34771 40.3047 7.24568 40.2026 7.12011 40.2026H5.28229C5.15671 40.2026 5.05469 40.3047 5.05469 40.4302C5.05469 40.5558 5.15671 40.6578 5.28229 40.6578H7.12011Z" fill="#343434"/>
<path d="M5.95476 36.4355C5.90636 35.9346 5.16339 32.2916 5.132 32.1373C5.12415 32.0967 5.08229 32.0693 5.04305 32.0784C5.0025 32.0863 4.97503 32.1268 4.98419 32.1674C4.99204 32.2053 5.75725 35.9581 5.80434 36.4499C5.85274 36.9548 5.82134 37.3407 5.80434 37.5474C5.80303 37.567 5.65261 39.5265 5.87759 39.5474C5.88021 39.5474 5.88413 39.5474 5.88675 39.5474C5.96131 39.5474 5.97177 39.4571 5.97439 39.4271C5.97831 39.3944 5.96 39.3643 5.93253 39.3512C5.90637 39.1341 5.87759 38.5206 5.95607 37.5605C5.97308 37.3486 6.00578 36.9548 5.95607 36.4355H5.95476Z" fill="#343434"/>
<path d="M5.18545 39.8232C5.27963 39.7801 5.39081 39.8102 5.50723 39.8481C5.51115 39.8494 5.51508 39.8494 5.51901 39.8494C5.52816 39.8494 5.53731 39.8468 5.54385 39.8402C5.6171 39.7748 5.7309 39.7657 5.81462 39.8167C5.82378 39.8233 5.83555 39.8245 5.84732 39.8206C5.85778 39.8167 5.86694 39.8089 5.87086 39.7984C5.8774 39.7814 5.89442 39.767 5.91796 39.7605C5.94281 39.7526 5.97028 39.7526 6.00037 39.7539C6.06969 39.7539 6.14163 39.7591 6.18218 39.8036C6.19134 39.8141 6.20573 39.818 6.21881 39.8141C6.23189 39.8102 6.24236 39.7997 6.24628 39.7866C6.25152 39.7644 6.27506 39.7513 6.29337 39.7474C6.32084 39.7395 6.35223 39.7435 6.38232 39.7474C6.41763 39.7513 6.45295 39.7539 6.48434 39.767C6.51443 39.7788 6.53667 39.7997 6.54582 39.8219C6.55106 39.8363 6.56545 39.8455 6.58114 39.8455C6.59684 39.8455 6.60992 39.8363 6.61646 39.8219C6.64131 39.7631 6.71979 39.7422 6.76296 39.7343C6.84798 39.7199 6.93693 39.7265 7.01934 39.75C7.04027 39.7565 7.06119 39.7448 7.06643 39.7251C7.07297 39.7055 7.06119 39.6846 7.04157 39.678C6.9487 39.6506 6.84799 39.644 6.75119 39.6597C6.67663 39.6715 6.61908 39.699 6.58114 39.7395C6.56283 39.7212 6.53928 39.7055 6.51312 39.6951C6.47257 39.6781 6.42941 39.6741 6.39147 39.6702C6.35747 39.6663 6.31561 39.6623 6.27506 39.6728C6.24497 39.6807 6.21881 39.6977 6.2005 39.7186C6.14294 39.6833 6.0723 39.678 6.00167 39.6767C5.96897 39.6767 5.93234 39.6767 5.89703 39.6872C5.86694 39.6964 5.84209 39.7134 5.82378 39.7343C5.72436 39.6898 5.60141 39.7016 5.51377 39.7683C5.41566 39.7369 5.2757 39.6977 5.15667 39.7539C5.13836 39.7631 5.1292 39.7853 5.13836 39.8036C5.14751 39.8219 5.16975 39.8311 5.18806 39.8219L5.18545 39.8232Z" fill="#343434"/>
<path d="M13.6426 10.6746C13.7433 10.7165 14.3045 10.8068 14.8395 10.7819C15.3732 10.7571 16.4144 10.4248 16.9546 10.2626C17.4948 10.1004 17.8572 10.4366 18.1855 10.3947C18.5138 10.3529 18.8644 10.1645 18.8644 10.1645L17.8428 8.54121C17.8428 8.54121 16.6838 8.97548 16.3097 8.98463C15.9369 8.99379 15.0475 8.97025 14.5687 9.00164C14.09 9.03303 14.0115 9.17169 14.0115 9.17169C14.0115 9.17169 11.4582 6.85774 11.3221 6.76094C11.071 6.58305 10.5242 6.39077 10.3398 6.48103C10.2064 6.54643 10.4379 7.51307 10.6917 7.93819C10.9166 8.31491 10.9467 8.92839 11.0723 9.32996C11.1861 9.41106 13.5419 10.6341 13.6439 10.676L13.6426 10.6746Z" fill="white"/>
<path d="M11.0249 7.61782C10.9228 7.37583 10.6534 6.52298 10.6534 6.52298L10.5723 6.50073C10.741 7.07235 11.1727 8.93502 11.2433 9.42424C11.3349 9.46479 11.4107 9.51449 11.4107 9.51449C11.4107 9.51449 11.293 8.25484 11.0249 7.61782Z" fill="white"/>
<path d="M13.7301 9.42144C13.7301 9.42144 13.9106 9.23177 14.0624 9.16767C14.082 9.15983 14.0912 9.13759 14.0833 9.11797C14.0755 9.09835 14.0532 9.08919 14.0336 9.09704C13.8662 9.16637 13.683 9.35996 13.6752 9.36781C13.6608 9.38351 13.6621 9.40705 13.6765 9.42144C13.6844 9.42798 13.6935 9.4319 13.7027 9.4319C13.7131 9.4319 13.7223 9.42798 13.7301 9.42013V9.42144Z" fill="#343434"/>
<path d="M4.71771 2.21948L4.36192 2.78848L3.74191 2.75578L4.00744 3.37318L3.30501 2.15015L3.01724 2.75709L2.7661 2.77278L2.71639 2.70346L2.69023 2.77802L2.39853 2.79633L2.57382 3.10241L2.4901 3.33524L1.87793 3.43597L2.71508 4.60406L3.34687 4.6433L5.03164 6.90493C5.04603 6.92455 5.06958 6.93501 5.09182 6.93501C5.10751 6.93501 5.12321 6.92978 5.1376 6.92062C5.17161 6.89577 5.17815 6.84868 5.15329 6.81467L3.46591 4.54912L3.55355 4.11354L3.73798 4.14363L5.18992 6.56222C5.20431 6.58576 5.22916 6.59884 5.25532 6.59884C5.26841 6.59884 5.28148 6.59492 5.29456 6.58838C5.32988 6.56745 5.34166 6.52036 5.32073 6.48504L3.86747 4.06252L4.0493 3.47259L4.3096 4.07822L4.91784 4.25088L6.08071 6.8199C6.09379 6.84737 6.12125 6.86438 6.15003 6.86438C6.16049 6.86438 6.17096 6.86176 6.18142 6.85784C6.21935 6.84083 6.23636 6.79636 6.21936 6.75712L5.05519 4.18418L5.31157 3.6034L4.71771 2.22079V2.21948Z" fill="#343434"/>
<path d="M6.18133 6.54905C5.89879 6.69948 6.17872 8.19982 6.19442 8.19458C6.27813 8.1645 8.06494 10.914 8.32132 10.8552C8.82492 10.7401 9.66992 7.0435 9.90406 6.9467C8.71896 6.60792 8.56723 6.62623 8.42596 6.37116C8.14473 5.86494 8.10941 5.54708 8.14603 4.95584C8.15388 4.82896 7.27618 5.11019 6.92824 4.8355C6.76211 4.70339 6.62084 4.56212 6.62346 4.74394C6.63261 5.36788 6.70848 6.27044 6.18264 6.54905H6.18133Z" fill="white"/>
<path d="M4.01904 24.8907C4.418 24.7809 4.63121 24.7678 4.68877 24.5559C4.74632 24.3427 4.02428 23.7227 3.56122 23.567C3.50105 23.5474 3.44088 23.5291 3.3794 23.5107C3.36371 23.5068 3.3467 23.5029 3.33101 23.4977C3.28522 23.4846 3.23944 23.4728 3.19235 23.4624C3.17796 23.4584 3.16357 23.4558 3.14918 23.4519C3.10079 23.4401 3.05239 23.4296 3.00399 23.4192C2.99614 23.4179 2.9883 23.4166 2.97914 23.4139C2.92551 23.4022 2.87188 23.3917 2.81956 23.3826C2.81956 23.3826 2.65866 24.3819 2.60111 25.0765C2.54356 25.7724 2.57496 27.5252 2.57496 27.5252C2.57496 27.5252 2.61027 27.4153 3.1518 27.4258C3.69334 27.4349 4.28196 27.6481 4.28196 27.6481C4.28196 27.6481 4.82218 27.7776 4.83265 28.0785C4.85227 28.6579 4.12238 28.6344 4.05959 29.2714C4.03866 29.482 4.23356 29.6678 4.42716 29.6874C4.62075 29.707 5.25777 29.9869 5.77053 30.2184C6.28329 30.45 7.12698 30.9235 7.39382 31.1851C7.66066 31.4454 8.15773 32.1517 8.15773 32.1517C8.15773 32.1517 8.56322 31.881 8.90201 31.533C9.24079 31.1851 9.80064 30.6632 10.1394 30.4029C10.4782 30.1426 10.8353 29.8901 11.2029 29.6782C11.5704 29.465 12.044 29.2243 12.1303 29.0987C12.2166 28.9732 12.1813 28.6606 12.1159 28.5768C11.9131 28.3205 11.6136 28.4029 11.42 28.1426C11.2264 27.8823 12.0139 27.5631 12.3723 27.3695C12.7294 27.1759 13.229 26.8855 13.2447 26.6448C13.2604 26.4042 12.9805 26.2014 12.9805 25.9306C12.9805 25.6599 13.2029 25.6115 13.386 25.6887C13.5691 25.7658 13.6856 25.8338 13.6856 25.8338C13.6856 25.8338 13.4606 25.2727 13.335 25.015C13.0132 24.3584 12.7778 23.5814 12.6208 23.0647C12.6025 23.0647 12.5829 23.0686 12.5646 23.0712C12.1852 23.1301 11.5574 23.533 11.5574 23.7724C11.5574 23.8835 11.5508 23.9542 11.5574 24.0052C11.5887 24.0719 11.6358 24.1281 11.6986 24.1595C11.8791 24.2498 12.0858 24.4303 12.0858 24.4944C12.0858 24.5585 11.9694 24.7521 11.3389 24.9326C10.7594 25.0987 10.1931 25.4467 10.1041 25.7122C10.1107 25.8325 10.2009 25.9136 10.3278 25.979C10.6286 26.0981 11.1061 26.2001 11.1061 26.518C11.1061 26.9823 11.0027 27.0464 10.371 27.5879C9.73916 28.1295 9.06944 29.3015 8.88892 29.6115C8.70841 29.9202 8.47689 30.5141 8.28329 30.6422C8.0897 30.7717 7.96544 30.692 7.96544 30.692C7.96544 30.692 8.05177 30.4173 8.08971 29.9791C8.12895 29.5409 8.00599 29.2322 7.69075 28.9287C7.37551 28.6265 6.78819 28.2838 6.45333 28.0261C6.11847 27.7685 5.66719 27.6651 5.60963 27.4205C5.55208 27.1759 5.67373 27.1053 5.88694 26.9562C6.10015 26.8083 6.32514 26.6658 6.12501 26.5507C5.92487 26.4342 5.27477 26.2995 4.86928 26.0798C4.46378 25.8613 3.81237 25.8286 3.70904 25.5513C3.6057 25.274 3.61878 25.0032 4.01773 24.8947L4.01904 24.8907Z" fill="#343434"/>
<path d="M5.41388 14.1567C5.41388 14.1567 5.00839 14.659 4.6696 15.075C4.33081 15.4909 3.91617 16.5832 3.74219 17.1051C3.56822 17.627 3.00183 19.8664 2.87887 20.3033C2.75592 20.7415 1.95801 23.2019 1.95801 23.2019C1.95801 23.2019 2.01556 23.2464 2.28633 23.2922C2.5571 23.3366 3.09732 23.4125 3.56168 23.5669C4.02604 23.7212 4.74809 24.3425 4.68922 24.5558C4.63167 24.769 4.41846 24.7807 4.0195 24.8906C3.62055 25.0005 3.60747 25.2713 3.7108 25.5473C3.81414 25.8246 4.46424 25.856 4.87105 26.0757C5.27654 26.2942 5.92795 26.4302 6.12677 26.5466C6.32691 26.663 6.10061 26.8043 5.88871 26.9521C5.67549 27.0999 5.55385 27.1706 5.6114 27.4165C5.66895 27.6611 6.12023 27.7644 6.4551 28.0221C6.78996 28.2798 7.37597 28.6212 7.69252 28.9246C8.00776 29.2281 8.13071 29.5368 8.09147 29.975C8.05223 30.4132 7.96721 30.6879 7.96721 30.6879C7.96721 30.6879 8.09147 30.7677 8.28506 30.6395C8.47865 30.51 8.71018 29.9175 8.89069 29.6088C9.0712 29.3001 9.74093 28.1267 10.3727 27.5852C11.0045 27.0437 11.1078 26.9796 11.1078 26.5152C11.1078 26.0509 10.0915 26.0482 10.0915 25.7788C10.0915 25.5093 10.7076 25.1117 11.3394 24.9312C11.9712 24.7507 12.0863 24.5571 12.0863 24.493C12.0863 24.4289 11.8796 24.2484 11.6991 24.1581C11.5186 24.0678 11.5578 24.0286 11.5578 23.7709C11.5578 23.5132 12.2916 23.062 12.6527 23.062C13.0137 23.062 13.2452 22.6748 13.2452 22.6748L13.0647 21.7984C13.0647 21.7984 12.0339 18.2339 11.5186 16.799C10.9038 15.0854 10.4355 13.8873 10.4355 13.8873L10.4865 12.2627L8.16734 10.124C8.16734 10.124 8.07708 10.0207 7.84425 9.74989C7.61272 9.47913 6.99401 8.58965 6.61467 7.6884C6.23534 6.78584 6.24581 6.1933 6.24581 6.1933L5.93187 6.13574L5.68596 6.41305L5.20329 6.30317C5.20329 6.30317 4.91944 6.49022 4.90113 6.48368C4.88151 6.47714 4.6042 6.49023 4.6042 6.49023C4.6042 6.49023 4.40015 7.61646 4.38053 7.83621C4.22487 9.52753 4.44331 10.3817 4.48255 10.7165C4.52179 11.0514 5.50153 12.4824 5.50153 12.4824C5.50153 12.4824 5.65456 13.088 5.57608 13.6544C5.4976 14.2208 5.41257 14.1567 5.41257 14.1567H5.41388Z" fill="#343434"/>
<path d="M8.40025 9.71194C8.26552 10.3503 7.75407 11.3902 7.55001 11.9539C7.41397 12.3281 6.74817 14.4759 6.53496 15.0266C6.32175 15.5773 5.99343 16.3987 5.95549 16.8827C5.91625 17.3654 5.97512 19.521 5.87832 19.7238C5.78153 19.9265 5.64941 23.007 5.64941 23.007C5.64941 23.007 5.82861 22.8291 5.98035 22.7388C6.20272 22.6054 6.41593 22.7022 6.48656 22.7729C6.5572 22.8435 6.88552 23.2595 6.97577 23.4269C7.06603 23.5943 7.26878 23.784 7.45191 23.7042C7.63504 23.6244 7.50684 23.2398 7.6455 23.1234C7.78415 23.007 7.92281 23.1077 8.06408 23.2948C8.20535 23.4818 8.30869 23.5917 8.69849 23.682C9.08829 23.7722 9.30673 23.2241 8.75604 22.9351C8.26945 22.6787 8.35708 22.6054 8.40809 22.4851C8.45911 22.3661 8.74688 22.3111 9.07128 22.3543C9.30804 22.3857 9.49639 22.4799 9.72138 22.4799C9.94636 22.4799 9.87443 22.1607 9.87443 22.1607C9.87443 22.1607 9.73054 20.9337 9.68214 20.731C9.63374 20.5282 9.50817 19.0488 9.47939 18.0835C9.45061 17.1168 9.87443 14.1816 9.89928 13.8729C9.93329 13.4582 10.2904 12.2169 10.2904 12.2169C10.2904 12.2169 10.9771 11.0671 11.121 10.8159C11.2662 10.5648 11.2858 9.56021 11.189 8.89311C11.0922 8.226 10.5219 6.35155 10.5219 6.35155L10.0575 6.45751L9.6926 6.29924C9.6926 6.29924 9.31327 6.4392 9.22956 6.45751C9.14584 6.47583 8.88815 6.13965 8.88815 6.13965L8.46958 6.40911C8.46958 6.40911 8.75211 7.19394 8.73249 7.657C8.69848 8.502 8.52975 9.07754 8.39371 9.71587L8.40025 9.71194Z" fill="#343434"/>
<path d="M5.68124 9.58123C5.68778 9.58123 5.69562 9.57992 5.70086 9.57469C5.71786 9.56422 5.7244 9.54068 5.71263 9.52237C5.41832 9.05671 5.20249 8.48508 5.07168 7.82059C4.91864 7.04361 4.91864 6.87879 4.91864 6.54916C4.91864 6.52823 4.90163 6.51123 4.8807 6.51123C4.85978 6.51123 4.84277 6.52823 4.84277 6.54916C4.84277 6.87356 4.84277 7.05146 4.99843 7.83498C5.13185 8.50863 5.3503 9.08941 5.64984 9.56292C5.65638 9.57469 5.66947 9.57993 5.68124 9.57993V9.58123Z" fill="white"/>
<path d="M5.98747 7.6375C5.98747 7.6375 5.99793 7.63751 6.00316 7.63358C6.02279 7.62443 6.03064 7.60219 6.02148 7.58388C5.86451 7.23463 5.7481 6.86706 5.67877 6.48904C5.67485 6.46811 5.65522 6.45502 5.63429 6.45895C5.61336 6.46287 5.60029 6.48249 5.60421 6.50342C5.67484 6.88668 5.79257 7.26079 5.95215 7.61527C5.95869 7.62966 5.97177 7.6375 5.98616 7.6375H5.98747Z" fill="white"/>
<path d="M9.39386 8.37002H9.39648C9.4161 8.37002 9.4331 8.35563 9.43441 8.33601C9.48673 7.72384 9.43964 7.11167 9.29706 6.51519C9.29183 6.49557 9.27222 6.4825 9.25129 6.48773C9.23167 6.49296 9.21858 6.51258 9.22381 6.53351C9.36508 7.12213 9.40956 7.72645 9.35855 8.33077C9.35724 8.3517 9.37294 8.37001 9.39256 8.37132L9.39386 8.37002Z" fill="white"/>
<path d="M10.0267 8.13851C10.0267 8.13851 10.0306 8.13851 10.0332 8.13851C10.0516 8.13851 10.0673 8.12543 10.0712 8.10711C10.1392 7.68331 10.1601 6.88408 10.0202 6.55053C10.0123 6.53091 9.99008 6.52176 9.97046 6.53091C9.95084 6.53876 9.94168 6.56099 9.95083 6.58061C10.0803 6.88931 10.0646 7.67022 9.99662 8.09534C9.994 8.11627 10.0071 8.13589 10.028 8.13851H10.0267Z" fill="white"/>
<path d="M5.57397 11.4621C5.78456 11.8689 6.09457 12.2247 6.46998 12.4876C6.47652 12.4929 6.48437 12.4942 6.49222 12.4942C6.50399 12.4942 6.51576 12.4889 6.52361 12.4785C6.53538 12.4615 6.53146 12.4379 6.51446 12.4261C6.14951 12.1698 5.84735 11.8231 5.64198 11.4268C5.61451 11.3732 5.58835 11.3182 5.56219 11.2646C5.49156 11.1168 5.41831 10.9637 5.31236 10.8329C5.29928 10.8172 5.27573 10.8146 5.25872 10.8277C5.24303 10.8408 5.24041 10.8643 5.25349 10.8813C5.35421 11.0056 5.42485 11.1547 5.49287 11.2986C5.51903 11.3535 5.54519 11.4085 5.57397 11.4634V11.4621Z" fill="white"/>
<path d="M6.62896 11.8586C6.74276 12.0784 6.89188 12.3256 7.1234 12.4812C7.12994 12.4852 7.13779 12.4878 7.14433 12.4878C7.15611 12.4878 7.16788 12.4812 7.17573 12.4708C7.1875 12.4538 7.18226 12.4302 7.16526 12.4185C6.94812 12.272 6.80555 12.0352 6.69567 11.8233C6.67082 11.7749 6.64596 11.7265 6.62241 11.6781C6.52954 11.4937 6.43406 11.3027 6.30064 11.1379C6.28756 11.1222 6.26401 11.1196 6.247 11.1326C6.23131 11.1457 6.22869 11.1693 6.24177 11.1863C6.36996 11.3432 6.46415 11.5303 6.5544 11.7121C6.57925 11.7605 6.6028 11.8102 6.62896 11.8586Z" fill="white"/>
<path d="M8.156 12.268C8.49087 11.8428 8.87412 11.1365 9.05071 10.6251C9.05725 10.6054 9.04679 10.5832 9.02716 10.5767C9.00885 10.5701 8.98531 10.5806 8.97877 10.6002C8.8061 11.1051 8.42677 11.8023 8.09714 12.2209C8.08406 12.2379 8.08667 12.2614 8.10368 12.2745C8.11022 12.2797 8.11937 12.2824 8.12722 12.2824C8.139 12.2824 8.14947 12.2771 8.15731 12.268H8.156Z" fill="white"/>
<path d="M8.744 12.2235C9.07232 11.8546 9.31824 11.5145 9.53014 10.9573C9.53799 10.9376 9.52753 10.9154 9.50791 10.9089C9.48829 10.901 9.46604 10.9115 9.4595 10.9311C9.25152 11.4766 9.00954 11.8114 8.68776 12.1738C8.67337 12.1895 8.67468 12.213 8.69037 12.2274C8.69822 12.2339 8.70606 12.2365 8.71522 12.2365C8.72568 12.2365 8.73615 12.2326 8.744 12.2235Z" fill="white"/>
<path d="M7.60029 15.1234C7.61729 15.1234 7.63298 15.1116 7.63691 15.0946C7.74417 14.6394 8.15621 13.6806 8.16013 13.6701C8.16798 13.6505 8.16013 13.6283 8.14051 13.6204C8.12089 13.6126 8.09866 13.6204 8.09081 13.6401C8.0738 13.6793 7.67223 14.6146 7.56366 15.0763C7.55843 15.0972 7.57151 15.1169 7.59113 15.1221C7.59375 15.1221 7.59767 15.1221 7.60029 15.1221V15.1234Z" fill="white"/>
<path d="M7.93558 16.1018C7.95258 16.1018 7.96827 16.09 7.9722 16.0717C7.9722 16.0678 8.06376 15.6662 8.2168 15.0933C8.36854 14.523 8.67593 13.7918 8.67855 13.7839C8.6864 13.7643 8.67855 13.7421 8.65893 13.7342C8.63931 13.7264 8.61707 13.7342 8.60922 13.7538C8.6066 13.7617 8.29659 14.4968 8.14355 15.0737C7.99051 15.6479 7.89895 16.0508 7.89764 16.0547C7.89241 16.0743 7.90549 16.0952 7.92642 16.1005C7.92904 16.1005 7.93165 16.1005 7.93427 16.1005L7.93558 16.1018Z" fill="white"/>
<path d="M6.32535 21.6952C6.34367 21.6952 6.36067 21.6808 6.36329 21.6625C6.36459 21.6507 6.51764 20.5402 6.5438 20.3884C6.56996 20.2341 6.68638 18.0352 6.71123 17.291C6.73609 16.5558 7.04217 15.2622 7.04478 15.2491C7.05002 15.2295 7.03693 15.2085 7.01731 15.2033C6.99638 15.1981 6.97677 15.2112 6.97153 15.2308C6.96892 15.2439 6.66152 16.5441 6.63536 17.287C6.6092 18.0287 6.49409 20.221 6.46793 20.374C6.44308 20.5271 6.29396 21.6049 6.28742 21.6507C6.2848 21.6716 6.29919 21.6899 6.32012 21.6939C6.32143 21.6939 6.32405 21.6939 6.32535 21.6939V21.6952Z" fill="white"/>
<path d="M7.90116 17.4739C7.90377 17.453 7.89069 17.4334 7.86976 17.4308C7.84753 17.4269 7.82921 17.4426 7.8266 17.4622C7.82398 17.4766 7.60161 18.9704 7.56368 19.9527L7.44727 22.9298L7.52313 22.9325L7.63955 19.9553C7.67748 18.9769 7.89985 17.487 7.90116 17.4726V17.4739Z" fill="white"/>
<path d="M8.21791 18.2837C8.21921 18.2628 8.20482 18.2445 8.1839 18.2432C8.16427 18.2406 8.14465 18.2576 8.14335 18.2772C8.14073 18.3021 7.92359 20.8227 7.89874 21.3838C7.87389 21.9463 7.89874 22.7834 7.89874 22.7913C7.89874 22.8122 7.91575 22.8279 7.93668 22.8279C7.95761 22.8279 7.9733 22.8096 7.9733 22.7887C7.9733 22.7808 7.94845 21.9463 7.9733 21.3877C7.99815 20.8279 8.21529 18.3086 8.21791 18.2837Z" fill="white"/>
<path d="M8.4129 21.7658C8.41029 21.7789 8.41422 21.7906 8.42337 21.7998C8.43253 21.809 8.4443 21.8116 8.45738 21.8103C8.46131 21.8103 8.84588 21.7318 9.17027 21.7815C9.49205 21.8312 9.76805 21.9541 9.87139 22.0954C9.87924 22.1059 9.8897 22.1111 9.90147 22.1111C9.90932 22.1111 9.91717 22.1085 9.92371 22.1033C9.94072 22.0902 9.94464 22.0666 9.93156 22.0509C9.81384 21.8927 9.52607 21.7606 9.18074 21.7069C8.9139 21.6664 8.61565 21.7069 8.49531 21.7265C8.51886 21.584 8.58296 21.1798 8.6065 20.7965C8.6222 20.5349 8.61565 20.1399 8.60911 19.7213C8.60388 19.3838 8.59865 19.0346 8.6065 18.7599C8.62351 18.1045 8.7517 16.8488 8.95052 16.1922C9.15458 15.5172 9.65425 14.0182 9.65948 14.0025C9.66602 13.9829 9.65556 13.9606 9.63594 13.9541C9.61632 13.9476 9.59539 13.958 9.58754 13.9776C9.58231 13.9933 9.08263 15.4937 8.87857 16.1686C8.67844 16.8305 8.54895 18.0967 8.53194 18.756C8.5254 19.032 8.53064 19.3825 8.53456 19.7213C8.5411 20.1386 8.54633 20.5323 8.53194 20.7913C8.50447 21.2609 8.41421 21.7619 8.4129 21.7658Z" fill="white"/>
<path d="M10.1214 25.5212C10.1188 25.5422 10.1319 25.5618 10.1528 25.5644C10.1554 25.5644 10.1567 25.5644 10.1594 25.5644C10.1777 25.5644 10.1934 25.5513 10.1973 25.533C10.2012 25.5042 10.663 22.6357 10.7781 21.6612C10.8932 20.684 10.7794 18.4682 10.7781 18.446C10.7781 18.425 10.7585 18.412 10.7388 18.4106C10.7179 18.4106 10.7022 18.429 10.7035 18.4499C10.7035 18.4721 10.8186 20.6801 10.7035 21.652C10.5884 22.6252 10.128 25.4925 10.1227 25.5212H10.1214Z" fill="white"/>
<path d="M11.5898 23.699C11.6108 23.699 11.6264 23.6833 11.6278 23.6624C11.6278 23.6336 11.7206 20.8095 11.5859 19.6414C11.4485 18.4485 11.3923 18.0325 11.3518 17.9279C11.3439 17.9083 11.323 17.8991 11.302 17.9057C11.2824 17.9135 11.2733 17.9357 11.2811 17.9554C11.3177 18.0509 11.3779 18.4943 11.5113 19.6506C11.6448 20.8135 11.5532 23.6323 11.5519 23.6598C11.5519 23.6807 11.5676 23.6977 11.5885 23.699H11.5898Z" fill="white"/>
<path d="M6.202 26.6813C6.22162 26.6813 6.23862 26.6656 6.23993 26.6447L6.36289 23.7238C6.36289 23.7029 6.3472 23.6846 6.32627 23.6846H6.32496C6.30534 23.6846 6.28833 23.7003 6.28702 23.7212L6.16406 26.6421C6.16406 26.663 6.17976 26.6813 6.20069 26.6813H6.202Z" fill="white"/>
<path d="M5.41133 19.8088C5.41918 19.8023 5.4231 19.7918 5.4231 19.7813C5.4231 19.7604 5.4061 19.7434 5.38517 19.7434C5.3407 19.7434 5.31454 19.7434 5.09217 21.1339C4.97837 21.8455 4.86849 22.5923 4.84494 22.7859C4.79654 23.198 4.65527 24.3713 4.65527 24.3713L4.72983 24.3805C4.72983 24.3805 4.87241 23.2071 4.9195 22.7951C4.9679 22.3804 5.33808 19.9684 5.41002 19.8101L5.41133 19.8088Z" fill="white"/>
<path d="M2.96355 27.3956C2.78435 27.41 2.67709 27.4466 2.63785 27.4584C2.57637 27.4767 2.5659 27.5709 2.5659 27.5709C2.5659 27.5709 2.50443 27.822 3.00018 27.9319C3.49593 28.0418 4.09502 28.5885 4.09502 28.5885L4.32523 27.6245C4.32523 27.6245 3.94067 27.4937 3.69868 27.4558C3.45669 27.4178 3.06688 27.3864 2.96224 27.3943L2.96355 27.3956Z" fill="#343434"/>
<path d="M12.0818 24.4799L12.0845 24.4825L12.0426 23.2751C11.781 23.4269 11.5573 23.6283 11.5573 23.7696C11.5573 24.0273 11.5181 24.0665 11.6986 24.1568C11.8791 24.247 12.0635 24.4092 12.0818 24.4799Z" fill="white"/>
<path d="M11.1062 26.514L11.186 24.9771C10.6118 25.1733 10.0898 25.5277 10.0898 25.7763C10.0898 26.047 11.1062 26.0497 11.1062 26.5127V26.514Z" fill="white"/>
<path d="M4.01932 24.8907C4.41827 24.7808 4.63149 24.7677 4.68904 24.5558C4.73613 24.3845 4.27308 23.945 3.84927 23.7017C3.81265 23.8233 3.72239 24.1333 3.68446 24.2903C3.63606 24.4878 3.58765 24.9325 3.59812 25.0058C3.60728 25.0777 3.65829 25.325 3.65829 25.325C3.65829 25.325 3.65829 25.325 3.65829 25.3236C3.64521 25.134 3.73155 24.9705 4.02063 24.892L4.01932 24.8907Z" fill="white"/>
<path d="M5.88694 26.9522C6.10016 26.8044 6.32514 26.6618 6.12501 26.5467C6.03737 26.4957 5.86471 26.442 5.66196 26.3779C5.62926 26.5166 5.55078 26.8698 5.55078 27.0097C5.55078 27.1863 5.59787 27.3969 5.59787 27.3969C5.59787 27.3969 5.59917 27.3904 5.6031 27.3799C5.56647 27.1654 5.6842 27.0921 5.88564 26.9522H5.88694Z" fill="white"/>
<path d="M11.3401 28.0078C11.361 28.0078 11.378 27.9895 11.3767 27.9686L11.3035 25.3826C11.3035 25.3616 11.2852 25.3473 11.2642 25.3459C11.2433 25.3459 11.2263 25.3643 11.2276 25.3852L11.3009 27.9712C11.3009 27.9921 11.3179 28.0078 11.3388 28.0078H11.3401Z" fill="white"/>
<path d="M12.9301 25.8795C12.9301 25.8795 12.9379 25.8795 12.9406 25.8782C12.9602 25.8717 12.9719 25.8508 12.9654 25.8311L12.314 23.6519C12.3075 23.6323 12.2878 23.6205 12.2669 23.6271C12.2473 23.6336 12.2355 23.6545 12.2421 23.6742L12.8935 25.8534C12.8987 25.8704 12.9131 25.8808 12.9301 25.8808V25.8795Z" fill="white"/>
<path d="M4.88294 28.0457C4.90256 28.0457 4.91827 28.0313 4.92088 28.0117L5.09485 26.2995C5.09746 26.2785 5.08177 26.2602 5.06084 26.2576C5.0373 26.255 5.0216 26.2707 5.01899 26.2916L4.84501 28.0039C4.8424 28.0248 4.85809 28.0431 4.87902 28.0457C4.88033 28.0457 4.88163 28.0457 4.88294 28.0457Z" fill="white"/>
<path d="M4.06652 29.2268C4.06652 29.2268 4.06914 29.2229 4.06914 29.2216C4.16594 28.6369 4.85266 28.6421 4.83304 28.0783C4.82257 27.7775 4.28235 27.648 4.28235 27.648C4.28235 27.648 4.27712 27.6467 4.27058 27.644C4.2261 27.7735 4.13193 28.0639 4.07961 28.3386C4.01682 28.6669 4.06652 29.2255 4.06652 29.2255V29.2268Z" fill="white"/>
<path d="M12.1164 28.5768C12.1452 28.6121 12.1674 28.6919 12.1766 28.7808C12.1779 28.7887 12.1792 28.7939 12.1792 28.7939C12.1792 28.7939 12.2054 28.3963 12.1831 28.2223C12.1635 28.0732 12.102 27.6376 12.085 27.5146C11.7122 27.7017 11.2714 27.9385 11.4218 28.1412C11.6154 28.4015 11.915 28.3204 12.1177 28.5755L12.1164 28.5768Z" fill="white"/>
<path d="M13.2225 26.5075C13.2473 26.5519 13.263 26.582 13.263 26.582C13.263 26.582 13.2015 26.2118 13.1924 26.1791C13.1832 26.1477 13.093 25.72 13.0877 25.6938C13.0236 25.7357 12.9805 25.809 12.9805 25.928C12.9805 25.979 12.9922 26.0287 13.0092 26.0758C13.0276 26.119 13.0485 26.1661 13.076 26.2223C13.1309 26.3191 13.1911 26.412 13.2225 26.5075Z" fill="white"/>
<path d="M4.02828 24.9274C4.0963 24.9091 4.15909 24.8934 4.21664 24.8777C4.50049 24.8057 4.67054 24.7626 4.72417 24.5651C4.79088 24.3191 4.03613 23.686 3.57178 23.5304C3.16497 23.3943 2.70977 23.3224 2.40891 23.274L2.29119 23.2544C2.04266 23.2125 1.97987 23.172 1.97987 23.172C1.96286 23.1589 1.93932 23.1615 1.92624 23.1785C1.91316 23.1955 1.91578 23.2191 1.93278 23.2322C1.93932 23.2374 2.00603 23.2845 2.27811 23.3303L2.39583 23.3499C2.69406 23.3983 3.14666 23.4702 3.54692 23.6036C4.02436 23.7619 4.69801 24.3741 4.65092 24.5467C4.60906 24.7011 4.47171 24.7364 4.19702 24.8057C4.13947 24.8201 4.07537 24.8371 4.00735 24.8554C3.83469 24.9025 3.71697 24.9849 3.65941 25.0974C3.59793 25.2178 3.60186 25.3708 3.6738 25.5618C3.74313 25.7488 4.02305 25.8299 4.31998 25.9163C4.50572 25.9699 4.6967 26.0262 4.85105 26.1099C5.08519 26.2354 5.38996 26.3322 5.65811 26.416C5.85432 26.4774 6.02307 26.5311 6.10678 26.5795C6.14472 26.6017 6.16433 26.6239 6.16564 26.6462C6.16826 26.7129 6.02568 26.811 5.90011 26.8986L5.83602 26.9431C5.64112 27.0791 5.51162 27.1681 5.5731 27.4258C5.61234 27.5932 5.80593 27.6952 6.0296 27.8117C6.16564 27.8823 6.30561 27.9555 6.43118 28.0523C6.55675 28.1491 6.71633 28.2564 6.88638 28.3715C7.17284 28.5651 7.46977 28.7652 7.66467 28.9523C7.9773 29.2518 8.08979 29.5474 8.05186 29.9725C8.01392 30.4003 7.9289 30.675 7.9289 30.6776C7.92367 30.6946 7.93021 30.7116 7.9446 30.7208C7.94852 30.7234 7.9943 30.7508 8.07017 30.7508C8.13034 30.7508 8.21013 30.7338 8.30431 30.6711C8.44427 30.5769 8.5947 30.2747 8.73859 29.9804C8.80399 29.8483 8.86546 29.724 8.92171 29.6272L8.94394 29.588C9.15323 29.227 9.79287 28.1295 10.3946 27.6141L10.4835 27.5383C11.0421 27.0608 11.1428 26.9745 11.1428 26.5154C11.1428 26.225 10.8053 26.1073 10.5084 26.0026C10.3213 25.9372 10.1277 25.8692 10.1277 25.7789C10.1277 25.5369 10.7098 25.1498 11.3481 24.9679C12.0859 24.7573 12.1225 24.5363 12.1225 24.4931C12.1225 24.3976 11.8792 24.2067 11.7144 24.1242C11.5862 24.0602 11.5875 24.0405 11.5915 23.8862C11.5915 23.8535 11.5941 23.8155 11.5941 23.7711C11.5941 23.5448 12.2952 23.1 12.651 23.1C12.6719 23.1 12.6889 23.083 12.6889 23.0621C12.6889 23.0412 12.6719 23.0242 12.651 23.0242C12.2808 23.0242 11.5182 23.4859 11.5182 23.7711C11.5182 23.8142 11.5182 23.8509 11.5156 23.8836C11.5103 24.0458 11.509 24.1059 11.6804 24.191C11.8688 24.2851 12.0414 24.4513 12.0453 24.4918C12.0453 24.4931 12.0257 24.6932 11.3259 24.8934C10.7098 25.07 10.0506 25.4663 10.0506 25.7776C10.0506 25.9215 10.2507 25.9921 10.4822 26.0732C10.7556 26.1687 11.0656 26.2786 11.0656 26.5141C11.0656 26.9379 10.9819 27.0098 10.4338 27.4794L10.3449 27.5553C9.7327 28.0798 9.08914 29.1851 8.87724 29.5487L8.855 29.588C8.79744 29.6874 8.73466 29.813 8.66926 29.9464C8.53583 30.2172 8.3841 30.5246 8.26114 30.607C8.13949 30.6881 8.05055 30.6789 8.01 30.6658C8.03354 30.5808 8.09502 30.3336 8.12641 29.9778C8.16565 29.5344 8.0427 29.2113 7.71569 28.8973C7.51556 28.705 7.21601 28.5036 6.92693 28.3087C6.75819 28.1949 6.59991 28.0876 6.47565 27.9922C6.34484 27.8914 6.19573 27.813 6.06362 27.7436C5.85694 27.6351 5.67774 27.5422 5.64635 27.4075C5.59664 27.1995 5.68558 27.138 5.87918 27.0033L5.94328 26.9588C6.10548 26.8463 6.24543 26.7495 6.24151 26.6409C6.2402 26.5912 6.2075 26.5481 6.14471 26.5127C6.05446 26.4604 5.8818 26.4055 5.68167 26.3427C5.41613 26.259 5.11528 26.1648 4.88768 26.0419C4.72548 25.9542 4.53058 25.898 4.34091 25.843C4.0636 25.7619 3.80199 25.6861 3.74443 25.5343C3.68034 25.3643 3.67511 25.2322 3.72743 25.1301C3.77583 25.036 3.87655 24.9679 4.02828 24.9261V24.9274Z" fill="white"/>
<path d="M4.5008 28.684C4.68916 28.5375 4.88276 28.387 4.87229 28.077C4.86183 27.7513 4.31637 27.6166 4.29675 27.6127C4.29021 27.61 3.69504 27.3981 3.15351 27.3877C2.62506 27.3772 2.5505 27.4819 2.54003 27.5132C2.53349 27.5329 2.54396 27.5564 2.56358 27.563C2.5832 27.5695 2.60412 27.5616 2.61066 27.5407C2.61066 27.5407 2.67345 27.4518 3.1522 27.4622C3.68065 27.4714 4.26536 27.6807 4.27451 27.6833C4.27975 27.6833 4.78727 27.8089 4.79642 28.0783C4.80558 28.3491 4.64208 28.476 4.45372 28.6238C4.26797 28.769 4.05606 28.9325 4.02336 29.2673C3.99982 29.5041 4.21565 29.7029 4.42493 29.7239C4.6146 29.7422 5.27517 30.0339 5.75653 30.2523C6.24705 30.4747 7.0986 30.9469 7.36936 31.2111C7.63097 31.4662 8.1228 32.1647 8.12803 32.1725C8.13588 32.183 8.14765 32.1882 8.15943 32.1882C8.16727 32.1882 8.17382 32.1856 8.18036 32.1817C8.18428 32.1791 8.5937 31.9044 8.93118 31.5577C9.26081 31.219 9.82589 30.6918 10.1634 30.4302C10.5453 30.1359 10.8906 29.8991 11.2229 29.7082C11.3092 29.6585 11.3995 29.6074 11.491 29.5564C11.7997 29.3838 12.0914 29.2203 12.1634 29.1169C12.2615 28.9743 12.2236 28.646 12.1477 28.5492C12.0404 28.4145 11.9096 28.3674 11.7827 28.3229C11.6598 28.2798 11.5434 28.2379 11.4518 28.115C11.4309 28.0862 11.4243 28.0587 11.4322 28.0273C11.4727 27.8573 11.8795 27.6545 12.1765 27.5067C12.2563 27.4675 12.3295 27.4308 12.391 27.3968C12.8226 27.164 13.2674 26.8906 13.2844 26.6408C13.2935 26.5087 13.2229 26.3896 13.1536 26.2732C13.0882 26.1633 13.0202 26.0482 13.0202 25.924C13.0202 25.8285 13.0502 25.7591 13.1078 25.7212C13.1732 25.678 13.2752 25.6767 13.3733 25.7173C13.5525 25.7932 13.6676 25.8599 13.669 25.8599C13.6873 25.8703 13.7108 25.8638 13.7213 25.8468C13.7317 25.8285 13.7252 25.8049 13.7082 25.7945C13.703 25.7918 13.5879 25.7251 13.4034 25.648C13.2805 25.5956 13.1549 25.5996 13.0672 25.6584C13.0123 25.6951 12.9456 25.7709 12.9456 25.9253C12.9456 26.0796 13.0188 26.1947 13.0895 26.3138C13.1549 26.425 13.2177 26.5283 13.2098 26.6382C13.1941 26.8802 12.5859 27.2085 12.357 27.3327C12.2968 27.3654 12.2236 27.4021 12.1451 27.4413C11.8181 27.6048 11.4099 27.8076 11.3602 28.0116C11.3472 28.0652 11.3589 28.115 11.3929 28.162C11.4976 28.3033 11.631 28.3504 11.7592 28.3962C11.8808 28.4394 11.996 28.4799 12.0901 28.5989C12.1438 28.6656 12.183 28.9613 12.1032 29.0764C12.0417 29.1653 11.7448 29.3314 11.457 29.4923C11.3655 29.5433 11.2739 29.5944 11.1876 29.6441C10.854 29.8377 10.5048 30.0757 10.1202 30.3713C9.7788 30.6343 9.20979 31.1653 8.87886 31.5054C8.60024 31.7919 8.27192 32.0287 8.1712 32.098C8.07179 31.958 7.66237 31.389 7.4243 31.1575C7.14699 30.8867 6.28629 30.408 5.79054 30.1843C5.2634 29.9462 4.63292 29.6689 4.4354 29.6493C4.26535 29.6323 4.08354 29.4649 4.10185 29.2752C4.13193 28.973 4.32029 28.8265 4.50342 28.684H4.5008Z" fill="white"/>
<path d="M9.06794 23.2581C9.08756 23.2686 9.10064 23.2751 9.10064 23.2751L9.24584 22.387C9.24322 22.387 9.08102 22.3621 8.91359 22.3399C8.65852 22.3307 8.45316 22.3843 8.40999 22.4838C8.35898 22.6028 8.27133 22.6774 8.75793 22.9337C8.93321 23.0253 9.03 23.1443 9.06925 23.2594L9.06794 23.2581Z" fill="white"/>
<path d="M8.70848 23.6428C8.32653 23.5539 8.23104 23.4492 8.095 23.27C7.98251 23.1209 7.88571 23.0463 7.79153 23.0359C7.73136 23.0306 7.67512 23.049 7.62149 23.0934C7.54562 23.1575 7.53777 23.2792 7.52992 23.3956C7.52207 23.5186 7.51423 23.6337 7.43705 23.6677C7.29578 23.7305 7.15321 23.5683 7.0381 23.4388L7.00409 23.3995C6.91776 23.304 6.7961 23.1301 6.69669 22.9914C6.61298 22.8724 6.54627 22.7782 6.51226 22.7442C6.43639 22.6683 6.20225 22.5584 5.95896 22.7049C5.80461 22.7978 5.62801 22.9718 5.62017 22.9796C5.60578 22.994 5.60578 23.0189 5.62017 23.0333C5.63456 23.0476 5.6581 23.0476 5.67379 23.0333C5.6751 23.032 5.85169 22.858 5.9982 22.7703C6.20225 22.6474 6.39715 22.7363 6.45863 22.7978C6.4874 22.8266 6.55935 22.9273 6.63391 23.0346C6.73855 23.1824 6.85759 23.3511 6.94653 23.4505L6.98055 23.4885C7.08388 23.6049 7.2173 23.7579 7.37034 23.7579C7.40174 23.7579 7.43313 23.7514 7.46583 23.737C7.58617 23.6847 7.59532 23.5329 7.60317 23.4008C7.60971 23.3001 7.61626 23.1955 7.66727 23.1523C7.7039 23.1209 7.74183 23.1091 7.77976 23.1117C7.8504 23.1196 7.9328 23.1863 8.03091 23.3158C8.17349 23.5028 8.28075 23.6219 8.68755 23.7161C8.86937 23.7579 9.03811 23.6716 9.09959 23.5068C9.1676 23.3263 9.09174 23.0673 8.77127 22.8985C8.35531 22.6801 8.38539 22.616 8.42725 22.527C8.43118 22.5179 8.43641 22.5074 8.44033 22.4983C8.44818 22.4786 8.44033 22.4564 8.42071 22.4486C8.40108 22.4407 8.37886 22.4486 8.37101 22.4682C8.36708 22.4773 8.36315 22.4865 8.35923 22.4943C8.29514 22.6304 8.2886 22.7298 8.73595 22.9652C9.01587 23.1117 9.0852 23.3302 9.02895 23.4793C8.9884 23.5879 8.8733 23.6808 8.70456 23.6415L8.70848 23.6428Z" fill="white"/>
<path d="M9.72401 22.4408C9.59844 22.4408 9.48333 22.4094 9.36168 22.378C9.27273 22.3544 9.17986 22.3296 9.07783 22.3152C8.78875 22.2773 8.44343 22.3073 8.3741 22.4682C8.36625 22.4878 8.3741 22.5101 8.39372 22.5179C8.39896 22.5206 8.40419 22.5206 8.40942 22.5206C8.42381 22.5206 8.4382 22.5114 8.44474 22.4983C8.48267 22.4107 8.7312 22.3453 9.06868 22.3897C9.16547 22.4028 9.25573 22.4264 9.34206 22.4499C9.46894 22.4839 9.58798 22.5153 9.72401 22.5153C9.78811 22.5153 9.83912 22.4931 9.87444 22.4486C9.95685 22.3453 9.9163 22.1582 9.91499 22.1504C9.90976 22.1294 9.89013 22.1177 9.8692 22.1216C9.84828 22.1255 9.83651 22.1464 9.84043 22.1674C9.8509 22.2119 9.86528 22.34 9.81558 22.4028C9.79465 22.429 9.76587 22.4408 9.72401 22.4408Z" fill="white"/>
<path d="M9.03174 23.27C9.03435 23.2792 9.0409 23.287 9.05005 23.2922L9.08275 23.3092C9.08275 23.3092 9.09321 23.3132 9.09975 23.3132C9.10629 23.3132 9.11152 23.3119 9.11676 23.3092C9.12722 23.304 9.13507 23.2935 9.13638 23.2818L9.28157 22.3936C9.28288 22.3831 9.28026 22.3714 9.27242 22.3635C9.26718 22.357 9.26065 22.3531 9.2528 22.3517C9.25149 22.3517 9.25018 22.3517 9.24756 22.3517H9.23579C9.19394 22.3439 9.05659 22.323 8.91139 22.3047C8.69033 22.2981 8.43003 22.3361 8.37247 22.4708C8.36855 22.4799 8.36463 22.4891 8.36071 22.4969C8.29661 22.633 8.29007 22.7324 8.73743 22.9678C8.9284 23.0686 9.00165 23.1889 9.02912 23.2726L9.03174 23.27ZM8.43134 22.527C8.43526 22.5179 8.4405 22.5074 8.44442 22.4982C8.47058 22.4381 8.61055 22.3766 8.85385 22.3766C8.87085 22.3766 8.88916 22.3766 8.90878 22.3766C9.02912 22.3923 9.14554 22.4093 9.20309 22.4171L9.07752 23.1824C9.03304 23.0947 8.9454 22.9875 8.77536 22.8985C8.3594 22.6801 8.38948 22.616 8.43134 22.527Z" fill="white"/>
<path d="M9.95382 14.069L9.92374 13.9893H9.89496C9.89496 13.9893 9.66212 15.4791 9.57449 16.6224C9.48685 17.7656 9.45546 18.3529 9.47377 18.6603C9.49208 18.9677 9.73538 21.0279 9.73538 21.0279L9.85179 21.937C9.85179 21.937 9.62943 18.5243 9.63728 17.7512C9.6412 17.4242 9.95382 14.0677 9.95382 14.0677V14.069Z" fill="white"/>
<path d="M7.24121 12.1986H7.4675L7.79844 11.3419L8.25626 10.2038C8.25626 10.2038 8.38576 9.77874 8.45116 9.60215C8.51787 9.42556 8.66306 8.44059 8.70361 8.13451C8.74416 7.82842 8.73631 7.51449 8.71669 7.26989C8.69707 7.02528 8.50087 6.47852 8.50087 6.47852C8.50087 6.47852 8.61074 7.0776 8.62644 7.50795C8.64606 8.04556 8.39491 9.19011 8.27196 9.65316C8.149 10.1175 7.24121 12.1986 7.24121 12.1986Z" fill="white"/>
<path d="M5.93655 18.6984C5.94309 18.0012 5.93263 17.1627 5.95486 16.8828C5.98626 16.4904 6.20863 15.8756 6.40614 15.3628C6.40614 15.3602 6.40876 15.3563 6.40876 15.3537C6.47547 15.1771 6.86266 14.0679 6.86527 14.06L6.707 13.9946C6.707 13.9946 6.05428 15.7108 5.89993 16.3583C5.74558 17.0058 5.80052 17.3302 5.80052 17.6192C5.80052 17.9083 5.93394 18.7206 5.93394 18.7206C5.93394 18.7206 5.93393 18.7128 5.93655 18.6997V18.6984Z" fill="white"/>
<path d="M10.5181 14.0978L10.437 13.8872C10.437 13.8872 8.27608 13.8663 7.68876 13.8872C7.10275 13.9082 5.4873 14.0743 5.4873 14.0743C5.4873 14.0743 7.67699 14.052 8.34802 14.0311C9.01905 14.0102 10.5181 14.0978 10.5181 14.0978Z" fill="#343434"/>
<path d="M10.5453 13.886V12.1986C10.5453 12.1986 9.83896 12.1345 8.57014 12.1345C7.85464 12.1345 6.75457 12.2209 6.12278 12.3268C5.7042 12.3974 5.32617 12.5047 5.32617 12.5047V14.0901C5.32617 14.0901 7.52893 13.8795 8.18688 13.8873C9.33797 13.8991 10.5453 13.8873 10.5453 13.8873V13.886Z" fill="white"/>
<path d="M6.13045 13.033C6.22463 13.0761 6.24686 13.2148 6.24686 13.2161C6.24947 13.237 6.27041 13.2514 6.29003 13.2475C6.31095 13.2449 6.32534 13.2252 6.32142 13.2043C6.32142 13.1965 6.29264 13.0251 6.16184 12.9636C6.07682 12.9244 5.97086 12.9427 5.84921 13.0173C5.77335 13.0644 5.74064 13.1664 5.7668 13.2815C5.79427 13.4097 5.89368 13.547 6.05065 13.5666C6.21808 13.5863 6.37767 13.5457 6.4797 13.4568C6.55949 13.3861 6.60134 13.288 6.60265 13.1716C6.60265 13.0473 6.56472 12.9453 6.48623 12.8668C6.34235 12.723 6.11475 12.7112 6.04411 12.7112H6.0428C5.70271 12.7112 5.50781 12.9362 5.50781 13.326C5.50781 13.6765 5.86491 13.7812 5.86884 13.7825C5.87276 13.7825 5.87537 13.7838 5.8793 13.7838C5.8963 13.7838 5.91069 13.7733 5.91592 13.7563C5.92116 13.7367 5.90938 13.7158 5.88976 13.7092C5.87668 13.7053 5.58368 13.6177 5.58368 13.3247C5.58368 13.1245 5.64385 12.787 6.04411 12.7857C6.1069 12.7831 6.30965 12.7949 6.43392 12.9192C6.4967 12.9819 6.5294 13.067 6.52809 13.1703C6.52809 13.2658 6.49539 13.3417 6.4313 13.3992C6.34627 13.4751 6.20762 13.5091 6.06112 13.4908C5.94078 13.4764 5.86491 13.3665 5.84136 13.2645C5.82698 13.1991 5.83221 13.1154 5.88976 13.08C5.98917 13.0186 6.07027 13.0016 6.13175 13.0303L6.13045 13.033Z" fill="white"/>
<path d="M7.45076 12.8943C7.54494 12.9375 7.56718 13.0761 7.56718 13.0774C7.56979 13.0983 7.59073 13.1127 7.61035 13.1088C7.63128 13.1062 7.64566 13.0866 7.64174 13.0656C7.64174 13.0578 7.61296 12.8864 7.48215 12.825C7.39713 12.7857 7.29118 12.804 7.16953 12.8786C7.09367 12.9257 7.06096 13.0277 7.08713 13.1428C7.11459 13.271 7.214 13.4084 7.37097 13.428C7.5384 13.4476 7.69798 13.407 7.80001 13.3181C7.8798 13.2475 7.92297 13.1494 7.92297 13.0329C7.92297 12.9087 7.88504 12.8066 7.80655 12.7282C7.66267 12.5843 7.43376 12.5725 7.36443 12.5725H7.36312C7.02303 12.5725 6.82812 12.7975 6.82812 13.1873C6.82812 13.5378 7.18522 13.6425 7.18915 13.6438C7.19307 13.6438 7.19569 13.6451 7.19962 13.6451C7.21662 13.6451 7.231 13.6346 7.23624 13.6176C7.24147 13.598 7.2297 13.5771 7.21008 13.5705C7.20747 13.5705 6.90399 13.4803 6.90399 13.186C6.90399 12.9845 6.96417 12.6484 7.36443 12.6471C7.42591 12.6471 7.62996 12.6575 7.75292 12.7805C7.81571 12.8433 7.8471 12.9283 7.8471 13.0316C7.8471 13.1271 7.8144 13.203 7.75031 13.2605C7.66529 13.3364 7.52663 13.3704 7.38013 13.3521C7.25979 13.3377 7.18392 13.2278 7.16038 13.1258C7.14599 13.0604 7.15122 12.9767 7.20877 12.9414C7.30819 12.8799 7.38928 12.8629 7.45076 12.8917V12.8943Z" fill="white"/>
<path d="M8.64607 12.8354C8.74025 12.8785 8.76249 13.0172 8.76249 13.0185C8.76511 13.0394 8.78603 13.0538 8.80565 13.0499C8.82658 13.0473 8.84098 13.0276 8.83705 13.0067C8.83705 12.9989 8.80827 12.8275 8.67746 12.766C8.59113 12.7255 8.48649 12.7451 8.36484 12.8197C8.28897 12.8668 8.25627 12.9688 8.28243 13.0852C8.3099 13.2134 8.40932 13.3507 8.56628 13.3704C8.73371 13.39 8.89329 13.3494 8.99532 13.2605C9.07511 13.1898 9.11828 13.0917 9.11828 12.9753C9.11828 12.8511 9.08034 12.749 9.00186 12.6706C8.85797 12.5267 8.62907 12.5149 8.55974 12.5149H8.55843C8.21834 12.5149 8.02344 12.7399 8.02344 13.1297C8.02344 13.4802 8.38054 13.5849 8.38446 13.5862C8.38839 13.5862 8.391 13.5875 8.39493 13.5875C8.41193 13.5875 8.42632 13.577 8.43155 13.56C8.43678 13.5404 8.42501 13.5195 8.40539 13.5129C8.39231 13.509 8.09931 13.4214 8.09931 13.1284C8.09931 12.9282 8.15948 12.5908 8.55843 12.5894C8.61991 12.5894 8.82397 12.5999 8.94692 12.7229C9.00971 12.7857 9.04111 12.8707 9.04111 12.9727C9.04111 13.0682 9.0084 13.1454 8.9443 13.2016C8.85928 13.2775 8.72063 13.3115 8.57413 13.2932C8.45379 13.2788 8.37662 13.1689 8.35438 13.0669C8.33999 13.0015 8.34522 12.9178 8.40278 12.8825C8.50219 12.821 8.58328 12.804 8.64345 12.8327L8.64607 12.8354Z" fill="white"/>
<path d="M9.84562 12.8185C9.9398 12.8617 9.96203 13.0003 9.96203 13.0016C9.96465 13.0226 9.98558 13.037 10.0052 13.033C10.0261 13.0304 10.0405 13.0108 10.0366 12.9899C10.0366 12.982 10.0078 12.8107 9.87701 12.7492C9.79198 12.7099 9.68604 12.7283 9.56308 12.8028C9.48721 12.8499 9.45451 12.9519 9.48067 13.0684C9.50814 13.1965 9.60755 13.3339 9.76452 13.3535C9.93195 13.3731 10.0915 13.3326 10.1936 13.2436C10.2734 13.173 10.3165 13.0749 10.3165 12.9585C10.3165 12.8342 10.2786 12.7322 10.2001 12.6537C10.0562 12.5098 9.82731 12.498 9.75798 12.498H9.75667C9.41658 12.498 9.22168 12.723 9.22168 13.1128C9.22168 13.4634 9.57877 13.568 9.5827 13.5693C9.58662 13.5693 9.58924 13.5706 9.59316 13.5706C9.61017 13.5706 9.62456 13.5602 9.62979 13.5432C9.63502 13.5236 9.62325 13.5026 9.60363 13.4961C9.60101 13.4961 9.29754 13.4058 9.29754 13.1115C9.29754 12.9101 9.35771 12.5739 9.75798 12.5726C9.81946 12.5726 10.0235 12.5831 10.1465 12.706C10.2093 12.7688 10.242 12.8538 10.2407 12.9572C10.2407 13.0527 10.208 13.1285 10.1439 13.1861C10.0588 13.2619 9.91887 13.296 9.77367 13.2776C9.65333 13.2633 9.57747 13.1534 9.55392 13.0514C9.53953 12.9859 9.54477 12.9022 9.60232 12.8669C9.70173 12.8054 9.78283 12.7884 9.84431 12.8172L9.84562 12.8185Z" fill="white"/>
<path d="M10.7057 11.9148C10.7057 11.9148 9.50752 9.76308 8.5775 8.51651C7.92085 7.63619 6.22169 5.84546 6.22169 5.84546L5.93262 6.13585C5.93262 6.13585 7.49051 7.91088 7.83452 8.33338C8.3185 8.92593 10.3826 12.1346 10.3826 12.1346L10.7044 11.9161L10.7057 11.9148Z" fill="#343434"/>
<path d="M4.53502 6.88669C4.42253 6.85791 4.21847 6.82914 3.99348 6.91547C3.65862 7.04496 3.33684 7.30003 2.79531 8.33208C2.25378 9.36414 1.70047 10.51 1.70047 10.51C1.70047 10.51 0.797912 11.7853 0.669723 12.043C0.541533 12.3007 0.193586 13.0607 0.141264 13.1902C0.0889419 13.3197 0 13.9698 0 14.0888C0 14.2079 0.103332 14.5048 0.257683 14.5048C0.412033 14.5048 1.16024 14.3112 1.36561 14.2209C1.57228 14.1307 2.51277 13.5381 2.51277 13.5381C2.51277 13.5381 2.83455 13.7409 2.87379 13.7697C3.48596 14.217 3.96863 14.1647 4.09159 14.1333C4.37805 14.0627 4.31658 13.8665 4.31658 13.8665C4.31658 13.8665 4.47223 13.9057 4.58342 13.7697C4.6946 13.6349 4.61874 13.4858 4.61874 13.4858C4.61874 13.4858 4.8084 13.5342 4.88558 13.3694C4.93659 13.2621 4.83849 13.0777 4.83849 13.0777C4.83849 13.0777 5.04515 13.2046 5.11841 12.9861C5.16942 12.8357 4.75215 12.4472 4.75215 12.4472C4.75215 12.4472 4.39898 12.1006 3.93855 11.9999C3.54351 11.9122 2.70636 12.0679 2.70636 12.0679C2.70636 12.0679 3.25967 11.5028 3.43102 11.1601C3.74626 10.5309 4.19754 10.1385 4.37936 9.99724C4.32573 9.51718 4.2891 8.81868 4.37936 7.83502C4.39113 7.7016 4.47223 7.23201 4.5324 6.88538L4.53502 6.88669Z" fill="white"/>
<path d="M1.70561 12.208C1.33151 12.2799 0.715411 12.6645 0.656549 12.7063C0.639544 12.7181 0.635619 12.7417 0.647392 12.7587C0.65524 12.7691 0.665711 12.7744 0.678792 12.7744C0.68664 12.7744 0.694486 12.7717 0.701026 12.7678C0.754656 12.7286 1.36551 12.3492 1.72 12.2825C2.07317 12.2145 2.70889 12.1099 2.71412 12.1086C2.73505 12.1046 2.74813 12.085 2.74551 12.0654C2.7429 12.0458 2.72197 12.0314 2.70235 12.034C2.69581 12.034 2.06009 12.1413 1.70561 12.2093V12.208Z" fill="#343434"/>
<path d="M1.84255 13.1993C1.82293 13.1915 1.80069 13.2006 1.79284 13.2203C1.78499 13.2399 1.79415 13.2621 1.81377 13.27L2.48088 13.5407C2.48088 13.5407 2.49003 13.5434 2.49527 13.5434C2.50965 13.5434 2.52405 13.5342 2.53059 13.5198C2.53843 13.5002 2.52928 13.478 2.50966 13.4701L1.84255 13.1993Z" fill="#343434"/>
<path d="M3.32369 13.4177C3.31323 13.436 3.31846 13.4596 3.33677 13.4701C3.34985 13.4779 3.66641 13.6689 3.86523 13.7421C4.06275 13.8141 4.30342 13.903 4.30342 13.903L4.32959 13.8324C4.32959 13.8324 4.08891 13.7434 3.89139 13.6715C3.69911 13.6009 3.37994 13.4073 3.37602 13.406C3.35771 13.3955 3.33416 13.4007 3.32369 13.419V13.4177Z" fill="#343434"/>
<path d="M3.60848 13.0188C3.60063 13.0384 3.60848 13.0607 3.6281 13.0685L4.58821 13.4988C4.58821 13.4988 4.59867 13.5015 4.6039 13.5015C4.61829 13.5015 4.63268 13.4936 4.63791 13.4792C4.64576 13.4596 4.63792 13.4374 4.6183 13.4295L3.65818 12.9992C3.63856 12.99 3.61632 12.9992 3.60848 13.0188Z" fill="#343434"/>
<path d="M3.8966 12.5636C3.88613 12.5819 3.89267 12.6054 3.91098 12.6146L4.8711 13.1444C4.8711 13.1444 4.88286 13.1496 4.8894 13.1496C4.90248 13.1496 4.91557 13.143 4.92211 13.13C4.93257 13.1116 4.92603 13.0881 4.90772 13.079L3.94761 12.5492C3.9293 12.5387 3.90575 12.5453 3.8966 12.5636Z" fill="#343434"/>
<path d="M4.53485 6.88408L4.46291 6.87231C4.46291 6.87231 4.23269 7.65845 4.18952 8.5113C4.16467 8.99659 4.19999 10.1503 4.19999 10.1503L4.38181 10.0182C4.32687 9.53813 4.28763 8.83308 4.3805 7.83504C4.39228 7.70031 4.47337 7.22942 4.53485 6.88278V6.88408Z" fill="#343434"/>
<path d="M4.85323 13.1157L19.285 7.70167C19.3046 7.69382 19.3138 7.67289 19.3072 7.65327C19.2994 7.63365 19.2784 7.62319 19.2588 7.63104L4.82706 13.0451C4.80744 13.0529 4.79829 13.0739 4.80483 13.0935C4.81006 13.1092 4.82445 13.1183 4.84015 13.1183C4.84407 13.1183 4.8493 13.1183 4.85323 13.1157Z" fill="#343434"/>
<path d="M18.875 7.33934L19.2269 8.15033L20.3766 7.18237L18.875 7.33934Z" fill="#343434"/>
<path d="M18.7418 16.3269C18.8464 16.2837 18.8307 16.0038 18.7052 15.7042C18.5796 15.4034 18.3938 15.1954 18.2879 15.2399C18.1832 15.283 18.1989 15.563 18.3245 15.8625C18.4501 16.1634 18.6358 16.3713 18.7418 16.3269Z" fill="#343434"/>
<path d="M18.369 11.7371C18.1741 12.4029 17.991 13.0308 17.9701 13.2204C17.9295 13.5906 18.2788 15.38 18.2932 15.4559C18.2997 15.4925 18.3324 15.5174 18.3677 15.5174C18.373 15.5174 18.3769 15.5174 18.3821 15.5161C18.4227 15.5082 18.4501 15.4677 18.4423 15.4271C18.318 14.7914 18.0904 13.516 18.1205 13.2374C18.1401 13.0608 18.3298 12.4094 18.5142 11.7803C18.7052 11.1288 18.8844 10.5141 18.908 10.3205C18.9498 9.97776 18.7536 9.78547 18.7458 9.77762C18.7157 9.74885 18.6686 9.75016 18.6398 9.78024C18.611 9.81033 18.611 9.85742 18.6411 9.8875C18.6476 9.89404 18.7902 10.0379 18.7588 10.3022C18.7366 10.484 18.5495 11.1223 18.369 11.7384V11.7371Z" fill="#343434"/>
<path d="M4.78153 12.4747L12.9098 2.82647C12.9229 2.81077 12.9215 2.78591 12.9045 2.77283C12.8888 2.75975 12.8653 2.76106 12.8509 2.77676L4.72267 12.425C4.70959 12.4407 4.71089 12.4655 4.7279 12.4786C4.73444 12.4851 4.74359 12.4877 4.75275 12.4877C4.76321 12.4877 4.77368 12.4838 4.78153 12.4747Z" fill="#343434"/>
<path d="M17.2477 6.61082C17.2621 6.6226 17.2791 6.62914 17.2961 6.62914C17.317 6.62914 17.3393 6.61998 17.3537 6.60167C17.3628 6.5912 17.3811 6.56243 17.3746 6.51403C17.3563 6.38192 17.1522 6.1844 16.7506 5.90971C16.6159 5.81814 16.2418 5.59447 15.8075 5.33678C15.2241 4.98884 14.5636 4.59511 14.3988 4.46823C14.1777 4.29688 13.4177 3.24651 13.0476 2.71544C13.024 2.68143 12.9756 2.67358 12.9416 2.69713C12.9076 2.72067 12.8984 2.76776 12.9233 2.80308C12.9678 2.86587 14.0116 4.35966 14.3059 4.58857C14.4773 4.72199 15.1431 5.11834 15.7291 5.46759C16.1424 5.71481 16.5335 5.94764 16.6643 6.03659C17.1522 6.36883 17.215 6.50487 17.2229 6.53103C17.2137 6.55981 17.2229 6.5912 17.2464 6.61213L17.2477 6.61082Z" fill="#343434"/>
<path d="M17.4766 6.33272L17.0322 6.52124L18.6385 10.3071L19.0828 10.1186L17.4766 6.33272Z" fill="#343434"/>
<path d="M13.0435 2.89713C13.1482 2.85397 13.1325 2.57404 13.0069 2.2745C12.8813 1.97365 12.6956 1.76698 12.5896 1.81014C12.485 1.85331 12.5007 2.13323 12.6263 2.43278C12.7518 2.73363 12.9376 2.94161 13.0435 2.89713Z" fill="#343434"/>
<path d="M18.5861 8.18033C18.2787 8.31505 17.7607 8.61198 17.452 8.84089C17.4232 8.86182 17.401 8.88406 17.3826 8.90629C17.2309 9.09465 17.4245 9.3131 17.5553 9.25031C17.6116 9.22284 17.6796 9.18883 17.7554 9.1509C17.7057 9.18622 17.6573 9.22285 17.6116 9.26078C17.2937 9.51716 17.5828 9.8167 17.9189 9.62965C17.9726 9.59957 18.021 9.57471 18.072 9.54854C18.0144 9.58255 17.9687 9.60872 17.9412 9.6231C17.6887 9.76045 17.6809 10.1306 18.0942 10.0142C18.0942 10.0142 18.0968 10.0142 18.1021 10.0103C18.0864 10.0299 18.0681 10.0469 18.0563 10.0678C17.8182 10.4799 18.743 10.1162 18.8019 10.0835C18.9131 10.0208 19.3565 9.86248 19.4363 9.67674C19.5462 9.41905 19.3997 9.36281 19.1577 9.43082C19.3369 9.2477 19.2989 9.00309 18.9275 9.10512C18.9052 9.11166 18.8791 9.12081 18.8516 9.13127C18.9052 9.09988 18.9589 9.06849 19.0059 9.03448C19.3277 8.80949 19.1603 8.4197 18.8254 8.55312C18.832 8.54789 18.8398 8.54265 18.8464 8.53873C19.0844 8.35691 18.8294 8.07568 18.5874 8.18163L18.5861 8.18033Z" fill="white"/>
<path d="M17.5865 9.08163C17.5983 9.07509 17.6362 9.04108 17.6362 9.04108C17.6362 9.04108 17.5656 8.91419 17.5485 8.88672C17.5485 8.88672 17.4884 8.91942 17.4544 8.96521C17.4321 8.99398 17.4217 9.03845 17.4688 9.09077C17.4962 9.12086 17.5564 9.10125 17.5878 9.08163H17.5865Z" fill="#FB3230"/>
<path d="M17.8281 9.49629L17.6999 9.32886C17.6215 9.34194 17.5273 9.48452 17.6332 9.56169C17.679 9.5957 17.8124 9.53423 17.8281 9.49629Z" fill="#FB3230"/>
<path d="M18.0755 9.89267C18.0729 9.87828 17.9735 9.7357 17.9669 9.73832C17.908 9.76579 17.7851 9.88744 17.9054 9.9306C17.9512 9.94761 18.0781 9.90575 18.0755 9.89267Z" fill="#FB3230"/>
<path d="M18.2557 10.1608C18.2622 10.1582 18.291 10.149 18.2936 10.1411C18.2976 10.1281 18.2361 10.0234 18.2361 10.0234C18.2361 10.0234 18.2322 9.99726 18.1628 10.0457C18.1576 10.0496 18.0843 10.0993 18.1183 10.1529C18.1484 10.2013 18.1955 10.1856 18.2557 10.1608Z" fill="#FB3230"/>
<path d="M17.6597 8.69572C17.8703 8.60808 18.0691 8.48773 18.0286 8.39094C17.9893 8.29545 17.5655 8.30592 17.3549 8.39356C17.1443 8.4812 17.1561 8.60415 17.1966 8.70095C17.2359 8.79643 17.4491 8.78336 17.6597 8.69572Z" fill="white"/>
<path d="M17.7516 9.17459C17.7516 9.17459 17.7633 9.17328 17.7699 9.16936L18.8098 8.59774C18.8281 8.58728 18.8346 8.56504 18.8242 8.54673C18.8137 8.52841 18.7915 8.52187 18.7732 8.53234L17.7332 9.10396C17.7149 9.11442 17.7084 9.13666 17.7189 9.15497C17.7254 9.16805 17.7385 9.17459 17.7516 9.17459Z" fill="#343434"/>
<path d="M17.9411 9.6598C17.9411 9.6598 17.9529 9.65849 17.9594 9.65587L18.8973 9.15358C18.9156 9.14312 18.9221 9.12088 18.913 9.10257C18.9025 9.08426 18.8803 9.07772 18.862 9.08687L17.9241 9.58916C17.9058 9.59963 17.8992 9.62186 17.9084 9.64018C17.9149 9.65326 17.928 9.6598 17.9424 9.6598H17.9411Z" fill="#343434"/>
<path d="M18.1872 9.99724C18.1872 9.99724 18.199 9.99593 18.2055 9.99331L19.1722 9.46486C19.1905 9.4544 19.197 9.43216 19.1879 9.41385C19.1774 9.39554 19.1552 9.389 19.1368 9.39815L18.1702 9.9266C18.1519 9.93707 18.1453 9.95931 18.1545 9.97762C18.161 9.9907 18.1741 9.99724 18.1872 9.99724Z" fill="#343434"/>
<path d="M18.1174 10.0496L18.1305 10.0339C18.1435 10.0182 18.1422 9.99332 18.1252 9.98024C18.1095 9.96716 18.0847 9.96846 18.0716 9.98547L18.0598 9.99985C18.0454 10.0155 18.0324 10.0312 18.0219 10.0496C17.9683 10.1424 17.963 10.2131 18.0075 10.2575C18.0376 10.2876 18.0899 10.3007 18.154 10.3007C18.3986 10.3007 18.8133 10.1202 18.8185 10.1176C18.8368 10.1071 18.8433 10.0849 18.8329 10.0666C18.8224 10.0483 18.7989 10.0417 18.7819 10.0522C18.6982 10.0993 18.1488 10.2929 18.0624 10.2052C18.0454 10.1882 18.0546 10.145 18.0873 10.0888C18.0951 10.0757 18.1056 10.0639 18.1161 10.0522L18.1174 10.0496Z" fill="#343434"/>
<path d="M18.5443 8.24049C18.5626 8.23003 18.5692 8.2078 18.56 8.18948C18.5495 8.17117 18.5273 8.16463 18.509 8.17379C17.558 8.69308 17.3801 8.85136 17.3788 8.85267C17.2546 8.97693 17.2781 9.1182 17.337 9.20061C17.3841 9.26732 17.4508 9.30132 17.5162 9.2974C17.4115 9.41905 17.4233 9.53809 17.4717 9.61134C17.5266 9.69374 17.6404 9.74345 17.7791 9.7186C17.7294 9.79446 17.7124 9.8821 17.7412 9.95405C17.7542 9.98675 17.804 10.0718 17.9531 10.0718C17.9949 10.0718 18.0446 10.0652 18.1048 10.0482C18.1061 10.0482 18.1153 10.0443 18.1179 10.043C18.1375 10.0338 18.144 10.0129 18.1362 9.99329C18.127 9.97497 18.1035 9.96581 18.0852 9.97497C17.9439 10.0142 17.8419 9.9959 17.8131 9.92526C17.783 9.8494 17.834 9.72252 17.9609 9.6545C17.9779 9.64534 17.9989 9.63357 18.0002 9.60872C18.0002 9.59564 17.9936 9.58256 17.9818 9.57471C17.9596 9.56163 17.94 9.57209 17.9021 9.59433C17.7372 9.68589 17.5907 9.64927 17.5371 9.56817C17.4835 9.48838 17.5214 9.38111 17.6365 9.28824C17.6522 9.27516 17.6718 9.25947 17.6915 9.24246C17.7294 9.20976 17.7713 9.17444 17.804 9.1509C17.8197 9.13913 17.8249 9.11689 17.8144 9.10119C17.804 9.08419 17.783 9.07765 17.7647 9.08681C17.7242 9.10643 17.6797 9.13389 17.6378 9.15875C17.6012 9.18098 17.5659 9.20191 17.5397 9.21499C17.4966 9.23592 17.439 9.21107 17.4011 9.15744C17.3579 9.09596 17.3435 8.99786 17.4338 8.9076C17.4351 8.90629 17.6287 8.74278 18.5469 8.24049H18.5443Z" fill="#343434"/>
<path d="M18.234 15.4624C18.234 15.4624 18.2366 15.4624 18.2379 15.4624C18.2562 15.4624 18.2732 15.448 18.2759 15.4297C18.2785 15.4087 18.2641 15.3904 18.2432 15.3878L4.58708 13.7344C4.56484 13.7318 4.54784 13.7462 4.54523 13.7671C4.54261 13.7881 4.557 13.8064 4.57793 13.809L18.234 15.4624Z" fill="#343434"/>
<path d="M6.56659 3.5997C6.56659 2.93913 6.03029 2.40283 5.36972 2.40283C4.70916 2.40283 4.17285 2.93913 4.17285 3.5997C4.17285 4.26026 4.70916 4.79657 5.36972 4.79657C6.03029 4.79657 6.56659 4.26026 6.56659 3.5997Z" fill="#343434"/>
<path d="M9.10954 4.26921C9.44402 4.26921 9.71517 3.82589 9.71517 3.27902C9.71517 2.73215 9.44402 2.28882 9.10954 2.28882C8.77506 2.28882 8.50391 2.73215 8.50391 3.27902C8.50391 3.82589 8.77506 4.26921 9.10954 4.26921Z" fill="#343434"/>
<path d="M7.41395 5.36808C8.37406 5.33145 8.69584 4.97567 8.90644 3.90699C9.09741 2.93903 9.07779 1.76046 8.71939 0.956011C8.35836 0.147634 7.83645 0.0940037 6.48654 0.294136C5.01759 0.511273 5.54867 1.99722 5.83644 3.31313C5.99733 4.04956 6.58203 5.39947 7.41395 5.36808Z" fill="white"/>
<path d="M5.56827 2.52707C5.56827 2.52707 6.00778 2.73505 7.17718 1.35244C7.5369 0.926012 7.83644 1.38514 7.83644 1.38514C7.83644 1.38514 8.27726 1.03197 8.50224 1.62321C8.72723 2.21445 8.94436 2.33871 8.94436 2.33871C8.94436 2.33871 9.17458 2.42635 9.2753 2.23276C9.37602 2.03916 9.40218 1.83903 9.28968 1.31712C9.18896 0.851451 8.91689 0.466888 8.66967 0.251059C8.29164 -0.0811864 7.75142 0.0522318 7.41394 0.0679285C7.08823 0.0823171 6.37011 0.0247662 6.07188 0.145107C5.52118 0.368784 5.11961 0.605536 5.00581 1.48847C4.91555 2.18697 5.33806 2.46951 5.33806 2.46951L5.56958 2.52838L5.56827 2.52707Z" fill="#343434"/>
<path d="M7.00244 2.60804C7.16333 2.63943 7.353 2.75847 7.39616 2.73361C7.41971 2.71923 7.37654 2.57272 7.33076 2.5531C6.80754 2.33335 6.55116 2.53872 6.45436 2.63813C6.42428 2.66952 6.56554 2.61328 6.60871 2.60412C6.71074 2.58319 6.8991 2.58712 7.00244 2.60674V2.60804Z" fill="#343434"/>
<path d="M8.44185 2.57016C8.58442 2.56624 8.77016 2.61595 8.83949 2.66173C8.8735 2.5597 8.41176 2.35957 8.13446 2.47599C8.08475 2.49692 8.08867 2.6251 8.13446 2.65126C8.13446 2.65126 8.25741 2.5754 8.44185 2.57016Z" fill="#343434"/>
<path d="M7.72942 3.70292C7.70588 3.70292 7.68625 3.72254 7.68756 3.74609C7.68756 3.76963 7.70718 3.78925 7.73073 3.78794C7.74904 3.78794 7.76474 3.78664 7.78175 3.78402C7.85369 3.77487 7.90732 3.74739 7.94263 3.70292C8.02504 3.59566 7.98057 3.41776 7.9374 3.2451C7.9034 3.11168 7.86939 2.97433 7.9047 2.9037C7.91517 2.88277 7.90601 2.85661 7.88508 2.84614C7.86415 2.83568 7.83799 2.84484 7.82752 2.86577C7.77782 2.96518 7.81575 3.11168 7.85369 3.26734C7.89162 3.42038 7.93086 3.57735 7.87461 3.65191C7.84845 3.68592 7.80136 3.70292 7.73073 3.70292H7.72942Z" fill="#343434"/>
<path d="M8.14389 4.36999C8.14389 4.26796 7.96731 4.18555 7.75017 4.18555C7.53303 4.18555 7.35645 4.26796 7.35645 4.36999C7.35645 4.47202 7.53303 4.55573 7.75017 4.55573C7.96731 4.55573 8.14389 4.47332 8.14389 4.36999Z" fill="white"/>
<path d="M5.64818 2.83182C5.3434 2.93385 5.34209 3.58395 5.58932 3.75008C5.67826 3.81025 5.80515 3.82987 5.90979 3.82987C6.34668 3.82987 5.91371 3.18369 6.11777 2.92339C6.24072 2.76511 5.75021 2.79781 5.64818 2.83182Z" fill="white"/>
<path d="M8.837 3.7893C8.94164 3.7893 9.06852 3.76967 9.15747 3.71474C9.406 3.56169 9.40339 2.95737 9.09861 2.86319C8.99658 2.8318 8.50606 2.80041 8.62902 2.94822C8.83176 3.19021 8.3988 3.7893 8.837 3.7893Z" fill="white"/>
<path d="M8.60976 3.12203C8.60976 3.02 8.52736 2.93628 8.42402 2.93628C8.32069 2.93628 8.23828 3.01869 8.23828 3.12203C8.23828 3.22536 8.32069 3.30777 8.42402 3.30777C8.52736 3.30777 8.60976 3.22536 8.60976 3.12203Z" fill="#343434"/>
<path d="M8.57225 3.18734C8.57225 3.1481 8.54086 3.1167 8.50292 3.1167C8.46499 3.1167 8.43359 3.1481 8.43359 3.18734C8.43359 3.22658 8.46499 3.25797 8.50292 3.25797C8.54086 3.25797 8.57225 3.22658 8.57225 3.18734Z" fill="white"/>
<path d="M7.294 3.16539C7.294 3.06336 7.2116 2.98096 7.10957 2.98096C7.00754 2.98096 6.92383 3.06336 6.92383 3.16539C6.92383 3.26742 7.00623 3.35114 7.10957 3.35114C7.21291 3.35114 7.294 3.26873 7.294 3.16539Z" fill="#343434"/>
<path d="M7.27342 3.20589C7.27342 3.16664 7.24202 3.13525 7.20409 3.13525C7.16615 3.13525 7.13477 3.16664 7.13477 3.20589C7.13477 3.24513 7.16615 3.27653 7.20409 3.27653C7.24202 3.27653 7.27342 3.24513 7.27342 3.20589Z" fill="white"/>
<path d="M8.14423 5.21903C7.8787 5.35507 7.41957 5.38253 6.99315 5.19287C6.76947 5.09345 6.63867 4.96265 6.63867 4.96265C6.63867 4.96265 6.72892 5.28051 7.13442 5.36946C7.51114 5.45186 7.93102 5.46494 8.14423 5.22034V5.21903Z" fill="#343434"/>
<path d="M5.88897 3.59834C5.88897 3.59834 5.89028 3.59834 5.89159 3.59834C5.91382 3.59834 5.93345 3.58133 5.93475 3.55779C5.93606 3.53424 5.91775 3.51332 5.8942 3.51201C5.84842 3.50939 5.79217 3.46099 5.76078 3.41521C5.7477 3.39559 5.72023 3.39036 5.70061 3.40344C5.68099 3.41652 5.67576 3.44399 5.68884 3.46361C5.72808 3.52247 5.80525 3.59179 5.88766 3.59703L5.88897 3.59834Z" fill="#343434"/>
<path d="M5.77772 3.64666C5.80518 3.60481 5.82481 3.56164 5.84443 3.5211C5.85751 3.49363 5.86928 3.46746 5.88498 3.4413C5.89675 3.42037 5.8889 3.39421 5.86797 3.38244C5.84704 3.37067 5.82088 3.37852 5.80911 3.39945C5.79341 3.42822 5.78033 3.45569 5.76594 3.48447C5.74632 3.52502 5.72932 3.56295 5.70446 3.59958C5.69138 3.6192 5.69661 3.64667 5.71623 3.65975C5.72408 3.66498 5.73193 3.66629 5.73978 3.66629C5.75416 3.66629 5.76725 3.65974 5.7751 3.64666H5.77772Z" fill="#343434"/>
<path d="M9.18878 3.53559C9.18878 3.53559 9.19008 3.53559 9.19139 3.53559C9.21363 3.53559 9.23325 3.51859 9.23456 3.49504C9.23586 3.4715 9.21755 3.45057 9.19401 3.44927C9.14823 3.44665 9.09198 3.39824 9.06058 3.35246C9.0475 3.33284 9.02004 3.32761 9.00042 3.34069C8.9808 3.35378 8.97556 3.38124 8.98864 3.40086C9.02788 3.45972 9.10506 3.52905 9.18747 3.53428L9.18878 3.53559Z" fill="#343434"/>
<path d="M9.07752 3.58393C9.10499 3.54207 9.12461 3.4989 9.14423 3.45835C9.15731 3.43088 9.16908 3.40472 9.18478 3.37856C9.19655 3.35763 9.1887 3.33147 9.16777 3.3197C9.14684 3.30793 9.12068 3.31577 9.10891 3.3367C9.09321 3.36548 9.08014 3.39295 9.06575 3.42173C9.04613 3.46228 9.02912 3.50021 9.00427 3.53684C8.99119 3.55646 8.99642 3.58392 9.01604 3.597C9.02389 3.60224 9.03174 3.60355 9.03959 3.60355C9.05398 3.60355 9.06705 3.59701 9.0749 3.58393H9.07752Z" fill="#343434"/>
<path d="M6.14184 1.87414C6.14184 1.72241 6.01888 1.59814 5.86584 1.59814C5.7128 1.59814 5.58984 1.7211 5.58984 1.87414C5.58984 2.02718 5.7128 2.15014 5.86584 2.15014C6.01888 2.15014 6.14184 2.02718 6.14184 1.87414Z" fill="white"/>
<path d="M6.46215 1.38513C6.46215 1.23339 6.3392 1.10913 6.18615 1.10913C6.03311 1.10913 5.91016 1.23209 5.91016 1.38513C5.91016 1.53817 6.03311 1.66113 6.18615 1.66113C6.3392 1.66113 6.46215 1.53817 6.46215 1.38513Z" fill="white"/>
<path d="M6.84302 0.984738C6.84302 0.833003 6.72006 0.70874 6.56701 0.70874C6.41397 0.70874 6.29102 0.831695 6.29102 0.984738C6.29102 1.13778 6.41397 1.26073 6.56701 1.26073C6.72006 1.26073 6.84302 1.13778 6.84302 0.984738Z" fill="white"/>
<path d="M7.34496 0.710087C7.34496 0.558353 7.22201 0.434082 7.06897 0.434082C6.91592 0.434082 6.79297 0.557045 6.79297 0.710087C6.79297 0.86313 6.91592 0.986085 7.06897 0.986085C7.22201 0.986085 7.34496 0.86313 7.34496 0.710087Z" fill="white"/>
<path d="M7.92993 0.68005C7.92993 0.528316 7.80697 0.404053 7.65393 0.404053C7.50088 0.404053 7.37793 0.527008 7.37793 0.68005C7.37793 0.833092 7.50088 0.956047 7.65393 0.956047C7.80697 0.956047 7.92993 0.833092 7.92993 0.68005Z" fill="white"/>
<path d="M8.49633 0.754513C8.49633 0.602779 8.37338 0.478516 8.22033 0.478516C8.06729 0.478516 7.94434 0.601471 7.94434 0.754513C7.94434 0.907555 8.06729 1.03051 8.22033 1.03051C8.37338 1.03051 8.49633 0.907555 8.49633 0.754513Z" fill="white"/>
<path d="M8.96704 1.07629C8.96704 0.924556 8.84409 0.800293 8.69104 0.800293C8.538 0.800293 8.41504 0.923248 8.41504 1.07629C8.41504 1.22933 8.538 1.35229 8.69104 1.35229C8.84409 1.35229 8.96704 1.22933 8.96704 1.07629Z" fill="white"/>
<path d="M9.18285 1.57483C9.18285 1.42309 9.0599 1.29883 8.90686 1.29883C8.75381 1.29883 8.63086 1.42178 8.63086 1.57483C8.63086 1.72787 8.75381 1.85082 8.90686 1.85082C9.0599 1.85082 9.18285 1.72787 9.18285 1.57483Z" fill="white"/>
<path d="M6.16752 2.83057C6.6528 2.49832 6.79931 2.14254 6.92227 1.9751C7.20742 1.58923 7.85752 1.52382 7.85752 1.52382C7.85752 1.52382 8.22509 1.48982 8.37682 1.85346C8.49193 2.13076 8.54032 2.46824 8.90396 2.7704C9.2676 3.07256 9.41411 2.58727 9.41411 2.58727C9.41411 2.58727 8.92097 2.48394 8.76793 1.91755C8.61881 1.36555 8.39252 1.22559 8.23948 1.17065C7.94778 1.0647 7.88237 1.38517 7.88237 1.38517C7.88237 1.38517 7.73195 1.21643 7.47165 1.16411C7.13417 1.09609 6.85948 1.33547 6.4736 1.87569C6.08642 2.41723 5.41016 2.61344 5.41016 2.61344C5.41016 2.61344 5.68223 3.16412 6.16752 2.83188V2.83057Z" fill="#343434"/>
<path d="M5.42204 2.64876C5.45082 2.64091 6.11532 2.44208 6.50512 1.89663C6.91584 1.32239 7.16699 1.14058 7.46522 1.19944C7.70852 1.24784 7.85372 1.40742 7.85503 1.40872C7.86418 1.41919 7.87857 1.42312 7.89296 1.4205C7.90735 1.41658 7.91781 1.40611 7.92043 1.39172C7.92043 1.39041 7.94921 1.25961 8.04208 1.20729C8.09178 1.17982 8.15457 1.17851 8.22651 1.20467C8.37432 1.2583 8.58623 1.39172 8.73142 1.92672C8.88839 2.5088 9.38545 2.61998 9.40638 2.6239C9.426 2.62652 9.44693 2.61475 9.45085 2.59513C9.45478 2.5742 9.44169 2.55458 9.42207 2.55065C9.40245 2.54673 8.94987 2.4447 8.80468 1.90709C8.65033 1.33809 8.41487 1.1929 8.25267 1.13404C8.15849 1.10003 8.07478 1.10264 8.00415 1.14188C7.92828 1.18505 7.88642 1.26092 7.86418 1.31455C7.79878 1.2583 7.66667 1.16281 7.47831 1.12619C7.10159 1.05032 6.80204 1.34856 6.44102 1.85347C6.06692 2.37669 5.40504 2.5742 5.3985 2.57682C5.37888 2.58336 5.3671 2.60428 5.37234 2.6239C5.37757 2.64091 5.39196 2.65138 5.40897 2.65138C5.41289 2.65138 5.41551 2.65137 5.41943 2.65007L5.42204 2.64876Z" fill="white"/>
<path d="M5.74607 0.265318C5.76831 0.254853 5.79578 0.252238 5.82717 0.249622C5.95536 0.237849 6.12148 0.231309 6.27453 0.282323C6.42495 0.332029 6.54137 0.436675 6.58453 0.562248C6.58846 0.572713 6.59107 0.583175 6.59369 0.592331L6.595 0.59887C6.60023 0.614566 6.61331 0.623723 6.62901 0.623723C6.63293 0.623723 6.63686 0.623722 6.64209 0.622414C6.66171 0.615873 6.67217 0.592328 6.66694 0.572707C6.66302 0.560935 6.6604 0.550477 6.65647 0.538704C6.60546 0.392202 6.47204 0.269245 6.29807 0.211691C6.13195 0.156753 5.95536 0.163289 5.82063 0.175062C5.78924 0.177678 5.7513 0.1816 5.71598 0.197296C5.69636 0.206453 5.68852 0.22869 5.69637 0.247003C5.70552 0.266624 5.72776 0.274475 5.74607 0.266627V0.265318Z" fill="white"/>
<path d="M5.03078 1.28306C5.1315 1.16926 5.29108 1.09209 5.48075 1.06593C5.65472 1.04108 5.83393 1.05939 6.0079 1.0764C6.03144 1.07901 6.04714 1.06331 6.04976 1.04239C6.05106 1.02146 6.03667 1.00314 6.01575 1.00053C5.83785 0.983523 5.65472 0.965209 5.47159 0.99137C5.26492 1.02015 5.08833 1.10648 4.97584 1.23336C4.96145 1.24906 4.96276 1.2726 4.97846 1.28699C4.98631 1.29353 4.99416 1.29615 5.00331 1.29615C5.01378 1.29615 5.02424 1.29222 5.03209 1.28306H5.03078Z" fill="white"/>
<path d="M5.50745 2.90234C5.52577 2.90103 5.54539 2.88665 5.54669 2.86572C5.54669 2.84479 5.531 2.82779 5.51007 2.82648C5.1085 2.8134 4.70431 3.03446 4.50156 3.37978C4.39692 3.55768 4.34459 3.76566 4.35113 3.96579C4.35506 4.05343 4.36945 4.12276 4.39692 4.18293C4.41523 4.22348 4.4427 4.26272 4.47933 4.30589C4.59967 4.44585 4.76187 4.53218 4.92145 4.54133H4.92406C4.94368 4.54133 4.96069 4.52564 4.962 4.50601C4.962 4.48509 4.94761 4.46677 4.92668 4.46547C4.78672 4.45762 4.64545 4.38044 4.53819 4.25618C4.5068 4.21955 4.48325 4.18424 4.46755 4.15154C4.44401 4.10052 4.43224 4.04166 4.42962 3.96318C4.42308 3.77743 4.47279 3.58384 4.56958 3.41902C4.75925 3.09724 5.13859 2.88795 5.51007 2.90365L5.50745 2.90234Z" fill="white"/>
<path d="M5.40496 3.59035C5.42328 3.57989 5.42982 3.55765 5.42067 3.53934C5.4102 3.52102 5.38666 3.51448 5.36965 3.52364C5.21138 3.60997 5.08973 3.75909 5.0361 3.93175C5.0204 3.98277 5.01124 4.03378 5.00994 4.08218C5.00601 4.22607 5.0701 4.37257 5.1839 4.48376C5.2807 4.57924 5.41412 4.64857 5.56847 4.68388C5.57109 4.68388 5.57501 4.68388 5.57763 4.68388C5.59463 4.68388 5.61033 4.67211 5.61426 4.65511C5.61949 4.63418 5.6064 4.61456 5.58678 4.60933C5.44551 4.57663 5.32387 4.51384 5.23754 4.42882C5.14074 4.33333 5.08318 4.20383 5.08711 4.08349C5.08711 4.04163 5.09627 3.99847 5.10935 3.95269C5.15644 3.79834 5.265 3.66622 5.40627 3.58904L5.40496 3.59035Z" fill="white"/>
<path d="M9.3475 3.73945C9.32787 3.74468 9.3161 3.76561 9.32133 3.78654C9.32526 3.80354 9.34096 3.81401 9.35796 3.81401C9.36058 3.81401 9.3645 3.81401 9.36843 3.8127C9.53717 3.76692 9.67058 3.64788 9.71506 3.50269C9.7386 3.42551 9.73861 3.34703 9.73468 3.27247C9.73337 3.22931 9.73076 3.18222 9.7203 3.13644C9.67713 2.9363 9.48223 2.77541 9.27817 2.77148C9.25724 2.77148 9.24023 2.78849 9.24023 2.80811C9.24023 2.82904 9.25593 2.84605 9.27686 2.84735C9.44822 2.84997 9.61173 2.9847 9.64705 3.15213C9.6562 3.19268 9.65751 3.23454 9.66012 3.27509C9.66274 3.34311 9.66405 3.41505 9.64312 3.48046C9.60649 3.6008 9.49269 3.70021 9.34881 3.73945H9.3475Z" fill="white"/>
<path d="M8.01329 0.490369C8.01329 0.490369 8.01983 0.490369 8.02245 0.490369C8.03946 0.490369 8.05516 0.4786 8.05908 0.461595C8.07085 0.413197 8.08131 0.359567 8.08001 0.305937C8.08001 0.262771 8.06824 0.198679 8.02769 0.145049C7.99368 0.101883 7.9492 0.0770254 7.91258 0.0587126C7.86156 0.0338596 7.80793 0.0142385 7.75299 0.00115794C7.73337 -0.00407427 7.71245 0.00900914 7.70721 0.0286299C7.70198 0.0495588 7.71506 0.0691764 7.73468 0.0744086C7.78438 0.0861811 7.83279 0.104497 7.87857 0.126734C7.92173 0.147663 7.9492 0.168592 7.96751 0.192137C7.99629 0.228762 8.00284 0.275854 8.00414 0.308555C8.00414 0.354337 7.99629 0.401424 7.98583 0.44459C7.9806 0.464211 7.99367 0.485136 8.01329 0.490369Z" fill="white"/>
<path d="M8.53678 0.528185C8.52762 0.542573 8.52108 0.554346 8.51193 0.560886C8.49492 0.572658 8.4897 0.596199 8.50147 0.613203C8.50932 0.623668 8.52109 0.630209 8.53286 0.630209C8.54071 0.630209 8.54725 0.627594 8.55379 0.62367C8.57733 0.607973 8.59172 0.584427 8.60349 0.564806C8.63358 0.5151 8.66366 0.46278 8.68328 0.403918C8.70683 0.334591 8.70814 0.266575 8.68852 0.210329C8.68198 0.190708 8.66105 0.178936 8.64012 0.186785C8.6205 0.193325 8.61004 0.215561 8.61658 0.235182C8.63489 0.287504 8.62311 0.343748 8.61134 0.380374C8.59434 0.431388 8.56687 0.477169 8.53678 0.526875V0.528185Z" fill="white"/>
<path d="M8.21981 4.38323C8.24074 4.38323 8.25774 4.36623 8.25774 4.3453C8.25774 4.32437 8.24074 4.30737 8.21981 4.30737H7.24008C7.21915 4.30737 7.20215 4.32437 7.20215 4.3453C7.20215 4.36623 7.21915 4.38323 7.24008 4.38323H8.21981Z" fill="#343434"/>
<path d="M5.99754 3.89378C5.99754 3.89378 6.00277 3.89378 6.00539 3.89378C6.02632 3.88985 6.03939 3.86893 6.03416 3.84931C5.97268 3.55892 5.97138 2.94413 5.97138 2.93759C5.97138 2.91666 5.95438 2.89966 5.93345 2.89966C5.91252 2.89966 5.89551 2.91666 5.89551 2.93759C5.89551 2.96375 5.89551 3.56677 5.95961 3.865C5.96353 3.88332 5.97923 3.89508 5.99623 3.89508L5.99754 3.89378Z" fill="#343434"/>
<path d="M8.93246 3.81419C8.95339 3.81419 8.96908 3.79849 8.97039 3.77756L9.00178 2.83838C9.00178 2.81745 8.98609 2.80045 8.96516 2.79914C8.94685 2.79783 8.92723 2.81484 8.92592 2.83577L8.89453 3.77495C8.89453 3.79588 8.91022 3.81289 8.93115 3.81419H8.93246Z" fill="#343434"/>
<path d="M7.39282 3.66368C7.39282 3.57211 7.26986 3.49756 7.11682 3.49756C6.96378 3.49756 6.84082 3.57211 6.84082 3.66368C6.84082 3.75524 6.96378 3.8298 7.11682 3.8298C7.26986 3.8298 7.39282 3.75524 7.39282 3.66368Z" fill="white"/>
<path d="M8.70043 3.62315C8.70043 3.53158 8.57748 3.45703 8.42443 3.45703C8.27139 3.45703 8.14844 3.53158 8.14844 3.62315C8.14844 3.71471 8.27139 3.78927 8.42443 3.78927C8.57748 3.78927 8.70043 3.71471 8.70043 3.62315Z" fill="white"/>
<path d="M10.3849 12.1829C10.3692 12.1829 10.3535 12.1751 10.3443 12.1607L8.47249 9.36537C8.45679 9.34314 8.46334 9.31174 8.48557 9.29735C8.50781 9.28296 8.53789 9.2882 8.55359 9.31044L10.4254 12.1057C10.4411 12.128 10.4346 12.1594 10.4123 12.1738C10.4045 12.179 10.394 12.1816 10.3849 12.1816V12.1829Z" fill="white"/>
<path d="M10.6185 11.6624C10.6028 11.6624 10.5871 11.6545 10.5779 11.6401L8.66423 8.71793C8.64984 8.6957 8.65507 8.6643 8.67862 8.64991C8.70085 8.63421 8.73225 8.64076 8.74664 8.66431L10.6603 11.5865C10.6747 11.6087 10.6695 11.6401 10.6459 11.6545C10.6381 11.6597 10.6289 11.6624 10.6185 11.6624Z" fill="white"/>
</svg>
