<svg width="18" height="41" viewBox="0 0 18 41" fill="none" xmlns="http://www.w3.org/2000/svg">
<path d="M4.70456 11.2252C4.59252 11.3116 4.44897 11.4726 4.50615 11.6559C4.56334 11.8403 4.75942 12.076 4.83994 12.1099C4.92047 12.1449 5.04651 12.2359 5.04651 12.2359C5.04651 12.2359 5.57286 11.8356 6.07588 11.4528C6.52637 11.1097 6.95702 10.7806 6.97102 10.7642C7.00137 10.7292 6.98503 9.33806 6.98503 9.33806L6.28712 7.17663C6.28712 7.17663 5.97901 6.77399 5.59854 6.89536C5.21924 7.01557 5.3978 7.03075 5.3978 7.03075C5.3978 7.03075 5.11771 7.30734 5.14455 7.89555C5.16322 8.28769 5.21107 8.38689 5.25425 8.71834C5.28693 8.9751 5.19239 9.11281 4.92047 9.48978C4.64854 9.86675 4.59719 10.057 4.67072 10.1819C4.8096 10.4188 4.93797 10.4935 4.94381 10.6779C4.94964 10.8623 4.8166 11.1377 4.70456 11.2241V11.2252Z" fill="#343434"/>
<path d="M5.50367 9.86329C5.57369 9.77576 5.64722 9.68473 5.68923 9.57852C5.72191 9.49566 5.73475 9.4058 5.74409 9.3276C5.76977 9.11053 5.7826 8.99498 5.7756 8.76974C5.7756 8.75107 5.76043 8.73706 5.74059 8.73706C5.72191 8.73706 5.70674 8.7534 5.7079 8.77207C5.71491 8.99382 5.70324 9.10586 5.67757 9.3206C5.66823 9.39413 5.65656 9.47932 5.62738 9.55518C5.58887 9.65322 5.52235 9.73608 5.45232 9.82244C5.37413 9.91931 5.2936 10.0197 5.25508 10.1422C5.18973 10.35 5.25741 10.5635 5.32394 10.7689L5.34262 10.8285C5.43248 11.1132 5.42431 11.3175 5.31927 11.454C5.3076 11.4692 5.3111 11.4902 5.32511 11.5019C5.33094 11.5065 5.33794 11.5089 5.34611 11.5089C5.35662 11.5089 5.36595 11.5042 5.37295 11.496C5.492 11.3408 5.50367 11.1167 5.4068 10.8098L5.38813 10.7503C5.3251 10.5542 5.25975 10.3511 5.31927 10.1644C5.35428 10.0547 5.42664 9.96366 5.50483 9.86679L5.50367 9.86329Z" fill="white"/>
<path d="M6.10265 10.3967C6.12716 10.343 6.15284 10.2882 6.17035 10.231C6.22403 10.0606 6.21003 9.87619 6.19952 9.71397C6.19719 9.68245 6.19602 9.65561 6.19486 9.6311C6.19019 9.55524 6.18785 9.49455 6.16801 9.40002C6.16451 9.38135 6.14584 9.36968 6.12833 9.37318C6.10966 9.37668 6.09799 9.39419 6.10149 9.41286C6.12017 9.50272 6.1225 9.55874 6.12716 9.6346C6.12833 9.66028 6.1295 9.68712 6.13183 9.71863C6.1435 9.88319 6.15518 10.0536 6.10616 10.2111C6.08982 10.2648 6.06531 10.3173 6.04197 10.3687C6.01396 10.4294 5.98595 10.4912 5.96728 10.5566C5.90192 10.7935 5.97545 11.0316 6.06998 11.2954C6.07465 11.3094 6.08749 11.3175 6.10149 11.3175C6.10499 11.3175 6.10966 11.3175 6.11316 11.3152C6.13067 11.3094 6.14 11.2895 6.133 11.272C6.04197 11.0188 5.97194 10.7923 6.03146 10.5741C6.0478 10.5134 6.07465 10.4562 6.10149 10.3955L6.10265 10.3967Z" fill="white"/>
<path d="M5.18578 11.4154C5.05974 11.5881 5.28499 11.9055 5.28499 11.9055L5.76815 11.3465L5.95022 11.3325C5.95022 11.3325 6.05526 11.3488 6.19414 11.3523C6.23265 11.2251 6.27933 11.1283 6.33652 11.0933C6.58511 10.9427 6.80802 10.6509 6.80802 10.6509V10.6463L6.67381 10.6042C6.67381 10.6042 6.18481 10.7245 5.84635 10.8167C5.50673 10.9089 5.31183 11.2415 5.18578 11.4142V11.4154Z" fill="#343434"/>
<path d="M6.22173 10.7958C6.09802 10.8658 5.99181 10.9662 5.91479 11.0864C5.90428 11.1015 5.90896 11.1226 5.92529 11.1331C5.93113 11.1366 5.93696 11.1389 5.94396 11.1389C5.95447 11.1389 5.96614 11.1331 5.97197 11.1237C6.04316 11.0128 6.1412 10.9206 6.25441 10.8553C6.27075 10.846 6.27658 10.8249 6.26725 10.8098C6.25791 10.7934 6.2369 10.7876 6.22173 10.7969V10.7958Z" fill="white"/>
<path d="M5.78704 10.8529C5.76836 10.8506 5.75202 10.8658 5.75086 10.8844C5.74502 10.9708 5.74852 11.0572 5.75903 11.1412C5.76136 11.1587 5.7742 11.1797 5.79521 11.1855C5.79754 11.1855 5.79988 11.1855 5.80221 11.1855C5.81505 11.1855 5.82905 11.1797 5.83605 11.1704C5.84772 11.1552 5.84422 11.1342 5.82905 11.1225C5.82788 11.1213 5.82555 11.1202 5.82438 11.119C5.81505 11.042 5.81271 10.9638 5.81738 10.8868C5.81855 10.8681 5.80454 10.8518 5.78587 10.8506L5.78704 10.8529Z" fill="white"/>
<path d="M5.49726 11.3057C5.39806 11.3139 5.31286 11.3407 5.24517 11.3839C5.19732 11.4142 5.16348 11.4504 5.14481 11.4913C5.13664 11.5076 5.14481 11.5286 5.16115 11.5368C5.16582 11.5391 5.17048 11.5403 5.17515 11.5403C5.18799 11.5403 5.19965 11.5333 5.20549 11.5216C5.21949 11.4924 5.24517 11.4656 5.28135 11.4423C5.33971 11.4049 5.4144 11.3816 5.5031 11.3746C5.58363 11.3676 5.66649 11.3746 5.74818 11.3804C5.76686 11.3816 5.7832 11.3676 5.78436 11.3489C5.78553 11.3302 5.77152 11.3139 5.75285 11.3127C5.66999 11.3057 5.58362 11.2999 5.49726 11.3069V11.3057Z" fill="white"/>
<path d="M1.26694 9.33458C1.23309 9.32874 1.14557 9.3976 1.14207 9.42444C1.1304 9.51197 0.964671 10.1749 1.14907 10.1445C1.20859 10.1352 1.33813 9.88894 1.36381 9.83409C1.41749 9.72205 1.46651 9.60417 1.47585 9.47813C1.47702 9.45829 1.47585 9.43845 1.46651 9.42094C1.428 9.34742 1.32413 9.34508 1.26694 9.33458Z" fill="white"/>
<path d="M5.79599 11.2847L2.93199 14.7614C2.93199 14.7614 2.32044 13.3306 1.7369 12.663C1.18487 12.0246 0.944457 11.5134 0.944457 11.5134L0.830078 12.698C0.830078 12.698 0.868591 14.1288 1.51515 15.3426C1.80459 15.8853 2.53168 16.9217 3.01835 16.8703C3.20275 16.8505 3.84114 16.1654 3.87616 16.1187C4.6581 15.073 5.76098 13.5115 5.7178 13.3037C5.67462 13.0971 5.83801 11.6079 5.79716 11.2847H5.79599Z" fill="white"/>
<path d="M2.67742 14.2642C2.65991 14.2712 2.65291 14.2922 2.65991 14.3085L3.07423 15.2398C3.08006 15.2527 3.09173 15.2597 3.10457 15.2597C3.10923 15.2597 3.11391 15.2597 3.11858 15.2573C3.13608 15.2503 3.14308 15.2293 3.13608 15.213L2.72177 14.2817C2.7136 14.2642 2.69376 14.2572 2.67742 14.2642Z" fill="white"/>
<path d="M5.79534 11.4154L5.72648 11.3442L5.38219 11.8437C5.38219 11.8437 4.57224 12.9735 4.41352 13.6329C4.3505 13.8966 4.34116 14.1802 4.39251 14.4347C4.46371 14.7976 4.6516 15.0544 4.6516 15.0544L4.90603 14.6914C4.90603 14.6914 4.89786 14.6202 4.78582 14.3611C4.67378 14.102 4.84651 13.2828 4.93521 13.0423C5.02391 12.8008 5.79767 11.4154 5.79767 11.4154H5.79534Z" fill="white"/>
<path d="M0.374068 7.73622L1.29251 7.72709C1.33919 7.72662 1.37691 7.7636 1.37737 7.81028L1.37946 8.02034C1.37993 8.06702 1.34296 8.10474 1.29627 8.1052L0.37783 8.11434C0.331149 8.1148 0.293429 8.07783 0.292965 8.03115L0.290875 7.82109C0.290411 7.77441 0.327387 7.73669 0.374068 7.73622Z" fill="#343434"/>
<path d="M0.370155 7.36049L1.2886 7.35135C1.33528 7.35089 1.373 7.38786 1.37346 7.43454L1.37555 7.64461C1.37602 7.69129 1.33904 7.72901 1.29236 7.72947L0.373917 7.73861C0.327236 7.73907 0.289523 7.7021 0.289059 7.65542L0.286969 7.44535C0.286504 7.39867 0.323474 7.36096 0.370155 7.36049Z" fill="#343434"/>
<path d="M0.366256 6.98476L1.2847 6.97562C1.33138 6.97516 1.36909 7.01213 1.36956 7.05881L1.37165 7.26888C1.37211 7.31556 1.33514 7.35327 1.28846 7.35374L0.370017 7.36287C0.323337 7.36334 0.285617 7.32637 0.285152 7.27968L0.283063 7.06962C0.282598 7.02294 0.319575 6.98522 0.366256 6.98476Z" fill="#343434"/>
<path d="M1.26466 8.03993L0.46875 8.04785L0.77445 38.7755L1.57036 38.7676L1.26466 8.03993Z" fill="#343434"/>
<path d="M0.468795 15.9232L1.38724 15.9141C1.43392 15.9136 1.47163 15.9506 1.4721 15.9973L1.47419 16.2074C1.47465 16.254 1.43768 16.2917 1.391 16.2922L0.472557 16.3014C0.425876 16.3018 0.388156 16.2648 0.387691 16.2182L0.385602 16.0081C0.385137 15.9614 0.422114 15.9237 0.468795 15.9232Z" fill="#343434"/>
<path d="M1.65873 10.0769C1.6844 9.7454 0.880282 9.91697 0.880282 9.91697C0.880282 9.91697 1.29927 9.77575 1.38797 9.70222C1.51985 9.59368 1.40547 9.4583 1.30977 9.47231C1.30977 9.47231 0.979487 9.43263 0.380776 9.74774C0.194044 9.84577 0.133352 9.96131 0.0855021 10.0885C-0.0078642 10.3371 -0.00435726 10.5192 0.00381228 10.9755C0.0108148 11.3992 0.180038 11.859 0.496316 12.0025C0.49048 11.7364 0.47881 11.2486 0.489314 10.8961C0.672545 10.7619 1.1207 11.098 1.23391 10.9382C1.33078 10.8028 0.875616 10.5915 0.875616 10.5915C0.875616 10.5915 1.4825 10.7608 1.54902 10.5775C1.64822 10.3068 0.895455 10.2367 0.895455 10.2367C0.895455 10.2367 1.64472 10.2659 1.6599 10.0734L1.65873 10.0769Z" fill="white"/>
<path d="M0.00312134 10.9778C0.0101238 11.4014 0.179347 11.8613 0.495625 12.0048C0.495625 11.7481 0.478119 11.2509 0.488623 10.8984L0.00195312 10.9778H0.00312134Z" fill="white"/>
<path d="M0.159102 10.1491C0.149765 10.1585 0.146269 10.1713 0.14977 10.1841C0.150937 10.1888 0.153265 10.1935 0.157933 10.1982C0.170771 10.2122 0.19295 10.2122 0.205788 10.1993C0.351672 10.0604 0.885025 9.91572 0.889694 9.91455C0.908367 9.90988 0.918873 9.89121 0.914205 9.87254C0.909537 9.85386 0.890865 9.84336 0.872192 9.84803C0.850017 9.85386 0.317824 9.99858 0.159102 10.1491Z" fill="white"/>
<path d="M0.137536 10.3149C0.12003 10.3207 0.111861 10.3394 0.116529 10.3569C0.116529 10.3569 0.116529 10.3581 0.116529 10.3592C0.123532 10.3767 0.142205 10.3861 0.159711 10.3791C0.446812 10.274 0.761923 10.2717 0.961493 10.3055C0.980166 10.309 0.997675 10.2962 1.00118 10.2775C1.00468 10.2589 0.991841 10.2414 0.973168 10.2378C0.764261 10.2028 0.43514 10.204 0.136368 10.3149H0.137536Z" fill="white"/>
<path d="M0.328483 10.5238C0.310977 10.5297 0.300473 10.5484 0.306308 10.5659C0.312144 10.5834 0.330815 10.5939 0.348321 10.588C0.523383 10.5344 0.81049 10.6055 0.966878 10.6522C0.984385 10.6581 1.00422 10.6476 1.00889 10.6289C1.01473 10.6114 1.00422 10.5915 0.985549 10.5869C0.785978 10.5274 0.509379 10.4667 0.327315 10.5227L0.328483 10.5238Z" fill="white"/>
<path d="M0.478954 10.8495C0.369248 10.909 0.34708 11.0584 0.324905 11.2043C0.307399 11.3234 0.288721 11.4459 0.224531 11.5066C0.215195 11.5159 0.211699 11.5288 0.2152 11.5416C0.216367 11.5463 0.219862 11.5509 0.223363 11.5556C0.236201 11.5696 0.258379 11.5696 0.271217 11.5568C0.351746 11.4797 0.372749 11.3455 0.391423 11.2148C0.411263 11.0806 0.431106 10.9534 0.510467 10.9102C0.569988 10.8775 0.669191 10.8939 0.803405 10.9557C0.820911 10.9639 0.840753 10.9557 0.848922 10.9394C0.857092 10.9219 0.848921 10.902 0.832582 10.8939C0.676193 10.8203 0.559482 10.8063 0.478954 10.8495Z" fill="white"/>
<path d="M1.43457 9.92041L1.45208 10.0616C1.45208 10.0616 1.54545 10.0861 1.57579 10.0581C1.60497 10.0301 1.58279 9.95192 1.52794 9.94025C1.47309 9.92975 1.43574 9.92041 1.43574 9.92041H1.43457Z" fill="white"/>
<path d="M1.34277 10.5519C1.34277 10.5519 1.42097 10.5916 1.48166 10.5729C1.5225 10.5589 1.52834 10.4947 1.48166 10.4632C1.43497 10.4305 1.37195 10.4014 1.37195 10.4014L1.34277 10.5531V10.5519Z" fill="white"/>
<path d="M1.18262 9.53196L1.22697 9.64983C1.22697 9.64983 1.32267 9.62649 1.34601 9.59381C1.36935 9.56113 1.35768 9.51912 1.31916 9.52029C1.28065 9.52029 1.18379 9.53079 1.18379 9.53079L1.18262 9.53196Z" fill="white"/>
<path d="M1.03125 10.8786C1.03125 10.8786 1.12695 10.9358 1.17013 10.9136C1.21215 10.8903 1.19347 10.8448 1.15613 10.8109C1.11878 10.7771 1.06976 10.7712 1.06976 10.7712L1.03242 10.8798L1.03125 10.8786Z" fill="white"/>
<path d="M0.0531177 6.00721C0.0519506 6.06673 0.05312 6.11575 0.0554541 6.14959C0.0671249 6.28147 0.162823 6.67828 0.381066 6.8475C0.59931 7.01673 0.867736 7.05291 0.867736 7.05291C0.867736 7.05291 1.13267 6.99456 1.3369 6.80899C1.54114 6.62226 1.60416 6.21962 1.60533 6.08774C1.60533 6.05389 1.60183 6.00487 1.59599 5.94535C1.51546 5.97103 1.4256 5.9757 1.30539 5.86949C1.24587 5.81697 1.20269 5.74578 1.20036 5.66642C1.19569 5.5007 1.32523 5.36065 1.49213 5.35364C1.49913 5.35364 1.50613 5.35364 1.51197 5.35481C1.50029 5.28362 1.49213 5.23694 1.49213 5.23694L0.616818 0.476425C0.614484 0.463587 0.594643 0.463587 0.593475 0.476425L0.0986354 5.29179C0.0986354 5.29179 0.093964 5.33847 0.0881286 5.41083C0.0951311 5.41083 0.100964 5.4085 0.107967 5.4085C0.274859 5.40149 0.41491 5.53104 0.423079 5.69677C0.426581 5.77613 0.389233 5.85082 0.33438 5.90801C0.222341 6.02355 0.133644 6.02588 0.0507812 6.00721H0.0531177Z" fill="#343434"/>
<path d="M0.631307 1.28174C0.612634 1.28174 0.598633 1.29808 0.598633 1.31675L0.794701 6.8347C0.794701 6.85337 0.809871 6.86737 0.828544 6.86737H0.829712C0.848385 6.86737 0.862394 6.85104 0.862394 6.83236L0.666325 1.31442C0.666325 1.29574 0.648813 1.28174 0.631307 1.28174Z" fill="white"/>
<path d="M0.368804 7.3341C0.35013 7.3341 0.334961 7.34927 0.334961 7.36795C0.334961 7.38662 0.35013 7.40179 0.368804 7.40179L1.2873 7.39246C1.30597 7.39246 1.32114 7.37728 1.32114 7.35861C1.32114 7.33994 1.30714 7.3236 1.2873 7.32477L0.368804 7.3341Z" fill="white"/>
<path d="M0.483069 15.9029C0.464395 15.9029 0.449219 15.918 0.449219 15.9367C0.449219 15.9554 0.464395 15.9705 0.483069 15.9705L1.40156 15.9612C1.42023 15.9612 1.4354 15.946 1.4354 15.9274C1.4354 15.9087 1.41906 15.8912 1.40156 15.8935L0.483069 15.9029Z" fill="white"/>
<path d="M0.471343 16.2706C0.452669 16.2706 0.4375 16.2857 0.4375 16.3044C0.4375 16.3231 0.452669 16.3383 0.471343 16.3383L1.38983 16.3289C1.40851 16.3289 1.42368 16.3137 1.42368 16.2951C1.42368 16.2764 1.40967 16.2647 1.38983 16.2612L0.471343 16.2706Z" fill="white"/>
<path d="M0.373694 7.70636C0.35502 7.70636 0.339844 7.72153 0.339844 7.7402C0.339844 7.75888 0.35502 7.77405 0.373694 7.77405L1.29218 7.76471C1.31086 7.76471 1.32603 7.74954 1.32603 7.73087C1.32603 7.71219 1.30852 7.69702 1.29218 7.69702L0.373694 7.70636Z" fill="white"/>
<path d="M15.7136 31.6094C16.0416 31.5977 16.1384 31.7016 16.5586 31.7763C16.9787 31.851 17.3569 31.8627 17.5564 31.8627C18.0396 31.8627 17.9591 31.46 17.9591 31.46C17.9591 31.46 17.7385 30.7773 17.3872 30.7038C16.7617 30.5742 13.6164 23.4994 13.6852 22.9182C13.7541 22.337 13.4495 20.6984 13.4495 20.6984C13.4495 20.6984 12.3571 14.4405 12.1844 14.0776C12.0117 13.7146 11.2706 12.3293 11.0465 12.0048C10.8224 11.6792 9.68217 11.07 9.5036 11.0735C9.32387 11.077 7.55342 11.2614 7.0329 11.2556C6.51238 11.2497 5.8028 11.2556 5.8028 11.2556C5.8028 11.2556 5.02902 12.5464 4.94266 13.1917C4.8563 13.836 4.92515 15.2505 4.94266 16.0604C4.96017 16.8704 4.28793 19.941 4.28793 19.941L1.56281 28.4665L1.30371 29.162C1.30371 29.162 1.63983 29.0045 2.03664 29.0897C2.43345 29.1761 2.58867 29.2449 2.59684 29.4515C2.60501 29.6581 2.61434 30.0549 2.6657 30.1331C2.71705 30.2101 2.88978 30.3921 3.09635 30.426C3.30292 30.461 3.76042 30.538 3.76042 30.538C3.76042 30.538 8.47191 31.1507 9.92376 31.53C11.3744 31.9093 10.9613 32.3925 12.3921 32.5477C13.823 32.703 14.8932 32.3237 14.8932 32.3237C14.8932 32.3237 15.4907 32.2315 15.5024 32.1113C15.5141 31.991 15.4627 31.7775 15.4627 31.7775C15.4627 31.7775 15.388 31.6222 15.716 31.6106L15.7136 31.6094Z" fill="#343434"/>
<path d="M9.11099 14.5992C9.15067 14.8688 9.38642 15.2259 9.38642 15.2259L11.8875 15.5247L11.5163 14.7054C11.5163 14.7054 11.137 13.515 11.0588 13.2746C10.9818 13.033 10.4986 11.9033 10.2851 11.6967C10.159 11.5753 9.7167 11.5111 9.53814 11.5298C9.33974 11.6675 9.11566 12.1799 9.04681 12.6969C8.98495 13.1625 9.09816 14.1802 9.09816 14.1802C9.09816 14.1802 9.08182 14.1896 9.05381 14.2047C9.07481 14.353 9.09465 14.4942 9.10982 14.5992H9.11099Z" fill="white"/>
<path d="M3.93783 24.5368C3.33212 26.0773 2.92131 27.6914 2.71707 29.3347C2.71474 29.3533 2.72757 29.3697 2.74625 29.372C2.74741 29.372 2.74858 29.372 2.75091 29.372C2.76725 29.372 2.78242 29.3592 2.78476 29.3428C2.98783 27.7054 3.39748 26.0972 4.00086 24.5613C4.00786 24.5438 3.99969 24.524 3.98218 24.5181C3.96467 24.5111 3.94483 24.5193 3.939 24.5368H3.93783Z" fill="white"/>
<path d="M15.2445 30.7493C15.2258 30.7528 15.2141 30.7714 15.2188 30.7889C15.2783 31.0714 15.3542 31.3048 15.4499 31.6001C15.4791 31.6911 15.5106 31.7868 15.5432 31.8918C15.5479 31.9058 15.5608 31.9152 15.5759 31.9152C15.5794 31.9152 15.5829 31.9152 15.5864 31.914C15.6039 31.9082 15.6144 31.8895 15.6086 31.872C15.5759 31.767 15.5444 31.6713 15.5152 31.5802C15.4207 31.2873 15.346 31.055 15.2865 30.7761C15.283 30.7574 15.2643 30.7469 15.2468 30.7504L15.2445 30.7493Z" fill="white"/>
<path d="M7.17988 12.0701C7.3421 11.8694 7.86145 11.2135 7.93497 10.7478C8.0085 10.2822 7.81126 8.93652 7.81126 8.93652L6.87527 9.33917L6.80875 10.6498C6.80875 10.6498 6.48663 10.9812 6.23805 11.133C5.98946 11.2835 5.97545 12.4949 5.97662 12.5638C5.97779 12.6327 5.97662 13.0411 5.97662 13.0411C5.97662 13.0411 6.98964 12.3059 7.17988 12.0701Z" fill="white"/>
<path d="M5.40411 3.92164C4.70269 4.16322 4.64551 4.58804 4.64551 4.58804C4.64551 4.58804 5.01314 4.79461 5.26173 4.97901C5.51032 5.16341 5.80092 5.63374 5.80092 5.63374C5.80092 5.63374 6.62838 5.49253 7.11505 5.70377C7.60172 5.91384 7.84214 6.76114 7.84214 6.76114C7.84214 6.76114 8.37783 8.49425 8.74896 7.95039C9.12009 7.40653 9.16327 6.49621 9.16327 6.49621C9.16327 6.49621 9.23796 5.19375 8.46769 4.33478C7.62973 3.39879 6.10552 3.67889 5.40411 3.92047V3.92164Z" fill="white"/>
<path d="M7.559 4.40471C7.57067 4.40004 7.57884 4.38837 7.58001 4.37437C7.58001 4.35569 7.566 4.34052 7.54733 4.33936C7.4808 4.33936 7.24272 4.79218 7.20888 4.87621C7.13185 5.06528 7.098 5.24501 7.10967 5.40957C7.11084 5.42707 7.12601 5.44108 7.14352 5.44108C7.14352 5.44108 7.14469 5.44108 7.14586 5.44108C7.16453 5.43991 7.17853 5.42357 7.17736 5.4049C7.16686 5.25084 7.19837 5.08162 7.2719 4.90189C7.33725 4.742 7.52282 4.43972 7.56017 4.40471H7.559Z" fill="white"/>
<path d="M7.75036 5.12836C7.61498 5.24507 7.52511 5.38161 7.49127 5.52166C7.4866 5.54034 7.49827 5.55784 7.51578 5.56251C7.51811 5.56251 7.52161 5.56251 7.52395 5.56251C7.53912 5.56251 7.55312 5.55201 7.55662 5.53684C7.59514 5.37578 7.70718 5.25324 7.79354 5.17854C7.9616 5.03382 8.19619 4.92412 8.2312 4.91828C8.24754 4.91828 8.26271 4.90545 8.26504 4.88911C8.26738 4.87043 8.25454 4.85409 8.23586 4.85176C8.19268 4.84242 7.92075 4.98247 7.74919 5.12836H7.75036Z" fill="white"/>
<path d="M7.97022 6.11682C7.96205 6.13316 7.96905 6.15416 7.98539 6.16233C7.99005 6.16467 7.99589 6.16584 8.00056 6.16584C8.0134 6.16584 8.02507 6.15883 8.0309 6.14716C8.13244 5.94526 8.34952 5.7877 8.64362 5.70367C8.66113 5.699 8.67163 5.68033 8.66696 5.66166C8.6623 5.64415 8.64362 5.63365 8.62495 5.63832C8.31217 5.72818 8.07993 5.89741 7.97022 6.11682Z" fill="white"/>
<path d="M6.3918 4.20049C6.42798 4.1433 6.45599 4.09895 6.41631 4.03827C6.34162 3.92623 6.13854 3.88655 5.8106 3.92039C5.38578 3.96357 5.11502 4.12463 5.10335 4.13163C5.08701 4.14097 5.08233 4.16198 5.09167 4.17831C5.10101 4.19465 5.12202 4.19932 5.13836 4.18999C5.14069 4.18882 5.40912 4.02893 5.8176 3.98808C6.10937 3.95774 6.3031 3.98925 6.36028 4.07678C6.37429 4.09779 6.37196 4.10712 6.33578 4.16548C6.2821 4.25067 6.19223 4.39422 6.16072 4.73151C6.13388 5.02328 6.16422 5.34423 6.16538 5.34656C6.16655 5.36407 6.18172 5.3769 6.19923 5.3769C6.19923 5.3769 6.20157 5.3769 6.20273 5.3769C6.22141 5.37457 6.23541 5.35823 6.23308 5.33956C6.23308 5.33606 6.20156 5.02211 6.2284 4.73735C6.25875 4.41523 6.34278 4.28102 6.39297 4.20049H6.3918Z" fill="white"/>
<path d="M5.64026 6.95025C5.58424 7.08679 5.5609 7.83139 5.58657 7.99245C5.68461 8.6075 5.85267 9.09067 6.21563 9.41161C6.62761 9.77691 7.33719 9.45246 7.77835 8.74288C7.80403 8.70203 7.82853 8.66002 7.85188 8.61683C8.04094 8.26788 8.03044 8.00995 8.10396 7.80338C8.17749 7.59681 8.18799 7.02611 7.67681 6.34687C7.3652 5.93372 5.92503 6.25233 5.64026 6.95141V6.95025Z" fill="white"/>
<path d="M7.50362 9.28444C7.69036 9.09187 7.91677 8.50366 7.91677 8.50366C7.91677 8.50366 7.69269 8.89113 7.43943 9.13739C7.29122 9.2821 6.86523 9.52486 6.86523 9.52486C6.86523 9.52486 7.20835 9.58905 7.50362 9.28444Z" fill="#343434"/>
<path d="M6.34698 8.57132C6.38433 8.60984 6.44735 8.61567 6.50221 8.6075C6.52905 8.604 6.55239 8.597 6.57106 8.59C6.5909 8.58183 6.60024 8.55965 6.59207 8.53981C6.5839 8.51997 6.56172 8.51063 6.54188 8.5188C6.49637 8.53748 6.42401 8.54098 6.40183 8.5188C6.38433 8.50013 6.3995 8.45695 6.41 8.43244C6.47653 8.27955 6.46952 8.03913 6.42984 7.88158C6.39483 7.7462 6.32714 7.668 6.13574 7.65283C6.15675 7.66567 6.17309 7.68318 6.18593 7.70185C6.2186 7.71585 6.24311 7.73686 6.26178 7.7637C6.31547 7.79405 6.33881 7.84073 6.35515 7.90025C6.39133 8.04147 6.39833 8.26555 6.33998 8.40093C6.29913 8.4943 6.32131 8.54565 6.34815 8.57249L6.34698 8.57132Z" fill="#343434"/>
<path d="M6.6434 7.6879C6.6434 7.6879 6.60606 7.8828 6.66558 7.80344C6.80096 7.62255 7.26313 7.53735 7.23862 7.51051C7.1931 7.46032 6.8243 7.39146 6.6434 7.6879Z" fill="#343434"/>
<path d="M5.83008 7.53393C5.83475 7.60629 6.32609 7.81519 6.32609 7.81519C6.32609 7.81519 6.3821 7.70782 6.21871 7.58761C6.05415 7.4674 5.82658 7.46157 5.83125 7.53393H5.83008Z" fill="#343434"/>
<path d="M6.96405 8.24116C6.86368 8.25517 6.79132 8.33336 6.80299 8.41506C6.81466 8.49675 6.90453 8.55277 7.0049 8.53877C7.10527 8.52476 7.17763 8.44657 7.16596 8.36487C7.15429 8.28318 7.06442 8.22716 6.96405 8.24116Z" fill="white"/>
<path d="M5.97284 8.24116C5.87247 8.25517 5.80011 8.33336 5.81178 8.41506C5.82345 8.49675 5.91332 8.55277 6.01369 8.53877C6.11406 8.52476 6.18641 8.44657 6.17474 8.36487C6.16307 8.28318 6.07321 8.22716 5.97284 8.24116Z" fill="white"/>
<path d="M5.9048 7.90237C5.86162 7.97707 5.8873 8.07277 5.96082 8.11595C6.03551 8.15913 6.13121 8.13345 6.17439 8.05876C6.21757 7.98407 6.1919 7.88837 6.11837 7.84519C6.04368 7.802 5.94798 7.82768 5.9048 7.90237Z" fill="#343434"/>
<path d="M5.88732 7.89433C5.88732 7.89433 5.77528 7.85349 5.77178 7.86982C5.76711 7.892 5.81846 7.94218 5.87798 7.97136C5.95267 8.00871 6.04954 8.00521 6.00052 7.90834C5.98418 7.87683 5.9235 7.90834 5.88732 7.8955V7.89433Z" fill="#343434"/>
<path d="M5.92538 8.04727C5.93004 8.08228 5.96155 8.10796 5.99657 8.10329C6.03041 8.09862 6.05491 8.06595 6.05025 8.03093C6.04558 7.99592 6.01407 7.97025 5.97906 7.97491C5.94521 7.97958 5.92071 8.01226 5.92538 8.04727Z" fill="white"/>
<path d="M6.8296 7.9014C6.78642 7.97609 6.8121 8.07179 6.88562 8.11497C6.96031 8.15815 7.05602 8.13248 7.0992 8.05779C7.14238 7.98309 7.1167 7.88739 7.04317 7.84421C6.96848 7.80103 6.87279 7.8267 6.8296 7.9014Z" fill="#343434"/>
<path d="M7.16327 8.02285C7.20645 8.01352 7.3465 7.94466 7.3465 7.94466C7.3465 7.94466 7.22046 7.94466 7.1481 7.94699C7.07574 7.94933 7.01855 7.92482 7.01855 7.92832C7.03373 8.00418 7.04306 8.0497 7.16327 8.02169V8.02285Z" fill="#343434"/>
<path d="M6.84627 8.04263C6.85094 8.07765 6.88246 8.10332 6.91747 8.09865C6.95132 8.09399 6.97582 8.06131 6.97115 8.02629C6.96648 7.99128 6.93497 7.96561 6.89996 7.97028C6.86612 7.97494 6.84161 8.00762 6.84627 8.04263Z" fill="white"/>
<path d="M6.53477 8.71851C6.31536 8.72434 6.12046 8.92391 6.32119 9.02078C6.42623 9.07096 6.62347 9.0768 6.72967 9.02428C6.8207 8.97876 6.84404 8.86439 6.75768 8.79903C6.68649 8.74535 6.61763 8.71734 6.53477 8.71967V8.71851Z" fill="white"/>
<path d="M6.14488 8.86199C6.12971 8.87249 6.12505 8.8935 6.13555 8.90867C6.14255 8.91801 6.15305 8.92384 6.16356 8.92384C6.16706 8.92384 6.17056 8.92384 6.17406 8.92151C6.21607 8.91451 6.59771 8.91217 6.83112 8.91217C6.8498 8.91217 6.86497 8.897 6.86497 8.87833C6.86497 8.85965 6.8498 8.84448 6.83112 8.84448C6.16939 8.84448 6.15422 8.85499 6.14372 8.86082L6.14488 8.86199Z" fill="#343434"/>
<path d="M8.45046 10.8694C8.57067 10.9616 8.93014 10.7655 9.26625 10.8344C9.60237 10.9032 10.4392 11.2312 10.4392 11.2312L10.7146 11.1705C10.7146 11.1705 10.8395 10.8904 10.9212 10.7865C11.0029 10.6826 11.1277 10.7562 11.1277 10.7562C11.1277 10.7562 11.0075 10.5578 10.8687 10.5239C10.7309 10.4889 10.6014 10.5589 10.3166 10.5239C10.0319 10.4889 10.1007 10.2648 9.98868 10.1073C9.87664 9.94971 9.80778 9.46304 9.6864 9.28214C9.56619 9.10124 9.39346 9.16193 9.0305 9.06273C8.66754 8.96353 8.73406 8.82698 8.68504 8.39166C8.6407 7.99252 8.61619 7.85014 8.58118 7.5642C8.54617 7.27827 7.94629 7.2771 7.94629 7.2771C7.94629 7.2771 8.08166 7.51402 8.10034 7.80228C8.12018 8.09055 8.01165 8.48853 8.01165 8.89117C8.01165 9.29381 8.29641 9.97188 8.3606 10.3862C8.42479 10.8005 8.32559 10.7772 8.44579 10.8694H8.45046Z" fill="#343434"/>
<path d="M9.15439 9.5587C9.0797 9.53536 9.00384 9.51202 8.92214 9.46184C8.74708 9.35563 8.69806 9.28677 8.49616 8.97867C8.30009 8.67989 8.29426 7.38677 8.29426 7.37393C8.29426 7.35526 8.27909 7.34009 8.26041 7.34009C8.24174 7.34009 8.22656 7.35526 8.22656 7.37393C8.22656 7.42762 8.2324 8.7009 8.43897 9.01601C8.64438 9.32879 8.69923 9.40698 8.88596 9.52019C8.97466 9.57388 9.05519 9.59955 9.13338 9.62406C9.21508 9.64974 9.29211 9.67308 9.36563 9.73026C9.50101 9.8353 9.5512 10.0477 9.5512 10.0489C9.5547 10.064 9.5687 10.0746 9.58387 10.0746C9.58621 10.0746 9.58854 10.0746 9.59088 10.0746C9.60955 10.0699 9.62006 10.0524 9.61656 10.0337C9.61422 10.0244 9.56053 9.79679 9.40648 9.67658C9.32361 9.61239 9.24075 9.58671 9.15322 9.5587H9.15439Z" fill="white"/>
<path d="M8.90894 10.1306C8.39893 9.95552 8.15151 8.6694 8.14917 8.65539C8.14567 8.63672 8.12816 8.62505 8.10949 8.62855C8.09082 8.63205 8.07915 8.64956 8.08265 8.66823C8.09315 8.72308 8.33941 10.0057 8.88677 10.1948C9.13069 10.2788 9.23572 10.3231 9.56834 10.5029C9.89045 10.6756 10.0562 10.8402 10.0573 10.8425C10.0643 10.8495 10.0725 10.8518 10.0807 10.8518C10.0889 10.8518 10.0982 10.8483 10.104 10.8425C10.1169 10.8297 10.1169 10.8075 10.104 10.7946C10.097 10.7876 9.93013 10.6219 9.59868 10.4434C9.2614 10.2613 9.15403 10.2158 8.90661 10.1306H8.90894Z" fill="white"/>
<path d="M9.53972 11.5299L8.14273 10.9639L7.37012 11.7563C7.37012 11.7563 6.81459 12.3072 6.67921 12.4204C6.54383 12.5336 6.15169 12.9339 6.05249 12.9374C5.92528 12.6094 6.16453 11.2673 6.16453 11.2673L5.79573 11.4132C5.79573 11.4132 5.19936 12.4075 5.10716 12.6141C5.05581 12.7308 5.20869 13.9936 5.66152 13.9959C6.11435 13.9971 6.64187 13.9563 7.3923 14.3507C8.14273 14.7452 9.1009 14.178 9.1009 14.178C9.1009 14.178 8.90599 13.5244 9.04954 12.6946C9.1184 12.2967 9.54089 11.5276 9.54089 11.5276L9.53972 11.5299Z" fill="#343434"/>
<path d="M6.1372 11.4214C6.07885 11.782 5.95046 12.6783 6.05083 12.9386C6.15003 12.9339 6.54218 12.5336 6.67756 12.4216C6.81294 12.3084 7.36847 11.7575 7.36847 11.7575L7.47234 11.6501C7.3603 11.7167 6.988 11.9909 6.48032 12.4379C6.29359 12.6025 6.12436 12.7052 6.08935 12.6106C6.07068 12.5593 6.16171 11.4214 6.16171 11.4214H6.13603H6.1372Z" fill="white"/>
<path d="M8.62011 12.9899C8.62011 12.9899 8.43338 12.809 8.14277 12.6281C7.85217 12.4472 7.35266 12.481 6.95585 12.6362C6.55904 12.7915 6.00702 13.1276 6.00702 13.1276C6.00702 13.1276 5.73509 12.8078 5.50284 12.7063C5.2706 12.6047 4.99633 12.6607 4.99633 12.6607C4.99633 12.6607 4.62403 13.291 4.57151 13.5851C4.46531 14.1756 4.60186 14.7568 4.93214 14.8467C5.36513 14.9646 6.08638 14.7895 6.17624 14.7895C6.26611 14.7895 6.52987 14.835 6.9897 14.9844C7.44953 15.1338 7.93737 15.1221 8.24548 14.8689C8.55359 14.6156 8.48706 14.1779 8.43338 13.9492C8.38202 13.731 8.43338 13.3738 8.43338 13.3738L8.62011 12.9887V12.9899Z" fill="white"/>
<path d="M7.38893 12.8534C7.09132 12.8697 6.70502 13.0413 6.44943 13.1545L6.41559 13.1697C6.20901 13.2607 5.9896 13.4054 5.91724 13.4544C5.84022 13.3716 5.56011 13.0833 5.31619 12.9888C5.1528 12.9258 4.91122 12.9386 4.90071 12.9398C4.88204 12.9398 4.86804 12.9573 4.86921 12.9748C4.86921 12.9935 4.88788 13.0098 4.90422 13.0063C4.90655 13.0063 5.1423 12.9935 5.29169 13.0518C5.55662 13.1533 5.8834 13.5175 5.8869 13.521C5.8939 13.528 5.90323 13.5326 5.91257 13.5326C5.91957 13.5326 5.92658 13.5303 5.93242 13.5268C5.93475 13.5245 6.20318 13.3377 6.4436 13.2315L6.47744 13.2164C6.72836 13.1055 7.10883 12.9374 7.39359 12.9211C7.66085 12.9059 7.83009 12.9281 7.97597 12.9981C8.10201 13.0576 8.32142 13.2771 8.32259 13.2794C8.33543 13.2922 8.35761 13.2922 8.37044 13.2794C8.38328 13.2665 8.38328 13.2444 8.37044 13.2315C8.36111 13.2222 8.14053 13.0028 8.00515 12.9374C7.84759 12.8627 7.67019 12.8382 7.38893 12.8534Z" fill="white"/>
<path d="M5.57714 18.215C5.55846 18.3188 5.3869 18.6118 5.3869 18.6118L6.36842 19.6983L6.90761 20.1558C6.90761 20.1558 8.40731 19.0261 8.92316 18.9397C9.439 18.8533 10.0832 18.767 10.0832 18.767C10.0832 18.767 9.23243 15.8703 9.18108 15.6801C9.12972 15.4898 9.10055 14.1792 9.10055 14.1792L8.47266 14.422C8.45398 14.5842 8.3933 14.7487 8.24508 14.8689C7.93698 15.1222 7.4503 15.1339 6.98931 14.9845C6.52948 14.8351 6.26571 14.7896 6.17585 14.7896C6.1175 14.7896 5.78955 14.8643 5.44759 14.8829L5.38574 14.9285C5.38574 14.9285 5.96228 16.2496 5.92376 16.6289C5.88525 17.0082 5.59465 18.1123 5.57598 18.215H5.57714Z" fill="white"/>
<path d="M8.64022 12.963C8.62505 12.9525 8.60404 12.9548 8.59354 12.97C8.33911 13.3178 8.38346 13.7017 8.40447 13.8873C8.40797 13.9153 8.41031 13.9398 8.41147 13.9585C8.43131 14.2561 8.43248 14.6728 8.22358 14.8432C7.94698 15.0707 7.48948 15.1116 6.99931 14.9517C6.55115 14.8058 6.27572 14.7545 6.17535 14.7545C6.15317 14.7545 6.10649 14.7626 6.02946 14.7755C5.78321 14.8175 5.27087 14.9027 4.94058 14.8128C4.92191 14.8081 4.90441 14.8186 4.89857 14.8361C4.8939 14.8537 4.9044 14.8723 4.92191 14.8782C5.26736 14.9715 5.78905 14.884 6.03997 14.842C6.10299 14.8315 6.15784 14.8221 6.17535 14.8221C6.25237 14.8221 6.5068 14.863 6.9783 15.0159C7.18254 15.0824 7.38094 15.1151 7.56534 15.1151C7.84311 15.1151 8.08819 15.0404 8.26559 14.8957C8.49784 14.7054 8.49784 14.2666 8.478 13.9538C8.47683 13.934 8.47333 13.9083 8.46983 13.8791C8.44765 13.6889 8.40681 13.3365 8.64606 13.0097C8.65656 12.9945 8.65423 12.9735 8.63905 12.963H8.64022Z" fill="white"/>
<path d="M7.8363 11.49C8.00319 11.2309 7.95301 11.1703 8.19459 11.0034C8.43618 10.8365 8.46885 10.8691 8.46885 10.5529C8.46885 10.2366 8.1234 9.43714 8.06621 9.11036C8.00902 8.78241 8.20976 8.0063 8.17592 7.72504C8.14907 7.50796 8.0312 7.25237 7.97751 7.14617C7.85847 7.12983 7.28894 7.09365 7.15589 7.08081C7.17106 7.10649 7.68107 7.30839 7.58421 7.73087C7.48384 8.16619 7.44066 8.43462 7.58654 8.91896L7.73476 9.67056C7.79312 9.86079 7.83163 10.1362 7.73476 10.4898C7.6379 10.8435 7.26443 11.0069 7.1839 11.3266C7.10337 11.6453 7.21541 11.9615 7.24342 12.0992C7.2726 12.237 7.34729 12.3058 7.34729 12.3058C7.34729 12.3058 7.27843 12.0876 7.3753 11.9779C7.47217 11.8682 7.66824 11.748 7.83513 11.4889L7.8363 11.49Z" fill="#343434"/>
<path d="M8.23744 10.9334C8.20943 10.9521 8.17792 10.9719 8.14408 10.9964C8.12891 11.007 8.1254 11.028 8.13591 11.0431C8.14291 11.0525 8.15341 11.0571 8.16392 11.0571C8.17092 11.0571 8.17675 11.0548 8.18259 11.0513C8.21643 11.028 8.24795 11.0081 8.27479 10.9894C8.44402 10.8786 8.5012 10.8412 8.5012 10.5518C8.5012 10.3604 8.38449 10.0138 8.27129 9.67882C8.19426 9.45124 8.1219 9.23533 8.09856 9.10345C8.06822 8.93189 8.11256 8.62961 8.15458 8.33668C8.19076 8.08809 8.22461 7.85234 8.20827 7.71929C8.17325 7.43103 8.05421 7.29098 8.04955 7.28514C8.03671 7.27114 8.0157 7.26997 8.00169 7.28164C7.98769 7.29331 7.98652 7.31548 7.99819 7.32949C7.99819 7.33066 8.10906 7.46137 8.14174 7.72746C8.15691 7.85234 8.12307 8.08342 8.08805 8.32734C8.04487 8.62495 8.00052 8.93189 8.03204 9.11512C8.05654 9.25283 8.13007 9.47108 8.2071 9.70099C8.3133 10.0161 8.43351 10.3721 8.43351 10.5518C8.43351 10.8039 8.39967 10.8261 8.23744 10.9323V10.9334Z" fill="white"/>
<path d="M7.54057 11.3465C7.5254 11.357 7.5219 11.378 7.5324 11.3932C7.53941 11.4025 7.54992 11.4072 7.56042 11.4072C7.56742 11.4072 7.57326 11.4049 7.57909 11.4014C7.82418 11.2321 8.15096 10.6848 8.15096 10.3557C8.15096 10.1024 8.04825 9.72195 7.95722 9.38583C7.90937 9.2096 7.86503 9.04387 7.84519 8.9295C7.81484 8.75677 7.84752 8.50352 7.87786 8.25726C7.9047 8.04836 7.92921 7.85112 7.91287 7.71807C7.87786 7.4298 7.75882 7.28975 7.75415 7.28392C7.74131 7.26991 7.72031 7.26875 7.70631 7.28042C7.6923 7.29209 7.69113 7.31426 7.7028 7.32827C7.7028 7.32944 7.81367 7.46015 7.84635 7.72624C7.86152 7.85112 7.83701 8.04369 7.81134 8.24909C7.77983 8.49885 7.74715 8.75794 7.77866 8.94117C7.79967 9.05905 7.84402 9.22594 7.89303 9.40333C7.9829 9.73478 8.08444 10.1106 8.08444 10.3557C8.08444 10.6603 7.76816 11.189 7.54174 11.3454L7.54057 11.3465Z" fill="white"/>
<path d="M6.61392 6.54286C6.36066 6.6549 6.25562 6.76111 6.25562 6.76111C6.25562 6.76111 5.7853 6.61522 5.66975 6.59888C5.28462 6.5452 5.20876 6.68758 5.16441 6.7506C5.12006 6.81362 5.21226 7.37382 5.21226 7.37382C5.21226 7.37382 5.20759 7.2151 5.56471 7.2151C5.92184 7.2151 6.35483 7.52788 6.35483 7.52788H6.39101C6.39101 7.52788 6.62092 7.29679 6.76331 7.26995C6.76331 7.26995 6.79715 7.2151 7.23364 7.2151C7.67012 7.2151 8.36687 7.34114 8.36687 7.34114L8.43806 6.81246C8.43806 6.81246 7.94789 6.57904 7.69346 6.50435C7.48689 6.44366 6.99205 6.37597 6.61509 6.54169L6.61392 6.54286Z" fill="#343434"/>
<path d="M6.67534 5.43406C6.35206 5.45507 5.90273 5.65814 5.8082 5.74451C5.72184 5.8227 5.58178 5.98026 5.48375 6.16932C5.40789 6.31638 5.35304 6.52762 5.33203 6.61631C5.42306 6.59181 5.53394 6.5813 5.66698 6.59998C5.78252 6.61631 6.25286 6.7622 6.25286 6.7622C6.25286 6.7622 6.3579 6.656 6.61115 6.54396C6.98695 6.37823 7.48296 6.44592 7.68953 6.50661C7.86109 6.55679 8.13886 6.67934 8.30225 6.75286C8.30225 6.75286 8.36527 6.27086 8.11435 5.94291C7.94746 5.72467 7.37792 5.38738 6.673 5.43406H6.67534Z" fill="#343434"/>
<path d="M5.90294 6.06434C5.92628 6.12152 5.9858 6.40862 5.9858 6.40862L6.36977 6.3526L6.24489 5.47729L5.76172 5.62785C5.76172 5.62785 5.83408 5.89511 5.90294 6.06434Z" fill="#343434"/>
<path d="M6.91755 5.34311C6.7028 5.33494 6.24414 5.47733 6.24414 5.47733L6.36902 6.35263C6.36902 6.35263 6.46005 6.13322 6.57559 5.9815C6.69113 5.82978 6.83002 5.80878 7.09261 5.75042C7.3552 5.69207 7.8407 5.75042 7.8407 5.75042C7.8407 5.75042 7.76835 5.63605 7.69015 5.56369C7.5431 5.42948 7.2735 5.35712 6.91638 5.34428L6.91755 5.34311Z" fill="#343434"/>
<path d="M6.59999 6.51243C6.39458 6.60229 6.28488 6.68982 6.24637 6.72367C6.1565 6.69566 5.77836 6.58012 5.67333 6.56611C5.55078 6.54861 5.43408 6.55561 5.32437 6.58362C5.30687 6.58829 5.29519 6.60696 5.29986 6.62447C5.30453 6.64197 5.32321 6.65364 5.34071 6.64897C5.44108 6.62213 5.54962 6.61746 5.66283 6.63264C5.77487 6.64781 6.23936 6.79252 6.24403 6.79369C6.24753 6.79369 6.25104 6.79486 6.25454 6.79486C6.26387 6.79486 6.27204 6.79136 6.27904 6.78436C6.27904 6.78436 6.38408 6.68049 6.628 6.57311C6.97228 6.42139 7.44729 6.46808 7.68304 6.53693C7.8546 6.58712 8.1382 6.712 8.29108 6.78202C8.30859 6.79019 8.32843 6.78202 8.33543 6.76568C8.3436 6.74818 8.33544 6.72834 8.3191 6.72133C8.16388 6.65014 7.87794 6.5241 7.70171 6.47275C7.49047 6.41089 6.98863 6.3397 6.59999 6.51126V6.51243Z" fill="white"/>
<path d="M6.23541 5.46802L5.75223 5.59523C5.7429 5.59756 5.7359 5.6034 5.73123 5.61157C5.72656 5.61974 5.7254 5.62907 5.72773 5.63724L5.94947 6.40518C5.95414 6.42035 5.96698 6.42969 5.98215 6.42969C5.98449 6.42969 5.98682 6.42969 5.98915 6.42969L6.36962 6.34683C6.38713 6.34333 6.3988 6.32699 6.3953 6.30948L6.27626 5.49836C6.27509 5.48903 6.26926 5.48086 6.26109 5.47502C6.25292 5.46918 6.24358 5.46802 6.23424 5.47035L6.23541 5.46802ZM6.32527 6.28614L6.00666 6.35616L5.80359 5.65125L6.21674 5.54271L6.32644 6.28614H6.32527Z" fill="white"/>
<path d="M7.33444 5.67101C6.47197 5.69902 6.35526 6.2989 6.35409 6.30473C6.35059 6.32341 6.36343 6.34091 6.38093 6.34441C6.38327 6.34441 6.38444 6.34441 6.38678 6.34441C6.40311 6.34441 6.41712 6.33274 6.41945 6.3164C6.42295 6.29423 6.53032 5.76321 7.3356 5.73753C7.57019 5.73053 7.83278 5.78072 7.83512 5.78072C7.85379 5.78422 7.8713 5.77255 7.8748 5.75387C7.8783 5.7352 7.86663 5.71769 7.84795 5.71419C7.83745 5.71186 7.57719 5.66167 7.33327 5.66984L7.33444 5.67101Z" fill="white"/>
<path d="M6.11886 7.11933C6.10486 7.11933 6.3056 7.32356 6.3056 7.32356L6.45498 7.12516L6.24491 6.92676C6.23674 6.95243 6.13287 7.11933 6.11886 7.11933Z" fill="white"/>
<path d="M6.29431 7.35048C6.30015 7.35515 6.30715 7.35631 6.31415 7.35631C6.32466 7.35631 6.33516 7.35165 6.34217 7.34231L6.48455 7.14391C6.49388 7.1299 6.49272 7.11123 6.47988 7.09956L6.26981 6.90115C6.2558 6.88832 6.23479 6.88948 6.22195 6.90232C6.20912 6.91633 6.21029 6.93733 6.22312 6.95017L6.41102 7.12874L6.28614 7.30263C6.27564 7.3178 6.27914 7.33881 6.29431 7.34931V7.35048Z" fill="#343434"/>
<path d="M7.23112 7.18256C6.96853 7.18256 6.80513 7.21291 6.74561 7.23975C6.61957 7.29577 6.42 7.44982 6.37448 7.49417H6.36281C6.29629 7.44749 5.90064 7.1814 5.56219 7.1814C5.39763 7.1814 5.28326 7.21407 5.22141 7.27826C5.17589 7.32495 5.17589 7.37046 5.17706 7.37513C5.17706 7.3938 5.19223 7.40781 5.21091 7.40781C5.22958 7.40781 5.24358 7.39264 5.24475 7.37396C5.24475 7.3728 5.25175 7.24909 5.56336 7.24909C5.90531 7.24909 6.32897 7.55253 6.33364 7.55603C6.33947 7.5607 6.34647 7.56186 6.35347 7.56186H6.38965C6.39899 7.56186 6.40716 7.55836 6.41416 7.55136C6.47602 7.48951 6.66625 7.34362 6.76895 7.30394C6.80163 7.2911 6.84948 7.25025 7.23345 7.25025C7.66177 7.25025 8.35385 7.37513 8.36085 7.3763C8.37836 7.37863 8.39703 7.36696 8.40053 7.34946C8.40403 7.33078 8.39119 7.31328 8.37369 7.30978C8.36668 7.30861 7.66877 7.18256 7.23462 7.18256H7.23112Z" fill="white"/>
<path d="M15.4759 26.0098C15.079 25.1999 14.4243 22.9229 14.3029 22.4059C14.1827 21.8889 13.9061 20.8537 13.8886 19.6469C13.8711 18.4401 13.13 15.75 13.0262 15.3696C12.9223 14.9903 11.5545 12.2255 11.2324 11.7773C10.9102 11.3291 10.203 10.895 10.0384 10.8168C9.84004 10.7234 9.09894 10.7094 8.74882 10.7304C8.24464 10.7608 8.25981 11.1786 8.25981 11.1786L8.61927 11.5299C8.61927 11.5299 9.16196 11.5591 9.53893 11.5299C9.91589 11.5007 10.4037 11.6793 10.7317 12.0247C11.0596 12.3702 11.4039 13.0599 11.6152 13.6108C11.8264 14.1628 13.1079 22.3195 13.1079 22.3195C13.1079 22.3195 13.3179 23.3886 13.3179 23.8892C13.3179 24.3899 13.4907 27.7009 13.5303 28.5797C13.57 29.4597 13.7147 31.0808 13.7147 31.0808C13.7147 31.0808 14.5247 30.7528 15.2669 30.719C16.008 30.684 16.5087 30.6501 17.0607 30.754C17.6128 30.8579 17.9571 31.4612 17.9571 31.4612C17.9571 31.4612 17.8707 31.0994 17.8193 30.789C17.768 30.4786 17.181 29.3407 16.8017 28.5646C16.4224 27.7884 15.8703 26.8233 15.4735 26.0122L15.4759 26.0098Z" fill="#343434"/>
<path d="M9.1891 10.8203C9.10974 10.8203 8.96153 10.867 8.86466 10.9113C8.76429 10.9569 8.66159 11.0047 8.57523 11.0817C8.55655 11.0992 8.53788 11.1168 8.52037 11.1354C8.50753 11.1483 8.50753 11.1704 8.52037 11.1833C8.52737 11.1891 8.53554 11.1926 8.54371 11.1926C8.55188 11.1926 8.56122 11.1891 8.56822 11.1821C8.58456 11.1646 8.60206 11.1471 8.61957 11.1319C8.69776 11.0619 8.79697 11.0164 8.89267 10.9732C8.9942 10.9265 9.12725 10.888 9.1891 10.888C9.20778 10.888 9.22295 10.8728 9.22295 10.8542C9.22295 10.8355 9.20778 10.8203 9.1891 10.8203Z" fill="white"/>
<path d="M9.27357 11.0561C9.12419 11.0783 8.9818 11.1261 8.84992 11.174L8.83475 11.1798C8.69237 11.2323 8.62701 11.2556 8.48112 11.321C8.46362 11.3292 8.45662 11.349 8.46362 11.3654C8.46946 11.3782 8.48113 11.3852 8.49397 11.3852C8.49864 11.3852 8.5033 11.3852 8.50797 11.3817C8.65152 11.3175 8.71571 11.2942 8.85693 11.2416L8.8721 11.2358C9.00048 11.1891 9.13935 11.1424 9.28291 11.1203C9.46264 11.0934 9.65054 11.1051 9.81626 11.1156C9.83377 11.1168 9.85127 11.1028 9.85244 11.0841C9.85361 11.0654 9.83961 11.0491 9.82093 11.0479C9.65171 11.0374 9.46031 11.0246 9.27357 11.0526V11.0561Z" fill="white"/>
<path d="M13.4593 22.0615C13.4406 22.0627 13.4266 22.079 13.4278 22.0977C13.5562 23.7374 13.9892 24.9956 14.4922 26.4532C14.6147 26.8092 14.7419 27.1768 14.868 27.562C14.8726 27.576 14.8855 27.5853 14.9007 27.5853C14.9042 27.5853 14.9077 27.5853 14.9112 27.5841C14.9287 27.5783 14.9392 27.5596 14.9333 27.5409C14.8073 27.1546 14.6801 26.787 14.5575 26.4311C14.0569 24.978 13.6239 23.7234 13.4967 22.093C13.4955 22.0744 13.4792 22.0592 13.4605 22.0615H13.4593Z" fill="white"/>
<path d="M9.33207 13.4137C9.31456 13.4184 9.30406 13.437 9.30873 13.4557L9.50596 14.1548C9.51063 14.17 9.52347 14.1793 9.53864 14.1793C9.54214 14.1793 9.54447 14.1793 9.54798 14.1781C9.56548 14.1735 9.57599 14.1548 9.57132 14.1361L9.37408 13.437C9.36941 13.4195 9.35074 13.409 9.33207 13.4137Z" fill="white"/>
<path d="M9.67796 11.5288H9.54024C9.54024 11.5288 9.12127 12.3002 9.04891 12.6971C8.84233 13.8291 9.10026 14.1722 9.10026 14.1722L9.40136 14.1186C9.40136 14.1186 9.17611 13.9143 9.1516 13.3576C9.13526 12.997 9.17378 12.6212 9.22747 12.459C9.43404 11.8369 9.67796 11.5288 9.67796 11.5288Z" fill="white"/>
<path d="M12.5447 39.1685C13.0103 39.1335 13.0103 38.823 14.0105 39.1171C15.0107 39.4101 15.0457 39.7555 16.27 39.5653C17.4942 39.3751 17.9599 39.1171 17.9599 39.1171C17.9599 39.1171 16.27 37.0304 15.8907 36.0302C15.5651 35.1724 14.3898 31.8778 14.0619 30.9593C13.853 31.0258 13.7176 31.0806 13.7176 31.0806C13.7176 31.0806 13.6534 30.3559 13.5985 29.6136L12.7862 27.2351C12.7862 27.2351 12.1303 24.9243 12.1303 24.3723C12.1303 23.8203 11.8024 21.9926 11.8024 21.9926L11.2854 19.4227L5.57721 19.2441C5.57721 19.2441 4.40429 22.526 4.30159 24.4236C4.19772 26.3201 3.57683 32.6329 3.40527 33.4265C3.23254 34.2189 1.64648 38.9584 1.64648 38.9584C1.64648 38.9584 1.95693 39.0483 2.4401 39.3237C2.92327 39.5992 3.1987 39.7719 3.30257 39.7894C3.40644 39.8069 3.94096 39.8186 4.40663 39.6143C4.87229 39.4101 4.97616 39.2199 5.49318 39.2887C6.01019 39.3576 6.30313 39.3926 7.02789 39.5303C7.75264 39.668 9.83938 40.031 10.235 40.031C10.6307 40.031 12.149 39.8582 12.3042 39.7205C12.4595 39.5828 12.0802 39.2035 12.5458 39.1685H12.5447Z" fill="#343434"/>
<path d="M15.3552 37.9862C14.8207 37.873 14.4764 37.8053 13.9068 37.5964C12.6137 37.1214 12.0827 38.6818 10.6997 38.5826C10.3729 38.5593 8.8884 38.1169 8.8884 38.1169C8.8884 38.1169 7.42255 37.7026 6.95688 37.7026C6.49122 37.7026 6.14693 37.8578 5.69761 37.978C5.24945 38.0983 4.88299 38.418 4.11155 38.3924C3.76493 38.3807 3.32377 38.3924 2.90479 38.1169C2.48464 37.8415 2.16603 37.3887 2.16603 37.3887L1.98047 37.9524C1.98047 37.9524 2.29208 38.4449 2.73207 38.6946C3.09036 38.8977 3.37979 39.1043 4.05553 39.0821C4.45934 39.0693 5.2051 38.7892 6.07808 38.5359C7.15529 38.2243 8.91175 38.9094 9.70536 39.0821C10.499 39.2548 11.3696 39.256 11.6824 39.0821C12.2811 38.7507 12.6651 38.306 13.838 38.3924C15.0109 38.4787 15.4077 38.7892 16.2527 38.8067C17.0976 38.8242 17.6111 38.6748 17.6111 38.6748L17.0848 37.9734C17.0848 37.9734 15.8909 38.1006 15.3563 37.9874L15.3552 37.9862Z" fill="white"/>
<path d="M6.1117 34.5294C6.19573 34.422 6.24008 34.2913 6.28677 34.1641C6.74193 32.7379 6.82829 31.2265 6.80495 29.7397C6.79561 28.9286 6.81312 28.1058 6.70925 27.3028C6.6544 26.7811 6.52252 25.4227 6.46883 24.8811C6.3813 23.8063 6.23892 22.7232 6.30077 21.646C6.22141 22.1817 6.26226 22.7279 6.26693 23.2682C6.32995 24.8858 6.51785 26.5127 6.6474 28.1186C6.68824 30.1377 6.80962 32.1905 6.26576 34.1582C6.22608 34.2866 6.18874 34.4185 6.10938 34.5294H6.1117Z" fill="white"/>
<path d="M9.12876 27.856C8.9467 26.5396 8.92218 23.3173 8.92218 23.2846C8.92218 23.2659 8.90702 23.2507 8.88834 23.2507C8.86967 23.2507 8.85449 23.2659 8.85449 23.2846C8.85449 23.3173 8.879 26.5442 9.06224 27.8642C9.2443 29.1853 10.3402 32.9585 10.3507 32.9982L11.1548 35.4234L11.7068 37.8731C11.7103 37.8882 11.7243 37.8999 11.7395 37.8999C11.7418 37.8999 11.7442 37.8999 11.7465 37.8999C11.7652 37.8952 11.7757 37.8777 11.7722 37.8591L11.219 35.407L10.4149 32.9795C10.4044 32.941 9.30966 29.1725 9.12876 27.8572V27.856Z" fill="white"/>
<path d="M10.0141 26.32C10.2603 27.4906 10.6455 28.6775 10.9839 29.8271C11.0668 30.1177 11.1671 30.4072 11.2243 30.6966C11.4461 31.5567 11.7332 32.4682 11.9853 33.3213C12.4439 34.765 12.9738 36.1889 13.5328 37.5964C13.3204 37.0292 13.1372 36.4515 12.9434 35.8772C12.7439 35.268 12.2619 33.892 12.0973 33.2875C11.8546 32.4472 11.5675 31.5089 11.3562 30.6697C11.2932 30.3651 11.1928 30.0815 11.1076 29.7898C10.7633 28.646 10.3735 27.4614 10.0981 26.3025C9.91487 25.4144 9.95805 24.4959 10.0071 23.5938C9.9172 24.4959 9.84718 25.4202 10.0152 26.32H10.0141Z" fill="white"/>
<path d="M11.0464 23.4456C11.0277 23.4456 11.0126 23.4619 11.0137 23.4794C11.0137 23.4934 11.0417 24.9091 11.225 25.7529C11.407 26.5955 12.1493 29.1444 12.1563 29.1701C12.161 29.1852 12.1738 29.1946 12.189 29.1946C12.1925 29.1946 12.1948 29.1946 12.1983 29.1934C12.2158 29.1876 12.2263 29.1689 12.2217 29.1514C12.2147 29.1257 11.4724 26.5792 11.2915 25.7389C11.1106 24.9009 11.0826 23.4922 11.0826 23.4782C11.0826 23.4596 11.0663 23.4467 11.0487 23.4456H11.0464Z" fill="white"/>
<path d="M4.11931 35.7372C3.98276 36.1247 3.29769 38.3596 3.29068 38.383C3.28485 38.4005 3.29535 38.4191 3.31286 38.425C3.31636 38.425 3.31986 38.4261 3.3222 38.4261C3.3362 38.4261 3.3502 38.4168 3.35487 38.4028C3.36187 38.3806 4.04578 36.1457 4.18233 35.7594C4.21268 35.6753 4.91409 33.668 5.08098 31.6816C5.16735 30.6581 4.99111 28.911 4.98878 28.8935C4.98645 28.8748 4.97011 28.8619 4.95143 28.8631C4.93276 28.8654 4.91992 28.8818 4.92109 28.9005C4.92342 28.918 5.09849 30.6592 5.01329 31.6769C4.84757 33.6551 4.14849 35.6543 4.11814 35.7384L4.11931 35.7372Z" fill="white"/>
<path d="M12.5469 39.2023C12.6986 39.1907 12.8025 39.151 12.904 39.1125C13.1211 39.0296 13.3265 38.9514 14.0011 39.1487C14.3103 39.2397 14.5251 39.3342 14.7141 39.4182C15.1401 39.6061 15.4214 39.7299 16.2745 39.598C17.4906 39.4101 17.9563 39.1568 17.9761 39.1463C17.9925 39.137 17.9983 39.1171 17.989 39.1008C17.9796 39.0845 17.9598 39.0786 17.9434 39.088C17.9388 39.0903 17.4661 39.3459 16.2652 39.5326C15.4307 39.6622 15.1576 39.5408 14.7421 39.3576C14.5507 39.2724 14.3337 39.1767 14.0209 39.0856C13.3253 38.8814 13.1001 38.9678 12.8807 39.0506C12.7803 39.0891 12.6846 39.1253 12.5434 39.1358C12.4255 39.1451 12.3473 39.1755 12.3053 39.2315C12.2493 39.3062 12.2714 39.4066 12.2913 39.4953C12.31 39.5781 12.3263 39.6563 12.2819 39.696C12.1431 39.8197 10.669 39.9983 10.2349 39.9983C9.85326 39.9983 7.81787 39.6482 7.0336 39.4988C6.37653 39.3739 6.06609 39.333 5.6366 39.2759L5.49656 39.2572C5.11025 39.2058 4.94103 39.298 4.70644 39.4264C4.61775 39.4743 4.51738 39.5291 4.39133 39.5851C3.91516 39.794 3.38414 39.7707 3.30712 39.7579C3.23359 39.745 3.04335 39.6353 2.75508 39.4684C2.66639 39.4171 2.56602 39.3587 2.45515 39.2957C1.97432 39.0214 1.66737 38.9316 1.65453 38.9269C1.63586 38.9211 1.61835 38.9316 1.61252 38.9502C1.60785 38.9678 1.61719 38.9864 1.63586 38.9923C1.63936 38.9923 1.94864 39.0845 2.4213 39.3541C2.53217 39.4171 2.63138 39.4743 2.72007 39.5268C3.03518 39.7088 3.20908 39.8092 3.29428 39.8244C3.42733 39.8466 3.96302 39.8466 4.41701 39.647C4.54656 39.5898 4.64809 39.535 4.73679 39.4859C4.96787 39.3599 5.12075 39.2759 5.48488 39.3249L5.62493 39.3436C6.05325 39.4007 6.36253 39.4416 7.01726 39.5665C7.74201 39.7042 9.82641 40.0671 10.2314 40.0671C10.5873 40.0671 12.1512 39.9014 12.3228 39.7485C12.3975 39.682 12.3753 39.5805 12.3531 39.4824C12.3356 39.4007 12.3181 39.3237 12.3555 39.2735C12.3846 39.235 12.4477 39.2117 12.5445 39.2047L12.5469 39.2023Z" fill="white"/>
<path d="M2.40607 38.1847C2.42475 38.1906 2.44342 38.1801 2.44809 38.1626L2.48894 38.033C2.49244 38.0213 2.48894 38.0085 2.48077 37.9992L2.38157 37.8953C2.3734 37.8871 2.36173 37.8836 2.35005 37.886C2.33838 37.8883 2.32904 37.8965 2.32554 37.907L2.22634 38.1742C2.22168 38.1882 2.22634 38.2034 2.23684 38.2116L2.46093 38.3971C2.46676 38.4018 2.47493 38.4053 2.48194 38.4053C2.48544 38.4053 2.48777 38.4053 2.49127 38.4041C2.50178 38.4006 2.50995 38.3925 2.51345 38.382L2.63016 38.0237C2.63366 38.0108 2.63015 37.998 2.62082 37.9887L2.34539 37.7261C2.33722 37.7179 2.32555 37.7156 2.31504 37.7179C2.30454 37.7202 2.2952 37.7272 2.29053 37.7377L2.14231 38.0937C2.13531 38.1112 2.14232 38.131 2.16099 38.138C2.17849 38.1451 2.19834 38.138 2.20534 38.1194L2.33488 37.8089L2.56013 38.0237L2.46559 38.3143L2.2987 38.1754L2.37106 37.9817L2.41892 38.0318L2.3839 38.1415C2.37806 38.1591 2.38857 38.1789 2.40607 38.1836V38.1847Z" fill="white"/>
<path d="M2.88146 38.5547C2.89896 38.5606 2.91763 38.5501 2.92347 38.5325L2.96432 38.403C2.96782 38.3913 2.96432 38.3785 2.95615 38.3692L2.85695 38.2653C2.84878 38.2571 2.83711 38.2525 2.82544 38.256C2.81377 38.2583 2.80443 38.2665 2.80093 38.277L2.70173 38.5442C2.69706 38.5582 2.70173 38.5734 2.71223 38.5816L2.93631 38.7671C2.94215 38.7718 2.95032 38.7753 2.95732 38.7753C2.95965 38.7753 2.96199 38.7753 2.96549 38.7753C2.97599 38.773 2.98416 38.766 2.98883 38.7555L3.16973 38.3411C3.17673 38.326 3.16972 38.3073 3.15689 38.2991L2.81727 38.0926C2.8091 38.0879 2.79976 38.0867 2.79043 38.0891C2.78109 38.0914 2.77409 38.0984 2.76942 38.1066L2.57102 38.4975C2.56285 38.5139 2.56868 38.5349 2.58619 38.5431C2.60253 38.5512 2.62353 38.5454 2.6317 38.5279L2.81376 38.1696L3.09737 38.3423L2.94681 38.6878L2.77526 38.5466L2.84761 38.3528L2.89546 38.403L2.86045 38.5127C2.85461 38.5302 2.86512 38.5501 2.88262 38.5547H2.88146Z" fill="white"/>
<path d="M3.58854 38.5827C3.55353 38.5698 3.48467 38.5535 3.35396 38.5208C3.33645 38.5161 3.31895 38.5266 3.31311 38.5441L3.21508 38.8779C3.21274 38.8873 3.21391 38.8966 3.21858 38.9048C3.22325 38.9129 3.23142 38.9188 3.24076 38.9199L3.62589 38.9923C3.62589 38.9923 3.63056 38.9923 3.63173 38.9923C3.63873 38.9923 3.64574 38.99 3.65157 38.9865C3.65857 38.9818 3.66441 38.9736 3.66557 38.9643L3.74843 38.473C3.7496 38.4636 3.74843 38.4543 3.7426 38.4473C3.73676 38.4403 3.72859 38.4344 3.72042 38.4333L3.31195 38.3761C3.29561 38.3749 3.28044 38.3831 3.27577 38.3983L3.13455 38.8149C3.12871 38.8324 3.13806 38.8523 3.15556 38.8581C3.17307 38.8639 3.19291 38.8546 3.19874 38.8371L3.33062 38.4473L3.67607 38.4963L3.60372 38.9199L3.2886 38.8616L3.3668 38.5955C3.42632 38.6107 3.49985 38.6293 3.54186 38.6398C3.53136 38.6714 3.51852 38.7192 3.49984 38.7939C3.49518 38.8114 3.50685 38.8301 3.52436 38.8347C3.54303 38.8394 3.56053 38.8277 3.5652 38.8102C3.58271 38.7414 3.60489 38.6597 3.61305 38.6398C3.61772 38.6352 3.62006 38.6293 3.62123 38.6223C3.62356 38.606 3.62472 38.5978 3.58738 38.585C3.58738 38.585 3.58738 38.585 3.58621 38.585L3.58854 38.5827Z" fill="white"/>
<path d="M4.09028 38.7497C4.07161 38.7497 4.05644 38.7648 4.05644 38.7823C4.05644 38.801 4.07045 38.8162 4.08912 38.8173L4.24084 38.8197C4.25251 38.8197 4.25951 38.8162 4.26651 38.8092C4.27351 38.8022 4.27585 38.7928 4.27585 38.7835C4.26885 38.7018 4.26301 38.6084 4.26418 38.5968C4.26651 38.5863 4.26301 38.5734 4.25484 38.5664C4.242 38.5524 4.23267 38.5431 4.00742 38.5711C3.99108 38.5734 3.97941 38.5863 3.97824 38.6026C3.97008 38.7345 3.95607 38.9282 3.94907 38.9586C3.94557 38.9667 3.94557 38.9749 3.94907 38.9842C3.95374 38.9982 3.95607 39.0052 3.99925 39.0052C4.04827 39.0052 4.1498 38.9959 4.36688 38.9749C4.38555 38.9726 4.39839 38.9574 4.39722 38.9387L4.36221 38.4707C4.36104 38.452 4.34471 38.4392 4.3272 38.4392L3.91872 38.4532C3.90122 38.4532 3.88721 38.4672 3.88604 38.4847L3.8487 38.9387C3.84753 38.9574 3.86153 38.9737 3.87904 38.9749C3.89655 38.9761 3.91405 38.9632 3.91522 38.9446L3.95024 38.5209L4.29569 38.5092L4.32486 38.9119C4.22099 38.9212 4.08445 38.9341 4.01909 38.9387C4.02493 38.8909 4.03193 38.8022 4.04243 38.6364C4.10079 38.6294 4.16264 38.6236 4.19532 38.6224C4.19532 38.6458 4.19882 38.6855 4.20349 38.7532L4.08795 38.7508L4.09028 38.7497Z" fill="white"/>
<path d="M4.91502 38.6574C4.91852 38.676 4.93603 38.6877 4.95353 38.6854C4.9722 38.6819 4.98387 38.6644 4.98154 38.6469L4.9512 38.4671C4.95003 38.4578 4.94419 38.4496 4.93602 38.445C4.92785 38.4403 4.91852 38.438 4.90918 38.4403L4.69794 38.4905C4.68043 38.4951 4.66877 38.5127 4.67227 38.5302L4.73646 38.8453C4.73879 38.8546 4.74463 38.8628 4.7528 38.8674C4.76097 38.8721 4.7703 38.8733 4.77964 38.8709L5.07841 38.7764C5.09475 38.7717 5.10409 38.7542 5.10175 38.7379L5.02239 38.3201C5.02123 38.3107 5.01539 38.3026 5.00722 38.2979C4.99905 38.2932 4.98971 38.2909 4.98037 38.2944L4.57073 38.4018C4.55439 38.4065 4.54389 38.4216 4.54622 38.4391L4.60224 38.8441C4.60457 38.8604 4.61858 38.8733 4.63609 38.8733C4.63726 38.8733 4.63959 38.8733 4.64076 38.8733C4.65943 38.8709 4.67227 38.8534 4.66993 38.8348L4.61858 38.459L4.96404 38.3679L5.03056 38.7216L4.79598 38.7963L4.74579 38.55L4.89051 38.5162L4.91502 38.6597V38.6574Z" fill="white"/>
<path d="M5.49732 38.4437C5.50316 38.4612 5.52301 38.4705 5.54051 38.4635L5.65021 38.4239C5.65838 38.4204 5.66539 38.4145 5.67006 38.4052C5.67356 38.397 5.67356 38.3865 5.67006 38.3783L5.60937 38.2371C5.60236 38.2208 5.58369 38.2126 5.56618 38.2185L5.36778 38.292C5.35027 38.2978 5.34211 38.3177 5.34794 38.334L5.4343 38.5907C5.44014 38.6083 5.45881 38.6188 5.47749 38.6118L5.80077 38.5032C5.81827 38.4974 5.82761 38.4799 5.82294 38.4624L5.7109 38.0691C5.70857 38.0597 5.70274 38.0527 5.6934 38.0481C5.68406 38.0434 5.67472 38.0434 5.66655 38.0457L5.25691 38.1928C5.24173 38.1986 5.2324 38.2138 5.23473 38.2301C5.26624 38.4064 5.30476 38.6188 5.30943 38.6316C5.31409 38.6456 5.32693 38.6538 5.34094 38.6538C5.34444 38.6538 5.34794 38.6538 5.35028 38.6526C5.36778 38.6479 5.37828 38.6293 5.37361 38.6118C5.37011 38.5954 5.33277 38.3947 5.30593 38.2465L5.65488 38.1216L5.74825 38.4495L5.48799 38.5371L5.42264 38.3433L5.56035 38.292L5.59419 38.3702L5.51834 38.3982C5.50083 38.404 5.49149 38.4239 5.49849 38.4414L5.49732 38.4437Z" fill="white"/>
<path d="M6.14922 38.2535C6.15272 38.2721 6.1714 38.2838 6.18891 38.2803L6.29628 38.2593C6.30561 38.257 6.31261 38.2523 6.31728 38.2453C6.32195 38.2383 6.32428 38.229 6.32195 38.2196L6.29161 38.0726C6.28928 38.0632 6.28461 38.0562 6.27644 38.0516C6.26944 38.0469 6.26009 38.0446 6.25076 38.0469L6.05703 38.0901C6.03952 38.0936 6.02785 38.1111 6.03135 38.1286L6.07453 38.3994C6.0757 38.4087 6.08153 38.4169 6.0897 38.4215C6.09787 38.4274 6.10721 38.4285 6.11655 38.4262L6.39664 38.3585C6.41298 38.355 6.42349 38.3387 6.42232 38.3223L6.38381 37.9255C6.38381 37.9162 6.37797 37.9069 6.3698 37.901C6.36163 37.8952 6.3523 37.8928 6.34296 37.8952L5.96833 37.9769C5.95199 37.9804 5.94032 37.9956 5.94149 38.0119L5.96249 38.4134C5.96249 38.4309 5.97883 38.4449 5.99634 38.4449C5.99634 38.4449 5.99751 38.4449 5.99867 38.4449C6.01735 38.4449 6.03135 38.4285 6.03018 38.4099L6.01034 38.0376L6.31962 37.9699L6.35229 38.299L6.13639 38.3515L6.10371 38.1484L6.23326 38.1193L6.24959 38.1986L6.1749 38.2138C6.15623 38.2173 6.14455 38.2348 6.14805 38.2535H6.14922Z" fill="white"/>
<path d="M6.86807 38.1101C6.8494 38.1078 6.83306 38.1206 6.82956 38.1393C6.82722 38.158 6.84006 38.1755 6.85873 38.1778L7.03963 38.2035C7.04897 38.2046 7.0583 38.2023 7.06647 38.1965C7.07347 38.1906 7.07814 38.1813 7.07814 38.172L7.08631 37.9689C7.08631 37.9502 7.07347 37.9351 7.0548 37.9339L6.76186 37.9164C6.75253 37.9164 6.74319 37.9199 6.73619 37.9269C6.72919 37.9339 6.72569 37.9432 6.72685 37.9526C6.72919 37.9829 6.74902 38.2478 6.75369 38.2747C6.75836 38.3039 6.76303 38.3284 7.14817 38.3342C7.16567 38.3342 7.18085 38.3202 7.18202 38.3015L7.20302 37.8265C7.20302 37.8172 7.20069 37.8078 7.19368 37.802C7.18785 37.795 7.17851 37.7915 7.16917 37.7915H6.64282C6.63348 37.7915 6.62532 37.795 6.61832 37.802C6.61248 37.809 6.60898 37.8172 6.60898 37.8265C6.61364 37.9876 6.61831 38.2455 6.60898 38.2945C6.60548 38.3132 6.61831 38.3307 6.63582 38.3342C6.63815 38.3342 6.64049 38.3342 6.64166 38.3342C6.658 38.3342 6.672 38.3225 6.67433 38.3062C6.686 38.2443 6.679 37.9631 6.6755 37.858H7.13183L7.11316 38.2653C6.99061 38.263 6.85873 38.2548 6.81438 38.2467C6.80972 38.2011 6.80038 38.0809 6.79338 37.9864L7.01512 37.9992L7.00928 38.1311L6.86574 38.1101H6.86807Z" fill="white"/>
<path d="M7.59638 38.1566C7.57771 38.1566 7.56253 38.1718 7.56253 38.1905V38.299C7.56253 38.3165 7.57537 38.3305 7.59171 38.3329L7.79828 38.3574C7.80762 38.3585 7.81696 38.3562 7.82396 38.3504C7.83096 38.3445 7.83563 38.3364 7.83563 38.327L7.85314 38.0808C7.8543 38.0633 7.84147 38.0469 7.82396 38.0446L7.50885 38.0014C7.49134 37.9991 7.47383 38.0119 7.47033 38.0306C7.46216 38.0854 7.42249 38.362 7.42249 38.3924C7.42249 38.4239 7.42248 38.4519 7.88815 38.5056C7.88932 38.5056 7.89048 38.5056 7.89165 38.5056C7.90799 38.5056 7.92316 38.4928 7.9255 38.4764L7.98618 37.9874C7.98851 37.9699 7.97684 37.9536 7.95934 37.9501L7.40731 37.8322C7.39798 37.831 7.38863 37.8322 7.38047 37.838C7.3723 37.8439 7.36763 37.852 7.36646 37.8614L7.31861 38.2944C7.31628 38.313 7.33029 38.3294 7.34896 38.3317C7.36647 38.3329 7.38397 38.32 7.38631 38.3014L7.42949 37.9046L7.91499 38.0084L7.86247 38.4332C7.70608 38.4146 7.54269 38.3889 7.49134 38.3726C7.49717 38.3212 7.51702 38.1788 7.53219 38.0714L7.78194 38.1053L7.7691 38.2839L7.62672 38.2663V38.187C7.62672 38.1683 7.61155 38.1531 7.59287 38.1531L7.59638 38.1566Z" fill="white"/>
<path d="M8.37143 38.4204C8.35392 38.4181 8.33641 38.4332 8.33524 38.4519C8.33407 38.4706 8.34808 38.4869 8.36676 38.4881L8.60368 38.5068C8.62001 38.5079 8.63752 38.4951 8.63985 38.4764L8.65736 38.3037C8.65852 38.2874 8.64802 38.271 8.63168 38.2675L8.31657 38.1928C8.30724 38.1905 8.2979 38.1928 8.28973 38.1975C8.28156 38.2033 8.27689 38.2115 8.27573 38.2208L8.22787 38.5569C8.22554 38.5745 8.23605 38.5908 8.25355 38.5943L8.67603 38.6935C8.67603 38.6935 8.6807 38.6935 8.6842 38.6935C8.69121 38.6935 8.69704 38.6912 8.70287 38.6877C8.71104 38.683 8.71571 38.6748 8.71688 38.6655L8.79391 38.1952C8.79624 38.1776 8.78574 38.1613 8.76823 38.1566L8.24188 38.0283C8.23254 38.0259 8.22321 38.0283 8.21504 38.0329C8.20687 38.0376 8.2022 38.0458 8.19986 38.0551L8.12167 38.4939C8.11817 38.5126 8.13101 38.5301 8.14851 38.5336C8.16719 38.5371 8.18469 38.5243 8.1882 38.5068L8.25939 38.103L8.72038 38.2162L8.65386 38.62L8.29673 38.5359L8.33524 38.2663L8.585 38.3259L8.5745 38.4367L8.37026 38.4204H8.37143Z" fill="white"/>
<path d="M9.2029 38.6667C9.18423 38.6632 9.16673 38.6737 9.16206 38.6923C9.15739 38.711 9.16906 38.7285 9.18774 38.7332L9.35579 38.7717C9.36513 38.774 9.37447 38.7717 9.38147 38.767C9.38964 38.7624 9.39431 38.7542 9.39664 38.7449L9.43982 38.5208C9.44099 38.5114 9.43982 38.5021 9.43399 38.4951C9.42932 38.4881 9.42115 38.4823 9.41181 38.4811L9.15739 38.4391C9.13989 38.4356 9.12238 38.4472 9.11888 38.4659L9.05469 38.7705C9.05119 38.788 9.06169 38.8044 9.07803 38.8102L9.44916 38.9222C9.44916 38.9222 9.45616 38.9234 9.45849 38.9234C9.46433 38.9234 9.47133 38.9222 9.476 38.9187C9.48417 38.9141 9.49001 38.9047 9.49117 38.8954L9.57287 38.4169C9.57637 38.3994 9.5647 38.3831 9.54719 38.3784L9.08619 38.2675C9.07686 38.2652 9.06752 38.2675 9.06052 38.2722C9.05235 38.2769 9.04768 38.285 9.04535 38.2932L8.95082 38.7367C8.94732 38.7554 8.95898 38.7729 8.97649 38.7764C8.994 38.7799 9.01267 38.7682 9.01617 38.7507L9.1037 38.3422L9.50051 38.4379L9.43048 38.8476L9.12588 38.7554L9.17723 38.5126L9.36513 38.5429L9.33478 38.6982L9.20057 38.6667H9.2029Z" fill="white"/>
<path d="M9.99402 38.7298C9.97301 38.7274 9.96017 38.7438 9.95901 38.7625L9.95433 38.8593C9.95433 38.8745 9.96367 38.8885 9.97884 38.8932L10.1819 38.9539C10.1924 38.9574 10.2041 38.9539 10.2123 38.948C10.2204 38.941 10.2263 38.9305 10.2251 38.92L10.2123 38.6609C10.2123 38.6446 10.1994 38.6317 10.1831 38.6294L9.88081 38.5909C9.87147 38.5909 9.86214 38.5921 9.85397 38.5991C9.84696 38.6049 9.8423 38.6142 9.8423 38.6236L9.83763 38.9597C9.83763 38.976 9.84813 38.99 9.86447 38.9935L10.2788 39.0881C10.2788 39.0881 10.2835 39.0881 10.2858 39.0881C10.2928 39.0881 10.301 39.0857 10.3068 39.0811C10.315 39.0752 10.3196 39.0647 10.3196 39.0542V38.5956C10.3196 38.5804 10.3091 38.5664 10.294 38.5629C10.2158 38.5431 9.82246 38.4438 9.80729 38.4403C9.79795 38.438 9.78744 38.4403 9.77927 38.4462C9.76527 38.4567 9.75243 38.466 9.70808 38.934C9.70691 38.9527 9.71975 38.969 9.73843 38.9714C9.7571 38.9725 9.77344 38.9597 9.77577 38.941C9.79211 38.7706 9.81195 38.5827 9.82362 38.5139C9.89948 38.5325 10.0991 38.5827 10.2508 38.6212V39.0111L9.90532 38.9317L9.90882 38.6609L10.1446 38.6913L10.1539 38.8745L10.022 38.8348L10.0255 38.7648C10.0255 38.7461 10.0115 38.7298 9.99285 38.7298H9.99402Z" fill="white"/>
<path d="M10.7843 38.8955C10.7668 38.8908 10.7481 38.9036 10.7446 38.9211L10.7271 39.0028C10.7248 39.0122 10.7271 39.0227 10.7341 39.0309C10.74 39.039 10.7493 39.0437 10.7598 39.0437L10.9967 39.0484C11.0061 39.0484 11.0166 39.0437 11.0224 39.0367C11.0294 39.0297 11.0317 39.0192 11.0306 39.0098L11.0002 38.8033C10.9979 38.7869 10.9839 38.7741 10.9676 38.7741L10.6699 38.7694C10.6571 38.7683 10.6513 38.7729 10.6454 38.7799C10.6384 38.7869 10.6361 38.7963 10.6361 38.8056L10.6571 39.0985C10.6583 39.116 10.6734 39.1301 10.6909 39.1301H11.1006C11.1099 39.1301 11.1193 39.1266 11.1251 39.1195C11.1309 39.1125 11.1344 39.1032 11.1344 39.0939L11.1088 38.6924C11.1088 38.6749 11.0924 38.6609 11.0749 38.6609H10.5661C10.5474 38.6609 10.5322 38.6761 10.5322 38.6947V39.0787C10.5322 39.0974 10.5474 39.1125 10.5661 39.1125C10.5847 39.1125 10.5999 39.0974 10.5999 39.0787V38.7286H11.0434L11.0644 39.0624H10.7225L10.7061 38.8371L10.9384 38.8406L10.9582 38.9795L10.8018 38.9772L10.8112 38.9351C10.8147 38.9165 10.803 38.899 10.7855 38.8955H10.7843Z" fill="white"/>
<path d="M11.5841 38.7286C11.5795 38.7099 11.5608 38.6994 11.5433 38.7041C11.5258 38.7088 11.5141 38.7275 11.5188 38.745L11.5445 38.8453C11.5468 38.8558 11.5538 38.864 11.5631 38.8675C11.5725 38.8722 11.583 38.871 11.5923 38.8663L11.7522 38.78C11.7662 38.773 11.7732 38.7566 11.7685 38.7415L11.723 38.5664C11.7207 38.5571 11.7137 38.5489 11.7044 38.5442C11.695 38.5396 11.6845 38.5396 11.6752 38.5442L11.4219 38.6633C11.4079 38.6703 11.3998 38.6854 11.4033 38.7006C11.4686 39.0239 11.4814 39.0402 11.4884 39.0472C11.5106 39.0741 11.5223 39.0892 11.8643 38.843C11.8748 38.836 11.8794 38.8232 11.8783 38.8103L11.8117 38.4135C11.8094 38.403 11.8036 38.3937 11.7942 38.389C11.7849 38.3843 11.7732 38.3843 11.7639 38.389L11.3274 38.6107C11.3146 38.6177 11.3076 38.6318 11.3087 38.6458L11.3659 39.0566C11.3682 39.0729 11.3822 39.0857 11.3997 39.0857C11.4009 39.0857 11.4033 39.0857 11.4044 39.0857C11.4231 39.0834 11.4359 39.0659 11.4336 39.0472L11.3799 38.6598L11.7545 38.4707L11.8094 38.801C11.7032 38.8768 11.5877 38.955 11.5363 38.983C11.5223 38.9329 11.4978 38.8208 11.4768 38.7134L11.6693 38.6224L11.6974 38.7321L11.5982 38.7858L11.583 38.7275L11.5841 38.7286Z" fill="white"/>
<path d="M12.302 38.396C12.309 38.4135 12.3288 38.4217 12.3463 38.4147L12.4642 38.3657C12.4771 38.3598 12.4852 38.347 12.4852 38.333L12.4794 38.1381C12.4794 38.1264 12.4724 38.1147 12.4607 38.1089C12.4502 38.1031 12.4362 38.1042 12.4269 38.1101C12.4269 38.1101 12.2343 38.2361 12.225 38.2419C12.2051 38.2559 12.1993 38.2595 12.2331 38.5699C12.2343 38.5816 12.2413 38.5909 12.2506 38.5956C12.2612 38.6002 12.2728 38.6002 12.2822 38.5956L12.5611 38.4485C12.5728 38.4427 12.5798 38.4298 12.5786 38.417L12.5494 37.9548C12.5494 37.9432 12.5412 37.9315 12.5307 37.9268C12.5202 37.921 12.5062 37.9222 12.4969 37.9292L12.1001 38.2046C12.0908 38.2116 12.0849 38.2221 12.0861 38.2338L12.1059 38.6247C12.1059 38.6423 12.1223 38.6563 12.1398 38.6563C12.1398 38.6563 12.1398 38.6563 12.1409 38.6563C12.1596 38.6563 12.1736 38.6399 12.1724 38.6212L12.1538 38.2489L12.4852 38.0179L12.5086 38.3983L12.2927 38.5115C12.2833 38.417 12.274 38.3225 12.274 38.2875C12.302 38.2688 12.365 38.2268 12.4105 38.1976L12.414 38.3096L12.3172 38.3493C12.2997 38.3563 12.2915 38.3762 12.2985 38.3937L12.302 38.396Z" fill="white"/>
<path d="M13.0945 37.9934C13.0921 37.9747 13.0746 37.9607 13.0571 37.9642C13.0385 37.9666 13.0256 37.9829 13.028 38.0016L13.0455 38.1439C13.0455 38.1533 13.0513 38.1615 13.0595 38.1673C13.0665 38.1731 13.0758 38.1755 13.0851 38.1731L13.2462 38.1439C13.2625 38.1404 13.2754 38.1264 13.2742 38.1089L13.2625 37.865C13.2625 37.8557 13.2579 37.8463 13.2497 37.8405C13.2415 37.8347 13.2322 37.8312 13.2229 37.8335L12.9673 37.8767C12.9509 37.879 12.9393 37.893 12.9393 37.9105V38.2723C12.9393 38.2817 12.9439 38.291 12.9509 38.298C12.9579 38.3038 12.9684 38.3073 12.9778 38.3062L13.3746 38.2431C13.3921 38.2408 13.4038 38.2245 13.4026 38.2081L13.3676 37.6795C13.3676 37.6689 13.3617 37.6596 13.3536 37.6538C13.3454 37.6479 13.3349 37.6456 13.3244 37.6491L12.8214 37.7903C12.8074 37.7938 12.7969 37.8078 12.7969 37.823V38.3178C12.7969 38.3365 12.812 38.3517 12.8307 38.3517C12.8494 38.3517 12.8646 38.3365 12.8646 38.3178V37.8487L13.3022 37.7261L13.3326 38.1825L13.0058 38.235V37.9409L13.196 37.9094L13.2042 38.0856L13.1073 38.1031L13.0945 37.9957V37.9934Z" fill="white"/>
<path d="M13.8179 38.1415L14.0501 38.1731C14.0595 38.1742 14.0688 38.1719 14.0758 38.166C14.0828 38.1602 14.0875 38.1509 14.0875 38.1415L14.0992 37.8941C14.0992 37.8778 14.0898 37.8638 14.0735 37.8603L13.7829 37.7856C13.7735 37.7833 13.763 37.7856 13.7549 37.7914C13.7467 37.7973 13.742 37.8066 13.7409 37.8171C13.735 37.9571 13.7234 38.1859 13.7222 38.2011C13.7199 38.2104 13.7222 38.2209 13.7269 38.2291C13.7374 38.2442 13.7444 38.2536 14.1528 38.2979C14.154 38.2979 14.1552 38.2979 14.1563 38.2979C14.1645 38.2979 14.1715 38.2956 14.1785 38.2898C14.1855 38.2839 14.1902 38.2758 14.1902 38.2664L14.2194 37.7984C14.2194 37.7821 14.2089 37.7669 14.1925 37.7634L13.6662 37.6479C13.6568 37.6455 13.6463 37.6479 13.6382 37.6537C13.63 37.6595 13.6253 37.6689 13.6253 37.6782L13.5938 38.1812C13.5927 38.1999 13.6067 38.2162 13.6253 38.2174C13.6463 38.2186 13.6603 38.2046 13.6615 38.1859L13.6907 37.7226L14.1493 37.8229L14.1248 38.2267C13.9871 38.2116 13.8447 38.1941 13.7899 38.1847C13.7899 38.1719 13.7922 38.1544 13.7934 38.1287C13.7992 38.1357 13.8074 38.1404 13.8156 38.1415H13.8179ZM13.8074 37.8603L14.0303 37.9175L14.0221 38.1007L13.8622 38.0785L13.8856 37.9782C13.8903 37.9595 13.8786 37.942 13.8599 37.9373C13.8424 37.9338 13.8237 37.9443 13.8191 37.963L13.7969 38.0598C13.7992 38.0108 13.8027 37.9455 13.8062 37.8603H13.8074Z" fill="white"/>
<path d="M14.6877 38.2303C14.669 38.2256 14.6515 38.2361 14.6468 38.2548C14.6422 38.2723 14.6527 38.2909 14.6713 38.2956L14.8662 38.347C14.8756 38.3493 14.8861 38.347 14.8943 38.3423C14.9024 38.3365 14.9071 38.3283 14.9083 38.3178L14.9281 38.1229C14.9304 38.1054 14.9176 38.0902 14.9013 38.0867L14.6048 38.0295C14.5955 38.0272 14.5862 38.0295 14.578 38.0353C14.5698 38.0412 14.5651 38.0494 14.564 38.0587C14.5535 38.1626 14.536 38.333 14.5336 38.3446C14.5301 38.354 14.5313 38.3633 14.536 38.3726C14.5453 38.389 14.5488 38.396 14.9631 38.4952C14.9655 38.4952 14.9678 38.4952 14.9713 38.4952C14.9783 38.4952 14.9853 38.4928 14.9911 38.4882C14.9993 38.4823 15.004 38.473 15.0051 38.4637L15.0401 38.0295C15.0413 38.0132 15.0308 37.998 15.0145 37.9945L14.5115 37.8766C14.5021 37.8743 14.4916 37.8766 14.4834 37.8825C14.4753 37.8883 14.4706 37.8965 14.4694 37.907L14.4298 38.3411C14.4286 38.3598 14.4414 38.3761 14.4601 38.3773C14.4788 38.3773 14.4951 38.3656 14.4963 38.347L14.5325 37.9513L14.969 38.054L14.9398 38.4193C14.8009 38.3855 14.6562 38.3493 14.6025 38.333C14.606 38.3014 14.613 38.2361 14.627 38.1019L14.8569 38.1462L14.8441 38.2711L14.6865 38.2291L14.6877 38.2303Z" fill="white"/>
<path d="M15.5544 38.4321C15.5498 38.4496 15.5602 38.4683 15.5789 38.4729L15.754 38.5184C15.7645 38.5208 15.775 38.5184 15.7832 38.5126C15.7913 38.5056 15.796 38.4963 15.796 38.4858L15.7937 38.2792C15.7937 38.2617 15.7797 38.2465 15.7622 38.2465L15.4867 38.229C15.4774 38.229 15.4692 38.2313 15.4622 38.2372C15.4552 38.243 15.4517 38.2524 15.4517 38.2617C15.4424 38.5418 15.4459 38.5558 15.447 38.5593C15.4517 38.5861 15.454 38.5955 15.8637 38.6807C15.866 38.6807 15.8684 38.6807 15.8707 38.6807C15.8789 38.6807 15.8859 38.6783 15.8917 38.6725C15.8999 38.6667 15.9045 38.6562 15.9045 38.6468V38.1438C15.9045 38.1263 15.8905 38.1111 15.873 38.11L15.3525 38.0703C15.3432 38.0691 15.3338 38.0726 15.328 38.0785C15.321 38.0843 15.3175 38.0936 15.3163 38.103L15.2988 38.543C15.2988 38.5616 15.3128 38.5768 15.3315 38.578C15.3537 38.578 15.3653 38.564 15.3665 38.5453L15.3829 38.1403L15.8368 38.1753V38.606C15.7003 38.5768 15.5602 38.5453 15.5124 38.5301C15.5124 38.4904 15.5147 38.3924 15.5182 38.2979L15.7283 38.3107L15.7306 38.4426L15.5988 38.4076C15.5813 38.4029 15.5626 38.4134 15.5579 38.4321H15.5544Z" fill="white"/>
<path d="M16.3611 38.6878C16.3681 38.71 16.3704 38.7181 16.5315 38.7181C16.6167 38.7181 16.745 38.7158 16.9411 38.7111H16.9714C16.982 38.7111 16.9925 38.7053 16.9983 38.6971C17.0111 38.6808 17.0193 38.6703 16.8781 38.0961C16.8746 38.0797 16.8606 38.0692 16.8431 38.0704L16.228 38.1019C16.2187 38.1019 16.2105 38.1066 16.2047 38.1136C16.1988 38.1206 16.1953 38.1299 16.1965 38.1393L16.2455 38.6796C16.2467 38.6983 16.2642 38.7111 16.2817 38.71C16.3004 38.7088 16.3144 38.6913 16.3121 38.6738L16.2665 38.1684L16.8186 38.1404C16.8687 38.3447 16.9201 38.5641 16.9341 38.6446C16.6132 38.6516 16.4836 38.6504 16.4323 38.6493C16.4346 38.5991 16.4276 38.5011 16.3996 38.3026L16.7205 38.2711L16.7812 38.5186L16.5233 38.5302L16.5128 38.424L16.6178 38.4112C16.6365 38.4089 16.6493 38.3925 16.647 38.3738C16.6447 38.3552 16.6272 38.3423 16.6097 38.3447L16.4719 38.3622C16.4533 38.3645 16.4404 38.3808 16.4428 38.3995L16.4603 38.5699C16.4626 38.5874 16.4766 38.6003 16.4953 38.6003L16.8256 38.5862C16.8361 38.5862 16.8454 38.5804 16.8512 38.5722C16.8571 38.5641 16.8594 38.5536 16.8571 38.5442L16.7801 38.228C16.7766 38.2116 16.7602 38.2011 16.7439 38.2023L16.3587 38.2396C16.3494 38.2396 16.3412 38.2455 16.3354 38.2525C16.3296 38.2595 16.3272 38.2688 16.3284 38.2781C16.3506 38.4404 16.3704 38.6236 16.3646 38.6609C16.3599 38.6691 16.3576 38.6796 16.3599 38.689L16.3611 38.6878Z" fill="white"/>
<path d="M8.11816 11.4153C8.11816 11.5705 8.25938 11.6966 8.43444 11.6966C8.60951 11.6966 8.75073 11.5705 8.75073 11.4153C8.75073 11.2601 8.60951 11.134 8.43444 11.134C8.25938 11.134 8.11816 11.2601 8.11816 11.4153Z" fill="white"/>
<path d="M8.14355 11.3315C8.14355 11.4412 8.25092 11.5299 8.38164 11.5299C8.51235 11.5299 8.61972 11.4412 8.61972 11.3315C8.61972 11.2218 8.51235 11.1331 8.38164 11.1331C8.25092 11.1331 8.14355 11.2218 8.14355 11.3315Z" fill="white"/>
<path d="M5.66113 11.231C5.66113 11.3862 5.80235 11.5122 5.97741 11.5122C6.15248 11.5122 6.29369 11.3862 6.29369 11.231C6.29369 11.0758 6.15248 10.9497 5.97741 10.9497C5.80235 10.9497 5.66113 11.0758 5.66113 11.231Z" fill="white"/>
<path d="M5.68652 11.1481C5.68652 11.2578 5.79389 11.3465 5.9246 11.3465C6.05532 11.3465 6.16269 11.2578 6.16269 11.1481C6.16269 11.0384 6.05532 10.9497 5.9246 10.9497C5.79389 10.9497 5.68652 11.0384 5.68652 11.1481Z" fill="white"/>
<path d="M13.3525 23.8891C13.3525 23.3919 13.1506 22.3567 13.1424 22.3147C13.0899 21.9809 11.8574 14.1475 11.6474 13.5989C11.4525 13.0889 11.1023 12.3642 10.7569 12.0012C10.4394 11.6674 9.94811 11.4655 9.53729 11.4959C9.19884 11.5215 8.718 11.5005 8.63514 11.4959L8.28501 11.1539C8.27218 11.1411 8.25001 11.1411 8.23717 11.1539C8.22433 11.1668 8.22433 11.1889 8.23717 11.2018L8.59662 11.5531C8.60246 11.5589 8.61063 11.5624 8.6188 11.5624C8.62463 11.5624 9.1685 11.5904 9.54313 11.5624C9.9376 11.5332 10.4056 11.727 10.709 12.0467C11.0475 12.4027 11.3929 13.1181 11.5855 13.6223C11.7933 14.165 13.0642 22.2423 13.077 22.3252C13.0794 22.3357 13.2859 23.3966 13.2859 23.8879C13.2859 24.2567 13.377 26.1112 13.4447 27.4662C13.468 27.9435 13.4878 28.3473 13.4984 28.5807C13.538 29.4514 13.6804 31.0666 13.6828 31.0829C13.6839 31.1004 13.6991 31.1133 13.7166 31.1133C13.7166 31.1133 13.7189 31.1133 13.7201 31.1133C13.7388 31.1121 13.7528 31.0958 13.7504 31.0771C13.7493 31.0608 13.6069 29.4467 13.566 28.5784C13.5555 28.345 13.5357 27.9412 13.5124 27.4638C13.4458 26.11 13.3536 24.2555 13.3536 23.8891H13.3525Z" fill="white"/>
<path d="M11.1147 23.354C13.6704 22.7508 15.2532 20.19 14.65 17.6343C14.0468 15.0786 11.486 13.4958 8.93027 14.099C6.37455 14.7022 4.79173 17.263 5.39493 19.8187C5.99813 22.3744 8.55894 23.9572 11.1147 23.354Z" fill="#343434"/>
<path d="M5.87598 18.7235C5.87598 21.0098 7.7363 22.8702 10.0226 22.8702C12.3089 22.8702 14.1692 21.0098 14.1692 18.7235C14.1692 16.4372 12.3089 14.5769 10.0226 14.5769C7.7363 14.5769 5.87598 16.4372 5.87598 18.7235ZM14.0339 18.7235C14.0339 20.9351 12.2342 22.7348 10.0226 22.7348C7.811 22.7348 6.01136 20.9351 6.01136 18.7235C6.01136 16.5119 7.811 14.7123 10.0226 14.7123C12.2342 14.7123 14.0339 16.5119 14.0339 18.7235Z" fill="white"/>
<path d="M12.7748 15.7156L7.21289 21.6116L7.28675 21.6812L12.8486 15.7853L12.7748 15.7156Z" fill="white"/>
<path d="M7.23794 15.779L7.16406 15.8486L12.7239 21.7465L12.7978 21.6769L7.23794 15.779Z" fill="white"/>
<path d="M9.85571 14.6581L9.78809 14.6611L10.1556 22.8166L10.2232 22.8135L9.85571 14.6581Z" fill="white"/>
<path d="M14.1217 18.7097H5.96387V18.7774H14.1217V18.7097Z" fill="white"/>
<path d="M9.3291 18.7235C9.3291 19.1063 9.63954 19.4168 10.0223 19.4168C10.4051 19.4168 10.7156 19.1063 10.7156 18.7235C10.7156 18.3407 10.4051 18.0303 10.0223 18.0303C9.63954 18.0303 9.3291 18.3407 9.3291 18.7235Z" fill="#343434"/>
<path d="M9.26172 18.7236C9.26172 19.1426 9.60251 19.4834 10.0215 19.4834C10.4405 19.4834 10.7813 19.1426 10.7813 18.7236C10.7813 18.3047 10.4405 17.9639 10.0215 17.9639C9.60251 17.9639 9.26172 18.3047 9.26172 18.7236ZM10.647 18.7236C10.647 19.0679 10.3669 19.3492 10.0215 19.3492C9.67603 19.3492 9.39594 19.0691 9.39594 18.7236C9.39594 18.3782 9.67603 18.0981 10.0215 18.0981C10.3669 18.0981 10.647 18.3782 10.647 18.7236Z" fill="white"/>
<path d="M9.6748 18.7235C9.6748 18.9161 9.83002 19.0713 10.0226 19.0713C10.2152 19.0713 10.3704 18.9161 10.3704 18.7235C10.3704 18.531 10.2152 18.3757 10.0226 18.3757C9.83002 18.3757 9.6748 18.531 9.6748 18.7235Z" fill="#343434"/>
<path d="M9.60742 18.7236C9.60742 18.9523 9.79415 19.1391 10.0229 19.1391C10.2516 19.1391 10.4384 18.9523 10.4384 18.7236C10.4384 18.4948 10.2516 18.3081 10.0229 18.3081C9.79415 18.3081 9.60742 18.4948 9.60742 18.7236ZM10.303 18.7236C10.303 18.8776 10.177 19.0037 10.0229 19.0037C9.86885 19.0037 9.7428 18.8776 9.7428 18.7236C9.7428 18.5695 9.86885 18.4435 10.0229 18.4435C10.177 18.4435 10.303 18.5695 10.303 18.7236Z" fill="white"/>
<path d="M5.62012 18.7235C5.62012 21.151 7.59482 23.1257 10.0223 23.1257C12.4499 23.1257 14.4246 21.151 14.4246 18.7235C14.4246 16.296 12.4499 14.3213 10.0223 14.3213C7.59482 14.3213 5.62012 16.296 5.62012 18.7235ZM14.3569 18.7235C14.3569 21.1137 12.4125 23.058 10.0223 23.058C7.63216 23.058 5.68781 21.1137 5.68781 18.7235C5.68781 16.3333 7.63216 14.389 10.0223 14.389C12.4125 14.389 14.3569 16.3333 14.3569 18.7235Z" fill="white"/>
<path d="M3.75906 30.5426C3.75906 30.5426 3.75789 30.5426 3.75672 30.5426C3.73221 30.5415 3.71471 30.5204 3.71588 30.4959C3.74038 30.0851 3.81741 29.3125 3.90727 28.4185C4.03565 27.1382 4.19555 25.544 4.25623 24.4213C4.35894 22.54 5.52251 19.2628 5.53535 19.2301C5.54352 19.2068 5.56802 19.1951 5.59136 19.2033C5.61471 19.2115 5.62638 19.236 5.61821 19.2593C5.60654 19.292 4.44646 22.5575 4.34493 24.426C4.28307 25.551 4.12435 27.1453 3.99597 28.4267C3.9061 29.3207 3.82908 30.0921 3.80457 30.5006C3.8034 30.5239 3.78356 30.5414 3.76139 30.5414L3.75906 30.5426Z" fill="white"/>
<path d="M17.9577 31.5033C17.9425 31.5033 17.9273 31.4951 17.9191 31.4811C17.9156 31.4753 17.5772 30.8941 17.052 30.7949C16.5467 30.7003 16.0798 30.7225 15.4333 30.7528L15.2687 30.761C14.544 30.7949 13.7387 31.117 13.7305 31.1205C13.7083 31.1298 13.6827 31.1193 13.6733 31.096C13.664 31.0738 13.6745 31.0481 13.6978 31.0388C13.706 31.0353 14.5241 30.7085 15.264 30.6735L15.4286 30.6653C16.081 30.6338 16.5525 30.6116 17.0672 30.7085C17.632 30.8147 17.9798 31.4111 17.9938 31.4367C18.0055 31.4578 17.9985 31.4846 17.9775 31.4963C17.9705 31.4998 17.9635 31.5021 17.9553 31.5021L17.9577 31.5033Z" fill="white"/>
</svg>
