<svg width="155" height="340" viewBox="0 0 155 340" fill="none" xmlns="http://www.w3.org/2000/svg">
<path d="M40.3123 92.1826C39.3523 92.9226 38.1223 94.3026 38.6123 95.8726C39.1023 97.4526 40.7823 99.4726 41.4723 99.7626C42.1623 100.063 43.2423 100.843 43.2423 100.843C43.2423 100.843 47.7523 97.4126 52.0623 94.1326C55.9223 91.1926 59.6123 88.3726 59.7323 88.2326C59.9923 87.9326 59.8523 76.0126 59.8523 76.0126L53.8723 57.4926C53.8723 57.4926 51.2323 54.0426 47.9723 55.0826C44.7223 56.1126 46.2523 56.2426 46.2523 56.2426C46.2523 56.2426 43.8523 58.6126 44.0823 63.6526C44.2423 67.0126 44.6523 67.8626 45.0223 70.7026C45.3023 72.9026 44.4923 74.0826 42.1623 77.3126C39.8323 80.5426 39.3923 82.1726 40.0223 83.2426C41.2123 85.2726 42.3123 85.9126 42.3623 87.4926C42.4123 89.0726 41.2723 91.4326 40.3123 92.1726V92.1826Z" fill="#343434"/>
<path d="M47.1623 80.5126C47.7623 79.7626 48.3923 78.9825 48.7523 78.0725C49.0323 77.3625 49.1423 76.5925 49.2223 75.9225C49.4423 74.0625 49.5523 73.0725 49.4923 71.1425C49.4923 70.9825 49.3623 70.8625 49.1923 70.8625C49.0323 70.8625 48.9023 71.0026 48.9123 71.1626C48.9723 73.0626 48.8723 74.0225 48.6523 75.8625C48.5723 76.4925 48.4723 77.2226 48.2223 77.8726C47.8923 78.7126 47.3223 79.4226 46.7223 80.1626C46.0523 80.9926 45.3623 81.8525 45.0323 82.9025C44.4723 84.6825 45.0523 86.5125 45.6223 88.2725L45.7823 88.7825C46.5523 91.2225 46.4823 92.9725 45.5823 94.1425C45.4823 94.2725 45.5123 94.4526 45.6323 94.5526C45.6823 94.5926 45.7423 94.6125 45.8123 94.6125C45.9023 94.6125 45.9823 94.5725 46.0423 94.5025C47.0623 93.1725 47.1623 91.2526 46.3323 88.6226L46.1723 88.1125C45.6323 86.4325 45.0723 84.6925 45.5823 83.0925C45.8823 82.1525 46.5023 81.3725 47.1723 80.5425L47.1623 80.5126Z" fill="white"/>
<path d="M52.2922 85.0827C52.5022 84.6227 52.7222 84.1527 52.8722 83.6627C53.3322 82.2027 53.2122 80.6227 53.1222 79.2327C53.1022 78.9627 53.0922 78.7327 53.0822 78.5227C53.0422 77.8727 53.0222 77.3527 52.8522 76.5427C52.8222 76.3827 52.6622 76.2827 52.5122 76.3127C52.3522 76.3427 52.2523 76.4927 52.2823 76.6527C52.4423 77.4227 52.4622 77.9027 52.5022 78.5527C52.5122 78.7727 52.5222 79.0027 52.5422 79.2727C52.6422 80.6827 52.7422 82.1427 52.3222 83.4927C52.1822 83.9527 51.9723 84.4027 51.7723 84.8427C51.5323 85.3627 51.2922 85.8927 51.1322 86.4527C50.5722 88.4827 51.2022 90.5227 52.0122 92.7827C52.0522 92.9027 52.1623 92.9727 52.2823 92.9727C52.3123 92.9727 52.3522 92.9727 52.3822 92.9527C52.5322 92.9027 52.6122 92.7327 52.5522 92.5827C51.7722 90.4127 51.1722 88.4727 51.6822 86.6027C51.8222 86.0827 52.0523 85.5927 52.2823 85.0727L52.2922 85.0827Z" fill="white"/>
<path d="M44.4319 93.8125C43.3519 95.2925 45.2819 98.0126 45.2819 98.0126L49.4219 93.2225L50.9819 93.1025C50.9819 93.1025 51.8819 93.2425 53.0719 93.2725C53.4019 92.1825 53.8019 91.3526 54.2919 91.0526C56.4219 89.7626 58.3319 87.2626 58.3319 87.2626V87.2225L57.1819 86.8625C57.1819 86.8625 52.9919 87.8925 50.0919 88.6825C47.1819 89.4725 45.5119 92.3226 44.4319 93.8026V93.8125Z" fill="#343434"/>
<path d="M53.3118 88.5025C52.2518 89.1025 51.3418 89.9625 50.6818 90.9925C50.5918 91.1225 50.6319 91.3025 50.7719 91.3925C50.8219 91.4225 50.8718 91.4425 50.9318 91.4425C51.0218 91.4425 51.1218 91.3925 51.1718 91.3125C51.7818 90.3625 52.6219 89.5725 53.5919 89.0125C53.7319 88.9325 53.7819 88.7525 53.7019 88.6225C53.6219 88.4825 53.4418 88.4325 53.3118 88.5125V88.5025Z" fill="white"/>
<path d="M49.5821 88.9927C49.4221 88.9727 49.2821 89.1027 49.2721 89.2627C49.2221 90.0027 49.2521 90.7427 49.3421 91.4627C49.3621 91.6127 49.4721 91.7927 49.6521 91.8427C49.6721 91.8427 49.6921 91.8427 49.7121 91.8427C49.8221 91.8427 49.9421 91.7927 50.0021 91.7127C50.1021 91.5827 50.0721 91.4027 49.9421 91.3027C49.9321 91.2927 49.9121 91.2827 49.9021 91.2727C49.8221 90.6127 49.8021 89.9427 49.8421 89.2827C49.8521 89.1227 49.7321 88.9827 49.5721 88.9727L49.5821 88.9927Z" fill="white"/>
<path d="M47.1021 92.8726C46.2521 92.9426 45.5221 93.1726 44.9421 93.5426C44.5321 93.8026 44.2421 94.1126 44.0821 94.4626C44.0121 94.6026 44.0822 94.7826 44.2222 94.8526C44.2622 94.8726 44.3022 94.8826 44.3422 94.8826C44.4522 94.8826 44.5521 94.8226 44.6021 94.7226C44.7221 94.4726 44.9421 94.2426 45.2521 94.0426C45.7521 93.7226 46.3922 93.5226 47.1522 93.4626C47.8422 93.4026 48.5521 93.4626 49.2521 93.5126C49.4121 93.5226 49.5521 93.4026 49.5621 93.2426C49.5721 93.0826 49.4521 92.9426 49.2921 92.9326C48.5821 92.8726 47.8421 92.8226 47.1021 92.8826V92.8726Z" fill="white"/>
<path d="M10.8523 75.9825C10.5623 75.9325 9.81235 76.5225 9.78235 76.7525C9.68235 77.5025 8.26235 83.1825 9.84235 82.9225C10.3523 82.8425 11.4623 80.7325 11.6823 80.2625C12.1423 79.3025 12.5623 78.2925 12.6423 77.2125C12.6523 77.0425 12.6423 76.8725 12.5623 76.7225C12.2323 76.0925 11.3423 76.0725 10.8523 75.9825Z" fill="#514DE6"/>
<path d="M49.6623 92.6924L25.1223 122.482C25.1223 122.482 19.8823 110.222 14.8823 104.502C10.1523 99.0324 8.09235 94.6524 8.09235 94.6524L7.1123 104.802C7.1123 104.802 7.4423 117.062 12.9823 127.462C15.4623 132.112 21.6923 140.992 25.8623 140.552C27.4423 140.382 32.9123 134.512 33.2123 134.112C39.9123 125.152 49.3623 111.772 48.9923 109.992C48.6223 108.222 50.0223 95.4624 49.6723 92.6924H49.6623Z" fill="#514DE6"/>
<path d="M22.9425 118.222C22.7925 118.282 22.7325 118.462 22.7925 118.602L26.3426 126.582C26.3926 126.692 26.4925 126.752 26.6025 126.752C26.6425 126.752 26.6826 126.752 26.7226 126.732C26.8726 126.672 26.9325 126.492 26.8725 126.352L23.3225 118.372C23.2525 118.222 23.0825 118.162 22.9425 118.222Z" fill="white"/>
<path d="M49.6526 93.8124L49.0626 93.2024L46.1126 97.4824C46.1126 97.4824 39.1726 107.162 37.8126 112.812C37.2726 115.072 37.1926 117.502 37.6326 119.682C38.2426 122.792 39.8526 124.992 39.8526 124.992L42.0326 121.882C42.0326 121.882 41.9626 121.272 41.0026 119.052C40.0426 116.832 41.5226 109.812 42.2826 107.752C43.0426 105.682 49.6726 93.8124 49.6726 93.8124H49.6526Z" fill="white"/>
<path d="M3.20437 62.2885L11.074 62.2102C11.474 62.2062 11.7971 62.523 11.8011 62.923L11.819 64.7229C11.823 65.1229 11.5062 65.4461 11.1062 65.45L3.2366 65.5283C2.83662 65.5323 2.51342 65.2155 2.50944 64.8155L2.49154 63.0156C2.48756 62.6156 2.80439 62.2925 3.20437 62.2885Z" fill="#343434"/>
<path d="M3.17208 59.069L11.0417 58.9907C11.4417 58.9867 11.7649 59.3035 11.7688 59.7035L11.7868 61.5034C11.7907 61.9034 11.4739 62.2266 11.0739 62.2306L3.20432 62.3089C2.80434 62.3128 2.4812 61.996 2.47722 61.596L2.45931 59.7961C2.45533 59.3962 2.7721 59.073 3.17208 59.069Z" fill="#343434"/>
<path d="M3.13992 55.8493L11.0095 55.771C11.4095 55.767 11.7326 56.0838 11.7366 56.4838L11.7545 58.2837C11.7585 58.6837 11.4417 59.0069 11.0418 59.0108L3.17215 59.0891C2.77217 59.0931 2.44897 58.7763 2.44499 58.3763L2.42708 56.5764C2.42311 56.1764 2.73994 55.8533 3.13992 55.8493Z" fill="#343434"/>
<path d="M10.8402 64.8897L4.02051 64.9575L6.63987 328.244L13.4595 328.177L10.8402 64.8897Z" fill="#343434"/>
<path d="M4.02175 132.437L11.8914 132.359C12.2913 132.355 12.6145 132.671 12.6185 133.071L12.6364 134.871C12.6403 135.271 12.3236 135.595 11.9236 135.598L4.05399 135.677C3.65401 135.681 3.33081 135.364 3.32683 134.964L3.30892 133.164C3.30494 132.764 3.62177 132.441 4.02175 132.437Z" fill="#343434"/>
<path d="M14.2127 82.3427C14.4327 79.5027 7.54261 80.9727 7.54261 80.9727C7.54261 80.9727 11.1327 79.7627 11.8927 79.1327C13.0227 78.2027 12.0427 77.0427 11.2227 77.1627C11.2227 77.1627 8.39265 76.8227 3.26265 79.5227C1.66265 80.3627 1.14262 81.3527 0.732616 82.4427C-0.0673836 84.5727 -0.0373348 86.1327 0.0326652 90.0427C0.0926652 93.6727 1.54264 97.6127 4.25264 98.8427C4.20264 96.5627 4.10264 92.3827 4.19264 89.3627C5.76264 88.2127 9.60264 91.0927 10.5726 89.7227C11.4026 88.5627 7.50264 86.7527 7.50264 86.7527C7.50264 86.7527 12.7027 88.2027 13.2727 86.6327C14.1227 84.3127 7.67262 83.7127 7.67262 83.7127C7.67262 83.7127 14.0927 83.9627 14.2227 82.3127L14.2127 82.3427Z" fill="#514DE6"/>
<path d="M0.0227051 90.0626C0.0827051 93.6926 1.53268 97.6326 4.24268 98.8626C4.24268 96.6626 4.09268 92.4026 4.18268 89.3826L0.0126953 90.0626H0.0227051Z" fill="#514DE6"/>
<path d="M1.36286 82.9628C1.28286 83.0428 1.2529 83.1528 1.2829 83.2628C1.2929 83.3028 1.31285 83.3428 1.35285 83.3828C1.46285 83.5028 1.65288 83.5028 1.76288 83.3928C3.01288 82.2028 7.58287 80.9628 7.62287 80.9528C7.78287 80.9128 7.87289 80.7528 7.83289 80.5928C7.79289 80.4328 7.63291 80.3428 7.47291 80.3828C7.28291 80.4328 2.72286 81.6728 1.36286 82.9628Z" fill="white"/>
<path d="M1.1823 84.3827C1.0323 84.4327 0.962308 84.5927 1.00231 84.7427C1.00231 84.7427 1.00231 84.7527 1.00231 84.7627C1.06231 84.9127 1.2223 84.9927 1.3723 84.9327C3.8323 84.0327 6.5323 84.0127 8.2423 84.3027C8.4023 84.3327 8.55232 84.2227 8.58232 84.0627C8.61232 83.9027 8.50233 83.7527 8.34233 83.7227C6.55233 83.4227 3.73229 83.4327 1.17229 84.3827H1.1823Z" fill="white"/>
<path d="M2.81229 86.1726C2.66229 86.2226 2.57229 86.3826 2.62229 86.5326C2.67229 86.6826 2.83227 86.7726 2.98227 86.7226C4.48227 86.2626 6.94232 86.8726 8.28232 87.2726C8.43232 87.3226 8.6023 87.2326 8.6423 87.0726C8.6923 86.9226 8.60229 86.7526 8.44229 86.7126C6.73229 86.2026 4.36228 85.6826 2.80228 86.1626L2.81229 86.1726Z" fill="white"/>
<path d="M4.10242 88.9626C3.16242 89.4726 2.97248 90.7526 2.78248 92.0026C2.63248 93.0226 2.47243 94.0726 1.92243 94.5926C1.84243 94.6726 1.81247 94.7826 1.84247 94.8926C1.85247 94.9326 1.88242 94.9726 1.91242 95.0126C2.02242 95.1326 2.21245 95.1326 2.32245 95.0226C3.01245 94.3626 3.19242 93.2126 3.35242 92.0926C3.52242 90.9426 3.69244 89.8526 4.37244 89.4826C4.88244 89.2026 5.73245 89.3426 6.88245 89.8726C7.03245 89.9426 7.20247 89.8726 7.27247 89.7326C7.34247 89.5826 7.27245 89.4126 7.13245 89.3426C5.79245 88.7126 4.79242 88.5926 4.10242 88.9626Z" fill="white"/>
<path d="M12.293 81.0027L12.443 82.2127C12.443 82.2127 13.243 82.4227 13.503 82.1827C13.753 81.9427 13.563 81.2727 13.093 81.1727C12.623 81.0827 12.303 81.0027 12.303 81.0027H12.293Z" fill="white"/>
<path d="M11.5029 86.4128C11.5029 86.4128 12.1729 86.7528 12.6929 86.5928C13.0429 86.4728 13.0929 85.9228 12.6929 85.6528C12.2929 85.3728 11.7529 85.1228 11.7529 85.1228L11.5029 86.4228V86.4128Z" fill="white"/>
<path d="M10.1328 77.6727L10.5128 78.6827C10.5128 78.6827 11.3328 78.4827 11.5328 78.2027C11.7328 77.9227 11.6328 77.5627 11.3028 77.5727C10.9728 77.5727 10.1428 77.6627 10.1428 77.6627L10.1328 77.6727Z" fill="white"/>
<path d="M8.83301 89.2127C8.83301 89.2127 9.65301 89.7027 10.023 89.5127C10.383 89.3127 10.223 88.9227 9.90302 88.6327C9.58302 88.3427 9.16296 88.2927 9.16296 88.2927L8.84302 89.2227L8.83301 89.2127Z" fill="white"/>
<path d="M0.452637 47.4725C0.442637 47.9825 0.452656 48.4025 0.472656 48.6925C0.572656 49.8225 1.39263 53.2225 3.26263 54.6725C5.13263 56.1225 7.43262 56.4325 7.43262 56.4325C7.43262 56.4325 9.70264 55.9325 11.4526 54.3425C13.2026 52.7425 13.7426 49.2925 13.7526 48.1625C13.7526 47.8725 13.7226 47.4525 13.6726 46.9425C12.9826 47.1625 12.2126 47.2025 11.1826 46.2925C10.6726 45.8425 10.3027 45.2325 10.2827 44.5525C10.2427 43.1325 11.3527 41.9325 12.7827 41.8725C12.8427 41.8725 12.9026 41.8725 12.9526 41.8825C12.8526 41.2725 12.7827 40.8725 12.7827 40.8725L5.28265 0.0825C5.26265 -0.0275 5.09264 -0.0275 5.08264 0.0825L0.842651 41.3425C0.842651 41.3425 0.802625 41.7425 0.752625 42.3625C0.812625 42.3625 0.862607 42.3425 0.922607 42.3425C2.35261 42.2825 3.55262 43.3925 3.62262 44.8125C3.65262 45.4925 3.33261 46.1325 2.86261 46.6225C1.90261 47.6125 1.14262 47.6325 0.432617 47.4725H0.452637Z" fill="#343434"/>
<path d="M5.41278 6.98242C5.25278 6.98242 5.13281 7.12242 5.13281 7.28242L6.81281 54.5624C6.81281 54.7224 6.94278 54.8424 7.10278 54.8424H7.11279C7.27279 54.8424 7.39282 54.7024 7.39282 54.5424L5.71283 7.26242C5.71283 7.10242 5.56278 6.98242 5.41278 6.98242Z" fill="white"/>
<path d="M3.16302 58.8425C3.00302 58.8425 2.87305 58.9725 2.87305 59.1325C2.87305 59.2925 3.00302 59.4225 3.16302 59.4225L11.0331 59.3425C11.1931 59.3425 11.3231 59.2125 11.3231 59.0525C11.3231 58.8925 11.2031 58.7525 11.0331 58.7625L3.16302 58.8425Z" fill="white"/>
<path d="M4.14258 132.262C3.98258 132.262 3.85254 132.392 3.85254 132.552C3.85254 132.712 3.98258 132.842 4.14258 132.842L12.0126 132.762C12.1726 132.762 12.3026 132.632 12.3026 132.472C12.3026 132.312 12.1626 132.162 12.0126 132.182L4.14258 132.262Z" fill="white"/>
<path d="M4.04291 135.413C3.88291 135.413 3.75293 135.543 3.75293 135.703C3.75293 135.863 3.88291 135.993 4.04291 135.993L11.9129 135.913C12.0729 135.913 12.2029 135.783 12.2029 135.623C12.2029 135.463 12.0829 135.363 11.9129 135.333L4.04291 135.413Z" fill="white"/>
<path d="M3.20215 62.0324C3.04215 62.0324 2.91211 62.1624 2.91211 62.3224C2.91211 62.4824 3.04215 62.6124 3.20215 62.6124L11.0721 62.5324C11.2321 62.5324 11.3621 62.4024 11.3621 62.2424C11.3621 62.0824 11.2121 61.9524 11.0721 61.9524L3.20215 62.0324Z" fill="white"/>
<path d="M134.643 266.842C137.453 266.742 138.283 267.632 141.883 268.272C145.483 268.912 148.723 269.012 150.433 269.012C154.573 269.012 153.883 265.562 153.883 265.562C153.883 265.562 151.993 259.712 148.983 259.082C143.623 257.972 116.673 197.352 117.263 192.372C117.853 187.392 115.243 173.352 115.243 173.352C115.243 173.352 105.883 119.732 104.403 116.622C102.923 113.512 96.5729 101.642 94.6529 98.8625C92.7329 96.0725 82.9629 90.8525 81.4329 90.8825C79.8929 90.9125 64.7229 92.4925 60.2629 92.4425C55.8029 92.3925 49.7229 92.4425 49.7229 92.4425C49.7229 92.4425 43.0928 103.502 42.3528 109.032C41.6128 114.552 42.2028 126.672 42.3528 133.612C42.5028 140.552 36.7429 166.862 36.7429 166.862L13.3929 239.912L11.1729 245.872C11.1729 245.872 14.0529 244.522 17.4529 245.252C20.8529 245.992 22.1829 246.582 22.2529 248.352C22.3229 250.122 22.4029 253.522 22.8429 254.192C23.2829 254.852 24.7629 256.412 26.5329 256.702C28.3029 257.002 32.2229 257.662 32.2229 257.662C32.2229 257.662 72.5929 262.912 85.0329 266.162C97.4629 269.412 93.9229 273.552 106.183 274.882C118.443 276.212 127.613 272.962 127.613 272.962C127.613 272.962 132.733 272.172 132.833 271.142C132.933 270.112 132.493 268.282 132.493 268.282C132.493 268.282 131.853 266.952 134.663 266.852L134.643 266.842Z" fill="#343434"/>
<path d="M78.0726 121.092C78.4126 123.402 80.4326 126.462 80.4326 126.462L101.863 129.023L98.6826 122.003C98.6826 122.003 95.4326 111.802 94.7626 109.742C94.1026 107.672 89.9626 97.9925 88.1326 96.2225C87.0526 95.1825 83.2626 94.6325 81.7326 94.7925C80.0326 95.9725 78.1126 100.363 77.5226 104.793C76.9926 108.783 77.9626 117.503 77.9626 117.503C77.9626 117.503 77.8226 117.582 77.5826 117.712C77.7626 118.982 77.9326 120.192 78.0626 121.092H78.0726Z" fill="#514DE6"/>
<path d="M33.7426 206.242C28.5526 219.442 25.0326 233.272 23.2826 247.352C23.2626 247.512 23.3726 247.652 23.5326 247.672C23.5426 247.672 23.5526 247.672 23.5726 247.672C23.7126 247.672 23.8426 247.562 23.8626 247.422C25.6026 233.392 29.1126 219.612 34.2826 206.452C34.3426 206.302 34.2726 206.132 34.1226 206.082C33.9726 206.022 33.8026 206.092 33.7526 206.242H33.7426Z" fill="white"/>
<path d="M130.623 259.472C130.463 259.502 130.363 259.662 130.403 259.812C130.913 262.232 131.563 264.232 132.383 266.762C132.633 267.542 132.903 268.362 133.183 269.262C133.223 269.382 133.333 269.462 133.463 269.462C133.493 269.462 133.523 269.462 133.553 269.452C133.703 269.402 133.793 269.242 133.743 269.092C133.463 268.192 133.193 267.372 132.943 266.592C132.133 264.082 131.493 262.092 130.983 259.702C130.953 259.542 130.793 259.452 130.643 259.482L130.623 259.472Z" fill="white"/>
<path d="M61.5224 99.4225C62.9124 97.7025 67.3624 92.0825 67.9924 88.0925C68.6224 84.1025 66.9324 72.5725 66.9324 72.5725L58.9124 76.0225L58.3424 87.2525C58.3424 87.2525 55.5824 90.0925 53.4524 91.3925C51.3224 92.6825 51.2024 103.063 51.2124 103.653C51.2224 104.243 51.2124 107.743 51.2124 107.743C51.2124 107.743 59.8924 101.443 61.5224 99.4225Z" fill="#514DE6"/>
<path d="M46.3027 29.6026C40.2927 31.6726 39.8027 35.3126 39.8027 35.3126C39.8027 35.3126 42.9528 37.0826 45.0828 38.6626C47.2128 40.2426 49.7028 44.2726 49.7028 44.2726C49.7028 44.2726 56.7928 43.0626 60.9628 44.8726C65.1328 46.6726 67.1927 53.9326 67.1927 53.9326C67.1927 53.9326 71.7828 68.7826 74.9628 64.1226C78.1428 59.4626 78.5128 51.6626 78.5128 51.6626C78.5128 51.6626 79.1527 40.5026 72.5527 33.1426C65.3727 25.1226 52.3127 27.5226 46.3027 29.5926V29.6026Z" fill="#514DE6"/>
<path d="M64.7629 33.7426C64.8629 33.7026 64.9329 33.6026 64.9429 33.4826C64.9429 33.3226 64.8228 33.1926 64.6628 33.1826C64.0928 33.1826 62.0529 37.0626 61.7629 37.7826C61.1029 39.4026 60.8128 40.9426 60.9128 42.3526C60.9228 42.5026 61.0529 42.6226 61.2029 42.6226C61.2029 42.6226 61.2129 42.6226 61.2229 42.6226C61.3829 42.6126 61.5028 42.4726 61.4928 42.3126C61.4028 40.9926 61.6728 39.5426 62.3028 38.0026C62.8628 36.6326 64.4529 34.0426 64.7729 33.7426H64.7629Z" fill="white"/>
<path d="M66.4027 39.9426C65.2427 40.9426 64.4727 42.1126 64.1827 43.3126C64.1427 43.4726 64.2427 43.6226 64.3927 43.6626C64.4127 43.6626 64.4427 43.6626 64.4627 43.6626C64.5927 43.6626 64.7127 43.5726 64.7427 43.4426C65.0727 42.0626 66.0327 41.0126 66.7727 40.3726C68.2127 39.1326 70.2227 38.1926 70.5227 38.1426C70.6627 38.1426 70.7927 38.0326 70.8127 37.8926C70.8327 37.7326 70.7227 37.5926 70.5627 37.5726C70.1927 37.4926 67.8627 38.6926 66.3927 39.9426H66.4027Z" fill="white"/>
<path d="M68.2832 48.4127C68.2132 48.5527 68.2732 48.7327 68.4132 48.8027C68.4532 48.8227 68.5032 48.8327 68.5432 48.8327C68.6532 48.8327 68.7532 48.7727 68.8032 48.6727C69.6732 46.9427 71.5332 45.5927 74.0532 44.8727C74.2032 44.8327 74.2932 44.6727 74.2532 44.5127C74.2132 44.3627 74.0532 44.2727 73.8932 44.3127C71.2132 45.0827 69.2232 46.5327 68.2832 48.4127Z" fill="white"/>
<path d="M54.7628 31.9927C55.0728 31.5027 55.3128 31.1227 54.9728 30.6027C54.3328 29.6427 52.5928 29.3027 49.7828 29.5927C46.1428 29.9627 43.8228 31.3427 43.7228 31.4027C43.5828 31.4827 43.5428 31.6627 43.6228 31.8027C43.7028 31.9427 43.8828 31.9827 44.0228 31.9027C44.0428 31.8927 46.3428 30.5227 49.8428 30.1727C52.3428 29.9127 54.0028 30.1827 54.4928 30.9327C54.6128 31.1127 54.5928 31.1927 54.2828 31.6927C53.8228 32.4227 53.0528 33.6527 52.7828 36.5427C52.5528 39.0427 52.8128 41.7927 52.8228 41.8127C52.8328 41.9627 52.9628 42.0727 53.1128 42.0727C53.1128 42.0727 53.1328 42.0727 53.1428 42.0727C53.3028 42.0527 53.4228 41.9127 53.4028 41.7527C53.4028 41.7227 53.1328 39.0327 53.3628 36.5927C53.6228 33.8327 54.3428 32.6827 54.7728 31.9927H54.7628Z" fill="white"/>
<path d="M48.3323 55.5526C47.8523 56.7226 47.6523 63.1026 47.8723 64.4826C48.7123 69.7526 50.1523 73.8926 53.2623 76.6426C56.7923 79.7726 62.8724 76.9926 66.6524 70.9126C66.8724 70.5626 67.0824 70.2026 67.2824 69.8326C68.9024 66.8426 68.8123 64.6326 69.4423 62.8626C70.0723 61.0926 70.1624 56.2026 65.7824 50.3826C63.1124 46.8426 50.7723 49.5726 48.3323 55.5626V55.5526Z" fill="#514DE6"/>
<path d="M64.302 75.5526C65.902 73.9026 67.842 68.8625 67.842 68.8625C67.842 68.8625 65.922 72.1825 63.752 74.2925C62.482 75.5325 58.832 77.6125 58.832 77.6125C58.832 77.6125 61.772 78.1626 64.302 75.5526Z" fill="#343434"/>
<path d="M54.393 69.4425C54.713 69.7725 55.253 69.8225 55.723 69.7525C55.953 69.7225 56.153 69.6625 56.313 69.6025C56.483 69.5325 56.563 69.3425 56.493 69.1725C56.423 69.0025 56.233 68.9225 56.063 68.9925C55.673 69.1525 55.053 69.1825 54.863 68.9925C54.713 68.8325 54.843 68.4625 54.933 68.2525C55.503 66.9425 55.443 64.8825 55.103 63.5325C54.803 62.3725 54.223 61.7025 52.583 61.5725C52.763 61.6825 52.903 61.8325 53.013 61.9925C53.293 62.1125 53.503 62.2925 53.663 62.5225C54.123 62.7825 54.323 63.1825 54.463 63.6925C54.773 64.9025 54.833 66.8225 54.333 67.9825C53.983 68.7825 54.173 69.2225 54.403 69.4525L54.393 69.4425Z" fill="#343434"/>
<path d="M56.9331 61.8726C56.9331 61.8726 56.6131 63.5426 57.1231 62.8626C58.2831 61.3126 62.2431 60.5826 62.0331 60.3526C61.6431 59.9226 58.4831 59.3326 56.9331 61.8726Z" fill="#343434"/>
<path d="M49.9629 60.5526C50.0029 61.1726 54.2129 62.9626 54.2129 62.9626C54.2129 62.9626 54.6928 62.0426 53.2928 61.0126C51.8828 59.9826 49.9329 59.9326 49.9729 60.5526H49.9629Z" fill="#343434"/>
<path d="M59.6728 66.6126C58.8128 66.7326 58.1928 67.4026 58.2928 68.1026C58.3928 68.8026 59.1629 69.2826 60.0229 69.1626C60.8829 69.0426 61.5029 68.3726 61.4029 67.6726C61.3029 66.9726 60.5328 66.4926 59.6728 66.6126Z" fill="white"/>
<path d="M51.1826 66.6126C50.3226 66.7326 49.7026 67.4026 49.8026 68.1026C49.9026 68.8026 50.6726 69.2826 51.5326 69.1626C52.3926 69.0426 53.0126 68.3726 52.9126 67.6726C52.8126 66.9726 52.0426 66.4926 51.1826 66.6126Z" fill="white"/>
<path d="M50.6029 63.7126C50.2329 64.3526 50.4529 65.1726 51.0829 65.5426C51.7229 65.9126 52.5429 65.6926 52.9129 65.0526C53.2829 64.4126 53.0629 63.5926 52.4329 63.2226C51.7929 62.8526 50.9729 63.0726 50.6029 63.7126Z" fill="#343434"/>
<path d="M50.4525 63.6427C50.4525 63.6427 49.4925 63.2927 49.4625 63.4327C49.4225 63.6227 49.8625 64.0527 50.3725 64.3027C51.0125 64.6227 51.8425 64.5927 51.4225 63.7627C51.2825 63.4927 50.7625 63.7627 50.4525 63.6527V63.6427Z" fill="#343434"/>
<path d="M50.7822 64.9526C50.8222 65.2526 51.0922 65.4726 51.3922 65.4326C51.6822 65.3926 51.8922 65.1126 51.8522 64.8126C51.8122 64.5126 51.5422 64.2926 51.2422 64.3326C50.9522 64.3726 50.7422 64.6526 50.7822 64.9526Z" fill="white"/>
<path d="M58.5228 63.7026C58.1528 64.3426 58.3728 65.1626 59.0028 65.5326C59.6428 65.9026 60.4628 65.6826 60.8328 65.0426C61.2028 64.4026 60.9828 63.5826 60.3528 63.2126C59.7128 62.8426 58.8928 63.0626 58.5228 63.7026Z" fill="#343434"/>
<path d="M61.3826 64.7426C61.7526 64.6626 62.9526 64.0726 62.9526 64.0726C62.9526 64.0726 61.8726 64.0726 61.2526 64.0926C60.6326 64.1126 60.1426 63.9026 60.1426 63.9326C60.2726 64.5826 60.3526 64.9726 61.3826 64.7326V64.7426Z" fill="#343434"/>
<path d="M58.6631 64.9125C58.7031 65.2125 58.9731 65.4325 59.2731 65.3925C59.5631 65.3525 59.7731 65.0725 59.7331 64.7725C59.6931 64.4725 59.4231 64.2525 59.1231 64.2925C58.8331 64.3325 58.6231 64.6125 58.6631 64.9125Z" fill="white"/>
<path d="M56.0029 70.7026C54.1229 70.7526 52.4529 72.4626 54.1729 73.2926C55.0729 73.7226 56.7629 73.7726 57.6729 73.3226C58.4529 72.9326 58.6529 71.9526 57.9129 71.3926C57.3029 70.9326 56.7129 70.6926 56.0029 70.7126V70.7026Z" fill="white"/>
<path d="M52.6627 71.9327C52.5327 72.0227 52.4927 72.2027 52.5827 72.3327C52.6427 72.4127 52.7327 72.4627 52.8227 72.4627C52.8527 72.4627 52.8827 72.4627 52.9127 72.4427C53.2727 72.3827 56.5427 72.3627 58.5427 72.3627C58.7027 72.3627 58.8327 72.2327 58.8327 72.0727C58.8327 71.9127 58.7027 71.7827 58.5427 71.7827C52.8727 71.7827 52.7427 71.8727 52.6527 71.9227L52.6627 71.9327Z" fill="#343434"/>
<path d="M72.4127 89.1325C73.4427 89.9225 76.5228 88.2425 79.4028 88.8325C82.2828 89.4225 89.4528 92.2325 89.4528 92.2325L91.8127 91.7125C91.8127 91.7125 92.8828 89.3125 93.5828 88.4225C94.2828 87.5325 95.3527 88.1625 95.3527 88.1625C95.3527 88.1625 94.3228 86.4625 93.1328 86.1725C91.9528 85.8725 90.8428 86.4725 88.4028 86.1725C85.9628 85.8725 86.5528 83.9525 85.5928 82.6025C84.6328 81.2525 84.0427 77.0825 83.0027 75.5325C81.9727 73.9825 80.4928 74.5025 77.3828 73.6525C74.2728 72.8025 74.8427 71.6325 74.4227 67.9025C74.0427 64.4825 73.8328 63.2625 73.5328 60.8125C73.2328 58.3625 68.0928 58.3525 68.0928 58.3525C68.0928 58.3525 69.2527 60.3825 69.4127 62.8525C69.5827 65.3225 68.6528 68.7325 68.6528 72.1825C68.6528 75.6325 71.0928 81.4425 71.6428 84.9925C72.1928 88.5425 71.3427 88.3425 72.3727 89.1325H72.4127Z" fill="#343434"/>
<path d="M78.4432 77.9026C77.8032 77.7026 77.1532 77.5026 76.4532 77.0726C74.9532 76.1626 74.5332 75.5726 72.8032 72.9326C71.1232 70.3726 71.0732 59.2926 71.0732 59.1826C71.0732 59.0226 70.9432 58.8926 70.7832 58.8926C70.6232 58.8926 70.4932 59.0226 70.4932 59.1826C70.4932 59.6426 70.5432 70.5526 72.3132 73.2526C74.0732 75.9326 74.5432 76.6026 76.1432 77.5726C76.9032 78.0326 77.5932 78.2526 78.2632 78.4626C78.9632 78.6826 79.6232 78.8826 80.2532 79.3726C81.4132 80.2726 81.8432 82.0926 81.8432 82.1026C81.8732 82.2326 81.9932 82.3226 82.1232 82.3226C82.1432 82.3226 82.1632 82.3226 82.1832 82.3226C82.3432 82.2826 82.4332 82.1326 82.4032 81.9726C82.3832 81.8926 81.9231 79.9426 80.6031 78.9126C79.8931 78.3626 79.1832 78.1426 78.4332 77.9026H78.4432Z" fill="white"/>
<path d="M76.3431 82.8026C71.9731 81.3026 69.8531 70.2826 69.8331 70.1626C69.8031 70.0026 69.6531 69.9026 69.4931 69.9326C69.3331 69.9626 69.2331 70.1125 69.2631 70.2725C69.3531 70.7425 71.4631 81.7325 76.1531 83.3525C78.2431 84.0725 79.1431 84.4525 81.9931 85.9925C84.7531 87.4725 86.1731 88.8826 86.1831 88.9026C86.2431 88.9626 86.3131 88.9826 86.3831 88.9826C86.4531 88.9826 86.5331 88.9526 86.5831 88.9026C86.6931 88.7926 86.6931 88.6025 86.5831 88.4925C86.5231 88.4325 85.0931 87.0126 82.2531 85.4826C79.3631 83.9226 78.4431 83.5326 76.3231 82.8026H76.3431Z" fill="white"/>
<path d="M81.7421 94.7926L69.7721 89.9426L63.1521 96.7326C63.1521 96.7326 58.392 101.453 57.232 102.423C56.072 103.393 52.7121 106.823 51.8621 106.853C50.7721 104.043 52.8221 92.5426 52.8221 92.5426L49.662 93.7926C49.662 93.7926 44.5521 102.313 43.7621 104.083C43.3221 105.083 44.6321 115.903 48.5121 115.923C52.3921 115.933 56.9121 115.583 63.3421 118.963C69.7721 122.343 77.982 117.483 77.982 117.483C77.982 117.483 76.312 111.883 77.542 104.773C78.132 101.363 81.7521 94.7726 81.7521 94.7726L81.7421 94.7926Z" fill="#343434"/>
<path d="M52.5917 93.8625C52.0917 96.9525 50.9916 104.633 51.8516 106.863C52.7016 106.823 56.0617 103.393 57.2217 102.433C58.3817 101.463 63.1417 96.7425 63.1417 96.7425L64.0317 95.8225C63.0717 96.3925 59.8817 98.7425 55.5317 102.573C53.9317 103.983 52.4816 104.863 52.1816 104.053C52.0216 103.613 52.8016 93.8625 52.8016 93.8625H52.5817H52.5917Z" fill="white"/>
<path d="M73.8623 107.303C73.8623 107.303 72.2623 105.753 69.7723 104.203C67.2823 102.653 63.0023 102.943 59.6023 104.273C56.2023 105.603 51.4723 108.483 51.4723 108.483C51.4723 108.483 49.1423 105.743 47.1523 104.873C45.1623 104.003 42.8123 104.483 42.8123 104.483C42.8123 104.483 39.6223 109.883 39.1723 112.403C38.2623 117.463 39.4323 122.443 42.2623 123.213C45.9723 124.223 52.1523 122.723 52.9223 122.723C53.6923 122.723 55.9523 123.113 59.8923 124.393C63.8323 125.673 68.0123 125.573 70.6523 123.403C73.2923 121.233 72.7223 117.483 72.2623 115.523C71.8223 113.653 72.2623 110.593 72.2623 110.593L73.8623 107.293V107.303Z" fill="#514DE6"/>
<path d="M63.3122 106.133C60.7622 106.273 57.4522 107.743 55.2622 108.713L54.9723 108.843C53.2023 109.623 51.3222 110.863 50.7022 111.283C50.0422 110.573 47.6422 108.103 45.5522 107.293C44.1522 106.753 42.0822 106.863 41.9922 106.873C41.8322 106.873 41.7123 107.023 41.7223 107.173C41.7223 107.333 41.8822 107.473 42.0222 107.443C42.0422 107.443 44.0623 107.333 45.3423 107.833C47.6123 108.703 50.4122 111.823 50.4422 111.853C50.5022 111.913 50.5822 111.953 50.6622 111.953C50.7222 111.953 50.7822 111.933 50.8322 111.903C50.8522 111.883 53.1523 110.283 55.2123 109.373L55.5022 109.243C57.6522 108.293 60.9122 106.853 63.3522 106.713C65.6422 106.583 67.0923 106.773 68.3423 107.373C69.4223 107.883 71.3022 109.763 71.3122 109.783C71.4222 109.893 71.6123 109.893 71.7223 109.783C71.8323 109.673 71.8323 109.483 71.7223 109.373C71.6423 109.293 69.7523 107.413 68.5923 106.853C67.2423 106.213 65.7222 106.003 63.3122 106.133Z" fill="white"/>
<path d="M47.7923 152.072C47.6323 152.962 46.1623 155.472 46.1623 155.472L54.5723 164.782L59.1923 168.702C59.1923 168.702 72.0423 159.022 76.4623 158.282C80.8823 157.542 86.4023 156.802 86.4023 156.802C86.4023 156.802 79.1123 131.982 78.6723 130.352C78.2323 128.722 77.9823 117.492 77.9823 117.492L72.6023 119.572C72.4423 120.962 71.9223 122.372 70.6523 123.402C68.0123 125.572 63.8423 125.672 59.8923 124.392C55.9523 123.112 53.6923 122.722 52.9223 122.722C52.4223 122.722 49.6123 123.362 46.6823 123.522L46.1523 123.912C46.1523 123.912 51.0923 135.232 50.7623 138.482C50.4323 141.732 47.9423 151.192 47.7823 152.072H47.7923Z" fill="#514DE6"/>
<path d="M74.0324 107.073C73.9024 106.983 73.7224 107.003 73.6324 107.133C71.4524 110.113 71.8324 113.403 72.0124 114.993C72.0424 115.233 72.0624 115.443 72.0724 115.603C72.2424 118.153 72.2524 121.723 70.4624 123.183C68.0924 125.133 64.1724 125.483 59.9724 124.113C56.1324 122.863 53.7723 122.423 52.9123 122.423C52.7223 122.423 52.3223 122.493 51.6623 122.603C49.5523 122.963 45.1624 123.693 42.3324 122.923C42.1724 122.883 42.0224 122.973 41.9724 123.123C41.9324 123.273 42.0223 123.433 42.1723 123.483C45.1323 124.283 49.6024 123.533 51.7524 123.173C52.2924 123.083 52.7623 123.003 52.9123 123.003C53.5723 123.003 55.7523 123.353 59.7923 124.663C61.5423 125.233 63.2424 125.513 64.8224 125.513C67.2024 125.513 69.3024 124.873 70.8224 123.633C72.8124 122.003 72.8124 118.243 72.6424 115.563C72.6324 115.393 72.6024 115.173 72.5724 114.923C72.3824 113.293 72.0324 110.273 74.0824 107.473C74.1724 107.343 74.1524 107.163 74.0224 107.073H74.0324Z" fill="white"/>
<path d="M67.1419 94.4526C68.5719 92.2326 68.142 91.7126 70.212 90.2826C72.282 88.8526 72.5619 89.1326 72.5619 86.4226C72.5619 83.7126 69.6019 76.8626 69.1119 74.0626C68.6219 71.2526 70.3419 64.6026 70.0519 62.1926C69.8219 60.3326 68.8119 58.1426 68.3519 57.2326C67.3319 57.0926 62.4519 56.7826 61.3119 56.6726C61.4419 56.8926 65.8119 58.6226 64.9819 62.2426C64.1219 65.9726 63.7519 68.2726 65.0019 72.4226L66.2719 78.8626C66.7719 80.4926 67.1019 82.8526 66.2719 85.8826C65.4419 88.9126 62.2419 90.3126 61.5519 93.0526C60.8619 95.7826 61.8219 98.4926 62.0619 99.6726C62.3119 100.853 62.9519 101.443 62.9519 101.443C62.9519 101.443 62.3619 99.5726 63.1919 98.6326C64.0219 97.6926 65.7019 96.6626 67.1319 94.4426L67.1419 94.4526Z" fill="#343434"/>
<path d="M70.5821 89.6826C70.3421 89.8426 70.0721 90.0126 69.7821 90.2226C69.6521 90.3126 69.6221 90.4927 69.7121 90.6227C69.7721 90.7027 69.862 90.7426 69.952 90.7426C70.012 90.7426 70.062 90.7226 70.112 90.6926C70.402 90.4926 70.6721 90.3226 70.9021 90.1626C72.3521 89.2126 72.8421 88.8926 72.8421 86.4126C72.8421 84.7726 71.842 81.8026 70.872 78.9326C70.212 76.9826 69.592 75.1326 69.392 74.0026C69.132 72.5326 69.512 69.9426 69.872 67.4326C70.182 65.3026 70.4721 63.2826 70.3321 62.1426C70.0321 59.6726 69.0121 58.4726 68.9721 58.4226C68.8621 58.3026 68.682 58.2926 68.562 58.3926C68.442 58.4926 68.4321 58.6826 68.5321 58.8026C68.5321 58.8126 69.482 59.9326 69.762 62.2126C69.892 63.2826 69.602 65.2626 69.302 67.3526C68.932 69.9026 68.552 72.5326 68.822 74.1026C69.032 75.2826 69.662 77.1526 70.322 79.1226C71.232 81.8226 72.262 84.8726 72.262 86.4126C72.262 88.5726 71.9721 88.7626 70.5821 89.6726V89.6826Z" fill="white"/>
<path d="M64.612 93.2226C64.482 93.3126 64.452 93.4926 64.542 93.6226C64.602 93.7026 64.692 93.7426 64.782 93.7426C64.842 93.7426 64.892 93.7226 64.942 93.6926C67.042 92.2426 69.842 87.5526 69.842 84.7326C69.842 82.5626 68.962 79.3026 68.182 76.4226C67.772 74.9126 67.392 73.4926 67.222 72.5126C66.962 71.0326 67.242 68.8626 67.502 66.7526C67.732 64.9626 67.942 63.2726 67.802 62.1326C67.502 59.6626 66.482 58.4626 66.442 58.4126C66.332 58.2926 66.152 58.2826 66.032 58.3826C65.912 58.4826 65.902 58.6726 66.002 58.7926C66.002 58.8026 66.952 59.9226 67.232 62.2026C67.362 63.2726 67.152 64.9226 66.932 66.6826C66.662 68.8226 66.382 71.0426 66.652 72.6126C66.832 73.6226 67.212 75.0526 67.632 76.5726C68.402 79.4126 69.272 82.6326 69.272 84.7326C69.272 87.3426 66.562 91.8726 64.622 93.2126L64.612 93.2226Z" fill="white"/>
<path d="M56.6718 52.0628C54.5018 53.0228 53.6018 53.9328 53.6018 53.9328C53.6018 53.9328 49.5718 52.6828 48.5818 52.5428C45.2818 52.0828 44.6318 53.3028 44.2518 53.8428C43.8718 54.3828 44.6618 59.1828 44.6618 59.1828C44.6618 59.1828 44.6218 57.8228 47.6818 57.8228C50.7418 57.8228 54.4518 60.5028 54.4518 60.5028H54.7618C54.7618 60.5028 56.7318 58.5228 57.9518 58.2928C57.9518 58.2928 58.2418 57.8228 61.9818 57.8228C65.7218 57.8228 71.6918 58.9028 71.6918 58.9028L72.3018 54.3728C72.3018 54.3728 68.1018 52.3728 65.9218 51.7328C64.1518 51.2128 59.9118 50.6328 56.6818 52.0528L56.6718 52.0628Z" fill="#343434"/>
<path d="M57.2014 42.5627C54.4314 42.7427 50.5814 44.4827 49.7714 45.2227C49.0314 45.8927 47.8314 47.2427 46.9914 48.8627C46.3414 50.1227 45.8714 51.9326 45.6914 52.6926C46.4714 52.4826 47.4214 52.3926 48.5614 52.5526C49.5514 52.6926 53.5814 53.9426 53.5814 53.9426C53.5814 53.9426 54.4814 53.0326 56.6514 52.0726C59.8714 50.6526 64.1214 51.2327 65.8914 51.7527C67.3614 52.1827 69.7414 53.2327 71.1414 53.8627C71.1414 53.8627 71.6814 49.7326 69.5314 46.9226C68.1014 45.0526 63.2214 42.1627 57.1814 42.5627H57.2014Z" fill="#343434"/>
<path d="M50.5821 47.9626C50.7821 48.4526 51.2921 50.9126 51.2921 50.9126L54.5821 50.4326L53.5121 42.9326L49.3721 44.2226C49.3721 44.2226 49.9921 46.5126 50.5821 47.9626Z" fill="#343434"/>
<path d="M59.272 41.7827C57.432 41.7127 53.502 42.9327 53.502 42.9327L54.572 50.4327C54.572 50.4327 55.352 48.5527 56.342 47.2527C57.332 45.9527 58.522 45.7727 60.772 45.2727C63.022 44.7727 67.1819 45.2727 67.1819 45.2727C67.1819 45.2727 66.562 44.2927 65.892 43.6727C64.632 42.5227 62.322 41.9027 59.262 41.7927L59.272 41.7827Z" fill="#343434"/>
<path d="M56.5522 51.8026C54.7922 52.5726 53.8522 53.3226 53.5222 53.6126C52.7522 53.3726 49.5122 52.3826 48.6122 52.2626C47.5622 52.1126 46.5622 52.1726 45.6222 52.4126C45.4722 52.4526 45.3722 52.6126 45.4122 52.7626C45.4522 52.9126 45.6122 53.0126 45.7622 52.9726C46.6222 52.7426 47.5522 52.7026 48.5222 52.8326C49.4822 52.9626 53.4622 54.2026 53.5022 54.2126C53.5322 54.2126 53.5622 54.2226 53.5922 54.2226C53.6722 54.2226 53.7422 54.1926 53.8022 54.1326C53.8022 54.1326 54.7022 53.2426 56.7922 52.3226C59.7422 51.0226 63.8122 51.4226 65.8322 52.0126C67.3022 52.4426 69.7322 53.5126 71.0422 54.1126C71.1922 54.1826 71.3622 54.1126 71.4222 53.9726C71.4922 53.8226 71.4222 53.6526 71.2822 53.5926C69.9522 52.9826 67.5022 51.9026 65.9922 51.4626C64.1822 50.9326 59.8822 50.3226 56.5522 51.7926V51.8026Z" fill="white"/>
<path d="M53.4322 42.8528L49.2922 43.9428C49.2122 43.9628 49.1522 44.0128 49.1122 44.0828C49.0722 44.1528 49.0623 44.2328 49.0823 44.3028L50.9822 50.8828C51.0222 51.0128 51.1323 51.0928 51.2623 51.0928C51.2823 51.0928 51.3023 51.0928 51.3223 51.0928L54.5823 50.3828C54.7323 50.3528 54.8322 50.2128 54.8022 50.0628L53.7823 43.1128C53.7723 43.0328 53.7223 42.9628 53.6523 42.9128C53.5823 42.8628 53.5022 42.8528 53.4222 42.8728L53.4322 42.8528ZM54.2023 49.8628L51.4723 50.4628L49.7322 44.4228L53.2723 43.4928L54.2123 49.8628H54.2023Z" fill="white"/>
<path d="M62.8415 44.5926C55.4515 44.8326 54.4515 49.9726 54.4415 50.0226C54.4115 50.1826 54.5215 50.3326 54.6715 50.3626C54.6915 50.3626 54.7015 50.3626 54.7215 50.3626C54.8615 50.3626 54.9815 50.2626 55.0015 50.1226C55.0315 49.9326 55.9514 45.3826 62.8514 45.1626C64.8614 45.1026 67.1115 45.5326 67.1315 45.5326C67.2915 45.5626 67.4415 45.4626 67.4715 45.3026C67.5015 45.1426 67.4015 44.9926 67.2415 44.9626C67.1515 44.9426 64.9215 44.5126 62.8315 44.5826L62.8415 44.5926Z" fill="white"/>
<path d="M52.4318 57.0025C52.3118 57.0025 54.0318 58.7525 54.0318 58.7525L55.3118 57.0525L53.5118 55.3525C53.4418 55.5725 52.5518 57.0025 52.4318 57.0025Z" fill="white"/>
<path d="M53.932 58.9826C53.982 59.0226 54.042 59.0326 54.102 59.0326C54.192 59.0326 54.2821 58.9926 54.3421 58.9126L55.562 57.2126C55.642 57.0926 55.6321 56.9326 55.5221 56.8326L53.7221 55.1326C53.6021 55.0226 53.422 55.0326 53.312 55.1426C53.202 55.2626 53.2121 55.4426 53.3221 55.5526L54.932 57.0826L53.862 58.5726C53.772 58.7026 53.802 58.8826 53.932 58.9726V58.9826Z" fill="#343434"/>
<path d="M61.962 57.5427C59.712 57.5427 58.3119 57.8027 57.8019 58.0327C56.7219 58.5127 55.012 59.8327 54.622 60.2127H54.522C53.952 59.8127 50.5619 57.5327 47.6619 57.5327C46.2519 57.5327 45.2719 57.8127 44.7419 58.3627C44.3519 58.7627 44.3519 59.1527 44.3619 59.1927C44.3619 59.3527 44.492 59.4727 44.652 59.4727C44.812 59.4727 44.932 59.3427 44.942 59.1827C44.942 59.1727 45.0019 58.1127 47.6719 58.1127C50.6019 58.1127 54.232 60.7127 54.272 60.7427C54.322 60.7827 54.382 60.7927 54.442 60.7927H54.752C54.832 60.7927 54.902 60.7627 54.962 60.7027C55.492 60.1727 57.122 58.9227 58.002 58.5827C58.282 58.4727 58.6919 58.1227 61.9819 58.1227C65.6519 58.1227 71.582 59.1927 71.642 59.2027C71.792 59.2227 71.9519 59.1227 71.9819 58.9727C72.0119 58.8127 71.902 58.6627 71.752 58.6327C71.692 58.6227 65.7119 57.5427 61.9919 57.5427H61.962Z" fill="white"/>
<path d="M132.603 218.863C129.203 211.923 123.593 192.413 122.553 187.983C121.523 183.553 119.153 174.683 119.003 164.343C118.853 154.003 112.503 130.953 111.613 127.693C110.723 124.443 99.0029 100.753 96.2429 96.9125C93.4829 93.0725 87.4229 89.3525 86.0129 88.6825C84.3129 87.8825 77.9629 87.7625 74.9629 87.9425C70.6429 88.2025 70.7729 91.7825 70.7729 91.7825L73.8528 94.7925C73.8528 94.7925 78.5028 95.0425 81.7328 94.7925C84.9628 94.5425 89.1429 96.0725 91.9529 99.0325C94.7629 101.993 97.7129 107.903 99.5229 112.623C101.333 117.353 112.313 187.243 112.313 187.243C112.313 187.243 114.113 196.403 114.113 200.693C114.113 204.983 115.593 233.353 115.933 240.883C116.273 248.423 117.513 262.313 117.513 262.313C117.513 262.313 124.453 259.503 130.813 259.213C137.163 258.913 141.453 258.623 146.183 259.513C150.913 260.403 153.863 265.573 153.863 265.573C153.863 265.573 153.123 262.473 152.683 259.813C152.243 257.153 147.213 247.403 143.963 240.753C140.713 234.103 135.983 225.833 132.583 218.883L132.603 218.863Z" fill="#343434"/>
<path d="M78.7324 88.7124C78.0524 88.7124 76.7824 89.1124 75.9524 89.4924C75.0924 89.8824 74.2125 90.2924 73.4725 90.9524C73.3125 91.1024 73.1524 91.2524 73.0024 91.4124C72.8924 91.5224 72.8924 91.7124 73.0024 91.8224C73.0624 91.8724 73.1324 91.9024 73.2024 91.9024C73.2724 91.9024 73.3524 91.8724 73.4124 91.8124C73.5524 91.6624 73.7024 91.5124 73.8524 91.3824C74.5224 90.7824 75.3724 90.3924 76.1924 90.0224C77.0624 89.6224 78.2024 89.2924 78.7324 89.2924C78.8924 89.2924 79.0224 89.1624 79.0224 89.0024C79.0224 88.8424 78.8924 88.7124 78.7324 88.7124Z" fill="white"/>
<path d="M79.463 90.7325C78.183 90.9225 76.963 91.3325 75.833 91.7425L75.703 91.7925C74.483 92.2425 73.923 92.4425 72.673 93.0025C72.523 93.0725 72.463 93.2425 72.523 93.3825C72.573 93.4925 72.673 93.5525 72.783 93.5525C72.823 93.5525 72.863 93.5525 72.903 93.5225C74.133 92.9725 74.683 92.7725 75.893 92.3225L76.023 92.2725C77.123 91.8725 78.313 91.4725 79.543 91.2825C81.083 91.0525 82.693 91.1525 84.113 91.2425C84.263 91.2525 84.413 91.1325 84.423 90.9725C84.433 90.8125 84.313 90.6725 84.153 90.6625C82.703 90.5725 81.063 90.4625 79.463 90.7025V90.7325Z" fill="white"/>
<path d="M115.323 185.033C115.163 185.043 115.043 185.183 115.053 185.343C116.153 199.393 119.863 210.173 124.173 222.663C125.223 225.713 126.313 228.863 127.393 232.163C127.433 232.283 127.543 232.363 127.673 232.363C127.703 232.363 127.733 232.363 127.763 232.353C127.913 232.303 128.003 232.143 127.953 231.983C126.873 228.673 125.783 225.523 124.733 222.473C120.443 210.023 116.733 199.273 115.643 185.303C115.633 185.143 115.493 185.013 115.333 185.033H115.323Z" fill="white"/>
<path d="M79.9624 110.932C79.8124 110.972 79.7224 111.132 79.7624 111.292L81.4524 117.282C81.4924 117.412 81.6024 117.492 81.7324 117.492C81.7624 117.492 81.7824 117.492 81.8124 117.482C81.9624 117.442 82.0524 117.282 82.0124 117.122L80.3224 111.132C80.2824 110.982 80.1224 110.892 79.9624 110.932Z" fill="white"/>
<path d="M82.9225 94.7825H81.7425C81.7425 94.7825 78.1525 101.392 77.5325 104.792C75.7625 114.492 77.9725 117.432 77.9725 117.432L80.5525 116.972C80.5525 116.972 78.6225 115.222 78.4125 110.452C78.2725 107.362 78.6025 104.142 79.0625 102.752C80.8325 97.4225 82.9225 94.7825 82.9225 94.7825Z" fill="white"/>
<path d="M107.483 331.613C111.473 331.313 111.473 328.653 120.043 331.173C128.613 333.683 128.913 336.643 139.403 335.013C149.893 333.383 153.883 331.173 153.883 331.173C153.883 331.173 139.403 313.293 136.153 304.723C133.363 297.373 123.293 269.143 120.483 261.273C118.693 261.843 117.533 262.313 117.533 262.313C117.533 262.313 116.983 256.103 116.513 249.743L109.553 229.363C109.553 229.363 103.933 209.563 103.933 204.833C103.933 200.103 101.123 184.443 101.123 184.443L96.6926 162.423L47.7826 160.893C47.7826 160.893 37.7325 189.013 36.8525 205.273C35.9625 221.523 30.6425 275.613 29.1725 282.413C27.6925 289.203 14.1025 329.813 14.1025 329.813C14.1025 329.813 16.7626 330.583 20.9026 332.943C25.0426 335.303 27.4025 336.783 28.2925 336.933C29.1825 337.083 33.7626 337.183 37.7526 335.433C41.7426 333.683 42.6326 332.053 47.0626 332.643C51.4926 333.233 54.0026 333.533 60.2126 334.713C66.4226 335.893 84.3026 339.003 87.6926 339.003C91.0826 339.003 104.093 337.523 105.423 336.343C106.753 335.163 103.503 331.913 107.493 331.613H107.483Z" fill="#343434"/>
<path d="M131.563 321.483C126.983 320.513 124.033 319.933 119.153 318.143C108.073 314.073 103.523 327.443 91.6729 326.593C88.8729 326.393 76.1529 322.603 76.1529 322.603C76.1529 322.603 63.5928 319.053 59.6028 319.053C55.6128 319.053 52.6629 320.383 48.8129 321.413C44.9729 322.443 41.8329 325.183 35.2229 324.963C32.2529 324.863 28.4729 324.963 24.8829 322.603C21.2829 320.243 18.5529 316.363 18.5529 316.363L16.9629 321.193C16.9629 321.193 19.6329 325.413 23.4029 327.553C26.4729 329.293 28.9529 331.063 34.7429 330.873C38.2029 330.763 44.5929 328.363 52.0729 326.193C61.3029 323.523 76.3529 329.393 83.1529 330.873C89.9529 332.353 97.4129 332.363 100.093 330.873C105.223 328.033 108.513 324.223 118.563 324.963C128.613 325.703 132.013 328.363 139.253 328.513C146.493 328.663 150.893 327.383 150.893 327.383L146.383 321.373C146.383 321.373 136.153 322.463 131.573 321.493L131.563 321.483Z" fill="#514DE6"/>
<path d="M52.3627 291.862C53.0827 290.942 53.4627 289.822 53.8627 288.732C57.7627 276.512 58.5027 263.562 58.3027 250.822C58.2227 243.872 58.3727 236.822 57.4827 229.942C57.0127 225.472 55.8827 213.832 55.4227 209.192C54.6727 199.982 53.4527 190.702 53.9827 181.472C53.3027 186.062 53.6527 190.742 53.6927 195.372C54.2327 209.232 55.8428 223.172 56.9528 236.932C57.3028 254.232 58.3427 271.822 53.6827 288.682C53.3427 289.782 53.0228 290.912 52.3428 291.862H52.3627Z" fill="white"/>
<path d="M78.2133 234.682C76.6533 223.402 76.4433 195.792 76.4433 195.512C76.4433 195.352 76.3133 195.222 76.1533 195.222C75.9933 195.222 75.8633 195.352 75.8633 195.512C75.8633 195.792 76.0733 223.442 77.6433 234.752C79.2033 246.072 88.5933 278.402 88.6833 278.742L95.5733 299.522L100.303 320.512C100.333 320.642 100.453 320.742 100.583 320.742C100.603 320.742 100.623 320.742 100.643 320.742C100.803 320.702 100.893 320.552 100.863 320.392L96.1233 299.382L89.2333 278.582C89.1433 278.252 79.7633 245.962 78.2133 234.692V234.682Z" fill="white"/>
<path d="M85.8028 221.522C87.9128 231.552 91.2128 241.722 94.1128 251.572C94.8228 254.062 95.6828 256.542 96.1728 259.022C98.0728 266.392 100.533 274.202 102.693 281.512C106.623 293.882 111.163 306.082 115.953 318.142C114.133 313.282 112.563 308.332 110.903 303.412C109.193 298.192 105.063 286.402 103.653 281.222C101.573 274.022 99.1128 265.982 97.3028 258.792C96.7628 256.182 95.9028 253.752 95.1728 251.252C92.2228 241.452 88.8828 231.302 86.5228 221.372C84.9528 213.762 85.3228 205.892 85.7428 198.162C84.9728 205.892 84.3728 213.812 85.8128 221.522H85.8028Z" fill="white"/>
<path d="M94.6429 196.892C94.4829 196.892 94.3528 197.032 94.3628 197.182C94.3628 197.302 94.6028 209.432 96.1728 216.662C97.7328 223.882 104.093 245.722 104.153 245.942C104.193 246.072 104.303 246.152 104.433 246.152C104.463 246.152 104.483 246.152 104.513 246.142C104.663 246.092 104.753 245.932 104.713 245.782C104.653 245.562 98.2929 223.742 96.7429 216.542C95.1929 209.362 94.9529 197.292 94.9529 197.172C94.9529 197.012 94.8128 196.902 94.6628 196.892H94.6429Z" fill="white"/>
<path d="M35.2926 302.212C34.1226 305.532 28.2526 324.682 28.1926 324.882C28.1426 325.032 28.2326 325.192 28.3826 325.242C28.4126 325.242 28.4426 325.252 28.4626 325.252C28.5826 325.252 28.7026 325.172 28.7426 325.052C28.8026 324.862 34.6626 305.712 35.8326 302.402C36.0926 301.682 42.1026 284.482 43.5326 267.462C44.2726 258.692 42.7626 243.722 42.7426 243.572C42.7226 243.412 42.5826 243.302 42.4226 243.312C42.2626 243.332 42.1526 243.472 42.1626 243.632C42.1826 243.782 43.6826 258.702 42.9526 267.422C41.5326 284.372 35.5426 301.502 35.2826 302.222L35.2926 302.212Z" fill="white"/>
<path d="M107.503 331.902C108.803 331.802 109.693 331.462 110.563 331.132C112.423 330.422 114.183 329.752 119.963 331.442C122.613 332.222 124.453 333.032 126.073 333.752C129.723 335.362 132.133 336.422 139.443 335.292C149.863 333.682 153.853 331.512 154.023 331.422C154.163 331.342 154.213 331.172 154.133 331.032C154.053 330.892 153.883 330.842 153.743 330.922C153.703 330.942 149.653 333.132 139.363 334.732C132.213 335.842 129.873 334.802 126.313 333.232C124.673 332.502 122.813 331.682 120.133 330.902C114.173 329.152 112.243 329.892 110.363 330.602C109.503 330.932 108.683 331.242 107.473 331.332C106.463 331.412 105.793 331.672 105.433 332.152C104.953 332.792 105.143 333.652 105.313 334.412C105.473 335.122 105.613 335.792 105.233 336.132C104.043 337.192 91.4129 338.722 87.6929 338.722C84.4229 338.722 66.9829 335.722 60.2629 334.442C54.6329 333.372 51.9729 333.022 48.2929 332.532L47.093 332.372C43.783 331.932 42.3329 332.722 40.3229 333.822C39.5629 334.232 38.7029 334.702 37.6229 335.182C33.5429 336.972 28.9929 336.772 28.3329 336.662C27.7029 336.552 26.0729 335.612 23.6029 334.182C22.8429 333.742 21.983 333.242 21.033 332.702C16.913 330.352 14.2829 329.582 14.1729 329.542C14.0129 329.492 13.8629 329.582 13.8129 329.742C13.7729 329.892 13.8529 330.052 14.0129 330.102C14.0429 330.102 16.6929 330.892 20.7429 333.202C21.6929 333.742 22.5429 334.232 23.3029 334.682C26.0029 336.242 27.493 337.102 28.223 337.232C29.363 337.422 33.953 337.422 37.843 335.712C38.953 335.222 39.8229 334.752 40.5829 334.332C42.5629 333.252 43.8729 332.532 46.9929 332.952L48.1929 333.112C51.8629 333.602 54.5129 333.952 60.1229 335.022C66.3329 336.202 84.1929 339.312 87.6629 339.312C90.7129 339.312 104.113 337.892 105.583 336.582C106.223 336.012 106.033 335.142 105.843 334.302C105.693 333.602 105.543 332.942 105.863 332.512C106.113 332.182 106.653 331.982 107.483 331.922L107.503 331.902Z" fill="white"/>
<path d="M20.6129 323.182C20.7729 323.232 20.933 323.142 20.973 322.992L21.3229 321.882C21.3529 321.782 21.3229 321.672 21.2529 321.592L20.4029 320.702C20.3329 320.632 20.2329 320.602 20.1329 320.622C20.0329 320.642 19.9529 320.712 19.9229 320.802L19.0729 323.092C19.0329 323.212 19.0729 323.342 19.1629 323.412L21.0829 325.002C21.1329 325.042 21.2029 325.072 21.2629 325.072C21.2929 325.072 21.3129 325.072 21.3429 325.062C21.4329 325.032 21.5029 324.962 21.5329 324.872L22.5329 321.802C22.5629 321.692 22.5329 321.582 22.4529 321.502L20.0929 319.252C20.0229 319.182 19.9229 319.162 19.8329 319.182C19.7429 319.202 19.6629 319.262 19.6229 319.352L18.3529 322.402C18.2929 322.552 18.3529 322.722 18.5129 322.782C18.6629 322.842 18.8329 322.782 18.8929 322.622L20.0029 319.962L21.9329 321.802L21.1229 324.292L19.6929 323.102L20.3129 321.442L20.723 321.872L20.4229 322.812C20.3729 322.962 20.4629 323.132 20.6129 323.172V323.182Z" fill="white"/>
<path d="M24.6833 326.352C24.8333 326.402 24.9933 326.312 25.0433 326.162L25.3933 325.052C25.4233 324.952 25.3933 324.842 25.3233 324.762L24.4733 323.872C24.4033 323.802 24.3033 323.762 24.2033 323.792C24.1033 323.812 24.0233 323.882 23.9933 323.972L23.1433 326.262C23.1033 326.382 23.1433 326.512 23.2333 326.582L25.1533 328.172C25.2033 328.212 25.2733 328.242 25.3333 328.242C25.3533 328.242 25.3733 328.242 25.4033 328.242C25.4933 328.222 25.5633 328.162 25.6033 328.072L27.1533 324.522C27.2133 324.392 27.1533 324.232 27.0433 324.162L24.1333 322.392C24.0633 322.352 23.9833 322.342 23.9033 322.362C23.8233 322.382 23.7633 322.442 23.7233 322.512L22.0233 325.862C21.9533 326.002 22.0033 326.182 22.1533 326.252C22.2933 326.322 22.4733 326.272 22.5433 326.122L24.1033 323.052L26.5333 324.532L25.2433 327.492L23.7733 326.282L24.3933 324.622L24.8033 325.052L24.5033 325.992C24.4533 326.142 24.5433 326.312 24.6933 326.352H24.6833Z" fill="white"/>
<path d="M30.7428 326.592C30.4428 326.482 29.8528 326.342 28.7328 326.062C28.5828 326.022 28.4328 326.112 28.3828 326.262L27.5428 329.122C27.5228 329.202 27.5328 329.282 27.5728 329.352C27.6128 329.422 27.6828 329.472 27.7628 329.482L31.0628 330.102C31.0628 330.102 31.1028 330.102 31.1128 330.102C31.1728 330.102 31.2328 330.082 31.2828 330.052C31.3428 330.012 31.3928 329.942 31.4028 329.862L32.1128 325.652C32.1228 325.572 32.1128 325.492 32.0628 325.432C32.0128 325.372 31.9428 325.322 31.8728 325.312L28.3728 324.822C28.2328 324.812 28.1028 324.882 28.0628 325.012L26.8528 328.582C26.8028 328.732 26.8828 328.902 27.0328 328.952C27.1828 329.002 27.3528 328.922 27.4028 328.772L28.5328 325.432L31.4928 325.852L30.8728 329.482L28.1728 328.982L28.8428 326.702C29.3528 326.832 29.9828 326.992 30.3428 327.082C30.2528 327.352 30.1428 327.762 29.9828 328.402C29.9428 328.552 30.0428 328.712 30.1928 328.752C30.3528 328.792 30.5028 328.692 30.5428 328.542C30.6928 327.952 30.8828 327.252 30.9528 327.082C30.9928 327.042 31.0128 326.992 31.0228 326.932C31.0428 326.792 31.0528 326.722 30.7328 326.612C30.7328 326.612 30.7328 326.612 30.7228 326.612L30.7428 326.592Z" fill="white"/>
<path d="M35.0432 328.022C34.8832 328.022 34.7532 328.152 34.7532 328.302C34.7532 328.462 34.8732 328.592 35.0332 328.602L36.3332 328.622C36.4332 328.622 36.4932 328.592 36.5532 328.532C36.6132 328.472 36.6332 328.392 36.6332 328.312C36.5732 327.612 36.5232 326.812 36.5332 326.712C36.5532 326.622 36.5232 326.512 36.4532 326.452C36.3432 326.332 36.2632 326.252 34.3332 326.492C34.1932 326.512 34.0932 326.622 34.0832 326.762C34.0132 327.892 33.8932 329.552 33.8332 329.812C33.8032 329.882 33.8032 329.952 33.8332 330.032C33.8732 330.152 33.8932 330.212 34.2632 330.212C34.6832 330.212 35.5532 330.132 37.4132 329.952C37.5732 329.932 37.6832 329.802 37.6732 329.642L37.3732 325.632C37.3632 325.472 37.2232 325.362 37.0732 325.362L33.5732 325.482C33.4232 325.482 33.3032 325.602 33.2932 325.752L32.9732 329.642C32.9632 329.802 33.0832 329.942 33.2332 329.952C33.3832 329.962 33.5332 329.852 33.5432 329.692L33.8432 326.062L36.8032 325.962L37.0532 329.412C36.1632 329.492 34.9932 329.602 34.4332 329.642C34.4832 329.232 34.5432 328.472 34.6332 327.052C35.1332 326.992 35.6632 326.942 35.9432 326.932C35.9432 327.132 35.9732 327.472 36.0132 328.052L35.0232 328.032L35.0432 328.022Z" fill="white"/>
<path d="M42.1129 327.232C42.1429 327.392 42.293 327.492 42.443 327.472C42.603 327.442 42.703 327.292 42.683 327.142L42.4229 325.602C42.4129 325.522 42.3629 325.452 42.2929 325.412C42.2229 325.372 42.143 325.352 42.063 325.372L40.253 325.802C40.103 325.842 40.003 325.992 40.033 326.142L40.583 328.842C40.603 328.922 40.653 328.992 40.723 329.032C40.793 329.072 40.873 329.082 40.953 329.062L43.513 328.252C43.653 328.212 43.733 328.062 43.713 327.922L43.033 324.342C43.023 324.262 42.973 324.192 42.903 324.152C42.833 324.112 42.7529 324.092 42.6729 324.122L39.1629 325.042C39.0229 325.082 38.933 325.212 38.953 325.362L39.433 328.832C39.453 328.972 39.573 329.082 39.723 329.082C39.733 329.082 39.753 329.082 39.763 329.082C39.923 329.062 40.033 328.912 40.013 328.752L39.573 325.532L42.533 324.752L43.1029 327.782L41.093 328.422L40.6629 326.312L41.903 326.022L42.1129 327.252V327.232Z" fill="white"/>
<path d="M47.1027 325.402C47.1527 325.552 47.3227 325.632 47.4727 325.572L48.4127 325.232C48.4827 325.202 48.5427 325.152 48.5827 325.072C48.6127 325.002 48.6127 324.912 48.5827 324.842L48.0627 323.632C48.0027 323.492 47.8427 323.422 47.6927 323.472L45.9927 324.102C45.8427 324.152 45.7727 324.322 45.8227 324.462L46.5627 326.662C46.6127 326.812 46.7727 326.902 46.9327 326.842L49.7027 325.912C49.8527 325.862 49.9327 325.712 49.8927 325.562L48.9327 322.192C48.9127 322.112 48.8627 322.052 48.7827 322.012C48.7027 321.972 48.6227 321.972 48.5527 321.992L45.0427 323.252C44.9127 323.302 44.8327 323.432 44.8527 323.572C45.1227 325.082 45.4527 326.902 45.4927 327.012C45.5327 327.132 45.6427 327.202 45.7627 327.202C45.7927 327.202 45.8227 327.202 45.8427 327.192C45.9927 327.152 46.0827 326.992 46.0427 326.842C46.0127 326.702 45.6927 324.982 45.4627 323.712L48.4527 322.642L49.2527 325.452L47.0227 326.202L46.4627 324.542L47.6427 324.102L47.9327 324.772L47.2827 325.012C47.1327 325.062 47.0527 325.232 47.1127 325.382L47.1027 325.402Z" fill="white"/>
<path d="M52.683 323.772C52.713 323.932 52.873 324.032 53.023 324.002L53.943 323.822C54.023 323.802 54.083 323.762 54.123 323.702C54.163 323.642 54.183 323.562 54.163 323.482L53.903 322.222C53.883 322.142 53.843 322.082 53.773 322.042C53.713 322.002 53.633 321.982 53.553 322.002L51.893 322.372C51.743 322.402 51.643 322.552 51.673 322.702L52.043 325.022C52.053 325.102 52.103 325.172 52.173 325.212C52.243 325.262 52.323 325.272 52.403 325.252L54.803 324.672C54.943 324.642 55.033 324.502 55.023 324.362L54.693 320.962C54.693 320.882 54.643 320.802 54.573 320.752C54.503 320.702 54.423 320.682 54.343 320.702L51.133 321.402C50.993 321.432 50.893 321.562 50.903 321.702L51.083 325.142C51.083 325.292 51.223 325.412 51.373 325.412C51.373 325.412 51.383 325.412 51.393 325.412C51.553 325.412 51.673 325.272 51.663 325.112L51.493 321.922L54.143 321.342L54.423 324.162L52.573 324.612L52.293 322.872L53.403 322.622L53.543 323.302L52.903 323.432C52.743 323.462 52.643 323.612 52.673 323.772H52.683Z" fill="white"/>
<path d="M58.8431 322.543C58.6831 322.523 58.5431 322.633 58.5131 322.793C58.4931 322.953 58.6031 323.102 58.7631 323.122L60.3131 323.342C60.3931 323.352 60.4731 323.333 60.5431 323.283C60.6031 323.233 60.6431 323.153 60.6431 323.073L60.7131 321.332C60.7131 321.172 60.6031 321.043 60.4431 321.033L57.9331 320.883C57.8531 320.883 57.7731 320.913 57.7131 320.973C57.6531 321.033 57.6231 321.113 57.6331 321.193C57.6531 321.453 57.8231 323.723 57.8631 323.953C57.9031 324.203 57.9431 324.412 61.2431 324.462C61.3931 324.462 61.5232 324.342 61.5332 324.182L61.7131 320.112C61.7131 320.032 61.6931 319.952 61.6331 319.902C61.5831 319.842 61.5031 319.812 61.4231 319.812H56.9131C56.8331 319.812 56.7631 319.842 56.7031 319.902C56.6531 319.962 56.6231 320.032 56.6231 320.112C56.6631 321.492 56.7031 323.702 56.6231 324.122C56.5931 324.282 56.7031 324.432 56.8531 324.462C56.8731 324.462 56.8931 324.462 56.9031 324.462C57.0431 324.462 57.1631 324.363 57.1831 324.223C57.2831 323.693 57.2231 321.283 57.1931 320.383H61.1031L60.9431 323.872C59.8931 323.852 58.7631 323.782 58.3831 323.712C58.3431 323.322 58.2631 322.293 58.2031 321.483L60.1031 321.592L60.0531 322.723L58.8231 322.543H58.8431Z" fill="white"/>
<path d="M65.0834 322.942C64.9234 322.942 64.7933 323.072 64.7933 323.232V324.162C64.7933 324.312 64.9033 324.432 65.0433 324.452L66.8133 324.662C66.8933 324.672 66.9734 324.652 67.0334 324.602C67.0934 324.552 67.1333 324.482 67.1333 324.402L67.2834 322.292C67.2934 322.142 67.1834 322.002 67.0334 321.982L64.3334 321.612C64.1834 321.592 64.0333 321.702 64.0033 321.862C63.9333 322.332 63.5934 324.702 63.5934 324.962C63.5934 325.232 63.5934 325.472 67.5834 325.932C67.5934 325.932 67.6033 325.932 67.6133 325.932C67.7533 325.932 67.8834 325.822 67.9034 325.682L68.4233 321.492C68.4433 321.342 68.3433 321.202 68.1933 321.172L63.4634 320.162C63.3834 320.152 63.3033 320.162 63.2333 320.212C63.1633 320.262 63.1233 320.332 63.1133 320.412L62.7034 324.122C62.6834 324.282 62.8034 324.422 62.9634 324.442C63.1134 324.452 63.2634 324.342 63.2834 324.182L63.6534 320.782L67.8133 321.672L67.3633 325.312C66.0233 325.152 64.6233 324.932 64.1833 324.792C64.2333 324.352 64.4034 323.132 64.5334 322.212L66.6733 322.502L66.5633 324.032L65.3434 323.882V323.202C65.3434 323.042 65.2133 322.912 65.0533 322.912L65.0834 322.942Z" fill="white"/>
<path d="M71.7231 325.202C71.5731 325.182 71.423 325.312 71.413 325.472C71.403 325.632 71.5231 325.772 71.6831 325.782L73.7131 325.942C73.8531 325.952 74.0031 325.842 74.0231 325.682L74.173 324.202C74.183 324.062 74.0931 323.922 73.9531 323.892L71.2531 323.252C71.1731 323.232 71.0931 323.252 71.0231 323.292C70.9531 323.342 70.9131 323.412 70.9031 323.492L70.4931 326.372C70.4731 326.522 70.5631 326.662 70.7131 326.692L74.3331 327.542C74.3331 327.542 74.3731 327.542 74.4031 327.542C74.4631 327.542 74.5131 327.522 74.5631 327.492C74.6331 327.452 74.6731 327.382 74.6831 327.302L75.3431 323.272C75.3631 323.122 75.2731 322.982 75.1231 322.942L70.613 321.842C70.533 321.822 70.4531 321.842 70.3831 321.882C70.3131 321.922 70.2731 321.992 70.2531 322.072L69.5831 325.832C69.5531 325.992 69.6631 326.142 69.8131 326.172C69.9731 326.202 70.1231 326.092 70.1531 325.942L70.7631 322.482L74.7131 323.452L74.1431 326.912L71.0831 326.192L71.413 323.882L73.553 324.392L73.4631 325.342L71.7131 325.202H71.7231Z" fill="white"/>
<path d="M78.8528 327.312C78.6928 327.282 78.5428 327.372 78.5028 327.532C78.4628 327.692 78.5629 327.842 78.7229 327.882L80.1628 328.212C80.2428 328.232 80.3228 328.212 80.3828 328.172C80.4528 328.132 80.4928 328.062 80.5128 327.982L80.8828 326.062C80.8928 325.982 80.8828 325.902 80.8328 325.842C80.7928 325.782 80.7228 325.732 80.6428 325.722L78.4628 325.362C78.3128 325.332 78.1628 325.432 78.1328 325.592L77.5828 328.202C77.5528 328.352 77.6429 328.492 77.7829 328.542L80.9628 329.502C80.9628 329.502 81.0228 329.512 81.0428 329.512C81.0928 329.512 81.1528 329.502 81.1928 329.472C81.2628 329.432 81.3128 329.352 81.3228 329.272L82.0228 325.172C82.0528 325.022 81.9528 324.882 81.8028 324.842L77.8528 323.892C77.7728 323.872 77.6928 323.892 77.6328 323.932C77.5628 323.972 77.5228 324.042 77.5028 324.112L76.6928 327.912C76.6628 328.072 76.7628 328.222 76.9128 328.252C77.0628 328.282 77.2228 328.182 77.2528 328.032L78.0028 324.532L81.4028 325.352L80.8028 328.862L78.1928 328.072L78.6328 325.992L80.2428 326.252L79.9828 327.582L78.8328 327.312H78.8528Z" fill="white"/>
<path d="M85.6333 327.852C85.4533 327.832 85.3433 327.972 85.3333 328.132L85.2932 328.962C85.2932 329.092 85.3733 329.212 85.5033 329.252L87.2432 329.772C87.3332 329.802 87.4333 329.772 87.5033 329.722C87.5733 329.662 87.6232 329.572 87.6132 329.482L87.5033 327.262C87.5033 327.122 87.3933 327.012 87.2533 326.992L84.6632 326.662C84.5832 326.662 84.5032 326.672 84.4332 326.732C84.3732 326.782 84.3333 326.862 84.3333 326.942L84.2932 329.822C84.2932 329.962 84.3833 330.082 84.5233 330.112L88.0733 330.922C88.0733 330.922 88.1133 330.922 88.1333 330.922C88.1933 330.922 88.2633 330.902 88.3133 330.862C88.3833 330.812 88.4232 330.722 88.4232 330.632V326.702C88.4232 326.572 88.3333 326.452 88.2033 326.422C87.5333 326.252 84.1633 325.402 84.0333 325.372C83.9533 325.352 83.8632 325.372 83.7932 325.422C83.6732 325.512 83.5632 325.592 83.1832 329.602C83.1732 329.762 83.2833 329.902 83.4433 329.922C83.6033 329.932 83.7433 329.822 83.7633 329.662C83.9033 328.202 84.0732 326.592 84.1732 326.002C84.8232 326.162 86.5333 326.592 87.8333 326.922V330.262L84.8732 329.582L84.9033 327.262L86.9232 327.522L87.0033 329.092L85.8732 328.752L85.9033 328.152C85.9033 327.992 85.7832 327.852 85.6232 327.852H85.6333Z" fill="white"/>
<path d="M92.4032 329.272C92.2532 329.232 92.0932 329.342 92.0632 329.492L91.9131 330.192C91.8931 330.272 91.9132 330.362 91.9732 330.432C92.0232 330.502 92.1032 330.542 92.1932 330.542L94.2232 330.582C94.3032 330.582 94.3932 330.542 94.4432 330.482C94.5032 330.422 94.5232 330.332 94.5132 330.252L94.2532 328.482C94.2332 328.342 94.1132 328.232 93.9732 328.232L91.4232 328.192C91.3132 328.182 91.2632 328.222 91.2132 328.282C91.1532 328.342 91.1332 328.422 91.1332 328.502L91.3132 331.012C91.3232 331.162 91.4531 331.282 91.6031 331.282H95.1132C95.1932 331.282 95.2732 331.252 95.3232 331.192C95.3732 331.132 95.4032 331.052 95.4032 330.972L95.1832 327.532C95.1832 327.382 95.0432 327.262 94.8932 327.262H90.5332C90.3732 327.262 90.2432 327.392 90.2432 327.552V330.842C90.2432 331.002 90.3732 331.132 90.5332 331.132C90.6932 331.132 90.8232 331.002 90.8232 330.842V327.842H94.6232L94.8032 330.702H91.8732L91.7332 328.772L93.7232 328.802L93.8932 329.992L92.5532 329.972L92.6332 329.612C92.6632 329.452 92.5631 329.302 92.4131 329.272H92.4032Z" fill="white"/>
<path d="M99.2527 327.842C99.2127 327.682 99.0527 327.592 98.9027 327.632C98.7527 327.672 98.6527 327.832 98.6927 327.982L98.9126 328.842C98.9326 328.932 98.9927 329.002 99.0727 329.032C99.1527 329.072 99.2427 329.062 99.3227 329.022L100.693 328.282C100.813 328.222 100.873 328.082 100.833 327.952L100.443 326.452C100.423 326.372 100.363 326.302 100.283 326.262C100.203 326.222 100.113 326.222 100.033 326.262L97.8627 327.282C97.7427 327.342 97.6727 327.472 97.7027 327.602C98.2627 330.372 98.3727 330.512 98.4327 330.572C98.6227 330.802 98.7227 330.932 101.653 328.822C101.743 328.762 101.783 328.652 101.773 328.542L101.203 325.142C101.183 325.052 101.133 324.972 101.053 324.932C100.973 324.892 100.873 324.892 100.793 324.932L97.0527 326.832C96.9427 326.892 96.8827 327.012 96.8927 327.132L97.3827 330.652C97.4027 330.792 97.5226 330.902 97.6726 330.902C97.6826 330.902 97.7027 330.902 97.7127 330.902C97.8727 330.882 97.9827 330.732 97.9627 330.572L97.5027 327.252L100.713 325.632L101.183 328.462C100.273 329.112 99.2827 329.782 98.8427 330.022C98.7227 329.592 98.5127 328.632 98.3327 327.712L99.9826 326.932L100.223 327.872L99.3727 328.332L99.2427 327.832L99.2527 327.842Z" fill="white"/>
<path d="M105.403 324.992C105.463 325.142 105.633 325.212 105.783 325.152L106.793 324.732C106.903 324.682 106.973 324.572 106.973 324.452L106.923 322.782C106.923 322.682 106.863 322.582 106.763 322.532C106.673 322.482 106.553 322.492 106.473 322.542C106.473 322.542 104.823 323.622 104.743 323.672C104.573 323.792 104.523 323.822 104.813 326.482C104.823 326.582 104.883 326.662 104.963 326.702C105.053 326.742 105.153 326.742 105.233 326.702L107.623 325.442C107.723 325.392 107.783 325.282 107.773 325.172L107.523 321.212C107.523 321.112 107.453 321.012 107.363 320.972C107.273 320.922 107.153 320.932 107.073 320.992L103.673 323.352C103.593 323.412 103.543 323.502 103.553 323.602L103.723 326.952C103.723 327.102 103.863 327.222 104.013 327.222C104.013 327.222 104.013 327.222 104.023 327.222C104.183 327.222 104.303 327.082 104.293 326.922L104.133 323.732L106.973 321.752L107.173 325.012L105.323 325.982C105.243 325.172 105.163 324.362 105.163 324.062C105.403 323.902 105.943 323.542 106.333 323.292L106.363 324.252L105.533 324.592C105.383 324.652 105.313 324.822 105.373 324.972L105.403 324.992Z" fill="white"/>
<path d="M112.193 321.542C112.173 321.382 112.023 321.262 111.873 321.292C111.713 321.312 111.603 321.452 111.623 321.612L111.773 322.832C111.773 322.912 111.823 322.982 111.893 323.032C111.953 323.082 112.033 323.102 112.113 323.082L113.493 322.832C113.633 322.802 113.743 322.682 113.733 322.532L113.633 320.442C113.633 320.362 113.593 320.282 113.523 320.232C113.453 320.182 113.373 320.152 113.293 320.172L111.103 320.542C110.963 320.562 110.863 320.682 110.863 320.832V323.932C110.863 324.012 110.903 324.092 110.963 324.152C111.023 324.202 111.113 324.232 111.193 324.222L114.593 323.682C114.743 323.662 114.843 323.522 114.833 323.382L114.533 318.852C114.533 318.762 114.483 318.682 114.413 318.632C114.343 318.582 114.253 318.562 114.163 318.592L109.853 319.802C109.733 319.832 109.643 319.952 109.643 320.082V324.322C109.643 324.482 109.773 324.612 109.933 324.612C110.093 324.612 110.223 324.482 110.223 324.322V320.302L113.973 319.252L114.233 323.162L111.433 323.612V321.092L113.063 320.822L113.133 322.332L112.303 322.482L112.193 321.562V321.542Z" fill="white"/>
<path d="M118.393 322.812L120.383 323.082C120.463 323.092 120.543 323.072 120.603 323.022C120.663 322.972 120.703 322.892 120.703 322.812L120.803 320.692C120.803 320.552 120.723 320.432 120.583 320.402L118.093 319.762C118.013 319.742 117.923 319.762 117.853 319.812C117.783 319.862 117.743 319.942 117.733 320.032C117.683 321.232 117.583 323.192 117.573 323.322C117.553 323.402 117.573 323.492 117.613 323.562C117.703 323.692 117.763 323.772 121.263 324.152C121.273 324.152 121.283 324.152 121.293 324.152C121.363 324.152 121.423 324.132 121.483 324.082C121.543 324.032 121.583 323.962 121.583 323.882L121.833 319.872C121.833 319.732 121.743 319.602 121.603 319.572L117.093 318.582C117.013 318.562 116.923 318.582 116.853 318.632C116.783 318.682 116.743 318.762 116.743 318.842L116.473 323.152C116.463 323.312 116.583 323.452 116.743 323.462C116.923 323.472 117.043 323.352 117.053 323.192L117.303 319.222L121.233 320.082L121.023 323.542C119.843 323.412 118.623 323.262 118.153 323.182C118.153 323.072 118.173 322.922 118.183 322.702C118.233 322.762 118.303 322.802 118.373 322.812H118.393ZM118.303 320.402L120.213 320.892L120.143 322.462L118.773 322.272L118.973 321.412C119.013 321.252 118.913 321.102 118.753 321.062C118.603 321.032 118.443 321.122 118.403 321.282L118.213 322.112C118.233 321.692 118.263 321.132 118.293 320.402H118.303Z" fill="white"/>
<path d="M125.843 323.572C125.683 323.532 125.533 323.622 125.493 323.782C125.453 323.932 125.543 324.092 125.703 324.132L127.373 324.572C127.453 324.592 127.543 324.572 127.613 324.532C127.683 324.482 127.723 324.412 127.733 324.322L127.903 322.652C127.923 322.502 127.813 322.372 127.673 322.342L125.133 321.852C125.053 321.832 124.973 321.852 124.903 321.902C124.833 321.952 124.793 322.022 124.783 322.102C124.693 322.992 124.543 324.452 124.523 324.552C124.493 324.632 124.503 324.712 124.543 324.792C124.623 324.932 124.653 324.992 128.203 325.842C128.223 325.842 128.243 325.842 128.273 325.842C128.333 325.842 128.393 325.822 128.443 325.782C128.513 325.732 128.553 325.652 128.563 325.572L128.863 321.852C128.873 321.712 128.783 321.582 128.643 321.552L124.333 320.542C124.253 320.522 124.163 320.542 124.093 320.592C124.023 320.642 123.983 320.712 123.973 320.802L123.633 324.522C123.623 324.682 123.733 324.822 123.893 324.832C124.053 324.832 124.193 324.732 124.203 324.572L124.513 321.182L128.253 322.062L128.003 325.192C126.813 324.902 125.573 324.592 125.113 324.452C125.143 324.182 125.203 323.622 125.323 322.472L127.293 322.852L127.183 323.922L125.833 323.562L125.843 323.572Z" fill="white"/>
<path d="M133.273 325.302C133.233 325.452 133.323 325.612 133.483 325.652L134.983 326.042C135.073 326.062 135.163 326.042 135.233 325.992C135.303 325.932 135.343 325.852 135.343 325.762L135.323 323.992C135.323 323.842 135.203 323.712 135.053 323.712L132.693 323.562C132.613 323.562 132.543 323.582 132.483 323.632C132.423 323.682 132.393 323.762 132.393 323.842C132.313 326.242 132.343 326.362 132.353 326.392C132.393 326.622 132.413 326.702 135.923 327.432C135.943 327.432 135.963 327.432 135.983 327.432C136.053 327.432 136.113 327.412 136.163 327.362C136.233 327.312 136.273 327.222 136.273 327.142V322.832C136.273 322.682 136.153 322.552 136.003 322.542L131.543 322.202C131.463 322.192 131.383 322.222 131.333 322.272C131.273 322.322 131.243 322.402 131.233 322.482L131.083 326.252C131.083 326.412 131.203 326.542 131.363 326.552C131.553 326.552 131.653 326.432 131.663 326.272L131.803 322.802L135.693 323.102V326.792C134.523 326.542 133.323 326.272 132.913 326.142C132.913 325.802 132.933 324.962 132.963 324.152L134.763 324.262L134.783 325.392L133.653 325.092C133.503 325.052 133.343 325.142 133.303 325.302H133.273Z" fill="white"/>
<path d="M140.183 327.492C140.243 327.682 140.263 327.752 141.643 327.752C142.373 327.752 143.473 327.732 145.153 327.692H145.413C145.503 327.692 145.593 327.642 145.643 327.572C145.753 327.432 145.823 327.342 144.613 322.422C144.583 322.282 144.463 322.192 144.313 322.202L139.043 322.472C138.963 322.472 138.893 322.512 138.843 322.572C138.793 322.632 138.763 322.712 138.773 322.792L139.193 327.422C139.203 327.582 139.353 327.692 139.503 327.682C139.663 327.672 139.783 327.522 139.763 327.372L139.373 323.042L144.103 322.802C144.533 324.552 144.973 326.432 145.093 327.122C142.343 327.182 141.233 327.172 140.793 327.162C140.813 326.732 140.753 325.892 140.513 324.192L143.263 323.922L143.783 326.042L141.573 326.142L141.483 325.232L142.383 325.122C142.543 325.102 142.653 324.962 142.633 324.802C142.613 324.642 142.463 324.532 142.313 324.552L141.133 324.702C140.973 324.722 140.863 324.862 140.883 325.022L141.033 326.482C141.053 326.632 141.173 326.742 141.333 326.742L144.163 326.622C144.253 326.622 144.333 326.572 144.383 326.502C144.433 326.432 144.453 326.342 144.433 326.262L143.773 323.552C143.743 323.412 143.603 323.322 143.463 323.332L140.163 323.652C140.083 323.652 140.013 323.702 139.963 323.762C139.913 323.822 139.893 323.902 139.903 323.982C140.093 325.372 140.263 326.942 140.213 327.262C140.173 327.332 140.153 327.422 140.173 327.502L140.183 327.492Z" fill="white"/>
<path d="M69.5527 93.8126C69.5527 95.1426 70.7628 96.2226 72.2628 96.2226C73.7628 96.2226 74.9728 95.1426 74.9728 93.8126C74.9728 92.4826 73.7628 91.4026 72.2628 91.4026C70.7628 91.4026 69.5527 92.4826 69.5527 93.8126Z" fill="white"/>
<path d="M69.7725 93.0926C69.7725 94.0326 70.6924 94.7926 71.8124 94.7926C72.9324 94.7926 73.8524 94.0326 73.8524 93.0926C73.8524 92.1526 72.9324 91.3926 71.8124 91.3926C70.6924 91.3926 69.7725 92.1526 69.7725 93.0926Z" fill="#514DE6"/>
<path d="M48.5029 92.2325C48.5029 93.5625 49.713 94.6425 51.213 94.6425C52.713 94.6425 53.9229 93.5625 53.9229 92.2325C53.9229 90.9025 52.713 89.8225 51.213 89.8225C49.713 89.8225 48.5029 90.9025 48.5029 92.2325Z" fill="white"/>
<path d="M48.7227 91.5225C48.7227 92.4625 49.6426 93.2225 50.7626 93.2225C51.8826 93.2225 52.8026 92.4625 52.8026 91.5225C52.8026 90.5825 51.8826 89.8225 50.7626 89.8225C49.6426 89.8225 48.7227 90.5825 48.7227 91.5225Z" fill="#514DE6"/>
<path d="M114.412 200.692C114.412 196.432 112.682 187.562 112.612 187.202C112.162 184.342 101.602 117.222 99.8025 112.522C98.1325 108.152 95.1325 101.942 92.1725 98.8325C89.4525 95.9725 85.2425 94.2425 81.7225 94.5025C78.8225 94.7225 74.7025 94.5425 73.9925 94.5025L70.9925 91.5725C70.8825 91.4625 70.6925 91.4625 70.5825 91.5725C70.4725 91.6825 70.4725 91.8725 70.5825 91.9825L73.6625 94.9925C73.7125 95.0425 73.7825 95.0725 73.8525 95.0725C73.9025 95.0725 78.5625 95.3125 81.7725 95.0725C85.1525 94.8225 89.1625 96.4825 91.7625 99.2225C94.6625 102.272 97.6225 108.402 99.2725 112.722C101.053 117.372 111.942 186.582 112.052 187.292C112.072 187.382 113.843 196.472 113.843 200.682C113.843 203.842 114.622 219.732 115.202 231.342C115.402 235.432 115.572 238.892 115.662 240.892C116.002 248.352 117.222 262.192 117.242 262.332C117.252 262.482 117.383 262.592 117.533 262.592C117.533 262.592 117.552 262.592 117.562 262.592C117.722 262.582 117.842 262.442 117.822 262.282C117.812 262.142 116.592 248.312 116.242 240.872C116.152 238.872 115.983 235.412 115.783 231.322C115.213 219.722 114.422 203.832 114.422 200.692H114.412Z" fill="white"/>
<path d="M95.2384 196.109C117.137 190.94 130.699 168.998 125.531 147.1C120.362 125.201 98.4201 111.639 76.5217 116.807C54.6233 121.976 41.061 143.918 46.2295 165.816C51.398 187.715 73.34 201.277 95.2384 196.109Z" fill="#343434"/>
<path d="M50.3525 156.433C50.3525 176.023 66.2926 191.963 85.8826 191.963C105.473 191.963 121.413 176.023 121.413 156.433C121.413 136.843 105.473 120.903 85.8826 120.903C66.2926 120.903 50.3525 136.843 50.3525 156.433ZM120.253 156.433C120.253 175.383 104.833 190.803 85.8826 190.803C66.9326 190.803 51.5126 175.383 51.5126 156.433C51.5126 137.483 66.9326 122.063 85.8826 122.063C104.833 122.063 120.253 137.483 120.253 156.433Z" fill="#514DE6"/>
<path d="M109.464 130.658L61.8076 181.177L62.4405 181.774L110.097 131.255L109.464 130.658Z" fill="#514DE6"/>
<path d="M62.0178 131.202L61.3848 131.799L109.024 182.334L109.657 181.737L62.0178 131.202Z" fill="#514DE6"/>
<path d="M84.4525 121.598L83.873 121.624L87.0218 191.503L87.6012 191.477L84.4525 121.598Z" fill="#514DE6"/>
<path d="M121.003 156.312H51.1025V156.893H121.003V156.312Z" fill="#514DE6"/>
<path d="M79.9434 156.432C79.9434 159.712 82.6034 162.372 85.8834 162.372C89.1634 162.372 91.8234 159.712 91.8234 156.432C91.8234 153.152 89.1634 150.492 85.8834 150.492C82.6034 150.492 79.9434 153.152 79.9434 156.432Z" fill="#343434"/>
<path d="M79.3633 156.432C79.3633 160.022 82.2833 162.942 85.8733 162.942C89.4633 162.942 92.3833 160.022 92.3833 156.432C92.3833 152.842 89.4633 149.922 85.8733 149.922C82.2833 149.922 79.3633 152.842 79.3633 156.432ZM91.2333 156.432C91.2333 159.382 88.8333 161.792 85.8733 161.792C82.9133 161.792 80.5133 159.392 80.5133 156.432C80.5133 153.472 82.9133 151.072 85.8733 151.072C88.8333 151.072 91.2333 153.472 91.2333 156.432Z" fill="#514DE6"/>
<path d="M82.9033 156.432C82.9033 158.082 84.2333 159.412 85.8833 159.412C87.5333 159.412 88.8633 158.082 88.8633 156.432C88.8633 154.782 87.5333 153.452 85.8833 153.452C84.2333 153.452 82.9033 154.782 82.9033 156.432Z" fill="#343434"/>
<path d="M82.3232 156.432C82.3232 158.392 83.9232 159.992 85.8832 159.992C87.8432 159.992 89.4432 158.392 89.4432 156.432C89.4432 154.472 87.8432 152.872 85.8832 152.872C83.9232 152.872 82.3232 154.472 82.3232 156.432ZM88.2833 156.432C88.2833 157.752 87.2032 158.832 85.8832 158.832C84.5632 158.832 83.4832 157.752 83.4832 156.432C83.4832 155.112 84.5632 154.032 85.8832 154.032C87.2032 154.032 88.2833 155.112 88.2833 156.432Z" fill="#514DE6"/>
<path d="M48.1631 156.432C48.1631 177.232 65.0831 194.152 85.8831 194.152C106.683 194.152 123.603 177.232 123.603 156.432C123.603 135.632 106.683 118.712 85.8831 118.712C65.0831 118.712 48.1631 135.632 48.1631 156.432ZM123.023 156.432C123.023 176.912 106.363 193.572 85.8831 193.572C65.4031 193.572 48.7431 176.912 48.7431 156.432C48.7431 135.952 65.4031 119.292 85.8831 119.292C106.363 119.292 123.023 135.952 123.023 156.432Z" fill="#514DE6"/>
<path d="M32.2123 257.703C32.2123 257.703 32.2022 257.703 32.1922 257.703C31.9822 257.693 31.8323 257.513 31.8423 257.303C32.0523 253.783 32.7122 247.163 33.4822 239.503C34.5822 228.533 35.9523 214.873 36.4723 205.253C37.3523 189.133 47.3222 161.053 47.4322 160.773C47.5022 160.573 47.7122 160.473 47.9122 160.543C48.1122 160.613 48.2123 160.823 48.1423 161.023C48.0423 161.303 38.1022 189.283 37.2322 205.293C36.7022 214.933 35.3422 228.593 34.2422 239.573C33.4722 247.233 32.8122 253.843 32.6022 257.343C32.5922 257.543 32.4222 257.693 32.2322 257.693L32.2123 257.703Z" fill="white"/>
<path d="M153.873 265.933C153.743 265.933 153.613 265.863 153.543 265.743C153.513 265.693 150.613 260.713 146.113 259.863C141.783 259.053 137.783 259.243 132.243 259.503L130.833 259.573C124.623 259.863 117.723 262.623 117.653 262.653C117.463 262.733 117.243 262.643 117.163 262.443C117.083 262.253 117.173 262.033 117.373 261.953C117.443 261.923 124.453 259.123 130.793 258.823L132.203 258.753C137.793 258.483 141.833 258.293 146.243 259.123C151.083 260.033 154.063 265.143 154.183 265.363C154.283 265.543 154.223 265.773 154.043 265.873C153.983 265.903 153.923 265.923 153.853 265.923L153.873 265.933Z" fill="white"/>
</svg>
