<svg width="24" height="32" viewBox="0 0 24 32" fill="none" xmlns="http://www.w3.org/2000/svg">
<path d="M20 20.5H22V22.5H2V20.5H4V13.5C4 12.0467 4.36667 10.7 5.1 9.46C5.80667 8.26 6.76 7.30667 7.96 6.6C9.2 5.86667 10.5467 5.5 12 5.5C13.4533 5.5 14.8 5.86667 16.04 6.6C17.24 7.30667 18.1933 8.26 18.9 9.46C19.6333 10.7 20 12.0467 20 13.5V20.5ZM18 20.5V13.5C18 12.42 17.7267 11.4133 17.18 10.48C16.6467 9.57333 15.9267 8.85333 15.02 8.32C14.0867 7.77333 13.08 7.5 12 7.5C10.92 7.5 9.91333 7.77333 8.98 8.32C8.07333 8.85333 7.35333 9.57333 6.82 10.48C6.27333 11.4133 6 12.42 6 13.5V20.5H18ZM9 24.5H15V26.5H9V24.5Z" fill="white"/>
</svg>
