<svg width="18" height="18" viewBox="0 0 18 18" fill="none" xmlns="http://www.w3.org/2000/svg">
<path d="M3.74854 1.26009H14.2486C14.4586 1.26009 14.6361 1.3326 14.7811 1.4776C14.9261 1.6226 14.9986 1.8001 14.9986 2.0101V16.3651C14.9986 16.4651 14.9611 16.5526 14.8861 16.6276C14.8111 16.7026 14.7236 16.7401 14.6236 16.7401C14.5536 16.7401 14.4886 16.7201 14.4286 16.6801L8.99855 13.2751L3.56854 16.6801C3.48854 16.7401 3.39604 16.7576 3.29104 16.7326C3.18604 16.7076 3.10854 16.6501 3.05854 16.5601C3.01854 16.5001 2.99854 16.4351 2.99854 16.3651V2.0101C2.99854 1.8001 3.07104 1.6226 3.21604 1.4776C3.36104 1.3326 3.53854 1.26009 3.74854 1.26009ZM13.4986 2.7601H4.49854V14.3401L8.99855 11.5051L13.4986 14.3401V2.7601Z" fill="#FBBF24"/>
</svg>
