<svg width="23" height="22" viewBox="0 0 23 22" fill="none" xmlns="http://www.w3.org/2000/svg">
<path d="M9.31961 15.5523H10.2261V11.1086H12.0036V15.5523H12.9102C12.9694 15.0428 13.1353 14.5451 13.4079 14.0592C13.6449 13.6208 13.9944 13.1468 14.4566 12.6372L14.7054 12.3706C15.0491 12.0151 15.2387 11.8196 15.2742 11.784C15.6534 11.31 15.9438 10.7886 16.1452 10.2198C16.3467 9.65104 16.4474 9.05854 16.4474 8.44234C16.4474 7.48249 16.2045 6.58782 15.7186 5.75832C15.2446 4.95252 14.6047 4.31262 13.7989 3.83862C12.9694 3.35277 12.0747 3.10984 11.1149 3.10984C10.155 3.10984 9.26036 3.35277 8.43086 3.83862C7.62506 4.31262 6.98516 4.95252 6.51116 5.75832C6.02531 6.58782 5.78238 7.48249 5.78238 8.44234C5.78238 9.05854 5.88311 9.65104 6.08456 10.2198C6.28601 10.7886 6.57633 11.3041 6.95553 11.7663C6.99108 11.8137 7.18068 12.0151 7.52433 12.3706L7.77318 12.6372C8.23533 13.1468 8.58491 13.6208 8.82191 14.0592C9.09446 14.5451 9.26036 15.0428 9.31961 15.5523ZM9.33738 17.3298V18.2186H12.8924V17.3298H9.33738ZM5.56908 12.8861C5.07138 12.2699 4.68626 11.5885 4.41371 10.842C4.14116 10.0717 4.00488 9.27184 4.00488 8.44234C4.00488 7.15069 4.33076 5.95384 4.98251 4.85179C5.61056 3.78529 6.45783 2.93802 7.52433 2.30997C8.62638 1.65822 9.82323 1.33234 11.1149 1.33234C12.4065 1.33234 13.6034 1.65822 14.7054 2.30997C15.7719 2.93802 16.6192 3.78529 17.2473 4.85179C17.899 5.95384 18.2249 7.15069 18.2249 8.44234C18.2249 9.27184 18.0886 10.0717 17.8161 10.842C17.5435 11.5885 17.1584 12.2699 16.6607 12.8861C16.5777 12.9927 16.4118 13.1705 16.163 13.4193C15.7008 13.9052 15.375 14.2903 15.1854 14.5747C14.8417 15.0724 14.6699 15.5464 14.6699 15.9967V18.2186C14.6699 18.5385 14.5899 18.8348 14.4299 19.1073C14.2699 19.3799 14.0537 19.5962 13.7811 19.7561C13.5086 19.9161 13.2123 19.9961 12.8924 19.9961H9.33738C9.01743 19.9961 8.72118 19.9161 8.44863 19.7561C8.17608 19.5962 7.95982 19.3799 7.79985 19.1073C7.63987 18.8348 7.55988 18.5385 7.55988 18.2186V15.9967C7.55988 15.5464 7.38806 15.0724 7.04441 14.5747C6.85481 14.2903 6.52893 13.9052 6.06678 13.4193C5.81793 13.1705 5.65203 12.9927 5.56908 12.8861Z" fill="#F59E0B"/>
</svg>
