<svg width="17" height="16" viewBox="0 0 17 16" fill="none" xmlns="http://www.w3.org/2000/svg">
<path d="M6.33392 1.33313V2.66626H10.3333V1.33313H11.6664V2.66626H14.3327C14.5193 2.66626 14.6771 2.73069 14.8059 2.85956C14.9348 2.98843 14.9993 3.14618 14.9993 3.33282V13.9978C14.9993 14.1845 14.9348 14.3422 14.8059 14.4711C14.6771 14.6 14.5193 14.6644 14.3327 14.6644H2.33453C2.14789 14.6644 1.99014 14.6 1.86127 14.4711C1.7324 14.3422 1.66797 14.1845 1.66797 13.9978V3.33282C1.66797 3.14618 1.7324 2.98843 1.86127 2.85956C1.99014 2.73069 2.14789 2.66626 2.33453 2.66626H5.00079V1.33313H6.33392ZM13.6661 7.99877H3.0011V13.3313H13.6661V7.99877ZM5.00079 3.99939H3.0011V6.66564H13.6661V3.99939H11.6664V5.33252H10.3333V3.99939H6.33392V5.33252H5.00079V3.99939Z" fill="#4ADE80"/>
</svg>
