<svg width="24" height="24" viewBox="0 0 24 24" fill="none" xmlns="http://www.w3.org/2000/svg">
<path d="M3.63965 15.5V3.5H1.63965V1.5H4.63965C4.91965 1.5 5.15632 1.59667 5.34965 1.79C5.54298 1.98333 5.63965 2.22 5.63965 2.5V14.5H18.0796L20.0796 6.5H7.63965V4.5H21.3596C21.6396 4.5 21.8763 4.59667 22.0696 4.79C22.263 4.98333 22.3596 5.22 22.3596 5.5C22.3596 5.58 22.3463 5.66 22.3196 5.74L19.8196 15.74C19.7663 15.9667 19.6496 16.15 19.4696 16.29C19.2896 16.43 19.0863 16.5 18.8596 16.5H4.63965C4.35965 16.5 4.12298 16.4033 3.92965 16.21C3.73632 16.0167 3.63965 15.78 3.63965 15.5ZM5.63965 22.5C5.27965 22.5 4.94632 22.41 4.63965 22.23C4.33298 22.05 4.08965 21.8067 3.90965 21.5C3.72965 21.1933 3.63965 20.86 3.63965 20.5C3.63965 20.14 3.72965 19.8067 3.90965 19.5C4.08965 19.1933 4.33298 18.95 4.63965 18.77C4.94632 18.59 5.27965 18.5 5.63965 18.5C5.99965 18.5 6.33298 18.59 6.63965 18.77C6.94631 18.95 7.18965 19.1933 7.36965 19.5C7.54965 19.8067 7.63965 20.14 7.63965 20.5C7.63965 20.86 7.54965 21.1933 7.36965 21.5C7.18965 21.8067 6.94631 22.05 6.63965 22.23C6.33298 22.41 5.99965 22.5 5.63965 22.5ZM17.6396 22.5C17.2796 22.5 16.9463 22.41 16.6396 22.23C16.333 22.05 16.0896 21.8067 15.9096 21.5C15.7296 21.1933 15.6396 20.86 15.6396 20.5C15.6396 20.14 15.7296 19.8067 15.9096 19.5C16.0896 19.1933 16.333 18.95 16.6396 18.77C16.9463 18.59 17.2796 18.5 17.6396 18.5C17.9996 18.5 18.333 18.59 18.6396 18.77C18.9463 18.95 19.1896 19.1933 19.3696 19.5C19.5496 19.8067 19.6396 20.14 19.6396 20.5C19.6396 20.86 19.5496 21.1933 19.3696 21.5C19.1896 21.8067 18.9463 22.05 18.6396 22.23C18.333 22.41 17.9996 22.5 17.6396 22.5Z" fill="white"/>
</svg>
