<svg width="24" height="24" viewBox="0 0 24 24" fill="none" xmlns="http://www.w3.org/2000/svg">
<path d="M12 22C10.64 22 9.34 21.74 8.1 21.22C6.91333 20.7133 5.85667 19.9967 4.93 19.07C4.00333 18.1433 3.28667 17.0867 2.78 15.9C2.26 14.66 2 13.36 2 12C2 10.64 2.26 9.34 2.78 8.1C3.28667 6.91333 4.00333 5.85667 4.93 4.93C5.85667 4.00333 6.91333 3.28667 8.1 2.78C9.34 2.26 10.64 2 12 2C13.36 2 14.66 2.26 15.9 2.78C17.0867 3.28667 18.1433 4.00333 19.07 4.93C19.9967 5.85667 20.7133 6.91333 21.22 8.1C21.74 9.34 22 10.64 22 12C22 13.36 21.74 14.66 21.22 15.9C20.7133 17.0867 19.9967 18.1433 19.07 19.07C18.1433 19.9967 17.0867 20.7133 15.9 21.22C14.66 21.74 13.36 22 12 22ZM12 20C13.4533 20 14.8 19.6333 16.04 18.9C17.24 18.1933 18.1933 17.24 18.9 16.04C19.6333 14.8 20 13.4533 20 12C20 10.5467 19.6333 9.2 18.9 7.96C18.1933 6.76 17.24 5.80667 16.04 5.1C14.8 4.36667 13.4533 4 12 4C10.5467 4 9.2 4.36667 7.96 5.1C6.76 5.80667 5.80667 6.76 5.1 7.96C4.36667 9.2 4 10.5467 4 12C4 13.4533 4.36667 14.8 5.1 16.04C5.80667 17.24 6.76 18.1933 7.96 18.9C9.2 19.6333 10.5467 20 12 20ZM13 12H17V14H11V7H13V12Z" fill="#FB923C"/>
</svg>
