<svg width="20" height="20" viewBox="0 0 20 20" fill="none" xmlns="http://www.w3.org/2000/svg">
<path d="M10.0002 2.08463C11.0557 2.08463 12.0391 2.3513 12.9502 2.88463C13.8279 3.39575 14.5224 4.09019 15.0335 4.96797C15.5668 5.87908 15.8335 6.86241 15.8335 7.91797V8.2013C16.4779 8.42352 17.0529 8.76797 17.5585 9.23464C18.0641 9.7013 18.4585 10.2541 18.7418 10.893C19.0252 11.5319 19.1668 12.2069 19.1668 12.918C19.1668 13.818 18.9391 14.6569 18.4835 15.4346C18.0391 16.1902 17.4391 16.7902 16.6835 17.2346C15.9057 17.6902 15.0668 17.918 14.1668 17.918H5.8335C4.9335 17.918 4.09461 17.6902 3.31683 17.2346C2.56127 16.7902 1.96127 16.1902 1.51683 15.4346C1.06127 14.6569 0.833496 13.818 0.833496 12.918C0.833496 12.2069 0.975163 11.5319 1.2585 10.893C1.54183 10.2541 1.93627 9.7013 2.44183 9.23464C2.94739 8.76797 3.52239 8.42352 4.16683 8.2013V7.91797C4.16683 6.86241 4.4335 5.87908 4.96683 4.96797C5.47794 4.09019 6.17239 3.39575 7.05016 2.88463C7.96127 2.3513 8.94461 2.08463 10.0002 2.08463ZM10.0002 3.7513C9.24461 3.7513 8.54739 3.93741 7.9085 4.30964C7.26961 4.68186 6.76405 5.18741 6.39183 5.8263C6.01961 6.46519 5.8335 7.16241 5.8335 7.91797L5.90016 9.36797L4.7335 9.76797C4.06683 10.0013 3.52794 10.4069 3.11683 10.9846C2.70572 11.5624 2.50016 12.2069 2.50016 12.918C2.50016 13.518 2.65016 14.0735 2.95016 14.5846C3.25016 15.0957 3.65572 15.5013 4.16683 15.8013C4.67794 16.1013 5.2335 16.2513 5.8335 16.2513H14.1668C14.7668 16.2513 15.3224 16.1013 15.8335 15.8013C16.3446 15.5013 16.7502 15.0957 17.0502 14.5846C17.3502 14.0735 17.5002 13.518 17.5002 12.918C17.5002 12.318 17.3502 11.7624 17.0502 11.2513C16.7502 10.7402 16.3446 10.3346 15.8335 10.0346C15.3224 9.73464 14.7668 9.58463 14.1668 9.58463C13.4446 9.58463 12.7918 9.79575 12.2085 10.218C11.6252 10.6402 11.2224 11.1902 11.0002 11.868L9.41683 11.3346C9.63905 10.6791 9.9835 10.0902 10.4502 9.56797C10.9168 9.04575 11.4724 8.64019 12.1168 8.3513C12.7613 8.06241 13.4446 7.91797 14.1668 7.91797C14.1668 7.16241 13.9807 6.46519 13.6085 5.8263C13.2363 5.18741 12.7307 4.68186 12.0918 4.30964C11.4529 3.93741 10.7557 3.7513 10.0002 3.7513Z" fill="white"/>
</svg>
