<svg width="23" height="22" viewBox="0 0 23 22" fill="none" xmlns="http://www.w3.org/2000/svg">
<path d="M4.89371 10.6643C4.89371 10.8183 5.00036 11.002 5.21366 11.2153C5.46251 11.4523 5.81209 11.6834 6.26239 11.9085C6.87859 12.2166 7.60736 12.4566 8.44871 12.6284C9.29006 12.8003 10.1788 12.8862 11.115 12.8862C12.0511 12.8862 12.9399 12.8003 13.7812 12.6284C14.6226 12.4566 15.3513 12.2166 15.9675 11.9085C16.4178 11.6834 16.7674 11.4523 17.0163 11.2153C17.2296 11.002 17.3362 10.8183 17.3362 10.6643V8.72682C16.5897 9.18897 15.6831 9.5504 14.6166 9.8111C13.5146 10.0836 12.3474 10.2199 11.115 10.2199C9.88256 10.2199 8.71534 10.0836 7.61329 9.8111C6.54679 9.5504 5.64026 9.18897 4.89371 8.72682V10.6643ZM17.3362 13.1706C16.5897 13.6327 15.6831 13.9941 14.6166 14.2548C13.5146 14.5274 12.3474 14.6637 11.115 14.6637C9.88256 14.6637 8.71534 14.5274 7.61329 14.2548C6.54679 13.9941 5.64026 13.6327 4.89371 13.1706V15.108C4.89371 15.2621 5.00036 15.4458 5.21366 15.6591C5.46251 15.8961 5.81209 16.1271 6.26239 16.3523C6.87859 16.6604 7.60736 16.9004 8.44871 17.0722C9.29006 17.244 10.1788 17.3299 11.115 17.3299C12.0511 17.3299 12.9399 17.244 13.7812 17.0722C14.6226 16.9004 15.3513 16.6604 15.9675 16.3523C16.4178 16.1271 16.7674 15.8961 17.0163 15.6591C17.2296 15.4458 17.3362 15.2621 17.3362 15.108V13.1706ZM3.11621 15.108V6.22055C3.11621 5.4977 3.47764 4.82225 4.20049 4.1942C4.91149 3.6017 5.87134 3.1277 7.08004 2.7722C8.32429 2.40485 9.66926 2.22117 11.115 2.22117C12.5607 2.22117 13.9056 2.40485 15.1499 2.7722C16.3586 3.1277 17.3184 3.6017 18.0294 4.1942C18.7523 4.82225 19.1137 5.4977 19.1137 6.22055V15.108C19.1137 15.8309 18.7523 16.5063 18.0294 17.1344C17.3184 17.7269 16.3586 18.2009 15.1499 18.5564C13.9056 18.9237 12.5607 19.1074 11.115 19.1074C9.66926 19.1074 8.32429 18.9237 7.08004 18.5564C5.87134 18.2009 4.91149 17.7269 4.20049 17.1344C3.47764 16.5063 3.11621 15.8309 3.11621 15.108ZM11.115 8.44242C12.0511 8.44242 12.9399 8.35651 13.7812 8.18468C14.6226 8.01286 15.3513 7.7729 15.9675 7.4648C16.4178 7.23965 16.7674 7.00857 17.0163 6.77157C17.2296 6.55827 17.3362 6.3746 17.3362 6.22055C17.3362 6.0665 17.2296 5.88282 17.0163 5.66952C16.7674 5.43252 16.4178 5.20145 15.9675 4.9763C15.3513 4.6682 14.6226 4.42824 13.7812 4.25641C12.9399 4.08459 12.0511 3.99867 11.115 3.99867C10.1788 3.99867 9.29006 4.08459 8.44871 4.25641C7.60736 4.42824 6.87859 4.6682 6.26239 4.9763C5.81209 5.20145 5.46251 5.43252 5.21366 5.66952C5.00036 5.88282 4.89371 6.0665 4.89371 6.22055C4.89371 6.3746 5.00036 6.55827 5.21366 6.77157C5.46251 7.00857 5.81209 7.23965 6.26239 7.4648C6.87859 7.7729 7.60736 8.01286 8.44871 8.18468C9.29006 8.35651 10.1788 8.44242 11.115 8.44242Z" fill="#F59E0B"/>
</svg>
