<svg width="34" height="32" viewBox="0 0 34 32" fill="none" xmlns="http://www.w3.org/2000/svg">
<path d="M16.67 29.3408C14.8563 29.3408 13.1226 28.9941 11.4689 28.3006C9.88641 27.6249 8.47723 26.6692 7.24143 25.4334C6.00563 24.1976 5.04988 22.7884 4.37419 21.2059C3.68072 19.5522 3.33398 17.8185 3.33398 16.0048C3.33398 14.1911 3.68072 12.4574 4.37419 10.8038C5.04988 9.22124 6.00563 7.81207 7.24143 6.57627C8.47723 5.34047 9.88641 4.38472 11.4689 3.70903C13.1226 3.01556 14.8563 2.66882 16.67 2.66882C18.4837 2.66882 20.2174 3.01556 21.871 3.70903C23.4536 4.38472 24.8627 5.34047 26.0985 6.57627C27.3343 7.81207 28.2901 9.22124 28.9658 10.8038C29.6592 12.4574 30.006 14.1911 30.006 16.0048C30.006 17.8185 29.6592 19.5522 28.9658 21.2059C28.2901 22.7884 27.3343 24.1976 26.0985 25.4334C24.8627 26.6692 23.4536 27.6249 21.871 28.3006C20.2174 28.9941 18.4837 29.3408 16.67 29.3408ZM16.67 26.6736C18.6081 26.6736 20.4041 26.1846 22.0577 25.2067C23.658 24.2642 24.9294 22.9929 25.8718 21.3926C26.8498 19.7389 27.3388 17.943 27.3388 16.0048C27.3388 14.0667 26.8498 12.2707 25.8718 10.6171C24.9294 9.01676 23.658 7.74539 22.0577 6.80298C20.4041 5.82501 18.6081 5.33602 16.67 5.33602C14.7318 5.33602 12.9359 5.82501 11.2822 6.80298C9.68192 7.74539 8.41055 9.01676 7.46814 10.6171C6.49017 12.2707 6.00118 14.0667 6.00118 16.0048C6.00118 17.943 6.49017 19.7389 7.46814 21.3926C8.41055 22.9929 9.68192 24.2642 11.2822 25.2067C12.9359 26.1846 14.7318 26.6736 16.67 26.6736ZM12.0024 18.672H19.3372C19.515 18.672 19.6706 18.6053 19.8039 18.472C19.9373 18.3386 20.004 18.183 20.004 18.0052C20.004 17.8274 19.9373 17.6718 19.8039 17.5385C19.6706 17.4051 19.515 17.3384 19.3372 17.3384H14.0028C13.3982 17.3384 12.8426 17.1873 12.3358 16.885C11.829 16.5827 11.4245 16.1782 11.1222 15.6714C10.8199 15.1647 10.6688 14.609 10.6688 14.0044C10.6688 13.3999 10.8199 12.8442 11.1222 12.3374C11.4245 11.8307 11.829 11.4261 12.3358 11.1238C12.8426 10.8216 13.3982 10.6704 14.0028 10.6704H15.3364V8.00322H18.0036V10.6704H21.3376V13.3376H14.0028C13.825 13.3376 13.6694 13.4043 13.536 13.5377C13.4027 13.671 13.336 13.8266 13.336 14.0044C13.336 14.1822 13.4027 14.3378 13.536 14.4712C13.6694 14.6045 13.825 14.6712 14.0028 14.6712H19.3372C19.9417 14.6712 20.4974 14.8224 21.0042 15.1246C21.511 15.4269 21.9155 15.8315 22.2178 16.3382C22.52 16.845 22.6712 17.4007 22.6712 18.0052C22.6712 18.6098 22.52 19.1655 22.2178 19.6722C21.9155 20.179 21.511 20.5835 21.0042 20.8858C20.4974 21.1881 19.9417 21.3392 19.3372 21.3392H18.0036V24.0064H15.3364V21.3392H12.0024V18.672Z" fill="url(#paint0_linear_337_36200)"/>
<defs>
<linearGradient id="paint0_linear_337_36200" x1="12.0795" y1="2.66882" x2="-21.9156" y2="8.26843" gradientUnits="userSpaceOnUse">
<stop stop-color="#E1880D"/>
<stop offset="1" stop-color="#FFF4E4"/>
</linearGradient>
</defs>
</svg>
