<svg width="21" height="20" viewBox="0 0 21 20" fill="none" xmlns="http://www.w3.org/2000/svg">
<path d="M12.9188 3.33409H4.58477V16.6685H16.2524V6.6677H12.9188V3.33409ZM2.91797 2.50069C2.91797 2.26734 2.99853 2.0701 3.15966 1.90897C3.32078 1.74785 3.51802 1.66729 3.75137 1.66729H13.7522L17.9192 5.8343V17.5019C17.9192 17.7242 17.8386 17.9186 17.6775 18.0853C17.5164 18.252 17.3192 18.3353 17.0858 18.3353H3.75137C3.51802 18.3353 3.32078 18.2548 3.15966 18.0936C2.99853 17.9325 2.91797 17.7353 2.91797 17.5019V2.50069ZM15.1356 10.0013L12.1854 12.9516L11.002 11.7681L12.7688 10.0013L11.002 8.2345L12.1854 7.05106L15.1356 10.0013ZM5.70153 10.0013L8.65178 7.05106L9.83521 8.2345L8.06839 10.0013L9.83521 11.7681L8.65178 12.9516L5.70153 10.0013Z" fill="#4ADE80"/>
</svg>
