<svg width="19" height="18" viewBox="0 0 19 18" fill="none" xmlns="http://www.w3.org/2000/svg">
<path d="M5.625 4.5V2.25C5.625 2.04 5.6975 1.8625 5.8425 1.7175C5.9875 1.5725 6.165 1.5 6.375 1.5H15.375C15.585 1.5 15.7625 1.5725 15.9075 1.7175C16.0525 1.8625 16.125 2.04 16.125 2.25V12.75C16.125 12.96 16.0525 13.1375 15.9075 13.2825C15.7625 13.4275 15.585 13.5 15.375 13.5H13.125V15.75C13.125 15.96 13.0525 16.1375 12.9075 16.2825C12.7625 16.4275 12.585 16.5 12.375 16.5H3.375C3.165 16.5 2.9875 16.4275 2.8425 16.2825C2.6975 16.1375 2.625 15.96 2.625 15.75V5.25C2.625 5.04 2.7 4.8625 2.85 4.7175C3 4.5725 3.175 4.5 3.375 4.5H5.625ZM4.125 6V15H11.625V6H4.125ZM7.125 4.5H13.125V12H14.625V3H7.125V4.5Z" fill="#475569"/>
</svg>
