<svg width="25" height="24" viewBox="0 0 25 24" fill="none" xmlns="http://www.w3.org/2000/svg">
<path d="M17.5 6H22.5V8H20.5V21C20.5 21.28 20.4033 21.5167 20.21 21.71C20.0167 21.9033 19.78 22 19.5 22H5.5C5.22 22 4.98333 21.9033 4.79 21.71C4.59667 21.5167 4.5 21.28 4.5 21V8H2.5V6H7.5V3C7.5 2.72 7.59667 2.48333 7.79 2.29C7.98333 2.09667 8.22 2 8.5 2H16.5C16.78 2 17.0167 2.09667 17.21 2.29C17.4033 2.48333 17.5 2.72 17.5 3V6ZM18.5 8H6.5V20H18.5V8ZM9.5 11H11.5V17H9.5V11ZM13.5 11H15.5V17H13.5V11ZM9.5 4V6H15.5V4H9.5Z" fill="#F87171"/>
</svg>
