<svg width="34" height="32" viewBox="0 0 34 32" fill="none" xmlns="http://www.w3.org/2000/svg">
<path d="M24.5047 25.7323C23.3492 26.4612 22.1227 27.0211 20.825 27.4122C19.4741 27.8032 18.0875 27.9988 16.6655 27.9988C14.319 27.9988 12.097 27.4655 9.99946 26.3989C7.99077 25.3679 6.29761 23.9414 4.91997 22.1194C3.54233 20.2973 2.64908 18.2575 2.24023 16C2.52465 14.4357 3.04904 12.9647 3.81341 11.5871C4.57778 10.2094 5.53768 8.98734 6.69312 7.92079L2.53354 3.73454L4.40002 1.86806L30.7974 28.2654L28.9309 30.1319L24.5047 25.7323ZM8.58627 9.78727C7.67969 10.605 6.91977 11.5426 6.30649 12.6003C5.69322 13.658 5.24438 14.7912 4.95996 16C5.36881 17.7776 6.13762 19.3774 7.2664 20.7995C8.39517 22.2216 9.76837 23.3237 11.386 24.1058C13.0569 24.9235 14.8168 25.3324 16.6655 25.3324C18.763 25.3324 20.7273 24.8169 22.5582 23.7859L19.8651 21.0661C18.8875 21.6883 17.8209 21.9994 16.6655 21.9994C15.5811 21.9994 14.5812 21.7283 13.6658 21.1861C12.7503 20.644 12.0215 19.9151 11.4793 18.9997C10.9371 18.0842 10.6661 17.0843 10.6661 16C10.6661 14.8445 10.9771 13.778 11.5993 12.8003L8.58627 9.78727ZM17.892 19.093L13.5724 14.7734C13.4125 15.1645 13.3325 15.5734 13.3325 16C13.3325 16.6044 13.4836 17.1599 13.7857 17.6665C14.0879 18.1731 14.4923 18.5775 14.999 18.8797C15.5056 19.1819 16.0611 19.333 16.6655 19.333C17.0921 19.333 17.5009 19.253 17.892 19.093ZM28.3976 22.1327L26.5045 20.2129C27.3933 18.933 28.0154 17.5287 28.371 16C27.9621 14.2224 27.1933 12.6225 26.0645 11.2005C24.9357 9.77838 23.5625 8.67627 21.9449 7.89412C20.274 7.07643 18.5142 6.66758 16.6655 6.66758C15.5456 6.66758 14.4612 6.81867 13.4125 7.12086L11.306 5.01441C13.0125 4.33892 14.799 4.00118 16.6655 4.00118C19.0119 4.00118 21.2339 4.53446 23.3315 5.60102C25.3401 6.63202 27.0333 8.05855 28.4109 9.88059C29.7886 11.7026 30.6818 13.7424 31.0907 16C30.6818 18.2398 29.7841 20.284 28.3976 22.1327ZM16.2922 10.0006C16.4166 10.0006 16.541 10.0006 16.6655 10.0006C17.7498 10.0006 18.7497 10.2717 19.6652 10.8138C20.5806 11.356 21.3094 12.0848 21.8516 13.0003C22.3938 13.9157 22.6649 14.9156 22.6649 16V16.3733L16.2922 10.0006Z" fill="white"/>
</svg>
