<svg width="25" height="24" viewBox="0 0 25 24" fill="none" xmlns="http://www.w3.org/2000/svg">
<path d="M11.7002 13.3403L2.4802 19.4803C2.3602 19.5603 2.23353 19.587 2.1002 19.5603C1.96686 19.5336 1.8602 19.4603 1.7802 19.3403C1.72686 19.2603 1.7002 19.167 1.7002 19.0603V4.94031C1.7002 4.79365 1.7502 4.67365 1.8502 4.58031C1.9502 4.48698 2.06686 4.44031 2.2002 4.44031C2.30686 4.44031 2.4002 4.46698 2.4802 4.52031L11.7002 10.6603V4.94031C11.7002 4.79365 11.7502 4.67365 11.8502 4.58031C11.9502 4.48698 12.0669 4.44031 12.2002 4.44031C12.3069 4.44031 12.4002 4.46698 12.4802 4.52031L23.0802 11.5803C23.1869 11.6603 23.2569 11.767 23.2902 11.9003C23.3235 12.0336 23.3002 12.1603 23.2202 12.2803C23.1802 12.3336 23.1335 12.3803 23.0802 12.4203L12.4802 19.4803C12.3602 19.5603 12.2335 19.587 12.1002 19.5603C11.9669 19.5336 11.8602 19.4603 11.7802 19.3403C11.7269 19.2603 11.7002 19.167 11.7002 19.0603V13.3403ZM10.1002 12.0003L3.7002 7.74031V16.2603L10.1002 12.0003ZM13.7002 7.74031V16.2603L20.1002 12.0003L13.7002 7.74031Z" fill="#4ADE80"/>
</svg>
