<svg width="23" height="22" viewBox="0 0 23 22" fill="none" xmlns="http://www.w3.org/2000/svg">
<path d="M15.8433 11.4301V12.3189C15.8433 13.5513 15.7011 14.7541 15.4167 15.9272C15.1323 17.1004 14.7117 18.2261 14.1547 19.3045L13.9414 19.6777L12.395 18.8068C13.4378 16.9226 13.9947 14.8963 14.0658 12.7277V11.4301H15.8433ZM10.5108 8.76388H12.2883V12.6566C12.2528 13.889 12.0306 15.077 11.6218 16.2205C11.2129 17.364 10.6353 18.4157 9.88871 19.3756L9.69318 19.6244L8.30673 18.5046C8.99403 17.6751 9.52432 16.7626 9.89759 15.7672C10.2709 14.7718 10.4753 13.735 10.5108 12.6566V8.76388ZM11.3996 5.20889C12.2054 5.20889 12.949 5.41034 13.6303 5.81324C14.3117 6.21614 14.8509 6.75531 15.2479 7.43076C15.6448 8.10621 15.8433 8.84684 15.8433 9.65263H14.0658C14.0658 9.17863 13.9473 8.73722 13.7103 8.3284C13.4733 7.91957 13.1504 7.5937 12.7416 7.35077C12.3328 7.10785 11.8884 6.98639 11.4085 6.98639C10.9285 6.98639 10.4842 7.10785 10.0753 7.35077C9.66652 7.5937 9.34064 7.91957 9.09772 8.3284C8.85479 8.73722 8.73333 9.17863 8.73333 9.65263V12.3189C8.73333 13.3143 8.55854 14.2682 8.20897 15.1807C7.85939 16.0931 7.36466 16.9108 6.72476 17.6336L6.52923 17.8469L5.24943 16.6204C5.77083 16.0753 6.17669 15.4562 6.46702 14.7629C6.75734 14.0697 6.92028 13.3439 6.95583 12.5855V9.65263C6.95583 8.84684 7.15728 8.10621 7.56018 7.43076C7.96308 6.75531 8.50226 6.21614 9.17771 5.81324C9.85316 5.41034 10.5938 5.20889 11.3996 5.20889ZM11.3996 1.65388C12.8571 1.65388 14.2021 2.02123 15.4345 2.75594C16.6432 3.45509 17.6031 4.40901 18.3141 5.61771C19.0369 6.86196 19.3983 8.20693 19.3983 9.65263V12.3189C19.3983 13.8238 19.2206 15.3051 18.8651 16.7626L18.7407 17.2426L17.0343 16.7804C17.3898 15.4888 17.5853 14.1734 17.6208 12.8344V12.3189V9.65263C17.6208 8.52689 17.3364 7.48409 16.7676 6.52423C16.2225 5.58809 15.4819 4.84154 14.5458 4.28458C13.5741 3.71579 12.5253 3.43139 11.3996 3.43139C10.7123 3.43139 10.0516 3.541 9.41767 3.76022C8.78369 3.97945 8.20601 4.28458 7.68461 4.67564L6.40481 3.41361C7.10396 2.85666 7.87421 2.42414 8.71556 2.11604C9.58061 1.80794 10.4753 1.65388 11.3996 1.65388ZM5.16056 4.65786L6.42258 5.93766C6.04338 6.43536 5.74713 6.98342 5.53383 7.58185C5.32053 8.18027 5.20203 8.79943 5.17833 9.43933V11.4301C5.17833 12.4374 4.95318 13.3795 4.50288 14.2564L4.37846 14.523L2.83203 13.6342C3.17568 13.0299 3.36528 12.3841 3.40083 11.6968V11.4301V9.65263C3.40083 8.72833 3.55488 7.83366 3.86298 6.96861C4.17108 6.12726 4.60361 5.35701 5.16056 4.65786Z" fill="#F59E0B"/>
</svg>
