<svg width="20" height="20" viewBox="0 0 20 20" fill="none" xmlns="http://www.w3.org/2000/svg">
<path d="M2.78322 14.1668C2.42766 13.5557 2.15544 12.9112 1.96655 12.2335C2.37766 12.0224 2.70822 11.7168 2.95822 11.3168C3.20822 10.9168 3.33322 10.4779 3.33322 10.0001C3.33322 9.52235 3.20822 9.08346 2.95822 8.68346C2.70822 8.28346 2.37766 7.97791 1.96655 7.7668C2.35544 6.37791 3.04989 5.17235 4.04989 4.15013C4.43878 4.40569 4.86933 4.5418 5.34155 4.55846C5.81378 4.57513 6.25544 4.46402 6.66655 4.22513C7.07766 3.98624 7.39433 3.65846 7.61655 3.2418C7.83878 2.82513 7.93878 2.38902 7.91655 1.93346C9.30544 1.5668 10.6943 1.5668 12.0832 1.93346C12.061 2.38902 12.161 2.82513 12.3832 3.2418C12.6054 3.65846 12.9221 3.98624 13.3332 4.22513C13.7443 4.46402 14.186 4.57513 14.6582 4.55846C15.1304 4.5418 15.561 4.40569 15.9499 4.15013C16.4388 4.66124 16.861 5.22235 17.2166 5.83346C17.5721 6.44457 17.8443 7.08902 18.0332 7.7668C17.6221 7.97791 17.2916 8.28346 17.0416 8.68346C16.7916 9.08346 16.6666 9.52235 16.6666 10.0001C16.6666 10.4779 16.7916 10.9168 17.0416 11.3168C17.2916 11.7168 17.6221 12.0224 18.0332 12.2335C17.6443 13.6224 16.9499 14.8279 15.9499 15.8501C15.561 15.5946 15.1304 15.4585 14.6582 15.4418C14.186 15.4251 13.7443 15.5362 13.3332 15.7751C12.9221 16.014 12.6054 16.3418 12.3832 16.7585C12.161 17.1751 12.061 17.6112 12.0832 18.0668C10.6943 18.4335 9.30544 18.4335 7.91655 18.0668C7.93878 17.6112 7.83878 17.1751 7.61655 16.7585C7.39433 16.3418 7.07766 16.014 6.66655 15.7751C6.25544 15.5362 5.81378 15.4251 5.34155 15.4418C4.86933 15.4585 4.43878 15.5946 4.04989 15.8501C3.561 15.339 3.13877 14.7779 2.78322 14.1668ZM7.49989 14.3335C7.94433 14.589 8.32766 14.9168 8.64989 15.3168C8.97211 15.7168 9.21655 16.1557 9.38322 16.6335C9.79433 16.6779 10.2054 16.6779 10.6166 16.6335C10.7832 16.1557 11.0249 15.7168 11.3416 15.3168C11.6582 14.9168 12.0416 14.5862 12.4916 14.3251C12.9416 14.064 13.4221 13.8946 13.9332 13.8168C14.4443 13.739 14.9443 13.7557 15.4332 13.8668C15.6777 13.5224 15.8888 13.1612 16.0666 12.7835C15.7221 12.4057 15.4582 11.9779 15.2749 11.5001C15.0916 11.0224 14.9999 10.5224 14.9999 10.0001C14.9999 9.47791 15.0916 8.97791 15.2749 8.50013C15.4582 8.02235 15.7221 7.59457 16.0666 7.2168C15.9777 7.02791 15.8804 6.84457 15.7749 6.6668C15.6693 6.48902 15.5554 6.31124 15.4332 6.13346C14.9443 6.24457 14.4443 6.26124 13.9332 6.18346C13.4221 6.10569 12.9443 5.93624 12.4999 5.67513C12.0554 5.41402 11.6721 5.08346 11.3499 4.68346C11.0277 4.28346 10.7832 3.84457 10.6166 3.3668C10.2054 3.32235 9.79433 3.32235 9.38322 3.3668C9.21655 3.84457 8.97489 4.28346 8.65822 4.68346C8.34155 5.08346 7.95544 5.41402 7.49989 5.67513C7.04433 5.93624 6.56378 6.10569 6.05822 6.18346C5.55266 6.26124 5.05544 6.24457 4.56655 6.13346C4.32211 6.47791 4.111 6.83902 3.93322 7.2168C4.27766 7.59457 4.54155 8.02235 4.72489 8.50013C4.90822 8.97791 4.99989 9.47791 4.99989 10.0001C4.99989 10.5224 4.90822 11.0224 4.72489 11.5001C4.54155 11.9779 4.27766 12.4057 3.93322 12.7835C4.02211 12.9724 4.11933 13.1557 4.22489 13.3335C4.33044 13.5112 4.44433 13.689 4.56655 13.8668C5.05544 13.7557 5.55544 13.739 6.06655 13.8168C6.57766 13.8946 7.05544 14.0668 7.49989 14.3335ZM9.99989 12.5001C9.54433 12.5001 9.12489 12.389 8.74155 12.1668C8.35822 11.9446 8.05544 11.6418 7.83322 11.2585C7.611 10.8751 7.49989 10.4557 7.49989 10.0001C7.49989 9.54457 7.611 9.12513 7.83322 8.7418C8.05544 8.35846 8.35822 8.05569 8.74155 7.83346C9.12489 7.61124 9.54433 7.50013 9.99989 7.50013C10.4554 7.50013 10.8749 7.61124 11.2582 7.83346C11.6416 8.05569 11.9443 8.35846 12.1666 8.7418C12.3888 9.12513 12.4999 9.54457 12.4999 10.0001C12.4999 10.4557 12.3888 10.8751 12.1666 11.2585C11.9443 11.6418 11.6416 11.9446 11.2582 12.1668C10.8749 12.389 10.4554 12.5001 9.99989 12.5001ZM9.99989 10.8335C10.2332 10.8335 10.4304 10.7529 10.5916 10.5918C10.7527 10.4307 10.8332 10.2335 10.8332 10.0001C10.8332 9.7668 10.7527 9.56957 10.5916 9.40846C10.4304 9.24735 10.2332 9.1668 9.99989 9.1668C9.76655 9.1668 9.56933 9.24735 9.40822 9.40846C9.24711 9.56957 9.16655 9.7668 9.16655 10.0001C9.16655 10.2335 9.24711 10.4307 9.40822 10.5918C9.56933 10.7529 9.76655 10.8335 9.99989 10.8335Z" fill="#667185"/>
</svg>
