<svg width="34" height="32" viewBox="0 0 34 32" fill="none" xmlns="http://www.w3.org/2000/svg">
<path d="M10.398 27.7589L3.33203 29.332L4.90521 22.2661C3.85642 20.3285 3.33203 18.2398 3.33203 16C3.33203 14.1869 3.67866 12.4537 4.37193 10.8006C5.04742 9.21849 6.00288 7.80974 7.23831 6.57431C8.47374 5.33887 9.88249 4.38342 11.4646 3.70793C13.1177 3.01466 14.8509 2.66803 16.664 2.66803C18.4772 2.66803 20.2103 3.01466 21.8635 3.70793C23.4456 4.38342 24.8543 5.33887 26.0898 6.57431C27.3252 7.80974 28.2806 9.21849 28.9561 10.8006C29.6494 12.4537 29.996 14.1869 29.996 16C29.996 17.8132 29.6494 19.5463 28.9561 21.1995C28.2806 22.7816 27.3252 24.1903 26.0898 25.4258C24.8543 26.6612 23.4456 27.6166 21.8635 28.2921C20.2103 28.9854 18.4772 29.332 16.664 29.332C14.4243 29.332 12.3356 28.8076 10.398 27.7589ZM10.7713 24.9591L11.6512 25.4124C13.2155 26.2479 14.8864 26.6656 16.664 26.6656C18.6016 26.6656 20.397 26.1768 22.0502 25.1991C23.65 24.257 24.921 22.986 25.8631 21.3862C26.8408 19.733 27.3296 17.9376 27.3296 16C27.3296 14.0624 26.8408 12.2671 25.8631 10.6139C24.921 9.01406 23.65 7.74308 22.0502 6.80095C20.397 5.82327 18.6016 5.33443 16.664 5.33443C14.7264 5.33443 12.9311 5.82327 11.2779 6.80095C9.67806 7.74308 8.40708 9.01406 7.46495 10.6139C6.48727 12.2671 5.99843 14.0624 5.99843 16C5.99843 17.7776 6.41617 19.4486 7.25164 21.0129L7.70493 21.8928L6.85168 25.8124L10.7713 24.9591Z" fill="url(#paint0_linear_337_36179)"/>
<defs>
<linearGradient id="paint0_linear_337_36179" x1="12.0749" y1="2.66803" x2="-21.91" y2="8.26596" gradientUnits="userSpaceOnUse">
<stop stop-color="#E1880D"/>
<stop offset="1" stop-color="#FFF4E4"/>
</linearGradient>
</defs>
</svg>
