<svg width="34" height="32" viewBox="0 0 34 32" fill="none" xmlns="http://www.w3.org/2000/svg">
<path d="M23.3376 5.33599C24.7779 5.33599 26.1204 5.7005 27.3651 6.42954C28.5742 7.14079 29.5344 8.10098 30.2456 9.31011C30.9747 10.5548 31.3392 11.8973 31.3392 13.3376V18.672C31.3392 20.1123 30.9747 21.4548 30.2456 22.6995C29.5344 23.9086 28.5742 24.8688 27.3651 25.58C26.1204 26.3091 24.7779 26.6736 23.3376 26.6736H10.0016C8.56131 26.6736 7.21882 26.3091 5.97413 25.58C4.765 24.8688 3.80481 23.9086 3.09355 22.6995C2.36452 21.4548 2 20.1123 2 18.672V13.3376C2 11.8973 2.36452 10.5548 3.09355 9.31011C3.80481 8.10098 4.765 7.14079 5.97413 6.42954C7.21882 5.7005 8.56131 5.33599 10.0016 5.33599H23.3376ZM23.3376 8.00319H10.0016C9.05919 8.00319 8.19235 8.2299 7.40108 8.68332C6.60981 9.13675 5.96968 9.7502 5.4807 10.5237C4.99171 11.2972 4.72054 12.1462 4.6672 13.0709V18.672C4.6672 19.6144 4.89391 20.4812 5.34734 21.2725C5.80076 22.0638 6.41422 22.7039 7.1877 23.1929C7.96119 23.6819 8.81025 23.953 9.73488 24.0064H23.3376C24.28 24.0064 25.1469 23.7797 25.9381 23.3262C26.7294 22.8728 27.3695 22.2594 27.8585 21.4859C28.3475 20.7124 28.6187 19.8633 28.672 18.9387V13.3376C28.672 12.3952 28.4453 11.5283 27.9919 10.7371C27.5384 9.9458 26.925 9.30567 26.1515 8.81668C25.378 8.32769 24.5289 8.05653 23.6043 8.00319H23.3376ZM14.0024 12.004V14.6712H16.6696V17.3384H14.0024V20.0056H11.3352V17.3384H8.668V14.6712H11.3352V12.004H14.0024ZM24.6712 17.3384V20.0056H22.004V17.3384H24.6712ZM22.004 12.004V14.6712H19.3368V12.004H22.004Z" fill="url(#paint0_linear_337_36210)"/>
<defs>
<linearGradient id="paint0_linear_337_36210" x1="11.62" y1="5.33598" x2="-24.915" y2="13.6107" gradientUnits="userSpaceOnUse">
<stop stop-color="#E1880D"/>
<stop offset="1" stop-color="#FFF4E4"/>
</linearGradient>
</defs>
</svg>
