<svg width="30" height="49" viewBox="0 0 30 49" fill="none" xmlns="http://www.w3.org/2000/svg">
<path d="M3.19809 12.0136L2.53027 12.041L3.81984 43.4645L4.48765 43.4371L3.19809 12.0136Z" fill="#343434"/>
<path d="M4.17333 6.98962C4.15093 7.76131 4.38616 8.19943 4.41852 8.98232C4.45088 9.7652 4.40359 10.4572 4.15466 10.7709C3.90573 11.0845 3.2498 11.5264 2.97722 11.5588C2.90627 11.5675 2.78181 11.5724 2.71086 11.57C2.43704 11.56 1.7475 11.1742 1.47367 10.8817C1.19985 10.5892 1.09655 9.90336 1.06419 9.12047C1.03182 8.33759 1.23221 7.88204 1.14508 7.11409C1.0592 6.34614 0 5.82463 0 5.82463C0 5.82463 0.774175 6.60254 0.52151 8.1484C0.380865 9.00596 0.318633 10.1199 0.530224 10.7647C0.741815 11.4094 1.37784 11.7243 1.84832 12.0267C2.3188 12.3292 2.84279 12.3329 2.84279 12.3329L2.90503 12.3304C2.90503 12.3304 3.42654 12.2844 3.87213 11.9446C4.31647 11.6048 4.92385 11.2389 5.08193 10.5792C5.24 9.91954 5.0869 8.81429 4.87655 7.97166C4.49818 6.45193 5.20515 5.61304 5.20515 5.61304C5.20515 5.61304 4.19324 6.22043 4.16959 6.99211L4.17333 6.98962Z" fill="#343434"/>
<path d="M10.6909 21.1687C10.6909 21.328 10.6362 21.959 10.6362 21.959L14.7622 19.8618C14.7622 19.8618 15.0908 18.8685 15.2763 18.0956C15.4617 17.3227 15.4617 14.6566 15.4244 14.3069C15.387 13.9571 15.1344 11.9532 15.1344 11.9532L11.8746 11.2874L11.2373 12.7685L10.625 12.9191L10.269 12.8544C10.269 12.8544 9.44754 12.644 8.89616 12.7685C7.37519 13.112 7.68261 14.9504 7.69506 15.1844C7.70751 15.4171 7.69506 15.6138 7.69506 15.6138C7.69506 15.6138 6.8462 16.4228 6.68066 16.846C6.51513 17.2692 6.49646 18.0135 6.49646 18.0135C6.49646 18.0135 5.614 18.2985 5.35636 18.6383C5.09871 18.9781 4.41788 19.8244 4.41788 19.8244C4.41788 19.8244 4.24363 19.5481 4.02831 19.4996C3.81423 19.451 3.4707 19.4137 3.4707 19.4137L3.60886 22.427C3.60886 22.427 4.00466 22.1694 4.17891 22.0586C4.35316 21.9478 4.54111 21.7798 4.73029 21.5931C4.84356 21.4823 4.99291 21.0405 4.99291 21.0405C4.99291 21.0405 6.29483 20.2377 6.71676 19.8966C7.13995 19.5568 7.71871 18.6457 7.8021 18.591C7.88425 18.5362 8.61113 17.6065 8.77667 17.3961C8.9422 17.1845 9.58569 15.9523 9.58569 15.9523C9.58569 15.9523 10.208 18.0894 10.4047 18.7627C10.6013 19.4374 10.7544 19.9701 10.7358 20.0535C10.7171 20.1356 10.6934 21.0069 10.6934 21.1662L10.6909 21.1687Z" fill="white"/>
<path d="M14.0379 15.9361C13.9022 15.8876 13.8586 15.6835 13.8586 15.681C13.8561 15.6698 13.8499 15.6611 13.84 15.6561C13.83 15.6511 13.8188 15.6511 13.8088 15.6561C13.7877 15.666 13.2898 15.9038 13.1753 15.9909C13.0782 16.0643 12.6426 16.3494 12.0999 16.612C11.6282 16.8397 11.5187 16.7601 11.5125 16.7551C11.5 16.7414 11.4776 16.7389 11.4639 16.7514C11.449 16.7638 11.4452 16.7862 11.4577 16.8024C11.4676 16.8136 11.5013 16.846 11.5934 16.846C11.6917 16.846 11.8572 16.8099 12.131 16.6779C12.6687 16.4178 13.1031 16.1365 13.2189 16.0494C13.3097 15.9809 13.6794 15.8005 13.8014 15.7407C13.8238 15.8141 13.8848 15.9585 14.0155 16.0058C14.247 16.0892 14.9689 15.9038 14.9987 15.8963C15.0174 15.8913 15.0298 15.8714 15.0249 15.8527C15.0199 15.8341 15 15.8216 14.9813 15.8266C14.7784 15.8789 14.2146 16.0008 14.0403 15.9374L14.0379 15.9361Z" fill="#343434"/>
<path d="M10.3387 15.0686C10.3262 15.076 10.0412 15.2503 9.92918 15.3623C9.83708 15.4544 9.63544 15.7095 9.5645 15.8004C9.38651 15.6299 9.20355 15.4457 9.18488 15.4121C9.17866 15.3947 9.15998 15.3847 9.14131 15.3897C9.12264 15.3947 9.11144 15.4146 9.11642 15.4345C9.12886 15.478 9.35539 15.7008 9.54333 15.8801C9.54956 15.8863 9.55951 15.89 9.56823 15.89C9.56823 15.89 9.56947 15.89 9.57072 15.89C9.58068 15.89 9.59064 15.8838 9.59686 15.8763C9.59935 15.8726 9.87317 15.5216 9.98021 15.4133C10.086 15.3075 10.3735 15.132 10.376 15.1308C10.3934 15.1208 10.3984 15.0984 10.3885 15.081C10.3785 15.0636 10.3561 15.0586 10.3387 15.0686Z" fill="#343434"/>
<path d="M7.15415 18.3445C7.14792 18.3544 6.99483 18.5971 6.94006 18.7365C6.88281 18.8797 6.88281 19.0863 6.88281 19.095C6.88281 19.1149 6.89899 19.1311 6.9189 19.1311C6.93882 19.1311 6.955 19.1149 6.955 19.095C6.955 19.0925 6.955 18.8933 7.00728 18.7639C7.0608 18.6307 7.21389 18.3855 7.21638 18.383C7.22758 18.3656 7.22135 18.3445 7.20517 18.3333C7.18899 18.3233 7.16659 18.3283 7.15539 18.3445H7.15415Z" fill="#343434"/>
<path d="M13.6768 16.3256V19.4248C13.6768 19.4447 13.6929 19.4609 13.7129 19.4609C13.7328 19.4609 13.7489 19.4447 13.7489 19.4248V16.3256C13.7489 16.3057 13.7328 16.2896 13.7129 16.2896C13.6929 16.2896 13.6768 16.3057 13.6768 16.3256Z" fill="#343434"/>
<path d="M3.33533 19.4573C3.21833 19.4884 3.05777 19.5345 2.97687 19.715C2.87356 19.9477 3.0167 20.2116 3.14116 20.2253C3.26563 20.239 3.33408 20.2626 3.43116 20.1929C3.52949 20.1232 3.60542 20.0647 3.60542 20.0647L3.58426 19.4287C3.58426 19.4287 3.48966 19.4175 3.33408 19.4573H3.33533Z" fill="white"/>
<path d="M3.5821 19.8793C3.56094 19.8867 3.54102 19.8979 3.52609 19.9178C3.51364 19.9365 3.50991 19.9577 3.50866 19.9726L3.49248 20.0958C3.48999 20.1157 3.50368 20.1332 3.5236 20.1357C3.52484 20.1357 3.52733 20.1357 3.52858 20.1357C3.546 20.1357 3.56218 20.122 3.56467 20.1045L3.58085 19.9813C3.58085 19.9726 3.58334 19.9627 3.58583 19.9577C3.58956 19.9527 3.60326 19.9465 3.60824 19.9452C3.6991 19.9091 3.79867 19.8954 3.89575 19.9042C3.91691 19.9066 3.93309 19.8917 3.93434 19.8718C3.93558 19.8519 3.92189 19.8345 3.90198 19.8332C3.79369 19.8245 3.68292 19.8394 3.5821 19.8793Z" fill="#343434"/>
<path d="M4.40974 20.6932C4.35249 20.7567 4.26039 20.794 4.16331 20.789C4.07618 20.7853 3.98532 20.7517 3.90193 20.692C3.88575 20.6808 3.86334 20.6845 3.85214 20.7007C3.84094 20.7168 3.84467 20.7393 3.86086 20.7505C3.95669 20.8189 4.06124 20.8575 4.16206 20.8612C4.16704 20.8612 4.17202 20.8612 4.17824 20.8612C4.29026 20.8612 4.39605 20.8164 4.46451 20.7405C4.4782 20.7256 4.47696 20.7032 4.46203 20.6895C4.44709 20.6758 4.42468 20.677 4.41099 20.692L4.40974 20.6932Z" fill="#343434"/>
<path d="M4.74832 21.4985C4.70102 21.5744 4.65124 21.6516 4.58527 21.7113C4.57033 21.725 4.56909 21.7474 4.58278 21.7624C4.59025 21.7698 4.60021 21.7736 4.60892 21.7736C4.61763 21.7736 4.62634 21.7711 4.63257 21.7636C4.706 21.6964 4.76076 21.6105 4.80806 21.5358C4.87278 21.435 4.94498 21.3205 4.98481 21.1936C5.03459 21.0318 5.02837 20.8625 5.02214 20.6982C5.01841 20.5986 5.01468 20.4966 5.02214 20.3982C5.02339 20.3783 5.0097 20.3609 4.98978 20.3596C4.96987 20.3572 4.95244 20.3721 4.9512 20.392C4.94249 20.4953 4.94622 20.5999 4.9512 20.7019C4.95742 20.8675 4.96364 21.023 4.91759 21.1724C4.88149 21.2894 4.81429 21.3952 4.74956 21.4973L4.74832 21.4985Z" fill="#343434"/>
<path d="M2.90371 22.5017H3.53475C3.70402 22.5017 3.84094 22.376 3.84094 22.2217C3.84094 22.1258 3.78742 22.0412 3.70776 21.9902C3.77124 21.9391 3.81355 21.8645 3.81355 21.7798V21.7114C3.81355 21.5844 3.7202 21.4786 3.59449 21.4438C3.6978 21.399 3.76875 21.3031 3.76875 21.1923V21.1239C3.76875 21.0081 3.69158 20.9086 3.58205 20.8662C3.72518 20.8426 3.83347 20.7281 3.83347 20.5912V20.5227C3.83347 20.3684 3.69656 20.2427 3.52728 20.2427H2.6834C2.51413 20.2427 2.37722 20.3684 2.37722 20.5227V20.5912C2.37722 20.7069 2.45439 20.8065 2.56392 20.8488C2.42079 20.8725 2.3125 20.987 2.3125 21.1239V21.1923C2.3125 21.3193 2.40585 21.4251 2.53156 21.4599C2.42825 21.5048 2.35731 21.6006 2.35731 21.7114V21.7798C2.35731 21.9317 2.49049 22.0549 2.65478 22.0599C2.61993 22.1059 2.59752 22.1607 2.59752 22.2217C2.59752 22.376 2.73444 22.5017 2.90371 22.5017Z" fill="white"/>
<path d="M2.54196 20.8103C2.52204 20.8103 2.50586 20.8265 2.50586 20.8464C2.50586 20.8663 2.52204 20.8825 2.54196 20.8825L3.62107 20.8912C3.64099 20.8912 3.65716 20.875 3.65716 20.8551C3.65716 20.8352 3.64099 20.819 3.62107 20.819L2.54196 20.8103Z" fill="#343434"/>
<path d="M2.51071 21.4225C2.49079 21.4225 2.47461 21.4387 2.47461 21.4586C2.47461 21.4785 2.49079 21.4947 2.51071 21.4947L3.59355 21.4785C3.61347 21.4785 3.62965 21.4623 3.62965 21.4424C3.62965 21.4225 3.60849 21.4051 3.59355 21.4063L2.51071 21.4225Z" fill="#343434"/>
<path d="M2.62254 22.0239C2.60263 22.0251 2.5877 22.0425 2.58894 22.0625C2.58894 22.0811 2.60636 22.0961 2.62503 22.0961C2.62503 22.0961 2.62628 22.0961 2.62752 22.0961L3.71037 22.0264C3.73028 22.0251 3.74522 22.0077 3.74398 21.9878C3.74398 21.9679 3.72406 21.9529 3.70539 21.9542L2.62254 22.0239Z" fill="#343434"/>
<path d="M3.53477 22.4656C3.51486 22.4656 3.49868 22.4818 3.49868 22.5017C3.49868 22.5216 3.51486 22.5378 3.53477 22.5378C3.72396 22.5378 3.87705 22.3959 3.87705 22.2216C3.87705 22.1308 3.83598 22.0461 3.76379 21.9864C3.81856 21.9291 3.84843 21.8557 3.84843 21.7798V21.7113C3.84843 21.5956 3.78121 21.4923 3.67542 21.4375C3.75508 21.379 3.80361 21.2894 3.80361 21.1923V21.1239C3.80361 21.0255 3.75507 20.9347 3.67417 20.8762C3.79117 20.8251 3.86958 20.7156 3.86958 20.5911V20.5227C3.86958 20.3484 3.71649 20.2065 3.5273 20.2065C3.50739 20.2065 3.49121 20.2227 3.49121 20.2426C3.49121 20.2626 3.50739 20.2787 3.5273 20.2787C3.67666 20.2787 3.79739 20.3883 3.79739 20.5227V20.5911C3.79739 20.7081 3.70405 20.8102 3.57585 20.8314C3.55967 20.8338 3.54722 20.8475 3.54598 20.8637C3.54473 20.8799 3.55344 20.8948 3.56838 20.9011C3.66795 20.9396 3.73143 21.028 3.73143 21.1251V21.1936C3.73143 21.2869 3.67292 21.3715 3.57833 21.4126C3.56464 21.4188 3.55593 21.4325 3.55717 21.4487C3.55717 21.4636 3.56838 21.4773 3.58331 21.4811C3.69907 21.5122 3.77623 21.6055 3.77623 21.7138V21.7823C3.77623 21.852 3.74387 21.9167 3.68413 21.964C3.67542 21.9715 3.67044 21.9827 3.67044 21.9939C3.67044 22.0051 3.6779 22.0163 3.68786 22.0225C3.7613 22.0685 3.80486 22.1432 3.80486 22.2229C3.80486 22.3573 3.68413 22.4668 3.53477 22.4668V22.4656Z" fill="#343434"/>
<path d="M18.8078 40.7099C18.992 41.6757 19.3791 42.4474 19.4053 42.4847C19.47 42.5768 19.7027 42.7113 20.0824 42.6627C20.462 42.6142 20.7445 42.5955 20.793 42.3864C20.8416 42.1785 20.7383 41.8898 20.5665 41.7728C20.3948 41.6558 20.2454 41.6782 20.162 41.6073C19.9019 41.3845 19.7998 40.6576 19.7699 40.2954C19.7388 39.9332 19.9218 39.7278 19.9728 39.6146C20.0599 39.4216 20.2977 39.4615 20.396 39.3021C20.4943 39.1428 20.04 36.2615 20.04 36.2615L18.6796 32.9382C18.6796 32.9382 17.7412 33.2257 17.1898 33.7485C16.6384 34.2713 16.4816 35.1911 16.7616 35.7151C17.0417 36.2391 17.2172 36.6249 16.8027 37.0481C16.3895 37.4713 15.5767 37.1327 15.5767 37.1327C15.5767 37.1327 15.3688 38.0998 15.5033 39.3743C15.6377 40.6489 16.1866 42.1972 16.1866 42.1972C16.1866 42.1972 16.3807 42.8183 16.6098 42.8855C16.8388 42.9527 17.4238 43.056 17.5433 43.0398C17.6627 43.0237 18.0125 42.9888 18.0934 42.837C18.1967 42.644 18.1805 42.5221 17.9689 42.3366C17.7573 42.1512 17.4511 42.2532 17.2856 41.9956C17.1201 41.7379 16.8463 41.3521 16.8475 40.9476C16.8487 40.5431 16.9496 39.927 16.9496 39.927C16.9496 39.927 17.4736 39.8075 17.842 39.4216C18.2104 39.0358 18.697 37.831 18.697 37.831C18.697 37.831 18.6236 39.744 18.8078 40.7099Z" fill="white"/>
<path d="M8.55435 39.4029C8.55435 39.4029 7.92953 39.4863 7.75404 39.3842C7.57978 39.2834 6.96368 39.1079 6.96368 39.1079C6.96368 39.1079 6.67865 40.7085 6.67865 40.9189C6.67865 41.1292 6.43968 41.7553 6.36624 41.9482C6.29281 42.1411 5.76881 42.8307 5.73147 43.0149C5.69413 43.1991 5.6207 43.4804 5.78624 43.5912C5.95178 43.7019 7.08939 43.7181 7.26364 43.6584C7.5885 43.5476 7.78764 42.9352 7.83369 42.8244C7.87974 42.7137 8.16726 42.5183 8.2046 42.2793C8.24194 42.0403 7.93824 41.3782 8.0764 41.0097C8.21455 40.6413 8.55435 39.4004 8.55435 39.4004V39.4029Z" fill="white"/>
<path d="M6.46097 41.1604C6.46097 41.1604 6.32655 41.5338 6.32033 41.5525C6.3141 41.5711 8.20847 41.5836 8.20847 41.5836V41.1604C8.20847 41.1604 7.56498 41.148 7.31356 41.1231C7.06214 41.0982 6.46097 41.1604 6.46097 41.1604Z" fill="#343434"/>
<path d="M6.22266 43.819C6.22266 43.819 6.55996 43.8476 6.57863 43.8227C6.5973 43.7978 6.74416 43.0535 6.85494 42.7287C6.96571 42.4038 7.39387 41.3496 7.39387 41.3496L7.0628 41.4031C7.0628 41.4031 6.47408 42.7287 6.43176 42.9241C6.38944 43.1208 6.22389 43.8178 6.22389 43.8178L6.22266 43.819Z" fill="#343434"/>
<path d="M6.62026 42.1895C6.4124 42.1895 5.97055 42.3364 5.97055 42.3364L5.7627 42.716C5.7627 42.716 6.55429 42.5866 6.96378 42.6214C7.37327 42.6563 7.78526 43.0645 7.78526 43.0645L8.02423 42.7023C8.02423 42.7023 7.89603 42.4696 7.54628 42.2978C7.19653 42.126 6.82936 42.187 6.62026 42.187V42.1895Z" fill="#343434"/>
<path d="M8.06692 42.4013C8.05448 42.4224 7.74954 42.9178 7.55412 43.2651C7.41099 43.5202 7.21185 43.6397 6.96416 43.6173C6.72021 43.5962 5.78423 43.6148 5.67843 43.6173C5.55894 43.6198 5.46436 43.7181 5.46684 43.8376C5.46933 43.9559 5.56517 44.0492 5.68341 44.0492C5.68466 44.0492 5.6859 44.0492 5.68839 44.0492C5.96968 44.043 6.74012 44.0318 6.92682 44.0492C6.95794 44.0517 6.98905 44.0529 7.02017 44.0529C7.39606 44.0529 7.72465 43.8476 7.93126 43.4779C8.12294 43.1369 8.43285 42.6328 8.43534 42.6278C8.49757 42.5257 8.46646 42.3926 8.3644 42.3303C8.26233 42.2681 8.12915 42.2992 8.06692 42.4013Z" fill="#343434"/>
<path d="M6.93417 39.3369L6.84082 39.6394C6.84082 39.6394 7.24284 39.729 7.54778 39.7203C7.9859 39.7091 8.48999 39.6195 8.48999 39.6195L8.53604 39.5C8.20745 39.5211 7.92367 39.5261 7.73573 39.5037C7.50049 39.4763 7.21297 39.4104 6.93417 39.3357V39.3369Z" fill="#343434"/>
<path d="M13.4578 41.5188C13.3458 41.7665 12.8815 42.3378 13.5014 42.8107C13.7316 42.9862 14.1088 42.9626 14.4398 42.99C14.7709 43.0174 15.0373 43.2476 15.5065 43.3211C15.9757 43.3945 15.7729 43.4953 16.1687 43.4953C16.5645 43.4953 17.2901 43.504 17.3461 43.4132C17.4009 43.3211 17.5116 42.99 17.1532 42.8618C16.7947 42.7336 16.3442 42.5033 16.0317 42.1996C15.7193 41.8959 15.1119 41.3906 14.9651 41.0321C14.8182 40.6737 15.0472 38.3188 15.0472 38.1259C15.0472 37.9329 15.1119 37.2608 15.1119 37.2608C15.1119 37.2608 15.2501 37.1227 14.624 37.4177C13.9992 37.7114 13.3084 38.3101 13.3084 38.3101C13.3084 38.3101 13.5113 39.1564 13.5387 39.561C13.5661 39.9655 13.6209 40.6923 13.6034 40.8766C13.5848 41.0608 13.5698 41.2724 13.4578 41.52V41.5188Z" fill="white"/>
<path d="M13.487 40.9089C13.487 40.9089 13.4322 41.24 13.3588 41.2711C13.2854 41.3022 13.9961 41.357 14.2226 41.3819C14.4491 41.4068 15.2743 41.3085 15.2743 41.3085L15.0988 40.9102C15.0988 40.9102 14.657 40.9475 14.296 40.9475C13.9351 40.9475 13.487 40.9102 13.487 40.9102V40.9089Z" fill="#343434"/>
<path d="M14.479 41.301H13.9949C13.9949 41.301 13.8468 41.7304 13.8231 42.0976C13.8007 42.466 13.9202 43.0958 13.9202 43.0958H14.3135C14.3135 43.0958 14.189 42.4001 14.2152 42.1437C14.2724 41.5798 14.4803 41.301 14.4803 41.301H14.479Z" fill="#343434"/>
<path d="M17.4758 43.1554C17.4571 42.919 17.0762 42.6837 16.9667 42.619C16.6817 42.451 16.1141 41.973 16.1141 41.973L15.1184 41.1802L14.8906 41.2511C14.8906 41.2511 15.1172 41.7353 15.5466 42.0353C15.6847 42.1311 16.5448 42.7335 17.0787 43.1268C17.375 43.3446 17.3364 43.4952 17.3364 43.4952C17.3364 43.4952 17.4932 43.4044 17.4745 43.1542L17.4758 43.1554Z" fill="#343434"/>
<path d="M15.4424 43.4952L15.7461 43.5736C15.7461 43.5736 15.9689 43.1106 16.1108 42.8853C16.2539 42.66 16.468 42.4235 16.468 42.4235L16.1879 42.197C16.1879 42.197 15.9763 42.4273 15.8158 42.7086C15.6552 42.9886 15.4436 43.4952 15.4436 43.4952H15.4424Z" fill="#343434"/>
<path d="M17.2873 43.3596C16.6762 43.4492 15.5349 43.2351 15.047 43.1443L14.9486 43.1256C14.1396 42.9763 13.3642 42.7522 13.3555 42.7497C13.241 42.7161 13.1215 42.7821 13.0879 42.8966C13.0543 43.0111 13.1202 43.1306 13.2347 43.1642C13.2671 43.1742 14.0388 43.397 14.8702 43.55L14.9673 43.5675C15.3867 43.6459 16.2704 43.8114 16.95 43.8114C17.0944 43.8114 17.2313 43.804 17.3508 43.7865C17.4691 43.7691 17.5512 43.6596 17.5338 43.5413C17.5163 43.4231 17.4068 43.3422 17.2886 43.3584L17.2873 43.3596Z" fill="#343434"/>
<path d="M13.4648 38.5939C13.4362 38.6126 13.4026 38.6312 13.3652 38.6499C13.3839 38.691 13.4013 38.7233 13.4013 38.7233C13.4013 38.7233 13.5606 38.6449 13.7685 38.523C13.9764 38.3997 14.2278 38.1184 14.4792 37.928C14.7306 37.7376 15.0704 37.7189 15.0704 37.7189L15.0978 37.4314C14.819 37.4986 14.6161 37.6044 14.356 37.7749C14.0622 37.9678 13.8407 38.345 13.4636 38.5939H13.4648Z" fill="#343434"/>
<path d="M17.0733 18.9246C17.0733 18.9246 17.9993 18.4654 18.7038 18.311C19.4083 18.1579 20.2733 18.1766 20.2733 18.1766C20.2733 18.1766 20.231 17.7285 20.2061 17.5754C20.1812 17.4223 20.1265 17.1274 20.0468 16.8149C19.9671 16.5025 20.0095 16.1715 19.9796 16.0184C19.9485 15.8653 19.7767 15.706 19.6859 15.6201C19.595 15.5342 19.3 15.5031 19.2502 15.4296C19.2017 15.3562 19.1457 15.0799 19.122 14.7675C19.0971 14.4551 19.061 14.1178 19.005 13.9834C18.9503 13.8489 18.7785 13.7929 18.6677 13.7133C18.557 13.6336 18.435 13.59 18.3802 13.4619C18.3255 13.3337 18.4051 12.8831 18.4051 12.8271C18.4051 12.7711 18.2769 12.6429 18.1748 12.5607C18.074 12.4786 17.7616 12.506 17.5675 12.3989C17.3733 12.2919 17.4206 12.2944 17.2638 12.1375C17.1069 11.9807 16.9053 11.7144 16.9053 11.7144C16.9053 11.7144 16.7024 11.8065 16.5008 11.9259C16.2979 12.0454 16.0228 12.1923 16.0228 12.1923L15.683 11.8699L15.6706 11.8674L14.9898 12.1189C14.9898 12.1189 15.1702 14.3144 15.2412 15.238C15.347 16.6245 15.0296 18.5562 15.0296 18.5562L14.0638 19.9726C14.0638 19.9726 13.1813 20.478 12.7121 20.7729C12.2428 21.0667 10.6509 21.7948 10.6509 21.7948L10.687 21.3032L10.7094 20.5103C10.7094 20.5103 10.1779 21.0941 10.0062 21.2472C9.83442 21.4003 9.35025 21.8048 9.30793 21.8969C9.26561 21.989 9.40626 22.1794 9.45854 22.3499C9.51081 22.5217 9.62034 23.0855 9.62034 23.0855C9.62034 23.0855 9.16728 23.4963 8.90964 23.6867C8.652 23.8771 8.46157 24.0551 8.46157 24.0551C8.46157 24.0551 8.44289 24.4235 8.44289 24.6861C8.44289 24.9488 8.5711 25.2039 8.5711 25.2039C8.5711 25.2039 8.51882 25.4342 8.47276 25.535C8.42671 25.6358 7.39739 27.8986 7.23185 28.1562C7.06631 28.4139 5.95359 30.1327 5.88015 30.2161C5.80672 30.2983 5.86148 30.5746 5.86148 30.5746L6.93686 32.3221C6.93686 32.3221 6.55973 33.1311 6.42158 33.4261C6.28342 33.7198 5.6947 34.4841 5.61255 34.6035C5.5304 34.723 5.73203 35.1462 5.93491 36.3237C6.13779 37.5011 5.85277 38.9997 5.85277 38.9997C5.85277 38.9997 7.03021 39.4229 7.73842 39.505C8.44663 39.5871 10.5252 39.2847 11.1874 39.22C11.8495 39.1552 13.0904 38.8428 13.4676 38.5952C13.8447 38.3475 14.065 37.9703 14.36 37.7762C14.6537 37.5832 14.8753 37.4725 15.2151 37.4078C15.5549 37.343 16.6215 37.582 16.8157 37.5546C17.0086 37.5272 17.0634 37.3069 17.2849 36.9572C17.5052 36.6074 17.4965 36.1208 17.4965 36.1208C17.4965 36.1208 17.2028 35.7984 17.1468 35.725C17.092 35.6515 16.9165 35.2309 16.9165 34.9371C16.9165 34.6434 17.0024 34.5202 17.4069 34.0049C17.8114 33.4896 19.2589 32.7913 19.2589 32.7913L19.0386 31.762C19.0386 31.762 18.5482 28.9665 18.4014 28.501C18.2545 28.0355 17.433 24.4248 17.0285 22.6773C16.624 20.9298 16.0726 19.9926 16.0726 19.9926L16.2693 19.4586L17.0783 18.9246H17.0733Z" fill="#343434"/>
<path d="M15.7303 17.9686C15.6992 18.2362 15.6631 18.5026 15.6357 18.7714C15.6955 18.5088 15.7453 18.2437 15.8 17.9798C16.0216 16.7961 16.2419 15.5764 16.3402 14.3778C16.3303 13.6982 16.1921 13.0298 16.0552 12.3689C16.1237 13.1667 16.2929 13.9708 16.1709 14.7686C16.0253 15.8066 15.871 16.9306 15.7303 17.9686Z" fill="white"/>
<path d="M16.7246 14.3517C16.6474 14.7338 16.4471 15.7345 16.3798 16.1042C16.3475 16.3008 16.3101 16.495 16.2803 16.6929C16.3413 16.5037 16.3923 16.3108 16.4483 16.1204C16.6835 15.1595 16.9872 14.1849 17.0208 13.1905C17.0221 12.7897 16.9947 12.3914 16.9387 11.9968C16.9362 12.3939 16.9362 12.7909 16.9113 13.1855C16.8901 13.5788 16.8043 13.9609 16.7246 14.3505V14.3517Z" fill="white"/>
<path d="M17.2745 15.8403C17.7612 14.8433 18.0499 13.7443 18.1757 12.644C17.984 13.4518 17.7674 14.2496 17.4749 15.0251C16.9435 16.2983 16.3323 17.5442 15.8096 18.8238C16.3249 17.843 16.809 16.846 17.2745 15.8403Z" fill="white"/>
<path d="M17.4626 16.5574C17.9979 15.762 18.4198 14.9144 18.8143 14.0457C18.3015 14.841 17.856 15.6861 17.3556 16.4827C16.8291 17.2768 16.3499 18.0933 15.877 18.9197C16.4122 18.1381 16.9237 17.3353 17.4626 16.5586V16.5574Z" fill="white"/>
<path d="M16.3787 18.5599C16.7907 18.0932 17.1827 17.6065 17.6769 17.2244C18.237 16.7614 19.0858 16.169 19.6845 15.7371C18.7672 16.2387 17.8698 16.8062 17.1155 17.5368C16.6948 18.0098 16.309 18.5014 15.9717 19.0354C16.1024 18.8723 16.2405 18.7168 16.3799 18.5599H16.3787Z" fill="white"/>
<path d="M19.6264 17.655C18.3817 17.8567 17.1458 18.3433 16.2061 19.1996C16.3392 19.1138 16.4712 19.0291 16.6093 18.9532C17.5515 18.3869 18.5883 18.0023 19.6276 17.655H19.6264Z" fill="white"/>
<path d="M8.93541 24.5179C8.93541 24.5179 8.9267 24.5067 8.92172 24.5017C8.9155 24.5042 8.91052 24.5067 8.9043 24.5092L8.93541 24.5179Z" fill="white"/>
<path d="M8.93505 24.518L8.90394 24.5092C8.90394 24.5092 8.91514 24.5043 8.92136 24.5018C8.83424 24.396 8.74711 24.2889 8.65625 24.1844C8.73217 24.3076 8.81307 24.4283 8.89273 24.5491C8.89895 24.559 8.91264 24.5628 8.92385 24.5578C9.94695 24.2192 10.9551 23.8409 11.9484 23.4227C12.2794 23.2845 12.6093 23.1414 12.9341 22.9883C12.5894 23.0916 12.2496 23.2073 11.911 23.3256C10.8991 23.6778 9.90339 24.0699 8.9226 24.5005C8.92758 24.5055 8.93132 24.5117 8.9363 24.5167L8.93505 24.518Z" fill="white"/>
<path d="M12.4824 21.8309C13.1832 21.379 13.8204 20.8476 14.3955 20.2427C13.6947 20.6957 13.0562 21.2247 12.4824 21.8309Z" fill="white"/>
<path d="M13.002 24.3315C13.6405 23.0345 14.33 21.7588 14.8005 20.3896C14.1719 21.6916 13.4376 22.9487 13.002 24.3315Z" fill="white"/>
<path d="M14.1924 23.6941C14.5334 22.6262 14.9852 21.4886 15.2342 20.3958C14.7886 21.4599 14.3505 22.5453 14.1924 23.6941Z" fill="white"/>
<path d="M15.5825 24.0201C15.5115 25.1589 15.5787 26.299 15.631 27.4354C15.7318 29.7206 16.0978 31.9572 16.5832 34.1901L16.3181 32.5049C15.921 30.267 15.7791 27.9955 15.6932 25.7265C15.6211 24.0213 15.7941 22.3236 15.972 20.6296C15.7928 21.7523 15.6559 22.8837 15.5837 24.0201H15.5825Z" fill="white"/>
<path d="M15.3787 20.6284C14.8223 23.3629 14.2697 26.1161 14.129 28.9091C14.0904 31.0051 14.2448 33.0986 14.4215 35.1859C14.4464 35.4871 14.4949 35.9352 14.5472 36.2264L14.7078 37.2607L14.5895 36.2214C14.5485 35.9252 14.5136 35.4796 14.4974 35.1809C14.3692 33.0949 14.2448 31.0014 14.2659 28.9128C14.3966 26.1285 14.9206 23.3754 15.3787 20.6297V20.6284Z" fill="white"/>
<path d="M7.51393 32.2686C7.92965 31.9823 8.30926 31.6525 8.63785 31.2654C8.20471 31.5268 7.82509 31.8504 7.44547 32.179C7.32349 32.291 7.19156 32.3781 7.01855 32.3694C7.18036 32.4441 7.37951 32.3669 7.51269 32.2686H7.51393Z" fill="white"/>
<path d="M5.78711 34.5027C7.18735 33.5033 8.53779 32.4179 9.81481 31.2654C8.41457 32.2648 7.06412 33.3502 5.78711 34.5027Z" fill="white"/>
<path d="M13.9343 18.6185C13.734 18.8027 13.658 19.8756 13.3954 20.1332C13.0444 20.4755 10.6509 21.5073 10.6509 21.5073L10.6348 21.7961C10.6348 21.7961 11.6666 21.3654 12.3586 20.9721C12.7731 20.7369 14.0638 19.9739 14.0638 19.9739L15.0296 18.5575C15.0296 18.5575 15.347 16.6258 15.2412 15.2392C15.1703 14.3157 14.9898 12.1201 14.9898 12.1201C14.9898 12.1201 15.2313 15.869 14.9898 17.4721C14.8044 18.7031 14.3463 18.2401 13.9356 18.6185H13.9343Z" fill="white"/>
<path d="M15.8789 18.9183C15.6648 18.7715 15.264 18.6333 15.0948 18.6059C14.9242 18.5785 14.5085 18.591 14.3318 18.6632C14.1339 18.7428 13.941 18.9432 13.8949 19.3938C13.8775 19.5606 13.875 19.9875 13.875 19.9875C14.3368 20.0846 14.2359 20.1319 14.9529 20.4605C15.0724 20.5152 15.7806 20.6036 16.144 20.5887C16.5074 20.575 16.4328 20.5762 16.5174 20.5065C16.658 20.3908 16.5983 19.9452 16.5846 19.863C16.5709 19.7809 16.3643 19.5593 16.3643 19.5593C16.3643 19.5593 16.0195 19.0142 15.8801 18.9183H15.8789Z" fill="#343434"/>
<path d="M16.0986 19.9413C16.0924 19.9363 15.439 19.4099 15.2535 19.2642C15.0656 19.1161 14.3487 18.7552 14.3188 18.739C14.3014 18.7303 14.279 18.7365 14.2703 18.7552C14.2615 18.7726 14.269 18.795 14.2864 18.8037C14.2939 18.8074 15.027 19.1783 15.2087 19.3215C15.3855 19.4596 15.9879 19.9463 16.0489 19.9948L16.4235 20.6035C16.4297 20.6147 16.4422 20.6209 16.4546 20.6209C16.4608 20.6209 16.4671 20.6197 16.4733 20.6159C16.4907 20.606 16.4957 20.5836 16.4845 20.5661L16.1061 19.9525C16.1061 19.9525 16.1011 19.9463 16.0986 19.9438V19.9413Z" fill="white"/>
<path d="M14.6749 19.4174C14.3127 19.1249 13.9904 19.2531 13.9767 19.2593C13.958 19.2668 13.9493 19.288 13.9568 19.3066C13.9642 19.3253 13.9854 19.334 14.0041 19.3266C14.0165 19.3216 14.3028 19.2108 14.6301 19.4747C14.9737 19.7522 15.581 20.4144 15.5873 20.4206C15.5947 20.4281 15.6047 20.4318 15.6134 20.4318C15.6221 20.4318 15.6308 20.4293 15.6383 20.4219C15.6532 20.4082 15.6545 20.3858 15.6408 20.3708C15.6346 20.3646 15.0222 19.6975 14.6749 19.4174Z" fill="white"/>
<path d="M15.8985 18.8884C15.6819 18.7403 15.2737 18.5984 15.0994 18.5698C14.9202 18.5412 14.4995 18.5561 14.3165 18.6283C14.2979 18.6358 14.2891 18.6569 14.2966 18.6756C14.3041 18.6943 14.3252 18.703 14.3439 18.6955C14.5119 18.6283 14.9202 18.6134 15.0882 18.6408C15.2562 18.6681 15.6496 18.8038 15.8587 18.9469C15.9682 19.0216 16.2383 19.4274 16.3329 19.5767C16.3403 19.5879 16.3515 19.5929 16.3627 19.5929C16.369 19.5929 16.3764 19.5917 16.3814 19.5879C16.3988 19.5767 16.4038 19.5556 16.3926 19.5382C16.3789 19.5157 16.0416 18.9855 15.8985 18.8872V18.8884Z" fill="white"/>
<path d="M16.4922 20.478C16.476 20.4917 16.4648 20.5016 16.4561 20.5103C16.4262 20.5402 16.425 20.5415 16.1399 20.5527C15.774 20.5664 15.0757 20.478 14.965 20.427C14.6837 20.2975 14.5293 20.2129 14.4173 20.1494C14.2443 20.0536 14.1659 20.01 13.8809 19.9502C13.8622 19.9453 13.8423 19.959 13.8386 19.9776C13.8348 19.9975 13.8473 20.0162 13.8659 20.0199C14.1398 20.0772 14.2107 20.117 14.3825 20.2116C14.4957 20.2751 14.6526 20.361 14.9351 20.4904C15.0546 20.5452 15.6844 20.6236 16.0603 20.6236C16.0889 20.6236 16.1163 20.6236 16.1424 20.6224C16.4449 20.6112 16.4561 20.6099 16.5071 20.5589C16.5146 20.5514 16.5245 20.5415 16.5382 20.5303C16.5531 20.5178 16.5556 20.4954 16.5432 20.4792C16.5307 20.4643 16.5083 20.4618 16.4922 20.4742V20.478Z" fill="white"/>
<path d="M5.83932 39.0334C5.85052 39.0371 7.02796 39.4591 7.73243 39.5412C7.81707 39.5512 7.92163 39.5549 8.03987 39.5549C8.68709 39.5549 9.7687 39.4242 10.5242 39.3321C10.7968 39.2985 11.032 39.2711 11.1876 39.2549C11.8734 39.1877 13.1106 38.8704 13.484 38.6239C13.6881 38.4895 13.8424 38.3227 13.9931 38.1609C14.1213 38.0227 14.242 37.8933 14.3764 37.8049C14.6589 37.6195 14.8768 37.5075 15.219 37.4427C15.4132 37.4066 15.87 37.4738 16.2359 37.5286C16.5135 37.5697 16.7325 37.602 16.8172 37.5908C16.974 37.5684 17.0487 37.4353 17.1607 37.2336C17.203 37.1577 17.2503 37.0718 17.3113 36.976C17.3225 36.9586 17.3163 36.9374 17.3001 36.9262C17.2839 36.9162 17.2615 36.92 17.2503 36.9374C17.1893 37.0345 17.1408 37.1216 17.0985 37.1975C16.9927 37.3867 16.9292 37.5012 16.8072 37.5187C16.7325 37.5299 16.496 37.4938 16.2471 37.4564C15.8563 37.3979 15.412 37.332 15.2066 37.3718C14.8531 37.439 14.6278 37.5547 14.3378 37.7452C14.1959 37.8385 14.0727 37.9717 13.942 38.1124C13.7951 38.2704 13.6433 38.4347 13.4466 38.5642C13.0795 38.8056 11.861 39.118 11.1826 39.184C11.027 39.1989 10.7906 39.2276 10.518 39.2612C9.6268 39.3695 8.27884 39.5325 7.74239 39.469C7.10762 39.3943 6.07829 39.0396 5.89409 38.9749C5.93267 38.7546 6.15671 37.3942 5.97125 36.3163C5.96752 36.2964 5.94885 36.284 5.93018 36.2864C5.91026 36.2902 5.89782 36.3089 5.90031 36.3275C6.09945 37.485 5.82065 38.9761 5.81816 38.9911C5.81443 39.0085 5.82438 39.0259 5.8418 39.0322L5.83932 39.0334Z" fill="white"/>
<path d="M19.2714 32.8237C19.2888 32.815 19.2963 32.7939 19.2888 32.7752C19.2801 32.7578 19.259 32.7503 19.2403 32.759C19.1805 32.7876 17.7815 33.4672 17.3758 33.9825C16.9725 34.4953 16.8779 34.6285 16.8779 34.9372C16.8779 35.2458 17.0547 35.6653 17.1144 35.7462C17.1654 35.8134 17.4044 36.0773 17.4567 36.1345C17.4567 36.2142 17.443 36.6336 17.2513 36.9386C17.2401 36.956 17.2463 36.9772 17.2625 36.9884C17.2687 36.9921 17.275 36.9933 17.2812 36.9933C17.2936 36.9933 17.3048 36.9871 17.3111 36.9772C17.5351 36.6224 17.5289 36.1407 17.5276 36.1208C17.5276 36.1121 17.5239 36.1034 17.5177 36.0972C17.5152 36.0934 17.2239 35.7761 17.1704 35.7039C17.1244 35.6429 16.9476 35.2309 16.9476 34.9372C16.9476 34.6434 17.0323 34.5351 17.4306 34.0273C17.8251 33.5245 19.2552 32.8312 19.2689 32.8237H19.2714Z" fill="white"/>
<path d="M18.5029 18.3619L18.5477 18.4603C18.5477 18.4603 19.1526 18.3819 19.4588 18.3806C19.765 18.3806 20.0388 18.3806 20.0388 18.3806L19.9866 18.1777C19.6729 18.1852 19.1576 18.2126 18.7046 18.3109C18.6398 18.3246 18.5714 18.342 18.5029 18.3619Z" fill="white"/>
<path d="M10.2752 21.7749C10.2429 21.8384 10.2205 21.8919 10.3126 21.8982C10.4047 21.9044 10.6511 21.7949 10.6511 21.7949L10.6872 21.3032L10.5702 21.4115C10.5702 21.4115 10.3599 21.6082 10.2765 21.7749H10.2752Z" fill="white"/>
<path d="M15.5589 10.9104C15.712 10.7673 15.8626 10.4549 15.8315 10.2769C15.7904 10.0354 15.5017 9.88481 15.5017 9.88481L15.3984 9.85618L15.1196 9.82507L14.8047 9.8064C14.8047 9.8064 14.3267 12.0331 14.3205 12.0692C14.3143 12.1065 14.4549 12.3144 14.567 12.4612C14.679 12.6081 14.7499 12.4488 14.9827 12.3667C15.2167 12.2845 15.5465 11.9957 15.5465 11.9957L15.4295 11.8153C15.4295 11.8153 15.3299 11.5539 15.3449 11.4381C15.3598 11.3211 15.4046 11.0523 15.5577 10.9092L15.5589 10.9104Z" fill="#343434"/>
<path d="M10.8449 12.7263C10.7167 12.8085 10.6246 12.9192 10.6246 12.9192C10.6246 12.9192 10.764 13.0387 11.1075 12.9566C11.4523 12.8744 11.5157 12.9105 11.6452 12.6902C11.7734 12.4699 12.1157 11.4754 12.1157 11.4754L11.8754 10.0229L11.6726 9.6819L10.8909 9.59229L10.4478 10.8519C10.4478 10.8519 10.3122 11.1369 10.3769 11.3896C10.4416 11.6422 10.4603 11.6796 10.7266 11.8812C10.993 12.0841 10.9469 11.992 10.993 12.0841C11.039 12.1762 10.9743 12.6454 10.8461 12.7276L10.8449 12.7263Z" fill="#343434"/>
<path d="M9.92022 10.7447C9.92022 10.7447 9.99366 11.1903 10.6098 11.0757C10.7828 11.0434 11.0778 10.7708 11.1387 10.5928C11.2371 10.3078 11.1076 9.66182 11.1076 9.66182L10.8263 8.36738C10.8263 8.36738 10.6284 8.32133 10.5463 8.3263C10.4641 8.33128 10.2376 8.36738 10.2376 8.36738C10.1729 8.36738 9.89782 8.54163 9.80572 9.01086C9.71361 9.4801 9.96876 9.74023 10.1057 10.1024C10.2239 10.4123 10.204 10.6364 10.1181 10.7185C10.0584 10.7758 9.92022 10.7447 9.92022 10.7447Z" fill="#343434"/>
<path d="M10.1906 8.05013C10.0835 8.05884 10.02 7.9991 10.02 7.9991C10.02 7.9991 10.0076 8.0912 10.0387 8.20197C10.0698 8.31275 10.1731 8.52558 10.2378 8.57039C10.3026 8.6152 10.6822 8.69112 10.7258 8.67743C10.7681 8.66374 11.4365 7.98665 11.434 7.97669C11.4315 7.96798 11.3182 7.11539 11.3182 7.11539L11.0606 6.81543C11.0606 6.81543 10.778 6.85775 10.7046 7.11539C10.6312 7.37303 10.7258 7.64935 10.6249 7.80244C10.5241 7.95553 10.2441 8.04515 10.1918 8.04888L10.1906 8.05013Z" fill="#343434"/>
<path d="M13.0079 6.53787C12.2063 6.53787 11.3313 7.33196 11.4147 8.84546C11.4881 10.1972 12.1789 10.573 12.9407 10.7436C13.5717 10.8842 14.6296 10.8207 14.9271 9.65448C15.1176 8.91018 14.7865 8.03021 14.5039 7.55724C14.3446 7.28964 14.0559 6.53538 13.0079 6.53662V6.53787Z" fill="white"/>
<path d="M15.6307 9.04711C15.5075 8.88779 15.3108 8.40735 15.3108 8.40735L14.5951 8.22314C14.5951 8.22314 14.3213 8.78573 14.4545 9.22011C14.574 9.60844 14.8727 9.74785 14.9959 9.79141C15.1191 9.83373 15.3979 10.0105 15.6668 9.82253C15.8921 9.66445 16.1348 9.10312 16.1348 9.10312C16.1348 9.10312 15.7552 9.20642 15.6319 9.04711H15.6307Z" fill="#343434"/>
<path d="M11.3519 7.89331C11.3519 7.89331 10.5018 8.20323 10.5939 9.04835C10.6287 9.37445 10.6798 9.55866 11.0743 9.77398C11.3917 9.94699 11.8821 9.85738 12.0228 9.75407C12.1634 9.64952 12.2804 9.36823 12.2804 9.36823C12.2804 9.36823 11.7726 9.47278 11.729 8.8965C11.7041 8.57165 11.9219 8.18456 11.9219 8.18456L11.3531 7.89331H11.3519Z" fill="#343434"/>
<path d="M10.3419 10.7721C10.3419 10.7721 10.3531 10.7759 10.3581 10.7759C10.3705 10.7759 10.383 10.7684 10.3904 10.7572C10.3942 10.751 10.4676 10.6091 10.4676 10.4323C10.4676 10.324 10.4216 10.1884 10.3519 9.98176C10.3058 9.84485 10.2486 9.67558 10.1863 9.4615C10.0382 8.95243 10.317 8.67114 10.3282 8.65869C10.3419 8.645 10.3431 8.6226 10.3282 8.60766C10.3145 8.59397 10.2921 8.59273 10.2772 8.60766C10.2635 8.62011 9.95606 8.93003 10.1166 9.48141C10.1801 9.69798 10.2373 9.8685 10.2834 10.0054C10.3506 10.2046 10.3954 10.3365 10.3954 10.4323C10.3954 10.5904 10.3282 10.7223 10.327 10.7236C10.3183 10.741 10.3245 10.7634 10.3419 10.7721Z" fill="white"/>
<path d="M10.4603 11.0187C10.4603 11.0187 10.474 11.0249 10.4802 11.0249C10.4914 11.0249 10.5026 11.0199 10.5101 11.0087C10.6794 10.7598 10.7752 10.3814 10.7603 10.0192C10.7528 9.8188 10.6719 9.67816 10.5947 9.54125C10.535 9.43545 10.479 9.33588 10.4553 9.21266C10.4031 8.9351 10.5561 8.66128 10.5574 8.65754C10.5674 8.64012 10.5611 8.61771 10.5437 8.609C10.5263 8.59904 10.5039 8.60527 10.4952 8.62269C10.4877 8.63514 10.3271 8.92265 10.3844 9.22635C10.4093 9.36202 10.4715 9.47155 10.5325 9.57734C10.6097 9.71176 10.6819 9.83996 10.6881 10.0217C10.7018 10.3689 10.6109 10.7311 10.4504 10.9676C10.4392 10.9838 10.4429 11.0062 10.4603 11.0174V11.0187Z" fill="white"/>
<path d="M15.3005 7.65065C15.1412 7.36687 14.9695 7.35815 14.9695 7.35815L14.3994 7.75022C14.3994 7.75022 14.4305 7.90331 14.4729 8.06761C14.5152 8.2319 14.718 8.53435 14.8064 8.64388C14.8948 8.75217 15.1325 8.89157 15.435 8.89655C15.8868 8.90401 16.0934 8.51195 16.0934 8.51195C16.0934 8.51195 15.6242 8.4659 15.5196 8.21697C15.4648 8.08877 15.4599 7.93443 15.2993 7.65189L15.3005 7.65065Z" fill="#343434"/>
<path d="M15.9098 8.57044C15.8164 8.65259 15.4418 8.70611 15.2825 8.67624C15.158 8.65135 14.9576 8.53684 14.8021 8.29413C14.6739 8.0925 14.6216 7.92073 14.6029 7.8361C14.5992 7.81618 14.5793 7.80374 14.5593 7.80871C14.5394 7.81245 14.5282 7.83236 14.532 7.85228C14.5519 7.94189 14.6054 8.12237 14.7411 8.33271C14.8817 8.55177 15.0833 8.71109 15.2688 8.74718C15.3012 8.75341 15.3435 8.75714 15.392 8.75714C15.5825 8.75714 15.8625 8.7086 15.9571 8.62645C15.972 8.61276 15.9733 8.59036 15.9608 8.57542C15.9471 8.56049 15.9247 8.55924 15.9098 8.57169V8.57044Z" fill="white"/>
<path d="M15.1321 8.16471C15.0238 7.95934 15.0051 7.71041 15.0039 7.70792C15.0027 7.68801 14.9852 7.67432 14.9653 7.67432C14.9454 7.67556 14.9305 7.69299 14.9317 7.7129C14.9317 7.7241 14.9516 7.97926 15.0674 8.19707C15.2093 8.46592 15.4171 8.56798 15.4781 8.59412C15.4831 8.59536 15.4868 8.59661 15.4918 8.59661C15.5055 8.59661 15.5192 8.58789 15.5254 8.5742C15.5329 8.55553 15.5254 8.53437 15.5055 8.5269C15.3922 8.47961 15.2354 8.36012 15.1309 8.16347L15.1321 8.16471Z" fill="white"/>
<path d="M13.9344 5.7699C13.6407 6.00887 13.4889 5.98149 13.4889 5.98149C13.4889 5.98149 13.3457 5.74749 13.1964 5.28697C13.047 4.8277 12.8578 4 12.8578 4C12.8578 4 12.5068 5.07538 12.4209 5.23221C12.3351 5.38903 11.9604 6.13334 11.9604 6.13334C11.9604 6.13334 11.4875 5.97278 11.3369 5.85329C11.1862 5.7338 10.8452 5.42513 10.8452 5.42513C10.8452 5.42513 10.8265 5.72882 10.8452 5.9678C10.8639 6.20677 11.0593 6.81665 11.0593 6.81665L11.2958 7.28838L12.167 6.58266L14.4983 6.68472C14.4983 6.68472 14.6003 6.269 14.6041 6.07484C14.6078 5.83587 14.5543 5.07663 14.5543 5.07663C14.5543 5.07663 14.2294 5.53217 13.9357 5.77114L13.9344 5.7699Z" fill="white"/>
<path d="M14.6822 6.61489C14.4917 6.64601 14.3635 6.58378 14.2963 6.55639C14.2291 6.52777 14.0262 6.30248 13.9316 6.22283C13.837 6.14317 13.7275 6.04609 13.5209 6.17429C13.4761 6.20291 13.4238 6.3448 13.4238 6.3448C13.4238 6.3448 13.7935 6.79288 13.9316 7.06546C14.0698 7.33804 14.5477 7.60813 14.7444 7.58323C14.9411 7.55834 15.1365 7.2895 15.2435 7.15756C15.3506 7.02563 15.3605 6.81404 15.3107 6.68584C15.2298 6.47425 15.0991 6.34605 15.0991 6.34605C15.0991 6.34605 14.8726 6.58502 14.6822 6.61614V6.61489Z" fill="#343434"/>
<path d="M14.8882 7.32199C14.7288 7.40413 14.5807 7.42903 14.5148 7.37053C14.4015 7.2722 14.2061 7.00958 14.0916 6.87391C13.9074 6.6561 13.748 6.68348 13.748 6.68348V6.98966L13.824 7.11164C13.824 7.11164 14.0032 7.51989 14.1065 7.62319C14.2098 7.7265 14.3368 7.84723 14.5322 7.88706C14.6044 7.902 14.9242 7.86839 15.0749 7.68791C15.2255 7.50744 15.2615 7.2249 15.2429 7.15396C15.2242 7.08301 15.1906 6.97597 15.1906 6.97597C15.1906 6.97597 15.0462 7.2361 14.8869 7.3195L14.8882 7.32199Z" fill="#343434"/>
<path d="M12.3557 6.17188C12.0595 6.20922 11.7943 6.47059 11.5865 6.58386C11.3786 6.69712 11.1396 6.61746 11.1396 6.61746C11.1396 6.61746 11.3002 6.88506 11.4707 6.95227C11.9611 7.14769 12.7527 6.66476 12.7341 6.55647C12.7154 6.44694 12.7826 6.34737 12.7826 6.34737C12.7826 6.34737 12.6519 6.13454 12.3557 6.17188Z" fill="#343434"/>
<path d="M12.243 7.0644C12.243 6.84783 12.706 6.63997 12.706 6.63997C12.706 6.63997 12.5591 6.48936 11.9492 6.6213C11.6132 6.69349 11.0219 7.14156 11.119 7.74024C11.1389 7.86222 11.3655 8.06136 11.4526 8.11364C11.7227 8.2742 12.0326 8.22441 12.0326 8.22441C12.0326 8.22441 11.7687 7.93192 11.8932 7.73526C12.0276 7.52243 12.243 7.27101 12.243 7.06564V7.0644Z" fill="#343434"/>
<path d="M12.5097 6.58383C12.3727 6.58881 12.0778 6.65976 12.0404 6.94478C12.0031 7.22981 12.0989 7.38414 12.2122 7.47625C12.3255 7.56835 12.6204 7.71024 12.6204 7.71024C12.6204 7.71024 12.4997 7.54346 12.4586 7.28831C12.4176 7.0344 12.7337 6.59752 12.7337 6.59752C12.7337 6.59752 12.5657 6.58134 12.5097 6.58259V6.58383Z" fill="#343434"/>
<path d="M13.1126 7.95681C13.1126 7.95681 13.7224 7.7726 13.8108 7.04324C13.8457 6.75697 13.8183 6.36739 13.4598 6.22923C13.3154 6.17322 12.8848 6.09108 12.6583 6.34374C12.5052 6.51426 12.606 6.70594 12.6944 6.76195C12.9072 6.89512 13.3316 6.66486 13.1972 7.63071C13.1723 7.8087 13.1126 7.95557 13.1126 7.95557V7.95681Z" fill="#343434"/>
<path d="M11.6377 6.93728C11.8904 6.75556 12.3086 6.71946 12.3123 6.71946C12.3322 6.71822 12.3471 6.70079 12.3447 6.68088C12.3434 6.66096 12.326 6.64727 12.3061 6.64852C12.2886 6.64976 11.8642 6.68586 11.5954 6.88002C11.3228 7.07668 11.207 7.48866 11.1996 7.58201C11.1934 7.67785 11.268 7.90188 11.4722 7.99025C11.6601 8.07116 11.9103 8.10601 11.9202 8.10725C11.9215 8.10725 11.924 8.10725 11.9252 8.10725C11.9426 8.10725 11.9588 8.09356 11.9613 8.07613C11.9638 8.05622 11.9501 8.03879 11.9302 8.03506C11.9277 8.03506 11.6788 8.00021 11.5008 7.92304C11.3265 7.84836 11.2668 7.6542 11.2718 7.58574C11.278 7.50235 11.3888 7.11526 11.6377 6.93603V6.93728Z" fill="white"/>
<path d="M12.09 7.00578C12.1099 7.00578 12.1261 6.98836 12.1248 6.96844C12.1248 6.94853 12.1086 6.93484 12.0875 6.93359C12.0738 6.93359 11.7365 6.9448 11.5871 7.16012C11.4415 7.36922 11.449 7.42648 11.4963 7.59326C11.5423 7.75755 11.7763 7.88451 11.7863 7.88949C11.7913 7.89198 11.7975 7.89322 11.8037 7.89322C11.8161 7.89322 11.8286 7.88575 11.8361 7.87455C11.846 7.85713 11.8386 7.83472 11.8211 7.82601C11.8186 7.82601 11.6046 7.70901 11.566 7.57335C11.5249 7.43021 11.5149 7.39163 11.6469 7.20119C11.7751 7.01574 12.0875 7.00578 12.09 7.00454V7.00578Z" fill="white"/>
<path d="M14.5588 7.19242C14.4879 7.17998 14.4269 7.13268 14.2726 6.8962C14.117 6.65722 13.7722 6.4867 13.7573 6.47924C13.7398 6.47052 13.7174 6.47799 13.7087 6.49542C13.7 6.51284 13.7075 6.53525 13.7249 6.54396C13.7286 6.5452 14.0672 6.71448 14.2116 6.93602C14.3659 7.17375 14.4406 7.24719 14.5464 7.26461C14.585 7.27084 14.6223 7.27457 14.6572 7.27457C14.7667 7.27457 14.8575 7.24221 14.9285 7.17873C15.1003 7.02439 15.0866 6.74186 15.0853 6.73066C15.0853 6.71074 15.0679 6.69705 15.0467 6.69705C15.0268 6.69705 15.0119 6.71572 15.0131 6.73564C15.0131 6.73812 15.0256 6.99577 14.88 7.12646C14.804 7.19491 14.6957 7.21732 14.5588 7.19491V7.19242Z" fill="white"/>
<path d="M14.8863 6.59517C14.849 6.66612 14.7245 6.85033 14.605 6.84286C14.4556 6.83539 14.3362 6.70595 14.2092 6.56904L14.1992 6.55908C14.0661 6.4147 13.9428 6.31264 13.8184 6.21182C13.7026 6.11847 13.567 6.21182 13.5109 6.2753C13.4973 6.29023 13.4997 6.31264 13.5147 6.32633C13.5296 6.34002 13.552 6.33753 13.5657 6.3226C13.567 6.32135 13.6827 6.19315 13.7736 6.26659C13.8955 6.36491 14.0163 6.46573 14.147 6.60638L14.1569 6.61633C14.2876 6.75698 14.422 6.90385 14.6013 6.91381C14.605 6.91381 14.6075 6.91381 14.6112 6.91381C14.7954 6.91381 14.9435 6.63998 14.9498 6.62754C14.9597 6.61011 14.9523 6.58771 14.9348 6.57899C14.9174 6.57028 14.895 6.5765 14.8863 6.59393V6.59517Z" fill="white"/>
<path d="M15.0879 9.90701C15.2472 9.6083 14.941 9.31456 14.941 9.31456C14.941 9.31456 14.6348 9.6195 14.2415 9.47138C14.1171 9.42409 14.0436 9.3519 13.7536 9.23739C13.6889 9.2125 13.2744 9.19756 13.1126 9.21996C12.9832 9.23863 12.8388 9.28718 12.6197 9.40293C12.4007 9.51993 12.0796 9.71285 11.8642 9.78628C11.6489 9.85972 11.4112 9.76512 11.4112 9.76512C11.4112 9.76512 11.3738 9.97422 11.4448 10.09C11.573 10.2978 11.8369 10.3476 11.8369 10.3476C11.8369 10.3476 11.629 10.4248 11.6054 10.8754C11.5954 11.0745 11.6987 11.2848 11.8555 11.4691C11.8978 11.5201 12.2078 11.7292 12.2078 11.7292C12.2078 11.7292 12.3546 12.0018 12.5326 12.1611C12.7106 12.3204 13.0666 12.3689 13.1973 12.5295C13.3267 12.6888 13.3541 12.7685 13.3541 12.7685C13.3541 12.7685 13.5657 12.5718 13.6267 12.4063C13.7648 12.5992 14.0548 12.6938 14.0735 12.7249C14.0922 12.756 14.0125 12.5656 14.1718 12.4312C14.3312 12.2967 14.5639 12.0453 14.6199 11.8673C14.6747 11.6894 14.7543 11.3458 14.7543 11.3458C14.7543 11.3458 14.9572 11.4317 15.0306 11.4193C14.9149 11.2674 14.9286 11.1803 14.9821 11.0272C15.0369 10.8741 15.0979 10.6961 15.1103 10.4995C15.1227 10.3028 14.9572 9.94809 14.9572 9.94809C14.9572 9.94809 15.063 9.95058 15.0867 9.90577L15.0879 9.90701Z" fill="#343434"/>
<path d="M12.5931 10.5056C12.6067 10.4907 12.6067 10.4683 12.5931 10.4546C12.5794 10.4409 12.5557 10.4409 12.542 10.4546C12.5408 10.4558 12.3852 10.6189 12.2234 10.8417C12.1263 10.9749 12.084 11.2076 12.1226 11.4055C12.1338 11.4665 12.1935 11.7553 12.1935 11.7553L12.2645 11.7403C12.2645 11.7403 12.2047 11.4516 12.1935 11.3918C12.1599 11.2138 12.1973 10.9998 12.2819 10.8828C12.4412 10.6637 12.5931 10.5044 12.5943 10.5031L12.5931 10.5056Z" fill="white"/>
<path d="M13.3607 12.664C13.3607 12.664 13.3669 12.6652 13.3707 12.6652C13.3869 12.6652 13.4005 12.6552 13.4055 12.6391C13.413 12.6129 13.4478 12.476 13.418 12.4088C13.3893 12.3441 13.2611 12.1312 13.1665 12.023C13.0769 11.9197 12.8952 11.6458 12.8006 11.4206C12.7098 11.204 12.7521 10.9849 12.7521 10.9824C12.7558 10.9625 12.7434 10.9438 12.7235 10.9401C12.7048 10.9364 12.6849 10.9488 12.6811 10.9687C12.6786 10.9787 12.6338 11.2114 12.7334 11.4492C12.8317 11.6844 13.0172 11.9607 13.1118 12.0703C13.2014 12.1736 13.3271 12.3839 13.3508 12.4374C13.3657 12.471 13.3508 12.5644 13.3358 12.6204C13.3308 12.6391 13.342 12.659 13.3607 12.664Z" fill="white"/>
<path d="M13.3275 11.8114C13.3748 11.9968 13.5627 12.3254 13.5714 12.3391C13.5777 12.3503 13.5901 12.3578 13.6026 12.3578C13.6088 12.3578 13.615 12.3565 13.62 12.3528C13.6374 12.3428 13.6436 12.3204 13.6337 12.303C13.6312 12.2993 13.442 11.9694 13.3972 11.7927C13.371 11.6906 13.3972 11.5475 13.4208 11.4205C13.437 11.3309 13.4532 11.2463 13.4495 11.1828C13.4395 11.0272 13.3449 10.8816 13.3412 10.8754C13.33 10.8592 13.3076 10.8542 13.2914 10.8654C13.2752 10.8766 13.2702 10.899 13.2814 10.9152C13.2814 10.9164 13.3698 11.0521 13.3785 11.1878C13.3823 11.2425 13.3673 11.3222 13.3511 11.4081C13.3262 11.5425 13.2976 11.6944 13.3275 11.8114Z" fill="white"/>
<path d="M14.0737 12.3501C14.0712 12.37 14.0861 12.3875 14.106 12.39C14.1073 12.39 14.1085 12.39 14.1098 12.39C14.1284 12.39 14.1434 12.3763 14.1458 12.3576C14.1458 12.3564 14.1645 12.1871 14.2093 12.0041C14.2604 11.7938 14.1919 11.561 14.1247 11.4017C14.0513 11.2275 13.7973 10.7595 13.7861 10.7395C13.7762 10.7221 13.755 10.7159 13.7376 10.7246C13.7202 10.7346 13.7139 10.7557 13.7227 10.7732C13.7251 10.7781 13.9853 11.2573 14.0575 11.4291C14.1197 11.5772 14.1844 11.795 14.1384 11.9854C14.0923 12.1746 14.0737 12.3414 14.0737 12.3489V12.3501Z" fill="white"/>
<path d="M14.2689 10.6426C14.2539 10.6302 14.2303 10.6327 14.2178 10.6489C14.2054 10.6638 14.2079 10.6874 14.2241 10.6999C14.305 10.7646 14.524 10.9563 14.5676 11.0658C14.6199 11.2002 14.6248 11.3745 14.6248 11.3757C14.6248 11.3957 14.641 11.4106 14.6609 11.4106C14.6808 11.4106 14.697 11.3932 14.6958 11.3732C14.6958 11.3658 14.6908 11.1866 14.6335 11.0397C14.575 10.8903 14.2813 10.6526 14.2689 10.6426Z" fill="white"/>
<path d="M14.4442 10.2108C14.4292 10.1983 14.4068 10.1996 14.3931 10.2157C14.3807 10.2307 14.3819 10.2543 14.3981 10.2668C14.4006 10.2693 14.6421 10.4721 14.7616 10.6887C14.8761 10.8978 14.881 10.9762 14.881 10.9762C14.881 10.9961 14.8972 11.0123 14.9171 11.0123C14.9371 11.0123 14.9532 10.9961 14.9532 10.9762C14.9532 10.9675 14.9495 10.8816 14.825 10.6539C14.6993 10.4248 14.4541 10.2195 14.4442 10.212V10.2108Z" fill="white"/>
<path d="M14.7385 10.1211C14.6488 10.0389 14.441 9.97544 14.4323 9.97295C14.4136 9.96798 14.3937 9.97793 14.3875 9.9966C14.3812 10.0153 14.3924 10.0352 14.4111 10.0414C14.4136 10.0414 14.6115 10.1024 14.6899 10.1733C14.7733 10.2493 14.8916 10.3762 14.8928 10.3775C14.9003 10.3849 14.909 10.3887 14.9189 10.3887C14.9277 10.3887 14.9364 10.3849 14.9438 10.3787C14.9588 10.365 14.9588 10.3426 14.9463 10.3277C14.9413 10.3227 14.8243 10.197 14.7397 10.1186L14.7385 10.1211Z" fill="white"/>
<path d="M12.0586 10.1497C11.9279 10.2293 11.8495 10.3276 11.8458 10.3314C11.8333 10.3476 11.8358 10.37 11.852 10.3824C11.8582 10.3874 11.8669 10.3899 11.8744 10.3899C11.8856 10.3899 11.8955 10.3849 11.903 10.3762C11.903 10.3762 11.9764 10.2841 12.0959 10.2119C12.2167 10.1385 12.3648 10.0936 12.366 10.0924C12.3847 10.0862 12.3959 10.0663 12.3897 10.0476C12.3835 10.0289 12.3635 10.0177 12.3449 10.0239C12.3386 10.0264 12.188 10.0712 12.0586 10.1497Z" fill="white"/>
<path d="M13.3839 9.59078C13.227 9.59078 13.0677 9.57087 12.9321 9.65426C12.7217 9.7837 12.5674 9.97787 12.5674 10.1272C12.5674 10.2343 12.6632 10.2965 12.8051 10.3264C12.9731 10.3612 13.0789 10.1534 13.3851 10.1384C13.5743 10.1285 13.8095 10.2293 13.9315 10.1745C14.0834 10.1073 14.1742 10.0165 14.1742 9.88203C14.1742 9.73641 14.0361 9.63435 13.8382 9.5746C13.705 9.53477 13.5457 9.59078 13.3839 9.59078Z" fill="white"/>
<path d="M12.8359 9.93069C12.8359 10.0303 13.177 10.0352 13.4458 10.0041C13.7284 9.97052 13.93 9.93069 13.93 9.83111C13.93 9.73154 13.6711 9.66309 13.3973 9.66309C13.1235 9.66309 12.8359 9.83236 12.8359 9.93193V9.93069Z" fill="white"/>
<path d="M13.4693 9.78883C13.1668 9.81124 12.8457 9.85729 12.842 9.85853C12.822 9.86102 12.8083 9.87969 12.8108 9.89961C12.8133 9.91703 12.8283 9.93073 12.8469 9.93073C12.8482 9.93073 12.8507 9.93073 12.8519 9.93073C12.8556 9.93073 13.1743 9.88467 13.4742 9.86227C13.773 9.83986 13.89 9.8436 13.8912 9.84484C13.9124 9.8436 13.9273 9.82991 13.9285 9.80999C13.9285 9.79008 13.9136 9.7739 13.8937 9.77265C13.8887 9.77265 13.7717 9.76768 13.468 9.79132L13.4693 9.78883Z" fill="#343434"/>
<path d="M13.9248 8.66249C13.9248 8.67991 13.941 8.69485 13.9609 8.69485C13.9808 8.69485 13.997 8.67991 13.997 8.66249C13.997 8.64506 13.9808 8.63013 13.9609 8.63013C13.941 8.63013 13.9248 8.64506 13.9248 8.66249Z" fill="white"/>
<path d="M12.0532 8.0961C12.0669 8.0961 12.3246 7.92558 12.3246 7.92558C12.3246 7.92558 12.4739 8.11228 12.6333 8.23799C12.6768 8.27284 13.0465 8.48194 13.0465 8.48194L13.217 8.23799C13.217 8.23799 12.9021 8.16704 12.6855 8.04755C12.6482 8.02639 12.3059 7.77124 12.3059 7.77124C12.3059 7.77124 12.0396 8.09485 12.0532 8.09485V8.0961Z" fill="#343434"/>
<path d="M13.7923 7.99525C13.5895 8.16328 13.3555 8.22801 13.3555 8.22801L13.4725 8.43213C13.4725 8.43213 13.7712 8.22552 13.8496 8.15582C13.9467 8.07118 14.0463 7.84839 14.0463 7.84839L14.3213 7.91186L14.0226 7.70898C14.0226 7.70898 13.8533 7.94298 13.7923 7.99401V7.99525Z" fill="#343434"/>
<path d="M13.4321 9.15652C13.3885 9.19012 13.3649 9.2088 13.3686 9.25111C13.3711 9.27601 13.386 9.29717 13.4084 9.30837C13.4184 9.31335 13.4296 9.31584 13.4408 9.31584C13.4632 9.31584 13.4843 9.30588 13.498 9.28721C13.503 9.28223 13.5117 9.27725 13.5204 9.26978C13.6412 9.17519 13.7582 9.07437 13.7358 8.97107C13.7283 8.93497 13.6997 8.88767 13.6125 8.86652C13.5105 8.84287 13.4993 8.81424 13.4794 8.76321L13.4719 8.74329C13.4657 8.72462 13.452 8.63501 13.4433 8.56282C13.4383 8.52299 13.4034 8.49436 13.3636 8.49934C13.3238 8.50432 13.2964 8.54042 13.3001 8.579C13.3076 8.64372 13.3238 8.75947 13.3387 8.79681L13.3462 8.81424C13.3786 8.89639 13.4184 8.96858 13.5814 9.00592C13.5852 9.00592 13.5877 9.00716 13.5901 9.00841C13.5765 9.03205 13.5354 9.07562 13.4333 9.15527L13.4321 9.15652Z" fill="#343434"/>
<path d="M12.458 8.67857C12.458 8.73832 12.5638 8.78561 12.6945 8.78561C12.8252 8.78561 12.931 8.73707 12.931 8.67857C12.931 8.62007 12.8252 8.57153 12.6945 8.57153C12.5638 8.57153 12.458 8.62007 12.458 8.67857Z" fill="#343434"/>
<path d="M12.363 8.706C12.2921 8.72592 12.1714 8.80433 12.1664 8.80682C12.1502 8.81802 12.1452 8.84043 12.1564 8.85661C12.1639 8.86656 12.1751 8.87279 12.1863 8.87279C12.1925 8.87279 12.2 8.8703 12.2062 8.86656C12.2386 8.8454 12.3319 8.78815 12.3817 8.77446L12.5149 8.73836C12.5336 8.73339 12.5448 8.71347 12.5398 8.69356C12.5348 8.67489 12.5149 8.66368 12.495 8.66866L12.3618 8.70476L12.363 8.706Z" fill="#343434"/>
<path d="M12.749 8.70594C12.749 8.72337 12.7652 8.73831 12.7851 8.73831C12.805 8.73831 12.8212 8.72337 12.8212 8.70594C12.8212 8.68852 12.805 8.67358 12.7851 8.67358C12.7652 8.67358 12.749 8.68852 12.749 8.70594Z" fill="white"/>
<path d="M13.6006 8.63243C13.6006 8.69217 13.7064 8.73947 13.8371 8.73947C13.9678 8.73947 14.0736 8.69093 14.0736 8.63243C14.0736 8.57393 13.9678 8.52539 13.8371 8.52539C13.7064 8.52539 13.6006 8.57393 13.6006 8.63243Z" fill="#343434"/>
<path d="M14.0097 8.58521C13.9898 8.58521 13.9736 8.60139 13.9736 8.6213C13.9736 8.64121 13.9898 8.65739 14.0097 8.65739C14.0097 8.65739 14.072 8.65739 14.1417 8.6686C14.1778 8.67482 14.2275 8.69473 14.2275 8.69598C14.2325 8.69847 14.2363 8.69847 14.2412 8.69847C14.2549 8.69847 14.2686 8.68976 14.2748 8.67606C14.2823 8.65739 14.2748 8.63624 14.2562 8.62877C14.2537 8.62877 14.1989 8.60387 14.1541 8.59765C14.0782 8.5852 14.0135 8.58521 14.0097 8.58521Z" fill="#343434"/>
<path d="M13.9238 8.66224C13.9238 8.67967 13.94 8.6946 13.9599 8.6946C13.9798 8.6946 13.996 8.67967 13.996 8.66224C13.996 8.64482 13.9798 8.62988 13.9599 8.62988C13.94 8.62988 13.9238 8.64482 13.9238 8.66224Z" fill="white"/>
<path d="M18.3582 22.1159C18.4689 22.1943 18.6979 22.3362 18.8548 22.3598C19.0116 22.3835 19.5617 22.2677 19.7011 22.1296C20.0023 21.8309 20.3297 21.5247 20.3558 21.4027C20.4268 21.0791 20.3807 20.6559 20.3857 20.5837C20.3907 20.5115 20.2799 19.3528 20.2525 19.2246C20.2251 19.0964 19.9725 18.1255 19.9725 18.1255C19.9725 18.1255 19.4534 18.1118 19.1124 18.1853C18.7726 18.2587 18.5038 18.3633 18.5038 18.3633L19.0116 19.4897C19.0116 19.4897 18.7776 19.4598 18.5038 19.593C18.2299 19.7261 18.0644 20.29 18.0644 20.29C18.0644 20.29 17.981 20.6646 18.0644 20.8887C18.0756 20.9198 18.1926 20.9944 18.1926 20.9944C18.1926 20.9944 18.0545 21.0529 18.0594 21.1948C18.0644 21.338 18.2349 21.5234 18.2349 21.5234C18.2349 21.5234 18.1789 21.5919 18.1789 21.7064C18.1789 21.8209 18.2474 22.0375 18.3582 22.1159Z" fill="white"/>
<path d="M18.5318 20.0771C18.6139 20.0298 18.8616 20.1879 18.9301 20.2663C18.9961 20.3422 19.2935 20.5289 19.3271 20.5501C19.3433 20.5613 19.3657 20.5563 19.3769 20.5389C19.3869 20.5214 19.3819 20.5003 19.3657 20.4891C19.2774 20.4331 19.0346 20.275 18.9849 20.219C18.9288 20.1555 18.6351 19.934 18.4957 20.0149C18.3712 20.0871 18.38 20.2762 18.4248 20.4156C18.4646 20.5401 18.5754 20.733 18.7247 20.8637C18.8952 21.0131 19.0421 21.079 19.2014 21.079C19.3607 21.079 19.4902 21.0405 19.4964 21.038C19.5151 21.0317 19.5263 21.0118 19.5201 20.9932C19.5138 20.9745 19.4939 20.9633 19.474 20.9695C19.474 20.9695 19.357 21.0068 19.2014 21.0068C19.0608 21.0068 18.9288 20.9459 18.772 20.8089C18.6326 20.687 18.5293 20.5077 18.4932 20.3932C18.4633 20.3011 18.4385 20.1306 18.5318 20.0771Z" fill="#343434"/>
<path d="M18.4478 20.5139C18.4665 20.5164 18.4852 20.5015 18.4877 20.4828C18.4901 20.4629 18.4764 20.4454 18.4565 20.443C18.4516 20.443 18.3383 20.4305 18.2574 20.5214C18.1802 20.6097 18.1889 20.7877 18.2375 20.9097C18.281 21.023 18.3097 21.0603 18.5026 21.201C18.693 21.3404 18.9419 21.4362 18.9519 21.4399C18.9556 21.4412 18.9606 21.4424 18.9644 21.4424C18.9793 21.4424 18.993 21.4337 18.998 21.4188C19.0054 21.4001 18.9955 21.3789 18.9768 21.3727C18.9743 21.3727 18.7266 21.2769 18.5437 21.1425C18.3557 21.0055 18.3408 20.9769 18.3034 20.8823C18.2636 20.7803 18.2549 20.6309 18.3109 20.5674C18.3657 20.5052 18.4441 20.5127 18.4478 20.5127V20.5139Z" fill="#343434"/>
<path d="M18.2982 21.0068C18.3181 21.0068 18.3343 20.9906 18.3343 20.9707C18.3343 20.9507 18.3181 20.9346 18.2982 20.9346C18.2907 20.9346 18.1115 20.9358 18.043 21.0615C17.9895 21.1599 18.0206 21.2993 18.1339 21.4772C18.1949 21.5718 18.4513 21.7249 18.6156 21.8033C18.7164 21.8519 18.7612 21.8706 18.7861 21.8706C18.7998 21.8706 18.8073 21.8643 18.8147 21.8556C18.8247 21.8419 18.8247 21.822 18.8147 21.8083C18.806 21.7971 18.7911 21.7921 18.7786 21.7959C18.7649 21.7909 18.7301 21.7784 18.6479 21.7386C18.4662 21.6515 18.2422 21.5108 18.1961 21.4387C18.099 21.2868 18.0679 21.1686 18.1078 21.0964C18.1563 21.008 18.2982 21.0068 18.2994 21.0068H18.2982Z" fill="#343434"/>
<path d="M19.3694 19.5257C19.2536 19.4747 19.0022 19.3925 18.9922 19.3888C18.9723 19.3826 18.9524 19.3925 18.9462 19.4125C18.94 19.4311 18.9499 19.4523 18.9686 19.4585C18.9711 19.4585 19.2275 19.5431 19.3395 19.5929C19.4453 19.639 19.5138 19.7199 19.515 19.7211C19.5225 19.7298 19.5324 19.7336 19.5424 19.7336C19.5511 19.7336 19.5586 19.7311 19.566 19.7249C19.581 19.7124 19.5835 19.6888 19.5698 19.6738C19.566 19.6701 19.4889 19.5792 19.3681 19.5257H19.3694Z" fill="#343434"/>
<path d="M19.1563 23.1702C18.997 23.2076 18.987 23.4901 19.0455 23.7378C19.0754 23.8635 19.1214 23.9793 19.1762 24.0627C19.2471 24.171 19.3143 24.1996 19.3654 24.1996C19.3766 24.1996 19.3878 24.1983 19.3965 24.1958C19.4488 24.1834 19.516 24.1361 19.5346 23.978C19.5458 23.8785 19.5359 23.7552 19.5073 23.6283C19.4774 23.5013 19.4313 23.3868 19.3766 23.3034C19.2894 23.1702 19.2073 23.1578 19.155 23.1702H19.1563ZM19.3666 24.0564C19.338 24.0527 19.2409 23.9419 19.1849 23.7055C19.1289 23.469 19.1662 23.3271 19.1849 23.3109C19.2135 23.3146 19.3106 23.4254 19.3666 23.6619C19.4226 23.8984 19.3853 24.0403 19.3666 24.0564Z" fill="#343434"/>
<path d="M19.3867 23.9893C19.2274 24.0267 19.2175 24.3092 19.276 24.5569C19.3307 24.7871 19.4515 25.0199 19.5958 25.0199C19.6058 25.0199 19.617 25.0199 19.6282 25.0162C19.6805 25.0037 19.7477 24.9564 19.7664 24.7983C19.7776 24.6988 19.7676 24.5755 19.739 24.4486C19.6805 24.2022 19.5473 23.952 19.3867 23.9893ZM19.5971 24.8755C19.5685 24.8718 19.4714 24.761 19.4154 24.5245C19.3594 24.288 19.3967 24.1461 19.4154 24.13C19.444 24.1337 19.5411 24.2445 19.5971 24.481C19.6531 24.7174 19.6158 24.8593 19.5971 24.8755Z" fill="#343434"/>
<path d="M22.3896 26.6229C22.3896 26.8769 22.4643 27.1507 22.6274 27.1507C22.7904 27.1507 22.8651 26.8769 22.8651 26.6229C22.8651 26.369 22.7904 26.0952 22.6274 26.0952C22.4643 26.0952 22.3896 26.369 22.3896 26.6229ZM22.7207 26.6229C22.7207 26.8657 22.6523 26.9963 22.6299 27.0063C22.6025 26.9963 22.534 26.8657 22.534 26.6229C22.534 26.3802 22.6025 26.2496 22.6249 26.2396C22.6523 26.2508 22.7207 26.3802 22.7207 26.6229Z" fill="#343434"/>
<path d="M22.3604 25.713C22.3604 25.9669 22.435 26.2408 22.5981 26.2408C22.7611 26.2408 22.8358 25.9669 22.8358 25.713C22.8358 25.4591 22.7611 25.1853 22.5981 25.1853C22.435 25.1853 22.3604 25.4591 22.3604 25.713ZM22.6914 25.713C22.6914 25.9557 22.623 26.0864 22.6006 26.0964C22.5732 26.0852 22.5047 25.9557 22.5047 25.713C22.5047 25.4703 22.5732 25.3396 22.5956 25.3297C22.623 25.3396 22.6914 25.4703 22.6914 25.713Z" fill="#343434"/>
<path d="M22.519 24.2406C22.4655 24.2455 22.392 24.2829 22.3497 24.436C22.3236 24.5318 22.3161 24.6563 22.3273 24.7857C22.3485 25.0322 22.4418 25.2911 22.5974 25.2911C22.6011 25.2911 22.6049 25.2911 22.6098 25.2911C22.7729 25.2774 22.8227 24.9986 22.8015 24.7459C22.7903 24.6165 22.7617 24.4957 22.7194 24.4049C22.6522 24.2605 22.575 24.2356 22.5202 24.2406H22.519ZM22.5999 25.1467C22.5713 25.138 22.4916 25.0147 22.4717 24.772C22.4505 24.5293 22.5078 24.3949 22.5289 24.3825C22.5576 24.3912 22.6372 24.5144 22.6571 24.7559C22.6771 24.9973 22.6198 25.133 22.5999 25.1454V25.1467Z" fill="#343434"/>
<path d="M22.3115 23.3631C22.1522 23.4005 22.1423 23.683 22.2008 23.9307C22.2555 24.161 22.3763 24.3937 22.5206 24.3937C22.5306 24.3937 22.5418 24.3937 22.553 24.39C22.6053 24.3775 22.6725 24.3302 22.6912 24.1722C22.7024 24.0726 22.6937 23.9494 22.6638 23.8224C22.6053 23.5747 22.4721 23.327 22.3115 23.3631ZM22.5231 24.2493C22.4945 24.2456 22.3974 24.1348 22.3414 23.8983C22.2854 23.6619 22.3227 23.52 22.3414 23.5038C22.37 23.5075 22.4671 23.6183 22.5231 23.8548C22.5791 24.0913 22.5418 24.2332 22.5231 24.2493Z" fill="#343434"/>
<path d="M22.0742 22.4708C21.9149 22.5081 21.905 22.7907 21.9635 23.0384C22.0182 23.2686 22.139 23.5014 22.2833 23.5014C22.2933 23.5014 22.3045 23.5014 22.3157 23.4976C22.475 23.4603 22.485 23.1778 22.4265 22.9301C22.368 22.6824 22.2323 22.4347 22.0742 22.4708ZM22.2846 23.357C22.256 23.3533 22.1589 23.2425 22.1029 23.006C22.0469 22.7695 22.0842 22.6276 22.1029 22.6115C22.1315 22.6152 22.2286 22.726 22.2846 22.9624C22.3406 23.1989 22.3033 23.3408 22.2846 23.357Z" fill="#343434"/>
<path d="M21.6224 21.6579C21.478 21.7338 21.539 22.0102 21.656 22.2354C21.7568 22.4284 21.9124 22.6088 22.0456 22.6088C22.068 22.6088 22.0891 22.6039 22.1103 22.5926C22.2547 22.5167 22.1937 22.2404 22.0767 22.0151C22.017 21.9006 21.9435 21.7998 21.8701 21.7326C21.7531 21.6256 21.6709 21.633 21.6224 21.6579ZM22.0456 22.4632C22.012 22.4669 21.895 22.3835 21.783 22.1682C21.6697 21.9529 21.6709 21.806 21.6859 21.7861C21.6859 21.7861 21.6859 21.7861 21.6871 21.7861C21.7195 21.7861 21.8377 21.8695 21.9485 22.0811C22.0605 22.2964 22.0605 22.4433 22.0456 22.4632Z" fill="#343434"/>
<path d="M21.1255 20.9784C21.082 21.0095 21.0372 21.0792 21.0795 21.2323C21.1056 21.3281 21.1629 21.4389 21.2376 21.5447C21.3571 21.7127 21.5238 21.8621 21.6533 21.8621C21.6832 21.8621 21.7118 21.8546 21.7367 21.8359C21.7591 21.8198 21.7865 21.7899 21.7964 21.7339C21.8151 21.6219 21.7491 21.4439 21.6247 21.2684C21.4778 21.0618 21.2587 20.8825 21.1255 20.9771V20.9784ZM21.657 21.7177C21.6259 21.7252 21.4977 21.6592 21.3558 21.4613C21.2152 21.2634 21.1952 21.1178 21.2077 21.0966C21.2089 21.0966 21.2102 21.0966 21.2127 21.0966C21.2488 21.0966 21.3745 21.1651 21.5089 21.353C21.6508 21.5509 21.6695 21.6965 21.657 21.7177Z" fill="#343434"/>
<path d="M20.563 20.2677C20.5195 20.2988 20.4747 20.3685 20.517 20.5216C20.5431 20.6174 20.6004 20.7282 20.6751 20.834C20.7498 20.9398 20.8369 21.0294 20.919 21.0854C20.99 21.1339 21.0472 21.1514 21.0908 21.1514C21.1269 21.1514 21.1543 21.1402 21.1742 21.1252C21.219 21.0941 21.2625 21.0244 21.2202 20.8713C21.1941 20.7755 21.1368 20.6647 21.0622 20.5589C20.9153 20.3523 20.6962 20.1731 20.563 20.2677ZM21.0945 21.007C21.0671 21.0132 20.9352 20.9497 20.7933 20.7506C20.6527 20.5527 20.6327 20.4071 20.6452 20.3859C20.6464 20.3859 20.6477 20.3859 20.6502 20.3859C20.6863 20.3859 20.812 20.4544 20.9464 20.6423C21.0871 20.8402 21.107 20.9858 21.0945 21.007Z" fill="#343434"/>
<path d="M18.8887 22.2515C18.8365 22.264 18.7693 22.3113 18.7506 22.4694C18.7394 22.5689 18.7493 22.6921 18.778 22.8191C18.8327 23.0494 18.9535 23.2821 19.0978 23.2821C19.1078 23.2821 19.119 23.2821 19.1302 23.2784C19.2895 23.241 19.2995 22.9585 19.241 22.7108C19.1825 22.4631 19.0468 22.2142 18.8887 22.2515ZM19.1003 23.1377C19.0717 23.134 18.9746 23.0232 18.9186 22.7867C18.8626 22.5503 18.8999 22.4084 18.9186 22.3922C18.9472 22.3959 19.0443 22.5067 19.1003 22.7432C19.1563 22.9797 19.119 23.1216 19.1003 23.1377Z" fill="#343434"/>
<path d="M22.7506 37.4326C22.7506 37.4326 23.1787 39.6331 23.3381 40.5405C23.4974 41.4478 23.9019 42.5394 24.0002 42.6377C24.0985 42.736 24.3437 42.8344 24.7234 42.8344C25.103 42.8344 25.8149 42.8829 25.9369 42.6141C26.0601 42.344 26.2431 41.927 25.6917 41.6457C25.1403 41.3632 24.8453 41.5449 24.625 41.1479C24.4047 40.7508 24.0973 38.1146 24.1222 37.6728C24.1471 37.2309 24.0774 36.7654 24.0774 36.7654C24.0774 36.7654 24.5815 35.944 24.7719 35.2942C24.9623 34.6445 24.9399 33.9911 25.1241 33.7708C25.3083 33.5505 26.039 32.9443 26.039 32.9443L24.8578 31.1807L24.4197 31.4321C24.4197 31.4321 23.4364 31.7022 22.8228 31.6399C22.2092 31.5777 21.4972 31.5752 21.4972 31.5752L20.6011 32.4801L19.6676 34.0434L18.2785 34.3558C18.2785 34.3558 18.1541 36.1394 18.5822 36.6547C19.0104 37.1699 19.6726 37.7213 19.8742 38.3835C20.0771 39.0456 20.7293 40.8691 20.8425 41.3931C20.9558 41.9183 20.8488 42.8244 21.2906 42.9576C21.7325 43.0908 22.5776 43.1953 22.7991 42.8854C23.0194 42.5755 22.8477 42.0365 22.5166 41.876C22.1855 41.7167 22.0399 41.5225 21.893 41.118C21.7461 40.7135 21.2931 38.5776 21.4014 38.1358C21.664 37.0629 22.7506 37.4313 22.7506 37.4313V37.4326Z" fill="white"/>
<path d="M23.8091 35.8518C23.7992 35.8693 23.8067 35.8917 23.8241 35.9004C23.8291 35.9029 23.8353 35.9054 23.8415 35.9054C23.854 35.9054 23.8664 35.8991 23.8726 35.8867C23.8788 35.8755 24.49 34.7429 24.6493 33.8654C24.8086 32.9817 24.3568 31.9424 24.3531 31.9324C24.3456 31.9138 24.3232 31.9063 24.3058 31.9138C24.2871 31.9212 24.2796 31.9436 24.2871 31.961C24.2921 31.971 24.7339 32.9904 24.5783 33.8517C24.4215 34.718 23.8154 35.8406 23.8091 35.8518Z" fill="#343434"/>
<path d="M21.4383 31.4308C21.493 31.605 22.836 31.7992 23.3787 31.8166C23.9214 31.8353 24.3719 31.5229 24.3719 31.5229L24.3993 31.2043L24.4603 30.211C24.4603 30.211 24.9942 30.2907 25.3614 30.3094C25.7298 30.328 25.9004 30.211 25.9004 30.211C25.9004 30.211 25.5382 29.6957 25.3365 29.463C25.1336 29.2302 24.7416 29.0037 24.7416 29.0037C24.7416 29.0037 24.7229 28.476 24.6246 28.2196C24.5263 27.9619 24.4441 27.662 23.5144 27.3247C23.3189 27.2537 22.8771 27.1965 22.5759 27.1405C22.2759 27.0857 22.2759 27.0982 22.0668 26.8642C21.859 26.6314 21.2877 26.0701 21.2877 26.0701C21.2877 26.0701 21.0574 26.1759 20.9192 26.2443C20.7811 26.3128 20.7313 26.4646 20.7313 26.6078C20.7313 26.7509 20.7537 26.8281 20.7537 26.8281L20.735 27.1778C20.735 27.1778 21.0201 27.0446 21.0338 27.0347C21.0475 27.0247 21.5851 27.591 21.6685 27.7889C21.7507 27.9868 21.6138 28.2258 21.4657 28.2768C21.3175 28.3279 21.1259 28.2544 20.9927 28.1337C20.8595 28.0142 20.6616 27.6047 20.6616 27.6047L20.7761 27.3147C20.7761 27.3147 20.5695 27.4392 20.4674 27.494C20.3666 27.5487 20.2471 27.9819 20.3206 28.3129C20.394 28.644 20.5782 28.7722 20.7798 29.0672C20.9827 29.3609 21.4694 30.0418 21.4694 30.0418C21.4694 30.0418 21.3773 31.2553 21.432 31.4308H21.4383Z" fill="white"/>
<path d="M21.0494 26.1497C21.0494 26.1497 21.0307 26.3563 21.2124 26.446C21.3941 26.5356 21.6008 26.4671 21.6555 26.4323C21.7103 26.3987 21.373 26.0887 21.2859 26.0452C21.1987 26.0016 21.0494 26.1485 21.0494 26.1485V26.1497Z" fill="#343434"/>
<path d="M22.7217 27.7938C22.6545 27.8685 22.7304 28.0465 22.8923 28.1909C23.0541 28.3352 23.2395 28.3912 23.3067 28.3166C23.3739 28.2419 23.298 28.0639 23.1362 27.9195C22.9744 27.7751 22.7889 27.7191 22.7217 27.7938Z" fill="#343434"/>
<path d="M22.4185 30.4624C21.8671 30.3579 21.4004 30.1313 21.4004 30.1313V31.554C21.4004 31.554 22.6699 31.8365 23.2027 31.8179C23.7366 31.8004 24.41 31.5478 24.41 31.5478L24.5083 30.2483C24.5083 30.2483 24.2083 30.3591 24.0789 30.389C23.9507 30.4201 22.9687 30.567 22.4173 30.4624H22.4185Z" fill="#343434"/>
<path d="M23.8357 30.5832C23.8232 30.5844 23.8133 30.5919 23.8071 30.6031C23.6477 30.9304 23.4623 31.2901 23.4025 31.3822C23.2955 31.274 22.8586 30.7101 22.8238 30.6429C22.8176 30.6317 22.7989 30.6193 22.7852 30.618C22.7665 30.6155 22.7018 30.6155 22.3359 31.2453L22.0509 30.5583C22.0459 30.5471 22.0359 30.5384 22.0235 30.5359C22.0098 30.5346 21.9986 30.5384 21.9899 30.5483L21.4733 31.1545C21.4609 31.1694 21.4621 31.1918 21.4771 31.2055C21.492 31.2179 21.5144 31.2167 21.5281 31.2018L22.006 30.6404L22.296 31.3399C22.301 31.3524 22.3135 31.3611 22.3272 31.3623C22.3409 31.3636 22.3533 31.3561 22.3608 31.3449C22.5201 31.0673 22.7093 30.7674 22.7752 30.7002C22.8723 30.8358 23.3353 31.4669 23.4063 31.4669C23.4299 31.4656 23.4623 31.4619 23.8432 30.6852L24.3223 31.2789C24.3348 31.2939 24.3572 31.2964 24.3734 31.2839C24.3883 31.2715 24.3908 31.2491 24.3784 31.2329L23.8631 30.5956C23.8556 30.5857 23.8432 30.5807 23.8307 30.5819L23.8357 30.5832Z" fill="white"/>
<path d="M27.5669 32.0744C27.7834 32.0694 28.0311 32.3644 28.0311 32.3644L28.0996 32.7602C28.0996 32.7602 28.5726 32.5996 28.8675 32.3968C29.1613 32.1939 28.941 31.818 28.941 31.818C28.941 31.818 27.9851 31.1546 27.893 31.0911C27.8009 31.0264 27.8283 30.9443 27.4885 30.3742C27.1487 29.8042 26.5624 29.8378 26.5624 29.8378C26.5624 29.8378 26.4952 28.9578 26.2861 28.6902C26.194 29.0374 25.7136 29.7992 25.7136 29.7992C25.7136 29.7992 25.5294 29.9436 25.268 30.1315C25.0054 30.3194 24.8996 30.7202 24.8585 31.1795C24.8174 31.6388 25.9563 33.0154 25.9563 33.0154C25.9563 33.0154 26.306 32.6967 26.6931 32.7963C26.8375 32.8336 27.2308 33.1685 27.42 33.2693C27.6079 33.3701 27.6864 33.4261 27.9677 33.2419C28.2477 33.0577 28 32.8187 28 32.8187L27.71 32.8784C27.71 32.8784 27.4474 32.5698 27.3142 32.4142C27.181 32.2574 27.3516 32.0781 27.5669 32.0744Z" fill="white"/>
<path d="M28.8801 31.5991C28.8117 31.5879 28.686 31.5742 28.6573 31.6563C28.6225 31.7596 28.6984 31.904 28.742 31.9936C28.7556 32.0222 28.7693 32.0496 28.7905 32.0733C28.8291 32.1168 28.8851 32.138 28.9386 32.1579C28.9548 32.1641 28.971 32.1704 28.9884 32.1704C29.0183 32.1704 29.0457 32.1517 29.0631 32.1268C29.0805 32.1019 29.088 32.0733 29.0942 32.0434C29.1091 31.9662 29.1091 31.8853 29.0942 31.8082C29.0855 31.7646 29.0718 31.721 29.0444 31.6862C29.0058 31.6364 28.9436 31.6078 28.8814 31.5978L28.8801 31.5991Z" fill="#343434"/>
<path d="M27.0664 31.0563C27.0664 31.1235 27.1759 31.1795 27.3104 31.1795C27.4448 31.1795 27.5543 31.1248 27.5543 31.0563C27.5543 30.9878 27.4448 30.9343 27.3104 30.9343C27.1759 30.9343 27.0664 30.9891 27.0664 31.0563Z" fill="#343434"/>
<path d="M25.2496 33.7372L26.0399 33.0439L24.8587 31.1807L24.2451 31.5055C24.2451 31.5055 25.2533 33.7335 25.2496 33.7372Z" fill="#343434"/>
<path d="M25.1148 33.0677C25.1211 33.0764 25.1323 33.0827 25.1435 33.0827C25.1447 33.0827 25.1459 33.0827 25.1472 33.0827L25.7396 33.0179C25.7596 33.0155 25.7732 32.998 25.772 32.9781C25.7695 32.9582 25.7533 32.9433 25.7322 32.9458L25.1995 33.003L25.4472 32.3969C25.4509 32.3869 25.4509 32.3757 25.4459 32.3657C25.4409 32.3558 25.4322 32.3496 25.421 32.3471L24.8634 32.2313L25.0812 31.7384C25.085 31.7285 25.085 31.7185 25.0812 31.7086C25.0762 31.6986 25.0688 31.6924 25.0588 31.6887L24.5871 31.553C24.5672 31.5468 24.5485 31.558 24.5423 31.5779C24.5373 31.5966 24.5473 31.6165 24.5672 31.6227L24.9991 31.7472L24.78 32.2438C24.775 32.2537 24.7763 32.2649 24.78 32.2749C24.785 32.2848 24.7937 32.2911 24.8049 32.2936L25.3638 32.4093L25.1099 33.0316C25.1049 33.0428 25.1074 33.0565 25.1148 33.0665V33.0677Z" fill="white"/>
<path d="M18.2819 34.3196C18.262 34.3196 18.2446 34.3333 18.2433 34.3532C18.2383 34.4266 18.1226 36.1579 18.5545 36.6782C18.6677 36.8139 18.7947 36.9495 18.9279 37.0939C19.3038 37.4972 19.6921 37.9141 19.839 38.3946C19.9136 38.6373 20.0493 39.0406 20.1937 39.4687C20.4476 40.2192 20.7351 41.0718 20.8061 41.4017C20.8098 41.4191 20.8247 41.4303 20.8409 41.4303C20.8434 41.4303 20.8459 41.4303 20.8484 41.4303C20.8683 41.4266 20.8807 41.4066 20.8758 41.388C20.8036 41.0532 20.5148 40.1993 20.2609 39.4463C20.1165 39.0194 19.9809 38.6161 19.9062 38.3747C19.7543 37.878 19.3598 37.4549 18.9789 37.0466C18.8457 36.9035 18.7188 36.7678 18.608 36.6334C18.1948 36.1355 18.3118 34.3781 18.313 34.3607C18.3143 34.3407 18.2993 34.3233 18.2794 34.3221L18.2819 34.3196Z" fill="#343434"/>
<path d="M20.8248 32.4488C20.8074 32.46 20.8024 32.4811 20.8136 32.4986C20.8211 32.5098 21.5318 33.6312 21.7247 34.1054C21.9413 34.6406 22.1292 35.8629 22.1317 35.8753C22.1342 35.8927 22.1491 35.9064 22.1678 35.9064C22.169 35.9064 22.1715 35.9064 22.1728 35.9064C22.1927 35.9039 22.2064 35.8853 22.2026 35.8653C22.1952 35.8143 22.0122 34.6219 21.7919 34.0793C21.5977 33.5988 20.9045 32.5073 20.8758 32.4612C20.8646 32.4438 20.8422 32.4401 20.826 32.45L20.8248 32.4488Z" fill="#343434"/>
<path d="M18.1844 34.4104C18.1844 34.4104 18.3885 34.693 19.0183 34.5449C19.6481 34.398 19.7825 34.3395 20.4135 33.6997C21.0446 33.0612 20.6065 31.8962 20.6065 31.8962L18.1445 33.5143L18.1831 34.4092L18.1844 34.4104Z" fill="#343434"/>
<path d="M19.1481 30.0118C18.6789 29.9383 18.0839 30.2694 18.0839 30.2694C18.0839 30.2694 17.8512 30.1773 17.6582 30.0827C17.4653 29.9881 16.6289 29.7828 16.6289 29.7828C16.6289 29.7828 16.6563 29.9023 16.7023 30.1686C16.7484 30.435 17.2811 31.7705 17.2811 31.7705C17.2811 31.7705 17.5574 32.4314 17.6309 32.7799C17.7043 33.1296 18.008 33.2305 18.1461 33.5155C18.2843 33.8005 18.7896 33.6723 19.0846 33.6723C19.3796 33.6723 19.5812 33.4794 19.9036 33.2305C20.226 32.9828 20.2994 32.8172 20.4189 32.587C20.5384 32.3567 20.7126 31.3635 20.7126 31.3635C20.7126 31.3635 20.9429 31.0872 21.1258 30.8208C21.3101 30.5544 21.4022 29.6533 21.4022 29.6533C21.4022 29.6533 20.979 29.8375 20.9516 29.8649C20.9242 29.8923 20.3031 30.2694 20.3031 30.2694C20.3031 30.2694 19.6173 30.0852 19.1493 30.0118H19.1481Z" fill="white"/>
<path d="M16.7767 29.9358C16.7593 29.9271 16.7369 29.9358 16.7294 29.9544C16.722 29.9731 16.7294 29.9943 16.7481 30.0017C16.7518 30.003 17.1613 30.1859 17.4339 30.4959C17.7052 30.8033 17.7587 30.9203 17.7587 30.9203C17.765 30.934 17.7774 30.9427 17.7924 30.9427C17.7973 30.9427 17.8023 30.9427 17.806 30.9402C17.8247 30.9327 17.8334 30.9116 17.8247 30.8929C17.8222 30.8879 17.77 30.7672 17.4874 30.4486C17.2036 30.1274 16.7929 29.9445 16.7755 29.9358H16.7767Z" fill="#343434"/>
<path d="M21.2267 29.8699C21.2105 29.8824 20.8309 30.1736 20.6828 30.3267C20.5309 30.4848 20.4861 30.6416 20.4836 30.6491C20.4786 30.6678 20.4898 30.6877 20.5085 30.6939C20.5122 30.6939 20.5147 30.6951 20.5185 30.6951C20.5346 30.6951 20.5483 30.6852 20.5533 30.669C20.5533 30.6678 20.5969 30.5221 20.735 30.3778C20.8782 30.2284 21.2665 29.9309 21.2702 29.9272C21.2864 29.9147 21.2889 29.8923 21.2764 29.8762C21.264 29.86 21.2416 29.8575 21.2254 29.8699H21.2267Z" fill="#343434"/>
<path d="M19.4726 31.3896C19.4602 31.473 19.571 31.5589 19.7203 31.5813C19.8697 31.6037 20.0004 31.5539 20.0128 31.4705C20.0253 31.3871 19.9145 31.3012 19.7651 31.2788C19.6158 31.2564 19.4851 31.3062 19.4726 31.3896Z" fill="#343434"/>
<path d="M18.1497 31.3362C18.0028 31.3698 17.8995 31.4644 17.9182 31.5465C17.9369 31.6286 18.0713 31.6685 18.2182 31.6349C18.365 31.6013 18.4683 31.5067 18.4497 31.4245C18.431 31.3424 18.2966 31.3025 18.1497 31.3362Z" fill="#343434"/>
<path d="M19.6438 30.8792L19.3177 31.1779C19.3028 31.1916 19.3015 31.214 19.3152 31.2289C19.3227 31.2364 19.3326 31.2401 19.3413 31.2401C19.3501 31.2401 19.3588 31.2376 19.3662 31.2302L19.6923 30.9315C19.7073 30.9178 19.7085 30.8954 19.6948 30.8804C19.6811 30.8655 19.6587 30.8655 19.6438 30.8779V30.8792Z" fill="#343434"/>
<path d="M18.1773 30.9528C18.1649 30.969 18.1686 30.9914 18.1848 31.0026L18.5619 31.2839C18.5681 31.2889 18.5756 31.2914 18.5831 31.2914C18.5943 31.2914 18.6055 31.2864 18.6117 31.2764C18.6242 31.2602 18.6204 31.2378 18.6042 31.2266L18.2271 30.9454C18.2109 30.9341 18.1885 30.9366 18.1773 30.9528Z" fill="#343434"/>
<path d="M20.0491 32.2783C19.8973 32.2783 19.667 32.6044 19.4841 32.7239C19.2999 32.8434 19.1667 32.7874 19.0845 32.7426C19.0024 32.6978 18.8406 32.4439 18.8406 32.4439C18.8406 32.4439 18.6975 32.6916 18.5506 32.8434C18.4037 32.9953 18.1498 33.0276 17.8212 32.8621C17.6482 32.775 17.6221 32.7426 17.6221 32.7426C17.6221 32.7426 17.7179 32.9542 17.7453 33.0027C17.8461 33.177 18.0353 33.2952 18.2046 33.3226C18.3751 33.35 19.0211 33.3438 19.3397 33.3139C19.6583 33.284 19.8239 33.0799 20.0504 32.9505C20.2769 32.821 20.3379 32.5683 20.3006 32.4289C20.2807 32.358 20.1997 32.2771 20.0479 32.2771L20.0491 32.2783Z" fill="#343434"/>
<path d="M18.4862 32.0667C18.4389 32.1178 18.5621 32.2111 18.6132 32.2783C18.6642 32.3455 18.8334 32.4302 18.8334 32.4302C18.8334 32.4302 19.0139 32.3294 19.116 32.246C19.2168 32.1638 19.1994 32.0904 19.1633 32.0593C19.1197 32.0232 19.055 32.0257 18.9417 32.0008C18.8285 31.9759 18.5522 31.997 18.4887 32.0667H18.4862Z" fill="#343434"/>
<path d="M20.4031 32.8061L20.3595 33.3649H19.9612C19.9463 33.3649 19.9326 33.3749 19.9276 33.3898L19.7223 33.9997L19.2033 33.8242C19.1858 33.818 19.1672 33.8267 19.1597 33.8429C19.0663 34.0358 18.9481 34.2548 18.9033 34.3071C18.8411 34.2598 18.6183 34.0395 18.4216 33.8341C18.4079 33.8205 18.3855 33.8192 18.3706 33.8341C18.3556 33.8478 18.3556 33.8702 18.3706 33.8852C18.683 34.21 18.861 34.3781 18.8983 34.3855C18.9008 34.3855 18.9045 34.3868 18.9083 34.3868C18.9381 34.3868 18.9966 34.3457 19.212 33.9038L19.7347 34.0806C19.7434 34.0831 19.7534 34.0831 19.7621 34.0793C19.7708 34.0756 19.777 34.0681 19.7808 34.0582L19.9899 33.4383H20.3956C20.4143 33.4383 20.4305 33.4234 20.4317 33.4047L20.4778 32.8123C20.479 32.7924 20.4641 32.7749 20.4442 32.7737C20.4205 32.77 20.4068 32.7874 20.4056 32.8073L20.4031 32.8061Z" fill="white"/>
<path d="M25.1063 29.5524C24.9035 29.3769 24.4915 29.1703 24.4741 29.1616C24.4566 29.1529 24.4342 29.1604 24.4255 29.1778C24.4168 29.1952 24.4243 29.2176 24.4417 29.2263C24.4454 29.2288 24.8636 29.4379 25.0591 29.6072C25.257 29.779 25.5893 30.1524 25.5918 30.1561C25.5992 30.1636 25.6092 30.1685 25.6191 30.1685C25.6279 30.1685 25.6366 30.166 25.6428 30.1598C25.6577 30.1461 25.659 30.1237 25.6453 30.1088C25.6316 30.0939 25.3067 29.7279 25.1051 29.5537L25.1063 29.5524Z" fill="#343434"/>
<path d="M26.3264 29.738C26.3264 29.738 26.3289 29.738 26.3314 29.738C26.3488 29.738 26.365 29.7243 26.3674 29.7069C26.3923 29.5164 26.3214 29.036 26.3177 29.0161C26.3152 28.9962 26.2977 28.9825 26.2766 28.9862C26.2567 28.9887 26.243 29.0074 26.2467 29.0273C26.2467 29.0323 26.3189 29.5177 26.2953 29.6982C26.2928 29.7181 26.3065 29.7355 26.3264 29.738Z" fill="#343434"/>
<path d="M21.9562 42.9936C21.9761 42.9936 21.9923 42.9774 21.9923 42.9575V42.4995C21.9923 42.3103 21.8666 42.2257 21.8006 42.207C21.7819 42.202 21.762 42.2132 21.757 42.2319C21.7521 42.2506 21.7633 42.2705 21.7819 42.2767C21.7882 42.2779 21.9213 42.319 21.9213 42.4995V42.9575C21.9213 42.9774 21.9375 42.9936 21.9574 42.9936H21.9562Z" fill="#343434"/>
<path d="M22.2808 42.1235C22.2572 42.1211 22.2435 42.1372 22.2423 42.1571C22.241 42.1771 22.256 42.1945 22.2746 42.1957C22.2771 42.1957 22.4713 42.2132 22.5099 42.3488C22.5534 42.5032 22.5547 42.828 22.5547 42.8318C22.5547 42.8517 22.5708 42.8678 22.5908 42.8678C22.6107 42.8678 22.6269 42.8517 22.6269 42.8318C22.6269 42.8181 22.6269 42.4932 22.5796 42.3289C22.5273 42.1459 22.2908 42.1248 22.2808 42.1235Z" fill="#343434"/>
<path d="M25.239 42.7271C25.239 42.7271 25.2452 42.7271 25.2477 42.7271C25.2639 42.7271 25.2788 42.7159 25.2826 42.6997C25.2851 42.6898 25.3398 42.457 25.2801 42.3226C25.2228 42.1919 24.9963 41.9841 24.9863 41.9754C24.9714 41.9617 24.949 41.9629 24.9353 41.9778C24.9216 41.9928 24.9229 42.0152 24.9378 42.0289C24.9403 42.0314 25.1631 42.2355 25.2141 42.3525C25.2639 42.4645 25.2129 42.6823 25.2116 42.6836C25.2066 42.7035 25.2191 42.7222 25.2378 42.7271H25.239Z" fill="#343434"/>
<path d="M25.7028 42.599C25.7028 42.599 25.7065 42.599 25.709 42.599C25.7265 42.599 25.7414 42.5865 25.7451 42.5691C25.7451 42.5616 25.7725 42.3961 25.7451 42.1546C25.7202 41.9431 25.5223 41.8609 25.4203 41.8472C25.4004 41.8447 25.3829 41.8584 25.3792 41.8783C25.3767 41.8982 25.3904 41.9157 25.4103 41.9194C25.4203 41.9206 25.6493 41.9555 25.6742 42.1634C25.7003 42.3936 25.6742 42.5567 25.6742 42.5579C25.6704 42.5778 25.6841 42.5965 25.7041 42.599H25.7028Z" fill="#343434"/>
<path d="M17.2227 42.3127C17.2027 42.3089 17.1841 42.3214 17.1803 42.3413C17.1766 42.3612 17.1891 42.3799 17.209 42.3836C17.2861 42.3986 17.4915 42.4633 17.5164 42.5728C17.5525 42.7247 17.5699 42.9586 17.5712 42.9611C17.5724 42.9798 17.5886 42.9947 17.6073 42.9947C17.6073 42.9947 17.6085 42.9947 17.6098 42.9947C17.6297 42.9935 17.6446 42.9761 17.6434 42.9562C17.6434 42.9462 17.6247 42.7147 17.5874 42.5566C17.5463 42.3799 17.2364 42.3164 17.2239 42.3139L17.2227 42.3127Z" fill="#343434"/>
<path d="M17.6534 42.3115C17.631 42.3115 17.616 42.324 17.6136 42.3439C17.6111 42.3638 17.626 42.3812 17.6459 42.3837C17.6521 42.3837 17.7915 42.4011 17.8227 42.5443C17.8575 42.7098 17.8588 42.8293 17.8588 42.8305C17.8588 42.8505 17.8749 42.8666 17.8948 42.8666C17.9148 42.8666 17.9309 42.8505 17.9309 42.8305C17.9309 42.8256 17.9309 42.7023 17.8936 42.5293C17.86 42.3725 17.7218 42.319 17.6534 42.3128V42.3115Z" fill="#343434"/>
<path d="M19.8618 41.9692C19.8443 41.9766 19.8356 41.9966 19.8418 42.0152C19.8493 42.0339 19.8692 42.0426 19.8879 42.0364C19.8904 42.0351 19.9626 42.0127 20.0323 42.1733C20.1132 42.3625 20.1157 42.4932 20.1157 42.4944C20.1157 42.5143 20.1319 42.5305 20.1518 42.5305C20.1717 42.5305 20.1879 42.5143 20.1879 42.4944C20.1879 42.4882 20.1879 42.3488 20.0995 42.1447C20.0012 41.9157 19.868 41.9667 19.863 41.9692H19.8618Z" fill="#343434"/>
<path d="M20.1902 41.8509C20.1728 41.8596 20.1665 41.8795 20.174 41.897C20.1815 41.9144 20.2039 41.9231 20.2213 41.9156C20.24 41.9094 20.2873 41.9206 20.3408 42.019C20.4229 42.172 20.4715 42.411 20.4715 42.4135C20.4752 42.4309 20.4901 42.4421 20.5063 42.4421C20.5088 42.4421 20.5113 42.4421 20.5138 42.4421C20.5337 42.4384 20.5462 42.4197 20.5424 42.3998C20.5399 42.3899 20.4914 42.1471 20.4043 41.9853C20.3034 41.7974 20.1952 41.8484 20.1914 41.8509H20.1902Z" fill="#343434"/>
<path d="M12.209 11.7615C12.209 11.7615 12.1966 11.7603 12.1916 11.7566C12.1592 11.7354 11.8767 11.5425 11.8331 11.4902C11.7087 11.3446 11.5643 11.1193 11.5755 10.8741C11.5917 10.5617 11.695 10.4198 11.7634 10.3601C11.6726 10.3302 11.5133 10.2592 11.4187 10.1074C11.3415 9.98292 11.3788 9.77008 11.3813 9.76013C11.3826 9.75017 11.39 9.74146 11.3987 9.73772C11.4075 9.73275 11.4187 9.73399 11.4274 9.73772C11.4299 9.73897 11.7224 9.88833 12.158 9.58961C12.1717 9.57965 12.1916 9.58339 12.2015 9.59708C12.2115 9.61077 12.2078 9.63068 12.1941 9.64064C11.8157 9.89953 11.5394 9.84352 11.4398 9.80867C11.4336 9.87215 11.4274 9.99661 11.4747 10.0725C11.5942 10.2667 11.8431 10.3152 11.8468 10.3152C11.8605 10.3177 11.8705 10.3289 11.8717 10.3426C11.8717 10.3563 11.8642 10.37 11.8518 10.375C11.8506 10.375 11.6626 10.4546 11.6402 10.8753C11.6315 11.0496 11.7174 11.2537 11.8829 11.4479C11.9128 11.4827 12.1057 11.6196 12.2289 11.703C12.2426 11.713 12.2464 11.7317 12.2376 11.7466C12.2314 11.7553 12.2215 11.7603 12.2115 11.7603L12.209 11.7615Z" fill="white"/>
<path d="M11.4105 9.79642C11.4105 9.79642 11.4018 9.79642 11.3981 9.79393C11.3819 9.78647 10.9998 9.60848 10.9264 9.2438C10.8716 8.97495 10.9102 8.73349 11.0446 8.48456C11.133 8.32275 11.4292 7.94811 11.4417 7.93318C11.4529 7.91948 11.4715 7.917 11.4852 7.9282C11.4989 7.9394 11.5014 7.95807 11.4902 7.97176C11.4877 7.97549 11.184 8.3576 11.0994 8.51443C10.9712 8.74967 10.9363 8.97744 10.9874 9.23135C11.0546 9.56616 11.4205 9.73544 11.4242 9.73792C11.4404 9.74539 11.4466 9.76406 11.4392 9.779C11.4342 9.7902 11.423 9.79767 11.4105 9.79767V9.79642Z" fill="white"/>
<path d="M11.7002 9.84373C11.7002 9.84373 11.689 9.84249 11.684 9.83875C11.6666 9.8288 11.2571 9.57489 11.2559 8.97745C11.2546 8.29414 11.577 8.01036 11.6255 7.99169C11.6417 7.98546 11.6591 7.99293 11.6654 8.00911C11.6716 8.02405 11.6654 8.04147 11.6492 8.04894C11.638 8.05641 11.3156 8.28791 11.3169 8.97745C11.3169 9.53755 11.7114 9.78274 11.7151 9.78523C11.7301 9.79395 11.7351 9.81386 11.7251 9.82755C11.7189 9.83751 11.7089 9.84249 11.699 9.84249L11.7002 9.84373Z" fill="white"/>
<path d="M14.1728 12.4636C14.1641 12.4636 14.1554 12.4599 14.1492 12.4524C14.138 12.4387 14.1392 12.4201 14.1529 12.4089C14.3284 12.2607 14.5412 12.0168 14.591 11.86C14.6458 11.6857 14.7242 11.3447 14.7254 11.3409C14.7279 11.3322 14.7329 11.3248 14.7416 11.3198C14.7491 11.3161 14.759 11.3148 14.7678 11.3198C14.8213 11.3422 14.9072 11.3733 14.9694 11.387C14.8835 11.2488 14.9072 11.153 14.9545 11.0198C15.0055 10.8767 15.0677 10.6975 15.0802 10.5008C15.0914 10.3141 14.9308 9.96809 14.9296 9.96436C14.9246 9.9544 14.9258 9.9432 14.9321 9.93449C14.9383 9.92577 14.9482 9.9208 14.9582 9.9208C15.0017 9.92204 15.0515 9.91208 15.0602 9.89466C15.1835 9.6644 15.0018 9.4304 14.9395 9.3607C14.8574 9.42916 14.5748 9.63328 14.2313 9.50259C14.2151 9.49637 14.2077 9.47894 14.2139 9.46276C14.2201 9.44658 14.2375 9.43912 14.2537 9.44409C14.6221 9.5835 14.9171 9.29722 14.9196 9.29474C14.932 9.28229 14.9507 9.28229 14.9632 9.29474C14.9669 9.29722 15.2843 9.60839 15.115 9.92453C15.0951 9.96187 15.0441 9.97556 15.0042 9.98054C15.0478 10.0814 15.1524 10.3427 15.1424 10.5058C15.13 10.7112 15.0627 10.9016 15.013 11.041C14.9607 11.1891 14.9495 11.2638 15.0565 11.4044C15.0627 11.4131 15.0652 11.4243 15.0602 11.4343C15.0565 11.4443 15.0478 11.4517 15.0366 11.453C14.9744 11.4642 14.8412 11.4156 14.7777 11.3907C14.7553 11.4828 14.6956 11.7355 14.6508 11.8786C14.591 12.0691 14.3446 12.3292 14.194 12.4574C14.1878 12.4624 14.1815 12.4649 14.1741 12.4649L14.1728 12.4636Z" fill="white"/>
</svg>
