<svg width="161" height="331" viewBox="0 0 161 331" fill="none" xmlns="http://www.w3.org/2000/svg">
<path d="M110.916 121.206C110.876 121.096 109.786 112.526 109.786 112.526L105.416 113.296C105.416 113.296 103.086 116.106 103.716 117.806C104.346 119.506 104.276 121.856 104.276 121.856C104.276 121.856 110.956 121.316 110.926 121.206H110.916Z" fill="#139C8B"/>
<path d="M117.827 51.2257C117.567 52.9157 118.737 54.5057 120.437 54.7557C122.127 55.0157 123.717 53.8457 123.967 52.1457C124.227 50.4557 123.057 48.8657 121.357 48.6157C119.657 48.3657 118.077 49.5257 117.827 51.2257Z" fill="#343434"/>
<path d="M117.924 54.8011L116.332 65.3517C116.28 65.6957 116.517 66.0167 116.861 66.0686L120.599 66.6325C120.943 66.6844 121.264 66.4476 121.316 66.1036L122.908 55.553C122.96 55.209 122.723 54.888 122.379 54.8361L118.641 54.2721C118.297 54.2202 117.976 54.457 117.924 54.8011Z" fill="#343434"/>
<path d="M115.998 67.64L115.789 69.0244C115.747 69.3083 115.942 69.5733 116.226 69.6162L120.092 70.1995C120.376 70.2423 120.641 70.0468 120.684 69.7629L120.893 68.3785C120.936 68.0946 120.74 67.8296 120.456 67.7868L116.59 67.2035C116.306 67.1606 116.041 67.3561 115.998 67.64Z" fill="#343434"/>
<path d="M117.163 65.2704L113.503 89.5259L116.786 90.0212L120.445 65.7657L117.163 65.2704Z" fill="#343434"/>
<path d="M114.235 88.5835L99.6992 184.923L101.914 185.257L116.45 88.9177L114.235 88.5835Z" fill="#343434"/>
<path d="M96.8568 80.5956C100.667 81.7656 102.937 78.0756 107.907 77.9756C108.297 77.9756 115.177 78.4856 115.177 78.4856L116.377 70.5556L109.417 69.5056C109.417 69.5056 109.287 66.4256 105.937 62.8556C102.587 59.2856 98.7768 56.8456 91.8668 59.0156C84.9668 61.1856 73.8067 72.2056 73.8067 72.2056C73.8067 72.2056 72.4268 73.9356 74.8268 74.3756C77.2268 74.8156 80.1668 74.6556 80.1668 74.6556C80.1668 74.6556 75.8167 76.4156 73.9667 80.1156C72.1167 83.8256 71.3668 86.0956 71.8868 89.9156C72.4068 93.7256 73.5368 93.8056 73.5368 93.8056C73.5368 93.8056 73.3968 92.0956 75.4568 89.3156C77.5168 86.5356 80.0168 83.8756 80.0168 83.8756C80.0168 83.8756 79.1368 86.9456 79.1968 88.6356C79.2768 90.7356 79.9168 90.8156 79.9168 90.8156C79.9168 90.8156 83.2668 86.4656 85.0868 84.5956C86.9168 82.7256 89.9368 80.1956 89.9368 80.1956C89.9368 80.1956 87.6968 82.9756 88.6668 83.5456C89.8968 84.4556 92.5368 82.6856 94.2868 80.9556C95.6668 79.6056 96.6668 78.7156 97.0368 78.3956C97.1368 78.3056 97.2068 78.2556 97.2068 78.2556C97.2068 78.2556 97.1468 78.3056 97.0368 78.3956C96.6068 78.7856 95.5868 79.8956 96.8468 80.5856L96.8568 80.5956Z" fill="#149C8B"/>
<path d="M94.7671 73.3558C94.5771 73.7058 93.6271 74.8658 92.6171 76.0758C91.3471 77.6058 89.9071 79.3458 89.0371 80.6058C88.9471 80.7358 88.9771 80.9158 89.1071 81.0058C89.1571 81.0358 89.2171 81.0558 89.2671 81.0558C89.3571 81.0558 89.4471 81.0158 89.5071 80.9358C90.3671 79.6958 91.7971 77.9658 93.0571 76.4458C94.1771 75.0958 95.0571 74.0258 95.2771 73.6258C95.3571 73.4858 95.2971 73.3058 95.1571 73.2358C95.0171 73.1658 94.8371 73.2158 94.7671 73.3558Z" fill="#343434"/>
<path d="M100.197 72.7457C100.107 72.8557 99.9872 73.0957 99.7372 73.5757C99.1572 74.6757 98.0672 76.7357 96.6072 78.5957C96.5072 78.7257 96.5272 78.9057 96.6572 79.0057C96.7072 79.0457 96.7772 79.0657 96.8372 79.0657C96.9272 79.0657 97.0072 79.0257 97.0672 78.9557C98.5572 77.0557 99.6572 74.9657 100.247 73.8457C100.437 73.4857 100.597 73.1757 100.657 73.0957C100.757 72.9657 100.727 72.7857 100.597 72.6857C100.467 72.5857 100.287 72.6157 100.187 72.7457H100.197Z" fill="#343434"/>
<path d="M87.8571 71.6255C87.7271 71.7755 87.397 72.1955 87.067 72.6155C86.747 73.0255 86.4171 73.4455 86.2971 73.5855C85.1771 74.8755 80.5471 82.5155 79.7371 83.8655C79.6571 84.0055 79.6971 84.1755 79.8371 84.2655C79.8871 84.2955 79.9371 84.3055 79.9871 84.3055C80.0871 84.3055 80.1771 84.2555 80.2371 84.1655C81.5571 81.9455 85.7271 75.1255 86.7371 73.9655C86.8671 73.8155 87.197 73.3955 87.527 72.9755C87.847 72.5655 88.1771 72.1455 88.2971 72.0055C88.3971 71.8855 88.3871 71.7055 88.2671 71.5955C88.1471 71.4955 87.9671 71.5055 87.8571 71.6255Z" fill="#343434"/>
<path d="M135.927 84.2657C135.857 84.1457 135.807 84.0857 135.807 84.0857C135.807 84.0857 135.847 84.1557 135.927 84.2657Z" fill="#149C8B"/>
<path d="M159.947 85.2057C159.947 85.2057 152.547 71.3857 146.587 67.2757C140.637 63.1657 136.267 64.3757 132.017 66.7957C127.767 69.2157 126.727 72.1257 126.727 72.1257L119.667 71.0557L118.467 78.9757C118.467 78.9757 125.287 80.5357 125.657 80.6557C130.377 82.2157 131.467 86.4157 135.447 86.4157C136.857 86.1157 136.207 84.7657 135.917 84.2657C136.177 84.6857 136.877 85.8257 137.787 87.5257C138.957 89.6957 140.957 92.1657 142.397 91.6557C143.487 91.3957 142.167 88.0757 142.167 88.0757C142.167 88.0757 144.307 91.3857 145.497 93.7057C146.687 96.0257 148.607 101.176 148.607 101.176C148.607 101.176 149.237 101.296 149.937 99.3057C150.497 97.7157 150.557 94.5157 150.557 94.5157C150.557 94.5157 152.157 97.7957 153.307 101.056C154.457 104.316 153.817 105.916 153.817 105.916C153.817 105.916 154.927 106.186 156.547 102.696C158.167 99.2057 158.137 96.8057 157.457 92.7257C156.777 88.6357 153.137 85.6757 153.137 85.6757C153.137 85.6757 155.897 86.6857 158.317 86.9857C160.737 87.2757 159.927 85.2157 159.927 85.2157L159.947 85.2057Z" fill="#149C8B"/>
<path d="M139.257 79.8857C139.097 79.9157 138.997 80.0657 139.027 80.2257C139.117 80.6757 139.647 81.9557 140.317 83.5757C141.077 85.4057 141.927 87.4757 142.387 88.9157C142.427 89.0357 142.537 89.1157 142.667 89.1157C142.697 89.1157 142.727 89.1157 142.757 89.1057C142.907 89.0557 142.997 88.8957 142.947 88.7457C142.487 87.2757 141.617 85.1957 140.857 83.3557C140.257 81.8957 139.677 80.5157 139.607 80.1157C139.577 79.9557 139.427 79.8557 139.267 79.8857H139.257Z" fill="#343434"/>
<path d="M134.216 77.7656C134.066 77.8156 133.986 77.9856 134.046 78.1356C134.076 78.2256 134.146 78.5756 134.216 78.9656C134.456 80.2156 134.896 82.5256 135.756 84.7856C135.796 84.9056 135.906 84.9756 136.026 84.9756C136.056 84.9756 136.096 84.9756 136.126 84.9556C136.276 84.8956 136.346 84.7356 136.296 84.5856C135.456 82.3756 135.016 80.0856 134.786 78.8556C134.686 78.3256 134.636 78.0656 134.586 77.9356C134.536 77.7856 134.366 77.7056 134.216 77.7656Z" fill="#343434"/>
<path d="M146.707 80.5058C146.647 80.3558 146.467 80.2958 146.327 80.3558C146.177 80.4158 146.117 80.5858 146.177 80.7358C146.257 80.9058 146.437 81.3958 146.617 81.8858C146.807 82.3958 147.007 82.9058 147.077 83.0758C147.697 84.4858 149.667 92.2358 150.277 94.7458C150.307 94.8758 150.427 94.9658 150.557 94.9658C150.577 94.9658 150.607 94.9658 150.627 94.9658C150.787 94.9258 150.877 94.7758 150.837 94.6158C150.467 93.0858 148.297 84.4258 147.607 82.8558C147.527 82.6858 147.337 82.1858 147.157 81.6858C146.967 81.1858 146.777 80.6858 146.697 80.5158L146.707 80.5058Z" fill="#343434"/>
<path d="M105.867 85.8658C103.957 86.4658 102.707 87.8858 103.067 89.0358C103.427 90.1858 105.267 90.6258 107.177 90.0258C109.087 89.4258 111.537 87.9258 111.177 86.7758C110.817 85.6258 107.767 85.2658 105.867 85.8658Z" fill="#343434"/>
<path d="M109.046 129.146C109.186 129.166 110.186 129.126 110.326 129.096C110.446 129.066 113.356 128.416 116.046 126.266C118.756 124.106 120.396 121.646 120.666 119.366C120.906 117.246 120.836 114.666 118.466 111.576C116.986 109.646 113.786 107.756 109.726 105.366C108.336 104.546 106.856 103.676 105.346 102.736C102.376 100.896 101.326 98.5156 100.976 96.8456C100.586 94.9856 100.866 93.0556 101.726 91.8056C102.726 90.3456 104.196 90.1356 104.286 90.1256C104.916 90.0556 105.376 89.4856 105.306 88.8556C105.236 88.2156 104.666 87.7556 104.036 87.8256C103.936 87.8356 101.446 88.1256 99.8164 90.5056C98.5964 92.2856 98.1864 94.8356 98.7164 97.3356C99.3464 100.326 101.266 102.946 104.136 104.716C105.666 105.666 107.156 106.546 108.556 107.376C112.246 109.556 115.426 111.426 116.636 113.006C118.596 115.556 118.566 117.496 118.376 119.126C118.186 120.746 116.786 122.756 114.616 124.486C112.356 126.286 109.866 126.866 109.836 126.866C109.216 127.006 108.816 127.616 108.956 128.246C109.066 128.726 108.596 129.106 109.056 129.176L109.046 129.146Z" fill="#343434"/>
<path d="M105.287 159.406C105.487 159.436 106.367 158.956 106.567 158.876C106.997 158.696 110.797 157.086 112.327 154.946C113.937 152.696 113.947 149.886 112.357 147.026C111.637 145.726 110.107 144.046 108.487 142.266C107.017 140.656 105.497 138.986 105.027 138.036C103.937 135.836 103.547 134.066 104.957 132.046C106.437 129.926 108.547 129.396 108.597 129.376C109.217 129.236 110.117 128.066 109.977 127.446C109.837 126.826 108.707 126.976 108.087 127.126C107.967 127.156 105.087 127.826 103.057 130.726C100.867 133.856 101.777 136.706 102.957 139.076C103.567 140.316 105.127 142.026 106.777 143.836C108.237 145.436 109.747 147.096 110.337 148.156C111.137 149.596 111.807 151.706 110.447 153.596C109.467 154.956 106.677 156.326 105.677 156.736C105.087 156.986 104.807 157.656 105.047 158.246C105.207 158.636 104.887 159.346 105.277 159.406H105.287Z" fill="#343434"/>
<path d="M101.877 159.786C100.767 160.536 100.257 160.846 98.0371 161.756C98.1171 162.266 98.7971 162.286 99.3871 162.286C101.787 162.106 103.707 160.746 103.797 160.676C103.857 159.966 104.137 158.426 104.227 157.516C103.907 157.786 103.087 158.976 101.877 159.786Z" fill="#343434"/>
<path d="M107.917 111.666C109.537 110.516 113.137 109.666 117.297 108.676C118.887 108.296 120.567 107.896 122.307 107.446C125.567 106.596 128.177 104.656 129.657 101.996C130.897 99.7657 131.257 97.2057 130.617 95.1457C130.067 93.3757 128.937 92.3357 128.167 91.8057C128.097 90.8757 127.377 89.7657 126.197 88.9457C124.557 87.8057 121.537 87.2557 120.857 88.2457C120.177 89.2357 122.077 91.3957 123.717 92.5357C124.637 93.1657 125.617 93.4757 126.437 93.4657C126.437 93.4657 126.447 93.4757 126.457 93.4857C126.527 93.5157 127.877 94.1557 128.407 95.8457C128.857 97.2957 128.557 99.2257 127.637 100.886C126.807 102.376 125.107 104.346 121.727 105.226C120.007 105.676 118.337 106.076 116.767 106.446C112.187 107.536 108.567 108.396 106.587 109.796C103.407 112.046 102.577 114.496 102.187 116.586C101.767 118.846 102.607 121.676 104.557 124.546C106.497 127.396 109.077 128.876 109.187 128.946C109.317 129.016 110.267 129.346 110.397 129.366C110.857 129.436 110.517 128.936 110.767 128.506C111.087 127.946 110.887 127.246 110.327 126.926C110.307 126.916 108.087 125.626 106.467 123.236C104.907 120.946 104.157 118.616 104.457 117.006C104.757 115.406 105.297 113.536 107.927 111.676L107.917 111.666Z" fill="#343434"/>
<path d="M108.207 144.046C110.317 142.806 112.307 141.626 113.257 140.626C115.077 138.706 116.787 136.256 115.627 132.616C114.547 129.246 111.997 127.756 111.887 127.696C111.337 127.376 110.307 126.896 109.987 127.446C109.667 127.996 110.187 129.386 110.737 129.696C110.777 129.726 112.637 130.846 113.427 133.316C114.177 135.666 113.287 137.246 111.587 139.026C110.857 139.786 108.917 140.936 107.037 142.046C104.967 143.266 103.007 144.416 101.937 145.446C99.5766 147.706 98.7566 150.396 99.6266 153.026C100.467 155.526 103.617 158.186 103.977 158.486C104.147 158.626 104.847 159.346 105.047 159.376C105.437 159.436 105.337 158.656 105.607 158.336C106.017 157.846 105.947 157.116 105.457 156.706C104.627 156.016 102.357 153.886 101.827 152.296C101.087 150.086 102.347 148.266 103.537 147.126C104.417 146.286 106.347 145.146 108.217 144.046H108.207Z" fill="#343434"/>
<path d="M105.716 157.746C105.526 158.646 105.346 160.196 105.196 160.896C105.266 160.996 106.696 162.856 108.936 163.736C109.506 163.916 110.166 164.096 110.386 163.626C108.536 162.096 108.146 161.646 107.306 160.606C106.386 159.476 105.956 158.096 105.726 157.746H105.716Z" fill="#343434"/>
<path d="M98.4007 184.361L98.1918 185.746C98.149 186.03 98.3445 186.295 98.6284 186.338L102.495 186.921C102.779 186.964 103.044 186.768 103.086 186.484L103.295 185.1C103.338 184.816 103.143 184.551 102.859 184.508L98.9925 183.925C98.7085 183.882 98.4436 184.078 98.4007 184.361Z" fill="#343434"/>
<path d="M97.2132 192.313L97.0043 193.697C96.9615 193.981 97.157 194.246 97.4409 194.289L101.307 194.872C101.591 194.915 101.856 194.719 101.899 194.436L102.108 193.051C102.151 192.767 101.955 192.502 101.671 192.459L97.805 191.876C97.521 191.833 97.256 192.029 97.2132 192.313Z" fill="#343434"/>
<path d="M97.4066 189.006C97.1766 190.536 98.2266 191.956 99.7566 192.186C101.287 192.416 102.707 191.366 102.937 189.836C103.167 188.306 102.117 186.886 100.587 186.656C99.0566 186.426 97.6366 187.476 97.4066 189.006Z" fill="#FB3230"/>
<path d="M83.0268 67.3858C82.9168 67.5058 82.9268 67.6858 83.0468 67.7958C83.1068 67.8458 83.1768 67.8758 83.2468 67.8758C83.3268 67.8758 83.4068 67.8458 83.4568 67.7858C87.3668 63.5358 93.5568 61.4958 99.2268 62.5958C99.3768 62.6258 99.5368 62.5258 99.5668 62.3658C99.5968 62.2058 99.4968 62.0558 99.3368 62.0258C93.4768 60.8858 87.0768 62.9958 83.0368 67.3958L83.0268 67.3858Z" fill="white"/>
<path d="M136.807 70.4055C136.757 70.5555 136.847 70.7156 136.997 70.7656C141.077 72.0256 144.897 74.2155 148.037 77.1155C148.097 77.1655 148.167 77.1956 148.237 77.1956C148.317 77.1956 148.397 77.1655 148.447 77.1055C148.557 76.9855 148.547 76.8056 148.427 76.6956C145.227 73.7356 141.337 71.4955 137.167 70.2155C137.007 70.1655 136.847 70.2555 136.807 70.4055Z" fill="white"/>
<path d="M85.0563 69.1757C84.9263 69.2657 84.8863 69.4457 84.9763 69.5757C85.0363 69.6657 85.1263 69.7057 85.2163 69.7057C85.2663 69.7057 85.3263 69.6857 85.3763 69.6557C88.9563 67.3257 93.0863 65.8057 97.3263 65.2557C97.4863 65.2357 97.5963 65.0857 97.5763 64.9357C97.5563 64.7757 97.4063 64.6657 97.2563 64.6857C92.9363 65.2457 88.7163 66.7957 85.0663 69.1757H85.0563Z" fill="white"/>
<path d="M139.907 65.9257C139.757 65.8857 139.597 65.9657 139.547 66.1257C139.497 66.2757 139.587 66.4357 139.747 66.4857C142.427 67.2757 145.017 68.9557 147.437 71.4757C149.607 73.7257 151.377 76.3657 153.097 78.9257C153.157 79.0057 153.247 79.0557 153.337 79.0557C153.397 79.0557 153.447 79.0357 153.497 79.0057C153.627 78.9157 153.667 78.7357 153.577 78.6057C151.847 76.0357 150.047 73.3657 147.847 71.0757C145.357 68.4857 142.687 66.7557 139.907 65.9357V65.9257Z" fill="white"/>
<path d="M132.817 70.9157C132.667 70.8657 132.507 70.9557 132.457 71.1057C132.407 71.2557 132.497 71.4257 132.647 71.4657C134.077 71.9257 135.317 73.0057 135.947 74.3757C135.997 74.4857 136.097 74.5457 136.207 74.5457C136.247 74.5457 136.287 74.5457 136.327 74.5157C136.477 74.4457 136.537 74.2757 136.467 74.1357C135.767 72.6257 134.397 71.4257 132.817 70.9257V70.9157Z" fill="white"/>
<path d="M97.7467 67.2256C97.5967 67.2856 97.5167 67.4456 97.5767 67.5956C97.6367 67.7456 97.7967 67.8256 97.9467 67.7656C100.147 66.9456 102.667 66.9556 104.867 67.7856C104.897 67.7956 104.937 67.8056 104.967 67.8056C105.087 67.8056 105.197 67.7356 105.237 67.6156C105.297 67.4656 105.217 67.2956 105.067 67.2456C102.737 66.3656 100.067 66.3556 97.7367 67.2256H97.7467Z" fill="white"/>
<path d="M116.537 65.5757C116.377 65.5457 116.237 65.6657 116.217 65.8257C116.197 65.9857 116.307 66.1257 116.467 66.1457L120.727 66.6757C120.727 66.6757 120.747 66.6757 120.767 66.6757C120.907 66.6757 121.037 66.5657 121.057 66.4257C121.077 66.2657 120.967 66.1257 120.807 66.1057L116.547 65.5757H116.537Z" fill="#139C8B"/>
<path d="M115.957 69.1456C115.807 69.1256 115.647 69.2256 115.627 69.3856C115.607 69.5456 115.707 69.6956 115.867 69.7156L120.377 70.4156C120.377 70.4156 120.407 70.4156 120.427 70.4156C120.567 70.4156 120.687 70.3156 120.717 70.1756C120.737 70.0156 120.637 69.8656 120.477 69.8456L115.967 69.1456H115.957Z" fill="#139C8B"/>
<path d="M113.567 89.2456C113.417 89.2156 113.257 89.3256 113.237 89.4856C113.217 89.6456 113.317 89.7956 113.477 89.8156L116.767 90.3156C116.767 90.3156 116.797 90.3156 116.807 90.3156C116.947 90.3156 117.067 90.2156 117.097 90.0656C117.117 89.9056 117.017 89.7556 116.857 89.7356L113.567 89.2356V89.2456Z" fill="#139C8B"/>
<path d="M118.517 53.9956C118.357 53.9756 118.207 54.0756 118.187 54.2356C118.167 54.3956 118.277 54.5456 118.427 54.5656L122.517 55.1756C122.517 55.1756 122.547 55.1756 122.557 55.1756C122.697 55.1756 122.817 55.0756 122.847 54.9256C122.867 54.7656 122.757 54.6156 122.607 54.5956L118.517 53.9856V53.9956Z" fill="#139C8B"/>
<path d="M103.656 189.006C107.056 186.786 108.976 184.816 107.796 183.416C106.616 182.006 102.326 171.966 100.406 166.026C98.4859 160.086 79.8859 79.3557 79.8859 79.3557C79.8859 79.3557 77.6659 133.986 78.0159 136.226C78.3659 138.476 100.966 194.706 100.966 194.706C100.966 194.706 100.256 191.216 103.646 188.996L103.656 189.006Z" fill="#343434"/>
<path d="M93.7155 167.416L102.106 193.126L103.816 190.976L93.4856 161.906L85.9355 143.166L93.7155 167.416Z" fill="white"/>
<path d="M86.0864 111.496C85.0964 109.226 84.1764 104.946 84.1764 104.946C84.1764 104.946 82.9564 77.7056 82.7764 76.3956C82.2564 72.7256 81.8564 70.6356 80.4864 69.2656C79.2864 68.0656 76.1064 66.6256 74.3164 66.4256C71.9664 66.1656 63.2964 65.5256 63.2964 65.5256L63.5664 69.9556L61.5264 81.2856L71.1264 119.296C71.1264 119.296 74.1664 125.896 79.0064 126.446C81.8864 126.766 94.3964 125.846 103.256 122.316C100.406 116.736 103.556 112.946 104.676 111.426C96.0664 111.736 87.0764 113.756 86.0864 111.496Z" fill="#139C8B"/>
<path d="M80.4867 80.4057C80.3267 80.4257 80.2167 80.5757 80.2367 80.7357C80.2367 80.7857 81.0067 86.1657 81.0867 88.0957C81.1667 90.0557 81.3667 91.5757 81.3667 91.5857C81.3867 91.7357 81.5067 91.8357 81.6567 91.8357C81.6667 91.8357 81.6867 91.8357 81.6967 91.8357C81.8567 91.8157 81.9667 91.6657 81.9467 91.5157C81.9467 91.5057 81.7467 90.0057 81.6667 88.0757C81.5867 86.1157 80.8467 80.8757 80.8067 80.6557C80.7867 80.4957 80.6367 80.3957 80.4767 80.4057H80.4867Z" fill="white"/>
<path d="M119.297 112.716L119.417 112.146C119.627 111.166 118.997 110.196 118.007 109.986L108.617 108.006C107.637 107.796 106.667 108.426 106.457 109.416L106.337 109.986C106.217 110.566 106.387 111.146 106.757 111.556C105.877 111.516 105.077 112.106 104.897 112.996L104.777 113.566C104.627 114.256 104.907 114.936 105.417 115.356C104.937 115.596 104.557 116.036 104.437 116.606L104.317 117.176C104.107 118.156 104.737 119.126 105.727 119.336L106.897 119.586C106.057 119.586 105.307 120.176 105.127 121.026L105.007 121.596C104.797 122.576 105.427 123.546 106.417 123.756L114.477 125.456C115.457 125.666 116.427 125.036 116.637 124.046L116.757 123.476C116.937 122.606 116.467 121.756 115.687 121.426C116.647 121.586 117.567 120.966 117.767 120.006L117.887 119.436C118.017 118.836 117.827 118.246 117.447 117.836C118.037 117.636 118.507 117.146 118.647 116.496L118.767 115.926C118.917 115.206 118.617 114.496 118.057 114.086C118.667 113.896 119.167 113.396 119.307 112.726L119.297 112.716Z" fill="#139C8B"/>
<path d="M119.577 112.776L119.697 112.206C119.877 111.346 119.497 110.456 118.757 109.986C118.507 109.826 109.197 107.846 109.107 107.826C108.957 107.796 108.797 107.896 108.767 108.046C108.737 108.206 108.837 108.356 108.987 108.386C109.827 108.566 118.077 110.336 118.457 110.466C118.997 110.806 119.277 111.456 119.137 112.086L119.017 112.656C118.907 113.196 118.497 113.636 117.967 113.796C117.867 113.826 117.787 113.916 117.767 114.026C117.747 114.136 117.797 114.246 117.877 114.306C118.367 114.666 118.597 115.266 118.477 115.856L118.357 116.426C118.247 116.956 117.867 117.376 117.347 117.556C117.257 117.586 117.187 117.666 117.157 117.756C117.137 117.846 117.157 117.946 117.227 118.026C117.557 118.396 117.697 118.896 117.597 119.376L117.477 119.946C117.307 120.746 116.537 121.276 115.727 121.136C115.577 121.106 115.447 121.196 115.397 121.336C115.357 121.476 115.427 121.626 115.567 121.686C116.237 121.966 116.617 122.696 116.467 123.416L116.347 123.986C116.267 124.386 116.027 124.726 115.687 124.956C115.347 125.176 114.937 125.256 114.537 125.176C114.387 125.146 114.227 125.246 114.197 125.396C114.167 125.556 114.267 125.706 114.417 125.736C114.567 125.766 114.707 125.786 114.857 125.786C115.257 125.786 115.657 125.666 116.007 125.446C116.477 125.136 116.807 124.666 116.917 124.116L117.037 123.546C117.177 122.866 116.977 122.166 116.527 121.676C117.277 121.476 117.887 120.876 118.057 120.076L118.177 119.506C118.287 118.976 118.177 118.416 117.897 117.956C118.427 117.666 118.797 117.156 118.927 116.556L119.047 115.986C119.187 115.336 118.997 114.666 118.577 114.166C119.097 113.866 119.467 113.366 119.597 112.776H119.577Z" fill="white"/>
<path d="M106.817 111.276C106.657 111.246 106.507 111.336 106.467 111.496C106.437 111.656 106.527 111.806 106.687 111.846L117.977 114.366C117.977 114.366 118.017 114.366 118.037 114.366C118.167 114.366 118.287 114.276 118.317 114.136C118.347 113.976 118.257 113.826 118.097 113.786L106.807 111.266L106.817 111.276Z" fill="white"/>
<path d="M106.457 119.186C106.297 119.156 106.147 119.256 106.117 119.406C106.087 119.566 106.187 119.716 106.337 119.746L115.757 121.716C115.757 121.716 115.797 121.716 115.817 121.716C115.947 121.716 116.067 121.626 116.097 121.486C116.127 121.326 116.027 121.176 115.877 121.146L106.457 119.176V119.186Z" fill="white"/>
<path d="M105.467 115.066C105.307 115.036 105.157 115.126 105.127 115.286C105.097 115.446 105.187 115.596 105.347 115.626L117.227 118.206C117.227 118.206 117.267 118.206 117.287 118.206C117.417 118.206 117.537 118.116 117.567 117.976C117.597 117.816 117.507 117.666 117.347 117.636L105.467 115.056V115.066Z" fill="white"/>
<path d="M70.5258 292.006C71.7058 293.636 72.7558 292.586 72.7558 292.586C72.7558 292.586 76.2058 286.996 77.9658 285.366C79.7258 283.736 80.0258 282.046 79.7658 279.996C79.5058 277.946 77.6158 276.966 76.5358 273.796C75.4558 270.626 76.9058 265.466 76.9058 265.466C76.9058 265.466 75.7358 264.976 74.0758 266.066C68.9358 269.436 72.0058 273.976 72.0058 273.976C72.0058 273.976 69.2658 271.556 69.1558 274.406C69.1158 275.456 70.9858 277.976 70.9858 277.976C70.9858 277.976 68.0158 276.986 68.3658 278.546C68.4858 279.096 70.8858 281.626 70.2958 282.326C68.4058 280.286 68.2158 281.496 68.2158 281.496C68.2158 281.496 69.6958 283.506 69.4958 287.326C69.3558 290.126 69.3358 290.396 70.5158 292.026L70.5258 292.006Z" fill="#149C8B"/>
<path d="M71.7461 273.406C71.6361 273.286 71.4561 273.286 71.3361 273.406C71.2161 273.516 71.2161 273.696 71.3361 273.816C72.0261 274.536 72.7761 275.346 72.8561 275.456C72.9761 275.646 74.0961 276.796 74.4361 277.146C74.4961 277.206 74.5661 277.236 74.6461 277.236C74.7261 277.236 74.7961 277.206 74.8461 277.156C74.9561 277.046 74.9661 276.866 74.8461 276.746C74.1661 276.046 73.4161 275.256 73.3361 275.146C73.2161 274.956 72.0861 273.786 71.7461 273.426V273.406Z" fill="white"/>
<path d="M71.2254 277.786C71.1254 277.656 70.9454 277.636 70.8154 277.736C70.6854 277.836 70.6654 278.016 70.7654 278.146C70.9454 278.376 71.8554 279.546 72.3254 279.806C72.6654 279.996 73.5054 280.716 73.7954 280.986C73.8454 281.036 73.9154 281.056 73.9854 281.056C74.0654 281.056 74.1454 281.026 74.2054 280.956C74.3154 280.836 74.3054 280.656 74.1854 280.546C74.1454 280.506 73.0754 279.556 72.6154 279.296C72.3354 279.136 71.6154 278.286 71.2354 277.786H71.2254Z" fill="white"/>
<path d="M71.5254 283.526C71.1854 283.046 70.5354 282.146 70.5354 282.146L70.0654 282.486C70.0654 282.486 70.7154 283.386 71.0454 283.866C71.3954 284.366 72.0654 284.976 72.0954 285.006C72.1554 285.056 72.2154 285.076 72.2854 285.076C72.3654 285.076 72.4454 285.046 72.4954 284.986C72.6054 284.866 72.5954 284.686 72.4754 284.576C72.4754 284.576 71.8254 283.986 71.5154 283.536L71.5254 283.526Z" fill="white"/>
<path d="M92.4459 248.546C95.7959 244.306 101.316 233.576 101.316 233.576C101.316 233.576 75.8959 243.326 74.1259 246.776C72.3559 250.226 70.2859 257.616 69.6959 260.866C69.1059 264.116 66.2459 274.366 66.0559 276.236C65.8559 278.106 63.6959 285.696 62.8059 286.796C61.9159 287.896 61.1659 288.366 59.6059 289.786C57.3359 291.856 57.4859 294.466 58.2759 296.436C59.0659 298.406 60.2459 298.706 62.3159 300.276C64.3859 301.856 66.0559 305.106 68.5259 307.866C70.9859 310.626 72.7659 309.836 75.5159 309.636C78.2659 309.436 81.6259 309.636 83.1059 309.636C84.5859 309.636 84.1559 307.926 83.4959 307.176C82.0759 305.546 80.2459 305.506 79.5559 305.206C78.8659 304.906 76.5059 302.546 75.8159 301.756C75.1259 300.966 74.436 298.106 74.336 296.336C74.236 294.566 73.0559 287.666 73.0559 285.496C73.0559 283.326 73.8459 278.696 76.8959 273.876C79.9459 269.046 89.1159 252.796 92.4559 248.556L92.4459 248.546Z" fill="#139C8B"/>
<path d="M75.7658 297.516C75.6058 296.626 74.3058 284.886 74.3058 284.886C74.3058 284.886 71.8958 285.126 69.3858 284.076C66.8758 283.026 64.0858 279.316 64.0858 279.316C64.0858 279.316 63.3558 285.426 59.4158 288.336C54.2258 292.166 57.1158 297.816 58.8358 299.336C60.3058 300.626 60.1658 300.066 62.2958 301.626C64.4258 303.186 65.6458 306.226 68.0858 309.206C71.0358 312.806 74.5258 311.686 74.8058 311.656C75.0858 311.626 75.4458 309.916 76.1358 308.926C78.2458 305.866 80.9658 305.446 80.9658 305.446C80.9658 305.446 78.0458 303.366 76.9858 302.146C75.9358 300.916 75.9358 298.426 75.7658 297.526V297.516Z" fill="#343434"/>
<path d="M57.3862 282.556C57.3862 282.556 59.9362 283.316 62.2362 286.706C63.9262 289.196 64.0762 289.426 66.1362 290.056C68.1962 290.686 68.4162 289.116 68.4162 289.116C68.4162 289.116 67.7562 282.126 68.2062 279.596C68.6562 277.066 67.8162 275.436 66.2762 273.856C64.7362 272.276 62.4862 272.656 59.5162 270.646C56.5462 268.636 54.4562 263.296 54.4562 263.296C54.4562 263.296 53.1362 263.636 52.4262 265.626C50.2162 271.816 55.7662 273.706 55.7662 273.706C55.7662 273.706 51.8662 273.406 53.6062 275.906C54.2462 276.826 57.4662 277.766 57.4662 277.766C57.4662 277.766 54.2862 278.836 55.5962 279.936C56.0562 280.326 59.7362 280.936 59.6762 281.916C56.7562 281.396 57.3662 282.546 57.3662 282.546L57.3862 282.556Z" fill="#149C8B"/>
<path d="M57.6465 273.856C57.4265 273.776 55.7065 273.496 55.1865 273.416C55.0265 273.386 54.8765 273.496 54.8565 273.656C54.8265 273.816 54.9365 273.966 55.0965 273.986C55.9865 274.126 57.3065 274.356 57.4565 274.406C57.6865 274.486 59.3765 274.746 59.8865 274.826C59.8965 274.826 59.9165 274.826 59.9265 274.826C60.0665 274.826 60.1865 274.726 60.2165 274.576C60.2365 274.416 60.1365 274.266 59.9765 274.246C58.9465 274.086 57.7865 273.896 57.6465 273.846V273.856Z" fill="#343434"/>
<path d="M59.7258 277.886C59.3858 277.946 58.2158 277.666 57.5658 277.486C57.4058 277.446 57.2558 277.536 57.2058 277.686C57.1658 277.836 57.2558 277.996 57.4058 278.046C57.5858 278.096 59.2158 278.526 59.7958 278.466C60.2058 278.406 61.3958 278.486 61.8158 278.516H61.8358C61.9858 278.516 62.1258 278.246 62.1358 278.086C62.1458 277.926 62.0158 277.946 61.8558 277.936C61.7958 277.936 60.2758 277.816 59.7158 277.886H59.7258Z" fill="#343434"/>
<path d="M61.5162 282.186C60.9162 281.996 59.7862 281.646 59.7862 281.646L59.6162 282.196C59.6162 282.196 60.7462 282.546 61.3462 282.736C61.9662 282.936 62.9262 283.026 62.9662 283.026C62.9662 283.026 62.9862 283.026 62.9962 283.026C63.1462 283.026 63.2662 282.916 63.2862 282.766C63.2962 282.606 63.1862 282.466 63.0262 282.456C63.0262 282.456 62.0862 282.366 61.5262 282.186H61.5162Z" fill="#343434"/>
<path d="M79.3761 309.346C77.5361 309.346 70.9761 308.946 69.2061 308.016C68.3761 307.576 67.7861 306.466 67.1061 305.186C66.3861 303.826 65.5561 302.276 64.1561 300.896C61.3661 298.156 56.6861 295.586 56.4861 295.476C55.7061 295.046 54.6961 295.296 54.2261 296.026C53.7661 296.756 54.0261 297.696 54.8161 298.126C54.8561 298.146 59.2961 300.586 61.7561 303.006C62.8161 304.046 63.4961 305.316 64.1461 306.546C64.9961 308.136 65.8661 309.786 67.5761 310.686C70.6161 312.286 79.2761 312.416 79.3661 312.416H84.7261C85.6361 312.416 86.3761 311.726 86.3761 310.876C86.3761 310.026 85.6361 309.336 84.7261 309.336H79.3661L79.3761 309.346Z" fill="#343434"/>
<path d="M73.5264 248.056L73.1064 249.086C73.1064 249.086 84.7365 243.076 86.9865 242.126C97.4264 237.716 98.7365 238.436 98.7365 238.436L100.486 235.166C100.486 235.166 96.3765 236.866 93.6765 238.056C90.9765 239.246 81.0164 243.876 80.5264 244.116C76.5164 246.176 73.5264 248.056 73.5264 248.056Z" fill="white"/>
<path d="M38.7954 301.506C38.7954 301.506 41.5454 302.116 44.2154 305.496C46.1754 307.986 46.3554 308.226 48.5754 308.726C50.7954 309.236 50.9054 307.566 50.9054 307.566C50.9054 307.566 49.6754 300.256 49.9654 297.566C50.2454 294.866 49.2454 293.216 47.4954 291.676C45.7554 290.126 43.4155 290.696 40.1455 288.806C36.8755 286.916 34.2654 281.456 34.2654 281.456C34.2654 281.456 32.9054 281.916 32.3054 284.066C30.4454 290.746 36.4354 292.316 36.4354 292.316C36.4354 292.316 32.3155 292.296 34.3355 294.796C35.0755 295.716 38.5454 296.456 38.5454 296.456C38.5454 296.456 35.2854 297.826 36.7454 298.886C37.2554 299.256 41.1754 299.626 41.1954 300.656C38.0754 300.326 38.8154 301.496 38.8154 301.496L38.7954 301.506Z" fill="#149C8B"/>
<path d="M38.4052 292.356C38.1652 292.296 36.3352 292.126 35.7852 292.076C35.6252 292.056 35.4852 292.176 35.4752 292.336C35.4652 292.496 35.5752 292.636 35.7352 292.646C36.8452 292.746 38.1052 292.866 38.2552 292.906C38.4952 292.976 40.2953 293.126 40.8353 293.166H40.8552C41.0052 293.166 41.1353 293.056 41.1453 292.896C41.1553 292.736 41.0352 292.596 40.8852 292.586C39.9552 292.506 38.5652 292.386 38.4052 292.346V292.356Z" fill="white"/>
<path d="M40.8956 296.446C40.5356 296.516 39.2856 296.326 38.5856 296.186C38.4356 296.156 38.2755 296.256 38.2455 296.416C38.2155 296.576 38.3156 296.726 38.4756 296.756C38.6456 296.786 39.9256 297.036 40.6756 297.036C40.8056 297.036 40.9256 297.036 41.0156 297.006C41.4056 296.926 42.4556 296.906 42.9856 296.906C43.0456 296.906 43.1056 296.906 43.1456 296.906C43.3056 296.906 43.4355 296.776 43.4355 296.616C43.4355 296.456 43.3056 296.326 43.1456 296.326C43.0756 296.326 41.4756 296.316 40.8956 296.436V296.446Z" fill="white"/>
<path d="M43.1055 300.826C42.4655 300.666 41.2355 300.386 41.2355 300.386L41.1055 300.946C41.1055 300.946 42.3255 301.226 42.9655 301.386C43.6355 301.546 44.6455 301.566 44.6955 301.566C44.8555 301.566 44.9855 301.436 44.9855 301.286C44.9855 301.126 44.8655 300.996 44.7055 300.996C44.6955 300.996 43.7055 300.976 43.1055 300.826Z" fill="white"/>
<path d="M35.7057 317.706C36.1157 318.386 40.5856 319.976 42.3556 322.036C44.1256 324.106 51.4656 327.056 51.4656 327.056L57.5756 328.086C57.5756 328.086 61.3156 327.596 61.8156 327.196C62.3056 326.806 63.4456 325.966 62.3556 324.486C61.2756 323.006 58.6656 321.486 57.9756 321.286C57.2856 321.086 48.9156 310.106 48.0256 307.146C47.1356 304.186 45.6656 295.616 45.6656 295.616C45.6656 295.616 45.3656 271.676 45.7656 268.226C46.1556 264.776 46.6556 257.686 47.0956 255.516C47.5356 253.346 48.2057 249.896 48.2057 249.896C48.2057 249.896 48.9156 248.246 42.8156 247.886C36.7056 247.526 32.6157 248.016 32.6157 248.016C32.1757 247.126 29.3656 250.676 29.2156 257.026C29.0656 263.376 35.1256 286.436 35.1256 286.436L39.2856 303.426C39.2856 303.426 40.5456 305.936 38.4756 307.906C36.4056 309.876 32.7256 312.626 35.7156 317.656L35.7057 317.706Z" fill="#139C8B"/>
<path d="M32.946 308.556C31.046 310.796 30.626 312.316 30.626 314.826C30.626 317.336 34.376 319.786 36.136 320.216C37.896 320.636 40.346 322.856 41.936 324.076C46.926 327.926 52.046 328.276 52.046 328.276C52.046 328.276 54.606 323.676 56.356 322.646C58.106 321.626 60.176 322.516 60.176 322.516C60.176 322.516 52.956 310.066 51.106 306.996C49.256 303.926 47.996 297.866 47.996 297.866C47.996 297.866 45.176 298.616 41.676 298.886C38.176 299.166 35.066 297.866 35.066 297.866C35.066 297.866 36.236 299.826 36.526 302.706C36.816 305.596 34.846 306.306 32.946 308.546V308.556Z" fill="#343434"/>
<path d="M30.6659 305.226C30.6659 305.226 33.4559 305.546 36.4759 308.626C38.6859 310.896 38.8959 311.116 41.1559 311.386C43.4159 311.656 43.3459 309.986 43.3459 309.986C43.3459 309.986 41.3559 302.846 41.3559 300.136C41.3559 297.426 40.1859 295.886 38.2859 294.536C36.3859 293.176 34.1259 293.996 30.6759 292.456C27.2159 290.916 24.0559 285.766 24.0559 285.766C24.0559 285.766 22.7559 286.366 22.3859 288.566C21.2459 295.406 27.3559 296.336 27.3559 296.336C27.3559 296.336 23.2559 296.746 25.5259 299.026C26.3559 299.866 29.8859 300.236 29.8859 300.236C29.8859 300.236 26.7859 301.936 28.3459 302.846C28.8959 303.166 32.8259 303.116 32.9559 304.146C29.8259 304.146 30.6759 305.226 30.6759 305.226H30.6659Z" fill="#149C8B"/>
<path d="M29.3158 296.166C29.0658 296.126 27.2358 296.156 26.6858 296.166C26.5258 296.166 26.3958 296.296 26.4058 296.456C26.4058 296.616 26.5258 296.746 26.6958 296.736C27.6558 296.716 29.0658 296.706 29.2358 296.736C29.3158 296.746 29.5458 296.756 29.8458 296.756C30.4958 296.756 31.4558 296.736 31.8358 296.726C31.9958 296.726 32.1258 296.586 32.1158 296.426C32.1158 296.266 31.9958 296.166 31.8158 296.146C30.8758 296.166 29.4858 296.186 29.3258 296.166H29.3158Z" fill="#343434"/>
<path d="M32.2256 299.966C31.8756 300.076 30.6056 300.016 29.8956 299.956C29.7356 299.946 29.5956 300.056 29.5856 300.216C29.5756 300.376 29.6856 300.516 29.8456 300.526C29.9756 300.536 30.7256 300.606 31.4156 300.606C31.8156 300.606 32.1856 300.586 32.3956 300.516C32.8156 300.386 34.0556 300.236 34.5056 300.196C34.6656 300.176 34.7856 300.036 34.7656 299.876C34.7456 299.716 34.6056 299.606 34.4456 299.616C34.3756 299.616 32.7856 299.776 32.2156 299.956L32.2256 299.966Z" fill="#343434"/>
<path d="M34.8763 304.096C34.2163 304.006 32.9763 303.856 32.9763 303.856L32.9062 304.426C32.9062 304.426 34.1463 304.576 34.7963 304.666C35.0263 304.696 35.3063 304.706 35.5663 304.706C36.0663 304.706 36.5063 304.666 36.5363 304.666C36.6963 304.656 36.8163 304.516 36.7963 304.356C36.7863 304.196 36.6263 304.076 36.4863 304.096C36.4863 304.096 35.4963 304.186 34.8763 304.096Z" fill="#343434"/>
<path d="M49.2261 327.186C48.3961 326.936 47.4261 326.136 46.0961 325.036C44.9461 324.096 43.5261 322.916 41.5761 321.576C37.0361 318.446 31.4261 316.496 31.1861 316.416C30.2761 316.106 29.2961 316.586 28.9761 317.496C28.6661 318.406 29.1461 319.386 30.0461 319.706C30.0961 319.726 35.4461 321.586 39.5961 324.446C41.4161 325.706 42.7761 326.826 43.8761 327.726C45.5161 329.076 46.7061 330.056 48.2061 330.516C49.0761 330.786 51.1661 330.866 53.5361 330.866C57.0361 330.866 61.1661 330.676 62.8961 330.586C63.8561 330.536 64.5861 329.716 64.5361 328.766C64.4861 327.806 63.6561 327.056 62.7161 327.126C57.0861 327.416 50.3161 327.526 49.2161 327.196L49.2261 327.186Z" fill="#343434"/>
<path d="M40.8663 250.286C39.1363 250.346 38.7663 250.576 37.3263 250.936C35.8863 251.306 34.4863 250.416 33.3663 249.896C32.1063 249.316 31.2563 249.026 31.2563 249.026L30.9863 249.476C30.9863 249.476 31.7663 249.936 33.7863 251.116C35.8063 252.296 35.7563 252.196 38.6163 251.656C41.4763 251.116 42.3663 251.336 44.0563 251.866C45.8463 252.426 47.4563 253.686 47.4563 253.686L47.8763 251.556C47.8763 251.556 45.2163 250.386 44.3363 250.276C42.9763 250.116 42.6063 250.226 40.8663 250.276V250.286Z" fill="white"/>
<path d="M60.2269 16.0957C62.3969 14.1357 62.8669 12.1857 62.6269 11.4757C62.3969 10.7657 62.2169 9.04571 59.7069 8.45571C57.1969 7.86571 54.4469 8.15571 49.1969 7.45571C47.3069 7.20571 43.3069 5.79571 41.9269 5.05571C40.5469 4.30571 39.6869 4.66571 40.0469 5.35571C40.4169 6.04571 42.5169 7.56571 42.5169 7.56571C42.5169 7.56571 41.4169 7.38571 41.9969 8.17571C42.5769 8.96571 43.3569 9.41571 44.1469 9.94571C44.9369 10.4757 47.6469 11.1757 47.6469 11.1757C47.6469 11.1757 45.0169 10.8957 45.9369 12.1757C46.8569 13.4557 49.7169 14.1457 49.7169 14.1457C49.7169 14.1457 47.8469 14.0357 48.3469 14.9457C48.8469 15.8557 52.3869 16.6257 52.3869 16.6257C52.3869 16.6257 49.3769 16.1557 49.8769 17.4557C50.3669 18.7557 51.4769 19.1157 51.8269 19.7957C52.1269 20.3657 51.9969 21.2557 52.4569 22.3057C52.9169 23.3557 53.5969 23.5957 53.5969 23.5957L56.2069 23.3857C56.2069 23.3857 54.2569 22.5057 55.1269 20.9257C56.0069 19.3457 58.0569 18.0557 60.2269 16.0957Z" fill="#139C8B"/>
<path d="M51.237 9.64576C47.647 9.64576 42.697 7.31576 42.647 7.28576C42.507 7.21576 42.327 7.28576 42.257 7.42576C42.187 7.56576 42.257 7.74576 42.397 7.81576C42.607 7.91576 47.507 10.2258 51.237 10.2258C51.397 10.2258 51.5569 10.1058 51.5569 9.93576C51.5569 9.77576 51.427 9.64576 51.267 9.64576C51.267 9.64576 51.247 9.64576 51.237 9.64576Z" fill="white"/>
<path d="M47.4666 10.8256C47.3166 10.7756 47.1466 10.8556 47.1066 11.0156C47.0566 11.1656 47.1366 11.3356 47.2966 11.3756C47.4166 11.4156 50.0866 12.2656 52.9466 12.2656C53.1066 12.2656 53.2666 12.2656 53.4266 12.2656C53.5866 12.2656 53.7066 12.1256 53.7066 11.9656C53.7066 11.8056 53.5566 11.6856 53.4066 11.6856C50.4766 11.7956 47.4966 10.8356 47.4666 10.8256Z" fill="white"/>
<path d="M49.8372 13.8756C49.6972 13.8056 49.5172 13.8756 49.4572 14.0156C49.3872 14.1656 49.4571 14.3356 49.5971 14.3956C50.4771 14.7956 51.5771 14.8956 52.4171 14.8956C53.1371 14.8956 53.6572 14.8256 53.7072 14.8156C53.8672 14.7956 53.9772 14.6456 53.9572 14.4856C53.9372 14.3256 53.7971 14.2056 53.6271 14.2356C53.6071 14.2356 51.3272 14.5356 49.8372 13.8656V13.8756Z" fill="white"/>
<path d="M51.3665 16.0356C51.2265 15.9756 51.0464 16.0356 50.9864 16.1756C50.9164 16.3256 50.9864 16.4956 51.1264 16.5556C52.0064 16.9556 53.1064 17.0556 53.9464 17.0556C54.6664 17.0556 55.1864 16.9856 55.2364 16.9756C55.3964 16.9556 55.5064 16.8056 55.4864 16.6456C55.4664 16.4856 55.3164 16.3756 55.1564 16.3956C55.1364 16.3956 52.8565 16.6956 51.3665 16.0256V16.0356Z" fill="white"/>
<path d="M57.626 1.75563C57.686 0.575627 52.506 -0.414373 47.506 0.175627C42.506 0.765627 35.256 3.38563 30.696 7.76563C23.616 14.5656 22.306 23.3256 23.986 31.2156C25.656 39.0956 29.936 46.6956 32.246 50.0356C34.226 52.8856 37.456 59.4956 37.286 62.3456C37.116 65.2056 35.316 72.9856 35.316 72.9856L42.016 70.6256C46.346 67.8456 47.566 62.4756 48.306 57.3856L53.516 21.8156C53.516 21.8156 52.376 22.5256 53.056 16.9756C53.736 11.4256 57.566 2.95563 57.626 1.77563V1.75563Z" fill="#343434"/>
<path d="M33.9865 22.6055C35.2165 23.3855 36.3665 22.9955 37.0865 23.3355C37.6965 23.6255 38.1465 24.4455 39.1865 25.0355C40.2165 25.6255 40.9565 25.3955 40.9565 25.3955L43.0065 23.5755C43.0065 23.5755 40.8265 24.0655 40.5565 22.1955C40.2965 20.3255 41.1965 17.9555 41.7765 14.9555C42.3565 11.9555 41.5265 10.0255 40.8765 9.58554C40.2265 9.14554 39.0065 7.81554 36.5465 8.89554C34.0865 9.97554 31.9665 11.9455 27.1365 14.6555C25.3965 15.6355 21.1765 16.9655 19.5465 17.2155C17.9165 17.4655 17.4265 18.2955 18.1665 18.6455C18.9065 18.9855 21.6165 18.9455 21.6165 18.9455C21.6165 18.9455 20.5865 19.4855 21.5665 19.7855C22.5465 20.0855 23.4865 19.9655 24.4765 19.9155C25.4665 19.8655 28.1665 18.7455 28.1665 18.7455C28.1665 18.7455 25.7965 20.1655 27.3765 20.6555C28.9565 21.1455 31.7665 19.9255 31.7665 19.9255C31.7665 19.9255 30.1365 21.0055 31.1265 21.4555C32.1165 21.8955 35.5565 20.3255 35.5565 20.3255C35.5565 20.3255 32.7465 21.8155 33.9765 22.5955L33.9865 22.6055Z" fill="#139C8B"/>
<path d="M30.2463 15.2256C27.2563 17.4956 21.6263 18.6556 21.5663 18.6656C21.4063 18.6956 21.3064 18.8456 21.3364 19.0056C21.3664 19.1456 21.4864 19.2356 21.6164 19.2356C21.6364 19.2356 21.6564 19.2356 21.6764 19.2356C21.9164 19.1856 27.4864 18.0356 30.5864 15.6856C30.7164 15.5856 30.7364 15.4056 30.6464 15.2756C30.5464 15.1456 30.3664 15.1256 30.2364 15.2156L30.2463 15.2256Z" fill="white"/>
<path d="M33.316 15.5755C30.926 17.5055 27.846 18.5755 27.816 18.5855C27.666 18.6355 27.586 18.8055 27.636 18.9555C27.676 19.0755 27.786 19.1555 27.906 19.1555C27.936 19.1555 27.966 19.1555 27.996 19.1355C28.126 19.0955 31.196 18.0255 33.676 16.0255C33.796 15.9255 33.816 15.7455 33.716 15.6155C33.616 15.4955 33.436 15.4755 33.306 15.5755H33.316Z" fill="white"/>
<path d="M35.1162 17.5856C35.1162 17.5856 33.3762 19.2856 31.7062 19.6556C31.5462 19.6856 31.4562 19.8456 31.4862 20.0056C31.5162 20.1456 31.6362 20.2356 31.7662 20.2356C31.7862 20.2356 31.8062 20.2356 31.8262 20.2356C33.6562 19.8256 35.4362 18.0856 35.5162 18.0156C35.6262 17.9056 35.6262 17.7156 35.5162 17.6056C35.4062 17.4956 35.2162 17.4856 35.1062 17.6056L35.1162 17.5856Z" fill="white"/>
<path d="M37.7461 18.4157C37.7461 18.4157 36.0061 20.1157 34.3361 20.4857C34.1761 20.5157 34.0861 20.6757 34.1161 20.8357C34.1461 20.9757 34.2661 21.0657 34.3961 21.0657C34.4161 21.0657 34.4361 21.0657 34.4561 21.0657C36.2861 20.6557 38.0661 18.9157 38.1461 18.8457C38.2561 18.7357 38.2561 18.5457 38.1461 18.4357C38.0361 18.3257 37.8461 18.3157 37.7361 18.4357L37.7461 18.4157Z" fill="white"/>
<path d="M46.7061 18.0257C45.3261 15.3357 44.3961 13.1657 45.0661 9.69571C45.4561 7.68571 46.2261 5.89571 46.7961 4.58571C47.1661 3.72571 47.4561 3.05571 47.5561 2.55571C47.6461 2.05571 47.5561 1.67571 47.2861 1.41571C46.8561 1.00571 46.0361 0.965706 44.7061 1.28571C41.9861 1.94571 38.9761 3.15571 38.9461 3.16571C38.7961 3.22571 38.7261 3.39571 38.7861 3.54571C38.8461 3.69571 39.0161 3.76571 39.1661 3.70571C39.1961 3.69571 42.1561 2.49571 44.8361 1.84571C46.1961 1.51571 46.6961 1.65571 46.8861 1.82571C46.9361 1.86571 47.0661 2.00571 46.9861 2.44571C46.9061 2.88571 46.6261 3.53571 46.2661 4.35571C45.6861 5.68571 44.8961 7.51571 44.4961 9.58571C43.7961 13.2357 44.7961 15.5857 46.1861 18.2957C47.4361 20.7257 47.6161 21.0757 47.7961 21.0757C47.8261 21.0757 47.8561 21.0657 47.8961 21.0557L47.8061 20.7657L48.0461 20.6157C48.0461 20.6157 47.8661 20.3157 46.6961 18.0357L46.7061 18.0257Z" fill="white"/>
<path d="M29.4968 26.0656C29.3768 25.9656 29.1968 25.9756 29.0868 26.1056C28.9868 26.2256 28.9968 26.4156 29.1268 26.5156C29.1468 26.5256 30.9068 28.0056 32.4668 29.4556C34.0468 30.9356 35.0068 31.5356 35.0468 31.5656C35.0968 31.5956 35.1468 31.6056 35.1968 31.6056C35.2968 31.6056 35.3868 31.5556 35.4468 31.4656C35.5268 31.3256 35.4868 31.1556 35.3568 31.0656C35.3568 31.0656 34.3968 30.4656 32.8668 29.0256C31.3068 27.5556 29.5268 26.0756 29.5068 26.0556L29.4968 26.0656Z" fill="white"/>
<path d="M31.5767 33.4056C29.9867 32.8156 28.6167 32.6056 28.5667 32.6056C28.4067 32.5856 28.2567 32.6956 28.2367 32.8456C28.2167 33.0056 28.3267 33.1556 28.4767 33.1756C28.4867 33.1756 29.8467 33.3756 31.3767 33.9456C32.9667 34.5456 34.3267 34.6656 34.3867 34.6656C34.3867 34.6656 34.4067 34.6656 34.4167 34.6656C34.5667 34.6656 34.6867 34.5556 34.7067 34.4056C34.7167 34.2456 34.6067 34.1056 34.4467 34.0956C34.4367 34.0956 33.1067 33.9756 31.5967 33.4056H31.5767Z" fill="white"/>
<path d="M42.0368 15.9155C41.8768 15.9155 41.7568 16.0555 41.7568 16.2155C41.8568 18.5955 43.3468 20.6655 44.5568 22.3255C44.6168 22.4055 44.7068 22.4455 44.7868 22.4455C44.8468 22.4455 44.9068 22.4255 44.9568 22.3955C45.0868 22.3055 45.1168 22.1255 45.0168 21.9955C43.8568 20.3955 42.4168 18.4055 42.3268 16.1955C42.3268 16.0355 42.1768 15.9255 42.0268 15.9155H42.0368Z" fill="white"/>
<path d="M69.4566 66.3255C67.2766 66.6955 63.1866 65.8355 61.2266 64.2355C59.2566 62.6355 59.3466 52.4055 59.0466 52.5155C51.3566 55.4155 44.0866 48.6655 44.0866 48.6655C44.2866 54.4455 45.0066 59.1855 42.7166 64.3355C41.8066 66.3855 33.9266 71.0055 34.1266 71.1555C34.7866 71.6155 17.0166 74.0455 13.6166 82.8655C12.0266 86.9855 23.1366 101.066 23.3366 101.426C24.8166 104.076 26.7866 113.806 31.8666 123.686C35.3566 130.486 32.7566 139.416 32.6066 140.816C32.0866 145.526 27.5366 166.096 30.3866 169.646C31.5466 171.086 58.6166 167.046 59.3966 165.066C67.9566 143.316 63.5566 70.7855 65.5766 68.8055C67.2766 67.1455 69.8766 66.2555 69.4566 66.3355V66.3255Z" fill="#139C8B"/>
<path d="M37.5365 107.815C35.9665 107.515 34.7765 105.705 33.7165 104.105C33.0965 103.155 32.5066 102.265 31.8966 101.805C30.2966 100.585 28.1465 100.355 28.0565 100.345C27.8965 100.325 27.7566 100.445 27.7366 100.605C27.7166 100.765 27.8365 100.905 27.9965 100.925C28.0165 100.925 30.0766 101.155 31.5466 102.275C32.0766 102.675 32.6366 103.535 33.2366 104.435C34.3566 106.135 35.6266 108.055 37.4266 108.395C40.0666 108.895 43.5566 109.195 43.5866 109.195H43.6066C43.7566 109.195 43.8766 109.085 43.8966 108.925C43.9066 108.765 43.7965 108.625 43.6365 108.615C43.6065 108.615 40.1465 108.315 37.5365 107.815Z" fill="white"/>
<path d="M44.167 51.8855C44.167 51.8855 46.977 57.4455 51.977 58.7255C53.407 59.0955 55.737 58.7755 56.587 58.3255C58.077 57.5355 59.377 56.2555 59.377 56.2555L59.247 53.9355C59.247 53.9355 56.437 56.3255 53.427 56.4555C49.127 56.6455 44.167 51.8855 44.167 51.8855Z" fill="#343434"/>
<path d="M48.3668 21.2655C45.3568 21.4455 41.0068 23.7055 39.5968 25.1855C38.1968 26.6655 33.8068 30.0155 34.2568 38.0155C34.4168 40.8555 37.2868 46.1455 37.2868 46.1455L66.0168 43.1855C66.0168 43.1855 66.3268 30.5655 61.6768 25.6255C59.9568 23.7955 56.5168 20.7655 48.3668 21.2555V21.2655Z" fill="#343434"/>
<path d="M49.1271 28.2356C46.7171 28.4356 41.8471 32.2556 41.3271 34.0456C38.7971 42.9256 40.3071 45.9956 42.1971 49.3656C44.0671 52.6956 49.8571 56.7156 51.6671 57.6856C53.3671 58.1856 56.0571 57.9956 57.3271 56.8956C57.7171 56.4756 60.6171 53.3656 60.9471 52.8756C65.0771 46.8456 63.4271 38.3256 62.2071 30.8556C60.9271 28.5656 54.9371 27.7456 49.1171 28.2356H49.1271Z" fill="#139C8B"/>
<path d="M53.4465 34.2655L44.1365 31.4055L36.8965 35.9355L37.4365 50.0755L43.2465 55.6455L43.2665 38.7055L47.4965 35.7855L54.7565 38.1355L59.5165 35.0855L63.1465 37.4155L63.2565 53.9455L67.0065 47.0055C67.0065 47.0055 65.8065 32.0055 65.8265 31.7055C65.8465 31.4055 59.5265 30.8555 59.5265 30.8555L53.4365 34.2655H53.4465Z" fill="#343434"/>
<path d="M36.677 33.9055C36.517 33.9055 36.387 34.0455 36.397 34.2055L36.817 48.6955C36.817 48.8555 36.947 48.9755 37.107 48.9755C37.267 48.9755 37.397 48.8355 37.387 48.6755L36.967 34.1855C36.967 34.0255 36.827 33.8855 36.667 33.9055H36.677Z" fill="#139C8B"/>
<path d="M49.7665 38.7956C47.3065 38.6956 46.4365 39.4256 46.4365 39.4256C46.4365 39.4256 47.6965 39.9956 49.3465 40.1556C51.1165 40.3256 52.7965 41.3956 52.8565 41.3656C53.0065 41.2956 52.9965 39.8156 52.9965 39.8156C52.9965 39.8156 52.6465 39.3856 52.2165 39.1756C51.9565 39.0556 51.5965 38.8456 50.6365 38.7156C50.8065 38.9856 51.1765 39.6356 51.1165 39.6356C51.0465 39.5756 50.5865 38.8356 49.7665 38.7956Z" fill="#343434"/>
<path d="M56.4362 39.1656C55.9962 39.3756 55.6562 39.8056 55.6562 39.8056C55.6562 39.8056 55.6563 41.2856 55.7963 41.3556C55.8663 41.3856 57.5462 40.3256 59.3062 40.1456C60.9562 39.9856 62.2162 39.4156 62.2162 39.4156C62.2162 39.4156 61.3563 38.6856 58.8863 38.7856C58.0563 38.8156 57.5963 39.5656 57.5363 39.6256C57.4763 39.6256 57.8463 38.9756 58.0163 38.7056C57.0563 38.8356 56.6962 39.0356 56.4362 39.1656Z" fill="#343434"/>
<path d="M58.0769 41.9856C57.2569 42.1256 56.6669 42.7056 56.7669 43.2856C56.8669 43.8656 57.6169 44.2156 58.4369 44.0756C59.2569 43.9356 59.8469 43.3556 59.7469 42.7756C59.6469 42.1956 58.8969 41.8456 58.0769 41.9856Z" fill="#343434"/>
<path d="M58.5373 42.9557C58.5873 43.2457 58.8573 43.4457 59.1373 43.4057C59.4173 43.3557 59.6073 43.0757 59.5573 42.7857C59.5073 42.4957 59.2373 42.2957 58.9573 42.3357C58.6773 42.3857 58.4873 42.6657 58.5373 42.9557Z" fill="white"/>
<path d="M48.927 41.9757C48.087 42.1157 47.487 42.7557 47.597 43.3957C47.707 44.0357 48.477 44.4357 49.317 44.2957C50.157 44.1557 50.757 43.5157 50.647 42.8757C50.537 42.2357 49.767 41.8357 48.927 41.9757Z" fill="#343434"/>
<path d="M49.4972 43.1556C49.5472 43.4456 49.8173 43.6456 50.0973 43.6056C50.3773 43.5556 50.5673 43.2756 50.5173 42.9856C50.4673 42.6956 50.1973 42.4956 49.9173 42.5356C49.6373 42.5856 49.4472 42.8656 49.4972 43.1556Z" fill="white"/>
<path d="M55.1765 48.0755C54.6565 48.1555 53.3865 48.0455 52.9465 47.9955C52.7165 47.9755 52.4964 48.1455 52.4664 48.3855C52.4464 48.6255 52.6165 48.8355 52.8565 48.8655C52.9865 48.8755 53.9064 48.9755 54.6564 48.9755C54.8964 48.9755 55.1265 48.9755 55.2965 48.9455C55.6565 48.8955 55.9464 48.7255 56.1264 48.4455C56.3864 48.0655 56.4264 47.5055 56.2564 46.7855C56.1564 46.3555 55.9764 45.9855 55.8064 45.6155C55.6164 45.2055 55.4365 44.8155 55.3865 44.4155L55.3764 44.3055C55.3364 43.9955 55.2865 43.5955 55.3365 43.2755C55.4065 42.7855 55.5265 42.5655 55.6665 42.3055C55.9065 41.8555 56.1665 41.3755 56.0765 39.7855C56.0665 39.5455 55.8365 39.3555 55.6165 39.3755C55.3765 39.3855 55.1965 39.5955 55.2065 39.8355C55.2765 41.1855 55.1065 41.5155 54.8965 41.9055C54.7465 42.1955 54.5665 42.5155 54.4765 43.1555C54.4065 43.5955 54.4664 44.0555 54.5264 44.5255C54.5864 45.0555 54.8065 45.5255 55.0165 45.9855C55.1765 46.3255 55.3264 46.6555 55.4064 46.9955C55.5664 47.6355 55.4564 47.8855 55.4064 47.9655C55.3764 48.0155 55.3165 48.0655 55.1665 48.0855L55.1765 48.0755Z" fill="#343434"/>
<path d="M52.1065 51.2957C51.5765 51.2957 51.1465 51.7257 51.1465 52.2557C51.1465 52.7857 51.5765 53.2157 52.1065 53.2157H55.9665C56.4965 53.2157 56.9265 52.7857 56.9265 52.2557C56.9265 51.7257 56.4965 51.2957 55.9665 51.2957H52.1065Z" fill="white"/>
<path d="M50.5166 51.6956C50.3566 51.6956 50.2266 51.8256 50.2266 51.9856C50.2266 52.1456 50.3566 52.2756 50.5166 52.2756H57.3166C57.4766 52.2756 57.6066 52.1456 57.6066 51.9856C57.6066 51.8256 57.4766 51.6956 57.3166 51.6956H50.5166Z" fill="#343434"/>
<path d="M35.9072 33.2355L36.5472 36.1655L44.1372 31.4055L53.4472 34.2655L59.3772 30.9455L65.5372 31.5755L65.0472 28.7755L51.8772 23.5955L35.9072 33.2355Z" fill="#139C8B"/>
<path d="M59.2677 29.1755C59.2077 29.1755 59.1477 29.1755 59.0877 29.2055L53.0676 32.3955L44.4976 29.8255C44.4176 29.8055 44.3277 29.8155 44.2577 29.8555L36.7377 34.5055C36.5977 34.5855 36.5577 34.7655 36.6477 34.9055C36.6977 34.9955 36.7977 35.0455 36.8977 35.0455C36.9477 35.0455 36.9977 35.0355 37.0477 35.0055L44.4577 30.4255L53.0177 32.9955C53.0877 33.0155 53.1677 33.0055 53.2377 32.9755L59.2776 29.7655L64.8377 30.5655C64.9877 30.5755 65.1377 30.4755 65.1677 30.3155C65.1877 30.1555 65.0777 30.0055 64.9177 29.9855L59.2677 29.1755Z" fill="white"/>
<path d="M51.7974 25.1955L47.0074 28.3255C46.8774 28.4155 46.8374 28.5955 46.9274 28.7255C46.9874 28.8055 47.0774 28.8555 47.1674 28.8555C47.2174 28.8555 47.2774 28.8355 47.3274 28.8055L51.9874 25.7555L57.2474 28.0455C57.3974 28.1155 57.5674 28.0455 57.6274 27.8955C57.6874 27.7455 57.6274 27.5755 57.4774 27.5155L52.0674 25.1555C51.9774 25.1155 51.8774 25.1255 51.7974 25.1755V25.1955Z" fill="white"/>
<path d="M52.1677 26.6156C52.0777 26.5756 51.9677 26.5856 51.8877 26.6456L48.0677 29.2256C47.9777 29.2856 47.9277 29.3956 47.9477 29.5056C47.9677 29.6156 48.0377 29.7056 48.1477 29.7356L52.5477 31.1256C52.5477 31.1256 52.6077 31.1356 52.6377 31.1356C52.6877 31.1356 52.7277 31.1256 52.7677 31.1056L56.6677 29.0956C56.7677 29.0456 56.8277 28.9456 56.8277 28.8256C56.8277 28.7156 56.7577 28.6156 56.6577 28.5656L52.1777 26.5956L52.1677 26.6156ZM52.6077 30.5456L48.8977 29.3756L52.0878 27.2156L55.8678 28.8756L52.6077 30.5556V30.5456Z" fill="white"/>
<path d="M68.8057 74.3458C66.4957 74.2358 64.1357 71.6658 64.1357 71.6658C64.1357 71.6658 62.9357 73.3858 62.2057 75.4558C61.4757 77.5258 61.1357 78.8258 61.1357 78.8258C61.1357 78.8258 66.6858 82.3258 68.3958 83.5558C70.0858 84.7658 73.0457 86.3058 73.0457 86.3058C73.0457 86.3058 72.7057 83.7058 72.1657 80.3058C71.6457 77.0158 70.8957 74.3558 70.8457 74.1858C70.8457 74.2658 70.6657 74.4358 68.8157 74.3558L68.8057 74.3458Z" fill="#343434"/>
<path d="M69.9867 62.6657C68.8267 62.6457 68.8266 61.7157 68.1966 61.6357C67.5766 61.5557 66.3367 62.3357 65.5767 62.0057C65.1367 61.8157 64.6167 61.5757 63.9567 61.2557C60.9967 59.8257 60.0867 61.6757 60.0867 61.6757C60.0867 61.6757 59.7866 63.4857 62.5566 65.5157C63.3966 66.1357 64.9666 69.2557 64.9666 69.2557H70.8766C70.8766 69.2557 72.6966 66.4457 73.8766 66.3957C75.0566 66.3457 77.3667 67.3457 77.3667 67.3457C77.3667 67.3457 76.9666 64.0357 76.1866 63.3757C75.3566 62.6757 74.8666 62.0557 73.1266 62.0657C72.4166 62.0657 70.8366 62.6657 69.9766 62.6457L69.9867 62.6657Z" fill="#343434"/>
<path d="M63.5566 61.6357C63.3966 61.6357 63.2666 61.7657 63.2666 61.9257C63.2666 63.6657 65.9766 67.9757 66.0966 68.1657C66.1466 68.2557 66.2466 68.3057 66.3366 68.3057C66.3866 68.3057 66.4466 68.2957 66.4866 68.2657C66.6266 68.1757 66.6666 68.0057 66.5766 67.8657C65.8166 66.6557 63.8366 63.2357 63.8366 61.9357C63.8366 61.7757 63.7066 61.6457 63.5466 61.6457L63.5566 61.6357Z" fill="white"/>
<path d="M67.9364 63.0158C67.7864 62.9858 67.6264 63.0858 67.5964 63.2358C67.5764 63.3558 66.9965 66.1858 67.8365 67.9058C67.8865 68.0058 67.9864 68.0658 68.0964 68.0658C68.1364 68.0658 68.1865 68.0658 68.2265 68.0358C68.3665 67.9658 68.4265 67.7958 68.3565 67.6458C67.5965 66.1058 68.1565 63.3758 68.1665 63.3558C68.1965 63.1958 68.0965 63.0458 67.9465 63.0158H67.9364Z" fill="white"/>
<path d="M72.8663 64.0558C71.7763 64.8858 69.9262 67.4058 69.8462 67.5158C69.7562 67.6458 69.7762 67.8258 69.9062 67.9158C69.9562 67.9558 70.0163 67.9758 70.0763 67.9758C70.1663 67.9758 70.2562 67.9358 70.3062 67.8558C70.3262 67.8258 72.1862 65.2958 73.2162 64.5158C74.9562 63.1858 76.0363 63.6358 76.0763 63.6458C76.2163 63.7058 76.3963 63.6458 76.4563 63.5058C76.5263 63.3558 76.4562 63.1858 76.3162 63.1258C76.2562 63.0958 74.8963 62.5058 72.8663 64.0558Z" fill="white"/>
<path d="M65.036 75.0757L63.296 78.8557C63.226 79.0057 63.296 79.1757 63.436 79.2357C63.476 79.2557 63.516 79.2657 63.556 79.2657C63.666 79.2657 63.766 79.2057 63.816 79.0957L65.556 75.3157C65.626 75.1657 65.556 74.9957 65.416 74.9357C65.276 74.8657 65.096 74.9357 65.036 75.0757Z" fill="white"/>
<path d="M67.0361 80.9758C67.0361 80.9758 67.0761 80.9758 67.0961 80.9758C67.2361 80.9758 67.3561 80.8758 67.3761 80.7458C67.3961 80.6158 67.9961 77.5358 67.8061 75.6958C67.7861 75.5358 67.6461 75.4158 67.4861 75.4358C67.3261 75.4558 67.2161 75.5958 67.2261 75.7558C67.4061 77.5058 66.8061 80.6058 66.8061 80.6458C66.7761 80.8058 66.8761 80.9558 67.0361 80.9858V80.9758Z" fill="white"/>
<path d="M68.9462 75.3256C68.8162 75.4056 68.7662 75.5856 68.8562 75.7256C69.8762 77.3456 70.2262 82.2856 70.2262 82.3356C70.2362 82.4856 70.3662 82.6056 70.5162 82.6056C70.5162 82.6056 70.5262 82.6056 70.5362 82.6056C70.6962 82.5956 70.8162 82.4556 70.8062 82.2956C70.7962 82.0856 70.4462 77.1556 69.3462 75.4156C69.2662 75.2756 69.0862 75.2356 68.9462 75.3256Z" fill="white"/>
<path d="M67.6259 75.4557C66.2759 75.4557 65.0759 74.8457 64.2559 73.8957C64.7559 75.8157 66.4859 77.2457 68.5659 77.2457C71.0359 77.2457 73.0359 75.2457 73.0359 72.7757C73.0359 71.6557 72.6159 70.6457 71.9359 69.8657C72.0259 70.2257 72.0959 70.5957 72.0959 70.9857C72.0959 73.4557 70.0959 75.4557 67.6259 75.4557Z" fill="white"/>
<path d="M73.4366 67.0457C74.0966 66.5957 75.1866 66.5957 75.1866 66.5957C75.1866 66.5957 74.3167 66.3257 73.8867 66.4057C72.8067 66.5957 71.6166 68.1257 71.2866 68.6557C70.9566 69.1857 71.3766 76.2557 71.3766 76.2557L73.0066 85.5457C73.0066 85.5457 72.6567 79.5057 72.3867 77.6457C72.0667 75.4757 70.9366 68.7657 73.4466 67.0457H73.4366Z" fill="white"/>
<path d="M60.0762 78.0958C60.0362 78.4358 61.1862 78.6558 61.1862 78.6558C61.1862 78.6558 61.9662 76.5858 62.7262 74.9658C63.4862 73.3458 64.4362 72.5258 64.4362 72.5258L64.9562 68.9458C64.9562 68.9458 64.1762 67.1158 63.4162 66.2758C62.6562 65.4358 62.5562 65.5258 62.5562 65.5258C62.5562 65.5258 64.2262 68.7158 64.2662 69.2658C64.2962 69.8158 63.9362 71.5758 63.3462 72.4058C62.7562 73.2358 60.1162 77.7458 60.0862 78.0958H60.0762Z" fill="white"/>
<path d="M63.5566 71.6658C63.5566 74.1358 65.5566 76.1358 68.0266 76.1358C70.4966 76.1358 72.4966 74.1358 72.4966 71.6658C72.4966 69.1958 70.4966 67.1958 68.0266 67.1958C65.5566 67.1958 63.5566 69.1958 63.5566 71.6658Z" fill="#139C8B"/>
<path d="M68.0962 73.8459C69.4879 73.8459 70.6162 72.7177 70.6162 71.3259C70.6162 69.9341 69.4879 68.8059 68.0962 68.8059C66.7044 68.8059 65.5762 69.9341 65.5762 71.3259C65.5762 72.7177 66.7044 73.8459 68.0962 73.8459Z" fill="#343434"/>
<path d="M33.666 130.966V134.626L35.196 130.946C35.196 130.946 40.016 119.436 40.206 118.956C40.396 118.486 44.326 108.466 44.326 108.466L42.226 106.686C42.226 106.686 41.476 110.276 40.886 112.536C40.296 114.806 33.666 130.956 33.666 130.956V130.966Z" fill="white"/>
<path d="M41.1758 66.9458C41.1758 66.9458 44.8358 70.3058 50.1158 73.1858C52.9758 74.7458 64.3458 81.8158 70.0758 84.6458C76.1958 87.6658 81.3858 91.5558 81.3858 91.5558C81.3858 91.5558 76.3758 87.2758 74.5758 86.3058C65.6858 81.5258 53.4958 74.0258 52.0158 73.2058C50.5358 72.3958 41.1758 66.9458 41.1758 66.9458Z" fill="white"/>
<path d="M23.6861 204.126C23.4861 206.296 22.5061 222.946 22.5061 225.996C22.5061 229.046 21.6161 246.386 21.6161 246.386C21.6161 246.386 29.2961 247.766 33.4361 250.026C37.5761 252.296 36.1961 250.236 42.5961 250.226C46.2861 250.226 43.3861 250.426 51.0661 252.496C58.7461 254.566 57.4661 253.186 63.1861 252.496C68.8961 251.806 74.6161 247.766 76.6861 246.286C78.7561 244.806 97.3761 236.136 101.606 234.756C105.846 233.376 103.776 234.956 106.726 235.746C109.686 236.536 108.206 235.546 110.176 234.856C112.146 234.166 116.086 230.766 116.086 230.766C116.086 230.766 106.336 205.946 104.556 200.626C102.786 195.306 88.8961 152.656 88.8961 152.656L80.7161 126.496C80.7161 126.496 82.9861 124.726 84.0661 124.136C85.1461 123.546 81.7961 121.086 81.7961 121.086C81.7961 121.086 82.6861 119.606 83.6661 118.036C84.6561 116.456 85.4361 115.476 85.4361 114.096C85.4361 112.716 83.2661 110.646 83.2661 110.646C83.2661 110.646 84.4461 108.976 85.1361 108.286C85.8261 107.596 85.6261 106.016 85.8261 105.136C86.0261 104.246 87.0061 101.686 87.0061 101.686L84.0061 98.3357V93.6557C84.0061 93.6557 80.4561 90.5557 75.5861 87.7457C70.7061 84.9357 71.5861 85.2157 63.2161 80.3857C55.4561 75.9157 49.9761 73.3857 44.1561 69.0057C39.9761 65.8557 38.6761 65.8557 38.6761 65.8557C38.6761 65.8557 34.3961 68.0957 28.7461 67.4657C26.7561 67.2457 25.4561 70.0557 23.6861 70.9757C21.9961 71.8557 20.4661 70.6857 18.7761 72.1257C18.3361 72.4957 17.9461 74.7857 17.5061 75.2157C16.6661 76.0357 14.1561 75.7457 13.4461 76.8157C12.8961 77.6457 13.3861 81.1557 12.6861 81.8257C9.12611 85.2457 12.6361 86.5557 12.6361 86.5557C12.6361 86.5557 13.8461 80.9957 19.9761 86.3157C23.9861 89.7957 31.6161 97.0857 44.1561 108.836C34.2161 135.076 31.4461 136.186 27.7661 155.306C27.0761 159.046 23.8761 201.976 23.6761 204.146L23.6861 204.126Z" fill="#343434"/>
<path d="M88.5259 182.016C88.3759 182.056 88.2859 182.216 88.3259 182.376C88.4259 182.736 98.2259 218.016 98.8159 220.786C99.4059 223.576 103.036 233.926 103.196 234.366C103.236 234.486 103.346 234.556 103.466 234.556C103.496 234.556 103.526 234.556 103.566 234.536C103.716 234.486 103.796 234.316 103.746 234.166C103.706 234.056 99.9659 223.416 99.3859 220.666C98.7959 217.876 89.2959 183.676 88.8859 182.216C88.8459 182.066 88.6859 181.966 88.5259 182.016Z" fill="white"/>
<path d="M60.6659 206.866C60.6859 206.706 60.5759 206.566 60.4159 206.546C60.2659 206.526 60.1159 206.636 60.0959 206.796C60.0659 207.006 57.5759 228.126 57.4359 231.936C57.2859 235.756 58.7059 248.576 58.7659 249.116C58.7859 249.266 58.9059 249.376 59.0559 249.376C59.0659 249.376 59.0759 249.376 59.0859 249.376C59.2459 249.356 59.3559 249.216 59.3459 249.056C59.3359 248.926 57.8759 235.736 58.0159 231.956C58.1659 228.166 60.6459 207.076 60.6759 206.856L60.6659 206.866Z" fill="white"/>
<path d="M49.0159 202.516C48.9959 202.726 46.7959 223.126 46.7959 229.806V248.066C46.7959 248.226 46.9259 248.356 47.0859 248.356C47.2459 248.356 47.3759 248.226 47.3759 248.066V229.806C47.3759 223.166 49.5659 202.786 49.5859 202.586C49.6059 202.426 49.4859 202.286 49.3259 202.266C49.1759 202.256 49.0259 202.366 49.0059 202.526L49.0159 202.516Z" fill="white"/>
<path d="M60.9758 120.376C60.8158 120.346 60.6658 120.456 60.6458 120.616C60.6058 120.866 56.6158 145.286 58.3758 160.906C60.1358 176.506 60.6358 178.596 60.6558 178.676C60.6858 178.806 60.8058 178.896 60.9358 178.896C60.9558 178.896 60.9858 178.896 61.0058 178.896C61.1558 178.856 61.2558 178.706 61.2158 178.546C61.1958 178.466 60.6958 176.326 58.9558 160.856C57.2058 145.316 61.1858 120.966 61.2258 120.726C61.2558 120.566 61.1458 120.416 60.9858 120.396L60.9758 120.376Z" fill="white"/>
<path d="M55.8357 117.036C55.6757 117.016 55.5356 117.126 55.5156 117.286C55.3756 118.426 51.9656 145.136 52.0656 148.466C52.1656 151.776 52.0656 163.506 52.0656 163.626C52.0656 163.786 52.1956 163.916 52.3556 163.916C52.5156 163.916 52.6457 163.786 52.6457 163.626C52.6457 163.506 52.7457 151.756 52.6457 148.446C52.5457 145.156 56.0557 117.636 56.0857 117.356C56.1057 117.196 55.9957 117.056 55.8357 117.036Z" fill="white"/>
<path d="M49.6758 112.906C49.5658 113.116 39.1358 133.796 38.1158 148.176C37.3958 158.306 31.6958 191.826 31.6358 192.166C31.6058 192.326 31.7158 192.476 31.8758 192.496C31.8958 192.496 31.9058 192.496 31.9258 192.496C32.0658 192.496 32.1858 192.396 32.2058 192.256C32.2658 191.916 37.9658 158.366 38.6958 148.206C39.7158 133.946 50.0958 113.366 50.1958 113.156C50.2658 113.016 50.2158 112.836 50.0658 112.766C49.9258 112.696 49.7458 112.746 49.6758 112.896V112.906Z" fill="white"/>
<path d="M69.8456 125.476C69.8456 125.316 69.7256 125.206 69.5456 125.196C69.3856 125.196 69.2656 125.336 69.2656 125.496C69.2956 126.306 72.2356 206.236 73.6956 219.286C75.1556 232.366 77.0256 236.916 77.1056 237.096C77.1556 237.206 77.2556 237.276 77.3756 237.276C77.4156 237.276 77.4556 237.276 77.4856 237.256C77.6356 237.196 77.7056 237.026 77.6356 236.876C77.6156 236.826 75.7156 232.196 74.2656 219.226C72.8156 206.206 69.8656 126.286 69.8456 125.486V125.476Z" fill="white"/>
<path d="M56.3459 94.6755C56.3459 94.6755 69.1659 108.506 76.1059 115.136C78.5259 117.146 80.6759 119.506 82.7659 121.856C79.3959 116.476 74.2759 112.466 70.4959 107.346C67.0059 103.136 59.9359 98.6955 56.3359 94.6755H56.3459Z" fill="white"/>
<path d="M45.5356 76.6057C45.4256 76.7257 45.4356 76.9057 45.5556 77.0157C45.6256 77.0757 52.7256 83.5257 58.5756 87.9157C64.4856 92.3457 83.9956 106.926 83.9956 106.926L84.3456 106.466C84.3456 106.466 64.8456 91.8857 58.9256 87.4557C53.0956 83.0857 46.0156 76.6557 45.9456 76.5957C45.8256 76.4857 45.6456 76.4957 45.5356 76.6157V76.6057Z" fill="white"/>
<path d="M65.416 85.8357C65.326 85.9657 65.356 86.1457 65.486 86.2357L86.226 101.196C86.276 101.236 86.336 101.246 86.396 101.246C86.486 101.246 86.576 101.206 86.626 101.126C86.716 100.996 86.686 100.816 86.556 100.726L65.816 85.7657C65.686 85.6757 65.506 85.6957 65.416 85.8357Z" fill="white"/>
<path d="M28.5361 69.0056C35.8161 73.5556 53.0961 91.5356 54.0261 92.7556C44.4261 80.0156 30.4561 68.0056 28.5361 69.0056Z" fill="white"/>
<path d="M24.8959 83.9856C20.1559 80.2756 15.0159 78.9556 14.9659 78.9456C14.8059 78.9056 14.6559 79.0056 14.6159 79.1556C14.5759 79.3056 14.6659 79.4656 14.8259 79.5056C14.8759 79.5156 19.8959 80.8156 24.5459 84.4456C29.2159 88.0956 38.3759 99.2756 38.4659 99.3956C38.5259 99.4656 38.6059 99.5056 38.6859 99.5056C38.7459 99.5056 38.8159 99.4856 38.8659 99.4356C38.9859 99.3356 39.0059 99.1556 38.9059 99.0256C38.8159 98.9156 29.6159 87.6856 24.8959 83.9856Z" fill="white"/>
<path d="M57.7058 105.446C52.1458 100.366 45.2358 94.0356 40.1958 89.0056C33.4458 82.2556 20.4458 75.8056 20.3158 75.7456C20.1758 75.6756 19.9958 75.7356 19.9258 75.8756C19.8558 76.0156 19.9158 76.1956 20.0558 76.2656C20.1858 76.3256 33.0958 82.7356 39.7758 89.4156C44.8258 94.4556 51.7458 100.786 57.3058 105.876C59.2158 107.626 60.9458 109.206 62.3458 110.506C67.7158 115.486 75.7758 120.866 75.8558 120.916C75.9058 120.946 75.9658 120.966 76.0158 120.966C76.1058 120.966 76.2058 120.916 76.2558 120.836C76.3458 120.706 76.3058 120.526 76.1758 120.436C76.0958 120.386 68.0758 115.036 62.7358 110.086C61.3358 108.786 59.6058 107.206 57.6958 105.456L57.7058 105.446Z" fill="white"/>
<path d="M13.4659 84.2757L13.0459 85.4557C13.0459 85.4557 15.2459 84.8257 17.5659 86.0057C19.8759 87.1857 30.1059 95.7457 30.1059 95.7457C30.1059 95.7457 26.4659 92.1457 24.2259 90.0957C21.9959 88.0457 19.8159 85.9457 16.1759 84.3257C15.6259 84.0857 13.4759 84.2657 13.4759 84.2657L13.4659 84.2757Z" fill="white"/>
<path d="M80.4759 126.356C80.4759 126.356 80.2159 126.786 79.2959 127.006C77.0959 127.526 71.1359 126.946 55.9659 117.086C51.3759 114.106 41.6459 106.226 33.3059 98.2057L31.5659 96.5257C23.5659 88.8057 16.6559 82.1457 13.4759 84.1757C13.3459 84.2657 13.3059 84.4457 13.3859 84.5757C13.4659 84.7057 13.6459 84.7457 13.7859 84.6657C16.5859 82.8757 23.6659 89.7058 31.1659 96.9458L32.9059 98.6258C41.2759 106.676 51.0459 114.586 55.6559 117.576C68.5859 125.976 74.9859 127.716 78.0659 127.716C78.6759 127.716 79.1559 127.646 79.5259 127.546C80.6359 127.256 80.9559 126.696 80.9859 126.636C81.0559 126.496 81.0059 126.326 80.8659 126.256C80.7259 126.176 80.5559 126.236 80.4759 126.366V126.356Z" fill="white"/>
<path d="M85.4459 109.746L85.0459 108.406C84.3459 109.146 83.2959 110.646 83.2959 110.646C83.2959 110.646 84.9659 112.236 85.3759 113.556C85.4659 112.146 84.8359 111.526 84.7559 110.926C84.6559 110.256 85.4659 109.746 85.4659 109.746H85.4459Z" fill="white"/>
<path d="M84.0761 124.136C83.0161 124.716 80.8261 126.416 80.7461 126.486C81.4861 126.486 82.3161 126.486 82.4561 126.496C82.6961 126.536 84.6761 124.536 84.8161 123.506C84.9561 122.476 84.0561 120.946 84.1761 119.296C84.2461 118.306 84.5261 117.266 84.8061 116.216C84.4961 116.766 84.1161 117.336 83.6761 118.026C82.6961 119.606 81.8061 121.076 81.8061 121.076C81.8061 121.076 85.1561 123.536 84.0761 124.126V124.136Z" fill="white"/>
<path d="M36.8865 154.276C35.7565 152.606 32.6465 149.456 32.6465 149.456C32.6465 149.456 33.7765 152.256 35.7465 154.816C37.7165 157.386 37.7265 158.336 39.7465 159.126C41.7665 159.916 48.3865 160.026 48.3865 160.026C48.3865 160.026 43.3365 158.796 41.4765 158.316C39.6165 157.836 38.0165 155.936 36.8865 154.266V154.276Z" fill="white"/>
<path d="M54.2863 150.966L54.4063 150.366C54.5963 149.426 54.0663 148.526 53.2063 148.196C53.7363 147.946 54.1463 147.466 54.2663 146.846L54.3863 146.246C54.5963 145.206 53.9263 144.196 52.8863 143.986L50.5363 143.516C50.9763 142.076 50.6863 140.896 48.6063 140.786C43.3563 140.526 41.6663 142.306 40.1663 142.026C38.1463 141.646 36.5663 140.986 34.5363 139.656C30.9863 137.336 14.8363 122.166 14.8363 122.166C14.8363 122.166 29.1663 96.2857 28.5563 95.5357C20.0363 85.0757 13.3763 84.5457 13.3763 84.5457C13.3763 84.5457 8.72633 97.7357 8.13633 99.1157C7.54633 100.496 4.96632 107.576 4.53632 109.306C4.10632 111.036 0.916338 120.486 0.176338 124.936C-0.273662 127.666 0.126324 130.826 1.50632 132.696C2.88632 134.566 9.82632 138.656 13.4663 140.826C15.0763 141.786 26.9563 146.976 31.1763 148.806C32.1463 149.226 32.9863 149.896 33.6163 150.756C34.9163 152.526 37.2463 155.686 38.7563 157.636C38.7563 157.636 38.7563 157.636 38.7663 157.646C38.9963 157.976 39.3263 158.216 39.7263 158.356C40.1363 158.536 40.6063 158.616 41.0663 158.656L48.4663 160.156C49.5063 160.366 50.5163 159.696 50.7263 158.656L50.8463 158.056C51.0263 157.156 50.5463 156.276 49.7363 155.916L50.9763 156.166C52.0163 156.376 53.0263 155.706 53.2363 154.666L53.3563 154.066C53.4763 153.466 53.2963 152.886 52.9363 152.446C53.6063 152.256 54.1563 151.716 54.2963 150.986L54.2863 150.966Z" fill="#139C8B"/>
<path d="M41.2857 145.636C41.1257 145.606 40.9757 145.706 40.9457 145.866C40.9157 146.026 41.0157 146.176 41.1757 146.206L53.1457 148.476C53.1457 148.476 53.1857 148.476 53.1957 148.476C53.3357 148.476 53.4557 148.376 53.4757 148.236C53.5057 148.076 53.4057 147.926 53.2457 147.896L41.2757 145.626L41.2857 145.636Z" fill="white"/>
<path d="M40.356 153.686C40.206 153.656 40.046 153.756 40.016 153.916C39.986 154.076 40.086 154.226 40.246 154.256L50.186 156.286C50.186 156.286 50.226 156.286 50.246 156.286C50.376 156.286 50.496 156.196 50.526 156.056C50.556 155.896 50.456 155.746 50.296 155.716L40.356 153.686Z" fill="white"/>
<path d="M40.4058 149.686C40.2558 149.656 40.0959 149.756 40.0659 149.916C40.0359 150.076 40.1359 150.226 40.2959 150.256L52.8659 152.716C52.8659 152.716 52.9059 152.716 52.9259 152.716C53.0659 152.716 53.1859 152.616 53.2059 152.486C53.2359 152.326 53.1359 152.176 52.9759 152.146L40.4058 149.686Z" fill="white"/>
<path d="M10.3861 120.206C10.2361 120.156 10.0661 120.226 10.0161 120.376C9.95613 120.526 10.0361 120.696 10.1861 120.746L14.7161 122.436C14.7161 122.436 14.7861 122.456 14.8161 122.456C14.9361 122.456 15.0461 122.386 15.0861 122.266C15.1461 122.116 15.0661 121.946 14.9161 121.896L10.3861 120.206Z" fill="white"/>
<path d="M28.7361 96.8856L22.7961 106.546C22.7161 106.686 22.7561 106.856 22.8861 106.946C22.9361 106.976 22.9861 106.986 23.0361 106.986C23.1361 106.986 23.2261 106.936 23.2861 106.846L29.2261 97.1856C29.3061 97.0456 29.2661 96.8756 29.1361 96.7856C29.0061 96.7056 28.8261 96.7456 28.7361 96.8756V96.8856Z" fill="white"/>
<path d="M48.2359 142.886C48.0759 142.866 47.9259 142.966 47.9059 143.126C47.8859 143.286 47.9859 143.436 48.1459 143.456L51.1159 143.926C51.1159 143.926 51.1459 143.926 51.1659 143.926C51.3059 143.926 51.4259 143.826 51.4559 143.686C51.4759 143.526 51.3759 143.376 51.2159 143.356L48.2459 142.886H48.2359Z" fill="white"/>
<path d="M83.6467 93.8656C83.4467 93.8656 83.2767 93.7056 83.2767 93.5056C83.2767 93.3456 82.5767 77.7256 82.3967 76.4556C81.8667 72.7056 81.4767 70.7956 80.2067 69.5356C79.0967 68.4256 75.9767 66.9956 74.2567 66.8056C74.0467 66.7856 73.9067 66.5956 73.9267 66.3956C73.9467 66.1856 74.1367 66.0356 74.3367 66.0656C76.2567 66.2756 79.4767 67.7656 80.7367 69.0156C82.2167 70.4856 82.6267 72.7756 83.1367 76.3656C83.3267 77.6756 83.9867 92.8456 84.0167 93.4956C84.0167 93.7056 83.8667 93.8756 83.6567 93.8856C83.6567 93.8856 83.6467 93.8856 83.6367 93.8856L83.6467 93.8656Z" fill="#343434"/>
<path d="M68.4165 290.576C68.2265 290.576 68.0565 290.426 68.0465 290.236C68.0165 289.906 67.3866 282.076 67.8366 279.526C68.2166 277.406 67.6865 275.836 66.0065 274.116C65.2965 273.386 64.4165 273.116 63.3065 272.766C62.1465 272.406 60.8365 271.986 59.3065 270.956C59.1365 270.836 59.0866 270.606 59.2066 270.436C59.3266 270.266 59.5565 270.216 59.7265 270.336C61.1565 271.306 62.4165 271.706 63.5265 272.046C64.6965 272.416 65.6965 272.726 66.5365 273.586C67.8365 274.916 69.0965 276.686 68.5665 279.656C68.1265 282.106 68.7765 290.096 68.7765 290.176C68.7965 290.386 68.6365 290.566 68.4365 290.576C68.4265 290.576 68.4165 290.576 68.4065 290.576H68.4165Z" fill="#343434"/>
<path d="M73.0468 285.866C72.8368 285.866 72.6768 285.696 72.6768 285.486C72.6768 282.876 73.6968 278.216 76.5768 273.666C76.6868 273.486 76.9167 273.436 77.0967 273.546C77.2667 273.656 77.3267 273.886 77.2167 274.066C74.4267 278.476 73.4367 282.976 73.4367 285.486C73.4367 285.696 73.2667 285.866 73.0667 285.866H73.0468Z" fill="#343434"/>
<path d="M43.436 311.476C43.266 311.476 43.116 311.366 43.076 311.196C42.986 310.856 40.976 302.866 40.976 300.146C40.976 297.866 40.136 296.326 38.056 294.846C37.176 294.216 36.216 294.096 34.986 293.936C33.716 293.776 32.276 293.586 30.506 292.806C30.316 292.726 30.236 292.496 30.316 292.306C30.396 292.116 30.626 292.036 30.816 292.116C32.486 292.856 33.866 293.036 35.086 293.196C36.366 293.356 37.466 293.506 38.496 294.236C40.096 295.376 41.726 296.966 41.726 300.146C41.726 302.776 43.786 310.936 43.806 311.016C43.856 311.216 43.736 311.416 43.536 311.476C43.506 311.476 43.476 311.486 43.446 311.486L43.436 311.476Z" fill="#343434"/>
<path d="M36.8059 293.736C36.6359 293.736 36.4859 293.626 36.4459 293.446L33.6959 282.226C33.6459 282.026 33.7659 281.826 33.9659 281.776C34.1659 281.726 34.3659 281.846 34.4159 282.046L37.1659 293.266C37.2159 293.466 37.0959 293.666 36.8959 293.716C36.8659 293.716 36.8359 293.726 36.8059 293.726V293.736Z" fill="#343434"/>
<path d="M48.0165 307.536C47.8565 307.536 47.7065 307.426 47.6565 307.266C46.7765 304.326 45.3465 296.046 45.2865 295.696C45.2865 295.646 45.1165 294.496 45.2265 290.666C45.2265 290.456 45.3865 290.296 45.6165 290.306C45.8265 290.306 45.9865 290.486 45.9765 290.696C45.8665 294.426 46.0165 295.566 46.0265 295.586C46.0365 295.666 47.5065 304.156 48.3765 307.056C48.4365 307.256 48.3265 307.466 48.1265 307.526C48.0865 307.536 48.0565 307.546 48.0165 307.546V307.536Z" fill="#343434"/>
</svg>
