<svg width="20" height="42" viewBox="0 0 20 42" fill="none" xmlns="http://www.w3.org/2000/svg">
<path d="M13.8585 15.1452C13.8535 15.1314 13.7173 14.0605 13.7173 14.0605L13.1712 14.1568C13.1712 14.1568 12.8801 14.5079 12.9588 14.7203C13.0375 14.9327 13.0288 15.2264 13.0288 15.2264C13.0288 15.2264 13.8635 15.1589 13.8597 15.1452H13.8585Z" fill="white"/>
<path d="M14.7223 6.40092C14.6898 6.6121 14.836 6.81077 15.0484 6.84201C15.2596 6.8745 15.4583 6.7283 15.4895 6.51588C15.522 6.30471 15.3758 6.10603 15.1634 6.07479C14.951 6.04355 14.7535 6.1885 14.7223 6.40092Z" fill="#343434"/>
<path d="M14.7351 6.84771L14.5362 8.16606C14.5297 8.20905 14.5593 8.24915 14.6023 8.25564L15.0693 8.32611C15.1123 8.33259 15.1524 8.303 15.1589 8.26001L15.3578 6.94167C15.3643 6.89868 15.3347 6.85857 15.2917 6.85208L14.8247 6.78161C14.7817 6.77513 14.7416 6.80472 14.7351 6.84771Z" fill="#343434"/>
<path d="M14.4938 8.45198L14.4677 8.62496C14.4623 8.66044 14.4868 8.69355 14.5223 8.6989L15.0054 8.77179C15.0408 8.77715 15.074 8.75272 15.0793 8.71724L15.1054 8.54426C15.1108 8.50877 15.0863 8.47567 15.0508 8.47032L14.5677 8.39742C14.5323 8.39207 14.4992 8.41649 14.4938 8.45198Z" fill="#343434"/>
<path d="M14.6389 8.15593L14.1816 11.1868L14.5918 11.2487L15.0491 8.21782L14.6389 8.15593Z" fill="#343434"/>
<path d="M14.2733 11.0688L12.457 23.1069L12.7338 23.1487L14.5501 11.1106L14.2733 11.0688Z" fill="#343434"/>
<path d="M12.1022 10.0708C12.5783 10.217 12.8619 9.75594 13.4829 9.74344C13.5317 9.74344 14.3914 9.80717 14.3914 9.80717L14.5413 8.81628L13.6716 8.68507C13.6716 8.68507 13.6554 8.30021 13.2368 7.85412C12.8182 7.40803 12.3421 7.10314 11.4787 7.37429C10.6165 7.64545 9.22197 9.02245 9.22197 9.02245C9.22197 9.02245 9.04953 9.23862 9.34942 9.2936C9.64931 9.34858 10.0167 9.32859 10.0167 9.32859C10.0167 9.32859 9.47313 9.54851 9.24196 10.0108C9.01079 10.4744 8.91708 10.7581 8.98205 11.2354C9.04703 11.7115 9.18823 11.7215 9.18823 11.7215C9.18823 11.7215 9.17074 11.5078 9.42814 11.1604C9.68555 10.8131 9.99794 10.4807 9.99794 10.4807C9.99794 10.4807 9.88798 10.8643 9.89547 11.0755C9.90547 11.3379 9.98544 11.3479 9.98544 11.3479C9.98544 11.3479 10.404 10.8043 10.6315 10.5706C10.8601 10.337 11.2375 10.0208 11.2375 10.0208C11.2375 10.0208 10.9576 10.3682 11.0788 10.4394C11.2325 10.5531 11.5624 10.332 11.781 10.1158C11.9535 9.94712 12.0784 9.83591 12.1247 9.79592C12.1372 9.78468 12.1459 9.77843 12.1459 9.77843C12.1459 9.77843 12.1384 9.78468 12.1247 9.79592C12.0709 9.84465 11.9435 9.98335 12.1009 10.0696L12.1022 10.0708Z" fill="white"/>
<path d="M11.8406 9.16614C11.8169 9.20987 11.6982 9.35482 11.572 9.50601C11.4133 9.69719 11.2333 9.91462 11.1246 10.0721C11.1134 10.0883 11.1171 10.1108 11.1334 10.122C11.1396 10.1258 11.1471 10.1283 11.1534 10.1283C11.1646 10.1283 11.1759 10.1233 11.1834 10.1133C11.2908 9.95835 11.4695 9.74218 11.6269 9.55225C11.7669 9.38356 11.8769 9.24986 11.9043 9.19987C11.9143 9.18238 11.9068 9.15989 11.8894 9.15114C11.8719 9.1424 11.8494 9.14864 11.8406 9.16614Z" fill="#343434"/>
<path d="M12.519 9.08989C12.5077 9.10363 12.4928 9.13362 12.4615 9.1936C12.389 9.33105 12.2528 9.58846 12.0704 9.82087C12.0579 9.83712 12.0604 9.85961 12.0766 9.8721C12.0829 9.8771 12.0916 9.8796 12.0991 9.8796C12.1104 9.8796 12.1204 9.8746 12.1279 9.86586C12.3141 9.62844 12.4515 9.36729 12.5252 9.22734C12.549 9.18235 12.569 9.14362 12.5765 9.13362C12.589 9.11738 12.5852 9.09488 12.569 9.08239C12.5527 9.06989 12.5302 9.07364 12.5177 9.08989H12.519Z" fill="#343434"/>
<path d="M10.9777 8.95001C10.9615 8.96876 10.9203 9.02124 10.879 9.07372C10.839 9.12495 10.7978 9.17743 10.7828 9.19492C10.6429 9.35612 10.0643 10.3108 9.9631 10.4795C9.95311 10.497 9.95811 10.5182 9.9756 10.5294C9.98185 10.5332 9.98809 10.5344 9.99434 10.5344C10.0068 10.5344 10.0181 10.5282 10.0256 10.5169C10.1905 10.2395 10.7116 9.38735 10.8378 9.24241C10.854 9.22366 10.8953 9.17118 10.9365 9.1187C10.9765 9.06747 11.0177 9.01499 11.0327 8.9975C11.0452 8.9825 11.044 8.96001 11.029 8.94626C11.014 8.93377 10.9915 8.93502 10.9777 8.95001Z" fill="#343434"/>
<path d="M16.985 10.5299C16.9761 10.5147 16.9697 10.5071 16.9697 10.5071C16.9697 10.5071 16.9748 10.516 16.985 10.5299Z" fill="white"/>
<path d="M19.9859 10.6469C19.9859 10.6469 19.0612 8.92006 18.3165 8.4065C17.573 7.89293 17.0269 8.04413 16.4959 8.34652C15.9648 8.64891 15.8349 9.01253 15.8349 9.01253L14.9527 8.87883L14.8027 9.86847C14.8027 9.86847 15.6549 10.0634 15.7012 10.0784C16.2909 10.2733 16.4272 10.7981 16.9245 10.7981C17.1007 10.7606 17.0194 10.592 16.9832 10.5295C17.0157 10.582 17.1032 10.7244 17.2169 10.9368C17.3631 11.208 17.613 11.5166 17.7929 11.4529C17.9291 11.4204 17.7642 11.0056 17.7642 11.0056C17.7642 11.0056 18.0316 11.4192 18.1803 11.7091C18.329 11.999 18.5689 12.6425 18.5689 12.6425C18.5689 12.6425 18.6476 12.6575 18.7351 12.4088C18.805 12.2101 18.8125 11.8103 18.8125 11.8103C18.8125 11.8103 19.0125 12.2201 19.1562 12.6275C19.2999 13.0348 19.2199 13.2348 19.2199 13.2348C19.2199 13.2348 19.3586 13.2685 19.561 12.8324C19.7634 12.3963 19.7597 12.0964 19.6747 11.5866C19.5898 11.0755 19.1349 10.7057 19.1349 10.7057C19.1349 10.7057 19.4798 10.8319 19.7822 10.8694C20.0846 10.9056 19.9834 10.6482 19.9834 10.6482L19.9859 10.6469Z" fill="white"/>
<path d="M17.4005 9.98211C17.3805 9.98586 17.368 10.0046 17.3718 10.0246C17.383 10.0808 17.4492 10.2408 17.5329 10.4432C17.6279 10.6719 17.7341 10.9305 17.7916 11.1105C17.7966 11.1254 17.8104 11.1354 17.8266 11.1354C17.8303 11.1354 17.8341 11.1354 17.8378 11.1342C17.8566 11.1279 17.8678 11.108 17.8616 11.0892C17.8041 10.9055 17.6954 10.6456 17.6004 10.4157C17.5255 10.2333 17.453 10.0608 17.4442 10.0108C17.4405 9.99086 17.4217 9.97836 17.4017 9.98211H17.4005Z" fill="#343434"/>
<path d="M16.7708 9.71735C16.7521 9.7236 16.7421 9.74484 16.7496 9.76358C16.7533 9.77483 16.7621 9.81856 16.7708 9.86729C16.8008 10.0235 16.8558 10.3121 16.9632 10.5945C16.9682 10.6095 16.982 10.6183 16.997 10.6183C17.0007 10.6183 17.0057 10.6183 17.0095 10.6158C17.0282 10.6083 17.037 10.5883 17.0307 10.5695C16.9258 10.2934 16.8708 10.0072 16.842 9.85355C16.8295 9.78732 16.8233 9.75483 16.8171 9.73859C16.8108 9.71985 16.7896 9.70985 16.7708 9.71735Z" fill="#343434"/>
<path d="M18.3318 10.0597C18.3243 10.041 18.3018 10.0335 18.2843 10.041C18.2656 10.0485 18.2581 10.0697 18.2656 10.0884C18.2756 10.1097 18.2981 10.1709 18.3205 10.2321C18.3443 10.2959 18.3693 10.3596 18.378 10.3808C18.4555 10.557 18.7017 11.5254 18.7779 11.8391C18.7816 11.8553 18.7966 11.8666 18.8129 11.8666C18.8154 11.8666 18.8191 11.8666 18.8216 11.8666C18.8416 11.8616 18.8529 11.8428 18.8479 11.8228C18.8016 11.6316 18.5305 10.5495 18.4443 10.3533C18.4343 10.3321 18.4105 10.2696 18.388 10.2071C18.3643 10.1447 18.3405 10.0822 18.3305 10.061L18.3318 10.0597Z" fill="#343434"/>
<path d="M13.2277 10.7294C12.989 10.8044 12.8329 10.9818 12.8778 11.1255C12.9228 11.2692 13.1527 11.3242 13.3914 11.2492C13.6301 11.1743 13.9362 10.9868 13.8912 10.8431C13.8462 10.6994 13.4651 10.6545 13.2277 10.7294Z" fill="#343434"/>
<path d="M13.6248 16.1374C13.6423 16.1399 13.7673 16.1349 13.7848 16.1312C13.7998 16.1274 14.1634 16.0462 14.4995 15.7775C14.8381 15.5076 15.0431 15.2002 15.0768 14.9153C15.1068 14.6504 15.098 14.3281 14.8019 13.9419C14.617 13.7008 14.2171 13.4646 13.7098 13.166C13.5361 13.0635 13.3512 12.9548 13.1625 12.8373C12.7914 12.6074 12.6602 12.31 12.6164 12.1014C12.5677 11.8689 12.6027 11.6278 12.7102 11.4716C12.8351 11.2892 13.0188 11.2629 13.03 11.2617C13.1088 11.2529 13.1662 11.1817 13.1575 11.103C13.1488 11.023 13.0775 10.9655 12.9988 10.9743C12.9863 10.9755 12.6752 11.0118 12.4715 11.3091C12.3191 11.5316 12.2678 11.8502 12.334 12.1626C12.4128 12.5362 12.6527 12.8636 13.0113 13.0848C13.2025 13.2035 13.3887 13.3134 13.5636 13.4171C14.0247 13.6895 14.422 13.9232 14.5732 14.1206C14.8182 14.4393 14.8144 14.6817 14.7907 14.8854C14.7669 15.0878 14.592 15.3389 14.3208 15.5551C14.0384 15.78 13.7273 15.8525 13.7235 15.8525C13.6461 15.87 13.5961 15.9462 13.6136 16.0249C13.6273 16.0849 13.5686 16.1324 13.6261 16.1412L13.6248 16.1374Z" fill="#343434"/>
<path d="M13.156 19.9185C13.1809 19.9222 13.2909 19.8623 13.3159 19.8523C13.3696 19.8298 13.8445 19.6286 14.0356 19.3612C14.2368 19.0801 14.2381 18.7289 14.0394 18.3716C13.9494 18.2091 13.7582 17.9992 13.5558 17.7768C13.3721 17.5756 13.1822 17.3669 13.1235 17.2482C12.9873 16.9733 12.9385 16.7521 13.1147 16.4997C13.2997 16.2348 13.5633 16.1686 13.5696 16.1661C13.647 16.1486 13.7595 16.0024 13.742 15.9249C13.7245 15.8475 13.5833 15.8662 13.5058 15.885C13.4908 15.8887 13.131 15.9724 12.8773 16.3348C12.6037 16.7259 12.7174 17.082 12.8648 17.3782C12.941 17.5331 13.136 17.7468 13.3421 17.973C13.5246 18.1729 13.7133 18.3803 13.787 18.5128C13.8869 18.6927 13.9707 18.9563 13.8007 19.1925C13.6783 19.3625 13.3296 19.5336 13.2047 19.5849C13.131 19.6161 13.096 19.6998 13.126 19.7736C13.146 19.8223 13.106 19.911 13.1547 19.9185H13.156Z" fill="#343434"/>
<path d="M12.7298 19.966C12.5911 20.0597 12.5274 20.0985 12.25 20.2122C12.26 20.2759 12.345 20.2784 12.4187 20.2784C12.7186 20.2559 12.9585 20.086 12.9697 20.0772C12.9772 19.9885 13.0122 19.7961 13.0235 19.6824C12.9835 19.7161 12.881 19.8648 12.7298 19.966Z" fill="#343434"/>
<path d="M13.4841 13.9532C13.6865 13.8095 14.1364 13.7033 14.6562 13.5796C14.8548 13.5321 15.0648 13.4821 15.2822 13.4259C15.6895 13.3197 16.0157 13.0772 16.2006 12.7449C16.3555 12.4662 16.4005 12.1463 16.3206 11.8889C16.2518 11.6677 16.1106 11.5378 16.0144 11.4716C16.0057 11.3554 15.9157 11.2167 15.7683 11.1142C15.5633 10.9717 15.186 10.903 15.101 11.0267C15.016 11.1504 15.2534 11.4203 15.4584 11.5628C15.5733 11.6415 15.6958 11.6802 15.7982 11.679C15.7982 11.679 15.7995 11.6802 15.8008 11.6815C15.8095 11.6852 15.9782 11.7652 16.0444 11.9764C16.1006 12.1576 16.0632 12.3987 15.9482 12.6062C15.8445 12.7923 15.6321 13.0385 15.2097 13.1485C14.9948 13.2047 14.7861 13.2547 14.5899 13.3009C14.0176 13.4371 13.5653 13.5446 13.3179 13.7195C12.9205 14.0007 12.8168 14.3068 12.7681 14.568C12.7156 14.8503 12.8206 15.204 13.0642 15.5626C13.3066 15.9187 13.629 16.1036 13.6428 16.1124C13.659 16.1211 13.7777 16.1624 13.794 16.1649C13.8515 16.1736 13.809 16.1111 13.8402 16.0574C13.8802 15.9874 13.8552 15.9 13.7852 15.86C13.7827 15.8587 13.5053 15.6975 13.3029 15.3989C13.108 15.1128 13.0143 14.8216 13.0517 14.6204C13.0892 14.4205 13.1567 14.1868 13.4853 13.9544L13.4841 13.9532Z" fill="#343434"/>
<path d="M13.5207 17.9991C13.7843 17.8442 14.033 17.6968 14.1517 17.5718C14.3791 17.3319 14.5928 17.0257 14.4478 16.5709C14.3129 16.1498 13.9942 15.9636 13.9805 15.9561C13.9118 15.9161 13.7831 15.8562 13.7431 15.9249C13.7031 15.9936 13.7681 16.1673 13.8368 16.206C13.8418 16.2098 14.0742 16.3497 14.1729 16.6584C14.2666 16.952 14.1554 17.1494 13.943 17.3719C13.8518 17.4668 13.6094 17.6105 13.3745 17.7492C13.1158 17.9017 12.8709 18.0454 12.7372 18.1741C12.4423 18.4565 12.3398 18.7926 12.4485 19.1212C12.5535 19.4336 12.9471 19.766 12.9921 19.8035C13.0133 19.821 13.1008 19.911 13.1258 19.9147C13.1745 19.9222 13.162 19.8247 13.1958 19.7847C13.247 19.7235 13.2383 19.6323 13.177 19.5811C13.0733 19.4949 12.7897 19.2287 12.7235 19.03C12.631 18.7539 12.7884 18.5265 12.9371 18.384C13.0471 18.279 13.2882 18.1366 13.5219 17.9991H13.5207Z" fill="#343434"/>
<path d="M13.2095 19.7112C13.1858 19.8236 13.1633 20.0173 13.1445 20.1048C13.1533 20.1173 13.332 20.3497 13.6119 20.4597C13.6831 20.4822 13.7656 20.5046 13.793 20.4459C13.5619 20.2547 13.5131 20.1985 13.4082 20.0686C13.2932 19.9274 13.2395 19.7549 13.2108 19.7112H13.2095Z" fill="#343434"/>
<path d="M12.2946 23.0369L12.2685 23.2099C12.2631 23.2454 12.2876 23.2785 12.323 23.2839L12.8061 23.3568C12.8416 23.3621 12.8747 23.3377 12.8801 23.3022L12.9062 23.1292C12.9115 23.0937 12.8871 23.0606 12.8516 23.0553L12.3685 22.9824C12.333 22.977 12.2999 23.0015 12.2946 23.0369Z" fill="#343434"/>
<path d="M12.1461 24.0304L12.12 24.2033C12.1147 24.2388 12.1391 24.2719 12.1746 24.2773L12.6577 24.3502C12.6932 24.3555 12.7263 24.3311 12.7316 24.2956L12.7577 24.1226C12.7631 24.0871 12.7387 24.054 12.7032 24.0487L12.2201 23.9758C12.1846 23.9704 12.1515 23.9949 12.1461 24.0304Z" fill="#343434"/>
<path d="M12.1709 23.6172C12.1422 23.8084 12.2734 23.9858 12.4646 24.0145C12.6558 24.0433 12.8332 23.9121 12.8619 23.7209C12.8907 23.5297 12.7595 23.3523 12.5683 23.3235C12.3771 23.2948 12.1997 23.426 12.1709 23.6172Z" fill="#FB3230"/>
<path d="M10.3738 8.42007C10.3601 8.43506 10.3613 8.45755 10.3763 8.4713C10.3838 8.47755 10.3926 8.48129 10.4013 8.48129C10.4113 8.48129 10.4213 8.47754 10.4276 8.47005C10.9161 7.93899 11.6896 7.68408 12.3981 7.82153C12.4168 7.82528 12.4368 7.81278 12.4406 7.79279C12.4443 7.7728 12.4318 7.75406 12.4118 7.75031C11.6796 7.60786 10.8799 7.87151 10.3751 8.42132L10.3738 8.42007Z" fill="white"/>
<path d="M17.0945 8.79745C17.0883 8.81619 17.0995 8.83619 17.1183 8.84243C17.6281 8.99988 18.1054 9.27353 18.4978 9.6359C18.5053 9.64215 18.514 9.64589 18.5227 9.64589C18.5327 9.64589 18.5427 9.64214 18.549 9.63465C18.5627 9.61965 18.5615 9.59716 18.5465 9.58342C18.1466 9.21355 17.6606 8.93365 17.1395 8.77371C17.1195 8.76746 17.0995 8.77871 17.0945 8.79745Z" fill="white"/>
<path d="M10.6274 8.64386C10.6111 8.65511 10.6061 8.6776 10.6174 8.69384C10.6249 8.70509 10.6361 8.71009 10.6474 8.71009C10.6536 8.71009 10.6611 8.70759 10.6674 8.70384C11.1147 8.41269 11.6308 8.22276 12.1606 8.15404C12.1806 8.15154 12.1943 8.13279 12.1918 8.11405C12.1893 8.09406 12.1706 8.08031 12.1518 8.08281C11.612 8.15279 11.0847 8.34647 10.6286 8.64386H10.6274Z" fill="white"/>
<path d="M17.4813 8.23785C17.4625 8.23285 17.4425 8.24284 17.4363 8.26284C17.43 8.28158 17.4413 8.30157 17.4613 8.30782C17.7962 8.40654 18.1198 8.61646 18.4222 8.93135C18.6933 9.2125 18.9145 9.54238 19.1294 9.86226C19.1369 9.87226 19.1482 9.87851 19.1594 9.87851C19.1669 9.87851 19.1732 9.87601 19.1794 9.87226C19.1957 9.86101 19.2007 9.83852 19.1894 9.82227C18.9732 9.50114 18.7483 9.16751 18.4734 8.88136C18.1623 8.55773 17.8287 8.34156 17.4813 8.2391V8.23785Z" fill="white"/>
<path d="M16.5955 8.86135C16.5768 8.85511 16.5568 8.86635 16.5506 8.8851C16.5443 8.90384 16.5556 8.92508 16.5743 8.93008C16.753 8.98756 16.9079 9.12251 16.9867 9.2937C16.9929 9.30744 17.0054 9.31494 17.0191 9.31494C17.0241 9.31494 17.0291 9.31494 17.0341 9.31119C17.0529 9.30245 17.0604 9.2812 17.0516 9.26371C16.9642 9.07503 16.793 8.92508 16.5955 8.8626V8.86135Z" fill="white"/>
<path d="M12.2132 8.40009C12.1945 8.40759 12.1845 8.42758 12.192 8.44633C12.1995 8.46507 12.2194 8.47507 12.2382 8.46757C12.5131 8.36511 12.828 8.36636 13.1029 8.47007C13.1066 8.47132 13.1116 8.47257 13.1154 8.47257C13.1304 8.47257 13.1441 8.46382 13.1491 8.44883C13.1566 8.43008 13.1466 8.40884 13.1279 8.40259C12.8367 8.29263 12.5031 8.29138 12.212 8.40009H12.2132Z" fill="white"/>
<path d="M14.5608 8.19394C14.5408 8.19019 14.5233 8.20518 14.5208 8.22517C14.5183 8.24517 14.532 8.26266 14.552 8.26516L15.0843 8.33139C15.0843 8.33139 15.0868 8.33139 15.0893 8.33139C15.1068 8.33139 15.1231 8.31764 15.1256 8.30015C15.1281 8.28015 15.1143 8.26266 15.0943 8.26016L14.562 8.19394H14.5608Z" fill="white"/>
<path d="M14.4888 8.63997C14.4701 8.63747 14.4501 8.64996 14.4476 8.66995C14.4451 8.68995 14.4576 8.70869 14.4776 8.71119L15.0411 8.79866C15.0411 8.79866 15.0449 8.79866 15.0474 8.79866C15.0649 8.79866 15.0799 8.78616 15.0836 8.76867C15.0861 8.74868 15.0736 8.72993 15.0536 8.72743L14.4901 8.63997H14.4888Z" fill="white"/>
<path d="M14.19 11.1516C14.1712 11.1479 14.1513 11.1616 14.1488 11.1816C14.1463 11.2016 14.1587 11.2204 14.1787 11.2229L14.5898 11.2853C14.5898 11.2853 14.5936 11.2853 14.5948 11.2853C14.6123 11.2853 14.6273 11.2728 14.6311 11.2541C14.6336 11.2341 14.6211 11.2154 14.6011 11.2129L14.19 11.1504V11.1516Z" fill="white"/>
<path d="M14.8091 6.7471C14.7891 6.7446 14.7704 6.7571 14.7679 6.77709C14.7654 6.79708 14.7791 6.81582 14.7979 6.81832L15.3089 6.89455C15.3089 6.89455 15.3127 6.89455 15.3139 6.89455C15.3314 6.89455 15.3464 6.88205 15.3502 6.86331C15.3527 6.84331 15.3389 6.82457 15.3202 6.82207L14.8091 6.74585V6.7471Z" fill="white"/>
<path d="M12.9517 23.6171C13.3765 23.3397 13.6164 23.0935 13.469 22.9186C13.3216 22.7424 12.7855 21.4879 12.5456 20.7456C12.3057 20.0034 9.98151 9.91577 9.98151 9.91577C9.98151 9.91577 9.70411 16.7421 9.74784 17.022C9.79157 17.3031 12.6156 24.3293 12.6156 24.3293C12.6156 24.3293 12.5268 23.8932 12.9504 23.6158L12.9517 23.6171Z" fill="#343434"/>
<path d="M11.7095 20.9193L12.7578 24.1319L12.9715 23.8633L11.6807 20.2308L10.7373 17.8892L11.7095 20.9193Z" fill="white"/>
<path d="M10.7564 13.9319C10.6327 13.6483 10.5177 13.1135 10.5177 13.1135C10.5177 13.1135 10.3653 9.7097 10.3428 9.546C10.2778 9.08742 10.2278 8.82626 10.0566 8.65508C9.9067 8.50513 9.50934 8.32519 9.28567 8.3002C8.99203 8.26772 7.90867 8.18774 7.90867 8.18774L7.94241 8.74129L7.6875 10.157L8.88707 14.9066C8.88707 14.9066 9.26693 15.7313 9.87171 15.8C10.2316 15.84 11.7948 15.725 12.9019 15.2839C12.5457 14.5867 12.9394 14.1131 13.0793 13.9232C12.0034 13.9619 10.8801 14.2143 10.7564 13.9319Z" fill="white"/>
<path d="M10.0569 10.0472C10.0369 10.0497 10.0232 10.0684 10.0257 10.0884C10.0257 10.0947 10.1219 10.7669 10.1319 11.0081C10.1419 11.253 10.1669 11.443 10.1669 11.4442C10.1694 11.4629 10.1844 11.4754 10.2031 11.4754C10.2044 11.4754 10.2069 11.4754 10.2081 11.4754C10.2281 11.4729 10.2419 11.4542 10.2394 11.4355C10.2394 11.4342 10.2144 11.2468 10.2044 11.0056C10.1944 10.7607 10.1019 10.1059 10.0969 10.0784C10.0944 10.0585 10.0757 10.046 10.0557 10.0472H10.0569Z" fill="white"/>
<path d="M14.9062 14.0843L14.9212 14.0131C14.9474 13.8906 14.8687 13.7694 14.745 13.7432L13.5716 13.4958C13.4492 13.4695 13.328 13.5482 13.3017 13.672L13.2868 13.7432C13.2718 13.8157 13.293 13.8881 13.3392 13.9394C13.2293 13.9344 13.1293 14.0081 13.1068 14.1193L13.0918 14.1905C13.0731 14.2767 13.1081 14.3617 13.1718 14.4142C13.1118 14.4442 13.0643 14.4992 13.0493 14.5704L13.0343 14.6416C13.0081 14.7641 13.0868 14.8853 13.2105 14.9115L13.3567 14.9427C13.2518 14.9427 13.158 15.0165 13.1356 15.1227L13.1206 15.1939C13.0943 15.3164 13.173 15.4376 13.2967 15.4638L14.3039 15.6762C14.4263 15.7025 14.5475 15.6237 14.5738 15.5L14.5888 15.4288C14.6113 15.3201 14.5525 15.2139 14.4551 15.1727C14.575 15.1927 14.69 15.1152 14.715 14.9952L14.73 14.924C14.7462 14.849 14.7225 14.7753 14.675 14.7241C14.7487 14.6991 14.8075 14.6379 14.8249 14.5566L14.8399 14.4854C14.8587 14.3954 14.8212 14.3067 14.7512 14.2555C14.8274 14.2318 14.8899 14.1693 14.9074 14.0856L14.9062 14.0843Z" fill="white"/>
<path d="M14.9413 14.0918L14.9563 14.0206C14.9788 13.9132 14.9313 13.802 14.8388 13.7432C14.8076 13.7232 13.6442 13.4758 13.633 13.4733C13.6142 13.4696 13.5943 13.4821 13.5905 13.5008C13.5868 13.5208 13.5993 13.5395 13.618 13.5433C13.723 13.5658 14.7538 13.787 14.8013 13.8032C14.8688 13.8457 14.9038 13.9269 14.8863 14.0056L14.8713 14.0769C14.8576 14.1443 14.8063 14.1993 14.7401 14.2193C14.7276 14.2231 14.7176 14.2343 14.7151 14.248C14.7126 14.2618 14.7189 14.2755 14.7288 14.283C14.7901 14.328 14.8188 14.403 14.8038 14.4767L14.7888 14.5479C14.7751 14.6142 14.7276 14.6666 14.6626 14.6891C14.6514 14.6929 14.6426 14.7029 14.6389 14.7141C14.6364 14.7254 14.6389 14.7379 14.6476 14.7479C14.6889 14.7941 14.7064 14.8566 14.6939 14.9166L14.6789 14.9878C14.6576 15.0877 14.5614 15.154 14.4602 15.1365C14.4415 15.1327 14.4252 15.144 14.419 15.1615C14.414 15.179 14.4227 15.1977 14.4402 15.2052C14.5239 15.2402 14.5714 15.3314 14.5527 15.4214L14.5377 15.4926C14.5277 15.5426 14.4977 15.5851 14.4552 15.6138C14.4127 15.6413 14.3615 15.6513 14.3115 15.6413C14.2928 15.6375 14.2728 15.65 14.269 15.6688C14.2653 15.6888 14.2778 15.7075 14.2965 15.7113C14.3152 15.715 14.3327 15.7175 14.3515 15.7175C14.4015 15.7175 14.4514 15.7025 14.4952 15.675C14.5539 15.6363 14.5951 15.5776 14.6089 15.5088L14.6239 15.4376C14.6414 15.3526 14.6164 15.2652 14.5602 15.2039C14.6539 15.179 14.7301 15.104 14.7513 15.004L14.7663 14.9328C14.7801 14.8666 14.7663 14.7966 14.7313 14.7391C14.7976 14.7029 14.8438 14.6392 14.8601 14.5642L14.875 14.493C14.8925 14.4117 14.8688 14.328 14.8163 14.2655C14.8813 14.228 14.9275 14.1656 14.9438 14.0918H14.9413Z" fill="white"/>
<path d="M13.3462 13.9046C13.3262 13.9008 13.3075 13.9121 13.3025 13.9321C13.2987 13.9521 13.31 13.9708 13.33 13.9758L14.7407 14.2907C14.7407 14.2907 14.7457 14.2907 14.7482 14.2907C14.7644 14.2907 14.7794 14.2794 14.7832 14.2619C14.7869 14.2419 14.7757 14.2232 14.7557 14.2182L13.345 13.9033L13.3462 13.9046Z" fill="white"/>
<path d="M13.3019 14.8929C13.2819 14.8891 13.2632 14.9016 13.2595 14.9203C13.2557 14.9403 13.2682 14.9591 13.2869 14.9628L14.464 15.209C14.464 15.209 14.469 15.209 14.4715 15.209C14.4878 15.209 14.5028 15.1977 14.5065 15.1802C14.5103 15.1603 14.4978 15.1415 14.479 15.1378L13.3019 14.8916V14.8929Z" fill="white"/>
<path d="M13.178 14.378C13.158 14.3742 13.1392 14.3855 13.1355 14.4054C13.1317 14.4254 13.143 14.4442 13.163 14.4479L14.6474 14.7703C14.6474 14.7703 14.6524 14.7703 14.6549 14.7703C14.6712 14.7703 14.6862 14.7591 14.6899 14.7416C14.6937 14.7216 14.6824 14.7028 14.6624 14.6991L13.178 14.3767V14.378Z" fill="white"/>
<path d="M8.81208 36.4877C8.95953 36.6914 9.09073 36.5602 9.09073 36.5602C9.09073 36.5602 9.52183 35.8617 9.74175 35.658C9.96167 35.4544 9.99916 35.2432 9.96667 34.987C9.93418 34.7309 9.69801 34.6084 9.56306 34.2123C9.42811 33.8162 9.6093 33.1714 9.6093 33.1714C9.6093 33.1714 9.4631 33.1102 9.25568 33.2464C8.61341 33.6675 8.99702 34.2348 8.99702 34.2348C8.99702 34.2348 8.65464 33.9324 8.6409 34.2885C8.6359 34.4197 8.86957 34.7346 8.86957 34.7346C8.86957 34.7346 8.49845 34.6109 8.54218 34.8058C8.55718 34.8746 8.85707 35.1907 8.78335 35.2782C8.54718 35.0233 8.52344 35.1745 8.52344 35.1745C8.52344 35.1745 8.70837 35.4256 8.68338 35.903C8.66589 36.2528 8.66339 36.2866 8.81084 36.4902L8.81208 36.4877Z" fill="white"/>
<path d="M8.96482 34.1636C8.95107 34.1486 8.92858 34.1486 8.91359 34.1636C8.8986 34.1773 8.8986 34.1998 8.91359 34.2148C8.99981 34.3048 9.09352 34.406 9.10352 34.4197C9.11851 34.4435 9.25846 34.5872 9.30095 34.6309C9.30844 34.6384 9.31719 34.6422 9.32719 34.6422C9.33719 34.6422 9.34593 34.6384 9.35218 34.6322C9.36592 34.6184 9.36717 34.5959 9.35218 34.5809C9.26721 34.4935 9.1735 34.3948 9.1635 34.381C9.14851 34.3573 9.0073 34.2111 8.96482 34.1661V34.1636Z" fill="white"/>
<path d="M8.89937 34.7109C8.88687 34.6947 8.86438 34.6922 8.84813 34.7047C8.83189 34.7172 8.82939 34.7397 8.84189 34.7559C8.86438 34.7847 8.97809 34.9308 9.03682 34.9633C9.0793 34.9871 9.18426 35.077 9.2205 35.1108C9.22675 35.117 9.2355 35.1195 9.24424 35.1195C9.25424 35.1195 9.26424 35.1158 9.27173 35.107C9.28548 35.092 9.28423 35.0695 9.26923 35.0558C9.26423 35.0508 9.13053 34.9321 9.07305 34.8996C9.03807 34.8796 8.9481 34.7734 8.90062 34.7109H8.89937Z" fill="white"/>
<path d="M8.93732 35.4281C8.89483 35.3681 8.81361 35.2556 8.81361 35.2556L8.75488 35.2981C8.75488 35.2981 8.8361 35.4106 8.87734 35.4705C8.92107 35.533 9.00479 35.6092 9.00854 35.613C9.01604 35.6192 9.02354 35.6217 9.03228 35.6217C9.04228 35.6217 9.05227 35.618 9.05852 35.6105C9.07227 35.5955 9.07102 35.573 9.05602 35.5593C9.05602 35.5593 8.97481 35.4855 8.93607 35.4293L8.93732 35.4281Z" fill="white"/>
<path d="M11.5514 31.0571C11.97 30.5273 12.6597 29.1865 12.6597 29.1865C12.6597 29.1865 9.48337 30.4048 9.2622 30.8359C9.04103 31.267 8.78237 32.1904 8.70865 32.5965C8.63492 33.0026 8.27755 34.2834 8.25381 34.5171C8.22882 34.7508 7.95891 35.6992 7.8477 35.8366C7.7365 35.9741 7.64278 36.0328 7.44785 36.2102C7.1642 36.4689 7.18294 36.795 7.28166 37.0412C7.38037 37.2874 7.52782 37.3248 7.78648 37.521C8.04514 37.7184 8.25381 38.1246 8.56245 38.4694C8.86984 38.8143 9.09226 38.7156 9.43589 38.6906C9.77951 38.6656 10.1994 38.6906 10.3843 38.6906C10.5692 38.6906 10.5155 38.4769 10.433 38.3832C10.2556 38.1795 10.0269 38.1745 9.9407 38.137C9.85448 38.0996 9.55959 37.8047 9.47337 37.706C9.38715 37.6072 9.30093 37.2499 9.28844 37.0287C9.27594 36.8075 9.12849 35.9453 9.12849 35.6742C9.12849 35.403 9.22721 34.8245 9.60832 34.2222C9.98944 33.6187 11.1353 31.5882 11.5526 31.0584L11.5514 31.0571Z" fill="white"/>
<path d="M9.46717 37.176C9.44718 37.0648 9.28473 35.5979 9.28473 35.5979C9.28473 35.5979 8.98359 35.6278 8.66996 35.4966C8.35632 35.3654 8.0077 34.9019 8.0077 34.9019C8.0077 34.9019 7.91648 35.6653 7.42415 36.029C6.77564 36.5075 7.13676 37.2135 7.35168 37.4035C7.53537 37.5646 7.51787 37.4947 7.78403 37.6896C8.05018 37.8845 8.20263 38.2644 8.50752 38.6368C8.87613 39.0866 9.31222 38.9466 9.34721 38.9429C9.3822 38.9392 9.42718 38.7255 9.5134 38.6018C9.77706 38.2194 10.1169 38.1669 10.1169 38.1669C10.1169 38.1669 9.75207 37.907 9.61961 37.7546C9.48841 37.6009 9.48841 37.2897 9.46717 37.1773V37.176Z" fill="#343434"/>
<path d="M7.1701 35.3068C7.1701 35.3068 7.48873 35.4017 7.77613 35.8253C7.9873 36.1365 8.00605 36.1652 8.26345 36.2439C8.52086 36.3227 8.54835 36.1265 8.54835 36.1265C8.54835 36.1265 8.46588 35.253 8.52211 34.9369C8.57834 34.6208 8.47338 34.4171 8.28095 34.2197C8.08852 34.0222 7.80737 34.0697 7.43625 33.8186C7.06514 33.5674 6.80398 32.9001 6.80398 32.9001C6.80398 32.9001 6.63904 32.9426 6.55032 33.1913C6.27417 33.9648 6.96767 34.2009 6.96767 34.2009C6.96767 34.2009 6.48035 34.1634 6.69777 34.4758C6.77774 34.5908 7.18009 34.7082 7.18009 34.7082C7.18009 34.7082 6.78274 34.8419 6.94643 34.9794C7.00391 35.0281 7.46374 35.1044 7.45625 35.2268C7.09138 35.1618 7.1676 35.3055 7.1676 35.3055L7.1701 35.3068Z" fill="white"/>
<path d="M7.20276 34.2197C7.17527 34.2097 6.96034 34.1747 6.89537 34.1647C6.87537 34.1609 6.85663 34.1747 6.85413 34.1947C6.85038 34.2147 6.86413 34.2334 6.88412 34.2359C6.99533 34.2534 7.16027 34.2821 7.17902 34.2884C7.20776 34.2984 7.41893 34.3309 7.48266 34.3409C7.48391 34.3409 7.48641 34.3409 7.48766 34.3409C7.50515 34.3409 7.52014 34.3284 7.52389 34.3096C7.52639 34.2896 7.51389 34.2709 7.4939 34.2684C7.3652 34.2484 7.22025 34.2247 7.20276 34.2184V34.2197Z" fill="#343434"/>
<path d="M7.46256 34.7233C7.42007 34.7308 7.27387 34.6958 7.19265 34.6733C7.17266 34.6683 7.15392 34.6796 7.14767 34.6983C7.14267 34.717 7.15392 34.737 7.17266 34.7433C7.19515 34.7495 7.39883 34.8033 7.4713 34.7958C7.52254 34.7883 7.67123 34.7983 7.72371 34.802H7.72621C7.74496 34.802 7.76245 34.7683 7.7637 34.7483C7.76495 34.7283 7.7487 34.7308 7.72871 34.7295C7.72121 34.7295 7.53128 34.7145 7.46131 34.7233H7.46256Z" fill="#343434"/>
<path d="M7.68663 35.2606C7.61166 35.2368 7.47046 35.1931 7.47046 35.1931L7.44922 35.2618C7.44922 35.2618 7.59042 35.3056 7.66539 35.3293C7.74286 35.3543 7.86282 35.3656 7.86781 35.3656C7.86781 35.3656 7.87031 35.3656 7.87156 35.3656C7.89031 35.3656 7.9053 35.3518 7.9078 35.3331C7.90905 35.3131 7.8953 35.2956 7.87531 35.2943C7.87531 35.2943 7.75785 35.2831 7.68788 35.2606H7.68663Z" fill="#343434"/>
<path d="M9.91806 38.6542C9.68814 38.6542 8.86844 38.6043 8.64727 38.488C8.54355 38.4331 8.46983 38.2944 8.38486 38.1344C8.29489 37.9645 8.19118 37.7708 8.01624 37.5984C7.66762 37.256 7.08283 36.9349 7.05784 36.9211C6.96037 36.8674 6.83417 36.8986 6.77544 36.9898C6.71796 37.0811 6.75045 37.1985 6.84916 37.2522C6.85416 37.2547 7.40896 37.5596 7.71635 37.862C7.8488 37.992 7.93377 38.1507 8.01499 38.3044C8.12121 38.503 8.22992 38.7092 8.44359 38.8217C8.82345 39.0216 9.90556 39.0378 9.91681 39.0378H10.5866C10.7003 39.0378 10.7927 38.9516 10.7927 38.8454C10.7927 38.7392 10.7003 38.653 10.5866 38.653H9.91681L9.91806 38.6542Z" fill="#343434"/>
<path d="M9.18724 30.9959L9.13477 31.1246C9.13477 31.1246 10.588 30.3736 10.8691 30.2549C12.1737 29.7039 12.3374 29.7939 12.3374 29.7939L12.556 29.3853C12.556 29.3853 12.0425 29.5977 11.7051 29.7464C11.3677 29.8951 10.1232 30.4736 10.0619 30.5036C9.56086 30.761 9.18724 30.9959 9.18724 30.9959Z" fill="white"/>
<path d="M4.8479 37.6745C4.8479 37.6745 5.19153 37.7508 5.52516 38.1731C5.77007 38.4842 5.79256 38.5142 6.06996 38.5767C6.34736 38.6404 6.3611 38.4318 6.3611 38.4318C6.3611 38.4318 6.20741 37.5183 6.24365 37.1822C6.27863 36.8448 6.15368 36.6387 5.93501 36.4462C5.71759 36.2525 5.42519 36.3238 5.01659 36.0876C4.60799 35.8514 4.28186 35.1692 4.28186 35.1692C4.28186 35.1692 4.11191 35.2267 4.03694 35.4953C3.80453 36.33 4.55301 36.5262 4.55301 36.5262C4.55301 36.5262 4.03819 36.5237 4.2906 36.8361C4.38307 36.951 4.81666 37.0435 4.81666 37.0435C4.81666 37.0435 4.40931 37.2147 4.59174 37.3472C4.65547 37.3934 5.14529 37.4396 5.14779 37.5683C4.75793 37.5271 4.8504 37.6733 4.8504 37.6733L4.8479 37.6745Z" fill="white"/>
<path d="M4.79881 36.5311C4.76882 36.5236 4.54016 36.5024 4.47143 36.4961C4.45144 36.4936 4.43395 36.5086 4.4327 36.5286C4.43145 36.5486 4.44519 36.5661 4.46519 36.5673C4.60389 36.5798 4.76133 36.5948 4.78007 36.5998C4.81006 36.6086 5.03498 36.6273 5.10246 36.6323H5.10495C5.1237 36.6323 5.13994 36.6186 5.14119 36.5986C5.14244 36.5786 5.12745 36.5611 5.1087 36.5599C4.99249 36.5499 4.81881 36.5349 4.79881 36.5299V36.5311Z" fill="white"/>
<path d="M5.11012 37.0422C5.06513 37.0509 4.90894 37.0272 4.82147 37.0097C4.80273 37.0059 4.78273 37.0184 4.77898 37.0384C4.77523 37.0584 4.78773 37.0772 4.80772 37.0809C4.82897 37.0847 4.98891 37.1159 5.08263 37.1159C5.09887 37.1159 5.11386 37.1159 5.12511 37.1122C5.17384 37.1022 5.30505 37.0997 5.37127 37.0997C5.37877 37.0997 5.38627 37.0997 5.39127 37.0997C5.41126 37.0997 5.4275 37.0834 5.4275 37.0634C5.4275 37.0434 5.41126 37.0272 5.39127 37.0272C5.38252 37.0272 5.18259 37.0259 5.11012 37.0409V37.0422Z" fill="white"/>
<path d="M5.38663 37.5896C5.30666 37.5697 5.15296 37.5347 5.15296 37.5347L5.13672 37.6046C5.13672 37.6046 5.28916 37.6396 5.36913 37.6596C5.45285 37.6796 5.57906 37.6821 5.58531 37.6821C5.6053 37.6821 5.62154 37.6659 5.62154 37.6471C5.62154 37.6271 5.60655 37.6109 5.58656 37.6109C5.58531 37.6109 5.4616 37.6084 5.38663 37.5896Z" fill="white"/>
<path d="M4.46169 39.6989C4.51292 39.7838 5.07147 39.9825 5.29264 40.2399C5.51381 40.4986 6.43098 40.8672 6.43098 40.8672L7.19446 40.9959C7.19446 40.9959 7.66179 40.9347 7.72427 40.8847C7.78549 40.836 7.92794 40.731 7.79174 40.5461C7.65679 40.3611 7.33066 40.1712 7.24444 40.1462C7.15822 40.1212 6.11235 38.7492 6.00114 38.3793C5.88993 38.0095 5.70624 36.9386 5.70624 36.9386C5.70624 36.9386 5.66876 33.9472 5.71874 33.5161C5.76747 33.085 5.82995 32.1991 5.88493 31.9279C5.93991 31.6568 6.02363 31.2257 6.02363 31.2257C6.02363 31.2257 6.11235 31.0195 5.35012 30.9745C4.58665 30.9295 4.07558 30.9908 4.07558 30.9908C4.0206 30.8795 3.66948 31.3231 3.65073 32.1166C3.63199 32.9101 4.38922 35.7915 4.38922 35.7915L4.90903 37.9145C4.90903 37.9145 5.06647 38.2281 4.80782 38.4743C4.54916 38.7205 4.08932 39.0641 4.46294 39.6926L4.46169 39.6989Z" fill="white"/>
<path d="M4.11607 38.5555C3.87865 38.8354 3.82617 39.0253 3.82617 39.339C3.82617 39.6526 4.29475 39.9587 4.51467 40.0125C4.7346 40.065 5.04073 40.3423 5.23941 40.4948C5.86294 40.9759 6.50271 41.0196 6.50271 41.0196C6.50271 41.0196 6.82259 40.4448 7.04126 40.3161C7.25994 40.1887 7.51859 40.2999 7.51859 40.2999C7.51859 40.2999 6.61642 38.7442 6.38525 38.3606C6.15408 37.977 5.99664 37.2197 5.99664 37.2197C5.99664 37.2197 5.64427 37.3134 5.20693 37.3472C4.76958 37.3822 4.38097 37.2197 4.38097 37.2197C4.38097 37.2197 4.52717 37.4646 4.56341 37.8245C4.59964 38.1856 4.35348 38.2743 4.11607 38.5542V38.5555Z" fill="#343434"/>
<path d="M3.83164 38.1394C3.83164 38.1394 4.18026 38.1794 4.55763 38.5642C4.83378 38.8479 4.86002 38.8754 5.14241 38.9091C5.42481 38.9428 5.41607 38.7342 5.41607 38.7342C5.41607 38.7342 5.16741 37.842 5.16741 37.5034C5.16741 37.1647 5.02121 36.9723 4.78379 36.8036C4.54638 36.6337 4.26398 36.7361 3.83289 36.5437C3.40054 36.3513 3.00568 35.7078 3.00568 35.7078C3.00568 35.7078 2.84324 35.7827 2.79701 36.0576C2.65456 36.9123 3.41804 37.0285 3.41804 37.0285C3.41804 37.0285 2.90572 37.0798 3.18937 37.3647C3.29308 37.4696 3.73417 37.5159 3.73417 37.5159C3.73417 37.5159 3.34681 37.7283 3.54174 37.842C3.61047 37.882 4.10154 37.8757 4.11779 38.0044C3.72668 38.0044 3.83289 38.1394 3.83289 38.1394H3.83164Z" fill="white"/>
<path d="M3.66252 37.0072C3.63128 37.0022 3.40261 37.0059 3.33388 37.0072C3.31389 37.0072 3.29765 37.0234 3.2989 37.0434C3.2989 37.0634 3.31389 37.0796 3.33513 37.0784C3.45509 37.0759 3.63128 37.0746 3.65252 37.0784C3.66252 37.0796 3.69125 37.0809 3.72874 37.0809C3.80996 37.0809 3.92992 37.0784 3.9774 37.0771C3.9974 37.0771 4.01364 37.0596 4.01239 37.0397C4.01239 37.0197 3.99739 37.0072 3.9749 37.0047C3.85744 37.0072 3.68376 37.0097 3.66377 37.0072H3.66252Z" fill="#343434"/>
<path d="M4.02625 37.482C3.98251 37.4958 3.82382 37.4883 3.7351 37.4808C3.71511 37.4795 3.69762 37.4933 3.69637 37.5133C3.69512 37.5333 3.70886 37.5508 3.72885 37.552C3.7451 37.5533 3.83881 37.562 3.92503 37.562C3.97502 37.562 4.02125 37.5595 4.04749 37.5508C4.09997 37.5345 4.25491 37.5158 4.31114 37.5108C4.33114 37.5083 4.34613 37.4908 4.34363 37.4708C4.34113 37.4508 4.32364 37.4371 4.30365 37.4383C4.2949 37.4383 4.09622 37.4583 4.025 37.4808L4.02625 37.482Z" fill="#343434"/>
<path d="M4.35749 37.9982C4.27502 37.987 4.12008 37.9683 4.12008 37.9683L4.11133 38.0395C4.11133 38.0395 4.26627 38.0582 4.34749 38.0695C4.37623 38.0732 4.41122 38.0745 4.44371 38.0745C4.50619 38.0745 4.56117 38.0695 4.56492 38.0695C4.58491 38.0682 4.5999 38.0507 4.5974 38.0307C4.59616 38.0107 4.57616 37.9958 4.55867 37.9982C4.55867 37.9982 4.43496 38.0095 4.35749 37.9982Z" fill="#343434"/>
<path d="M6.15051 40.8834C6.0468 40.8522 5.92559 40.7522 5.7594 40.6148C5.6157 40.4973 5.43827 40.3499 5.19461 40.1824C4.62731 39.7913 3.92631 39.5476 3.89632 39.5376C3.78261 39.4989 3.66016 39.5589 3.62017 39.6726C3.58144 39.7863 3.64142 39.9088 3.75388 39.9487C3.76012 39.9512 4.42863 40.1837 4.9472 40.541C5.17461 40.6985 5.34455 40.8384 5.482 40.9509C5.68693 41.1196 5.83563 41.242 6.02306 41.2995C6.13177 41.3332 6.39292 41.3432 6.68907 41.3432C7.12641 41.3432 7.64248 41.3195 7.85865 41.3083C7.97861 41.302 8.06982 41.1995 8.06357 41.0808C8.05732 40.9609 7.95361 40.8672 7.83615 40.8759C7.13266 40.9121 6.28671 40.9259 6.14926 40.8847L6.15051 40.8834Z" fill="#343434"/>
<path d="M5.10663 31.2744C4.89045 31.2819 4.84422 31.3106 4.66428 31.3556C4.48435 31.4018 4.30941 31.2906 4.16946 31.2257C4.01202 31.1532 3.90581 31.1169 3.90581 31.1169L3.87207 31.1732C3.87207 31.1732 3.96953 31.2307 4.22194 31.3781C4.47435 31.5255 4.46811 31.513 4.82548 31.4456C5.18285 31.3781 5.29405 31.4056 5.50523 31.4718C5.7289 31.5418 5.93008 31.6992 5.93008 31.6992L5.98256 31.4331C5.98256 31.4331 5.65018 31.2869 5.54022 31.2731C5.37028 31.2531 5.32405 31.2669 5.10663 31.2731V31.2744Z" fill="white"/>
<path d="M7.52501 2.01123C7.79616 1.76632 7.85489 1.52266 7.8249 1.43394C7.79616 1.34522 7.77367 1.1303 7.46003 1.05658C7.1464 0.982855 6.80277 1.01909 6.14676 0.931623C5.91059 0.900385 5.41077 0.724198 5.23834 0.631731C5.0659 0.538015 4.95844 0.582999 5.00342 0.669218C5.04965 0.755437 5.31206 0.945368 5.31206 0.945368C5.31206 0.945368 5.17461 0.922877 5.24708 1.02159C5.31955 1.12031 5.41702 1.17654 5.51574 1.24276C5.61445 1.30899 5.95308 1.39646 5.95308 1.39646C5.95308 1.39646 5.62444 1.36147 5.7394 1.52141C5.85436 1.68135 6.21173 1.76757 6.21173 1.76757C6.21173 1.76757 5.97807 1.75383 6.04054 1.86754C6.10302 1.98125 6.54536 2.07746 6.54536 2.07746C6.54536 2.07746 6.16925 2.01873 6.23173 2.18117C6.29295 2.34361 6.43165 2.3886 6.47539 2.47357C6.51288 2.54479 6.49663 2.656 6.55411 2.7872C6.61159 2.91841 6.69656 2.9484 6.69656 2.9484L7.02269 2.92216C7.02269 2.92216 6.77903 2.8122 6.88774 2.61477C6.9977 2.41734 7.25386 2.25615 7.52501 2.01123Z" fill="white"/>
<path d="M6.4019 1.20531C5.95331 1.20531 5.33478 0.914162 5.32853 0.910414C5.31104 0.901667 5.28855 0.910414 5.2798 0.927908C5.27105 0.945401 5.2798 0.967893 5.29729 0.97664C5.32353 0.989135 5.93581 1.27778 6.4019 1.27778C6.42189 1.27778 6.44188 1.26279 6.44188 1.24154C6.44188 1.22155 6.42564 1.20531 6.40564 1.20531C6.40564 1.20531 6.40314 1.20531 6.4019 1.20531Z" fill="white"/>
<path d="M5.93062 1.35268C5.91188 1.34643 5.89064 1.35643 5.88564 1.37642C5.87939 1.39516 5.88939 1.41641 5.90938 1.4214C5.92437 1.4264 6.258 1.53261 6.61537 1.53261C6.63537 1.53261 6.65536 1.53261 6.67535 1.53261C6.69535 1.53261 6.71034 1.51512 6.71034 1.49513C6.71034 1.47514 6.6916 1.46014 6.67285 1.46014C6.30674 1.47389 5.93437 1.35393 5.93062 1.35268Z" fill="white"/>
<path d="M6.2267 1.7339C6.2092 1.72515 6.18671 1.7339 6.17921 1.75139C6.17047 1.77014 6.17921 1.79138 6.1967 1.79888C6.30667 1.84886 6.44412 1.86135 6.54908 1.86135C6.63905 1.86135 6.70402 1.85261 6.71027 1.85136C6.73026 1.84886 6.74401 1.83012 6.74151 1.81012C6.73901 1.79013 6.72152 1.77514 6.70027 1.77888C6.69777 1.77888 6.41288 1.81637 6.2267 1.73265V1.7339Z" fill="white"/>
<path d="M6.4181 2.00363C6.40061 1.99613 6.37812 2.00363 6.37062 2.02112C6.36187 2.03986 6.37062 2.06111 6.38811 2.0686C6.49807 2.11859 6.63552 2.13108 6.74048 2.13108C6.83045 2.13108 6.89543 2.12233 6.90168 2.12109C6.92167 2.11859 6.93542 2.09984 6.93292 2.07985C6.93042 2.05986 6.91167 2.04611 6.89168 2.04861C6.88918 2.04861 6.60429 2.0861 6.4181 2.00238V2.00363Z" fill="white"/>
<path d="M7.20049 0.219374C7.20798 0.0719274 6.56072 -0.051778 5.93594 0.0219454C5.31117 0.0956689 4.40525 0.423051 3.83545 0.970354C2.95077 1.82005 2.78708 2.91465 2.99701 3.90055C3.20568 4.88519 3.74048 5.83485 4.02913 6.2522C4.27654 6.60832 4.68015 7.43427 4.6589 7.7904C4.63766 8.14777 4.41274 9.11992 4.41274 9.11992L5.24994 8.82502C5.791 8.47765 5.94344 7.80664 6.03591 7.17062L6.68692 2.72597C6.68692 2.72597 6.54447 2.81469 6.62944 2.12119C6.71441 1.42769 7.19299 0.36932 7.20049 0.221873V0.219374Z" fill="#343434"/>
<path d="M4.24636 2.82478C4.40006 2.92225 4.54376 2.87351 4.63372 2.916C4.70995 2.95224 4.76617 3.0547 4.89612 3.12842C5.02483 3.20215 5.1173 3.17341 5.1173 3.17341L5.37345 2.94599C5.37345 2.94599 5.10105 3.00722 5.06731 2.77355C5.03482 2.53988 5.14728 2.24374 5.21976 1.86888C5.29223 1.49401 5.18852 1.25285 5.1073 1.19787C5.02608 1.14289 4.87364 0.976697 4.56625 1.11165C4.25886 1.2466 3.99395 1.49276 3.39042 1.83139C3.173 1.95385 2.64569 2.12004 2.44201 2.15127C2.23833 2.18251 2.17711 2.28623 2.26957 2.32996C2.36204 2.37244 2.70067 2.36745 2.70067 2.36745C2.70067 2.36745 2.57196 2.43492 2.69442 2.47241C2.81687 2.50989 2.93433 2.4949 3.05804 2.48865C3.18174 2.4824 3.51912 2.34246 3.51912 2.34246C3.51912 2.34246 3.22298 2.51989 3.42041 2.58112C3.61784 2.64235 3.96896 2.4899 3.96896 2.4899C3.96896 2.4899 3.76528 2.62485 3.88899 2.68108C4.01269 2.73606 4.44254 2.53988 4.44254 2.53988C4.44254 2.53988 4.09142 2.72607 4.24511 2.82353L4.24636 2.82478Z" fill="white"/>
<path d="M3.77905 1.90268C3.40543 2.18633 2.70194 2.33128 2.69444 2.33253C2.67445 2.33628 2.66195 2.35502 2.6657 2.37501C2.66945 2.39251 2.68445 2.40375 2.70069 2.40375C2.70319 2.40375 2.70569 2.40375 2.70819 2.40375C2.73818 2.3975 3.43418 2.25381 3.82154 1.96016C3.83778 1.94767 3.84028 1.92517 3.82903 1.90893C3.81654 1.89269 3.79404 1.89019 3.7778 1.90143L3.77905 1.90268Z" fill="white"/>
<path d="M4.16277 1.94623C3.86413 2.1874 3.47927 2.3211 3.47552 2.32235C3.45678 2.3286 3.44678 2.34984 3.45303 2.36858C3.45803 2.38358 3.47177 2.39357 3.48677 2.39357C3.49052 2.39357 3.49426 2.39357 3.49801 2.39107C3.51426 2.38607 3.89787 2.25237 4.20776 2.00246C4.22276 1.98997 4.22525 1.96748 4.21276 1.95123C4.20026 1.93624 4.17777 1.93374 4.16152 1.94623H4.16277Z" fill="white"/>
<path d="M4.3879 2.19749C4.3879 2.19749 4.17047 2.40992 3.9618 2.45615C3.94181 2.4599 3.93056 2.47989 3.93431 2.49988C3.93806 2.51738 3.95305 2.52862 3.9693 2.52862C3.9718 2.52862 3.97429 2.52862 3.97679 2.52862C4.20546 2.47739 4.42788 2.25997 4.43788 2.25122C4.45162 2.23748 4.45162 2.21374 4.43788 2.19999C4.42413 2.18625 4.40039 2.185 4.38665 2.19999L4.3879 2.19749Z" fill="white"/>
<path d="M4.71602 2.30125C4.71602 2.30125 4.4986 2.51368 4.28992 2.55991C4.26993 2.56366 4.25869 2.58365 4.26243 2.60364C4.26618 2.62114 4.28118 2.63238 4.29742 2.63238C4.29992 2.63238 4.30242 2.63238 4.30492 2.63238C4.53359 2.58115 4.75601 2.36373 4.766 2.35498C4.77975 2.34124 4.77975 2.3175 4.766 2.30375C4.75226 2.29001 4.72852 2.28876 4.71477 2.30375L4.71602 2.30125Z" fill="white"/>
<path d="M5.83607 2.25233C5.66363 1.9162 5.54742 1.64505 5.63114 1.21145C5.67988 0.960293 5.77609 0.736624 5.84732 0.572933C5.89355 0.465472 5.92979 0.381752 5.94228 0.319274C5.95353 0.256797 5.94228 0.209314 5.90854 0.176826C5.85481 0.125594 5.75235 0.120596 5.58616 0.160582C5.24629 0.243052 4.87017 0.394247 4.86642 0.395497C4.84768 0.402994 4.83893 0.424237 4.84643 0.44298C4.85392 0.461723 4.87517 0.47047 4.89391 0.462973C4.89766 0.461723 5.26753 0.311777 5.60241 0.230556C5.77235 0.189321 5.83482 0.206815 5.85856 0.228057C5.86481 0.233055 5.88106 0.250549 5.87106 0.305529C5.86106 0.360509 5.82608 0.44173 5.78109 0.544193C5.70862 0.710383 5.6099 0.939051 5.55992 1.19771C5.47245 1.65379 5.59741 1.94744 5.77109 2.28607C5.92729 2.58971 5.94978 2.63344 5.97227 2.63344C5.97602 2.63344 5.97977 2.63219 5.98477 2.63094L5.97352 2.5947L6.00351 2.57596C6.00351 2.57596 5.98102 2.53847 5.83482 2.25358L5.83607 2.25233Z" fill="white"/>
<path d="M3.68561 3.25694C3.67062 3.24445 3.64813 3.24569 3.63438 3.26194C3.62189 3.27693 3.62313 3.30067 3.63938 3.31317C3.64188 3.31442 3.8618 3.49935 4.05673 3.68054C4.25416 3.86547 4.37412 3.94044 4.37911 3.94419C4.38536 3.94794 4.39161 3.94919 4.39786 3.94919C4.41035 3.94919 4.4216 3.94294 4.4291 3.9317C4.43909 3.9142 4.43409 3.89296 4.41785 3.88172C4.41785 3.88172 4.29789 3.80674 4.10671 3.62681C3.91178 3.44312 3.68936 3.25819 3.68686 3.25569L3.68561 3.25694Z" fill="white"/>
<path d="M3.94499 4.17423C3.74631 4.10051 3.57512 4.07427 3.56887 4.07427C3.54888 4.07177 3.53014 4.08551 3.52764 4.10426C3.52514 4.12425 3.53888 4.14299 3.55763 4.14549C3.55887 4.14549 3.72881 4.17048 3.91999 4.24171C4.11867 4.31668 4.28861 4.33168 4.29611 4.33168C4.29611 4.33168 4.29861 4.33168 4.29986 4.33168C4.3186 4.33168 4.3336 4.31793 4.3361 4.29919C4.33735 4.27919 4.3236 4.2617 4.30361 4.26045C4.30236 4.26045 4.13617 4.24546 3.94748 4.17423H3.94499Z" fill="white"/>
<path d="M5.25178 1.98877C5.23179 1.98877 5.2168 2.00626 5.2168 2.02626C5.22929 2.32365 5.41547 2.58231 5.56667 2.78973C5.57417 2.79973 5.58541 2.80473 5.59541 2.80473C5.60291 2.80473 5.61041 2.80223 5.61665 2.79848C5.6329 2.78723 5.63665 2.76474 5.62415 2.7485C5.4792 2.54857 5.29927 2.29991 5.28802 2.02376C5.28802 2.00376 5.26928 1.99002 5.25053 1.98877H5.25178Z" fill="white"/>
<path d="M8.67858 8.28776C8.40617 8.33399 7.89511 8.22653 7.65019 8.0266C7.40403 7.82668 7.41528 6.54839 7.37779 6.56213C6.41689 6.9245 5.50847 6.08105 5.50847 6.08105C5.53346 6.80329 5.62342 7.39558 5.33728 8.0391C5.22357 8.29526 4.23892 8.87255 4.26391 8.89129C4.34639 8.94877 2.12594 9.25241 1.70109 10.3545C1.50241 10.8693 2.89066 12.6287 2.91565 12.6737C3.10059 13.0048 3.34675 14.2206 3.98152 15.4552C4.41761 16.3049 4.09273 17.4207 4.07398 17.5957C4.00901 18.1842 3.44046 20.7545 3.79658 21.1981C3.94153 21.378 7.32406 20.8732 7.42153 20.6258C8.49114 17.908 7.94134 8.84506 8.19375 8.59765C8.40617 8.39022 8.73106 8.27901 8.67858 8.28901V8.28776Z" fill="white"/>
<path d="M4.68967 13.4723C4.49349 13.4348 4.3448 13.2086 4.21234 13.0087C4.13487 12.89 4.06115 12.7788 3.98493 12.7213C3.785 12.5688 3.51634 12.5401 3.5051 12.5388C3.48511 12.5363 3.46762 12.5513 3.46512 12.5713C3.46262 12.5913 3.47761 12.6088 3.4976 12.6113C3.5001 12.6113 3.75751 12.6401 3.94119 12.78C4.00742 12.83 4.0774 12.9375 4.15237 13.0499C4.29232 13.2623 4.45101 13.5022 4.67593 13.5447C5.00581 13.6072 5.4419 13.6447 5.44565 13.6447H5.44815C5.46689 13.6447 5.48189 13.631 5.48439 13.611C5.48564 13.591 5.47189 13.5735 5.4519 13.5722C5.44815 13.5722 5.01581 13.5347 4.68967 13.4723Z" fill="white"/>
<path d="M5.51855 6.4834C5.51855 6.4834 5.86968 7.17815 6.49445 7.33809C6.67314 7.38432 6.96429 7.34434 7.0705 7.28811C7.25668 7.18939 7.41912 7.02945 7.41912 7.02945L7.40287 6.73956C7.40287 6.73956 7.05175 7.0382 6.67564 7.05444C6.13833 7.07818 5.51855 6.4834 5.51855 6.4834Z" fill="#343434"/>
<path d="M6.04351 2.65727C5.66739 2.67976 5.12384 2.96216 4.94765 3.14709C4.77271 3.33203 4.22416 3.75063 4.28039 4.75027C4.30039 5.10514 4.65901 5.76615 4.65901 5.76615L8.24896 5.39628C8.24896 5.39628 8.2877 3.81935 7.70666 3.20207C7.49174 2.97341 7.06189 2.59479 6.04351 2.65602V2.65727Z" fill="#343434"/>
<path d="M6.13853 3.52828C5.83738 3.55327 5.22885 4.0306 5.16388 4.25427C4.84774 5.36387 5.03642 5.74748 5.27259 6.16858C5.50625 6.58468 6.22974 7.087 6.45591 7.2082C6.66834 7.27068 7.00446 7.24694 7.16316 7.10949C7.21189 7.05701 7.57426 6.6684 7.61549 6.60717C8.13156 5.85369 7.92538 4.78907 7.77294 3.85566C7.613 3.56951 6.86452 3.46705 6.13728 3.52828H6.13853Z" fill="white"/>
<path d="M6.67835 4.28157L5.51502 3.92419L4.61035 4.49024L4.67782 6.2571L5.40381 6.9531L5.40631 4.83637L5.93487 4.4715L6.84205 4.76514L7.43683 4.38403L7.89042 4.67517L7.90416 6.74068L8.37274 5.87349C8.37274 5.87349 8.2228 3.99917 8.2253 3.96168C8.2278 3.92419 7.43808 3.85547 7.43808 3.85547L6.6771 4.28157H6.67835Z" fill="#343434"/>
<path d="M4.58291 4.23657C4.56291 4.23657 4.54667 4.25406 4.54792 4.27405L4.6004 6.08465C4.6004 6.10464 4.61664 6.11964 4.63664 6.11964C4.65663 6.11964 4.67287 6.10214 4.67162 6.08215L4.61914 4.27155C4.61914 4.25156 4.60165 4.23407 4.58166 4.23657H4.58291Z" fill="white"/>
<path d="M6.21884 4.84764C5.91145 4.83515 5.80273 4.92636 5.80273 4.92636C5.80273 4.92636 5.96018 4.99759 6.16635 5.01758C6.38752 5.03882 6.59745 5.17253 6.60495 5.16878C6.62369 5.16003 6.62244 4.9751 6.62244 4.9751C6.62244 4.9751 6.5787 4.92137 6.52497 4.89513C6.49249 4.88013 6.4475 4.85389 6.32755 4.83765C6.34879 4.87138 6.39502 4.95261 6.38753 4.95261C6.37878 4.94511 6.3213 4.85264 6.21884 4.84764Z" fill="#343434"/>
<path d="M7.05254 4.8939C6.99756 4.92015 6.95508 4.97388 6.95508 4.97388C6.95508 4.97388 6.95508 5.15881 6.97257 5.16756C6.98132 5.1713 7.19124 5.03885 7.41116 5.01636C7.61734 4.99637 7.77478 4.92514 7.77478 4.92514C7.77478 4.92514 7.66732 4.83393 7.35868 4.84642C7.25497 4.85017 7.19749 4.94389 7.18999 4.95138C7.1825 4.95138 7.22873 4.87016 7.24997 4.83643C7.13002 4.85267 7.08503 4.87766 7.05254 4.8939Z" fill="#343434"/>
<path d="M7.25785 5.24628C7.15538 5.26377 7.08166 5.33625 7.09415 5.40872C7.10665 5.4812 7.20036 5.52493 7.30283 5.50744C7.40529 5.48994 7.47901 5.41747 7.46652 5.345C7.45402 5.27252 7.36031 5.22879 7.25785 5.24628Z" fill="#343434"/>
<path d="M7.31545 5.36742C7.3217 5.40365 7.35544 5.42864 7.39043 5.42364C7.42541 5.4174 7.44915 5.38241 7.4429 5.34617C7.43666 5.30994 7.40292 5.28494 7.36793 5.28994C7.33295 5.29619 7.3092 5.33118 7.31545 5.36742Z" fill="white"/>
<path d="M6.11411 5.24494C6.00914 5.26244 5.93417 5.34241 5.94791 5.42238C5.96166 5.50235 6.05788 5.55233 6.16284 5.53484C6.2678 5.51734 6.34277 5.43737 6.32903 5.3574C6.31528 5.27743 6.21907 5.22745 6.11411 5.24494Z" fill="#343434"/>
<path d="M6.18557 5.39232C6.19182 5.42855 6.22556 5.45355 6.26054 5.44855C6.29553 5.4423 6.31927 5.40731 6.31303 5.37107C6.30678 5.33484 6.27304 5.30985 6.23805 5.31485C6.20306 5.32109 6.17932 5.35608 6.18557 5.39232Z" fill="white"/>
<path d="M6.89449 6.00721C6.82952 6.01721 6.67082 6.00346 6.61584 5.99721C6.5871 5.99472 6.55961 6.01596 6.55586 6.04595C6.55336 6.07594 6.57461 6.10218 6.6046 6.10593C6.62084 6.10718 6.7358 6.11967 6.82952 6.11967C6.8595 6.11967 6.88825 6.11967 6.90949 6.11592C6.95447 6.10967 6.99071 6.08843 7.0132 6.05344C7.04569 6.00596 7.05069 5.93599 7.02944 5.84602C7.01695 5.79229 6.99446 5.74606 6.97321 5.69982C6.94947 5.64859 6.92698 5.59986 6.92073 5.54988L6.91948 5.53613C6.91448 5.49739 6.90824 5.44741 6.91449 5.40743C6.92323 5.3462 6.93823 5.31871 6.95572 5.28622C6.98571 5.22999 7.0182 5.17001 7.00695 4.97133C7.0057 4.94134 6.97696 4.9176 6.94947 4.9201C6.91949 4.92135 6.89699 4.94759 6.89824 4.97758C6.90699 5.14627 6.88575 5.18751 6.85951 5.23624C6.84076 5.27248 6.81827 5.31246 6.80702 5.39243C6.79828 5.44741 6.80577 5.50489 6.81327 5.56362C6.82077 5.62985 6.84826 5.68858 6.8745 5.74606C6.89449 5.78854 6.91324 5.82977 6.92323 5.87226C6.94322 5.95223 6.92948 5.98347 6.92323 5.99347C6.91948 5.99971 6.91199 6.00596 6.89324 6.00846L6.89449 6.00721Z" fill="#343434"/>
<path d="M6.51156 6.40967C6.44533 6.40967 6.3916 6.4634 6.3916 6.52962C6.3916 6.59585 6.44533 6.64958 6.51156 6.64958H6.99388C7.06011 6.64958 7.11384 6.59585 7.11384 6.52962C7.11384 6.4634 7.06011 6.40967 6.99388 6.40967H6.51156Z" fill="white"/>
<path d="M6.31261 6.45972C6.29261 6.45972 6.27637 6.47596 6.27637 6.49595C6.27637 6.51595 6.29261 6.53219 6.31261 6.53219H7.1623C7.18229 6.53219 7.19854 6.51595 7.19854 6.49595C7.19854 6.47596 7.18229 6.45972 7.1623 6.45972H6.31261Z" fill="#343434"/>
<path d="M4.48633 4.15305L4.5663 4.51917L5.51471 3.92438L6.67804 4.28176L7.41902 3.86691L8.18874 3.94563L8.12752 3.59575L6.48186 2.94849L4.48633 4.15305Z" fill="white"/>
<path d="M7.40573 3.64575C7.39823 3.64575 7.39073 3.64575 7.38324 3.6495L6.63101 4.04811L5.56014 3.72697C5.55014 3.72447 5.5389 3.72572 5.53015 3.73072L4.59049 4.31176C4.573 4.32176 4.568 4.34425 4.57925 4.36174C4.58549 4.37299 4.59799 4.37924 4.61049 4.37924C4.61673 4.37924 4.62298 4.37799 4.62923 4.37424L5.55515 3.80195L6.62476 4.12308C6.63351 4.12558 6.6435 4.12433 6.65225 4.12058L7.40697 3.71948L8.10173 3.81944C8.12047 3.82069 8.13921 3.80819 8.14296 3.7882C8.14546 3.76821 8.13172 3.74946 8.11172 3.74697L7.40573 3.64575Z" fill="white"/>
<path d="M6.47202 3.14846L5.87348 3.53957C5.85724 3.55082 5.85224 3.57331 5.86349 3.58955C5.87098 3.59955 5.88223 3.6058 5.89348 3.6058C5.89972 3.6058 5.90722 3.6033 5.91347 3.59955L6.49576 3.21844L7.15302 3.50458C7.17176 3.51333 7.19301 3.50458 7.2005 3.48584C7.208 3.4671 7.2005 3.44586 7.18176 3.43836L6.50575 3.14347C6.49451 3.13847 6.48201 3.13972 6.47202 3.14596V3.14846Z" fill="white"/>
<path d="M6.51809 3.32575C6.50685 3.32075 6.4931 3.322 6.4831 3.3295L6.00578 3.65189C5.99453 3.65938 5.98828 3.67313 5.99078 3.68687C5.99328 3.70062 6.00203 3.71186 6.01577 3.71561L6.56557 3.8893C6.56557 3.8893 6.57307 3.89055 6.57682 3.89055C6.58307 3.89055 6.58807 3.8893 6.59307 3.8868L7.08039 3.63564C7.09288 3.62939 7.10038 3.6169 7.10038 3.6019C7.10038 3.58816 7.09163 3.57566 7.07914 3.56942L6.51934 3.32325L6.51809 3.32575ZM6.57307 3.81683L6.10949 3.67063L6.5081 3.40073L6.98043 3.60815L6.57307 3.81808V3.81683Z" fill="white"/>
<path d="M8.59805 9.28996C8.3094 9.27621 8.01451 8.95508 8.01451 8.95508C8.01451 8.95508 7.86457 9.17 7.77335 9.42866C7.68213 9.68731 7.63965 9.84976 7.63965 9.84976C7.63965 9.84976 8.33315 10.2871 8.54682 10.4408C8.758 10.592 9.12786 10.7844 9.12786 10.7844C9.12786 10.7844 9.08538 10.4595 9.0179 10.0347C8.95292 9.62359 8.85921 9.29121 8.85296 9.26997C8.85296 9.27996 8.83047 9.3012 8.5993 9.29121L8.59805 9.28996Z" fill="#343434"/>
<path d="M8.74508 7.83038C8.60013 7.82788 8.60013 7.71168 8.52141 7.70168C8.44394 7.69168 8.28899 7.78915 8.19403 7.74791C8.13905 7.72417 8.07407 7.69418 7.9916 7.6542C7.62173 7.47551 7.50802 7.70668 7.50802 7.70668C7.50802 7.70668 7.47053 7.93285 7.81666 8.18651C7.92162 8.26398 8.1178 8.65384 8.1178 8.65384H8.85629C8.85629 8.65384 9.0837 8.30271 9.23115 8.29647C9.3786 8.29022 9.66725 8.41517 9.66725 8.41517C9.66725 8.41517 9.61726 8.00157 9.5198 7.9191C9.41608 7.83163 9.35486 7.75416 9.13743 7.75541C9.04872 7.75541 8.85129 7.83038 8.74383 7.82788L8.74508 7.83038Z" fill="#343434"/>
<path d="M7.94151 7.70166C7.92151 7.70166 7.90527 7.7179 7.90527 7.7379C7.90527 7.95532 8.2439 8.49387 8.25889 8.51762C8.26514 8.52886 8.27764 8.53511 8.28889 8.53511C8.29513 8.53511 8.30263 8.53386 8.30763 8.53011C8.32512 8.51887 8.33012 8.49762 8.31887 8.48013C8.22391 8.32893 7.9765 7.90159 7.9765 7.73915C7.9765 7.71915 7.96025 7.70291 7.94026 7.70291L7.94151 7.70166Z" fill="white"/>
<path d="M8.4891 7.8742C8.47036 7.87045 8.45037 7.88295 8.44662 7.90169C8.44412 7.91669 8.37165 8.27031 8.47661 8.48523C8.48286 8.49773 8.49535 8.50522 8.50909 8.50522C8.51409 8.50522 8.52034 8.50522 8.52534 8.50147C8.54283 8.49273 8.55033 8.47148 8.54158 8.45274C8.44662 8.26031 8.51659 7.91918 8.51784 7.91668C8.52159 7.89669 8.50909 7.87795 8.49035 7.8742H8.4891Z" fill="white"/>
<path d="M9.10497 8.00415C8.96877 8.10786 8.7376 8.42275 8.7276 8.4365C8.71636 8.45274 8.71886 8.47523 8.7351 8.48648C8.74135 8.49148 8.74885 8.49398 8.75635 8.49398C8.76759 8.49398 8.77883 8.48898 8.78508 8.47898C8.78758 8.47523 9.02 8.1591 9.1487 8.06163C9.36612 7.89544 9.50108 7.95167 9.50607 7.95292C9.52357 7.96042 9.54606 7.95292 9.55356 7.93543C9.56231 7.91668 9.55356 7.89544 9.53606 7.88794C9.52857 7.8842 9.35863 7.81047 9.10497 8.00415Z" fill="white"/>
<path d="M8.1271 9.38103L7.90968 9.85336C7.90093 9.87211 7.90968 9.89335 7.92717 9.90085C7.93217 9.90334 7.93717 9.90459 7.94217 9.90459C7.95591 9.90459 7.96841 9.8971 7.97466 9.88335L8.19208 9.41102C8.20082 9.39228 8.19208 9.37104 8.17459 9.36354C8.15709 9.35479 8.1346 9.36354 8.1271 9.38103Z" fill="white"/>
<path d="M8.37706 10.1183C8.37706 10.1183 8.38206 10.1183 8.38456 10.1183C8.40205 10.1183 8.41705 10.1058 8.41954 10.0896C8.42204 10.0733 8.49702 9.68846 8.47327 9.45854C8.47077 9.43855 8.45328 9.42355 8.43329 9.42605C8.4133 9.42855 8.39955 9.44605 8.4008 9.46604C8.42329 9.68471 8.34832 10.0721 8.34832 10.0771C8.34457 10.0971 8.35707 10.1158 8.37706 10.1196V10.1183Z" fill="white"/>
<path d="M8.61558 9.41225C8.59934 9.42225 8.59309 9.44474 8.60433 9.46224C8.73179 9.66466 8.77552 10.2819 8.77552 10.2882C8.77677 10.3069 8.79302 10.3219 8.81176 10.3219C8.81176 10.3219 8.81301 10.3219 8.81426 10.3219C8.83425 10.3207 8.84924 10.3032 8.84799 10.2832C8.84674 10.257 8.80301 9.64092 8.66556 9.4235C8.65556 9.40601 8.63307 9.40101 8.61558 9.41225Z" fill="white"/>
<path d="M8.45039 9.42848C8.28171 9.42848 8.13176 9.35226 8.0293 9.23355C8.09177 9.47346 8.30795 9.65215 8.56785 9.65215C8.87649 9.65215 9.1264 9.40224 9.1264 9.0936C9.1264 8.95365 9.07392 8.82745 8.98895 8.72998C9.0002 8.77496 9.00894 8.8212 9.00894 8.86993C9.00894 9.17857 8.75903 9.42848 8.45039 9.42848Z" fill="white"/>
<path d="M9.17606 8.37772C9.25853 8.32149 9.39473 8.32149 9.39473 8.32149C9.39473 8.32149 9.28602 8.28775 9.23229 8.29775C9.09734 8.32149 8.94864 8.51267 8.90741 8.5789C8.86617 8.64512 8.91865 9.52856 8.91865 9.52856L9.12233 10.6894C9.12233 10.6894 9.0786 9.93466 9.04486 9.70224C9.00487 9.43109 8.86367 8.59264 9.17731 8.37772H9.17606Z" fill="white"/>
<path d="M7.50696 9.75853C7.50197 9.80102 7.64566 9.82851 7.64566 9.82851C7.64566 9.82851 7.74313 9.56985 7.83809 9.36743C7.93306 9.165 8.05177 9.06254 8.05177 9.06254L8.11674 8.6152C8.11674 8.6152 8.01928 8.38653 7.92431 8.28157C7.82935 8.1766 7.81685 8.18785 7.81685 8.18785C7.81685 8.18785 8.02553 8.58646 8.03052 8.65518C8.03427 8.72391 7.98929 8.94383 7.91556 9.04754C7.84184 9.15125 7.51196 9.7148 7.50821 9.75853H7.50696Z" fill="white"/>
<path d="M7.94141 8.95503C7.94141 9.26367 8.19132 9.51358 8.49996 9.51358C8.80859 9.51358 9.0585 9.26367 9.0585 8.95503C9.0585 8.64639 8.80859 8.39648 8.49996 8.39648C8.19132 8.39648 7.94141 8.64639 7.94141 8.95503Z" fill="white"/>
<path d="M8.50824 9.22743C8.68215 9.22743 8.82313 9.08645 8.82313 8.91254C8.82313 8.73864 8.68215 8.59766 8.50824 8.59766C8.33434 8.59766 8.19336 8.73864 8.19336 8.91254C8.19336 9.08645 8.33434 9.22743 8.50824 9.22743Z" fill="#343434"/>
<path d="M4.20703 16.3647V16.8221L4.39821 16.3622C4.39821 16.3622 5.0005 14.924 5.02424 14.864C5.04798 14.8053 5.53905 13.5532 5.53905 13.5532L5.27665 13.3308C5.27665 13.3308 5.18293 13.7794 5.10921 14.0618C5.03548 14.3454 4.20703 16.3635 4.20703 16.3635V16.3647Z" fill="white"/>
<path d="M5.14453 8.36523C5.14453 8.36523 5.60187 8.78508 6.26163 9.14495C6.619 9.33988 8.03974 10.2233 8.75573 10.5769C9.52045 10.9543 10.169 11.4404 10.169 11.4404C10.169 11.4404 9.54295 10.9056 9.31803 10.7844C8.20718 10.1871 6.68398 9.24991 6.49904 9.14745C6.31411 9.04624 5.14453 8.36523 5.14453 8.36523Z" fill="white"/>
<path d="M2.95959 25.5065C2.93459 25.7777 2.81214 27.8582 2.81214 28.2393C2.81214 28.6204 2.70093 30.7871 2.70093 30.7871C2.70093 30.7871 3.66058 30.9596 4.1779 31.242C4.69521 31.5256 4.52277 31.2682 5.32248 31.267C5.78357 31.267 5.4212 31.2919 6.38085 31.5506C7.34051 31.8093 7.18056 31.6368 7.89531 31.5506C8.6088 31.4644 9.32354 30.9596 9.5822 30.7746C9.84085 30.5897 12.1675 29.5063 12.6961 29.3339C13.2259 29.1615 12.9672 29.3589 13.3358 29.4576C13.7057 29.5563 13.5208 29.4326 13.7669 29.3464C14.0131 29.2602 14.5054 28.8353 14.5054 28.8353C14.5054 28.8353 13.2871 25.7339 13.0647 25.0692C12.8435 24.4044 11.1079 19.0751 11.1079 19.0751L10.0858 15.8063C10.0858 15.8063 10.3694 15.5851 10.5044 15.5114C10.6393 15.4377 10.2207 15.1303 10.2207 15.1303C10.2207 15.1303 10.3319 14.9453 10.4544 14.7492C10.5781 14.5517 10.6756 14.4293 10.6756 14.2568C10.6756 14.0844 10.4044 13.8257 10.4044 13.8257C10.4044 13.8257 10.5518 13.6171 10.6381 13.5308C10.7243 13.4446 10.6993 13.2472 10.7243 13.1372C10.7493 13.026 10.8717 12.7061 10.8717 12.7061L10.4969 12.2875V11.7028C10.4969 11.7028 10.0533 11.3154 9.44475 10.9643C8.83497 10.6131 8.94493 10.6481 7.89905 10.0446C6.9294 9.48605 6.24465 9.16992 5.51741 8.62261C4.9951 8.229 4.83266 8.229 4.83266 8.229C4.83266 8.229 4.29785 8.5089 3.59186 8.43018C3.3432 8.40269 3.18076 8.75382 2.95959 8.86877C2.74841 8.97873 2.55723 8.83254 2.34606 9.01247C2.29108 9.05871 2.24235 9.34485 2.18736 9.39858C2.0824 9.50105 1.76877 9.46481 1.68005 9.59851C1.61132 9.70222 1.67255 10.1408 1.58508 10.2245C1.14024 10.6519 1.57883 10.8156 1.57883 10.8156C1.57883 10.8156 1.73003 10.1208 2.496 10.7856C2.99707 11.2204 3.95048 12.1313 5.51741 13.5996C4.27536 16.8784 3.92924 17.0171 3.4694 19.4062C3.38319 19.8736 2.98333 25.2379 2.95834 25.509L2.95959 25.5065Z" fill="#343434"/>
<path d="M11.0613 22.7438C11.0426 22.7488 11.0313 22.7688 11.0363 22.7888C11.0488 22.8338 12.2734 27.2422 12.3471 27.5883C12.4208 27.9369 12.8744 29.2302 12.8944 29.2852C12.8994 29.3002 12.9132 29.3089 12.9282 29.3089C12.9319 29.3089 12.9357 29.3089 12.9407 29.3064C12.9594 29.3002 12.9694 29.279 12.9631 29.2602C12.9581 29.2465 12.4908 27.9169 12.4183 27.5733C12.3446 27.2247 11.1575 22.9512 11.1063 22.7688C11.1013 22.7501 11.0813 22.7376 11.0613 22.7438Z" fill="white"/>
<path d="M7.5798 25.8489C7.5823 25.8289 7.56855 25.8114 7.54856 25.8089C7.52981 25.8064 7.51107 25.8201 7.50857 25.8401C7.50482 25.8664 7.19368 28.5054 7.17619 28.9815C7.15745 29.4588 7.33489 31.0607 7.34238 31.1282C7.34488 31.147 7.35987 31.1607 7.37862 31.1607C7.37987 31.1607 7.38112 31.1607 7.38237 31.1607C7.40236 31.1582 7.4161 31.1407 7.41486 31.1207C7.41361 31.1045 7.23117 29.4563 7.24867 28.984C7.26741 28.5104 7.5773 25.8751 7.58105 25.8476L7.5798 25.8489Z" fill="white"/>
<path d="M6.12408 25.3052C6.12158 25.3315 5.84668 27.8806 5.84668 28.7153V30.9969C5.84668 31.0169 5.86292 31.0332 5.88292 31.0332C5.90291 31.0332 5.91915 31.0169 5.91915 30.9969V28.7153C5.91915 27.8856 6.19281 25.339 6.19531 25.314C6.1978 25.294 6.18281 25.2765 6.16282 25.274C6.14407 25.2728 6.12533 25.2865 6.12283 25.3065L6.12408 25.3052Z" fill="white"/>
<path d="M7.61915 15.0414C7.59916 15.0376 7.58042 15.0514 7.57792 15.0714C7.57292 15.1026 7.07435 18.154 7.29427 20.1058C7.51419 22.0551 7.57667 22.3163 7.57917 22.3263C7.58292 22.3425 7.59791 22.3538 7.61415 22.3538C7.61665 22.3538 7.6204 22.3538 7.6229 22.3538C7.64165 22.3488 7.65414 22.33 7.64914 22.31C7.64664 22.3 7.58417 22.0326 7.36675 20.0996C7.14807 18.1578 7.64539 15.1151 7.65039 15.0851C7.65414 15.0651 7.6404 15.0464 7.6204 15.0439L7.61915 15.0414Z" fill="white"/>
<path d="M6.97721 14.6241C6.95722 14.6216 6.93972 14.6353 6.93723 14.6553C6.91973 14.7978 6.49363 18.1353 6.50613 18.5514C6.51862 18.965 6.50613 20.4307 6.50613 20.4457C6.50613 20.4657 6.52237 20.482 6.54237 20.482C6.56236 20.482 6.5786 20.4657 6.5786 20.4457C6.5786 20.4307 6.5911 18.9625 6.5786 18.5489C6.56611 18.1378 7.0047 14.699 7.00845 14.6641C7.01095 14.6441 6.9972 14.6266 6.97721 14.6241Z" fill="white"/>
<path d="M6.20695 14.1081C6.19321 14.1343 4.88993 16.7184 4.76248 18.5152C4.67251 19.781 3.96026 23.9695 3.95277 24.012C3.94902 24.032 3.96276 24.0507 3.98275 24.0532C3.98525 24.0532 3.9865 24.0532 3.989 24.0532C4.0065 24.0532 4.02149 24.0407 4.02399 24.0232C4.03149 23.9807 4.74373 19.7885 4.83495 18.519C4.9624 16.7371 6.25943 14.1655 6.27193 14.1393C6.28068 14.1218 6.27443 14.0993 6.25568 14.0906C6.23819 14.0818 6.2157 14.0881 6.20695 14.1068V14.1081Z" fill="white"/>
<path d="M8.72775 15.6788C8.72775 15.6588 8.71275 15.645 8.69026 15.6438C8.67027 15.6438 8.65527 15.6613 8.65527 15.6813C8.65902 15.7825 9.02639 25.7702 9.20882 27.4008C9.39126 29.0352 9.62492 29.6038 9.63492 29.6263C9.64117 29.64 9.65366 29.6488 9.66866 29.6488C9.67365 29.6488 9.67865 29.6488 9.6824 29.6463C9.70115 29.6388 9.70989 29.6175 9.70115 29.5988C9.69865 29.5925 9.46123 29.014 9.28005 27.3933C9.09886 25.7664 8.73024 15.78 8.72775 15.68V15.6788Z" fill="white"/>
<path d="M7.04031 11.8301C7.04031 11.8301 8.64223 13.5582 9.50942 14.3867C9.81181 14.6378 10.0805 14.9327 10.3416 15.2264C9.92052 14.5541 9.28075 14.053 8.80842 13.4133C8.37233 12.8872 7.4889 12.3324 7.03906 11.8301H7.04031Z" fill="white"/>
<path d="M5.68926 9.5721C5.67552 9.5871 5.67676 9.60959 5.69176 9.62333C5.70051 9.63083 6.58769 10.4368 7.31868 10.9853C8.05716 11.5389 10.495 13.3607 10.495 13.3607L10.5388 13.3033C10.5388 13.3033 8.10214 11.4814 7.36241 10.9279C6.63392 10.3818 5.74924 9.57835 5.74049 9.57085C5.7255 9.55711 5.70301 9.55836 5.68926 9.57335V9.5721Z" fill="white"/>
<path d="M8.17346 10.7255C8.16221 10.7418 8.16596 10.7643 8.1822 10.7755L10.7738 12.6448C10.78 12.6498 10.7875 12.6511 10.795 12.6511C10.8063 12.6511 10.8175 12.6461 10.8237 12.6361C10.835 12.6198 10.8312 12.5974 10.815 12.5861L8.22344 10.7168C8.20719 10.7055 8.1847 10.708 8.17346 10.7255Z" fill="white"/>
<path d="M3.56543 8.62253C4.4751 9.19107 6.63432 11.4378 6.75053 11.5902C5.55096 9.99828 3.80534 8.49757 3.56543 8.62253Z" fill="white"/>
<path d="M3.11091 10.4944C2.51863 10.0308 1.87636 9.86588 1.87011 9.86463C1.85012 9.85963 1.83138 9.87213 1.82638 9.89087C1.82138 9.90962 1.83262 9.92961 1.85262 9.93461C1.85886 9.93586 2.48614 10.0983 3.06718 10.5519C3.65072 11.008 4.7953 12.405 4.80655 12.42C4.81405 12.4287 4.82404 12.4337 4.83404 12.4337C4.84154 12.4337 4.85029 12.4312 4.85654 12.425C4.87153 12.4125 4.87403 12.39 4.86153 12.3737C4.85028 12.36 3.7007 10.9567 3.11091 10.4944Z" fill="white"/>
<path d="M7.21079 13.176C6.51604 12.5412 5.6526 11.7503 5.02283 11.1217C4.17938 10.2783 2.55497 9.47234 2.53872 9.46485C2.52123 9.4561 2.49874 9.4636 2.48999 9.48109C2.48125 9.49858 2.48874 9.52108 2.50623 9.52982C2.52248 9.53732 4.13565 10.3383 4.97035 11.173C5.60137 11.8028 6.46606 12.5937 7.16081 13.2297C7.39947 13.4484 7.61564 13.6458 7.79058 13.8083C8.46159 14.4306 9.46873 15.1028 9.47872 15.1091C9.48497 15.1128 9.49247 15.1153 9.49872 15.1153C9.50996 15.1153 9.52246 15.1091 9.5287 15.0991C9.53995 15.0828 9.53495 15.0603 9.51871 15.0491C9.50871 15.0428 8.50657 14.3743 7.83931 13.7558C7.66438 13.5934 7.4482 13.3959 7.20954 13.1773L7.21079 13.176Z" fill="white"/>
<path d="M1.68236 10.5306L1.62988 10.678C1.62988 10.678 1.90478 10.5993 2.19468 10.7468C2.48332 10.8942 3.76161 11.9638 3.76161 11.9638C3.76161 11.9638 3.30678 11.514 3.02688 11.2578C2.74823 11.0017 2.47583 10.7393 2.02099 10.5368C1.95227 10.5068 1.68361 10.5293 1.68361 10.5293L1.68236 10.5306Z" fill="white"/>
<path d="M10.0554 15.7886C10.0554 15.7886 10.0229 15.8423 9.90792 15.8698C9.63302 15.9348 8.88829 15.8623 6.99272 14.6303C6.41918 14.2579 5.20336 13.2733 4.16124 12.2711L3.94382 12.0612C2.94418 11.0966 2.08074 10.2644 1.68338 10.518C1.66714 10.5293 1.66214 10.5518 1.67214 10.568C1.68214 10.5842 1.70463 10.5892 1.72212 10.5792C2.07199 10.3556 2.95668 11.209 3.89384 12.1137L4.11126 12.3236C5.15713 13.3295 6.37794 14.3179 6.95398 14.6915C8.56965 15.7411 9.36936 15.9586 9.75423 15.9586C9.83045 15.9586 9.89043 15.9498 9.93666 15.9373C10.0754 15.9011 10.1153 15.8311 10.1191 15.8236C10.1278 15.8061 10.1216 15.7849 10.1041 15.7761C10.0866 15.7661 10.0654 15.7736 10.0554 15.7899V15.7886Z" fill="white"/>
<path d="M10.6769 13.7133L10.6269 13.5459C10.5394 13.6384 10.4082 13.8258 10.4082 13.8258C10.4082 13.8258 10.6169 14.0245 10.6681 14.1894C10.6794 14.0132 10.6006 13.9358 10.5906 13.8608C10.5781 13.7771 10.6794 13.7133 10.6794 13.7133H10.6769Z" fill="white"/>
<path d="M10.5059 15.5114C10.3735 15.5838 10.0998 15.7963 10.0898 15.805C10.1823 15.805 10.286 15.805 10.3035 15.8063C10.3335 15.8113 10.5809 15.5614 10.5984 15.4326C10.6159 15.3039 10.5034 15.1128 10.5184 14.9066C10.5272 14.7829 10.5622 14.6529 10.5972 14.5217C10.5584 14.5905 10.5109 14.6617 10.456 14.7479C10.3335 14.9453 10.2223 15.129 10.2223 15.129C10.2223 15.129 10.6409 15.4364 10.5059 15.5101V15.5114Z" fill="white"/>
<path d="M4.60891 19.2776C4.46771 19.0689 4.0791 18.6753 4.0791 18.6753C4.0791 18.6753 4.2203 19.0252 4.46646 19.3451C4.71262 19.6662 4.71387 19.7849 4.96628 19.8836C5.21869 19.9823 6.04589 19.9961 6.04589 19.9961C6.04589 19.9961 5.41487 19.8424 5.18245 19.7824C4.95004 19.7224 4.75011 19.485 4.60891 19.2763V19.2776Z" fill="white"/>
<path d="M6.78335 18.864L6.79834 18.789C6.82208 18.6715 6.75586 18.5591 6.6484 18.5178C6.71462 18.4866 6.76585 18.4266 6.78085 18.3491L6.79584 18.2742C6.82208 18.1442 6.73836 18.018 6.60841 17.9918L6.31476 17.933C6.36974 17.7531 6.33351 17.6057 6.0736 17.5919C5.41759 17.5594 5.20641 17.7819 5.01898 17.7469C4.76657 17.6994 4.56914 17.6169 4.31548 17.4507C3.87189 17.1608 1.85387 15.2653 1.85387 15.2653C1.85387 15.2653 3.64448 12.0314 3.56825 11.9377C2.50364 10.6307 1.67144 10.5645 1.67144 10.5645C1.67144 10.5645 1.0904 12.2126 1.01667 12.385C0.942951 12.5575 0.620567 13.4422 0.566836 13.6583C0.513105 13.8745 0.114501 15.0553 0.0220343 15.6114C-0.0341954 15.9525 0.0157849 16.3474 0.188223 16.581C0.360661 16.8147 1.22785 17.3258 1.68268 17.5969C1.88386 17.7169 3.36833 18.3654 3.89564 18.5941C4.01684 18.6465 4.12181 18.7303 4.20053 18.8377C4.36297 19.0589 4.65411 19.4537 4.84279 19.6974C4.84279 19.6974 4.8428 19.6974 4.84405 19.6987C4.87279 19.7399 4.91402 19.7699 4.964 19.7874C5.01523 19.8099 5.07396 19.8199 5.13144 19.8249L6.05611 20.0123C6.18606 20.0385 6.31227 19.9548 6.33851 19.8249L6.3535 19.7499C6.37599 19.6374 6.31602 19.5275 6.2148 19.4825L6.36974 19.5137C6.4997 19.54 6.6259 19.4562 6.65214 19.3263L6.66714 19.2513C6.68213 19.1764 6.65964 19.1039 6.61466 19.0489C6.69837 19.0252 6.7671 18.9577 6.7846 18.8665L6.78335 18.864Z" fill="white"/>
<path d="M5.15838 18.198C5.13839 18.1943 5.11965 18.2068 5.1159 18.2268C5.11215 18.2468 5.12465 18.2655 5.14464 18.2693L6.64035 18.5529C6.64035 18.5529 6.64535 18.5529 6.6466 18.5529C6.66409 18.5529 6.67908 18.5404 6.68158 18.5229C6.68533 18.5029 6.67283 18.4842 6.65284 18.4804L5.15713 18.1968L5.15838 18.198Z" fill="white"/>
<path d="M5.04217 19.2038C5.02343 19.2 5.00344 19.2125 4.99969 19.2325C4.99594 19.2525 5.00843 19.2713 5.02842 19.275L6.27048 19.5287C6.27048 19.5287 6.27547 19.5287 6.27797 19.5287C6.29422 19.5287 6.30921 19.5174 6.31296 19.4999C6.31671 19.4799 6.30422 19.4612 6.28422 19.4574L5.04217 19.2038Z" fill="white"/>
<path d="M5.04803 18.704C5.02929 18.7003 5.00929 18.7128 5.00555 18.7328C5.0018 18.7528 5.01429 18.7715 5.03429 18.7753L6.60497 19.0826C6.60497 19.0826 6.60997 19.0826 6.61247 19.0826C6.62996 19.0826 6.64496 19.0702 6.64746 19.0539C6.6512 19.0339 6.63871 19.0152 6.61871 19.0114L5.04803 18.704Z" fill="white"/>
<path d="M1.29776 15.0203C1.27902 15.0141 1.25778 15.0228 1.25153 15.0416C1.24403 15.0603 1.25402 15.0815 1.27277 15.0878L1.83881 15.299C1.83881 15.299 1.84756 15.3015 1.85131 15.3015C1.8663 15.3015 1.88005 15.2927 1.88505 15.2777C1.89255 15.259 1.88255 15.2377 1.86381 15.2315L1.29776 15.0203Z" fill="white"/>
<path d="M3.59015 12.1065L2.84792 13.3136C2.83792 13.3311 2.84292 13.3523 2.85917 13.3636C2.86541 13.3673 2.87166 13.3686 2.87791 13.3686C2.8904 13.3686 2.90165 13.3623 2.90915 13.3511L3.65138 12.144C3.66138 12.1265 3.65638 12.1053 3.64013 12.094C3.62389 12.084 3.6014 12.089 3.59015 12.1053V12.1065Z" fill="white"/>
<path d="M6.02691 17.8543C6.00691 17.8518 5.98817 17.8643 5.98567 17.8843C5.98317 17.9043 5.99567 17.923 6.01566 17.9255L6.38678 17.9843C6.38678 17.9843 6.39052 17.9843 6.39302 17.9843C6.41052 17.9843 6.42551 17.9718 6.42926 17.9543C6.43176 17.9343 6.41926 17.9155 6.39927 17.913L6.02815 17.8543H6.02691Z" fill="white"/>
<path d="M10.4521 11.7291C10.4271 11.7291 10.4059 11.7091 10.4059 11.6841C10.4059 11.6641 10.3184 9.71234 10.2959 9.55364C10.2297 9.08506 10.181 8.8464 10.0223 8.68895C9.88356 8.55025 9.4937 8.37157 9.27878 8.34783C9.25253 8.34533 9.23504 8.32159 9.23754 8.2966C9.24004 8.27036 9.26378 8.25161 9.28877 8.25536C9.52869 8.2816 9.93104 8.46778 10.0885 8.62398C10.2734 8.80766 10.3246 9.09381 10.3884 9.5424C10.4121 9.70609 10.4946 11.6017 10.4983 11.6829C10.4983 11.7091 10.4796 11.7304 10.4534 11.7316C10.4534 11.7316 10.4521 11.7316 10.4509 11.7316L10.4521 11.7291Z" fill="#343434"/>
<path d="M8.54872 36.3088C8.52498 36.3088 8.50374 36.2901 8.50249 36.2663C8.49874 36.2251 8.42002 35.2467 8.47625 34.9281C8.52373 34.6632 8.4575 34.467 8.24758 34.2521C8.15886 34.1608 8.0489 34.1271 7.9102 34.0834C7.76525 34.0384 7.60156 33.9859 7.41038 33.8572C7.38914 33.8422 7.38289 33.8135 7.39789 33.7922C7.41288 33.771 7.44162 33.7647 7.46286 33.7797C7.64155 33.9009 7.79899 33.9509 7.93769 33.9934C8.08389 34.0396 8.20884 34.0784 8.3138 34.1858C8.47625 34.352 8.63369 34.5732 8.56746 34.9443C8.51248 35.2504 8.5937 36.2488 8.5937 36.2588C8.5962 36.2851 8.57621 36.3076 8.55122 36.3088C8.54997 36.3088 8.54872 36.3088 8.54747 36.3088H8.54872Z" fill="#343434"/>
<path d="M9.12729 35.7203C9.10105 35.7203 9.08105 35.699 9.08105 35.6728C9.08105 35.3467 9.20851 34.7644 9.56838 34.1958C9.58212 34.1733 9.61086 34.1671 9.63335 34.1808C9.6546 34.1946 9.66209 34.2233 9.64835 34.2458C9.29972 34.7969 9.17602 35.3592 9.17602 35.6728C9.17602 35.699 9.15478 35.7203 9.12979 35.7203H9.12729Z" fill="#343434"/>
<path d="M5.42744 38.9205C5.4062 38.9205 5.38746 38.9068 5.38246 38.8855C5.37121 38.8431 5.12005 37.8447 5.12005 37.5048C5.12005 37.2199 5.01509 37.0275 4.75518 36.8425C4.64522 36.7638 4.52527 36.7488 4.37157 36.7288C4.21288 36.7088 4.03294 36.6851 3.81177 36.5876C3.78803 36.5776 3.77804 36.5489 3.78803 36.5252C3.79803 36.5014 3.82677 36.4914 3.85051 36.5014C4.05918 36.5939 4.23162 36.6164 4.38407 36.6364C4.54401 36.6564 4.68146 36.6751 4.81016 36.7663C5.01009 36.9088 5.21377 37.1074 5.21377 37.5048C5.21377 37.8334 5.47117 38.8531 5.47367 38.8631C5.47992 38.8881 5.46493 38.913 5.43994 38.9205C5.43619 38.9205 5.43244 38.9218 5.42869 38.9218L5.42744 38.9205Z" fill="#343434"/>
<path d="M4.59901 36.7036C4.57777 36.7036 4.55902 36.6899 4.55403 36.6674L4.2104 35.2654C4.20415 35.2404 4.21915 35.2154 4.24414 35.2092C4.26913 35.2029 4.29412 35.2179 4.30037 35.2429L4.64399 36.6449C4.65024 36.6699 4.63525 36.6949 4.61026 36.7011C4.60651 36.7011 4.60276 36.7024 4.59901 36.7024V36.7036Z" fill="#343434"/>
<path d="M5.99974 38.4282C5.97975 38.4282 5.961 38.4144 5.95475 38.3944C5.84479 38.0271 5.66611 36.9924 5.65861 36.9487C5.65861 36.9425 5.63737 36.7988 5.65111 36.3202C5.65111 36.2939 5.67111 36.274 5.69985 36.2752C5.72609 36.2752 5.74608 36.2977 5.74483 36.3239C5.73108 36.79 5.74983 36.9325 5.75108 36.935C5.75233 36.945 5.93601 38.0058 6.04472 38.3682C6.05222 38.3932 6.03847 38.4194 6.01348 38.4269C6.00848 38.4282 6.00474 38.4294 5.99974 38.4294V38.4282Z" fill="#343434"/>
</svg>
