<svg width="159" height="250" viewBox="0 0 159 250" fill="none" xmlns="http://www.w3.org/2000/svg">
<path d="M187.237 187.237C221.706 152.768 221.706 96.8818 187.237 62.4125C152.767 27.9431 96.8816 27.9431 62.4123 62.4124C27.9429 96.8818 27.9429 152.768 62.4123 187.237C96.8816 221.706 152.767 221.706 187.237 187.237Z" fill="#FCF3E7"/>
<path d="M124.829 204.618C114.057 204.618 103.607 202.508 93.7698 198.347C84.2681 194.328 75.7339 188.575 68.4062 181.247C61.0785 173.919 55.3246 165.385 51.306 155.883C47.1453 146.045 45.0352 135.595 45.0352 124.823C45.0352 114.051 47.1453 103.601 51.306 93.7635C55.3254 84.2617 61.0785 75.7276 68.4062 68.3999C75.7347 61.0721 84.2681 55.3183 93.7698 51.2996C103.608 47.1389 114.058 45.0288 124.829 45.0288C135.602 45.0288 146.052 47.1389 155.89 51.2996C165.391 55.3183 173.925 61.0721 181.253 68.3999C188.582 75.7283 194.335 84.2617 198.354 93.7635C202.515 103.601 204.625 114.052 204.625 124.823C204.625 135.595 202.515 146.045 198.354 155.883C194.335 165.385 188.582 173.918 181.253 181.247C173.926 188.575 165.391 194.328 155.89 198.347C146.051 202.508 135.601 204.618 124.829 204.618ZM124.829 45.9206C81.3227 45.9206 45.927 81.3163 45.927 124.823C45.927 168.33 81.3227 203.725 124.829 203.725C168.336 203.725 203.732 168.33 203.732 124.823C203.732 81.3163 168.336 45.9206 124.829 45.9206Z" fill="url(#paint0_linear_337_35458)"/>
<path d="M124.829 192.87C115.644 192.87 106.732 191.071 98.3427 187.522C90.2399 184.095 82.9628 179.189 76.7135 172.94C70.4643 166.691 65.5583 159.413 62.131 151.311C58.5824 142.922 56.7832 134.01 56.7832 124.824C56.7832 115.638 58.5824 106.726 62.131 98.3372C65.5583 90.2344 70.4643 82.9573 76.7135 76.708C82.9628 70.4588 90.2399 65.5528 98.3427 62.1255C106.732 58.5769 115.644 56.7777 124.829 56.7777C134.015 56.7777 142.927 58.5769 151.316 62.1255C159.419 65.5528 166.696 70.4588 172.945 76.708C179.194 82.9573 184.1 90.2344 187.528 98.3372C191.076 106.726 192.876 115.638 192.876 124.824C192.876 134.01 191.076 142.922 187.528 151.311C184.1 159.413 179.194 166.691 172.945 172.94C166.696 179.189 159.419 184.095 151.316 187.522C142.926 191.07 134.015 192.87 124.829 192.87ZM124.829 57.6695C87.8003 57.6695 57.6757 87.7948 57.6757 124.823C57.6757 161.852 87.8011 191.977 124.829 191.977C161.858 191.977 191.983 161.852 191.983 124.823C191.983 87.7948 161.858 57.6695 124.829 57.6695Z" fill="url(#paint1_linear_337_35458)"/>
<path d="M61.2325 101.981L51.0918 99.4004L51.2718 98.9318C52.3703 96.0757 54.0342 91.7082 54.1376 91.3244C54.1666 91.1764 54.2595 91.053 54.3957 90.9838C54.708 90.8261 55.0621 90.9518 56.7616 91.828C57.0614 91.9827 57.4303 92.1723 57.5456 92.2177C57.6705 92.2408 57.7806 92.3137 57.8505 92.4222C57.9807 92.6253 58.0699 92.7636 57.0673 95.0054L59.9896 95.4747L62.2172 90.6491L54.9483 87.2589L55.3254 86.4504L63.3998 90.2162L60.5162 96.464L55.7709 95.7023L56.0141 95.169C56.3838 94.3583 56.7906 93.404 56.9587 92.9302C56.8137 92.8596 56.6196 92.7599 56.3526 92.6223C55.9747 92.4275 55.2793 92.0697 54.8806 91.9046C54.4648 93.0902 53.1885 96.4342 52.2855 98.7838L61.4526 101.116L61.2325 101.981ZM55.016 91.4806C55.0137 91.4962 55.0063 91.5238 54.9951 91.5617C55.0041 91.5372 55.0115 91.5104 55.016 91.4806Z" fill="url(#paint2_linear_337_35458)"/>
<path d="M57.9913 114.814L48.459 113.927L49.2511 106.27L53.4713 106.21L53.0488 109.686L55.8574 109.506L56.944 103.738C53.8759 103.043 49.3076 102.026 48.9387 101.992C49.0763 102.004 49.3032 101.916 49.3753 101.68L48.5222 101.418C48.6442 101.021 48.9975 101.088 49.4058 101.168C49.6304 101.211 49.9592 101.279 50.3816 101.369C51.0897 101.519 52.076 101.735 53.3106 102.009C55.4126 102.476 57.5391 102.959 57.5606 102.963L57.9801 103.059L56.6056 110.352L52.0321 110.645L52.4613 107.117L50.0566 107.152L49.4385 113.123L58.0731 113.926L57.9913 114.814Z" fill="url(#paint3_linear_337_35458)"/>
<path d="M47.1963 129.432L46.7739 120.609L47.235 120.602C47.3667 120.6 50.4578 120.555 50.6014 120.555H50.788L50.9279 120.692C51.0655 120.832 51.1763 120.944 51.1488 123.681L53.7989 123.186V117.26C51.3243 117.13 46.1134 116.857 45.9141 116.853L45.9312 115.96C46.1625 115.965 53.4396 116.347 54.2689 116.391L54.6914 116.413V123.927L50.2421 124.758L50.2503 124.212C50.2659 123.167 50.26 122.002 50.228 121.452C49.6575 121.46 48.5537 121.476 47.7103 121.488L48.045 128.47L57.1957 127.749L57.2656 128.639L47.1963 129.432Z" fill="url(#paint4_linear_337_35458)"/>
<path d="M49.7936 143.744L47.8836 135.362L51.4797 134.712L52.6066 138.446L54.762 137.899L53.5571 131.955L45.9029 132.941L45.7891 132.056L54.2667 130.964L55.8063 138.555L51.9989 139.522L50.855 135.731L48.9613 136.074L50.4585 142.646L59.0194 140.393L59.247 141.257L49.7936 143.744Z" fill="url(#paint5_linear_337_35458)"/>
<path d="M54.9894 157.224L51.5033 150.359L54.6748 148.963L56.1616 151.657L57.8403 150.637L55.6521 145.765C55.0303 145.943 53.7205 146.316 52.4211 146.679C51.3731 146.972 50.5356 147.201 49.9332 147.36C49.5724 147.456 49.292 147.527 49.0986 147.572C48.793 147.644 48.3735 147.742 48.25 147.318L49.1068 147.068C49.0362 146.826 48.8019 146.736 48.6665 146.752C49.0585 146.707 53.2363 145.531 55.7778 144.802L56.1497 144.695L58.9775 150.991L55.8299 152.905L54.288 150.109L52.7268 150.796L55.3925 156.046L63.0839 152.402L63.4663 153.209L54.9894 157.224Z" fill="url(#paint6_linear_337_35458)"/>
<path d="M61.9381 170.406L56.8521 163.148L60.3211 161.322L62.3643 163.829L64.095 162.54L61.0954 158.062C60.4937 158.363 59.2062 159.006 57.918 159.646C56.8923 160.156 56.0741 160.56 55.4858 160.849C55.1518 161.012 54.8729 161.148 54.6773 161.241C54.5762 161.289 54.4958 161.326 54.4408 161.351C54.0049 161.546 53.8227 161.267 53.7773 161.177L54.5739 160.774C54.4616 160.552 54.2065 160.487 54.0347 160.554C54.3292 160.44 58.3903 158.418 61.0478 157.088L61.3996 156.911L65.3089 162.748L62.2125 165.056L60.0913 162.452L58.1656 163.466L62.1657 169.175L69.7671 164.028L70.2677 164.768L61.9381 170.406Z" fill="url(#paint7_linear_337_35458)"/>
<path d="M71.9194 181.365L65.3883 175.046L67.9439 173.133L70.6803 175.554L72.3724 173.714L68.3508 169.493C66.0361 171.319 62.8081 173.873 62.6222 174.039L62.0234 173.377C62.2778 173.147 67.5207 169.011 68.1172 168.541L68.4363 168.289L73.5952 173.702L70.745 176.803L67.8971 174.283L66.7613 175.134L71.8718 180.077L77.8094 173.415L78.4758 174.01L71.9194 181.365Z" fill="url(#paint8_linear_337_35458)"/>
<path d="M83.1589 189.619L76.9112 185.687L78.7357 182.793L79.0957 182.97C79.9979 183.413 80.9849 183.889 81.4706 184.111C81.684 183.767 82.0522 183.16 82.4196 182.549L77.7911 179.285C75.9792 181.407 73.3053 184.566 73.1119 184.872C73.1871 184.753 73.2087 184.498 73.0145 184.328L72.4277 185.001C72.096 184.711 72.357 184.38 72.566 184.115C72.6932 183.953 72.8829 183.721 73.1291 183.422C73.5419 182.922 74.1213 182.23 74.8524 181.365C76.096 179.894 77.3641 178.411 77.3768 178.396L77.6408 178.087L83.6119 182.298L83.3992 182.654C82.0217 184.952 81.9986 184.966 81.8886 185.039C81.6394 185.201 81.629 185.208 79.0629 183.949L78.1429 185.408L82.8741 188.386L87.3717 181.121L88.1304 181.591L83.1589 189.619Z" fill="url(#paint9_linear_337_35458)"/>
<path d="M96.9012 196.5L89.0729 193.274L90.2243 190.14L93.9953 191.459L94.7197 189.251L88.8453 186.734C87.3935 189.422 85.3615 193.209 85.238 193.508C85.3049 193.346 85.2499 193.097 85.0446 192.976L84.5924 193.745C84.4846 193.682 84.2562 193.491 84.4511 193.083C84.4779 193.026 84.5188 192.944 84.5723 192.84C84.6742 192.64 84.823 192.356 85.0022 192.015C85.3183 191.417 85.7624 190.584 86.3217 189.54C87.2849 187.743 88.254 185.951 88.254 185.951L88.4474 185.592L95.8227 188.753L94.5598 192.602L90.7591 191.272L90.2072 192.776L96.3858 195.322L99.3007 187.451L100.137 187.761L96.9012 196.5Z" fill="url(#paint10_linear_337_35458)"/>
<path d="M112.016 200.833L103.08 199.207L103.605 195.517L104.077 195.623C104.085 195.625 104.93 195.814 105.765 196.018C106.258 196.139 106.652 196.242 106.937 196.323C106.967 196.332 106.997 196.34 107.026 196.348C107.158 195.745 107.384 194.676 107.566 193.806L101.731 192.73C100.83 195.621 99.5708 199.69 99.5069 199.978C99.5083 199.971 99.5091 199.965 99.5098 199.96L98.627 199.832C98.6627 199.586 100.127 194.874 100.997 192.087L101.116 191.709L108.626 193.094L108.533 193.541C108.533 193.541 108.35 194.419 108.164 195.297C108.071 195.736 107.977 196.176 107.905 196.505C107.868 196.673 107.837 196.812 107.814 196.909C107.777 197.068 107.69 197.441 107.293 197.4L106.893 197.359V197.241C106.444 197.1 105.395 196.84 104.353 196.601L104.085 198.483L111.273 199.791L112.571 191.326L113.453 191.462L112.016 200.833ZM106.893 196.952V196.953V196.952Z" fill="url(#paint11_linear_337_35458)"/>
<path d="M114.575 203.574L113.713 203.343L114.145 203.458L113.711 203.351C113.767 203.106 114.507 198.688 114.991 195.78L115.053 195.403L122.668 195.469L122.643 195.934C122.643 195.934 122.598 196.81 122.546 197.688C122.515 198.198 122.489 198.606 122.467 198.9C122.42 199.542 122.401 199.809 122.024 199.86L121.657 199.91L121.618 199.793C121.123 199.742 119.823 199.697 118.561 199.676L118.4 200.907H125.33L125.016 192.44L125.908 192.407L126.256 201.8H117.382L117.779 198.773L118.176 198.778C118.186 198.778 119.126 198.79 120.061 198.819C120.613 198.836 121.057 198.857 121.379 198.879C121.447 198.883 121.512 198.888 121.573 198.893C121.614 198.341 121.674 197.341 121.727 196.354L115.808 196.303C115.465 198.365 114.629 203.371 114.575 203.574ZM121.538 199.554C121.538 199.556 121.538 199.557 121.539 199.559L121.538 199.554Z" fill="url(#paint12_linear_337_35458)"/>
<path d="M128.716 204.083L128.209 195.796L135.903 194.995L136.21 198.861L132.922 199.237L133.177 201.157L139.465 199.958L137.73 191.194L138.606 191.021L140.515 200.667L132.417 202.211L131.916 198.454L135.253 198.072L135.086 195.977L129.152 196.595L129.607 204.028L128.716 204.083Z" fill="url(#paint13_linear_337_35458)"/>
<path d="M144.145 202.264L143.929 201.398C143.684 201.459 143.56 201.706 143.597 201.899C143.542 201.617 142.369 197.358 141.595 194.563L141.484 194.165L148.589 191.601L149.874 195.211L146.675 196.575L147.417 198.383L153.306 195.604L149.56 187.789L150.364 187.403L154.5 196.028L146.949 199.591L145.515 196.099L148.752 194.718L148.049 192.744L142.566 194.723C142.743 195.363 143.107 196.682 143.471 198.003C143.725 198.925 143.977 199.847 144.164 200.543C144.526 201.88 144.526 201.88 144.423 202.056L144.328 202.218L144.145 202.264Z" fill="url(#paint14_linear_337_35458)"/>
<path d="M157.927 196.994L153.965 189.782L160.06 186.223L162.236 189.668L159.623 191.259L160.712 193.092L166.019 189.361L161.058 181.915L161.801 181.419L167.245 189.59L160.438 194.376L158.404 190.955L160.997 189.377L159.766 187.427L155.166 190.115L158.709 196.564L157.927 196.994Z" fill="url(#paint15_linear_337_35458)"/>
<path d="M165.834 68.0906L160.253 64.7317L161.573 61.526L164.628 63.0053L165.621 60.9585L159.557 57.8338L156.304 64.9555L155.492 64.5844L159.134 56.6118L166.805 60.565L165.041 64.1969L162.038 62.742L161.37 64.3627L165.539 66.8715L170.026 59.6264L170.785 60.0964L165.834 68.0906Z" fill="url(#paint16_linear_337_35458)"/>
<path d="M154.83 61.3528L148.094 59.3617L149.148 55.5461L152.065 56.4684L152.712 54.6603L146.808 52.8023L144.417 60.1167L143.568 59.8392L146.234 51.6859L153.864 54.0868L152.617 57.5789L149.762 56.6759L149.187 58.7548L154.301 60.2654L157.391 52.4661L158.22 52.7949L154.83 61.3528Z" fill="url(#paint17_linear_337_35458)"/>
<path d="M132.498 57.6437L131.609 57.5648L132.441 48.1977L132.897 48.2512C132.914 48.2534 134.634 48.455 136.338 48.6715C137.34 48.7986 138.141 48.9065 138.719 48.9913C139.894 49.1638 140.074 49.1899 140.177 49.4993C140.218 49.6205 140.26 49.747 139.768 52.6484L139.698 53.0612L136.566 52.734L136.385 54.9772L141.82 55.6756L143.557 47.8399L144.429 48.0333L142.515 56.6649L135.427 55.7545L135.75 51.7514L138.958 52.0869C139.096 51.2591 139.225 50.426 139.281 49.9812C138.311 49.8109 135.363 49.4413 133.249 49.1906L132.498 57.6437Z" fill="url(#paint18_linear_337_35458)"/>
<path d="M118.913 57.6365L118.219 47.9949L126.336 47.4609V51.9823L123.208 52.314C123.202 53.0891 123.214 53.8983 123.244 54.3461C123.709 54.3029 124.574 54.2605 126.253 54.2055C127.366 54.169 128.478 54.1408 129.06 54.1266L129.471 45.6141L130.362 45.6572L129.911 54.9998L129.495 55.0088C126.69 55.0712 123.528 55.1798 123.075 55.2616C122.951 55.3137 122.809 55.31 122.685 55.2468C122.418 55.1107 122.272 55.0363 122.32 51.9057L122.326 51.5108L125.443 51.1805V48.4144L119.174 48.8272L119.804 57.5733L118.913 57.6365Z" fill="url(#paint19_linear_337_35458)"/>
<path d="M107.239 59.5555L104.4 50.5446L112.504 48.6792L113.351 52.5528L110.203 53.493L110.73 55.4052L116.149 54.1735L114.79 46.1236L115.669 45.9749L117.17 54.8571L110.097 56.4644L109.11 52.8875L112.302 51.9348L111.825 49.751L105.542 51.1977L108.09 59.287L107.239 59.5555Z" fill="url(#paint20_linear_337_35458)"/>
<path d="M95.7742 63.8102L91.2305 56.0191L98.6564 52.5999L100.217 55.909L97.8524 57.044L98.6995 58.8261L103.041 56.7487L100.334 49.3466L101.172 49.0394L104.158 57.2039L98.2778 60.0169L96.6645 56.6245L99.032 55.488L98.2265 53.7803L92.4971 56.4185L96.5455 63.3609L95.7742 63.8102Z" fill="url(#paint21_linear_337_35458)"/>
<path d="M84.2391 70.8014L77.7109 63.2766L78.1275 62.9947C83.9706 59.0363 84.0896 59.0095 84.1952 58.9857C84.5299 58.9106 84.6303 58.8882 86.7419 61.9266L87.0008 62.2985L84.5783 63.9288L86.1261 65.7519L91.2596 62.2881L86.8446 55.1693L87.6032 54.6993L92.4705 62.5476L85.9632 66.9389L83.2521 63.7459L85.7497 62.0649C85.1554 61.2193 84.5381 60.3706 84.225 59.9846C83.3979 60.5171 80.8757 62.2137 79.0446 63.4521L84.9137 70.2168L84.2391 70.8014Z" fill="url(#paint22_linear_337_35458)"/>
<path d="M74.7333 79.4627L67.2754 73.2522L72.6455 67.3503L76.2454 70.1238L73.7812 72.7776L75.5477 74.17C75.9724 73.7379 76.8188 72.8773 77.6608 72.0264C78.3585 71.3221 78.9163 70.762 79.3202 70.3618C79.486 70.1975 79.6326 70.0532 79.753 69.9364C79.3179 69.4879 78.5593 68.6206 77.1178 66.9702C75.6994 65.3458 74.2803 63.6968 74.2654 63.6805L74.9423 63.0981C76.9103 65.3852 80.119 69.0721 80.6196 69.5429C80.6277 69.5474 80.6367 69.5526 80.6456 69.5578L80.9483 69.743L80.7542 70.3291L80.6017 70.3604C80.1041 70.8185 77.5158 73.4389 75.9047 75.0811L75.6243 75.3667L72.4692 72.8788L74.9259 70.2332L72.7526 68.5589L68.5636 73.1622L75.3045 78.7762L74.7333 79.4627Z" fill="url(#paint23_linear_337_35458)"/>
<path d="M66.8931 90.0239L58.1582 85.3983L62.6633 78.084L66.4595 80.3971L64.5807 83.3567C65.3714 83.7761 66.1955 84.1934 66.615 84.3764C66.9623 83.7895 67.837 82.4582 70.0438 79.2376L63.3468 74.7266L63.8451 73.9865L71.2889 79.0003L71.033 79.3722C69.6794 81.3447 67.4889 84.5802 67.2606 85.0242C67.2286 85.1343 67.1565 85.2295 67.0546 85.2905C66.8151 85.4333 66.6834 85.5114 63.7336 83.9152L63.3126 83.6876L65.2181 80.6865L62.9571 79.3083L59.4174 85.0547L67.3112 89.2347L66.8931 90.0239ZM66.4603 84.6538C66.4231 84.7088 66.3993 84.7713 66.3896 84.8368C66.397 84.7988 66.4142 84.746 66.4603 84.6538Z" fill="url(#paint24_linear_337_35458)"/>
<path d="M124.828 36.5579C76.0803 36.5579 36.5625 76.0757 36.5625 124.823C36.5625 173.57 76.0803 213.088 124.828 213.088C173.575 213.088 213.093 173.57 213.093 124.823C213.093 76.075 173.575 36.5579 124.828 36.5579ZM124.828 206.89C79.5039 206.89 42.7619 170.147 42.7619 124.823C42.7619 79.4993 79.5039 42.7573 124.828 42.7573C170.152 42.7573 206.894 79.4993 206.894 124.823C206.894 170.146 170.152 206.89 124.828 206.89Z" fill="url(#paint25_linear_337_35458)"/>
<path d="M91.4125 106.723C93.2876 112.231 103.447 120.774 102.86 122.587C102.274 124.399 99.0995 123.037 98.3818 125.888C97.664 128.738 101.868 133.082 105.662 132.602C105.662 132.602 108.141 137.561 111.168 135.297C111.168 135.297 113.241 142.026 112.326 145.421C111.412 148.817 108.082 152.456 100.977 157.163C98.4859 158.812 96.7373 160.899 93.9176 162.774C88.105 166.64 83.7234 170.833 85.5121 172.437C88.2314 174.877 104.174 181.029 129.577 173.954C154.98 166.879 178.059 144.856 176.306 139.811C175.219 136.685 157.497 142.432 151.508 141.262C147.546 140.488 142.139 138.332 140.909 137.615C139.679 136.897 138.237 129.455 138.237 129.455C138.237 129.455 144.228 126.687 145.195 124.124C146.161 121.561 149.54 106.772 149.648 105.466C149.755 104.161 148.062 101.26 148.062 101.26C148.062 101.26 151.391 98.7054 152.519 96.5477C152.519 96.5477 155.326 95.8373 156.01 93.8775C156.694 91.9176 156.005 87.3397 153.236 88.1995C153.236 88.1995 154.871 80.7453 149.955 78.7029C149.955 78.7029 149.75 68.142 135.908 67.117C135.908 67.117 134.985 64.2193 129.962 65.6681C124.938 67.117 122.106 71.0286 122.106 71.0286C122.106 71.0286 112.745 68.9482 106.127 75.6199C106.127 75.6199 98.0411 81.0227 96.1266 84.8004C95.3494 86.3348 94.7462 89.0823 94.0842 91.3092C93.1158 94.5662 92.3921 95.7325 91.8409 97.2118C91.0094 99.4424 90.2165 103.21 91.4125 106.723Z" fill="#FCF3E7"/>
<path d="M175.384 138.154C173.048 137.861 159.782 140.295 156.195 141.074C152.607 141.852 141.218 138.154 140.829 137.083C140.44 136.012 138.687 132.41 139.369 131.826C140.051 131.242 144.626 128.225 145.502 126.862C146.378 125.5 149.687 107.297 149.979 105.837C150.271 104.377 148.713 102.431 148.908 101.165C148.908 101.165 151.731 98.6337 153.094 96.3956C153.094 96.3956 156.792 96.0059 156.695 91.9181C156.598 87.8303 154.455 87.6347 154.455 87.6347C154.455 87.6347 154.65 83.6443 153.483 81.3081C152.314 78.9719 150.659 78.4847 150.659 78.4847C150.659 78.4847 150.173 74.9807 149.783 73.8123C149.393 72.6445 142.094 66.6095 136.74 66.5121C136.74 66.5121 133.625 63.981 130.413 64.6623C127.201 65.3443 122.236 70.4057 122.236 70.4057C122.236 70.4057 109.582 69.0431 105.007 76.3426C105.007 76.3426 99.4588 79.6524 96.7336 83.1564C94.0084 86.6596 93.7161 91.4302 93.7161 91.4302C93.7161 91.4302 89.2386 101.477 90.796 106.722C92.3535 111.968 102.476 121.021 102.185 122.383C101.893 123.746 98.4488 123.065 97.737 125.595C97.0252 128.126 100.919 132.506 105.007 132.993C105.007 132.993 107.831 137.568 111.14 135.718C111.14 135.718 113.476 144.673 110.069 149.248C106.662 153.823 98.9724 157.522 95.5659 160.636C95.5659 160.636 84.372 168.521 83.9823 172.122C83.5925 175.724 98.0963 180.006 116.298 178.741C134.5 177.475 161.268 162.68 169.055 156.451C176.842 150.222 180.127 145.1 180.127 144.126C180.128 143.155 177.719 138.445 175.384 138.154ZM144.138 124.46C143.49 125.044 135.897 125.239 133.366 125.823C130.836 126.406 120.065 122.885 119.091 121.758C118.117 120.631 114.289 115.895 113.705 113.299C113.705 113.299 112.907 115.535 110.182 115.211C107.457 114.887 102.053 105.822 102.962 102.902C103.871 99.9822 106.72 97.9739 108.666 100.05C110.613 102.126 111.394 105.596 112.732 105.577C113.838 105.561 114.873 104.603 115.263 101.943C115.652 99.2823 112.601 95.843 112.732 95.5834C112.861 95.3239 115.781 95.1297 116.366 89.3543C116.366 89.3543 118.182 90.2632 121.426 87.6027C124.136 85.381 123.316 82.301 122.972 81.3438C123.353 82.1961 124.753 84.6216 128.435 84.9422C132.913 85.3319 136.222 81.0485 136.222 81.0485C136.222 81.0485 137.519 82.6714 139.337 83.6443C141.153 84.6179 143.555 83.8391 143.555 83.8391C143.555 83.8391 145.241 86.8886 145.696 88.9006C145.696 88.9006 143.555 89.2896 142.711 89.6793C142.711 89.6793 142.063 87.6049 141.09 86.6306C141.106 86.6982 141.672 88.9787 141.608 89.8734C141.543 90.7823 140.181 92.5994 140.376 94.6106C140.57 96.6218 142.582 98.3741 143.426 102.073C144.269 105.772 144.658 106.875 144.075 107.199C143.491 107.523 140.83 106.68 139.078 106.68C137.326 106.68 135.185 108.627 135.185 108.627C135.185 108.627 135.314 106.228 135.897 105.125C135.842 105.201 133.894 107.946 134.341 110.249C134.796 112.585 136.742 110.509 138.495 111.482C140.247 112.455 140.247 113.233 140.831 112.91C141.415 112.586 145.243 109.276 145.697 108.562C146.152 107.848 142.028 95.4607 141.995 95.0457C141.846 93.2264 145.568 90.2624 146.346 91.0419C146.346 91.0419 147.644 95.7143 146.995 99.5426C146.995 99.5426 148.488 103.501 148.877 105.058C149.265 106.616 144.787 123.876 144.138 124.46ZM149.963 79.5788C149.963 79.5788 153.085 80.9362 153.085 84.3546C153.085 87.7737 151.116 90.3978 151.6 91.0538C152.084 91.7098 152.73 90.171 153.948 89.0508C155.167 87.9307 156.572 91.6064 155.778 93.091C154.984 94.5756 153.809 95.5425 152.394 95.6459C152.394 95.6459 150.564 99.2027 148.664 100.515C148.664 100.515 147.942 100.133 148.061 99.3232C148.18 98.5124 148.46 94.4373 148.061 91.3298C147.662 88.2215 144.728 83.4219 144.728 83.4219C144.728 83.4219 147.995 82.1344 149.963 79.5788ZM121.509 71.5199C120.537 72.8758 119.407 75.8353 119.407 75.8353C119.407 75.8353 124.112 68.6668 128.834 66.4912C133.36 64.4057 134.982 66.9412 134.982 66.9412C132.195 67.2752 128.914 69.8063 128.835 69.868C128.91 69.8286 133.102 67.5169 137.708 67.6657C142.362 67.8159 143.989 70.2815 143.989 70.2815C140.199 68.4801 138.397 72.3827 138.735 75.6858C139.073 78.9882 143.501 78.6134 145.04 76.6617C146.578 74.71 144.327 73.0216 144.139 73.9595C143.952 74.8982 144.966 76.2489 142.45 76.6617C139.936 77.0737 138.885 74.5226 140.161 72.1953C141.437 69.8687 145.227 71.032 146.879 72.7955C148.53 74.559 150.364 79.0157 145.598 82.0935C140.832 85.1705 136.521 79.7759 136.521 79.7759C137.047 77.4114 135.695 72.4958 131.642 71.6694C127.589 70.8438 125.413 72.945 124.737 75.0849C124.062 77.224 126.989 79.3251 129.316 79.1377C131.642 78.9503 132.093 77.5988 131.605 76.0607C131.117 74.5218 129.428 75.0477 130.179 76.173C130.93 77.2991 129.954 78.4624 128.19 78.0109C126.426 77.5602 125.15 74.7085 127.177 73.1332C129.203 71.5571 134.719 72.8327 135.47 76.6981C136.221 80.5635 132.944 83.8362 128.834 83.7908C124.725 83.7454 122.335 79.0247 122.335 79.0247C122.335 79.0247 122.748 81.6517 121.848 84.5041C120.947 87.3565 118.245 88.5569 115.655 88.107C113.066 87.6562 113.179 85.0299 113.179 85.0299C112.466 85.7425 112.728 87.2062 112.728 87.2062C112.728 87.2062 111.753 87.619 110.514 86.8686C109.275 86.1181 107.962 81.764 110.514 79.1377C113.066 76.5107 114.755 79.288 114.755 79.4003C114.755 79.5133 116.556 76.9235 118.131 79.5884C119.708 82.2527 117.531 84.542 117.531 84.542C117.531 84.542 118.732 84.3546 119.145 81.8771C119.548 79.4657 118.455 78.2995 118.398 78.2392C118.397 78.2377 118.396 78.237 118.396 78.237C116.631 76.8476 114.868 78.0116 114.868 78.0116C115.101 76.8402 113.404 76.774 113.404 76.774C113.404 76.774 113.892 75.9476 112.804 75.1228C111.716 74.2972 107.212 74.9331 107.212 74.9331C114.041 69.6396 121.509 71.5199 121.509 71.5199ZM92.1416 98.5548C93.2312 96.3756 96.3722 96.7876 96.3722 96.7876C95.3279 95.4072 93.0705 95.5522 92.6057 96.3109C93.1843 94.5399 94.6615 92.6961 95.3093 88.1992C95.9564 83.7015 102.11 78.2794 106.65 76.3828C111.191 74.4854 112.304 76.7234 112.304 76.7234C108.864 77.6427 108.285 81.8317 108.425 84.188C108.327 86.8834 110.778 88.6469 112.101 88.1575C113.425 87.6674 115.188 89.1869 115.188 89.1869C115.188 89.1869 115.593 91.6734 114.721 93.0947C113.849 94.5161 111.855 95.3618 110.973 94.7407C110.091 94.1197 108.621 96.3912 110.581 96.5481C112.541 96.7058 115.188 100.503 113.816 103.253C112.444 106.002 111.66 103.987 111.169 102.278C110.678 100.569 108.327 97.8118 106.563 97.8609C104.798 97.9107 102.613 98.9059 100.31 95.2465C98.0055 91.5871 101.875 86.542 104.913 86.1895C107.951 85.8377 111.222 91.4324 109.066 93.2948C106.91 95.1573 105.141 92.078 105.876 91.1468C106.611 90.2156 106.973 92.2952 107.444 92.2253C109.626 91.8988 106.366 89.1378 105.2 90.2156C104.034 91.2941 103.782 93.4354 106.219 94.3964C108.351 95.2376 111.12 92.8619 110.973 90.6358C110.826 88.4097 107.101 85.7068 107.101 85.7068C101.797 84.4394 98.7136 89.8013 99.1227 94.1941C99.531 98.5876 105.2 98.9282 105.2 98.9282C101.371 100.379 102.237 105.363 102.255 105.465C102.226 105.388 100.688 101.449 97.113 101.517C93.5027 101.584 91.9355 106.489 91.9355 106.489C91.3576 104.925 91.0512 100.735 92.1416 98.5548ZM98.9196 127.919C98.0851 126.061 100.058 124.127 101.65 124.354C103.243 124.582 103.85 123.975 103.409 122.307C102.967 120.638 95.014 112.333 93.8768 110.437C92.7388 108.542 92.0181 104.674 96.0003 102.929C99.9817 101.185 102.105 107.063 102.333 110.556C102.561 114.05 101.309 114.95 98.8824 113.32C96.4555 111.689 97.1375 107.404 98.579 107.821C100.02 108.238 99.6552 111.61 100.665 111.424C101.689 111.234 100.779 108.314 99.4135 107.063C98.0486 105.811 95.5079 106.797 96.5313 110.962C97.5555 115.126 100.476 115.974 102.599 115.14C104.7 114.315 102.978 107.999 102.941 107.862C103.777 110.594 108.186 115.329 108.186 115.329C109.904 119.298 110.183 126.364 110.183 126.364C109.198 125.492 106.695 124.734 105.202 126.25C103.708 127.767 105.14 130.308 106.505 129.928C107.87 129.549 106.732 129.626 106.24 127.956C105.747 126.288 107.984 126.136 109.426 127.046C110.867 127.956 108.515 131.71 105.634 131.9C102.75 132.09 99.7541 129.776 98.9196 127.919ZM106.128 132.905C108.784 133.177 110.182 129.877 110.182 129.877L110.848 134.728C108.667 136.78 106.128 132.905 106.128 132.905ZM157.152 160.053C145.399 167.055 126.036 175.432 109.597 175.3C93.1561 175.168 85.5799 172.072 85.5137 170.818C85.4475 169.564 91.6492 164.309 95.9408 163.517C100.232 162.725 112.964 163.416 112.964 163.416C112.964 163.416 102.799 161.452 96.7247 162.112C96.7247 162.112 103.212 155.377 106.909 153.528C110.607 151.679 112.963 145.787 112.963 145.787C112.963 145.787 114.424 152.419 116.661 155.889C116.661 155.889 111.681 137.897 111.55 131.229C111.55 131.229 122.009 152.654 122.999 155.625C122.999 155.625 121.876 149.418 118.245 141.43C114.613 133.44 112.038 129.413 111.708 126.904C111.379 124.395 110.665 118.963 109.661 115.877C109.661 115.877 111.84 116.661 112.633 115.544C112.633 115.544 114.369 124.734 116.415 127.376C118.462 130.016 128.743 134.642 133.299 135.329C133.299 135.329 133.607 146.843 132.167 153.116C132.203 153.017 134.554 146.689 134.751 143.742C134.949 140.77 134.751 135.329 134.751 135.329L138.364 132.604C138.364 132.604 139.74 135.38 139.74 138.68C139.74 144.143 142.399 146.647 142.399 146.647C142.399 146.647 140.576 140.793 140.84 138.196C140.84 138.196 145.549 140.507 147.662 140.969C149.775 141.431 153.238 142.024 153.238 142.024C153.238 142.024 146.644 146.311 141.752 152.724C141.752 152.724 152.79 142.949 156.554 142.157C160.317 141.365 170.938 138.87 174.436 139.134C174.436 139.134 178.843 141.174 177.101 143.759C174.346 147.847 164.523 155.662 157.152 160.053Z" fill="url(#paint26_linear_337_35458)"/>
<path d="M122.972 81.3433C122.896 81.1767 122.861 81.0704 122.855 81.051C122.864 81.0704 122.911 81.173 122.972 81.3433Z" fill="url(#paint27_linear_337_35458)"/>
<path d="M142.328 97.4414C142.328 97.4414 144.423 94.9051 146.261 95.0524C148.099 95.1996 148.063 97.0003 148.063 97.0003L146.703 96.2439C146.703 96.2439 146.923 99.132 146.078 99.3165C145.233 99.5009 145.086 96.5965 145.637 96.1554C145.637 96.1554 143.542 96.7065 142.77 98.3607L142.328 97.4414Z" fill="url(#paint28_linear_337_35458)"/>
<path d="M122.803 99.3246C122.801 98.1658 129.469 95.274 131.489 97.1855C132.898 98.5184 130.472 102.431 130.472 102.274C130.472 102.117 131.019 99.0264 130.785 98.0877C130.55 97.1491 129.533 97.5009 129.533 97.5009C129.533 97.5009 129.885 99.8869 128.633 100.396C127.381 100.904 127.89 97.5396 127.89 97.5396C127.89 97.5396 124.643 98.3614 122.803 99.3246Z" fill="url(#paint29_linear_337_35458)"/>
<path d="M135.972 86.5319C135.972 86.5319 137.365 89.0927 136.536 90.787C135.708 92.4814 134.352 94.741 133.448 94.741C132.544 94.741 130.21 91.3516 127.987 91.1634C125.765 90.9752 120.869 94.0634 120.869 94.0634C120.869 94.0634 123.919 90.3348 127.121 89.6572C130.322 88.9796 132.355 90.5989 133.485 90.2976C133.485 90.2976 133.41 91.2764 132.544 91.2764C131.678 91.2764 130.246 90.3348 128.834 90.3348C128.834 90.3348 131.102 91.3806 131.928 92.1422C132.939 93.0749 133.713 93.0578 134.504 92.4546C135.296 91.8536 136.499 90.0343 135.972 86.5319Z" fill="url(#paint30_linear_337_35458)"/>
<path d="M106.189 107.47C106.189 107.47 103.967 103.44 106.189 102.762C108.41 102.085 110.745 105.398 110.745 105.398C110.745 105.398 109.201 104.871 109.201 105.888C109.201 106.904 111.008 106.716 111.159 108.185C111.31 109.654 109.653 111.16 109.578 111.122C109.503 111.085 111.159 108.901 110.105 108.147C109.051 107.394 106.98 106.829 107.808 105.662C108.636 104.494 109.352 104.758 109.352 104.758C109.352 104.758 107.28 103.289 106.452 103.854C105.624 104.42 106.189 107.47 106.189 107.47Z" fill="url(#paint31_linear_337_35458)"/>
<path d="M114.414 105.468C114.414 105.468 115.903 108.166 117.578 109.748C119.253 111.33 121.905 110.911 121.905 110.911C121.905 110.911 118.648 109.706 117.717 108.215C116.787 106.724 114.414 105.468 114.414 105.468Z" fill="url(#paint32_linear_337_35458)"/>
<path d="M132.256 116.366C131.667 117.545 134.103 117.643 135.749 116.568C137.395 115.493 138.269 114.754 138.84 115.225C139.411 115.695 139.981 116.624 139.981 116.624C139.981 116.624 141.829 114.701 142.535 115.08C143.24 115.46 143.459 116.77 144.433 116.166C144.92 115.864 143.925 115.75 143.644 115.158C143.363 114.566 143.308 113.797 142.771 113.848C141.696 113.948 140.15 115.292 140.15 115.292C140.15 115.292 139.47 113.37 138.265 113.844C137.06 114.318 135.919 115.698 134.777 115.933C133.634 116.168 132.626 115.628 132.256 116.366Z" fill="url(#paint33_linear_337_35458)"/>
<path d="M136.525 119.708C136.037 120.551 138.828 121.606 140.198 121.108C141.567 120.61 142.844 119.023 142.252 118.681C141.661 118.339 141.349 119.683 140.011 119.96C138.673 120.237 136.868 119.117 136.525 119.708Z" fill="url(#paint34_linear_337_35458)"/>
<path d="M119.033 163.025C124.021 162.502 125.792 163.506 127.407 162.889C129.022 162.271 131.872 157.141 138.238 155.051C138.238 155.051 132.728 155.574 130.97 157.379C129.213 159.184 127.677 161.71 126.383 162.03C124.226 162.561 121.67 161.789 119.033 163.025Z" fill="url(#paint35_linear_337_35458)"/>
<path d="M38.469 106.49C38.3656 106.989 74.0521 144.608 74.1659 144.398C74.279 144.187 84.8176 142.157 84.8176 142.157L83.9771 148L117.563 168.023L163.15 147.749L186.648 129.592L211.11 124.05L210.222 131.376L187.906 131.46L160.598 152.617L112.886 173.975C112.886 173.975 85.2445 151.355 83.9771 150.933C82.7097 150.51 79.3374 145.23 79.3374 145.23L70.6642 149.667L40.3485 113.769L38.469 106.49Z" fill="url(#paint36_linear_337_35458)"/>
<defs>
<linearGradient id="paint0_linear_337_35458" x1="97.363" y1="204.618" x2="-106.044" y2="171.113" gradientUnits="userSpaceOnUse">
<stop stop-color="#E1880D"/>
<stop offset="1" stop-color="#FFF4E4"/>
</linearGradient>
<linearGradient id="paint1_linear_337_35458" x1="101.406" y1="192.87" x2="-72.0513" y2="164.298" gradientUnits="userSpaceOnUse">
<stop stop-color="#E1880D"/>
<stop offset="1" stop-color="#FFF4E4"/>
</linearGradient>
<linearGradient id="paint2_linear_337_35458" x1="55.1275" y1="101.981" x2="39.2845" y2="99.9124" gradientUnits="userSpaceOnUse">
<stop stop-color="#E1880D"/>
<stop offset="1" stop-color="#FFF4E4"/>
</linearGradient>
<linearGradient id="paint3_linear_337_35458" x1="51.6113" y1="114.814" x2="39.1909" y2="113.379" gradientUnits="userSpaceOnUse">
<stop stop-color="#E1880D"/>
<stop offset="1" stop-color="#FFF4E4"/>
</linearGradient>
<linearGradient id="paint4_linear_337_35458" x1="49.6361" y1="129.432" x2="35.0562" y2="127.409" gradientUnits="userSpaceOnUse">
<stop stop-color="#E1880D"/>
<stop offset="1" stop-color="#FFF4E4"/>
</linearGradient>
<linearGradient id="paint5_linear_337_35458" x1="50.2018" y1="143.744" x2="33.098" y2="140.777" gradientUnits="userSpaceOnUse">
<stop stop-color="#E1880D"/>
<stop offset="1" stop-color="#FFF4E4"/>
</linearGradient>
<linearGradient id="paint6_linear_337_35458" x1="53.2393" y1="157.224" x2="34.0855" y2="153.392" gradientUnits="userSpaceOnUse">
<stop stop-color="#E1880D"/>
<stop offset="1" stop-color="#FFF4E4"/>
</linearGradient>
<linearGradient id="paint7_linear_337_35458" x1="59.1844" y1="170.406" x2="38.4368" y2="166.229" gradientUnits="userSpaceOnUse">
<stop stop-color="#E1880D"/>
<stop offset="1" stop-color="#FFF4E4"/>
</linearGradient>
<linearGradient id="paint8_linear_337_35458" x1="67.418" y1="181.365" x2="46.7666" y2="177.085" gradientUnits="userSpaceOnUse">
<stop stop-color="#E1880D"/>
<stop offset="1" stop-color="#FFF4E4"/>
</linearGradient>
<linearGradient id="paint9_linear_337_35458" x1="77.4701" y1="189.619" x2="57.7198" y2="185.144" gradientUnits="userSpaceOnUse">
<stop stop-color="#E1880D"/>
<stop offset="1" stop-color="#FFF4E4"/>
</linearGradient>
<linearGradient id="paint10_linear_337_35458" x1="89.5433" y1="196.5" x2="70.0145" y2="191.852" gradientUnits="userSpaceOnUse">
<stop stop-color="#E1880D"/>
<stop offset="1" stop-color="#FFF4E4"/>
</linearGradient>
<linearGradient id="paint11_linear_337_35458" x1="103.488" y1="200.833" x2="85.2802" y2="196.155" gradientUnits="userSpaceOnUse">
<stop stop-color="#E1880D"/>
<stop offset="1" stop-color="#FFF4E4"/>
</linearGradient>
<linearGradient id="paint12_linear_337_35458" x1="117.824" y1="203.574" x2="101.945" y2="200.635" gradientUnits="userSpaceOnUse">
<stop stop-color="#E1880D"/>
<stop offset="1" stop-color="#FFF4E4"/>
</linearGradient>
<linearGradient id="paint13_linear_337_35458" x1="132.244" y1="204.083" x2="116.513" y2="201.642" gradientUnits="userSpaceOnUse">
<stop stop-color="#E1880D"/>
<stop offset="1" stop-color="#FFF4E4"/>
</linearGradient>
<linearGradient id="paint14_linear_337_35458" x1="145.752" y1="202.264" x2="129.06" y2="199.856" gradientUnits="userSpaceOnUse">
<stop stop-color="#E1880D"/>
<stop offset="1" stop-color="#FFF4E4"/>
</linearGradient>
<linearGradient id="paint15_linear_337_35458" x1="158.319" y1="196.994" x2="141.27" y2="194.599" gradientUnits="userSpaceOnUse">
<stop stop-color="#E1880D"/>
<stop offset="1" stop-color="#FFF4E4"/>
</linearGradient>
<linearGradient id="paint16_linear_337_35458" x1="160.507" y1="68.0906" x2="141.406" y2="63.8989" gradientUnits="userSpaceOnUse">
<stop stop-color="#E1880D"/>
<stop offset="1" stop-color="#FFF4E4"/>
</linearGradient>
<linearGradient id="paint17_linear_337_35458" x1="148.372" y1="61.3528" x2="130.317" y2="56.8451" gradientUnits="userSpaceOnUse">
<stop stop-color="#E1880D"/>
<stop offset="1" stop-color="#FFF4E4"/>
</linearGradient>
<linearGradient id="paint18_linear_337_35458" x1="135.813" y1="57.6437" x2="119.774" y2="54.189" gradientUnits="userSpaceOnUse">
<stop stop-color="#E1880D"/>
<stop offset="1" stop-color="#FFF4E4"/>
</linearGradient>
<linearGradient id="paint19_linear_337_35458" x1="122.2" y1="57.6365" x2="106.732" y2="55.063" gradientUnits="userSpaceOnUse">
<stop stop-color="#E1880D"/>
<stop offset="1" stop-color="#FFF4E4"/>
</linearGradient>
<linearGradient id="paint20_linear_337_35458" x1="108.588" y1="59.5555" x2="92.2615" y2="57.0269" gradientUnits="userSpaceOnUse">
<stop stop-color="#E1880D"/>
<stop offset="1" stop-color="#FFF4E4"/>
</linearGradient>
<linearGradient id="paint21_linear_337_35458" x1="95.4693" y1="63.8102" x2="78.8898" y2="61.42" gradientUnits="userSpaceOnUse">
<stop stop-color="#E1880D"/>
<stop offset="1" stop-color="#FFF4E4"/>
</linearGradient>
<linearGradient id="paint22_linear_337_35458" x1="82.5505" y1="70.8014" x2="63.6587" y2="67.949" gradientUnits="userSpaceOnUse">
<stop stop-color="#E1880D"/>
<stop offset="1" stop-color="#FFF4E4"/>
</linearGradient>
<linearGradient id="paint23_linear_337_35458" x1="71.7586" y1="79.4627" x2="54.1916" y2="77.0451" gradientUnits="userSpaceOnUse">
<stop stop-color="#E1880D"/>
<stop offset="1" stop-color="#FFF4E4"/>
</linearGradient>
<linearGradient id="paint24_linear_337_35458" x1="62.4636" y1="90.0239" x2="45.5808" y2="87.747" gradientUnits="userSpaceOnUse">
<stop stop-color="#E1880D"/>
<stop offset="1" stop-color="#FFF4E4"/>
</linearGradient>
<linearGradient id="paint25_linear_337_35458" x1="94.4449" y1="213.088" x2="-130.553" y2="176.027" gradientUnits="userSpaceOnUse">
<stop stop-color="#E1880D"/>
<stop offset="1" stop-color="#FFF4E4"/>
</linearGradient>
<linearGradient id="paint26_linear_337_35458" x1="115.502" y1="178.968" x2="-8.0086" y2="161.872" gradientUnits="userSpaceOnUse">
<stop stop-color="#E1880D"/>
<stop offset="1" stop-color="#FFF4E4"/>
</linearGradient>
<linearGradient id="paint27_linear_337_35458" x1="122.894" y1="81.3433" x2="122.742" y2="81.3334" gradientUnits="userSpaceOnUse">
<stop stop-color="#E1880D"/>
<stop offset="1" stop-color="#FFF4E4"/>
</linearGradient>
<linearGradient id="paint28_linear_337_35458" x1="144.208" y1="99.3249" x2="137.05" y2="97.7445" gradientUnits="userSpaceOnUse">
<stop stop-color="#E1880D"/>
<stop offset="1" stop-color="#FFF4E4"/>
</linearGradient>
<linearGradient id="paint29_linear_337_35458" x1="125.795" y1="102.278" x2="114.617" y2="99.3454" gradientUnits="userSpaceOnUse">
<stop stop-color="#E1880D"/>
<stop offset="1" stop-color="#FFF4E4"/>
</linearGradient>
<linearGradient id="paint30_linear_337_35458" x1="126.092" y1="94.741" x2="107.171" y2="88.6928" gradientUnits="userSpaceOnUse">
<stop stop-color="#E1880D"/>
<stop offset="1" stop-color="#FFF4E4"/>
</linearGradient>
<linearGradient id="paint31_linear_337_35458" x1="107.158" y1="111.123" x2="99.4495" y2="110.227" gradientUnits="userSpaceOnUse">
<stop stop-color="#E1880D"/>
<stop offset="1" stop-color="#FFF4E4"/>
</linearGradient>
<linearGradient id="paint32_linear_337_35458" x1="116.87" y1="110.962" x2="107.535" y2="108.865" gradientUnits="userSpaceOnUse">
<stop stop-color="#E1880D"/>
<stop offset="1" stop-color="#FFF4E4"/>
</linearGradient>
<linearGradient id="paint33_linear_337_35458" x1="136.232" y1="117.316" x2="124.042" y2="110.296" gradientUnits="userSpaceOnUse">
<stop stop-color="#E1880D"/>
<stop offset="1" stop-color="#FFF4E4"/>
</linearGradient>
<linearGradient id="paint34_linear_337_35458" x1="138.414" y1="121.237" x2="131.602" y2="118.687" gradientUnits="userSpaceOnUse">
<stop stop-color="#E1880D"/>
<stop offset="1" stop-color="#FFF4E4"/>
</linearGradient>
<linearGradient id="paint35_linear_337_35458" x1="125.33" y1="163.097" x2="103.555" y2="154.536" gradientUnits="userSpaceOnUse">
<stop stop-color="#E1880D"/>
<stop offset="1" stop-color="#FFF4E4"/>
</linearGradient>
<linearGradient id="paint36_linear_337_35458" x1="95.076" y1="173.975" x2="-96.855" y2="93.0978" gradientUnits="userSpaceOnUse">
<stop stop-color="#E1880D"/>
<stop offset="1" stop-color="#FFF4E4"/>
</linearGradient>
</defs>
</svg>
