<svg width="21" height="21" viewBox="0 0 21 21" fill="none" xmlns="http://www.w3.org/2000/svg">
<path d="M10.3333 18.6667C9.2 18.6667 8.11667 18.45 7.08333 18.0167C6.09444 17.5944 5.21389 16.9972 4.44167 16.225C3.66944 15.4528 3.07222 14.5722 2.65 13.5833C2.21667 12.55 2 11.4667 2 10.3333C2 9.2 2.21667 8.11667 2.65 7.08333C3.07222 6.09445 3.66944 5.21389 4.44167 4.44167C5.21389 3.66945 6.09444 3.07222 7.08333 2.65C8.11667 2.21667 9.2 2 10.3333 2C11.4667 2 12.55 2.21667 13.5833 2.65C14.5722 3.07222 15.4528 3.66945 16.225 4.44167C16.9972 5.21389 17.5944 6.09445 18.0167 7.08333C18.45 8.11667 18.6667 9.2 18.6667 10.3333C18.6667 11.4667 18.45 12.55 18.0167 13.5833C17.5944 14.5722 16.9972 15.4528 16.225 16.225C15.4528 16.9972 14.5722 17.5944 13.5833 18.0167C12.55 18.45 11.4667 18.6667 10.3333 18.6667ZM10.3333 17C11.5444 17 12.6667 16.6944 13.7 16.0833C14.7 15.4944 15.4944 14.7 16.0833 13.7C16.6944 12.6667 17 11.5444 17 10.3333C17 9.12222 16.6944 8 16.0833 6.96667C15.4944 5.96667 14.7 5.17222 13.7 4.58333C12.6667 3.97222 11.5444 3.66667 10.3333 3.66667C9.12222 3.66667 8 3.97222 6.96667 4.58333C5.96667 5.17222 5.17222 5.96667 4.58333 6.96667C3.97222 8 3.66667 9.12222 3.66667 10.3333C3.66667 11.5444 3.97222 12.6667 4.58333 13.7C5.17222 14.7 5.96667 15.4944 6.96667 16.0833C8 16.6944 9.12222 17 10.3333 17ZM9.5 6.16667H11.1667V7.83333H9.5V6.16667ZM9.5 9.5H11.1667V14.5H9.5V9.5Z" fill="#2563EB"/>
</svg>
