<svg width="20" height="20" viewBox="0 0 20 20" fill="none" xmlns="http://www.w3.org/2000/svg">
<path d="M8.9332 9.45013L15.4665 2.90013L16.6499 4.08346L15.4665 5.2668L17.5332 7.33346L16.3499 8.50013L14.2999 6.45013L13.1165 7.6168L14.8832 9.38346L13.6999 10.5668L11.9332 8.80013L10.1165 10.6335C10.461 11.1668 10.6749 11.7501 10.7582 12.3835C10.8415 13.0168 10.7832 13.639 10.5832 14.2501C10.3832 14.8612 10.0499 15.4001 9.5832 15.8668C9.04987 16.4001 8.42487 16.7612 7.7082 16.9501C6.99154 17.139 6.27487 17.139 5.5582 16.9501C4.84154 16.7612 4.21654 16.4001 3.6832 15.8668C3.14987 15.3335 2.79154 14.7112 2.6082 14.0001C2.42487 13.289 2.42487 12.5751 2.6082 11.8585C2.79154 11.1418 3.14987 10.5168 3.6832 9.98346C4.14987 9.5168 4.68876 9.18069 5.29987 8.97513C5.91098 8.76957 6.53598 8.70846 7.17487 8.7918C7.81376 8.87513 8.39987 9.09457 8.9332 9.45013ZM8.39987 14.7001C8.72209 14.3779 8.93876 14.0029 9.04987 13.5751C9.16098 13.1474 9.16098 12.7168 9.04987 12.2835C8.93876 11.8501 8.72209 11.4751 8.39987 11.1585C8.07765 10.8418 7.70265 10.6251 7.27487 10.5085C6.84709 10.3918 6.41931 10.3918 5.99154 10.5085C5.56376 10.6251 5.18876 10.8418 4.86654 11.1585C4.54431 11.4751 4.32765 11.8501 4.21654 12.2835C4.10543 12.7168 4.10543 13.1474 4.21654 13.5751C4.32765 14.0029 4.54431 14.3751 4.86654 14.6918C5.18876 15.0085 5.56376 15.2251 5.99154 15.3418C6.41931 15.4585 6.84709 15.4585 7.27487 15.3418C7.70265 15.2251 8.07765 15.0112 8.39987 14.7001Z" fill="#60A5FA"/>
</svg>
