<svg width="17" height="16" viewBox="0 0 17 16" fill="none" xmlns="http://www.w3.org/2000/svg">
<path d="M3.67102 7.29221C4.46201 7.19445 5.19301 6.93227 5.86401 6.50567C6.53502 6.07907 7.08383 5.53026 7.51043 4.85925C7.93703 4.18825 8.19921 3.45725 8.29697 2.66626H3.67102V7.29221ZM3.67102 8.63867V13.3313H13.0029V2.66626H9.64343C9.53678 3.7061 9.20794 4.66595 8.65692 5.54582C8.11478 6.40791 7.41267 7.11002 6.55058 7.65216C5.67071 8.20319 4.71086 8.53202 3.67102 8.63867ZM3.00445 1.33313H13.6695C13.8561 1.33313 14.0139 1.39756 14.1427 1.52643C14.2716 1.6553 14.336 1.81306 14.336 1.99969V13.9978C14.336 14.1845 14.2716 14.3422 14.1427 14.4711C14.0139 14.6 13.8561 14.6644 13.6695 14.6644H3.00445C2.81782 14.6644 2.66006 14.6 2.53119 14.4711C2.40233 14.3422 2.33789 14.1845 2.33789 13.9978V1.99969C2.33789 1.81306 2.40233 1.6553 2.53119 1.52643C2.66006 1.39756 2.81782 1.33313 3.00445 1.33313ZM10.3367 10.665H11.6698V11.9982H10.3367V10.665Z" fill="#22D3EE"/>
</svg>
