<svg width="23" height="22" viewBox="0 0 23 22" fill="none" xmlns="http://www.w3.org/2000/svg">
<path d="M9.33746 5.33281V7.11031H4.89371V16.8866H14.67V12.4428H16.4475V17.7753C16.4475 18.0242 16.3615 18.2345 16.1897 18.4063C16.0179 18.5782 15.8076 18.6641 15.5587 18.6641H4.00496C3.75611 18.6641 3.54577 18.5782 3.37395 18.4063C3.20212 18.2345 3.11621 18.0242 3.11621 17.7753V6.22156C3.11621 5.97271 3.20212 5.76238 3.37395 5.59055C3.54577 5.41873 3.75611 5.33281 4.00496 5.33281H9.33746ZM19.1137 2.66656V9.77656H17.3362V5.70609L10.404 12.6206L9.15971 11.3763L16.0742 4.44406H12.0037V2.66656H19.1137Z" fill="white"/>
</svg>
