<svg width="16" height="24" viewBox="0 0 16 24" fill="none" xmlns="http://www.w3.org/2000/svg">
<path d="M4.66667 10.667H13.3333C13.52 10.667 13.6778 10.7314 13.8067 10.8603C13.9356 10.9892 14 11.147 14 11.3337V18.0003C14 18.187 13.9356 18.3448 13.8067 18.4737C13.6778 18.6025 13.52 18.667 13.3333 18.667H2.66667C2.48 18.667 2.32222 18.6025 2.19333 18.4737C2.06444 18.3448 2 18.187 2 18.0003V11.3337C2 11.147 2.06444 10.9892 2.19333 10.8603C2.32222 10.7314 2.48 10.667 2.66667 10.667H3.33333V10.0003C3.33333 9.15588 3.54667 8.36921 3.97333 7.64033C4.38222 6.9381 4.93778 6.38255 5.64 5.97366C6.36889 5.54699 7.15556 5.33366 8 5.33366C8.89778 5.33366 9.72444 5.57366 10.48 6.05366C11.2178 6.51588 11.7822 7.13366 12.1733 7.90699L10.9867 8.50699C10.7022 7.95588 10.2933 7.51144 9.76 7.17366C9.22667 6.83588 8.64 6.66699 8 6.66699C7.39556 6.66699 6.83778 6.81588 6.32667 7.11366C5.81556 7.41144 5.41111 7.81588 5.11333 8.32699C4.81556 8.8381 4.66667 9.39588 4.66667 10.0003V10.667ZM3.33333 12.0003V17.3337H12.6667V12.0003H3.33333ZM6.66667 14.0003H9.33333V15.3337H6.66667V14.0003Z" fill="black"/>
</svg>
