<svg width="18" height="43" viewBox="0 0 18 43" fill="none" xmlns="http://www.w3.org/2000/svg">
<path d="M16.5196 14.8888C16.387 14.9009 16.153 14.9713 16.0501 15.0132C15.697 15.1946 14.992 15.6411 14.992 15.6411L14.7119 15.8427L14.8513 16.8399C14.9487 16.8088 16.0109 16.0673 16.2707 15.8183C16.5305 15.568 16.7686 15.4083 16.8376 15.2636C16.9053 15.1188 16.9256 14.9266 16.7849 14.8996C16.682 14.8806 16.6144 14.8833 16.5196 14.8888Z" fill="#343434"/>
<path d="M16.2982 20.3133C16.2563 20.4743 16.3253 20.5596 16.3984 20.5866C16.4714 20.6137 17.0113 20.5136 17.079 20.4892C17.2008 20.4473 17.4781 20.3471 17.558 20.1807C17.6026 20.086 17.7312 19.6408 17.7785 19.561C17.8245 19.4811 18.0451 18.7545 17.9923 18.515C17.9395 18.2755 16.9531 16.7953 16.8395 16.5152C16.7258 16.2351 16.5134 15.2392 16.5134 15.2392L16.4674 14.7832C16.4674 14.7832 16.4214 14.8103 16.2468 14.8238C16.0723 14.8373 15.0209 15.4841 15.0209 15.4841L14.8545 15.8508L14.9776 16.2378C14.9776 16.2378 14.9749 16.2838 15.1211 16.3771C15.2469 16.4583 15.7191 17.0713 15.8477 17.2404C15.868 17.2675 15.8747 17.3 15.8666 17.3338C15.8423 17.4299 15.7962 17.6464 15.8206 17.8209C15.8382 17.9467 15.9086 18.5624 15.9207 18.81C15.9343 19.0969 15.9072 19.8424 15.9207 19.9561C15.9343 20.0697 16.0872 20.0833 16.1941 20.063C16.301 20.0427 16.42 19.4703 16.4403 19.3729C16.4606 19.2755 16.5269 18.7708 16.5743 18.6909C16.6203 18.6111 16.8868 18.971 16.9937 19.1902C17.1006 19.4108 16.8273 19.7829 16.8273 19.7829C16.8273 19.7829 16.5472 19.9696 16.4538 20.0427C16.3605 20.1157 16.4133 20.2023 16.4133 20.2023C16.4133 20.2023 16.3091 20.2822 16.2996 20.316L16.2982 20.3133Z" fill="white"/>
<path d="M14.3467 15.599L15.348 16.779L16.6984 15.6423L16.1314 13.6235C16.1314 13.6235 15.8865 13.8549 15.3818 14.3244C15.1707 14.5206 14.3467 15.599 14.3467 15.599Z" fill="white"/>
<path d="M14.9912 15.6424C14.9912 15.6424 15.822 15.1796 16.0953 15.0457C16.3687 14.913 16.8382 14.9158 16.8382 14.9158L16.1738 13.7981C16.1738 13.7981 15.5203 14.5531 15.431 14.6817C15.3417 14.8116 14.9912 15.641 14.9912 15.641V15.6424Z" fill="#343434"/>
<path d="M17.5423 20.2172C17.5423 20.2172 17.5517 20.2199 17.5572 20.2199C17.572 20.2199 17.5869 20.2105 17.5937 20.1956C17.6045 20.1699 17.8548 19.5637 17.8305 19.0806C17.8156 18.806 17.361 18.2512 17.342 18.2282C17.3285 18.212 17.3041 18.2092 17.2865 18.2228C17.2703 18.2363 17.2676 18.2607 17.2811 18.2783C17.2852 18.2837 17.7398 18.8371 17.752 19.0847C17.7764 19.5502 17.5247 20.159 17.522 20.1658C17.5139 20.1861 17.522 20.2091 17.5423 20.2172Z" fill="#343434"/>
<path d="M16.9822 19.5772C16.9822 19.7017 16.9714 19.8952 16.9484 19.9371C16.92 19.975 16.6412 20.0846 16.4004 20.1631C16.3801 20.1699 16.3693 20.1915 16.376 20.2132C16.3814 20.2294 16.3963 20.2402 16.4126 20.2402C16.4166 20.2402 16.4207 20.2402 16.4247 20.2389C16.5885 20.1847 16.9741 20.0521 17.0161 19.9777C17.0594 19.9019 17.0607 19.6313 17.0607 19.5786C17.0607 19.5569 17.0431 19.5393 17.0215 19.5393C16.9998 19.5393 16.9822 19.5569 16.9822 19.5786V19.5772Z" fill="#343434"/>
<path d="M15.1514 16.7477L15.5992 17.2267C15.5992 17.2267 15.7643 17.021 16.0877 16.7788C16.3664 16.5691 16.9469 16.1956 16.9469 16.1956L16.7575 15.5786C16.7575 15.5786 16.3286 15.8966 16.1242 16.0373C15.9186 16.178 15.1514 16.7477 15.1514 16.7477Z" fill="#343434"/>
<path d="M15.7295 17.0874L15.854 17.2484C15.854 17.2484 16.0461 16.9764 16.1503 16.879C16.2694 16.7667 16.7917 16.3621 16.789 16.3675L16.7714 16.3093C16.7714 16.3093 16.2491 16.653 16.172 16.7112C15.8743 16.9345 15.7295 17.0874 15.7295 17.0874Z" fill="white"/>
<path d="M16.1297 15.0253C15.9958 15.0795 15.0662 15.5666 15.0269 15.5869C15.008 15.5964 14.9999 15.6207 15.0107 15.6397C15.0175 15.6532 15.031 15.6613 15.0459 15.6613C15.0527 15.6613 15.0581 15.66 15.0635 15.6572C15.073 15.6518 16.0296 15.1512 16.1595 15.0984C16.4274 14.9902 16.6913 15.0145 16.694 15.0145C16.717 15.0159 16.7345 15.001 16.7373 14.9793C16.7386 14.9577 16.7237 14.9388 16.7021 14.936C16.6899 14.936 16.4166 14.9103 16.1311 15.0253H16.1297Z" fill="#343434"/>
<path d="M16.4382 15.7005C16.2555 15.8331 15.1162 16.5056 15.1162 16.5056L15.2556 16.6693L16.6912 15.6206L16.6628 15.5205C16.6628 15.5205 16.6209 15.5679 16.4368 15.7005H16.4382Z" fill="white"/>
<path d="M11.0258 38.8343C10.8444 39.5934 11.3952 39.7829 11.6022 39.7829C11.8092 39.7829 12.2517 39.7071 12.5318 39.7206C12.8118 39.7342 13.211 39.8005 13.4911 39.8005C13.7712 39.8005 14.238 39.8275 14.5235 39.86C14.8104 39.8938 15.2569 39.9195 15.3029 39.8262C15.3489 39.7328 15.4098 39.4798 15.3029 39.3932C15.196 39.3066 14.7292 39.2863 14.4031 39.0928C14.077 38.8993 12.9702 38.0861 12.9174 37.9738C12.8646 37.8601 12.6373 37.3013 12.6048 36.9806C12.571 36.6613 12.5845 35.8873 12.5981 35.6816C12.6116 35.476 12.6387 34.9821 12.6387 34.9821C12.6387 34.9821 12.7117 34.4287 12.6725 34.1824C12.6319 33.9361 12.7997 33.7819 12.226 33.5559C11.6522 33.33 10.5928 32.8171 10.5928 32.8171C10.5928 32.8171 10.6455 34.0566 10.793 34.5356C10.9392 35.0159 11.1935 35.7358 11.2463 35.9482C11.2991 36.162 11.4601 36.8548 11.4601 37.028C11.4601 37.2012 11.3532 38.0279 11.2869 38.1876C11.2206 38.3472 11.0555 38.7166 11.0271 38.8343H11.0258Z" fill="white"/>
<path d="M11.2987 37.2957L11.2324 37.8356C11.2324 37.8356 11.8968 37.7801 12.2053 37.7626C12.3717 37.7531 12.9184 37.6164 12.9184 37.6164L12.798 37.1428C12.798 37.1428 12.526 37.1915 12.1918 37.243C12.1322 37.2524 11.2987 37.2957 11.2987 37.2957Z" fill="#343434"/>
<path d="M11.2326 37.9819L11.0459 38.3621C11.0459 38.3621 11.5235 38.783 11.5723 38.829C11.9863 39.2092 12.0756 39.856 12.0756 39.856C12.0756 39.856 12.4058 39.9304 12.4125 39.8939C12.4193 39.856 12.4206 39.4446 12.2677 39.1659C12.1148 38.8858 11.7265 38.4772 11.5939 38.3107C11.4599 38.1443 11.234 37.9846 11.234 37.9846L11.2326 37.9819Z" fill="#343434"/>
<path d="M12.6914 39.9018C12.6914 39.9099 13.0446 39.9343 13.0446 39.9343C13.0446 39.9343 13.0797 39.7733 13.0838 39.7733C13.0879 39.7733 13.2922 39.2212 13.418 39.0074C13.5439 38.7936 13.8442 38.5609 13.8442 38.5609L13.5249 38.2876C13.5249 38.2876 13.1312 38.7476 12.9783 39.0805C12.8254 39.4134 12.6914 39.8937 12.6914 39.9018Z" fill="#343434"/>
<path d="M13.5723 39.9344L14.0188 39.9804C14.0188 39.9804 14.1257 39.5203 14.2055 39.3999C14.2853 39.2795 14.5127 39.0197 14.5127 39.0197L14.2055 38.8059C14.2055 38.8059 13.9931 39.0468 13.8605 39.22C13.7279 39.3932 13.5723 39.933 13.5723 39.933V39.9344Z" fill="#343434"/>
<path d="M11.0823 39.7463H11.0783C10.9511 39.7463 10.8455 39.8492 10.8428 39.9777C10.8401 40.1076 10.9443 40.2145 11.0742 40.2172L15.2932 40.2876H15.2972C15.4244 40.2876 15.5299 40.1847 15.5327 40.0562C15.5354 39.9263 15.4312 39.8194 15.3013 39.8167L11.0823 39.7463Z" fill="#343434"/>
<path d="M12.0514 33.7886L11.3072 33.5166L10.5928 33.2717L10.6185 33.357C10.6185 33.357 10.8323 33.4125 10.9324 33.4625C11.0325 33.5126 11.7524 33.813 12.0176 33.9875C12.2828 34.1621 12.4167 34.3271 12.4167 34.3271C12.4167 34.3271 12.4249 34.177 12.4222 34.1066C12.4195 34.0362 12.387 33.9794 12.3342 33.9158C12.2814 33.8509 12.0528 33.7886 12.0528 33.7886H12.0514Z" fill="#343434"/>
<path d="M9.50326 29.6644C9.62639 29.3871 9.77253 28.9148 9.77253 28.9148L7.0731 28.3655C7.0731 28.3655 6.66582 29.4791 6.46421 30.2788C6.32619 30.8241 6.1097 31.6454 6.16653 33.1243C6.20577 34.1242 6.5914 36.3636 6.5914 36.3636C6.5914 36.3636 6.92697 37.7898 7.0068 38.216C7.08663 38.6422 7.1137 39.0022 7.0731 39.2159C7.03251 39.4297 6.85931 40.5095 6.85931 40.6949C6.85931 40.8802 6.83225 41.1008 6.83225 41.3213C6.83225 41.5419 6.87961 41.6109 7.09069 41.6813C7.30178 41.7516 7.37214 41.8112 7.70229 41.8112C8.03245 41.8112 8.40184 41.8612 8.51144 41.7313C8.62104 41.6014 8.732 41.4309 8.732 41.2713C8.732 41.1116 8.59263 40.9614 8.54256 40.8315C8.4925 40.7016 8.20294 39.4825 8.21241 39.1321C8.22188 38.7816 8.18264 36.8426 8.20294 36.5828C8.22323 36.323 9.41125 29.8701 9.50191 29.6644H9.50326Z" fill="white"/>
<path d="M8.36031 39.0887V38.561L6.89355 38.6354L6.92738 39.1875L8.36031 39.0887Z" fill="#343434"/>
<path d="M7.45996 39.0549C7.45996 39.0549 7.49379 40.0616 7.50055 40.3282C7.50732 40.5948 7.56686 41.0481 7.56686 41.0481H7.98631C7.98631 41.0481 7.87942 40.3282 7.84695 40.021C7.81447 39.7139 7.78064 39.0549 7.78064 39.0549H7.46131H7.45996Z" fill="#343434"/>
<path d="M7.22781 39.8927C6.89495 39.9765 6.78129 40.0523 6.78129 40.0523L6.72852 40.4961C6.72852 40.4961 6.94907 40.396 7.26163 40.2959C7.5742 40.1957 8.59443 40.2959 8.59443 40.2959L8.47401 39.894C8.47401 39.894 8.14791 39.8236 8.03425 39.8169C7.92059 39.8101 7.56067 39.8101 7.22781 39.894V39.8927Z" fill="#343434"/>
<path d="M7.41976 40.6082C7.03954 40.6542 6.67285 40.8815 6.67285 40.8815L6.72562 41.3145C6.72562 41.3145 7.09231 41.121 7.35211 41.048C7.6119 40.9749 7.74586 41.0141 7.97859 41.006C8.21267 40.9979 8.84457 41.1819 8.84457 41.1819L8.7715 40.776L8.31821 40.6096C8.31821 40.6096 7.79863 40.5636 7.41841 40.6096L7.41976 40.6082Z" fill="#343434"/>
<path d="M8.60724 41.5486C8.19861 41.6176 8.12689 41.619 7.82921 41.6284L7.70608 41.6325C7.39352 41.642 6.98353 41.6014 6.97947 41.6014C6.84957 41.5879 6.73456 41.6812 6.72103 41.8111C6.7075 41.9397 6.80086 42.056 6.93076 42.0696C6.947 42.0709 7.2785 42.1047 7.59513 42.1047C7.63843 42.1047 7.68037 42.1047 7.72232 42.102L7.84545 42.098C8.15396 42.0885 8.24732 42.0858 8.68708 42.0114C8.81562 41.9897 8.90086 41.8693 8.88057 41.7408C8.85892 41.6122 8.73849 41.5256 8.60995 41.5473L8.60724 41.5486Z" fill="#343434"/>
<path d="M8.07951 29.421C8.25947 29.4548 9.54897 29.5536 9.54897 29.5536L9.70052 29.1409C9.70052 29.1409 7.51257 28.4779 7.49227 28.4779C7.47197 28.4779 7.07281 28.4373 7.07281 28.4373L6.9375 28.7349C6.9375 28.7349 7.5518 28.8351 7.679 28.8932C7.80619 28.9514 7.91985 28.9839 7.91579 29.0516C7.91173 29.1179 7.8982 29.3885 8.07816 29.421H8.07951Z" fill="#343434"/>
<path d="M11.6235 12.6356L12.8332 7.84837L10.5573 5.49805L8.51274 6.82408C8.51274 6.82408 8.04592 6.95398 7.21377 7.58858C6.57646 8.07434 6.39244 8.81854 6.17459 9.25965C6.04199 9.52756 5.68207 9.99573 5.58194 10.2961C5.48181 10.5965 5.21525 11.5897 5.21525 11.5897C5.21525 11.5897 4.7552 12.5287 4.65507 12.9888C4.55494 13.4488 4.31544 14.4082 4.48458 15.404C4.54682 15.768 4.87427 17.3674 4.87427 17.3674L6.1543 20.7001C6.1543 20.7001 5.84579 21.8028 5.77543 21.9801C5.56164 22.5132 5.7619 22.9408 5.81467 23.0747C5.86744 23.2087 6.34914 23.574 6.55481 23.7066C6.71042 23.8068 7.05411 23.8068 7.0947 23.6863C7.13529 23.5659 7.12447 23.3968 7.12447 23.3968C7.12447 23.3968 7.2246 23.3873 7.3342 23.2574C7.4438 23.1275 7.38156 22.9638 7.38156 22.9638C7.38156 22.9638 7.40862 22.9773 7.51416 22.9178C7.68465 22.8204 7.65353 22.5579 7.65353 22.5579C7.65353 22.5579 7.7956 22.5173 7.85378 22.4077C7.95121 22.225 7.83349 22.0572 7.83349 22.0572C7.83349 22.0572 7.2936 21.4307 7.25301 21.3468C7.04328 20.9166 7.19347 20.6568 7.19347 20.6568L7.61293 19.9964L7.39238 19.7651C7.27737 19.6433 7.20836 19.485 7.20024 19.3172C7.16777 18.6542 7.07576 16.9263 7.00269 16.5975C6.91338 16.1875 6.38568 14.8087 6.38568 14.8087C6.38568 14.8087 7.17183 13.4394 7.38156 13.1687C7.59128 12.8981 7.98098 12.2784 7.98098 12.2784C7.98098 12.2784 8.58446 13.1011 8.85778 13.5679C9.49103 14.6504 9.45179 14.9007 9.45179 14.9007L11.6222 12.6343L11.6235 12.6356Z" fill="white"/>
<path d="M8.99588 9.79018C8.99318 9.7983 8.76721 10.6007 8.59401 10.9741C8.41946 11.3489 7.95265 12.2528 7.94859 12.2623C7.93911 12.2812 7.94588 12.3056 7.96482 12.3151C7.97024 12.3178 7.977 12.3191 7.98241 12.3191C7.9973 12.3191 8.01083 12.311 8.01759 12.2975C8.02301 12.288 8.48982 11.3828 8.66437 11.0066C8.84028 10.6277 9.06083 9.84431 9.0703 9.81048C9.07571 9.79018 9.06354 9.76854 9.04324 9.76177C9.02294 9.755 9.00129 9.76853 8.99453 9.78883L8.99588 9.79018Z" fill="#343434"/>
<path d="M9.46906 10.0593L8.79657 10.5789C8.77898 10.5925 8.77628 10.6168 8.78981 10.6344C8.79793 10.6439 8.80875 10.6493 8.82093 10.6493C8.82905 10.6493 8.83717 10.6466 8.84528 10.6412L9.51777 10.1216C9.53536 10.1081 9.53807 10.0837 9.52454 10.0661C9.51101 10.0485 9.48665 10.0458 9.46906 10.0593Z" fill="#343434"/>
<path d="M9.00866 10.4451C8.99107 10.4573 8.98701 10.4817 8.99919 10.4992C9.03437 10.548 9.34964 10.9837 9.397 11.031C9.40512 11.0391 9.41459 11.0418 9.42406 11.0418C9.43353 11.0418 9.44436 11.0378 9.45112 11.031C9.46601 11.0161 9.46601 10.9904 9.45112 10.9755C9.41865 10.9431 9.2008 10.6454 9.06143 10.4532C9.0479 10.4356 9.02354 10.4316 9.00731 10.4438L9.00866 10.4451Z" fill="#343434"/>
<path d="M5.9213 14.4773C5.91589 14.4976 5.92671 14.5192 5.94836 14.526C5.95242 14.526 6.29611 14.6302 6.35023 14.8196C6.35564 14.8372 6.37053 14.848 6.38812 14.848C6.39218 14.848 6.39488 14.848 6.39894 14.8467C6.41924 14.8413 6.43142 14.8196 6.42601 14.798C6.3597 14.5679 5.9876 14.4556 5.97137 14.4516C5.95107 14.4462 5.92942 14.457 5.92265 14.4786L5.9213 14.4773Z" fill="#343434"/>
<path d="M9.2494 14.2946L9.41989 14.6965L10.5578 12.3435L11.6403 8.47632C11.6403 8.47632 11.3386 9.16233 11.298 9.29088C11.2682 9.38695 10.1925 12.2704 9.6215 13.6546C9.42666 14.1268 9.24805 14.2946 9.24805 14.2946H9.2494Z" fill="white"/>
<path d="M15.3116 15.0482C15.4104 14.8682 15.8637 14.2282 16.1993 13.7627C16.409 13.4718 16.5714 13.2486 16.5714 13.2486L16.0585 12.0091L16.4455 11.039L15.9395 10.0891L16.179 9.4626L15.6986 8.72381L15.9381 8.31112C15.9381 8.31112 15.5647 7.94173 15.4713 7.84836C15.3779 7.755 15.1817 7.54392 15.1817 7.54392L11.9681 7.41943C11.9681 7.41943 11.1874 9.99978 10.6137 11.541C10.2605 12.4908 9.14287 15.1984 9.14287 15.1984L9.75446 15.81C9.75446 15.81 8.02656 20.4836 7.75324 21.3319C7.70453 21.4835 7.65582 21.6364 7.60846 21.7893C7.72888 21.9327 7.83307 22.0545 7.83307 22.0545C7.83307 22.0545 7.95079 22.2223 7.85337 22.405C7.79518 22.5146 7.65311 22.5551 7.65311 22.5551C7.65311 22.5551 7.68288 22.8176 7.51374 22.9151C7.40955 22.9746 7.38114 22.9611 7.38114 22.9611C7.38114 22.9611 7.44338 23.1248 7.33378 23.2547C7.22824 23.3805 7.13217 23.3941 7.1254 23.3941C7.1254 23.3941 7.1254 23.3968 7.1254 23.3981C7.1254 23.4157 7.13352 23.5713 7.09563 23.685C7.08616 23.712 7.06045 23.7323 7.02527 23.7486C6.30949 26.2464 5.77637 28.4641 5.77637 28.4641C5.77637 28.4641 7.1687 28.5439 7.42173 28.6238C7.67476 28.7036 8.01439 28.7442 8.05498 28.8836C8.09557 29.0229 7.97515 29.1961 8.05498 29.2367C8.13481 29.2773 9.28765 29.2638 9.53391 29.2367C9.78017 29.2097 9.95337 29.2164 10.021 29.3707C10.0873 29.5236 10.0549 29.9038 10.0413 29.9701C10.0278 30.0364 9.96825 30.3165 10.0278 30.3706C10.0873 30.4247 10.4472 30.4302 10.4946 30.4302C10.542 30.4302 10.7679 30.4301 10.7341 30.5506C10.7003 30.671 10.4148 31.7697 10.3079 32.2365C10.201 32.7033 10.2483 32.9767 10.2741 33.0768C10.2998 33.1769 10.5068 33.2432 10.7409 33.3231C10.975 33.4029 11.7273 33.6559 11.9275 33.7425C12.1278 33.8291 12.3876 33.8427 12.4201 34.0754C12.4539 34.3081 12.3199 34.7682 12.4539 35.0212C12.5878 35.2742 12.6744 35.2147 12.807 35.3216C12.941 35.4285 13.3131 35.5083 13.4795 35.8547C13.646 36.2011 13.8801 36.7816 13.8801 36.8276C13.8801 36.8736 14.1195 36.2349 14.1601 36.0482C14.2007 35.8615 14.24 35.2418 14.24 35.2418C14.24 35.2418 14.4132 34.9617 14.6662 34.7682C14.9192 34.5747 15.1655 34.4015 15.2196 34.2215C15.2724 34.0416 15.2602 33.5815 15.2196 33.4489C15.179 33.315 15.0735 33.0687 15.1263 32.9429C15.179 32.8157 15.2724 32.6628 15.4456 32.6289C15.6188 32.5951 15.6594 32.5491 15.6594 32.5491C15.6594 32.5491 15.6932 31.4693 15.6594 31.3029C15.6255 31.1365 15.5728 30.717 15.5728 30.717C15.5728 30.717 15.7987 30.6101 15.8921 30.3571C15.9855 30.1041 15.9259 29.9904 16.1127 29.8172C16.2994 29.644 16.5727 29.4437 16.5727 29.4437C16.5727 29.4437 16.459 27.1448 16.4333 26.9649C16.4076 26.7849 15.8732 22.2466 15.8732 22.2466C15.8732 22.2466 15.2927 18.9478 15.2534 18.7083C15.2128 18.4688 14.7406 16.7152 14.7406 16.7152L14.7677 16.1293C14.7677 16.1293 15.1547 15.3431 15.3143 15.0495L15.3116 15.0482Z" fill="#343434"/>
<path d="M13.3498 16.0915C13.3444 16.0983 13.3214 16.1321 13.32 16.1078C13.316 16.12 13.3309 16.1213 13.3363 16.1132C13.343 16.1078 13.3484 16.1024 13.3552 16.0956C13.3742 16.0767 13.4323 15.9968 13.4472 15.9752C13.9871 15.1295 14.5067 14.2459 14.8193 13.2879C15.1169 12.2542 15.3348 11.215 15.7881 10.2354C15.2292 11.1555 14.9694 12.2203 14.6704 13.2406C14.3646 14.185 13.8789 15.0767 13.4283 15.9616C13.4134 15.9887 13.3687 16.0658 13.3511 16.0902L13.3498 16.0915Z" fill="white"/>
<path d="M15.877 12.2621L14.7187 14.5489L13.8284 16.0887C13.8176 16.1076 13.8243 16.132 13.8433 16.1428C13.8501 16.1469 13.8555 16.1482 13.8622 16.1482C13.8758 16.1482 13.8893 16.1415 13.8961 16.1293L14.7864 14.5881L15.946 12.2987C15.9555 12.2797 15.9487 12.2554 15.9284 12.2459C15.9095 12.2364 15.8851 12.2432 15.8756 12.2635L15.877 12.2621Z" fill="white"/>
<path d="M15.5407 8.78345C15.4257 8.87817 14.9291 10.2827 14.7803 10.9958C14.622 11.7535 14.5665 12.0809 14.5651 12.0837C14.5611 12.1053 14.5759 12.1256 14.5976 12.1283C14.6003 12.1283 14.6017 12.1283 14.6044 12.1283C14.6233 12.1283 14.6395 12.1148 14.6422 12.0958C14.6422 12.0931 14.6991 11.767 14.856 11.0106C15.0225 10.211 15.5109 8.9147 15.5894 8.84299C15.6057 8.82946 15.6084 8.80511 15.5948 8.78752C15.5813 8.77128 15.5569 8.76857 15.5393 8.7821L15.5407 8.78345Z" fill="white"/>
<path d="M13.9152 13.9699C13.9111 13.9807 13.5485 15.0578 13.4524 15.2147C13.0451 15.8845 12.5892 16.0699 12.5851 16.0712C12.5648 16.0793 12.5553 16.1023 12.5634 16.1226C12.5689 16.1375 12.5837 16.147 12.6 16.147C12.6054 16.147 12.6095 16.147 12.6149 16.1443C12.6338 16.1362 13.0979 15.9494 13.5201 15.2553C13.6202 15.0902 13.9747 14.0389 13.9896 13.9942C13.9964 13.9739 13.9855 13.9509 13.9653 13.9442C13.945 13.9374 13.922 13.9482 13.9152 13.9685V13.9699Z" fill="white"/>
<path d="M12.9138 14.6408C12.9138 14.6408 12.8638 14.883 12.7961 15.132C12.7298 15.3783 12.355 16.0832 12.3509 16.09C12.3415 16.1089 12.3482 16.1333 12.3672 16.1428C12.3726 16.1455 12.3793 16.1468 12.3861 16.1468C12.3996 16.1468 12.4132 16.1387 12.4213 16.1265C12.4375 16.0968 12.8042 15.4067 12.8732 15.1523C12.9409 14.9006 12.9909 14.6598 12.9923 14.6571C12.9964 14.6354 12.9828 14.6151 12.9612 14.6111C12.9395 14.607 12.9192 14.6205 12.9152 14.6408H12.9138Z" fill="white"/>
<path d="M11.9075 14.4745C11.9035 14.4934 11.8967 14.58 11.8832 14.7302C11.8737 14.8412 11.8629 14.9656 11.8534 15.0576L11.848 15.1077C11.7857 15.7396 11.7438 15.9209 11.7181 15.9575C11.7032 15.9629 11.6924 15.9764 11.6924 15.9926C11.6924 16.0143 11.7086 16.0319 11.7303 16.0332H11.7316C11.7939 16.0332 11.8412 15.9629 11.9251 15.1158L11.9305 15.0658C11.94 14.9738 11.9508 14.8479 11.9603 14.737C11.9698 14.6233 11.9806 14.5056 11.9833 14.4894C11.9874 14.4677 11.9738 14.4474 11.9522 14.4433C11.9319 14.4393 11.9102 14.4528 11.9062 14.4745H11.9075Z" fill="white"/>
<path d="M11.118 14.783C11.0963 14.783 11.0801 14.802 11.0801 14.8236C11.0801 14.8426 11.1031 15.2837 11.141 15.488C11.1843 15.7207 11.2871 16.0685 11.2885 16.0725C11.2939 16.0901 11.3088 16.1009 11.3263 16.1009C11.3304 16.1009 11.3345 16.1009 11.3372 16.0996C11.3575 16.0928 11.3696 16.0712 11.3629 16.0509C11.3629 16.0468 11.26 15.7031 11.2181 15.4745C11.1816 15.2742 11.1586 14.825 11.1586 14.8196C11.1586 14.7979 11.141 14.779 11.118 14.783Z" fill="white"/>
<path d="M14.3019 8.89969C14.2978 8.90916 13.9027 9.88203 13.7688 10.338C13.6348 10.794 13.5739 11.1323 13.5739 11.135C13.5699 11.1566 13.5847 11.1769 13.605 11.181C13.6077 11.181 13.6091 11.181 13.6118 11.181C13.6307 11.181 13.647 11.1675 13.6497 11.1485C13.6497 11.1458 13.7106 10.8116 13.8432 10.3597C13.9758 9.90639 14.3695 8.93892 14.3736 8.9281C14.3817 8.9078 14.3722 8.8848 14.3519 8.87668C14.3316 8.86856 14.3086 8.87804 14.3005 8.89833L14.3019 8.89969Z" fill="white"/>
<path d="M14.8867 15.8816C14.8867 15.8816 16.0964 14.0631 16.1465 14.0238C16.1965 13.9832 16.2371 13.9034 16.2371 13.9034L16.1749 13.7979L15.3914 14.9209L14.8881 15.8816H14.8867Z" fill="white"/>
<path d="M9.6417 15.7004L9.27637 16.7721C9.27637 16.7721 10.1856 17.0156 11.4521 17.1144C12.1246 17.1672 13.3654 17.0941 13.9513 17.059C14.2842 17.0387 14.9431 16.9196 14.9431 16.9196L14.9905 15.8777L14.1448 15.9156C14.1448 15.9156 12.9378 15.9954 12.0326 15.9954C11.1274 15.9954 9.6417 15.7004 9.6417 15.7004Z" fill="white"/>
<path d="M10.628 16.2079C10.7782 16.2079 10.9176 16.354 10.9189 16.3554C10.9338 16.3716 10.9582 16.3716 10.9744 16.3567C10.9906 16.3418 10.9906 16.3175 10.9757 16.3012C10.969 16.2945 10.812 16.1294 10.6266 16.1294C10.4534 16.1294 10.2965 16.22 10.2545 16.3459C10.2126 16.4731 10.2627 16.6165 10.3357 16.672C10.379 16.7045 10.4304 16.7207 10.4819 16.7207C10.5279 16.7207 10.5752 16.7072 10.6212 16.6815C10.6794 16.6476 10.7146 16.5962 10.7187 16.5394C10.7214 16.4839 10.6943 16.4325 10.6402 16.3946C10.5509 16.3296 10.4575 16.3662 10.4223 16.3946C10.4061 16.4081 10.4034 16.4325 10.4169 16.4487C10.4304 16.465 10.4548 16.469 10.4724 16.4555C10.4778 16.4514 10.5333 16.4122 10.5955 16.4555C10.6266 16.4771 10.6429 16.5056 10.6415 16.5326C10.6402 16.5624 10.6185 16.5908 10.5833 16.6111C10.4886 16.6652 10.4183 16.6314 10.3844 16.6057C10.3398 16.5719 10.2978 16.465 10.3303 16.3675C10.3574 16.2864 10.4683 16.2038 10.628 16.2038V16.2079Z" fill="white"/>
<path d="M11.3438 16.2687C11.494 16.2687 11.6334 16.4148 11.6347 16.4162C11.6496 16.4324 11.674 16.4324 11.6902 16.4175C11.7064 16.4026 11.7064 16.3783 11.6916 16.362C11.6848 16.3553 11.5278 16.1902 11.3425 16.1902C11.1571 16.1902 11.0137 16.2795 10.9704 16.4067C10.9284 16.5339 10.9785 16.6773 11.0515 16.7328C11.0948 16.7653 11.1463 16.7815 11.1977 16.7815C11.2437 16.7815 11.291 16.768 11.3371 16.7423C11.3952 16.7084 11.4318 16.657 11.4345 16.6002C11.4372 16.5447 11.4101 16.4933 11.356 16.4554C11.2653 16.3904 11.1733 16.427 11.1381 16.4554C11.1219 16.4689 11.1192 16.4933 11.1327 16.5095C11.1463 16.5258 11.1706 16.5298 11.1882 16.5163C11.1936 16.5122 11.2491 16.473 11.3113 16.5163C11.3425 16.5379 11.3587 16.5664 11.3573 16.5934C11.356 16.6232 11.3343 16.6516 11.2992 16.6719C11.2044 16.7274 11.1341 16.6922 11.1003 16.6665C11.0556 16.6327 11.0137 16.5258 11.0461 16.4283C11.0732 16.3471 11.1842 16.2646 11.3438 16.2646V16.2687Z" fill="white"/>
<path d="M12.0397 16.3282C12.1899 16.3282 12.3293 16.4744 12.3306 16.4757C12.3455 16.492 12.3699 16.492 12.3861 16.4771C12.4024 16.4622 12.4024 16.4378 12.3875 16.4216C12.3807 16.4148 12.2238 16.2498 12.0397 16.2498C11.8665 16.2498 11.7096 16.3404 11.6676 16.4663C11.6257 16.5934 11.6757 16.7369 11.7488 16.7923C11.7935 16.8262 11.8435 16.8424 11.895 16.8424C11.941 16.8424 11.9883 16.8289 12.0343 16.8032C12.0925 16.7693 12.129 16.7179 12.1317 16.6611C12.1344 16.6056 12.1074 16.5542 12.0533 16.5163C11.9626 16.4514 11.8706 16.4893 11.8354 16.5163C11.8192 16.5299 11.8165 16.5542 11.83 16.5704C11.8435 16.5867 11.8679 16.5907 11.8855 16.5772C11.8909 16.5732 11.9464 16.5326 12.0086 16.5772C12.0397 16.5989 12.056 16.6273 12.0546 16.6543C12.0533 16.6841 12.0316 16.7125 11.9964 16.7328C11.9017 16.7869 11.8314 16.7531 11.7975 16.7274C11.7529 16.6936 11.7109 16.5867 11.7434 16.4893C11.7705 16.4081 11.8814 16.3255 12.0411 16.3255L12.0397 16.3282Z" fill="white"/>
<path d="M12.7676 16.3622C12.9178 16.3622 13.0572 16.5083 13.0586 16.5097C13.0734 16.5259 13.0978 16.5259 13.114 16.511C13.1303 16.4961 13.1303 16.4718 13.1154 16.4555C13.1086 16.4488 12.9517 16.2837 12.7663 16.2837C12.5809 16.2837 12.4375 16.373 12.3942 16.5002C12.3522 16.6274 12.4023 16.7708 12.4754 16.8263C12.5187 16.8588 12.5701 16.875 12.6215 16.875C12.6675 16.875 12.7149 16.8615 12.7609 16.8358C12.8191 16.8019 12.8556 16.7505 12.8583 16.6937C12.861 16.6382 12.8339 16.5868 12.7798 16.5489C12.6892 16.484 12.5985 16.5205 12.562 16.5489C12.5457 16.5624 12.543 16.5868 12.5566 16.603C12.5701 16.6193 12.5945 16.6233 12.612 16.6098C12.6175 16.6057 12.6729 16.5651 12.7352 16.6098C12.7663 16.6314 12.7825 16.6599 12.7812 16.6869C12.7798 16.7167 12.7582 16.7451 12.723 16.7654C12.6283 16.8195 12.5579 16.7857 12.5241 16.76C12.4794 16.7262 12.4375 16.6193 12.47 16.5218C12.497 16.4407 12.608 16.3581 12.7676 16.3581V16.3622Z" fill="white"/>
<path d="M13.5182 16.3282C13.6684 16.3282 13.8078 16.4744 13.8092 16.4757C13.824 16.492 13.8484 16.492 13.8646 16.4771C13.8809 16.4622 13.8809 16.4378 13.866 16.4216C13.8592 16.4148 13.7023 16.2498 13.5182 16.2498C13.3342 16.2498 13.1881 16.3391 13.1461 16.4663C13.1042 16.5934 13.1543 16.7369 13.2273 16.7923C13.2706 16.8248 13.322 16.8411 13.3735 16.8411C13.4195 16.8411 13.4668 16.8275 13.5128 16.8018C13.571 16.768 13.6075 16.7166 13.6103 16.6597C13.613 16.6043 13.5859 16.5529 13.5318 16.515C13.4411 16.45 13.3491 16.4866 13.3139 16.515C13.2977 16.5285 13.295 16.5529 13.3085 16.5704C13.322 16.5867 13.3464 16.5894 13.364 16.5759C13.3667 16.5745 13.4222 16.5299 13.4871 16.5759C13.5182 16.5975 13.5345 16.6259 13.5331 16.653C13.5318 16.6828 13.5101 16.7112 13.4749 16.7315C13.3802 16.7856 13.3099 16.7518 13.276 16.726C13.2314 16.6922 13.1894 16.5853 13.2219 16.4879C13.249 16.4067 13.3599 16.3242 13.5196 16.3242L13.5182 16.3282Z" fill="white"/>
<path d="M14.3048 16.2687C14.4549 16.2687 14.5943 16.4148 14.5957 16.4162C14.6106 16.4324 14.6349 16.4324 14.6511 16.4175C14.6674 16.4026 14.6674 16.3783 14.6525 16.362C14.6457 16.3553 14.4888 16.1902 14.3034 16.1902C14.1302 16.1902 13.9732 16.2808 13.9313 16.4067C13.8894 16.5339 13.9394 16.6773 14.0125 16.7328C14.0558 16.7653 14.1072 16.7815 14.1586 16.7815C14.2046 16.7815 14.252 16.768 14.298 16.7423C14.3562 16.7084 14.3914 16.657 14.3954 16.6002C14.3981 16.5447 14.3711 16.4933 14.3169 16.4554C14.2276 16.3904 14.1356 16.427 14.0991 16.4554C14.0828 16.4689 14.0801 16.4933 14.0937 16.5095C14.1072 16.5258 14.1316 16.5298 14.1492 16.5163C14.1546 16.5122 14.21 16.473 14.2723 16.5163C14.3034 16.5379 14.3196 16.5664 14.3183 16.5934C14.3169 16.6232 14.2953 16.6516 14.2601 16.6719C14.1654 16.7274 14.095 16.6922 14.0612 16.6665C14.0165 16.6327 13.9746 16.5258 14.0071 16.4283C14.0341 16.3471 14.1451 16.2646 14.3048 16.2646V16.2687Z" fill="white"/>
<path d="M12.4183 35.0404C12.513 35.2217 12.5929 35.2555 12.67 35.2893C12.7065 35.3056 12.7417 35.3204 12.7823 35.3529C12.8229 35.3854 12.8824 35.4152 12.9501 35.4476C13.1111 35.5275 13.3316 35.6357 13.4453 35.8725C13.6199 36.2351 13.835 36.7777 13.8418 36.8291C13.8418 36.8508 13.8593 36.8684 13.881 36.8684C13.9026 36.8684 13.9202 36.8508 13.9202 36.8291C13.9202 36.7655 13.6632 36.1431 13.517 35.8387C13.3912 35.5775 13.1571 35.4625 12.9866 35.3786C12.923 35.3475 12.8675 35.3204 12.8337 35.292C12.785 35.2528 12.7417 35.2352 12.7038 35.2176C12.6307 35.1865 12.5739 35.1608 12.4914 35.0038C12.4129 34.855 12.4345 34.6182 12.4535 34.4098C12.4643 34.2813 12.4765 34.1608 12.463 34.0702C12.4345 33.8686 12.2613 33.8131 12.0936 33.759C12.0435 33.7427 11.9934 33.7265 11.9461 33.7062C11.7742 33.6318 11.1992 33.4356 10.8907 33.3314L10.7283 33.2759C10.5348 33.2096 10.3359 33.142 10.3156 33.0662C10.2912 32.9728 10.2439 32.7063 10.3494 32.2449C10.4563 31.778 10.7405 30.6847 10.7756 30.5603C10.7878 30.5156 10.7743 30.4831 10.7594 30.4655C10.7215 30.4155 10.6363 30.3911 10.4983 30.3911C10.3413 30.3911 10.0923 30.3722 10.0572 30.3411C10.0531 30.337 10.0179 30.2951 10.0815 29.9879L10.0829 29.9784C10.0869 29.9568 10.072 29.9405 10.0517 29.9365C10.0314 29.9311 10.0084 29.95 10.0044 29.9717C9.95297 30.2247 9.95297 30.3532 10.0044 30.3992C10.0829 30.4682 10.4807 30.4696 10.4969 30.4696C10.6512 30.4696 10.689 30.5034 10.6958 30.5129C10.6999 30.5183 10.7026 30.5251 10.6985 30.54C10.6633 30.6658 10.3792 31.7605 10.2723 32.2273C10.1627 32.7049 10.2128 32.9864 10.2398 33.0865C10.2709 33.2029 10.4617 33.2678 10.7026 33.3503L10.865 33.4058C11.1721 33.51 11.7458 33.7062 11.915 33.7793C11.965 33.8009 12.0178 33.8185 12.0692 33.8347C12.2275 33.8862 12.3628 33.9295 12.3858 34.0824C12.398 34.1649 12.3858 34.2813 12.3764 34.4044C12.3574 34.6236 12.3344 34.8726 12.4237 35.0417L12.4183 35.0404Z" fill="white"/>
<path d="M10.0314 30.0094C10.0314 30.0094 10.0368 30.0094 10.0395 30.0094C10.0585 30.0094 10.0747 29.9972 10.0774 29.9783C10.0896 29.9201 10.1275 29.5237 10.0544 29.3559C9.97189 29.1678 9.74863 29.1746 9.52808 29.1989C9.26963 29.2273 8.15604 29.2368 8.07079 29.203C8.05591 29.1962 8.06944 29.1407 8.07891 29.0974C8.0938 29.0325 8.11274 28.9499 8.09109 28.8742C8.05591 28.7483 7.85294 28.6983 7.63916 28.6441C7.56879 28.6266 7.49843 28.609 7.43213 28.5873C7.17775 28.5075 5.83413 28.429 5.7773 28.4263C5.757 28.4236 5.7367 28.4412 5.73535 28.4628C5.73535 28.4845 5.75024 28.5034 5.77189 28.5048C5.78542 28.5048 7.16287 28.586 7.40778 28.6631C7.47408 28.6847 7.54715 28.7023 7.61886 28.7213C7.79341 28.7659 7.99231 28.816 8.01532 28.8972C8.03155 28.954 8.01532 29.0217 8.00178 29.0812C7.98419 29.1597 7.96525 29.2395 8.03561 29.2747C8.13574 29.3248 9.34405 29.299 9.53755 29.2787C9.7784 29.253 9.92859 29.2625 9.98407 29.3883C10.045 29.5277 10.0152 29.8944 10.0017 29.9648C9.9976 29.9864 10.0111 30.0067 10.0328 30.0108L10.0314 30.0094Z" fill="white"/>
<path d="M14.2022 17.0955C14.1819 17.1009 14.1697 17.1226 14.1751 17.1442C14.1805 17.1632 14.7258 19.0846 14.849 19.8531C14.9721 20.623 15.1128 21.6027 15.1142 21.6122C15.1169 21.6311 15.1331 21.646 15.1534 21.646C15.1548 21.646 15.1575 21.646 15.1588 21.646C15.1805 21.6433 15.1953 21.623 15.1926 21.6013C15.1913 21.5919 15.0519 20.6122 14.9274 19.841C14.8029 19.0683 14.2577 17.1415 14.2509 17.1226C14.2455 17.1023 14.2238 17.0901 14.2022 17.0955Z" fill="white"/>
<path d="M13.4113 17.1686C13.3897 17.1686 13.3721 17.1862 13.3721 17.2078C13.3721 17.5867 13.6616 18.6529 13.6738 18.6976C13.6792 18.7152 13.6941 18.726 13.7117 18.726C13.7144 18.726 13.7185 18.726 13.7225 18.7246C13.7428 18.7192 13.7563 18.6976 13.7496 18.6759C13.7469 18.6651 13.4506 17.5745 13.4506 17.2065C13.4506 17.1848 13.433 17.1672 13.4113 17.1672V17.1686Z" fill="white"/>
<path d="M12.7119 25.5862C12.6321 23.1222 12.5306 19.5933 12.4156 17.1672C12.4034 20.6772 12.5414 24.1844 12.605 27.6943L12.6118 29.7997C12.6037 31.027 12.4616 32.7535 12.3926 34.0024C12.7295 31.2151 12.8242 28.3939 12.7119 25.5862Z" fill="white"/>
<path d="M14.3302 30.5439C14.3302 30.2868 14.0041 21.8299 13.9906 21.47C13.9906 21.4484 13.9744 21.4335 13.95 21.4321C13.9283 21.4321 13.9121 21.4511 13.9121 21.4727C13.9148 21.5607 14.2517 30.2868 14.2517 30.5439C14.2517 30.8009 14.1908 32.7521 14.1719 33.1215C14.1516 33.4977 14.1719 35.4245 14.1719 35.4434C14.1719 35.4651 14.1895 35.4827 14.2111 35.4827C14.2328 35.4827 14.2504 35.4651 14.2504 35.4434C14.2504 35.4245 14.2301 33.5004 14.2504 33.1269C14.2707 32.744 14.3302 30.8145 14.3302 30.5452V30.5439Z" fill="white"/>
<path d="M13.8627 17.2742C14.1793 19.2172 14.6921 21.9978 15.0439 23.9625C15.1427 24.5213 15.2577 25.0707 15.2888 25.6336C15.4147 27.3263 15.4796 29.0217 15.5716 30.7172C15.5716 29.0177 15.5459 27.3195 15.4309 25.6228C15.4039 25.0545 15.2915 24.4902 15.1968 23.9341C14.7855 21.7069 14.3511 19.4851 13.8613 17.2742H13.8627Z" fill="white"/>
<path d="M11.907 17.5825C11.9043 17.6069 11.6134 20.0005 11.5728 21.4253C11.5633 21.7771 11.5552 22.1276 11.5471 22.4686C11.5227 23.5091 11.4997 24.4914 11.4402 25.2018C11.3319 26.5008 10.677 30.5898 10.6703 30.6304C10.6676 30.6521 10.6811 30.6724 10.7027 30.6751C10.7054 30.6751 10.7068 30.6751 10.7095 30.6751C10.7284 30.6751 10.7447 30.6616 10.7487 30.6426C10.7555 30.602 11.4104 26.5103 11.5187 25.2072C11.5782 24.4942 11.6012 23.5105 11.6255 22.4686C11.6337 22.1276 11.6418 21.7785 11.6513 21.4267C11.6905 20.0059 11.9814 17.615 11.9841 17.592C11.9868 17.5704 11.9719 17.5514 11.9503 17.5487C11.9286 17.5447 11.9097 17.5609 11.907 17.5825Z" fill="white"/>
<path d="M10.0928 28.5753C10.2673 27.9122 10.4513 27.1721 10.6124 26.5023C10.8234 25.3332 10.8708 24.129 10.906 22.9491C11.0359 21.0561 11.2145 19.1645 11.3254 17.2688C11.0873 19.155 10.8965 21.0426 10.749 22.9396C10.7274 24.1276 10.68 25.3089 10.5149 26.482C10.3742 27.1559 10.22 27.9041 10.0928 28.5766V28.5753Z" fill="white"/>
<path d="M10.3646 18.5028C10.3537 18.5393 9.23203 22.1507 8.60014 25.0829C8.47024 25.685 8.22668 27.2235 8.22398 27.2397C8.22127 27.2614 8.2348 27.2817 8.25645 27.2844C8.2578 27.2844 8.26051 27.2844 8.26322 27.2844C8.28216 27.2844 8.2984 27.2708 8.30246 27.2519C8.30516 27.237 8.54872 25.6999 8.67862 25.1005C9.30916 22.1724 10.4295 18.5637 10.4403 18.5272C10.4471 18.5069 10.4349 18.4852 10.4146 18.4784C10.3943 18.4717 10.3727 18.4839 10.3659 18.5042L10.3646 18.5028Z" fill="white"/>
<path d="M11.4521 17.1145C10.7349 17.0576 10.1328 16.9562 9.74447 16.8777L9.58887 17.0049C9.58887 17.0049 11.3682 17.1889 11.812 17.2281C13.0663 17.3391 14.87 17.2092 14.87 17.2092L14.8078 16.944C14.598 16.9792 14.1907 17.0455 13.9512 17.0604C13.3654 17.0969 12.1246 17.1686 11.4521 17.1158V17.1145Z" fill="white"/>
<path d="M8.24418 5.42101C8.03987 5.87565 8.2293 6.34111 8.27936 6.50077C8.32943 6.66044 8.5148 6.82416 8.5148 6.82416L8.63523 6.77139C8.63523 6.77139 9.10881 6.67126 9.41461 6.51836C9.72176 6.36546 10.2806 5.88512 10.2806 5.88512C10.2806 5.88512 10.3212 6.47777 10.4673 6.70509C10.6135 6.93241 10.6608 7.07855 10.6608 7.07855L14.9731 5.19233C14.9731 5.19233 15.1531 4.93254 15.0935 4.01649C15.0678 3.62004 14.9136 2.92455 14.9136 2.92455C14.9136 2.92455 15.0746 2.34542 15.0949 2.08698C15.1152 1.82854 15.1138 1.54439 14.9731 1.2237C14.8338 0.904375 14.5036 0.583694 14.5036 0.583694C14.5036 0.583694 14.4197 0.283309 14.1261 0.129056C13.8406 -0.0211372 13.574 -0.0630845 13.2533 0.127702C13.0179 0.267071 12.9029 0.551221 12.9029 0.551221C12.9029 0.551221 12.8528 0.284657 12.6932 0.191293C12.5335 0.0979298 12.1303 -0.0251959 11.539 0.0789924C10.8286 0.203477 10.3807 0.786661 10.2481 1.09381C10.1142 1.40097 10.0086 2.31836 10.0221 2.61198C10.0357 2.9056 9.98562 3.02332 9.84489 3.1221C9.70553 3.22223 9.18323 3.35889 9.10204 3.69175C9.02762 3.99619 9.11152 4.23163 9.10475 4.35206C9.08446 4.72145 8.37273 5.13686 8.24554 5.42236L8.24418 5.42101Z" fill="#343434"/>
<path d="M12.6797 1.40643C12.3794 1.40643 11.5661 1.17505 11.6284 2.48214C11.6974 3.9516 12.0763 4.59432 12.9044 4.7797C13.5904 4.9326 13.9083 4.72422 14.2317 3.45637C14.4388 2.64722 14.3576 2.11275 14.0518 1.59857C13.8786 1.30766 12.9382 1.40508 12.6784 1.40508L12.6797 1.40643Z" fill="white"/>
<path d="M11.9385 2.34007C11.9385 2.41855 12.1441 2.43209 12.3958 2.44697C12.6962 2.46591 12.9452 2.51462 12.9384 2.4375C12.9235 2.28189 12.6489 2.198 12.3958 2.198C12.1428 2.198 11.9385 2.26159 11.9385 2.34007Z" fill="#343434"/>
<path d="M13.6573 2.18312C13.3475 2.20748 13.2744 2.35361 13.2744 2.43209C13.2744 2.51057 13.5085 2.41044 13.7913 2.38744C14.043 2.36579 14.1242 2.36849 14.1242 2.29001C14.1242 2.21154 13.9077 2.16418 13.656 2.18312H13.6573Z" fill="#343434"/>
<path d="M13.2966 3.32368C13.2019 3.3548 13.0598 3.36292 13.0585 3.36292C13.026 3.36427 13.0016 3.39269 13.003 3.42516C13.0043 3.45628 13.03 3.48064 13.0612 3.48064C13.0612 3.48064 13.0625 3.48064 13.0639 3.48064C13.0706 3.48064 13.2222 3.47252 13.3331 3.43464C13.4657 3.38998 13.5185 3.28309 13.4779 3.14102C13.4495 3.04359 13.3629 2.9624 13.3061 2.90828C13.2898 2.8934 13.2695 2.87445 13.2668 2.87445C13.2614 2.84874 13.2641 2.6999 13.2695 2.57812C13.2709 2.54565 13.2452 2.51859 13.2141 2.51723C13.1775 2.51317 13.1545 2.54159 13.1532 2.57272C13.1478 2.70397 13.1437 2.87039 13.1559 2.90828C13.1654 2.93534 13.1884 2.95699 13.2276 2.99353C13.275 3.03818 13.348 3.10719 13.367 3.17214C13.39 3.25332 13.3697 3.29932 13.298 3.32233L13.2966 3.32368Z" fill="#343434"/>
<path d="M13.4716 0.414528C13.228 0.451061 12.8952 0.728449 12.8803 0.739274C12.864 0.752805 12.8613 0.77851 12.8749 0.794747C12.883 0.804219 12.8938 0.808275 12.9046 0.808275C12.9141 0.808275 12.9222 0.805567 12.9304 0.798802C12.9331 0.796096 13.2605 0.524128 13.4824 0.490301C13.7097 0.456473 13.8166 0.455119 14.0778 0.514655C14.3322 0.572838 14.6177 0.762268 14.6204 0.764975C14.638 0.777152 14.6623 0.771746 14.6745 0.754156C14.6867 0.736566 14.6813 0.712207 14.6637 0.700029C14.6515 0.69191 14.3633 0.499772 14.0954 0.438882C13.8234 0.37664 13.7057 0.377993 13.4716 0.413173V0.414528Z" fill="white"/>
<path d="M15.7577 6.85115C15.7969 6.78079 15.801 6.58188 15.7265 6.38162C15.6751 6.2436 15.3314 5.8052 15.3314 5.8052C15.3314 5.8052 15.5709 5.53865 15.6318 5.37222C15.6914 5.20579 15.6251 4.97846 15.4722 4.85262C15.3193 4.72543 15.1528 4.8824 15.1528 4.8824C15.1528 4.8824 14.9607 3.18561 14.8633 2.92446C14.7658 2.66332 14.3369 2.18433 14.3369 2.18433C14.3369 2.18433 14.391 2.46441 14.3978 2.74045C14.4032 2.99889 14.2841 3.37369 14.2841 3.37369C14.2841 3.37369 14.2327 3.3331 14.0541 3.3331C13.8755 3.3331 13.8092 3.4427 13.8092 3.4427C13.8092 3.4427 13.7077 3.37911 13.4709 3.40211C13.268 3.42241 13.111 3.46706 13.111 3.46706C13.111 3.46706 12.8593 3.3791 12.7633 3.3791C12.4913 3.3791 12.383 3.49277 12.383 3.49277C12.3695 3.49547 12.1111 3.3534 11.7755 3.55095C11.6064 3.64972 11.4305 3.8378 11.3736 4.1233C11.3236 4.37498 11.4061 4.50217 11.3263 4.85262C11.2464 5.20308 11.0759 5.28291 10.9163 5.4331C10.7566 5.58329 10.7566 5.78355 10.7363 6.00275C10.716 6.22331 10.7864 6.45198 10.7959 6.60217C10.8053 6.75237 10.7458 6.98646 10.6619 7.07847C10.5997 7.14747 10.3358 7.26113 10.3358 7.26113C10.3358 7.26113 10.1613 7.12853 10.0259 7.14612C9.83922 7.17048 9.74856 7.29091 9.74044 7.41133C9.6985 8.04458 10.2803 7.98098 10.2803 7.98098C10.2803 7.98098 10.2614 8.09329 10.3047 8.1853C10.3913 8.36661 10.5293 8.35578 10.7052 8.35984C10.8798 8.36526 11.0056 8.25024 11.0056 8.25024V8.43968C11.0056 8.53034 11.0651 8.69947 11.283 8.72653C11.6064 8.76713 11.9176 8.31113 11.9176 8.31113C11.9176 8.31113 11.8702 8.71842 11.9095 8.90785C11.95 9.09729 12.13 9.25289 12.3411 9.2583C12.5508 9.26371 12.6428 9.05263 12.5874 8.94303C12.5319 8.83343 12.3303 8.79825 12.3303 8.79825C12.3303 8.79825 12.3533 8.65076 12.4006 8.54387C12.4548 8.42209 12.6009 8.30437 12.6009 8.30437C12.6009 8.30437 12.5644 8.45456 12.6239 8.67647C12.747 9.13382 12.9365 9.15952 13.111 9.18929C13.3126 9.22312 13.6387 9.09593 13.4615 8.7996C13.4114 8.71571 13.2368 8.72924 13.2368 8.72924L13.4263 8.47486C13.4263 8.47486 13.6563 8.77525 13.9513 8.85508C14.1177 8.89973 14.2706 8.83478 14.3856 8.7103C14.5006 8.58581 14.4005 8.35984 14.2909 8.30978C14.1813 8.25971 14.0961 8.30978 14.0961 8.30978L14.0555 8.08922C14.0555 8.08922 14.3626 8.18936 14.5088 8.22319C14.6549 8.25701 14.7956 8.21642 14.9282 8.07029C15.0622 7.92415 14.9282 7.67653 14.9282 7.67653C14.9282 7.67653 15.2354 7.69412 15.3341 7.67653C15.4234 7.66029 15.4938 7.617 15.5939 7.4235C15.6941 7.23001 15.5533 7.02976 15.5533 7.02976C15.5533 7.02976 15.7103 6.93774 15.7604 6.84979L15.7577 6.85115Z" fill="#343434"/>
<path d="M10.198 7.54808C10.1006 7.56296 10.0316 7.48584 10.0221 7.46554C10.0126 7.44524 9.98962 7.43713 9.97067 7.44525C9.95038 7.45472 9.94226 7.47771 9.95038 7.49666C9.97203 7.54537 10.06 7.62791 10.1736 7.62791C10.1858 7.62791 10.198 7.62791 10.2102 7.6252C10.2535 7.61844 10.3698 7.57109 10.3928 7.42766C10.401 7.37218 10.4077 7.2734 10.3495 7.22334C10.3333 7.20981 10.3089 7.21116 10.2941 7.22739C10.2805 7.24363 10.2819 7.26934 10.2995 7.28288C10.3198 7.29911 10.3265 7.35188 10.3157 7.41412C10.2981 7.52508 10.1993 7.54673 10.1993 7.54673L10.198 7.54808Z" fill="white"/>
<path d="M10.6958 7.85797C10.6795 7.84444 10.6552 7.84443 10.6403 7.86067C10.6254 7.8769 10.6268 7.90126 10.643 7.91615C10.6714 7.94186 10.7201 7.93238 10.7404 7.92832C10.7959 7.91479 10.8392 7.87961 10.8554 7.83631C10.8744 7.78625 10.8676 7.66177 10.8487 7.62794C10.7648 7.47098 10.5699 7.50346 10.509 7.52781C10.459 7.54675 10.3764 7.57922 10.3074 7.73348C10.2871 7.77948 10.279 7.82008 10.2695 7.87149C10.2641 7.89856 10.2587 7.92968 10.2492 7.96892C10.2438 7.99057 10.2574 8.01086 10.2777 8.01628C10.2804 8.01628 10.2844 8.01628 10.2871 8.01628C10.3047 8.01628 10.321 8.0041 10.325 7.98651C10.3345 7.94727 10.3413 7.91479 10.3467 7.88638C10.3561 7.83631 10.3629 7.80249 10.3791 7.7646C10.4346 7.63876 10.4942 7.61711 10.5375 7.59952C10.5388 7.59952 10.7134 7.53864 10.7797 7.66312C10.7878 7.68206 10.7932 7.77813 10.7824 7.8079C10.7675 7.84714 10.7052 7.85932 10.6958 7.85661V7.85797Z" fill="white"/>
<path d="M13.2921 4.34533C13.445 4.2858 13.6723 4.27227 13.6723 4.25197C13.6723 4.23167 13.6723 3.99218 13.5925 3.90829C13.5126 3.82439 13.4585 3.74997 13.3259 3.73103C13.192 3.71209 13.0363 3.65796 13.0363 3.65796C13.0363 3.65796 12.6994 3.70397 12.6331 3.79192C12.5668 3.87852 12.4004 4.16537 12.4004 4.16537C12.4004 4.16537 12.6006 4.3115 12.6805 4.38592C12.7603 4.45899 12.763 4.51312 12.763 4.51312C12.763 4.51312 12.855 4.47252 12.9281 4.47252C13.0012 4.47252 13.1541 4.55236 13.1541 4.55236C13.1541 4.55236 13.1405 4.40622 13.2934 4.34533H13.2921Z" fill="white"/>
<path d="M13.3789 3.95015C13.3221 3.91091 13.249 3.90956 13.18 3.9082C13.1299 3.9082 13.0799 3.9082 13.0298 3.9082C12.9797 3.9082 12.9283 3.9082 12.8796 3.91632C12.7903 3.93121 12.7253 3.97721 12.6509 4.02592C12.6266 4.04081 12.6022 4.07193 12.6036 4.08546C12.6063 4.1274 12.6577 4.12199 12.6902 4.12064C12.9567 4.1044 13.1786 4.11658 13.4263 4.09493C13.4438 4.09358 13.4641 4.08681 13.4682 4.06922C13.4709 4.05704 13.4641 4.04622 13.4574 4.03675C13.4344 4.00427 13.4114 3.9718 13.3789 3.94879V3.95015Z" fill="white"/>
<path d="M12.3466 4.29783C12.3818 4.25453 12.4129 4.21799 12.4332 4.18416C12.4576 4.14222 12.4792 4.08809 12.5022 4.02991C12.5388 3.93925 12.5793 3.83777 12.6267 3.80259C12.6632 3.77553 12.7485 3.76606 12.8229 3.75794C12.8743 3.75253 12.9284 3.74711 12.9731 3.73494C13.1043 3.69975 13.1314 3.56175 13.1314 3.55498C13.1355 3.53333 13.1206 3.51303 13.1003 3.50897C13.0786 3.50491 13.0583 3.51979 13.0543 3.54009C13.0543 3.54009 13.0353 3.63616 12.9528 3.65781C12.9149 3.66863 12.8662 3.6727 12.8148 3.67811C12.7255 3.68758 12.6335 3.69705 12.5793 3.73764C12.5144 3.78636 12.4711 3.8946 12.4292 3.99879C12.4075 4.05427 12.3859 4.10568 12.3656 4.14222C12.3493 4.17063 12.3196 4.20446 12.2857 4.24505C12.1964 4.35195 12.0733 4.49944 12.0138 4.71187C11.9677 4.8756 11.9786 5.09615 11.988 5.29099C11.9962 5.44795 12.0029 5.59545 11.9799 5.6861C11.9529 5.7957 11.8216 5.94454 11.6822 6.10285C11.5672 6.2341 11.4495 6.36941 11.371 6.50202C11.2574 6.69415 11.2195 6.866 11.1789 7.04732C11.1559 7.1488 11.1329 7.25434 11.095 7.36935C11.0003 7.6535 10.8501 7.65215 10.8433 7.65215C10.8176 7.65215 10.8041 7.66839 10.8027 7.68868C10.8027 7.71033 10.8176 7.72927 10.8393 7.72927C10.8393 7.72927 10.8406 7.72927 10.8433 7.72927C10.8731 7.72927 11.0612 7.71574 11.1694 7.39235C11.2087 7.27463 11.233 7.16639 11.256 7.0622C11.2953 6.8863 11.3318 6.72122 11.4387 6.53991C11.5131 6.41407 11.6295 6.28146 11.7418 6.15291C11.8866 5.98784 12.0232 5.83088 12.0557 5.70369C12.0814 5.6022 12.0733 5.44796 12.0665 5.28558C12.0571 5.0975 12.0476 4.88236 12.0895 4.73217C12.1437 4.53597 12.26 4.3966 12.3453 4.29512L12.3466 4.29783Z" fill="white"/>
<path d="M12.7279 5.19486C12.7482 5.17862 12.7685 5.16373 12.7861 5.1475C12.9485 5.00948 12.8402 4.5792 12.7956 4.4926C12.6752 4.26258 12.4411 4.16244 12.4302 4.15838C12.4099 4.15027 12.3869 4.15839 12.3788 4.17868C12.3707 4.19898 12.3788 4.22198 12.3991 4.2301C12.4018 4.2301 12.6183 4.32481 12.7252 4.52913C12.7645 4.6049 12.8524 4.98783 12.7347 5.08796C12.7171 5.10284 12.6982 5.11773 12.6792 5.13261C12.529 5.25033 12.3234 5.41271 12.3599 5.77804C12.3639 5.8254 12.3694 5.87005 12.3748 5.91471C12.4099 6.23674 12.4357 6.46947 12.2503 6.75092C12.1705 6.87134 12.0663 6.96199 11.9661 7.04859C11.7943 7.19743 11.617 7.35033 11.567 7.65207C11.5304 7.87128 11.4804 8.05259 11.4465 8.16084C11.4168 8.10401 11.3681 8.04447 11.2855 8.03094C11.1827 8.01335 11.1015 8.02824 11.0447 8.07695C10.9662 8.14325 10.9648 8.24473 10.9648 8.24879C10.9648 8.27044 10.9824 8.28803 11.0041 8.28803C11.0257 8.28803 11.0433 8.27044 11.0433 8.24879C11.0433 8.24879 11.0447 8.17843 11.0961 8.13513C11.1353 8.10266 11.1949 8.09318 11.2733 8.10671C11.3829 8.12566 11.4087 8.28532 11.41 8.28803C11.4127 8.30562 11.4276 8.31915 11.4452 8.3205C11.4452 8.3205 11.4479 8.3205 11.4493 8.3205C11.4655 8.3205 11.4804 8.31103 11.4858 8.29479C11.4898 8.28397 11.5859 8.02824 11.6468 7.6629C11.6928 7.38958 11.8511 7.25156 12.0203 7.10543C12.1244 7.01477 12.2327 6.92141 12.3193 6.79151C12.5209 6.48571 12.4925 6.22862 12.4573 5.90252C12.4519 5.85923 12.4478 5.81322 12.4424 5.76722C12.4113 5.44383 12.5886 5.3031 12.732 5.1908L12.7279 5.19486Z" fill="white"/>
<path d="M13.2474 5.18017C13.3368 4.7783 13.1906 4.54016 13.1839 4.53069C13.173 4.5131 13.1487 4.50769 13.1297 4.51851C13.1108 4.53069 13.1054 4.55369 13.1176 4.57263C13.1189 4.57534 13.2529 4.79454 13.1703 5.16258C13.1663 5.18017 13.1487 5.214 13.127 5.2573C13.0418 5.42238 12.8632 5.76741 12.8632 6.36413C12.8632 6.46832 12.8875 6.55086 12.9173 6.64693C12.9606 6.789 13.0093 6.95137 12.9958 7.25311C12.9809 7.55485 12.5668 8.27876 12.5628 8.28688C12.552 8.30582 12.5587 8.33018 12.5777 8.34101C12.5844 8.34506 12.5898 8.34641 12.5966 8.34641C12.6101 8.34641 12.6237 8.33965 12.6304 8.32612C12.648 8.29635 13.058 7.57786 13.0743 7.25718C13.0891 6.9419 13.0364 6.766 12.9931 6.62528C12.966 6.53598 12.943 6.45885 12.943 6.36548C12.943 5.78771 13.1148 5.45485 13.1974 5.29519C13.2244 5.24377 13.242 5.20994 13.2474 5.18153V5.18017Z" fill="white"/>
<path d="M14.2098 7.08399C14.245 7.33026 14.4966 7.64959 14.5075 7.66312C14.5156 7.67395 14.5305 7.67936 14.544 7.67665C14.5575 7.67394 14.5697 7.66447 14.5751 7.65094C14.5751 7.64824 14.6076 7.5684 14.7578 7.58329C14.8376 7.59141 14.889 7.69424 14.8904 7.69424C14.8972 7.70777 14.9107 7.7159 14.9256 7.7159C14.931 7.7159 14.9378 7.71589 14.9432 7.71183C14.9621 7.70236 14.9702 7.67936 14.9608 7.65906C14.9581 7.65365 14.889 7.51564 14.7659 7.50346C14.6401 7.49128 14.5724 7.53187 14.5372 7.5684C14.4682 7.47504 14.3126 7.24637 14.2883 7.07047C14.2463 6.77549 14.2964 6.6713 14.3397 6.57929C14.3857 6.48187 14.429 6.38986 14.3546 6.13277C14.3045 5.96228 14.1178 5.76337 13.9662 5.60235C13.9378 5.57259 13.9108 5.54283 13.8864 5.51712C13.7985 5.42105 13.816 5.29791 13.8418 5.11389C13.8539 5.02864 13.8675 4.93258 13.8715 4.82298C13.885 4.50636 13.7484 4.2885 13.7119 4.23709C13.7119 4.19514 13.7105 4.06389 13.6713 3.96782C13.6266 3.85552 13.5752 3.80004 13.4521 3.72968C13.337 3.66337 13.0786 3.62007 13.0678 3.61737C13.0475 3.61331 13.0258 3.62819 13.0231 3.64984C13.0191 3.67149 13.034 3.69179 13.0556 3.69449C13.0583 3.69449 13.3113 3.7378 13.4142 3.79733C13.5211 3.85957 13.5617 3.90287 13.5995 3.99759C13.6388 4.09501 13.6334 4.24656 13.6334 4.24791C13.6334 4.25739 13.6361 4.2655 13.6415 4.27362C13.6428 4.27633 13.8066 4.49282 13.793 4.82027C13.789 4.92581 13.7754 5.02053 13.7633 5.10442C13.7362 5.29656 13.7159 5.4481 13.8282 5.57124C13.8526 5.5983 13.8796 5.62672 13.9081 5.65784C14.0447 5.80397 14.2328 6.00423 14.2774 6.15577C14.3451 6.38445 14.3113 6.45616 14.268 6.54682C14.222 6.64424 14.1651 6.76466 14.2098 7.08264V7.08399Z" fill="white"/>
<path d="M13.765 7.57374C13.9152 7.85653 14.014 8.1028 14.0153 8.1055C14.0221 8.12039 14.0356 8.12987 14.0519 8.12987C14.0573 8.12987 14.0613 8.12986 14.0667 8.12716C14.087 8.11904 14.0965 8.09603 14.0884 8.07574C14.0884 8.07303 13.9856 7.82407 13.834 7.53721C13.6892 7.26388 13.6825 7.08392 13.7961 6.61981C13.9125 6.14622 13.7907 5.96085 13.6189 5.6997C13.493 5.50892 13.3239 5.38984 13.2427 5.33301C13.2251 5.32083 13.2116 5.31137 13.2048 5.30596C13.1967 5.29378 13.1818 5.28566 13.1683 5.28701C13.1466 5.28837 13.1304 5.30866 13.1331 5.32896C13.1358 5.35196 13.1493 5.36279 13.1981 5.39661C13.2752 5.45074 13.4362 5.56439 13.5566 5.74706C13.7204 5.99603 13.8286 6.15975 13.7204 6.60086C13.6013 7.08256 13.6108 7.28147 13.765 7.57374Z" fill="white"/>
<path d="M13.0325 7.01763C13.0109 7.01898 12.9947 7.03928 12.9974 7.05957C13.0001 7.08393 13.0515 7.64276 13.1746 7.91879C13.2937 8.18671 13.3844 8.48304 13.3844 8.48574C13.3898 8.50198 13.4046 8.51415 13.4222 8.51415C13.4263 8.51415 13.4304 8.51415 13.4331 8.5128C13.4534 8.50603 13.4655 8.48438 13.4588 8.46409C13.4588 8.46138 13.3668 8.16099 13.245 7.88767C13.1273 7.62381 13.0745 7.05822 13.0731 7.05281C13.0718 7.03116 13.0528 7.01492 13.0312 7.01763H13.0325Z" fill="white"/>
<path d="M14.5058 4.61319C14.6371 5.23696 15.0511 5.32221 15.1323 5.33439C15.1499 5.3371 15.1675 5.3371 15.1851 5.3371C15.2771 5.3371 15.3651 5.31003 15.3691 5.30868C15.3894 5.30191 15.4016 5.28027 15.3948 5.25997C15.3881 5.23967 15.3664 5.2275 15.3461 5.23426C15.3461 5.23426 15.2325 5.26809 15.1432 5.25591C15.0714 5.24644 14.7034 5.16931 14.583 4.59695C14.5532 4.45758 14.5857 4.30198 14.6154 4.15043C14.6384 4.03542 14.6601 3.92717 14.6574 3.82434C14.6506 3.57402 14.3164 3.35076 14.3029 3.34128C14.2853 3.32911 14.2609 3.33452 14.2488 3.35211C14.2366 3.3697 14.242 3.39405 14.2596 3.40623C14.2623 3.40894 14.5735 3.61596 14.5789 3.82704C14.5816 3.9204 14.5613 4.0246 14.5383 4.13555C14.5058 4.29521 14.4734 4.46029 14.5058 4.61454V4.61319Z" fill="white"/>
<path d="M14.7001 5.97292C14.7001 5.9851 14.696 6.00404 14.6906 6.02434C14.6676 6.12176 14.6297 6.28277 14.8219 6.45732C14.876 6.50738 14.9179 6.54392 14.9491 6.57234C15.0438 6.65758 15.0478 6.66029 15.0735 6.69817C15.0966 6.73065 15.129 6.87543 15.1453 6.96744C15.148 6.98638 15.1656 6.99991 15.1831 6.99991C15.1859 6.99991 15.1872 6.99991 15.1899 6.99991C15.2116 6.99585 15.2251 6.97555 15.2224 6.95526C15.2156 6.91602 15.1791 6.71441 15.1385 6.65487C15.1074 6.61022 15.0979 6.60075 15.0018 6.5155C14.9707 6.48709 14.9301 6.45056 14.8746 6.40049C14.7177 6.25706 14.7461 6.13393 14.7677 6.04327C14.7745 6.01756 14.7786 5.99457 14.7786 5.97292C14.7786 5.96209 14.7799 5.94721 14.7813 5.92826C14.7921 5.80513 14.8151 5.54939 14.6203 5.33154C14.4159 5.10287 14.2346 4.84985 14.1602 4.68748C14.1304 4.62253 14.144 4.52916 14.1602 4.41956C14.1792 4.29372 14.2035 4.13677 14.1629 3.96763C14.0858 3.65101 13.8395 3.47239 13.8287 3.46427C13.8111 3.4521 13.7868 3.45616 13.7746 3.47375C13.7624 3.49134 13.7665 3.5157 13.784 3.52787C13.7868 3.52923 14.0181 3.69701 14.0871 3.98522C14.1237 4.13812 14.102 4.28155 14.0831 4.40739C14.0655 4.52781 14.0493 4.63335 14.0898 4.71995C14.167 4.88773 14.3523 5.14888 14.5621 5.38296C14.7339 5.5751 14.7136 5.80919 14.7028 5.92014C14.7014 5.94179 14.7001 5.95938 14.7001 5.97156V5.97292Z" fill="white"/>
<path d="M15.3213 6.99998C15.4444 6.99998 15.5269 7.06087 15.5269 7.06222C15.5445 7.07576 15.5689 7.0717 15.5811 7.05546C15.5946 7.03787 15.5905 7.01351 15.5743 7.00133C15.5702 6.99863 15.4715 6.92285 15.3199 6.92285C15.2293 6.92285 15.1467 6.96344 15.0994 7.03245C15.0574 7.09334 15.0222 7.207 15.0939 7.39508C15.0994 7.41132 15.1142 7.42079 15.1305 7.42079C15.1345 7.42079 15.14 7.42079 15.144 7.41809C15.1643 7.40997 15.1738 7.38832 15.167 7.36802C15.1197 7.24354 15.1197 7.14341 15.1643 7.07711C15.1968 7.02975 15.255 7.00133 15.3199 7.00133L15.3213 6.99998Z" fill="white"/>
<path d="M14.9762 5.74985C14.8396 5.68084 14.7503 5.51306 14.7381 5.48329C14.73 5.463 14.707 5.45352 14.6867 5.46164C14.6664 5.46976 14.6569 5.49276 14.665 5.51306C14.6826 5.55771 14.7814 5.73903 14.9397 5.82021C15.0073 5.85404 15.0858 5.86486 15.1562 5.86486C15.2536 5.86486 15.3348 5.84457 15.3402 5.84321C15.3619 5.8378 15.374 5.81615 15.3686 5.79586C15.3632 5.77421 15.3416 5.76203 15.3213 5.76744C15.3186 5.76744 15.1102 5.81886 14.9749 5.7512L14.9762 5.74985Z" fill="white"/>
<path d="M11.2655 1.19119C11.2858 1.19525 11.3075 1.18037 11.3115 1.16007C11.3156 1.13842 11.3007 1.11812 11.2804 1.11406C11.2682 1.11136 10.9692 1.05994 10.7459 1.2602C10.5687 1.41987 10.4915 1.69049 10.52 2.06394C10.5673 2.69313 10.5484 2.94886 10.52 3.21812C10.4794 3.59428 10.1614 3.74719 9.97466 3.80402C9.76493 3.86897 9.53626 4.05299 9.51461 4.24648C9.50785 4.30061 9.50785 4.37096 9.50649 4.44538C9.50379 4.61317 9.50108 4.8229 9.43478 4.91356C9.34277 5.03939 9.21152 5.1084 9.08433 5.17335C8.97202 5.23153 8.86513 5.28701 8.79206 5.37767C8.48897 5.75518 8.55121 6.62522 8.55391 6.66175C8.55527 6.68205 8.57286 6.69829 8.59315 6.69829C8.59315 6.69829 8.59451 6.69829 8.59586 6.69829C8.61751 6.69693 8.63375 6.67799 8.63239 6.65634C8.63239 6.64822 8.57015 5.78224 8.8543 5.42773C8.91654 5.34925 9.01667 5.29784 9.12086 5.24371C9.2494 5.17741 9.39554 5.10163 9.49837 4.95956C9.57956 4.8486 9.58227 4.63482 9.58497 4.44538C9.58497 4.37232 9.58633 4.30466 9.59309 4.25325C9.61068 4.09223 9.8177 3.93256 9.99902 3.87708C10.1641 3.82566 10.5524 3.66059 10.5984 3.22354C10.6282 2.95022 10.6458 2.69042 10.5984 2.05582C10.5727 1.70808 10.639 1.4591 10.7973 1.31703C10.9908 1.14248 11.2628 1.18848 11.2655 1.18984V1.19119Z" fill="white"/>
<path d="M12.0936 7.9188C12.0368 8.00539 11.8866 8.28277 11.8798 8.2936C11.869 8.31254 11.8771 8.3369 11.8961 8.34637C11.9015 8.34908 11.9083 8.35043 11.915 8.35043C11.9286 8.35043 11.9421 8.34366 11.9489 8.33013C11.9502 8.32743 12.1045 8.04328 12.1586 7.96074C12.2912 7.76048 12.3467 7.44656 12.367 7.27742C12.394 7.05822 12.3575 6.7619 12.3548 6.74972C12.3521 6.72807 12.3345 6.71319 12.3115 6.71589C12.2898 6.7186 12.275 6.7389 12.2777 6.75919C12.2777 6.7619 12.3155 7.05823 12.2898 7.26796C12.2695 7.43033 12.2181 7.73071 12.0936 7.91744V7.9188Z" fill="white"/>
<path d="M12.3538 3.55645C12.3741 3.54969 12.385 3.52804 12.3782 3.50639C12.3714 3.48609 12.3498 3.47392 12.3281 3.48204C12.3105 3.48745 11.8843 3.63088 11.707 3.97456C11.5907 4.19918 11.6191 4.55098 11.6313 4.70117V4.72553C11.6407 4.81754 11.6421 4.99344 11.5731 5.14228C11.5217 5.25459 11.2876 5.38313 11.1888 5.43726L11.1523 5.45756C10.7869 5.66729 10.7612 5.94738 10.7369 6.21935C10.7328 6.26671 10.7288 6.31406 10.722 6.36007C10.7193 6.38172 10.7342 6.40066 10.7558 6.40337C10.7572 6.40337 10.7585 6.40337 10.7612 6.40337C10.7802 6.40337 10.7978 6.38849 10.8005 6.36954C10.8072 6.32218 10.8113 6.27347 10.8154 6.22611C10.8384 5.96361 10.8614 5.71465 11.1915 5.52521L11.2267 5.50627C11.3417 5.44267 11.5812 5.31007 11.6448 5.17476C11.7206 5.00968 11.7192 4.81889 11.7111 4.71877V4.69441C11.6976 4.55098 11.6705 4.21542 11.7774 4.0111C11.9398 3.69583 12.3498 3.55781 12.3538 3.55645Z" fill="white"/>
<path d="M10.865 4.08809C11.0165 3.75928 10.9922 3.58744 10.9908 3.58068C10.9881 3.55903 10.9678 3.54549 10.9462 3.54819C10.9245 3.5509 10.9096 3.5712 10.9137 3.59285C10.9137 3.5942 10.934 3.75116 10.7933 4.0556L10.7865 4.0705C10.7256 4.20175 10.6133 4.4453 10.6431 4.68751C10.6701 4.90535 10.6485 5.07178 10.5808 5.15838C10.5551 5.19085 10.5199 5.22874 10.482 5.26798C10.4198 5.33428 10.3562 5.40194 10.3224 5.46418C10.225 5.64685 10.2371 5.87823 10.2385 5.8877C10.2398 5.908 10.2574 5.92423 10.2777 5.92423C10.2777 5.92423 10.2791 5.92423 10.2804 5.92423C10.3021 5.92423 10.3183 5.90393 10.317 5.88228C10.317 5.87958 10.3048 5.66309 10.3927 5.49936C10.4212 5.44659 10.4807 5.383 10.5402 5.32075C10.5781 5.28016 10.6147 5.24092 10.6431 5.20574C10.7243 5.10155 10.7513 4.91888 10.7215 4.67668C10.6945 4.45612 10.8 4.2261 10.8582 4.10297L10.865 4.08809Z" fill="white"/>
<path d="M8.68915 6.64158C8.68915 6.64158 8.76899 6.82695 8.77305 7.13817C8.7744 7.25453 8.68915 7.58739 8.68915 7.58739C8.68915 7.58739 8.57414 7.5265 8.44424 7.53598C8.31435 7.54545 8.16551 7.65369 8.15062 7.76735C8.09109 8.25176 8.56873 8.22876 8.67833 8.22335C8.78793 8.21794 9.0829 8.03798 9.14244 7.81607C9.17491 7.69158 9.22363 7.42096 9.21821 7.11381C9.21415 6.85537 9.22363 6.53198 9.22363 6.53198L8.68915 6.64158Z" fill="#343434"/>
<path d="M11.8 0.769049C12.122 0.626974 12.4454 0.605324 12.7106 0.709513C12.9298 0.794758 13.053 1.1858 13.0543 1.18986C13.0611 1.21016 13.0827 1.22233 13.103 1.21557C13.1233 1.2088 13.1355 1.18716 13.1287 1.16686C13.1233 1.14927 12.9934 0.736579 12.7391 0.637803C12.4535 0.526849 12.1099 0.548492 11.7675 0.698686C11.2615 0.920593 11.0531 1.52949 11.026 2.02472C10.999 2.51049 11.3197 3.93394 11.3332 3.99483C11.3372 4.01242 11.3535 4.02595 11.3711 4.02595C11.3738 4.02595 11.3765 4.02595 11.3792 4.02595C11.4008 4.02054 11.413 4.00023 11.409 3.97859C11.4063 3.9637 11.0775 2.50507 11.1032 2.03013C11.1289 1.5579 11.3251 0.980134 11.7987 0.771758L11.8 0.769049Z" fill="white"/>
<path d="M11.7915 3.58356C11.8104 3.57274 11.8172 3.54838 11.8064 3.53079C11.7955 3.51185 11.7712 3.50508 11.7536 3.51591C11.6508 3.57409 11.4058 3.74864 11.3328 4.11533C11.3098 4.23169 11.3138 4.32235 11.3179 4.41842C11.3233 4.53479 11.3287 4.65521 11.2854 4.84329C11.2232 5.11527 11.1041 5.21675 10.9769 5.32364C10.9471 5.34935 10.916 5.37506 10.8863 5.40348C10.732 5.54826 10.7158 5.73498 10.6995 5.93253L10.6941 5.99749C10.6806 6.15309 10.6995 6.29923 10.7171 6.42913C10.7252 6.4846 10.732 6.53602 10.7347 6.58067C10.7442 6.73357 10.7022 6.97306 10.6319 7.05019C10.5845 7.10161 10.3897 7.19362 10.3193 7.22339C10.299 7.23151 10.2909 7.25451 10.299 7.27481C10.3058 7.28969 10.3193 7.29781 10.3355 7.29781C10.341 7.29781 10.3464 7.29781 10.3504 7.2951C10.3788 7.28292 10.6238 7.17603 10.6901 7.10161C10.7848 6.99607 10.8227 6.72275 10.8132 6.57391C10.8105 6.52655 10.8037 6.47377 10.7956 6.41694C10.7794 6.29246 10.7604 6.15038 10.7726 6.0029L10.778 5.9366C10.7942 5.74716 10.8078 5.58209 10.9404 5.4576C10.9688 5.43054 10.9986 5.40483 11.0283 5.38048C11.1582 5.26952 11.2935 5.15586 11.3625 4.85818C11.4085 4.65927 11.4018 4.52802 11.3964 4.41166C11.3923 4.321 11.3883 4.23576 11.4099 4.12751C11.4776 3.79194 11.7008 3.63363 11.7928 3.58086L11.7915 3.58356Z" fill="white"/>
<path d="M12.1656 1.22631C12.1656 1.22631 11.8558 1.49151 11.7665 1.61329C11.6771 1.73507 11.6582 2.03276 11.6582 2.03276L12.5052 1.97457C12.5052 1.97457 13.0113 2.23572 13.0221 2.23572C13.0329 2.23572 13.6418 1.93262 13.6418 1.93262L14.2819 1.97457L13.9138 1.23578C13.9138 1.23578 13.5566 1.17896 13.0614 1.17896C12.4295 1.17896 12.1656 1.22496 12.1656 1.22496V1.22631Z" fill="#343434"/>
<path d="M13.0102 1.17907C12.8695 1.18042 12.5772 1.18989 12.5772 1.18989L12.4121 1.57687L13.0345 2.05993L13.6245 1.585L13.4459 1.18989C13.4459 1.18989 13.205 1.17636 13.0088 1.17907H13.0102Z" fill="white"/>
<path d="M12.7607 1.49556L13.0354 1.73911L13.3155 1.50909L13.2086 1.18164H12.869L12.7607 1.49556Z" fill="white"/>
<path d="M14.321 1.9665C14.3169 1.94486 14.2953 1.93133 14.275 1.93674C14.2534 1.9408 14.2398 1.96109 14.2439 1.98274C14.2452 1.98951 14.2804 2.15594 14.3873 2.33726C14.4252 2.40085 14.4983 2.48475 14.5754 2.57405C14.7134 2.73236 14.8852 2.92856 14.8852 3.05169C14.8852 3.07334 14.9028 3.09093 14.9245 3.09093C14.9461 3.09093 14.9637 3.07334 14.9637 3.05169C14.9637 2.90014 14.7892 2.69989 14.6349 2.52263C14.5592 2.43739 14.4888 2.3562 14.455 2.29801C14.3548 2.12752 14.321 1.96921 14.321 1.96786V1.9665Z" fill="white"/>
<path d="M12.4188 1.0437C12.4364 1.03017 12.4391 1.00581 12.4256 0.988222C12.412 0.970632 12.3877 0.967927 12.3701 0.981458C12.3444 1.0004 11.7504 1.45774 11.6678 1.71348C11.6002 1.9205 11.611 2.27907 11.6164 2.49286C11.6164 2.54022 11.6191 2.58081 11.6191 2.61058C11.6191 2.77295 11.7287 3.52257 11.7328 3.55505C11.7355 3.57399 11.7517 3.58887 11.772 3.58887C11.7734 3.58887 11.7761 3.58887 11.7774 3.58887C11.7991 3.58617 11.814 3.56587 11.8099 3.54422C11.8099 3.5361 11.6976 2.76754 11.6976 2.61194C11.6976 2.58217 11.6976 2.54022 11.6949 2.49151C11.6895 2.28178 11.6787 1.93268 11.7423 1.73783C11.818 1.5051 12.412 1.04776 12.4174 1.0437H12.4188Z" fill="white"/>
<path d="M13.6245 1.89753C13.4107 2.00442 13.0914 2.16138 13.0224 2.19385C12.9601 2.16408 12.6922 2.02741 12.5231 1.94082C12.5163 1.93811 12.5082 1.93541 12.5028 1.93676L11.6558 1.99494C11.6341 1.9963 11.6179 2.01524 11.6192 2.03689C11.6206 2.05719 11.6382 2.07343 11.6585 2.07343C11.6585 2.07343 11.6598 2.07343 11.6612 2.07343L12.4974 2.01659C13.0021 2.27774 13.0102 2.27774 13.0224 2.27774C13.0346 2.27774 13.0413 2.27774 13.6502 1.97464L14.2794 2.01524C14.2929 2.01524 14.3065 2.00983 14.3146 1.99765C14.3227 1.98547 14.3227 1.97059 14.3173 1.95841L13.8775 1.0992C13.8681 1.08025 13.8451 1.07213 13.8248 1.08161C13.8058 1.09108 13.7977 1.11543 13.8072 1.13438L14.2158 1.9327L13.6448 1.89482C13.638 1.89482 13.6313 1.89481 13.6245 1.89887V1.89753Z" fill="white"/>
<path d="M11.0868 2.9394C11.0868 2.9394 11.0137 3.42381 10.8784 3.6376C10.827 3.72014 10.7147 3.78102 10.5956 3.84732C10.4089 3.95016 10.1978 4.06652 10.1342 4.30196C10.0869 4.47922 10.0788 4.63077 10.072 4.77825C10.0639 4.93927 10.0571 5.09217 9.99487 5.26537C9.95021 5.38985 9.74996 5.62529 9.58894 5.81337C9.48475 5.93651 9.39409 6.04204 9.34809 6.1124C9.14648 6.42497 9.14377 6.86878 9.14242 7.25982C9.14242 7.45061 9.14106 7.63193 9.114 7.76047C9.10994 7.78212 9.12347 7.80242 9.14377 7.80648C9.14648 7.80648 9.14918 7.80648 9.15189 7.80648C9.16948 7.80648 9.18572 7.79431 9.18977 7.77536C9.21819 7.6387 9.21954 7.45468 9.2209 7.25848C9.22225 6.87826 9.22496 6.44662 9.41439 6.15299C9.45633 6.08805 9.5497 5.97845 9.64847 5.86344C9.82167 5.66047 10.0179 5.43044 10.0679 5.29107C10.1342 5.10705 10.141 4.94875 10.1491 4.78096C10.1559 4.63889 10.1626 4.4914 10.2087 4.32226C10.2641 4.11795 10.4509 4.01511 10.6322 3.91633C10.7607 3.84597 10.8811 3.77967 10.9434 3.6809C11.0855 3.45358 11.1585 2.97323 11.1626 2.95293C11.1653 2.93128 11.1518 2.91098 11.1301 2.90828C11.1071 2.90557 11.0882 2.92045 11.0855 2.94075L11.0868 2.9394Z" fill="white"/>
<path d="M13.1577 8.71991C13.0955 8.74968 13.017 8.81598 12.9913 8.88905C12.9845 8.90935 12.9953 8.93235 13.0156 8.93911C13.0197 8.94047 13.0237 8.94182 13.0278 8.94182C13.044 8.94182 13.0589 8.931 13.0643 8.91476C13.0792 8.87146 13.1333 8.81869 13.1902 8.79028C13.2335 8.76863 13.3336 8.74292 13.3958 8.79569C13.4121 8.80922 13.4364 8.80786 13.4513 8.79162C13.4662 8.77539 13.4635 8.75103 13.4473 8.73615C13.3553 8.65496 13.2213 8.68744 13.1563 8.71856L13.1577 8.71991Z" fill="white"/>
<path d="M12.1787 8.84827C12.2207 8.82526 12.3127 8.8415 12.3614 8.85638C12.3817 8.86315 12.4033 8.85097 12.4101 8.83067C12.4169 8.81038 12.4047 8.78872 12.3844 8.78196C12.3681 8.77654 12.2247 8.73325 12.1395 8.77926C12.0664 8.8185 12.0664 8.88209 12.0664 8.92404C12.0664 9.02823 12.1787 9.07152 12.2382 9.07152C12.2599 9.07152 12.2775 9.05393 12.2775 9.03228C12.2775 9.01063 12.2599 8.99305 12.2382 8.99305C12.2166 8.99305 12.1449 8.97681 12.1449 8.92268C12.1449 8.88209 12.1449 8.86315 12.1774 8.84691L12.1787 8.84827Z" fill="white"/>
<path d="M13.8996 8.41536C13.8618 8.5209 13.8848 8.61291 13.9646 8.66838C14.0065 8.6968 14.0593 8.71168 14.1094 8.71168C14.1554 8.71168 14.1973 8.6995 14.2257 8.67515C14.2636 8.64267 14.2772 8.58585 14.2609 8.52631C14.246 8.47219 14.2122 8.43565 14.1716 8.42753C14.1486 8.42347 14.1297 8.43836 14.1256 8.45866C14.1215 8.48031 14.1364 8.5006 14.1567 8.50466C14.1621 8.50466 14.177 8.51954 14.1838 8.5466C14.1906 8.57096 14.1892 8.60073 14.173 8.61426C14.1432 8.63997 14.0607 8.63997 14.0079 8.60208C13.9578 8.56826 13.9456 8.51142 13.9714 8.43971C13.9957 8.37206 14.0972 8.3477 14.0985 8.3477C14.1188 8.34229 14.1324 8.32199 14.1283 8.30169L14.0877 8.11226C14.0837 8.09061 14.0634 8.07708 14.0417 8.08249C14.0201 8.08655 14.0065 8.1082 14.0119 8.1285L14.0444 8.2841C13.9998 8.30169 13.9253 8.33958 13.8983 8.41536H13.8996Z" fill="white"/>
<path d="M8.44702 7.57519C8.56068 7.56572 8.67028 7.6212 8.67163 7.62256C8.69058 7.63203 8.71358 7.62526 8.72441 7.60632C8.73388 7.58738 8.72711 7.56302 8.70817 7.55355C8.70276 7.55084 8.58098 7.48724 8.44161 7.49806C8.30089 7.50889 8.1304 7.62526 8.11281 7.76327C8.09386 7.91617 8.12498 8.03795 8.20482 8.12455C8.31983 8.24903 8.50385 8.26528 8.6148 8.26528C8.64187 8.26528 8.66487 8.26527 8.68111 8.26392C8.811 8.25851 9.11816 8.06501 9.1804 7.82687C9.18581 7.80657 9.17363 7.78492 9.15198 7.77951C9.13033 7.7741 9.11004 7.78628 9.10463 7.80793C9.05185 8.00954 8.77041 8.18273 8.67705 8.18679C8.60398 8.1895 8.37937 8.20032 8.26165 8.07178C8.19805 8.00412 8.1737 7.90265 8.18993 7.7741C8.20076 7.68344 8.32795 7.58737 8.44702 7.5779V7.57519Z" fill="white"/>
<path d="M8.70792 7.93922C8.69168 7.94328 8.54961 7.94869 8.47654 7.86209C8.46301 7.84585 8.4373 7.84315 8.42106 7.85804C8.40483 7.87157 8.40212 7.89727 8.417 7.91351C8.48872 7.99875 8.60508 8.02041 8.67815 8.02041C8.70657 8.02041 8.72822 8.01635 8.73769 8.01229C8.81211 7.97711 8.86353 7.89998 8.86488 7.81879C8.86758 7.73761 8.82158 7.65642 8.74987 7.61718C8.73092 7.60636 8.70657 7.61312 8.69709 7.63342C8.68627 7.65236 8.69439 7.67672 8.71333 7.68619C8.75934 7.71055 8.79046 7.76467 8.78775 7.81609C8.7864 7.86751 8.75257 7.91892 8.70927 7.93922H8.70792Z" fill="white"/>
<path d="M13.5176 2.7932C13.5149 2.89604 13.5921 2.98263 13.6908 2.98534C13.7896 2.98804 13.8722 2.90685 13.8749 2.80402C13.8776 2.70118 13.8004 2.61459 13.7017 2.61188C13.6029 2.60918 13.5204 2.69037 13.5176 2.7932Z" fill="#343434"/>
<path d="M12.2169 2.85814C12.2142 2.96098 12.2913 3.04757 12.3901 3.05028C12.4888 3.05299 12.5714 2.9718 12.5741 2.86897C12.5768 2.76613 12.4997 2.67953 12.4009 2.67682C12.3021 2.67412 12.2196 2.75531 12.2169 2.85814Z" fill="#343434"/>
<path d="M12.0114 2.76071C11.9911 2.7553 11.9695 2.76884 11.9641 2.79049C11.9587 2.81214 11.9722 2.83243 11.9939 2.83784L12.2739 2.90415C12.2739 2.90415 12.2794 2.90415 12.2834 2.90415C12.301 2.90415 12.3172 2.89197 12.3213 2.87438C12.3267 2.85273 12.3132 2.83244 12.2915 2.82702L12.0114 2.76071Z" fill="#343434"/>
<path d="M12.0127 2.96649C11.9924 2.9719 11.9802 2.99355 11.9857 3.0152C11.9911 3.03279 12.006 3.04361 12.0235 3.04361C12.0276 3.04361 12.0303 3.04361 12.0344 3.04226L12.3131 2.96378C12.3334 2.95837 12.3456 2.93672 12.3402 2.91507C12.3348 2.89477 12.3131 2.88259 12.2915 2.888L12.0127 2.96649Z" fill="#343434"/>
<path d="M13.7585 2.75951C13.7369 2.76357 13.7233 2.78521 13.7287 2.80551C13.7328 2.82445 13.749 2.83664 13.7666 2.83664C13.7693 2.83664 13.772 2.83664 13.7747 2.83664L14.0196 2.78522C14.0413 2.78116 14.0548 2.75951 14.0494 2.73921C14.0454 2.71756 14.0251 2.70403 14.0034 2.70945L13.7585 2.76086V2.75951Z" fill="#343434"/>
<path d="M13.7791 2.82707C13.7575 2.82031 13.7358 2.83249 13.7304 2.85278C13.7236 2.87308 13.7358 2.89473 13.7561 2.90149L13.9618 2.96373C13.9618 2.96373 13.9699 2.96508 13.9726 2.96508C13.9888 2.96508 14.0051 2.95426 14.0105 2.93667C14.0173 2.91638 14.0051 2.89472 13.9848 2.88796L13.7791 2.82572V2.82707Z" fill="#343434"/>
<path d="M12.4258 2.85677C12.4258 2.88924 12.4515 2.91495 12.484 2.91495C12.5164 2.91495 12.5421 2.88924 12.5421 2.85677C12.5421 2.82429 12.5164 2.79858 12.484 2.79858C12.4515 2.79858 12.4258 2.82429 12.4258 2.85677Z" fill="white"/>
<path d="M13.708 2.78377C13.708 2.81624 13.7337 2.84195 13.7662 2.84195C13.7987 2.84195 13.8244 2.81624 13.8244 2.78377C13.8244 2.75129 13.7987 2.72559 13.7662 2.72559C13.7337 2.72559 13.708 2.75129 13.708 2.78377Z" fill="white"/>
<path d="M12.5769 3.98259C12.5594 3.99477 12.5526 4.01777 12.5648 4.03672C12.5729 4.04889 12.5851 4.05565 12.5986 4.05565C12.6027 4.05565 12.6067 4.05566 12.6108 4.05431C12.6635 4.04619 13.1818 4.05159 13.4984 4.05565C13.5201 4.05565 13.5376 4.03807 13.5376 4.01777C13.5376 3.99612 13.5201 3.97853 13.4998 3.97853C12.6081 3.96499 12.5905 3.97718 12.5783 3.98394L12.5769 3.98259Z" fill="#343434"/>
<path d="M4.63574 16.9576L5.44489 19.6164C5.44489 19.6164 5.99831 19.2862 6.2148 19.1672C6.72086 18.8871 7.2851 18.6774 7.2851 18.6774L6.90488 16.0537C6.90488 16.0537 6.37447 16.0537 5.58561 16.3081C5.31229 16.396 4.63574 16.9576 4.63574 16.9576Z" fill="white"/>
<path d="M5.92909 20.1142L6.01298 20.3334C6.01298 20.3334 6.23083 20.0587 6.6354 19.7787C7.03457 19.5026 7.21723 19.4323 7.21723 19.4323L7.2037 19.366C7.2037 19.366 6.78154 19.5405 6.45273 19.7394C6.31878 19.8206 5.92773 20.1129 5.92773 20.1129L5.92909 20.1142Z" fill="white"/>
<path d="M5.99759 19.1941L7.26544 18.5554L5.35352 19.3213L5.41846 19.5351L5.99759 19.1941Z" fill="white"/>
<path d="M4.63574 16.9575L4.68039 17.1049C4.68039 17.1049 5.39483 16.5542 5.79534 16.4162C6.19586 16.2782 6.91571 16.1267 6.91571 16.1267L6.90488 16.0522L5.63162 16.3256L4.63574 16.9575Z" fill="white"/>
<path d="M5.38493 15.7681C5.025 15.9007 4.27539 16.4284 4.27539 16.4284C4.27539 16.4284 4.48918 17.0278 4.50136 17.0549C4.51354 17.082 4.63531 16.9588 4.63531 16.9588C4.63531 16.9588 5.34704 16.5056 5.63119 16.3757C5.91534 16.2458 6.98699 16.0536 6.98699 16.0536C6.98699 16.0536 6.97346 15.4285 6.92069 15.4217C6.86792 15.415 6.32127 15.4217 5.38493 15.7681Z" fill="#343434"/>
<path d="M5.35352 19.5745L5.69991 20.2943C5.69991 20.2943 6.21273 19.8817 6.45358 19.7409C6.69308 19.6016 7.41969 19.2673 7.41969 19.2673L7.35339 18.5137C7.35339 18.5137 6.63354 18.8533 6.39404 18.9737C6.15455 19.0941 5.35487 19.5731 5.35487 19.5731L5.35352 19.5745Z" fill="#343434"/>
<path d="M5.13462 17.9385C5.12921 17.9169 5.10756 17.9047 5.08726 17.9101C5.06696 17.9155 5.05343 17.9371 5.05885 17.9574L5.16709 18.3837C5.1698 18.3945 5.17656 18.404 5.18739 18.4094C5.19821 18.4148 5.20904 18.4148 5.21986 18.4094L5.53919 18.2795C5.55814 18.2714 5.56896 18.2497 5.56084 18.2294L5.31052 17.5272C5.30646 17.5163 5.29834 17.5082 5.28752 17.5042C5.27669 17.5001 5.26452 17.5015 5.25504 17.5069L4.85859 17.7247C4.84235 17.7342 4.83423 17.7531 4.83964 17.7707L5.16439 18.837C5.16709 18.8478 5.17521 18.8573 5.18604 18.8613C5.19145 18.864 5.19686 18.864 5.20227 18.864C5.20769 18.864 5.2131 18.864 5.21851 18.86L5.78952 18.5907C5.80711 18.5826 5.81523 18.5636 5.81117 18.5447L5.44177 17.1564C5.43907 17.1442 5.42959 17.1348 5.41877 17.1307C5.40794 17.1266 5.39441 17.1266 5.38359 17.1334L4.7544 17.5069C4.73546 17.5177 4.73004 17.542 4.74087 17.561C4.75169 17.5799 4.77605 17.5853 4.79499 17.5745L5.38088 17.2281L5.72863 18.5339L5.22798 18.7693L4.92624 17.7775L5.25504 17.5975L5.47695 18.2213L5.23339 18.3201L5.13733 17.9385H5.13462Z" fill="#343434"/>
<path d="M6.48598 17.9816C6.49951 17.9884 6.51845 17.987 6.53063 17.9776C6.53063 17.9776 6.53333 17.9762 6.53469 17.9749C6.5861 17.9627 6.76201 17.9397 6.91897 17.9221C6.92979 17.9221 6.93926 17.9153 6.94603 17.9059C6.95279 17.8964 6.9555 17.8856 6.95279 17.8747L6.77148 16.9357C6.77013 16.9249 6.76336 16.9154 6.75389 16.91C6.74442 16.9046 6.73359 16.9032 6.72277 16.9059L6.07328 17.0953C6.05299 17.1008 6.04081 17.1211 6.04622 17.1414C6.10982 17.4106 6.3209 18.2928 6.35473 18.3443C6.37232 18.3713 6.40479 18.42 7.15846 18.1494C7.17605 18.1426 7.18688 18.1251 7.18417 18.1061L6.92438 16.6624C6.92303 16.6515 6.91626 16.6421 6.90543 16.6353C6.89596 16.6299 6.88379 16.6285 6.87296 16.6312L5.76342 16.9857C5.74313 16.9925 5.7323 17.0142 5.73771 17.0345L6.13011 18.4038C6.13552 18.4214 6.15041 18.4322 6.168 18.4322C6.17206 18.4322 6.17476 18.4322 6.17882 18.4309C6.19912 18.4254 6.2113 18.4038 6.20588 18.3821L5.82296 17.0493L6.85402 16.7205L7.10028 18.0872C6.80937 18.19 6.49274 18.2888 6.41561 18.2901C6.37908 18.1846 6.22753 17.5676 6.13146 17.1589L6.70382 16.9925L6.8689 17.8477C6.69435 17.868 6.59558 17.8801 6.54145 17.8923C6.52927 17.8125 6.49003 17.6501 6.39532 17.3037L6.63888 17.2631C6.66052 17.2591 6.67406 17.2388 6.67135 17.2185C6.66864 17.1968 6.64699 17.1819 6.6267 17.186L6.34119 17.2334C6.33037 17.2347 6.3209 17.2415 6.31413 17.251C6.30872 17.2604 6.30601 17.2712 6.31007 17.2821C6.38314 17.5486 6.46027 17.849 6.47109 17.9248C6.46974 17.9289 6.46839 17.9316 6.46839 17.9356C6.46568 17.9532 6.47515 17.9722 6.49003 17.9789L6.48598 17.9816Z" fill="#343434"/>
<path d="M7.59466 22.0627C7.68532 22.1655 7.94511 22.0045 7.94511 22.0045V21.5999L7.83957 20.7285L7.36328 21.6324C7.36328 21.6324 7.504 21.9598 7.59466 22.0627Z" fill="white"/>
<path d="M7.15109 21.0276C7.18763 21.3374 7.38788 21.5228 7.42442 21.5756L11.5202 13.798L10.9668 13.5071L7.20251 20.6338C7.20251 20.6338 7.12132 20.7813 7.15109 21.0276Z" fill="#343434"/>
<path d="M5.88055 23.1653L0 34.3297L0.553416 34.6206L6.37037 23.5766C6.35413 23.5712 6.1417 23.4251 6.05645 23.3304C6.00774 23.2762 5.8819 23.1666 5.88055 23.1653Z" fill="#343434"/>
<path d="M14.5688 11.0592C14.5688 11.0592 14.2888 11.1661 13.9478 11.3799C13.7786 11.4868 13.3646 11.7574 13.3646 11.7574L13.6636 12.0348C13.6636 12.0348 13.6785 12.8223 13.2915 13.2702C13.0953 13.4975 12.7638 13.488 12.5852 13.4555C12.4066 13.4231 12.0683 13.2066 12.0683 13.2066L13.0561 10.5937L13.5824 10.7169L13.6176 9.13916L12.3444 10.0633L12.7435 10.4287L11.1482 12.7222C11.1482 12.7222 10.7788 12.5638 10.6503 12.4367C10.5217 12.3081 10.3269 12.0402 10.4027 11.7493C10.5529 11.1769 11.2105 10.7439 11.2105 10.7439L11.6259 10.8508C11.6259 10.8508 11.6164 10.3556 11.6069 10.1553C11.5907 9.75347 11.5203 9.4612 11.5203 9.4612L10.5272 10.204L10.7842 10.4517C10.7842 10.4517 10.289 10.748 10.0779 11.0064C9.86684 11.2649 9.65035 11.8251 9.68418 12.0754C9.718 12.3271 9.85467 12.9346 10.3174 13.2404C10.6449 13.4582 11.7449 14.0374 12.1103 14.1849C12.6245 14.3919 13.2036 14.1618 13.4295 14.0468C13.6555 13.9318 13.9951 13.4366 14.0885 13.1173C14.1819 12.7979 14.1467 12.2215 14.1467 12.2215L14.5201 12.2986L14.5702 11.0592H14.5688Z" fill="#343434"/>
<path d="M6.70839 21.4902C6.69215 21.5051 6.6908 21.5295 6.70568 21.5457L7.62578 22.5822C7.6339 22.5903 7.64473 22.5957 7.65555 22.5957C7.66502 22.5957 7.67449 22.593 7.68126 22.5862C7.6975 22.5713 7.69885 22.547 7.68397 22.5307L6.76386 21.4943C6.75033 21.478 6.72462 21.4767 6.70839 21.4916V21.4902Z" fill="#343434"/>
<path d="M6.35914 21.9989C6.34426 22.0152 6.34561 22.0395 6.3605 22.0544L7.35502 22.9907C7.36314 22.9975 7.37261 23.0016 7.38208 23.0016C7.39291 23.0016 7.40238 22.9975 7.4105 22.9894C7.42538 22.9731 7.42403 22.9488 7.40914 22.9339L6.41462 21.9976C6.39838 21.9827 6.37403 21.984 6.35914 21.9989Z" fill="#343434"/>
<path d="M6.1995 22.5577C6.18732 22.5401 6.16297 22.5361 6.14538 22.5483C6.12779 22.5604 6.12373 22.5848 6.13591 22.6024C6.14808 22.62 6.43494 23.0367 6.6379 23.1856C6.83816 23.3317 7.0736 23.4602 7.07631 23.4616C7.08172 23.4643 7.08848 23.4657 7.09525 23.4657C7.10878 23.4657 7.12231 23.4589 7.12908 23.4454C7.1399 23.4264 7.13178 23.4021 7.11284 23.3926C7.11013 23.3926 6.88011 23.2654 6.68391 23.122C6.49177 22.9812 6.20221 22.5618 6.1995 22.5577Z" fill="#343434"/>
<path d="M7.4248 21.6256C7.41668 21.6256 7.40857 21.6242 7.4018 21.6201C7.37744 21.6066 7.36797 21.5769 7.38015 21.5511L11.3826 13.921L10.9198 13.6775L7.25025 20.6567C7.23672 20.6811 7.20695 20.6906 7.18125 20.6784C7.15689 20.6649 7.14742 20.6351 7.1596 20.6094L10.8535 13.5855C10.8603 13.5733 10.8711 13.5652 10.8833 13.5611C10.8968 13.5571 10.9104 13.5584 10.9226 13.5652L11.476 13.8561C11.5003 13.8696 11.5098 13.8994 11.4976 13.9251L7.47216 21.5999C7.46269 21.6174 7.4451 21.6269 7.42751 21.6269L7.4248 21.6256Z" fill="white"/>
<path d="M13.4279 14.0982C13.4089 14.0982 13.3913 14.0874 13.3819 14.0698C13.3697 14.0441 13.3792 14.0144 13.4049 14.0022C13.6092 13.8993 13.9461 13.4203 14.0381 13.1037C14.1274 12.7952 14.095 12.231 14.0936 12.2242C14.0936 12.208 14.099 12.1931 14.1112 12.1823C14.1234 12.1714 14.1396 12.1674 14.1545 12.1714L14.4698 12.2364L14.5144 11.1363C14.4102 11.1823 14.2059 11.277 13.9745 11.4232C13.8433 11.5057 13.5632 11.6884 13.4455 11.7655L13.6971 11.9996C13.7066 12.0091 13.7134 12.0226 13.7134 12.0361C13.7134 12.0686 13.7242 12.848 13.3291 13.3053C13.0923 13.58 12.6918 13.5286 12.5754 13.5069C12.3901 13.4718 12.0545 13.2593 12.0396 13.2512C12.0193 13.2377 12.0112 13.2133 12.0193 13.1903L13.0071 10.5775C13.0165 10.5531 13.0409 10.5396 13.0666 10.5464L13.5321 10.6546L13.5632 9.24199L12.4225 10.0701L12.7757 10.3921C12.7946 10.4097 12.7973 10.4381 12.7824 10.4584L11.1872 12.7519C11.1736 12.7722 11.1479 12.779 11.1263 12.7695C11.1114 12.7627 10.746 12.6071 10.6121 12.4732C10.5282 12.3893 10.2589 12.0875 10.3509 11.7371C10.5052 11.1526 11.1533 10.7209 11.1804 10.702C11.1926 10.6939 11.2074 10.6912 11.221 10.6952L11.5714 10.7845C11.5687 10.6424 11.5606 10.3123 11.5538 10.1567C11.543 9.88336 11.5065 9.6601 11.4848 9.54915L10.6026 10.2081L10.8164 10.4151C10.8367 10.4341 10.8367 10.4665 10.8164 10.4868C10.7975 10.5071 10.765 10.5071 10.7447 10.4882L10.4876 10.2406C10.4768 10.2297 10.4714 10.2162 10.4727 10.2013C10.4727 10.1865 10.4808 10.1729 10.493 10.1634L11.4862 9.42195C11.4997 9.41113 11.5173 9.40978 11.5335 9.41519C11.5498 9.4206 11.562 9.43413 11.566 9.45036C11.5687 9.46254 11.6377 9.75075 11.654 10.154C11.6621 10.3542 11.6729 10.8508 11.6729 10.8508C11.6729 10.8671 11.6661 10.8819 11.654 10.8914C11.6418 10.9009 11.6256 10.9049 11.6093 10.9009L11.2169 10.8008C11.1114 10.8752 10.5783 11.2703 10.4484 11.7642C10.3699 12.0618 10.608 12.3284 10.6824 12.4028C10.7799 12.4989 11.0315 12.618 11.1276 12.6613L12.6742 10.4395L12.3075 10.1053C12.2967 10.0944 12.2899 10.0796 12.2913 10.0647C12.2913 10.0498 12.2994 10.0349 12.3116 10.0268L13.5848 9.10263C13.5997 9.0918 13.6214 9.08909 13.6376 9.09856C13.6552 9.10803 13.6647 9.12563 13.6647 9.14457L13.6295 10.7223C13.6295 10.7372 13.6214 10.752 13.6092 10.7615C13.597 10.771 13.5821 10.775 13.5659 10.771L13.0828 10.6587L12.1248 13.1917C12.2142 13.2458 12.455 13.3865 12.589 13.4122C12.6931 13.4312 13.0463 13.4772 13.2479 13.2444C13.5821 12.8561 13.6065 12.1917 13.6078 12.0645L13.325 11.802C13.3142 11.7912 13.3075 11.7763 13.3088 11.7601C13.3088 11.7439 13.3183 11.7303 13.3318 11.7222C13.3318 11.7222 13.7459 11.4502 13.9163 11.3433C14.2573 11.1296 14.5347 11.0227 14.5455 11.0186C14.5618 11.0132 14.5794 11.0145 14.5929 11.0254C14.6064 11.0348 14.6145 11.0511 14.6145 11.0687L14.5645 12.3081C14.5645 12.323 14.5564 12.3365 14.5455 12.346C14.5334 12.3555 14.5185 12.3582 14.5036 12.3555L14.1937 12.2919C14.2005 12.4542 14.2073 12.8764 14.1315 13.1389C14.0395 13.4555 13.6985 13.9724 13.4468 14.0996C13.4401 14.1037 13.4319 14.105 13.4238 14.105L13.4279 14.0982Z" fill="white"/>
<path d="M12.5623 14.3188C12.408 14.3188 12.247 14.2945 12.0901 14.2322C11.7301 14.0875 10.2932 13.415 10.0049 13.0185C9.98871 12.9955 9.99277 12.9644 10.0158 12.9482C10.0388 12.9319 10.0699 12.9373 10.0861 12.959C10.3432 13.3121 11.7234 13.9752 12.1266 14.1389C12.6475 14.3486 13.2361 14.0875 13.4039 14.0036C13.4283 13.9914 13.4594 14.0009 13.4716 14.0266C13.4838 14.0509 13.4743 14.082 13.4486 14.0942C13.32 14.1592 12.9615 14.3202 12.5596 14.3202L12.5623 14.3188Z" fill="white"/>
</svg>
