<svg width="21" height="20" viewBox="0 0 21 20" fill="none" xmlns="http://www.w3.org/2000/svg">
<path d="M2.91797 2.50063C2.91797 2.26727 2.99853 2.07004 3.15966 1.90891C3.32078 1.74779 3.51802 1.66722 3.75137 1.66722H13.7522L17.9192 5.83424V17.5019C17.9192 17.7241 17.8386 17.9186 17.6775 18.0852C17.5164 18.2519 17.3192 18.3353 17.0858 18.3353H3.75137C3.51802 18.3353 3.32078 18.2547 3.15966 18.0936C2.99853 17.9325 2.91797 17.7352 2.91797 17.5019V2.50063ZM4.58477 3.33403V16.6685H16.2524V6.66764H13.7522V11.668H8.75178V13.3349H7.08498V6.66764H12.9188V3.33403H4.58477ZM8.75178 8.33444V10.0012H12.0854V8.33444H8.75178Z" fill="#FB923C"/>
</svg>
