<svg width="19" height="18" viewBox="0 0 19 18" fill="none" xmlns="http://www.w3.org/2000/svg">
<path d="M5.625 6.375V4.875C5.625 4.195 5.7925 3.5675 6.1275 2.9925C6.4625 2.4175 6.9175 1.9625 7.4925 1.6275C8.0675 1.2925 8.695 1.125 9.375 1.125C10.055 1.125 10.6825 1.2925 11.2575 1.6275C11.8325 1.9625 12.2875 2.4175 12.6225 2.9925C12.9575 3.5675 13.125 4.195 13.125 4.875V6.375H15.375C15.585 6.375 15.7625 6.4475 15.9075 6.5925C16.0525 6.7375 16.125 6.915 16.125 7.125V16.125C16.125 16.335 16.0525 16.5125 15.9075 16.6575C15.7625 16.8025 15.585 16.875 15.375 16.875H3.375C3.165 16.875 2.9875 16.8025 2.8425 16.6575C2.6975 16.5125 2.625 16.335 2.625 16.125V7.125C2.625 6.915 2.6975 6.7375 2.8425 6.5925C2.9875 6.4475 3.165 6.375 3.375 6.375H5.625ZM5.625 7.875H4.125V15.375H14.625V7.875H13.125V9.375H11.625V7.875H7.125V9.375H5.625V7.875ZM7.125 6.375H11.625V4.875C11.625 4.465 11.525 4.0875 11.325 3.7425C11.125 3.3975 10.8525 3.125 10.5075 2.925C10.1625 2.725 9.785 2.625 9.375 2.625C8.965 2.625 8.5875 2.725 8.2425 2.925C7.8975 3.125 7.625 3.3975 7.425 3.7425C7.225 4.0875 7.125 4.465 7.125 4.875V6.375Z" fill="white"/>
</svg>
