<svg width="24" height="24" viewBox="0 0 24 24" fill="none" xmlns="http://www.w3.org/2000/svg">
<path d="M12 13.4998C11.5867 13.4998 11.2333 13.3532 10.94 13.0598C10.6467 12.7665 10.5 12.4132 10.5 11.9998C10.5 11.5865 10.6467 11.2332 10.94 10.9398C11.2333 10.6465 11.5867 10.4998 12 10.4998C12.4133 10.4998 12.7667 10.6465 13.06 10.9398C13.3533 11.2332 13.5 11.5865 13.5 11.9998C13.5 12.4132 13.3533 12.7665 13.06 13.0598C12.7667 13.3532 12.4133 13.4998 12 13.4998ZM11.48 16.4998C11.6533 16.7132 11.8267 16.9132 12 17.0998C12.1733 16.8998 12.3467 16.6998 12.52 16.4998H11.48ZM9.48 16.3598C8.68 16.2798 7.92 16.1598 7.2 15.9998C7.12 16.3465 7.06 16.6865 7.02 17.0198C6.92667 17.7665 6.93333 18.3998 7.04 18.9198C7.13333 19.3732 7.28667 19.6632 7.5 19.7898C7.71333 19.9165 8.04667 19.9065 8.5 19.7598C8.99333 19.5865 9.54 19.2732 10.14 18.8198C10.4067 18.6198 10.6733 18.3998 10.94 18.1598C10.4333 17.6132 9.94667 17.0132 9.48 16.3598ZM16.8 15.9998C16.08 16.1598 15.32 16.2798 14.52 16.3598C14.0533 17.0132 13.5667 17.6132 13.06 18.1598C13.3267 18.3998 13.5933 18.6198 13.86 18.8198C14.46 19.2732 15.0067 19.5865 15.5 19.7598C15.9533 19.9065 16.2867 19.9165 16.5 19.7898C16.7133 19.6632 16.8667 19.3732 16.96 18.9198C17.0667 18.3998 17.0733 17.7665 16.98 17.0198C16.94 16.6865 16.88 16.3465 16.8 15.9998ZM18.26 15.6198C18.5533 16.9665 18.62 18.1132 18.46 19.0598C18.2867 20.0465 17.8833 20.7232 17.25 21.0898C16.6167 21.4565 15.8333 21.4665 14.9 21.1198C13.98 20.7865 13.0133 20.1532 12 19.2198C10.9867 20.1532 10.02 20.7865 9.1 21.1198C8.16667 21.4665 7.38333 21.4565 6.75 21.0898C6.11667 20.7232 5.71333 20.0465 5.54 19.0598C5.38 18.1132 5.44667 16.9665 5.74 15.6198C4.43333 15.1932 3.40667 14.6732 2.66 14.0598C1.88667 13.4198 1.5 12.7332 1.5 11.9998C1.5 11.2665 1.88667 10.5798 2.66 9.93985C3.40667 9.32652 4.43333 8.80652 5.74 8.37985C5.44667 7.03318 5.38 5.88652 5.54 4.93985C5.71333 3.95318 6.11667 3.27652 6.75 2.90985C7.38333 2.54318 8.16667 2.53318 9.1 2.87985C10.02 3.21318 10.9867 3.84652 12 4.77985C13.0133 3.84652 13.98 3.21318 14.9 2.87985C15.8333 2.53318 16.6167 2.54318 17.25 2.90985C17.8833 3.27652 18.2867 3.95318 18.46 4.93985C18.62 5.88652 18.5533 7.03318 18.26 8.37985C19.5667 8.80652 20.5933 9.32652 21.34 9.93985C22.1133 10.5798 22.5 11.2665 22.5 11.9998C22.5 12.7332 22.1133 13.4198 21.34 14.0598C20.5933 14.6732 19.5667 15.1932 18.26 15.6198ZM10.94 5.83985C10.6733 5.59985 10.4067 5.37985 10.14 5.17985C9.54 4.72651 8.99333 4.41318 8.5 4.23985C8.04667 4.09318 7.71333 4.08318 7.5 4.20985C7.28667 4.33652 7.13333 4.62652 7.04 5.07985C6.93333 5.59985 6.92667 6.23318 7.02 6.97985C7.06 7.31318 7.12 7.65318 7.2 7.99985C7.92 7.83985 8.68 7.71985 9.48 7.63985C9.94667 6.98652 10.4333 6.38652 10.94 5.83985ZM14.52 7.63985C15.32 7.71985 16.08 7.83985 16.8 7.99985C16.88 7.65318 16.94 7.31318 16.98 6.97985C17.0733 6.23318 17.0667 5.59985 16.96 5.07985C16.8667 4.62652 16.7133 4.33652 16.5 4.20985C16.2867 4.08318 15.9533 4.09318 15.5 4.23985C15.0067 4.41318 14.46 4.72651 13.86 5.17985C13.5933 5.37985 13.3267 5.59985 13.06 5.83985C13.5667 6.38652 14.0533 6.98652 14.52 7.63985ZM12.52 7.49985C12.3467 7.29985 12.1733 7.09985 12 6.89985C11.8267 7.08652 11.6533 7.28652 11.48 7.49985H12.52ZM8.38 14.6998C8.28667 14.5532 8.19333 14.4065 8.1 14.2598L7.84 13.7998C7.74667 14.0532 7.66 14.3065 7.58 14.5598C7.83333 14.6132 8.1 14.6598 8.38 14.6998ZM10.3 14.9398C10.86 14.9798 11.4267 14.9998 12 14.9998C12.5733 14.9998 13.14 14.9798 13.7 14.9398C14.0067 14.4732 14.3033 13.9932 14.59 13.4998C14.8767 13.0065 15.1467 12.5065 15.4 11.9998C15.1467 11.4932 14.8767 10.9932 14.59 10.4998C14.3033 10.0065 14.0067 9.52652 13.7 9.05985C13.14 9.01985 12.5733 8.99985 12 8.99985C11.4267 8.99985 10.86 9.01985 10.3 9.05985C9.99333 9.52652 9.69667 10.0065 9.41 10.4998C9.12333 10.9932 8.85333 11.4932 8.6 11.9998C8.85333 12.5065 9.12333 13.0065 9.41 13.4998C9.69667 13.9932 9.99333 14.4732 10.3 14.9398ZM16.16 10.1998C16.2533 9.94652 16.34 9.69318 16.42 9.43985C16.1667 9.38652 15.9 9.33985 15.62 9.29985L16.16 10.1998ZM6.14 9.83985C5.79333 9.94652 5.46667 10.0665 5.16 10.1998C4.46667 10.4932 3.92667 10.8132 3.54 11.1598C3.18 11.4665 3 11.7465 3 11.9998C3 12.2532 3.18 12.5332 3.54 12.8398C3.92667 13.1865 4.46667 13.5065 5.16 13.7998C5.46667 13.9332 5.79333 14.0532 6.14 14.1598C6.35333 13.4532 6.62667 12.7332 6.96 11.9998C6.62667 11.2665 6.35333 10.5465 6.14 9.83985ZM7.58 9.43985C7.66 9.69318 7.74667 9.94652 7.84 10.1998L8.38 9.29985C8.1 9.33985 7.83333 9.38652 7.58 9.43985ZM17.86 14.1598C18.2067 14.0532 18.5333 13.9332 18.84 13.7998C19.5333 13.5065 20.0733 13.1865 20.46 12.8398C20.82 12.5332 21 12.2532 21 11.9998C21 11.7465 20.82 11.4665 20.46 11.1598C20.0733 10.8132 19.5333 10.4932 18.84 10.1998C18.5333 10.0665 18.2067 9.94652 17.86 9.83985C17.6467 10.5465 17.3733 11.2665 17.04 11.9998C17.3733 12.7332 17.6467 13.4532 17.86 14.1598ZM16.42 14.5598C16.34 14.3065 16.2533 14.0532 16.16 13.7998L15.62 14.6998C15.9 14.6598 16.1667 14.6132 16.42 14.5598Z" fill="url(#paint0_linear_154_4379)"/>
<defs>
<linearGradient id="paint0_linear_154_4379" x1="4.51103" y1="21.3726" x2="23.173" y2="15.1218" gradientUnits="userSpaceOnUse">
<stop stop-color="#F97316"/>
<stop offset="1" stop-color="#F97316"/>
</linearGradient>
</defs>
</svg>
