<svg width="18" height="18" viewBox="0 0 18 18" fill="none" xmlns="http://www.w3.org/2000/svg">
<path d="M4.09525 3.32998C4.76525 2.74998 5.51525 2.29997 6.34525 1.97997C7.19525 1.65997 8.08026 1.49997 9.00026 1.49997C10.0203 1.49997 10.9953 1.69497 11.9253 2.08497C12.8153 2.46498 13.6078 3.00248 14.3028 3.69748C14.9978 4.39248 15.5353 5.18498 15.9153 6.07498C16.3053 7.00498 16.5003 7.97999 16.5003 8.99999C16.5003 9.78999 16.3803 10.555 16.1403 11.295C15.9103 12.015 15.5753 12.685 15.1353 13.305L12.7503 8.99999H15.0003C15.0003 7.90998 14.7253 6.89998 14.1753 5.96998C13.6453 5.06998 12.9303 4.35498 12.0303 3.82498C11.1003 3.27498 10.0903 2.99998 9.00026 2.99998C8.21026 2.99998 7.45025 3.14998 6.72025 3.44998C6.02025 3.73998 5.39525 4.14498 4.84525 4.66498L4.09525 3.32998ZM13.9053 14.67C13.2353 15.25 12.4853 15.7 11.6553 16.02C10.8053 16.34 9.92026 16.5 9.00026 16.5C7.98026 16.5 7.00525 16.305 6.07525 15.915C5.18525 15.535 4.39275 14.9975 3.69775 14.3025C3.00275 13.6075 2.46525 12.815 2.08525 11.925C1.69524 10.995 1.50024 10.02 1.50024 8.99999C1.50024 8.20998 1.62024 7.44498 1.86024 6.70498C2.09025 5.98498 2.42525 5.31498 2.86525 4.69498L5.25025 8.99999H3.00025C3.00025 10.09 3.27525 11.1 3.82525 12.03C4.35525 12.93 5.07025 13.645 5.97025 14.175C6.90025 14.725 7.91026 15 9.00026 15C9.79026 15 10.5503 14.85 11.2803 14.55C11.9803 14.26 12.6053 13.855 13.1553 13.335L13.9053 14.67Z" fill="#FBBF24"/>
</svg>
