<svg width="19" height="18" viewBox="0 0 19 18" fill="none" xmlns="http://www.w3.org/2000/svg">
<path d="M4.12543 9.56999C4.12543 8.31999 4.35043 7.12499 4.80043 5.98499C5.24043 4.88499 5.85793 3.91749 6.65293 3.08249C7.44793 2.24749 8.35543 1.61499 9.37543 1.18499C10.3954 1.61499 11.3029 2.24749 12.0979 3.08249C12.8929 3.91749 13.5104 4.88499 13.9504 5.98499C14.4004 7.12499 14.6254 8.31999 14.6254 9.56999C14.6254 10.18 14.5704 10.78 14.4604 11.37L15.9154 12.735C15.9754 12.795 16.0129 12.8675 16.0279 12.9525C16.0429 13.0375 16.0304 13.12 15.9904 13.2L14.1154 16.62C14.0654 16.71 13.9904 16.77 13.8904 16.8C13.7904 16.83 13.6954 16.82 13.6054 16.77C13.5754 16.76 13.5454 16.74 13.5154 16.71L11.8504 15.03C11.7004 14.89 11.5204 14.82 11.3104 14.82H7.44043C7.23043 14.82 7.05043 14.89 6.90043 15.03L5.23543 16.71C5.15543 16.78 5.06543 16.815 4.96543 16.815C4.86543 16.815 4.77543 16.78 4.69543 16.71C4.67543 16.69 4.65543 16.66 4.63543 16.62L2.76043 13.2C2.72043 13.12 2.70793 13.0375 2.72293 12.9525C2.73793 12.8675 2.77543 12.795 2.83543 12.735L4.29043 11.37C4.18043 10.78 4.12543 10.18 4.12543 9.56999ZM5.23543 14.58L5.85043 13.98C6.06043 13.77 6.30293 13.6075 6.57793 13.4925C6.85293 13.3775 7.14043 13.32 7.44043 13.32H11.3104C11.6104 13.32 11.8979 13.3775 12.1729 13.4925C12.4479 13.6075 12.6904 13.77 12.9004 13.98L13.5154 14.58L14.2504 13.23L13.4254 12.465C13.2454 12.285 13.1154 12.075 13.0354 11.835C12.9554 11.595 12.9404 11.35 12.9904 11.1C13.0804 10.59 13.1254 10.08 13.1254 9.56999C13.1254 8.60999 12.9704 7.68999 12.6604 6.80999C12.3504 5.94999 11.9129 5.17749 11.3479 4.49249C10.7829 3.80749 10.1254 3.25999 9.37543 2.84999C8.62543 3.25999 7.96793 3.80749 7.40293 4.49249C6.83793 5.17749 6.40043 5.94999 6.09043 6.80999C5.78043 7.68999 5.62543 8.60999 5.62543 9.56999C5.62543 10.08 5.67043 10.59 5.76043 11.1C5.81043 11.35 5.79543 11.595 5.71543 11.835C5.63543 12.075 5.50543 12.285 5.32543 12.465L4.50043 13.23L5.23543 14.58ZM9.37543 9.56999C9.10543 9.56999 8.85543 9.50249 8.62543 9.36749C8.39543 9.23249 8.21293 9.04999 8.07793 8.81999C7.94293 8.58999 7.87543 8.33999 7.87543 8.06999C7.87543 7.79999 7.94293 7.54999 8.07793 7.31999C8.21293 7.08999 8.39543 6.90749 8.62543 6.77249C8.85543 6.63749 9.10543 6.56999 9.37543 6.56999C9.64543 6.56999 9.89543 6.63749 10.1254 6.77249C10.3554 6.90749 10.5379 7.08999 10.6729 7.31999C10.8079 7.54999 10.8754 7.79999 10.8754 8.06999C10.8754 8.33999 10.8079 8.58999 10.6729 8.81999C10.5379 9.04999 10.3554 9.23249 10.1254 9.36749C9.89543 9.50249 9.64543 9.56999 9.37543 9.56999Z" fill="white"/>
</svg>
