<svg width="19" height="18" viewBox="0 0 19 18" fill="none" xmlns="http://www.w3.org/2000/svg">
<path d="M13.7849 12.345L16.9949 15.555L15.9299 16.62L12.7199 13.41C12.1299 13.88 11.4849 14.24 10.7849 14.49C10.0449 14.75 9.28488 14.88 8.50488 14.88C7.28488 14.88 6.14988 14.575 5.09988 13.965C4.07988 13.365 3.27488 12.555 2.68488 11.535C2.06488 10.485 1.75488 9.35 1.75488 8.13C1.75488 6.91 2.06488 5.775 2.68488 4.725C3.27488 3.705 4.07988 2.9 5.09988 2.31C6.14988 1.69 7.28488 1.38 8.50488 1.38C9.72488 1.38 10.8599 1.69 11.9099 2.31C12.9299 2.9 13.7399 3.705 14.3399 4.725C14.9499 5.775 15.2549 6.91 15.2549 8.13C15.2549 8.91 15.1249 9.67 14.8649 10.41C14.6149 11.11 14.2549 11.755 13.7849 12.345ZM12.2699 11.79C12.7399 11.31 13.1049 10.76 13.3649 10.14C13.6249 9.5 13.7549 8.83 13.7549 8.13C13.7549 7.18 13.5149 6.295 13.0349 5.475C12.5749 4.685 11.9499 4.06 11.1599 3.6C10.3399 3.12 9.45488 2.88 8.50488 2.88C7.55488 2.88 6.66988 3.12 5.84988 3.6C5.05988 4.06 4.43488 4.685 3.97488 5.475C3.49488 6.295 3.25488 7.18 3.25488 8.13C3.25488 9.08 3.49488 9.965 3.97488 10.785C4.43488 11.575 5.05988 12.2 5.84988 12.66C6.66988 13.14 7.55488 13.38 8.50488 13.38C9.20488 13.38 9.87488 13.25 10.5149 12.99C11.1349 12.73 11.6849 12.365 12.1649 11.895L12.2699 11.79Z" fill="white"/>
</svg>
