<svg width="16" height="16" viewBox="0 0 16 16" fill="none" xmlns="http://www.w3.org/2000/svg">
<path d="M9.08033 11.346L6.28033 9.82602C6.03144 10.0838 5.7381 10.2882 5.40033 10.4393C5.06255 10.5905 4.70699 10.666 4.33366 10.666C3.85366 10.666 3.40921 10.546 3.00033 10.306C2.59144 10.066 2.26699 9.74157 2.02699 9.33268C1.78699 8.92379 1.66699 8.47935 1.66699 7.99935C1.66699 7.51935 1.78699 7.0749 2.02699 6.66602C2.26699 6.25713 2.59144 5.93268 3.00033 5.69268C3.40921 5.45268 3.85366 5.33268 4.33366 5.33268C4.70699 5.33268 5.06255 5.40824 5.40033 5.55935C5.7381 5.71046 6.03144 5.9149 6.28033 6.17268L9.08033 4.65268C9.02699 4.43935 9.00033 4.22157 9.00033 3.99935C9.00033 3.51935 9.12033 3.0749 9.36033 2.66602C9.60033 2.25713 9.92477 1.93268 10.3337 1.69268C10.7425 1.45268 11.187 1.33268 11.667 1.33268C12.147 1.33268 12.5914 1.45268 13.0003 1.69268C13.4092 1.93268 13.7337 2.25713 13.9737 2.66602C14.2137 3.0749 14.3337 3.51935 14.3337 3.99935C14.3337 4.47935 14.2137 4.92379 13.9737 5.33268C13.7337 5.74157 13.4092 6.06602 13.0003 6.30602C12.5914 6.54602 12.147 6.66602 11.667 6.66602C11.2937 6.66602 10.9381 6.59046 10.6003 6.43935C10.2625 6.28824 9.96921 6.08379 9.72033 5.82602L6.92033 7.34602C6.97366 7.55935 7.00033 7.77713 7.00033 7.99935C7.00033 8.22157 6.97366 8.43935 6.92033 8.65268L9.72033 10.1727C9.96921 9.9149 10.2625 9.71046 10.6003 9.55935C10.9381 9.40824 11.2937 9.33268 11.667 9.33268C12.147 9.33268 12.5914 9.45268 13.0003 9.69268C13.4092 9.93268 13.7337 10.2571 13.9737 10.666C14.2137 11.0749 14.3337 11.5193 14.3337 11.9993C14.3337 12.4793 14.2137 12.9238 13.9737 13.3327C13.7337 13.7416 13.4092 14.066 13.0003 14.306C12.5914 14.546 12.147 14.666 11.667 14.666C11.187 14.666 10.7425 14.546 10.3337 14.306C9.92477 14.066 9.60033 13.7416 9.36033 13.3327C9.12033 12.9238 9.00033 12.4793 9.00033 11.9993C9.00033 11.7771 9.02699 11.5593 9.08033 11.346ZM4.33366 9.33268C4.57366 9.33268 4.79588 9.27268 5.00033 9.15268C5.20477 9.03268 5.36699 8.87046 5.48699 8.66602C5.60699 8.46157 5.66699 8.23935 5.66699 7.99935C5.66699 7.75935 5.60699 7.53713 5.48699 7.33268C5.36699 7.12824 5.20477 6.96602 5.00033 6.84602C4.79588 6.72602 4.57366 6.66602 4.33366 6.66602C4.09366 6.66602 3.87144 6.72602 3.66699 6.84602C3.46255 6.96602 3.30033 7.12824 3.18033 7.33268C3.06033 7.53713 3.00033 7.75935 3.00033 7.99935C3.00033 8.23935 3.06033 8.46157 3.18033 8.66602C3.30033 8.87046 3.46255 9.03268 3.66699 9.15268C3.87144 9.27268 4.09366 9.33268 4.33366 9.33268ZM11.667 5.33268C11.907 5.33268 12.1292 5.27268 12.3337 5.15268C12.5381 5.03268 12.7003 4.87046 12.8203 4.66602C12.9403 4.46157 13.0003 4.23935 13.0003 3.99935C13.0003 3.75935 12.9403 3.53713 12.8203 3.33268C12.7003 3.12824 12.5381 2.96602 12.3337 2.84601C12.1292 2.72602 11.907 2.66602 11.667 2.66602C11.427 2.66602 11.2048 2.72602 11.0003 2.84601C10.7959 2.96602 10.6337 3.12824 10.5137 3.33268C10.3937 3.53713 10.3337 3.75935 10.3337 3.99935C10.3337 4.23935 10.3937 4.46157 10.5137 4.66602C10.6337 4.87046 10.7959 5.03268 11.0003 5.15268C11.2048 5.27268 11.427 5.33268 11.667 5.33268ZM11.667 13.3327C11.907 13.3327 12.1292 13.2727 12.3337 13.1527C12.5381 13.0327 12.7003 12.8705 12.8203 12.666C12.9403 12.4616 13.0003 12.2393 13.0003 11.9993C13.0003 11.7593 12.9403 11.5371 12.8203 11.3327C12.7003 11.1282 12.5381 10.966 12.3337 10.846C12.1292 10.726 11.907 10.666 11.667 10.666C11.427 10.666 11.2048 10.726 11.0003 10.846C10.7959 10.966 10.6337 11.1282 10.5137 11.3327C10.3937 11.5371 10.3337 11.7593 10.3337 11.9993C10.3337 12.2393 10.3937 12.4616 10.5137 12.666C10.6337 12.8705 10.7959 13.0327 11.0003 13.1527C11.2048 13.2727 11.427 13.3327 11.667 13.3327Z" fill="white"/>
</svg>
