<svg width="34" height="32" viewBox="0 0 34 32" fill="none" xmlns="http://www.w3.org/2000/svg">
<path d="M16.6704 1.33518L27.6326 3.76233C27.9348 3.83345 28.1838 3.99349 28.3794 4.24243C28.575 4.49136 28.6728 4.76698 28.6728 5.06926V18.3786C28.6728 19.73 28.3571 20.9924 27.7259 22.166C27.0947 23.3396 26.2189 24.2998 25.0987 25.0466L16.6704 30.6744L8.24202 25.0466C7.12179 24.2998 6.24606 23.3396 5.61482 22.166C4.98359 20.9924 4.66797 19.73 4.66797 18.3786V5.06926C4.66797 4.76698 4.76577 4.49136 4.96136 4.24243C5.15696 3.99349 5.40589 3.83345 5.70818 3.76233L16.6704 1.33518ZM16.6704 4.05572L7.33517 6.13614V18.3786C7.33517 19.2854 7.5441 20.13 7.96196 20.9124C8.37982 21.6948 8.96216 22.3349 9.70898 22.8328L16.6704 27.4737L23.6318 22.8328C24.3786 22.3349 24.9609 21.6948 25.3788 20.9124C25.7966 20.13 26.0056 19.2854 26.0056 18.3786V6.13614L16.6704 4.05572ZM22.6182 10.9638L24.4853 12.8575L16.0036 21.3392L10.3491 15.6847L12.2428 13.791L16.0036 17.5784L22.6182 10.9638Z" fill="white"/>
</svg>
