<svg width="13" height="16" viewBox="0 0 13 16" fill="none" xmlns="http://www.w3.org/2000/svg">
<path d="M6.24701 12.9884C5.56742 12.9884 4.91781 12.8585 4.29818 12.5986C3.7052 12.3455 3.17718 11.9873 2.71412 11.5243C2.25107 11.0612 1.89295 10.5332 1.63977 9.94023C1.37992 9.3206 1.25 8.67098 1.25 7.99139C1.25 7.3118 1.37992 6.66218 1.63977 6.04255C1.89295 5.44958 2.25107 4.92156 2.71412 4.4585C3.17718 3.99545 3.7052 3.63733 4.29818 3.38414C4.91781 3.1243 5.56742 2.99438 6.24701 2.99438C6.92661 2.99438 7.57622 3.1243 8.19585 3.38414C8.78883 3.63733 9.31684 3.99545 9.7799 4.4585C10.243 4.92156 10.6011 5.44958 10.8543 6.04255C11.1141 6.66218 11.244 7.3118 11.244 7.99139C11.244 8.67098 11.1141 9.3206 10.8543 9.94023C10.6011 10.5332 10.243 11.0612 9.7799 11.5243C9.31684 11.9873 8.78883 12.3455 8.19585 12.5986C7.57622 12.8585 6.92661 12.9884 6.24701 12.9884ZM5.74731 9.9902L9.2852 6.45231L8.57562 5.75273L5.74731 8.58104L4.33815 7.16189L3.62858 7.87146L5.74731 9.9902Z" fill="#4ADE80"/>
</svg>
