<svg width="40" height="48" viewBox="0 0 40 48" fill="none" xmlns="http://www.w3.org/2000/svg">
<path d="M20 10.6654C22.4888 10.6654 24.8666 10.932 27.1333 11.4654C29.3333 11.9543 31.2777 12.6598 32.9666 13.582C34.6555 14.5043 35.9666 15.5654 36.9 16.7654C37.8555 18.0098 38.3333 19.3098 38.3333 20.6654V27.332C38.3333 28.6876 37.8555 29.9876 36.9 31.232C35.9666 32.432 34.6555 33.4931 32.9666 34.4154C31.2777 35.3376 29.3333 36.0431 27.1333 36.532C24.8666 37.0654 22.4888 37.332 20 37.332C16.7333 37.332 13.7 36.8876 10.9 35.9987C8.16663 35.1543 5.97774 33.9987 4.33329 32.532C2.6444 31.0209 1.75551 29.3876 1.66663 27.632V20.6654C1.66663 19.3098 2.1444 18.0098 3.09996 16.7654C4.03329 15.5654 5.3444 14.5043 7.03329 13.582C8.72218 12.6598 10.6666 11.9543 12.8666 11.4654C15.1333 10.932 17.5111 10.6654 20 10.6654ZM20 30.6654C16.9555 30.6654 14.1 30.2765 11.4333 29.4987C8.83329 28.7431 6.68885 27.7209 4.99996 26.432V27.332C4.99996 28.1098 5.37774 28.8931 6.13329 29.682C6.88885 30.4709 7.9444 31.1876 9.29996 31.832C10.7 32.4987 12.2888 33.0209 14.0666 33.3987C15.9555 33.7987 17.9333 33.9987 20 33.9987C22.6666 33.9987 25.1777 33.6654 27.5333 32.9987C29.7111 32.3987 31.4777 31.5987 32.8333 30.5987C34.1889 29.5987 34.9111 28.5765 35 27.532V26.3987C33.3111 27.7098 31.1666 28.7431 28.5666 29.4987C25.9 30.2765 23.0444 30.6654 20 30.6654ZM20 13.9987C17.9333 13.9987 15.9555 14.1987 14.0666 14.5987C12.2888 14.9765 10.7 15.4987 9.29996 16.1654C7.9444 16.8098 6.88885 17.5265 6.13329 18.3154C5.37774 19.1043 4.99996 19.8876 4.99996 20.6654C4.99996 21.4431 5.37774 22.2265 6.13329 23.0154C6.88885 23.8043 7.9444 24.5209 9.29996 25.1654C10.7 25.832 12.2888 26.3543 14.0666 26.732C15.9555 27.132 17.9333 27.332 20 27.332C22.0666 27.332 24.0444 27.132 25.9333 26.732C27.7111 26.3543 29.3 25.832 30.7 25.1654C32.0555 24.5209 33.1111 23.8043 33.8666 23.0154C34.6222 22.2265 35 21.4431 35 20.6654C35 19.8876 34.6222 19.1043 33.8666 18.3154C33.1111 17.5265 32.0555 16.8098 30.7 16.1654C29.3 15.4987 27.7111 14.9765 25.9333 14.5987C24.0444 14.1987 22.0666 13.9987 20 13.9987Z" fill="#FB923C"/>
</svg>
