<svg width="42" height="40" viewBox="0 0 42 40" fill="none" xmlns="http://www.w3.org/2000/svg">
<path d="M20.835 20.9665L27.9017 28.0332L25.535 30.3998L22.5017 27.3665V36.6665H19.1684V27.3665L16.135 30.3998L13.7684 28.0332L20.835 20.9665ZM20.835 3.33317C22.7906 3.33317 24.635 3.79984 26.3684 4.73317C28.0128 5.62206 29.3795 6.85539 30.4684 8.43317C31.5573 10.0109 32.2128 11.7554 32.435 13.6665C33.7239 14.0221 34.8795 14.6276 35.9017 15.4832C36.9239 16.3387 37.7239 17.3776 38.3017 18.5998C38.8795 19.8221 39.1684 21.1221 39.1684 22.4998C39.1684 24.0776 38.8017 25.5332 38.0684 26.8665C37.335 28.1998 36.3295 29.2943 35.0517 30.1498C33.7739 31.0054 32.3684 31.4998 30.835 31.6332V28.2665C31.7684 28.1332 32.6184 27.7943 33.385 27.2498C34.1517 26.7054 34.7517 26.0165 35.185 25.1832C35.6184 24.3498 35.835 23.4554 35.835 22.4998C35.835 21.4332 35.5739 20.4554 35.0517 19.5665C34.5295 18.6776 33.8239 17.9721 32.935 17.4498C32.0462 16.9276 31.0684 16.6665 30.0017 16.6665C29.6462 16.6665 29.3017 16.6998 28.9684 16.7665C29.1017 16.1887 29.1684 15.5998 29.1684 14.9998C29.1684 13.4887 28.7962 12.0943 28.0517 10.8165C27.3073 9.53872 26.2962 8.52761 25.0184 7.78317C23.7406 7.03872 22.3462 6.6665 20.835 6.6665C19.3239 6.6665 17.9295 7.03872 16.6517 7.78317C15.3739 8.52761 14.3628 9.53872 13.6184 10.8165C12.8739 12.0943 12.5017 13.4887 12.5017 14.9998C12.5017 15.5998 12.5684 16.1887 12.7017 16.7665C12.3462 16.6998 12.0017 16.6665 11.6684 16.6665C10.6017 16.6665 9.62393 16.9276 8.73504 17.4498C7.84615 17.9721 7.1406 18.6776 6.61838 19.5665C6.09615 20.4554 5.83504 21.4332 5.83504 22.4998C5.83504 23.4332 6.0406 24.3054 6.45171 25.1165C6.86282 25.9276 7.42393 26.6054 8.13504 27.1498C8.84615 27.6943 9.64615 28.0554 10.535 28.2332L10.835 28.2665V31.6332C9.30171 31.4998 7.89615 31.0054 6.61838 30.1498C5.3406 29.2943 4.33504 28.1998 3.60171 26.8665C2.86838 25.5332 2.50171 24.0776 2.50171 22.4998C2.50171 21.1221 2.7906 19.8221 3.36838 18.5998C3.94615 17.3776 4.74615 16.3387 5.76838 15.4832C6.7906 14.6276 7.94615 14.0221 9.23504 13.6665C9.45726 11.7554 10.1128 10.0109 11.2017 8.43317C12.2906 6.85539 13.6573 5.62206 15.3017 4.73317C17.035 3.79984 18.8795 3.33317 20.835 3.33317Z" fill="#94A3B8"/>
</svg>
