<svg width="23" height="22" viewBox="0 0 23 22" fill="none" xmlns="http://www.w3.org/2000/svg">
<path d="M16.7673 13.8121L15.5053 12.5501L16.7673 11.2881C17.3361 10.7193 17.7212 10.0557 17.9227 9.29726C18.1241 8.53886 18.1241 7.77749 17.9227 7.01317C17.7212 6.24884 17.3361 5.58228 16.7673 5.01348C16.1985 4.44468 15.5319 4.05956 14.7676 3.85811C14.0033 3.65666 13.2419 3.65666 12.4835 3.85811C11.7251 4.05956 11.0615 4.44468 10.4927 5.01348L9.23068 6.27551L7.96866 5.01348L9.23068 3.75146C10.0246 2.95751 10.9667 2.41833 12.0569 2.13393C13.0997 1.86138 14.1484 1.86138 15.2031 2.13393C16.2933 2.41833 17.2354 2.95751 18.0293 3.75146C18.8233 4.54541 19.3624 5.48748 19.6468 6.57768C19.9194 7.63233 19.9194 8.68106 19.6468 9.72386C19.3624 10.8141 18.8233 11.7561 18.0293 12.5501L16.7673 13.8121ZM14.261 16.3184L12.999 17.5804C12.205 18.3744 11.263 18.9135 10.1728 19.1979C9.12996 19.4705 8.08123 19.4705 7.02658 19.1979C5.93638 18.9135 4.99431 18.3744 4.20036 17.5804C3.40641 16.7865 2.86723 15.8444 2.58283 14.7542C2.31028 13.6995 2.31028 12.6508 2.58283 11.608C2.86723 10.5178 3.40641 9.57573 4.20036 8.78178L5.46238 7.51976L6.72441 8.78178L5.46238 10.0438C4.89358 10.6126 4.50846 11.2762 4.30701 12.0346C4.10556 12.793 4.10556 13.5544 4.30701 14.3187C4.50846 15.083 4.89358 15.7496 5.46238 16.3184C6.03118 16.8872 6.69774 17.2723 7.46207 17.4738C8.22639 17.6752 8.98776 17.6752 9.74616 17.4738C10.5046 17.2723 11.1682 16.8872 11.737 16.3184L12.999 15.0564L14.261 16.3184ZM13.6211 6.89763L14.8831 8.15966L8.60856 14.4342L7.34653 13.1722L13.6211 6.89763Z" fill="#F59E0B"/>
</svg>
