<svg width="20" height="19" viewBox="0 0 20 19" fill="none" xmlns="http://www.w3.org/2000/svg">
<path d="M9.72497 8.5562C10.4303 8.5562 11.0811 8.72993 11.6775 9.0774C12.2739 9.42487 12.7459 9.89681 13.0933 10.4932C13.4408 11.0896 13.6146 11.7405 13.6146 12.4458V17.1133H12.0587V12.4458C12.0587 12.0413 11.9602 11.6653 11.7631 11.3178C11.566 10.9703 11.3015 10.6903 10.9696 10.4777C10.6377 10.265 10.2695 10.1431 9.86499 10.112H9.72497C9.32045 10.112 8.94446 10.2106 8.59699 10.4076C8.24952 10.6047 7.96947 10.8692 7.75684 11.2011C7.54421 11.533 7.42233 11.9012 7.39122 12.3058V17.1133H5.83538V12.4458C5.83538 11.7405 6.00912 11.0896 6.35659 10.4932C6.70406 9.89681 7.17599 9.42487 7.7724 9.0774C8.3688 8.72993 9.01966 8.5562 9.72497 8.5562ZM4.66851 10.8899C4.88633 10.8899 5.09896 10.9159 5.3064 10.9677C5.17156 11.3619 5.08858 11.7664 5.05747 12.1813V12.508C4.96412 12.4769 4.87077 12.4562 4.77742 12.4458H4.66851C4.36771 12.4458 4.10582 12.5469 3.88281 12.7492C3.65981 12.9514 3.53275 13.203 3.50163 13.5037V13.6127V17.1133H1.9458V13.6127C1.9458 13.1148 2.06767 12.6584 2.31142 12.2435C2.55517 11.8286 2.88449 11.4993 3.29938 11.2556C3.71426 11.0118 4.17064 10.8899 4.66851 10.8899ZM14.7814 10.8899C15.2793 10.8899 15.7357 11.0118 16.1506 11.2556C16.5654 11.4993 16.8948 11.8286 17.1385 12.2435C17.3823 12.6584 17.5041 13.1148 17.5041 13.6127V17.1133H15.9483V13.6127C15.9483 13.3119 15.8472 13.05 15.6449 12.827C15.4427 12.604 15.1911 12.4769 14.8903 12.4458H14.7814C14.6466 12.4458 14.5169 12.4665 14.3925 12.508V12.4458C14.3925 11.9375 14.3147 11.4449 14.1591 10.9677C14.3562 10.9159 14.5636 10.8899 14.7814 10.8899ZM4.66851 6.22245C5.02116 6.22245 5.3453 6.31061 5.6409 6.48694C5.93651 6.66327 6.17248 6.89924 6.34881 7.19484C6.52514 7.49045 6.6133 7.81458 6.6133 8.16724C6.6133 8.5199 6.52514 8.84403 6.34881 9.13964C6.17248 9.43524 5.93651 9.67121 5.6409 9.84754C5.3453 10.0239 5.02116 10.112 4.66851 10.112C4.31585 10.112 3.99172 10.0239 3.69611 9.84754C3.4005 9.67121 3.16454 9.43524 2.98821 9.13964C2.81188 8.84403 2.72372 8.5199 2.72372 8.16724C2.72372 7.81458 2.81188 7.49045 2.98821 7.19484C3.16454 6.89924 3.4005 6.66327 3.69611 6.48694C3.99172 6.31061 4.31585 6.22245 4.66851 6.22245ZM14.7814 6.22245C15.1341 6.22245 15.4582 6.31061 15.7538 6.48694C16.0494 6.66327 16.2854 6.89924 16.4617 7.19484C16.6381 7.49045 16.7262 7.81458 16.7262 8.16724C16.7262 8.5199 16.6381 8.84403 16.4617 9.13964C16.2854 9.43524 16.0494 9.67121 15.7538 9.84754C15.4582 10.0239 15.1341 10.112 14.7814 10.112C14.4288 10.112 14.1046 10.0239 13.809 9.84754C13.5134 9.67121 13.2775 9.43524 13.1011 9.13964C12.9248 8.84403 12.8366 8.5199 12.8366 8.16724C12.8366 7.81458 12.9248 7.49045 13.1011 7.19484C13.2775 6.89924 13.5134 6.66327 13.809 6.48694C14.1046 6.31061 14.4288 6.22245 14.7814 6.22245ZM4.66851 7.77828C4.56479 7.77828 4.47403 7.81718 4.39624 7.89497C4.31845 7.97276 4.27955 8.06352 4.27955 8.16724C4.27955 8.27096 4.31845 8.36172 4.39624 8.43951C4.47403 8.5173 4.56479 8.5562 4.66851 8.5562C4.77223 8.5562 4.86299 8.5173 4.94078 8.43951C5.01857 8.36172 5.05747 8.27096 5.05747 8.16724C5.05747 8.06352 5.01857 7.97276 4.94078 7.89497C4.86299 7.81718 4.77223 7.77828 4.66851 7.77828ZM14.7814 7.77828C14.6777 7.77828 14.5869 7.81718 14.5092 7.89497C14.4314 7.97276 14.3925 8.06352 14.3925 8.16724C14.3925 8.27096 14.4314 8.36172 14.5092 8.43951C14.5869 8.5173 14.6777 8.5562 14.7814 8.5562C14.8851 8.5562 14.9759 8.5173 15.0537 8.43951C15.1315 8.36172 15.1704 8.27096 15.1704 8.16724C15.1704 8.06352 15.1315 7.97276 15.0537 7.89497C14.9759 7.81718 14.8851 7.77828 14.7814 7.77828ZM9.72497 1.55495C10.2851 1.55495 10.8037 1.69497 11.2808 1.97502C11.7579 2.25507 12.1365 2.63366 12.4166 3.11078C12.6966 3.5879 12.8366 4.10651 12.8366 4.66661C12.8366 5.22672 12.6966 5.74533 12.4166 6.22245C12.1365 6.69957 11.7579 7.07816 11.2808 7.35821C10.8037 7.63826 10.2851 7.77828 9.72497 7.77828C9.16487 7.77828 8.64626 7.63826 8.16913 7.35821C7.69201 7.07816 7.31343 6.69957 7.03338 6.22245C6.75333 5.74533 6.6133 5.22672 6.6133 4.66661C6.6133 4.10651 6.75333 3.5879 7.03338 3.11078C7.31343 2.63366 7.69201 2.25507 8.16913 1.97502C8.64626 1.69497 9.16487 1.55495 9.72497 1.55495ZM9.72497 3.11078C9.44492 3.11078 9.18561 3.18079 8.94705 3.32082C8.70849 3.46084 8.5192 3.65014 8.37917 3.8887C8.23915 4.12726 8.16913 4.38657 8.16913 4.66661C8.16913 4.94666 8.23915 5.20597 8.37917 5.44453C8.5192 5.68309 8.70849 5.87239 8.94705 6.01241C9.18561 6.15244 9.44492 6.22245 9.72497 6.22245C10.005 6.22245 10.2643 6.15244 10.5029 6.01241C10.7414 5.87239 10.9307 5.68309 11.0708 5.44453C11.2108 5.20597 11.2808 4.94666 11.2808 4.66661C11.2808 4.38657 11.2108 4.12726 11.0708 3.8887C10.9307 3.65014 10.7414 3.46084 10.5029 3.32082C10.2643 3.18079 10.005 3.11078 9.72497 3.11078Z" fill="#94A3B8"/>
</svg>
