<svg width="166" height="281" viewBox="0 0 166 281" fill="none" xmlns="http://www.w3.org/2000/svg">
<path fill-rule="evenodd" clip-rule="evenodd" d="M5.33747 249.01C10.3202 250.888 47.0767 264.316 54.1994 254.419C60.6558 240.507 43.9014 231.751 43.9014 231.751C43.9014 231.751 82.274 232.446 106.529 196.086C130.786 159.727 130.682 134.647 132.478 129.536C155.994 105.676 147.566 67.7282 108.958 79.2537C110.597 76.4388 112.242 73.6223 113.881 70.8057C113.881 70.8057 119.541 72.532 122.772 70.0143C126.002 67.4965 126.588 65.0925 127.407 64.9889C128.226 64.8854 133.637 62.482 133.564 57.4987C133.487 52.5693 99.0007 36.315 81.7386 31.546C65.2837 24.4692 28.2105 15.5826 25.0706 19.3818C21.8936 23.2234 24.6123 28.4828 25.1865 29.0759C25.7608 29.6689 24.7129 31.9107 25.6637 35.8975C26.6096 39.8826 32.1023 42.0744 32.1023 42.0744C31.6229 45.2986 31.142 48.5221 30.6627 51.7462C7.74749 18.606 -22.5628 42.9436 -19.1374 76.2689C-20.9326 81.3785 -36.6999 100.882 -40.5153 144.425C-44.3334 187.966 -13.9543 211.424 -13.9543 211.424C-13.9543 211.424 -32.5039 207.778 -36.169 222.67C-36.803 234.845 0.276716 247.359 5.33747 249.01ZM-6.01238 73.5007C-6.01238 73.5007 -7.04361 50.4355 3.76304 46.7956C14.5664 43.1545 25.566 57.5214 26.2469 60.0438C26.9261 62.5657 24.3211 68.3045 24.3211 68.3045C14.3592 65.589 2.87327 72.9697 -6.01238 73.5007ZM123.965 119.165C117.364 113.193 113.021 100.252 103.546 96.1403C103.546 96.1403 105.105 90.0339 107.214 88.4916C109.321 86.9487 126.888 82.618 133.043 92.2172C139.196 101.814 123.965 119.165 123.965 119.165Z" fill="url(#paint0_linear_337_35780)"/>
<path fill-rule="evenodd" clip-rule="evenodd" d="M133.556 57.9111C133.561 57.7746 133.565 57.6375 133.564 57.4987C133.487 52.5693 99.0007 36.315 81.7386 31.546C65.2837 24.4692 28.2105 15.5826 25.0706 19.3818C21.8936 23.2234 24.6123 28.4828 25.1865 29.0759C25.7608 29.6689 24.7129 31.9107 25.6637 35.8975C26.6096 39.8826 32.1023 42.0744 32.1023 42.0744C31.6229 45.2986 31.142 48.5221 30.6627 51.7462C7.74749 18.606 -22.5628 42.9436 -19.1374 76.2689C-20.9326 81.3785 -36.6999 100.882 -40.5153 144.425C-44.3334 187.966 -13.9543 211.424 -13.9543 211.424C-13.9543 211.424 -32.5039 207.778 -36.169 222.67C-36.6172 231.243 -18.366 239.984 -5.75491 244.984C-5.76122 244.896 -5.74056 244.811 -5.76888 244.724C-9.37949 233.944 6.49437 220.851 6.49437 220.851C6.49437 220.851 -4.52267 213.106 -13.6441 178.904C-22.7606 144.703 1.02419 97.0515 1.02419 97.0515L32.8515 78.6457C32.8515 78.6457 39.5745 62.515 42.5964 54.418C45.6177 46.3226 63.269 53.2254 64.212 53.5567C65.1518 53.8869 57.8742 52.037 48.1825 47.0446C38.487 42.0528 44.7534 34.745 44.7534 34.745C44.7534 34.745 63.8555 43.0398 95.6029 52.4327C122.439 60.3734 130.267 59.371 133.556 57.9111ZM-6.01238 73.5007C-6.01238 73.5007 -7.04361 50.4355 3.76304 46.7956C14.5664 43.1545 25.566 57.5214 26.2469 60.0438C26.9261 62.5657 24.3211 68.3045 24.3211 68.3045C14.3592 65.589 2.87327 72.9697 -6.01238 73.5007Z" fill="#FCF3E7"/>
<path fill-rule="evenodd" clip-rule="evenodd" d="M6.20689 246.683C8.6583 247.607 18.9216 251.371 29.5104 253.7C39.2347 255.841 49.0756 256.836 52.0497 253.141C57.1998 241.518 42.777 233.974 42.7349 233.952C41.5193 233.309 41.0573 231.803 41.7009 230.586C42.156 229.721 43.051 229.238 43.966 229.261C45.3823 229.275 81.39 229.289 104.458 194.71C123.895 165.571 127.444 143.816 129.044 134.01C129.44 131.6 129.722 129.863 130.126 128.711C130.271 128.3 130.514 127.95 130.817 127.68C138.441 119.891 142.483 110.582 143.006 102.181C143.294 97.5419 142.504 93.2074 140.648 89.6114C138.833 86.098 135.98 83.2702 132.098 81.5411C126.666 79.1211 119.193 78.7992 109.668 81.6419C108.351 82.0337 106.965 81.2827 106.572 79.9673C106.363 79.2606 106.481 78.536 106.837 77.9541L111.733 69.5596C112.343 68.5131 113.6 68.0762 114.7 68.4591C115.354 68.6425 119.22 69.6334 121.241 68.0566C122.832 66.8216 123.686 65.573 124.255 64.7428C125.101 63.5046 125.652 62.7049 127.1 62.5217L127.172 62.5119C127.588 62.3941 128.919 61.7045 130.028 60.3554C130.638 59.6134 131.093 58.6713 131.077 57.5342C131.054 56.2655 123.976 52.1766 114.825 47.594C103.838 42.0912 90.0758 36.433 81.0752 33.9445C80.9606 33.9135 80.8511 33.8732 80.7417 33.8274C72.1619 30.1412 57.8943 25.9536 45.8907 23.3755C35.8845 21.2277 27.8017 19.9883 26.9929 20.9666C26.2661 21.8427 26.0348 22.8634 26.0464 23.8236C26.0646 25.6997 26.7656 27.1402 26.9731 27.3534C27.991 28.4069 27.9194 29.3674 27.8084 30.8548C27.7289 31.8587 27.6182 33.3665 28.0834 35.3259C28.7328 38.0532 33.0155 39.7646 33.0286 39.7692C34.1193 40.2059 34.7334 41.3316 34.5618 42.4452L34.5656 42.4447L33.126 52.1165C32.9186 53.4741 31.6565 54.4132 30.2967 54.2068C29.5885 54.1001 28.9973 53.7078 28.6205 53.162C22.9665 44.9885 16.9365 40.5647 11.1817 39.056C7.0717 37.9775 3.07301 38.3999 -0.536632 40.0056C-4.23228 41.6512 -7.5613 44.5387 -10.238 48.3382C-15.1074 55.2527 -17.7815 65.1072 -16.6596 76.0149C-16.6221 76.3917 -16.6716 76.7582 -16.7893 77.0934L-16.7828 77.0957C-17.1868 78.2458 -18.0509 79.7806 -19.2555 81.9064C-24.1374 90.5589 -34.9759 109.751 -38.0341 144.645C-41.7295 186.828 -12.4922 209.401 -12.4074 209.47C-11.3295 210.321 -11.1448 211.887 -11.9956 212.968C-12.5999 213.733 -13.5617 214.048 -14.4515 213.865C-15.2642 213.714 -30.5173 211.039 -33.6882 223.017C-33.6787 227.76 -25.3762 233.139 -16.4512 237.55C-6.72954 242.357 3.62916 245.84 6.12039 246.65L6.20689 246.683ZM28.4231 258.56C17.6719 256.194 7.12592 252.336 4.51629 251.353C1.8657 250.486 -8.77667 246.902 -18.648 242.022C-29.2297 236.789 -39.037 229.92 -38.6527 222.537L-38.6494 222.538C-38.6408 222.382 -38.619 222.226 -38.5818 222.067C-35.9774 211.481 -27.094 208.965 -20.6331 208.596C-29.3725 199.495 -45.9202 177.562 -42.997 144.203C-39.8457 108.245 -28.6488 88.411 -23.6014 79.4714C-22.713 77.899 -22.0332 76.6889 -21.67 75.8918C-22.7521 63.9829 -19.7283 53.1696 -14.3139 45.4813C-11.1247 40.9481 -7.09116 37.474 -2.55401 35.4558C2.07185 33.4006 7.19378 32.8596 12.4583 34.2403C18.0128 35.699 23.7018 39.3127 29.0654 45.5808L29.374 43.4836C27.3007 42.3029 24.0692 39.9586 23.2403 36.4706C22.5957 33.7504 22.7425 31.7828 22.8396 30.4713C22.8433 30.4504 22.8674 30.4552 22.9094 30.4774L23.163 30.4964C22.4757 29.5055 21.1066 26.7671 21.0745 23.869C21.0483 21.8683 21.5644 19.7165 23.1539 17.798C25.302 15.1933 35.2569 16.0107 46.935 18.517C59.1773 21.1458 73.73 25.4151 82.5661 29.1913C91.8191 31.7703 105.848 37.5424 117.044 43.1482C127.725 48.4974 136 54.0849 136.052 57.4624C136.087 59.9496 135.144 61.9535 133.874 63.4988C132.218 65.5122 129.804 66.7516 128.493 67.2305C128.375 67.2903 128.25 67.339 128.117 67.377L128.315 67.5113C128.355 67.5197 128.373 67.5299 128.364 67.5451C127.623 68.6303 126.506 70.2591 124.303 71.9767C121.471 74.1787 117.485 73.9872 115.127 73.6111L114.06 75.4401C122.167 73.9063 128.864 74.6442 134.11 76.9802C139.085 79.1967 142.74 82.8212 145.06 87.317C147.338 91.7294 148.316 96.9641 147.969 102.496C147.387 111.882 142.983 122.21 134.692 130.826C134.47 131.673 134.248 133.044 133.956 134.826C132.303 144.958 128.634 167.437 108.603 197.464C90.0193 225.322 63.3865 232.084 50.8789 233.72C55.6639 238.026 60.9867 245.492 56.5217 255.306C56.4491 255.502 56.3459 255.691 56.2191 255.868C51.9031 261.87 39.9542 261.095 28.4231 258.56ZM127.718 67.462C127.857 67.4461 127.99 67.4174 128.119 67.3776L128.317 67.5119C128.069 67.4655 127.05 67.5449 127.718 67.462ZM23.4043 30.8026C23.8702 31.2838 23.1366 30.5978 22.9094 30.4774L23.163 30.4964C23.2583 30.635 23.3426 30.7366 23.4043 30.8026ZM-3.55031 70.67C-3.45696 64.8407 -2.46627 51.5134 4.55871 49.1493C4.68722 49.104 4.85986 49.0539 5.07007 48.9967C9.27243 47.8632 13.6627 50.1089 17.146 52.9606C17.1937 53.0088 17.2458 53.0548 17.2985 53.0991C20.8649 56.0613 23.3345 59.4078 23.8228 60.624L23.8553 60.7259C24.0934 61.7398 23.4001 63.8865 22.806 65.446C16.6542 64.5158 10.3745 66.529 4.41764 68.4378C1.63133 69.3287 -1.07367 70.1983 -3.55031 70.67ZM5.92857 73.1788C1.81631 74.4972 -2.14041 75.7668 -5.86379 75.9889L-5.86419 75.9795L-5.91103 75.9815C-7.28108 76.0354 -8.43975 74.9676 -8.49204 73.5981C-8.4964 73.5264 -9.61625 48.6803 2.96963 44.4417C3.27975 44.3366 3.54709 44.2533 3.78327 44.1905C9.88351 42.5461 15.7804 45.4208 20.3046 49.1292C20.3656 49.171 20.4255 49.216 20.4809 49.2631C24.6185 52.701 27.6679 57.0135 28.453 58.8453C28.4961 58.938 28.5381 59.0339 28.5717 59.1325L28.6511 59.4003C29.5631 62.7884 26.6041 69.3091 26.5939 69.3276L26.5906 69.3265C26.0992 70.4256 24.864 71.0308 23.667 70.7025C18.2536 69.2307 11.9087 71.2616 5.92857 73.1788ZM122.295 121.015C119.528 118.512 117.235 115.047 114.853 111.447C111.382 106.211 107.705 100.658 102.56 98.4235C101.42 97.9309 100.834 96.6856 101.139 95.5212L101.136 95.5201C101.14 95.4992 102.908 88.5601 105.74 86.4875C105.847 86.4088 105.918 86.3582 105.957 86.3329C106.059 86.2674 106.162 86.2112 106.269 86.1639C108.047 85.2271 113.094 83.7905 118.448 83.6966C124.355 83.5919 130.874 85.0093 134.654 90.1708C134.798 90.3653 134.957 90.6003 135.135 90.8769C142.304 102.056 125.887 120.741 125.842 120.795C124.941 121.83 123.374 121.94 122.337 121.041L122.302 121.01L122.295 121.015ZM119 108.694C115.544 103.478 111.906 97.9803 106.52 94.8572C107.03 93.266 107.835 91.1586 108.657 90.5192C108.652 90.523 108.652 90.523 108.657 90.5192L108.757 90.4509C109.922 89.8027 113.934 88.7404 118.54 88.6588C123.098 88.5808 128.035 89.5509 130.645 93.1128C130.775 93.2895 130.877 93.4382 130.951 93.5545C134.952 99.7923 127.389 110.811 123.818 115.418C122.18 113.501 120.612 111.13 119 108.694ZM108.689 90.4933C108.727 90.4664 108.669 90.5067 108.654 90.518L108.689 90.4933Z" fill="#353541"/>
<path fill-rule="evenodd" clip-rule="evenodd" d="M18.3546 67.0191C18.7366 66.2415 19.6748 65.9195 20.453 66.3C21.2305 66.6821 21.5541 67.6208 21.172 68.3984C20.5385 69.6764 23.4069 72.1349 28.3262 75.1442C34.2938 78.7949 43.0921 82.831 52.6623 86.5089C62.2625 90.2011 72.6281 93.5327 81.6863 95.7627C94.1813 98.8384 103.953 100.003 104.87 97.2112C105.139 96.3905 106.025 95.9449 106.846 96.2148C107.666 96.4847 108.112 97.3703 107.843 98.1893C106.285 102.932 95.0392 102.27 80.9296 98.799C71.7557 96.5412 61.2586 93.1689 51.5412 89.4319C41.7877 85.6822 32.8068 81.5616 26.6936 77.821C20.2816 73.896 16.8334 70.0931 18.3546 67.0191Z" fill="#353541"/>
<path fill-rule="evenodd" clip-rule="evenodd" d="M12.5598 67.935C12.7678 67.0963 13.6137 66.585 14.4574 66.7947C15.2929 67.0014 15.8062 67.8518 15.5983 68.6906C14.7346 72.1839 18.3369 76.3676 24.5137 80.6733C32.332 86.1223 44.0968 91.5181 56.3979 95.9708C61.7136 97.8938 67.1562 99.6398 72.4673 101.098C81.8049 103.662 90.5967 105.295 97.3532 105.376C103.564 105.45 107.89 104.27 108.951 101.333C108.978 101.256 109.012 101.148 109.05 101.01C109.282 100.176 110.149 99.6885 110.98 99.9194C111.814 100.152 112.304 101.016 112.072 101.85C112.028 102.006 111.971 102.189 111.896 102.393C110.299 106.807 104.89 108.596 97.3077 108.505C90.2682 108.42 81.2027 106.747 71.6284 104.116C66.3024 102.653 60.7854 100.883 55.3404 98.9125C42.8034 94.375 30.7735 88.8509 22.7308 83.2419C15.4718 78.1869 11.3258 72.9133 12.5598 67.935Z" fill="#353541"/>
<path fill-rule="evenodd" clip-rule="evenodd" d="M23.1295 19.3051C23.2601 18.4502 24.0621 17.8645 24.9164 17.9967C25.7707 18.1288 26.3592 18.9281 26.2248 19.7835C25.9695 21.4768 30.5949 24.6135 37.9704 28.4229C47.3559 33.2726 60.9405 38.7688 74.9155 43.7524C90.2125 49.2079 105.977 54.0194 117.325 56.3226C121.83 57.2373 125.609 57.7492 128.344 57.7393C130.481 57.7313 131.767 57.5113 131.937 57.0267C131.94 57.0201 131.937 57.0283 131.939 57.0107C132.115 56.1643 132.937 55.6152 133.786 55.788C134.634 55.9603 135.183 56.7881 135.009 57.6352C134.985 57.7763 134.942 57.9216 134.887 58.076C134.202 59.9948 131.893 60.8614 128.352 60.876C125.403 60.8846 121.413 60.3506 116.702 59.3929C105.227 57.0634 89.3089 52.2054 73.8673 46.6992C59.7549 41.6654 46.0286 36.1102 36.5393 31.2093C27.9425 26.7677 22.635 22.583 23.1295 19.3051Z" fill="#353541"/>
<path fill-rule="evenodd" clip-rule="evenodd" d="M80.9339 218.98C81.7489 218.684 82.6465 219.102 82.9423 219.915C83.2377 220.724 82.8218 221.624 82.0107 221.921C76.1723 224.059 72.5812 219.896 69.0583 215.812C69.0297 215.778 69.0027 215.745 68.9752 215.707C65.935 212.183 62.9425 208.785 58.6491 211.738C56.5422 213.191 54.4302 214.206 52.3772 214.843C48.6924 215.985 45.1686 215.917 42.1358 214.946C39.0597 213.961 36.4915 212.051 34.7544 209.525C33.9756 208.395 33.3678 207.151 32.952 205.818C32.8002 205.326 32.6232 204.857 32.4178 204.412C31.2396 201.856 29.2216 200.15 26.7251 199.323C24.1361 198.465 21.0128 198.528 17.7359 199.544C16.8498 199.818 15.9569 200.163 15.0553 200.575C14.4233 200.867 13.7714 201.13 13.1062 201.364C8.93818 202.825 4.99933 202.746 1.70228 201.46C-1.64676 200.154 -4.30805 197.626 -5.88052 194.211C-6.08914 193.76 -6.27663 193.295 -6.44413 192.821C-6.77634 191.87 -7.16871 190.996 -7.62027 190.206C-8.71874 188.273 -10.1121 186.933 -11.7262 186.273C-13.3211 185.622 -15.1858 185.613 -17.2463 186.335C-17.9652 186.584 -18.7149 186.932 -19.4964 187.375C-20.1767 187.762 -20.8762 188.072 -21.5916 188.311C-24.7641 189.377 -27.8684 188.877 -30.5387 187.457C-33.1298 186.079 -35.3126 183.828 -36.7361 181.324C-37.2112 180.491 -37.6052 179.61 -37.9079 178.706C-38.1866 177.887 -37.7438 177 -36.927 176.724C-36.1079 176.447 -35.2217 176.887 -34.9463 177.706C-34.7139 178.389 -34.399 179.085 -34.0081 179.774C-32.863 181.789 -31.1214 183.594 -29.0747 184.682C-27.1055 185.728 -24.8518 186.106 -22.5914 185.346C-22.0936 185.18 -21.5782 184.947 -21.0479 184.646C-20.1214 184.121 -19.202 183.7 -18.2925 183.381C-15.4716 182.392 -12.8533 182.431 -10.5498 183.371C-8.26106 184.307 -6.33763 186.108 -4.89382 188.655C-4.36632 189.586 -3.89684 190.63 -3.49238 191.78C-3.35601 192.169 -3.20777 192.54 -3.04112 192.896C-1.81302 195.568 0.252532 197.538 2.8304 198.543C5.46191 199.569 8.64678 199.614 12.0714 198.414C12.6015 198.229 13.1576 198.002 13.7407 197.734C14.765 197.262 15.7897 196.867 16.8098 196.553C20.7138 195.345 24.5033 195.292 27.7158 196.356C31.0258 197.452 33.7002 199.711 35.2572 203.097C35.5196 203.664 35.7446 204.263 35.9426 204.892C36.263 205.929 36.7338 206.89 37.3247 207.751C38.6706 209.71 40.6795 211.195 43.0904 211.966C45.538 212.749 48.4095 212.792 51.4478 211.851C53.2224 211.303 55.0468 210.423 56.873 209.165C63.4682 204.625 67.3737 209.065 71.3411 213.665C71.3715 213.694 71.3996 213.724 71.4283 213.758C74.2548 217.034 77.1382 220.375 80.9339 218.98Z" fill="#353541"/>
<path fill-rule="evenodd" clip-rule="evenodd" d="M-15.0876 212.502C-15.6822 211.878 -15.6552 210.887 -15.0327 210.291C-14.4079 209.695 -13.418 209.72 -12.82 210.345C-12.7816 210.388 0.594898 224.935 44.0893 230.197C44.943 230.299 45.5566 231.08 45.453 231.937C45.3494 232.794 44.5696 233.406 43.711 233.302C-0.909701 227.904 -15.0464 212.548 -15.0876 212.502Z" fill="#353541"/>
<path fill-rule="evenodd" clip-rule="evenodd" d="M-34.4734 216.578C-34.4044 215.715 -33.6489 215.072 -32.7826 215.144C-31.9223 215.212 -31.2796 215.967 -31.3486 216.831C-31.3525 216.863 -32.6588 227.731 6.72324 240.884C46.4142 254.14 54.3962 246.761 54.4186 246.74C55.0754 246.173 56.064 246.244 56.6306 246.9C57.1978 247.556 57.1268 248.546 56.4733 249.114C56.4426 249.138 47.1392 257.682 5.7221 243.849C-36.004 229.913 -34.4757 216.616 -34.4734 216.578Z" fill="#353541"/>
<path fill-rule="evenodd" clip-rule="evenodd" d="M-29.585 212.891C-29.57 212.029 -28.8583 211.338 -27.995 211.35C-27.1299 211.362 -26.4435 212.072 -26.4542 212.937C-26.4551 212.961 -26.9453 220.792 9.6336 233.145C46.5587 245.616 53.2678 240.636 53.2878 240.621C54.0023 240.137 54.9741 240.324 55.4621 241.041C55.9457 241.756 55.7587 242.729 55.0421 243.214C55.0182 243.229 47.0497 249.083 8.63248 236.11C-30.1342 223.018 -29.5855 212.919 -29.585 212.891Z" fill="#353541"/>
<path fill-rule="evenodd" clip-rule="evenodd" d="M40.0387 147.646C39.3993 147.853 38.4761 147.722 37.4866 147.297C36.513 146.879 35.418 146.166 34.4442 145.213C33.4677 144.257 32.6087 143.051 32.1058 141.651C31.4748 139.895 31.4054 137.849 32.3593 135.623L32.3753 135.588C34.1488 131.995 33.362 130.069 32.6889 128.427C31.7325 126.091 30.9668 124.219 35.268 120.367C35.5893 120.077 36.0884 120.107 36.3746 120.427C36.5428 120.615 36.6044 120.86 36.5638 121.092C36.1658 124.121 37.8725 125.053 39.6146 126.004C42.3346 127.488 45.1212 129.008 43.0438 135.74C42.8472 136.384 43.0856 137.418 43.353 138.564C44.0408 141.539 44.8741 145.13 40.1867 147.587C40.1412 147.611 40.0913 147.633 40.0387 147.646ZM38.1052 145.857C38.7293 146.124 39.2369 146.24 39.5161 146.17C43.0638 144.273 42.3867 141.346 41.8222 138.918C41.5087 137.562 41.2245 136.332 41.5483 135.274C43.2446 129.768 41.027 128.557 38.8644 127.378C37.0551 126.392 35.2709 125.418 34.971 122.872C33.0207 125.098 33.5294 126.34 34.1398 127.833C34.9364 129.774 35.8657 132.052 33.7897 136.269C33.022 138.076 33.0754 139.721 33.5777 141.123C33.9952 142.283 34.7153 143.291 35.5395 144.097C36.3669 144.905 37.2875 145.505 38.1052 145.857Z" fill="#353541"/>
<path fill-rule="evenodd" clip-rule="evenodd" d="M34.9597 122.974C33.6657 124.84 35.0892 126.761 36.1048 128.404C37.5918 130.802 39.3665 133.836 39.0222 136.744C38.7727 138.862 38.1768 140.916 38.1307 143.059C38.107 144.119 38.3358 146.394 39.7746 146.486C40.114 146.508 40.2716 146.059 39.9928 145.865C38.6307 144.909 38.9371 142.744 39.0949 141.329C39.2898 139.555 39.644 137.806 39.7234 136.02C39.8124 133.917 38.6557 131.835 37.6709 130.062C36.6486 128.223 33.9597 125.358 35.2201 123.152C35.3176 122.98 35.0764 122.805 34.9597 122.974Z" fill="#353541"/>
<path fill-rule="evenodd" clip-rule="evenodd" d="M34.1397 133.436C34.2282 135.123 34.8774 136.29 36.1378 137.405C37.2705 138.41 38.1636 139.241 38.4149 140.806C38.5781 141.817 38.3778 142.871 38.7052 143.846C38.7704 144.039 39.0313 143.942 39.0571 143.78C39.3089 142.096 39.0705 140.006 38.091 138.586C37.5577 137.813 36.6565 137.242 35.9771 136.612C35.0226 135.725 34.5465 134.71 34.4203 133.42C34.4025 133.261 34.1312 133.276 34.1397 133.436Z" fill="#353541"/>
<path fill-rule="evenodd" clip-rule="evenodd" d="M39.8079 127.75C40.6328 129.301 40.4267 130.843 39.9748 132.466C39.6901 133.491 39.1891 134.608 39.3348 135.685C39.3544 135.834 39.5534 135.824 39.6049 135.704C40.1341 134.445 40.4998 132.8 40.7387 131.442C40.9864 130.017 40.8176 128.869 40.0349 127.64C39.9495 127.51 39.7298 127.605 39.8079 127.75Z" fill="#353541"/>
<path fill-rule="evenodd" clip-rule="evenodd" d="M125.139 117.204C121.411 119.019 123.193 124.197 124.923 126.722C126.212 128.606 131.229 132.64 132.873 128.943C133.004 128.646 132.676 128.233 132.353 128.339C131.277 128.69 130.483 129.033 129.349 128.661C127.949 128.202 126.805 126.998 125.914 125.878C124.99 124.719 124.359 123.325 124.087 121.873C123.752 120.105 124.459 118.949 125.503 117.629C125.688 117.396 125.39 117.081 125.139 117.204Z" fill="#353541"/>
<path fill-rule="evenodd" clip-rule="evenodd" d="M124.936 117.92C122.377 119.619 124.831 123.287 126.243 124.822C127.549 126.239 132.028 129.908 134.069 128.026C134.298 127.817 134.252 127.413 133.939 127.31C133.166 127.057 132.329 127.143 131.533 126.904C130.267 126.524 129.132 125.736 128.105 124.924C126.007 123.27 124.286 120.967 125.571 118.357C125.763 117.956 125.219 117.729 124.936 117.92Z" fill="#353541"/>
<path fill-rule="evenodd" clip-rule="evenodd" d="M131.883 116.309C135.927 111.537 138.904 105.217 137.763 98.8611C136.902 94.0788 132.955 87.7344 127.346 88.7191C127.016 88.7782 126.954 89.301 127.298 89.3941C132.631 90.8564 135.544 94.4711 136.557 99.8788C137.574 105.295 134.645 111.766 131.649 116.147C131.541 116.299 131.766 116.447 131.883 116.309Z" fill="#353541"/>
<path fill-rule="evenodd" clip-rule="evenodd" d="M-10.3809 65.4272C-9.69065 59.8796 -7.38966 54.4807 -3.52923 50.4011C-1.62029 48.3825 0.774895 46.8818 3.47826 46.2165C6.52114 45.4674 9.24862 46.5198 12.1005 47.4387C12.5668 47.5878 12.8736 46.972 12.4877 46.6833C7.49217 42.9347 0.80745 44.7927 -3.49867 48.6067C-8.14061 52.7199 -10.8048 59.2629 -10.9239 65.3915C-10.9323 65.7411 -10.4229 65.7779 -10.3809 65.4272Z" fill="#353541"/>
<path fill-rule="evenodd" clip-rule="evenodd" d="M29.1335 51.0876C30.3529 53.0018 30.5498 54.8319 29.965 57.0425C29.4624 58.9461 28.7435 60.22 26.8052 60.473C26.3708 60.5271 26.3033 61.0294 26.5033 61.3323C28.1139 63.7457 30.6603 59.4242 31.0955 58.2537C31.8771 56.1602 32.3955 51.5064 29.5821 50.5881C29.312 50.5006 28.9557 50.8055 29.1335 51.0876Z" fill="#353541"/>
<path fill-rule="evenodd" clip-rule="evenodd" d="M28.7823 51.4547C29.0805 53.0804 28.4706 54.7322 27.5363 56.0467C26.6098 57.3492 25.2815 57.547 24.0838 58.3924C23.8253 58.5766 23.9064 59.0813 24.2247 59.1525C25.9012 59.5292 27.5304 57.9125 28.4633 56.6917C29.6656 55.1188 29.9988 53.2037 29.4275 51.3307C29.3089 50.9328 28.7048 51.0288 28.7823 51.4547Z" fill="#353541"/>
<path fill-rule="evenodd" clip-rule="evenodd" d="M110.181 77.366C107.982 78.024 106.837 79.8314 106.068 81.8904C105.379 83.7414 104.738 87.1744 106.12 88.8357C106.378 89.1461 106.869 88.9607 106.906 88.5785C107.063 87.002 106.638 85.4519 106.88 83.8278C107.219 81.5619 108.388 79.2593 110.422 78.0986C110.785 77.8957 110.628 77.2317 110.181 77.366Z" fill="#353541"/>
<path fill-rule="evenodd" clip-rule="evenodd" d="M110.725 78.9179C109.346 80.4103 108.273 81.999 107.798 83.9988C107.477 85.3518 107.403 87.6165 108.907 88.2702C109.144 88.3737 109.43 88.1679 109.442 87.9192C109.472 87.2929 109.232 86.8357 109.086 86.2215C108.879 85.3551 109.058 84.414 109.278 83.5722C109.667 82.0974 110.36 80.6149 111.195 79.3468C111.389 79.0514 110.977 78.6427 110.725 78.9179Z" fill="#353541"/>
<path fill-rule="evenodd" clip-rule="evenodd" d="M77.2647 58.5764C84.9117 61.4975 92.8386 63.5958 100.41 66.754C104.038 68.2687 107.61 69.8579 111.383 70.9822C114.553 71.926 118.471 72.8246 121.654 71.6301C122.111 71.4584 122.094 70.6458 121.594 70.5403C118.097 69.7933 114.605 69.8698 111.114 68.8167C107.362 67.685 103.793 65.9698 100.19 64.4489C92.9517 61.3984 85.2065 58.9302 77.4336 57.7701C76.9528 57.699 76.8416 58.4148 77.2647 58.5764Z" fill="#353541"/>
<path fill-rule="evenodd" clip-rule="evenodd" d="M66.4054 53.8427C63.3094 52.8252 60.1549 52.027 57.1249 50.8111C53.8701 49.5052 50.7676 47.7969 47.5791 46.3389C44.7804 45.0585 41.7732 44.2401 38.8629 43.2564C35.6519 42.167 32.9999 40.2958 29.9595 38.9415C29.194 38.5987 28.7339 39.5981 29.1204 40.1584C30.7048 42.4519 33.9172 43.5584 36.4294 44.5037C39.627 45.7047 42.9638 46.5096 46.1845 47.6448C52.7409 49.9557 59.1932 54.0813 66.2996 54.3593C66.5946 54.3707 66.6968 53.9378 66.4054 53.8427Z" fill="#353541"/>
<path fill-rule="evenodd" clip-rule="evenodd" d="M37.9231 34.0972C35.582 33.3005 33.3234 32.2375 31.0905 31.1854C29.6529 30.5069 28.2672 29.7911 26.9914 28.8464C26.0308 28.1342 25.5351 27.0077 24.5088 26.409C24.1825 26.2187 23.8563 26.4012 23.7856 26.7548C23.3576 28.9448 26.333 30.6049 27.9618 31.3801C31.1521 32.9015 34.6074 33.0486 37.8977 34.1695C37.9421 34.1851 37.9674 34.1128 37.9231 34.0972Z" fill="#353541"/>
<path fill-rule="evenodd" clip-rule="evenodd" d="M115.082 61.7883C117.794 63.1434 120.114 64.3979 123.156 64.7966C125.844 65.1484 129.452 64.8969 131.753 63.4073C132.29 63.0607 132.054 62.3228 131.411 62.368C128.621 62.5693 126.137 63.4793 123.253 63.3541C120.589 63.2396 117.594 62.6136 115.176 61.5205C115.004 61.4417 114.919 61.7069 115.082 61.7883Z" fill="#353541"/>
<path fill-rule="evenodd" clip-rule="evenodd" d="M91.3315 41.9348C97.4523 44.4506 103.409 47.2596 109.594 49.63C112.275 50.6585 114.873 51.9038 117.356 53.3427C119.83 54.7765 121.661 56.7876 123.916 58.4641C124.388 58.8143 124.949 58.2566 124.74 57.7641C122.89 53.3839 116.282 50.7688 112.223 48.9922C105.546 46.0703 98.4123 43.7303 91.4476 41.6045C91.2294 41.5371 91.1236 41.8488 91.3315 41.9348Z" fill="#353541"/>
<path fill-rule="evenodd" clip-rule="evenodd" d="M66.9998 32.6508C60.3591 29.4502 52.9015 28.412 45.9269 25.9727C43.0335 24.9617 40.0485 24.3061 37.0176 23.8707C34.2993 23.4805 30.7146 22.8874 28.1047 23.975C27.6483 24.1653 27.6502 24.9689 28.1677 25.088C30.6535 25.6567 33.4422 25.2632 36.0015 25.5071C39.4786 25.8391 42.9551 26.5141 46.3314 27.3903C49.5389 28.2218 52.6794 29.2384 55.9151 29.9949C59.5534 30.845 63.3954 31.6041 66.8994 32.9312C67.0856 33.0003 67.1709 32.7312 66.9998 32.6508Z" fill="#353541"/>
<path fill-rule="evenodd" clip-rule="evenodd" d="M75.4903 36.3371C76.3651 36.6998 77.2624 36.9985 78.1613 37.3032C79.0273 37.5964 79.8975 38.0461 80.8066 38.1587C81.0792 38.1918 81.1991 37.8611 81.0546 37.6682C79.9632 36.2197 77.3341 36.1377 75.7096 35.7128C75.3005 35.606 75.0936 36.1738 75.4903 36.3371Z" fill="#353541"/>
<path fill-rule="evenodd" clip-rule="evenodd" d="M99.395 114.761C103.186 113.669 108.906 114.346 111.926 111.445C112.231 111.151 112.01 110.601 111.562 110.685C109.575 111.067 107.722 112.09 105.711 112.534C103.544 113.007 101.385 113.425 99.2612 114.075C98.8372 114.205 98.9573 114.888 99.395 114.761Z" fill="#353541"/>
<path fill-rule="evenodd" clip-rule="evenodd" d="M93.8884 113.762C92.2347 113.678 90.0942 113.009 88.5149 113.611C88.1907 113.735 88.1909 114.202 88.4523 114.383C89.8424 115.344 92.1792 115.144 93.7903 115.134C94.6699 115.131 94.7843 113.808 93.8884 113.762Z" fill="#353541"/>
<path fill-rule="evenodd" clip-rule="evenodd" d="M7.5617 74.9131C9.41812 79.5743 13.8797 84.9109 18.5899 86.8869C18.9067 87.0203 19.2991 86.6229 19.1042 86.3163C17.8726 84.3738 15.9074 83.0484 14.2247 81.5177C11.9645 79.4556 9.84905 77.234 8.43703 74.4916C8.14981 73.9274 7.32981 74.3333 7.5617 74.9131Z" fill="#353541"/>
<path fill-rule="evenodd" clip-rule="evenodd" d="M20.9773 89.0817C21.9928 90.0789 23.1555 90.7938 24.5488 91.1043C24.8721 91.1773 25.2943 90.7792 24.9719 90.4833C24.0503 89.639 22.9044 89.0813 22.0181 88.1996C21.3946 87.5837 20.3527 88.4691 20.9773 89.0817Z" fill="#353541"/>
<path fill-rule="evenodd" clip-rule="evenodd" d="M20.4062 70.3828C19.4707 70.5396 18.6797 70.9889 17.868 71.4605C17.1825 71.862 15.9891 72.2955 15.7435 73.1154C15.676 73.3391 15.7775 73.5704 16.0009 73.6544C16.787 73.949 17.5599 73.2884 18.1841 72.8673C19.0121 72.3073 19.8113 71.7556 20.716 71.3241C21.2377 71.0736 20.9618 70.2882 20.4062 70.3828Z" fill="#353541"/>
<path fill-rule="evenodd" clip-rule="evenodd" d="M21.9178 73.3821C21.2996 73.8072 20.7612 74.3047 20.2512 74.8527C19.8016 75.3445 19.2753 75.8757 19.1867 76.5589C19.1612 76.7733 19.4125 76.9299 19.5963 76.8376C20.1094 76.5804 20.3969 76.0667 20.7078 75.602C21.1542 74.9356 21.6614 74.3219 22.2637 73.7897C22.5247 73.5565 22.1962 73.1938 21.9178 73.3821Z" fill="#353541"/>
<path fill-rule="evenodd" clip-rule="evenodd" d="M26.4203 74.8219C25.8015 75.9685 24.9844 76.9495 24.2397 78.0131C23.6472 78.8589 22.7484 79.8148 22.9721 80.9012C23.0067 81.0813 23.2168 81.1976 23.3862 81.1095C24.2961 80.6317 24.6452 79.5067 25.1645 78.6536C25.8547 77.5192 26.4752 76.3362 26.9824 75.108C27.116 74.7802 26.5923 74.5058 26.4203 74.8219Z" fill="#353541"/>
<path fill-rule="evenodd" clip-rule="evenodd" d="M30.2042 78.7847C29.6831 79.9472 28.9642 80.9166 28.1538 81.8888C27.4069 82.7855 26.5604 83.4978 26.0519 84.5669C25.8979 84.8948 26.3 85.1321 26.5699 85.0312C28.8877 84.1604 30.2716 81.267 30.9725 79.0565C31.1349 78.5469 30.4145 78.3067 30.2042 78.7847Z" fill="#353541"/>
<path fill-rule="evenodd" clip-rule="evenodd" d="M35.6816 81.2946C35.3084 82.2045 35.0501 83.1658 34.7299 84.098C34.4571 84.8955 34.1434 85.7045 34.3695 86.5425C34.454 86.8639 34.7974 86.9845 35.0661 86.7873C36.4433 85.7724 36.8357 82.9533 36.646 81.3657C36.5834 80.8399 35.8576 80.8673 35.6816 81.2946Z" fill="#353541"/>
<path fill-rule="evenodd" clip-rule="evenodd" d="M41.8324 83.0661C41.5181 84.113 41.172 85.1505 40.8484 86.1978C40.5341 87.2133 40.1764 88.2154 40.5011 89.2616C40.5963 89.5737 40.9777 89.6911 41.1921 89.4065C41.8017 88.5963 41.9198 87.6244 42.1447 86.6532C42.3955 85.5822 42.678 84.5205 42.9118 83.4453C43.0651 82.7461 42.0494 82.3431 41.8324 83.0661Z" fill="#353541"/>
<path fill-rule="evenodd" clip-rule="evenodd" d="M46.9147 86.2204C46.6427 87.4464 46.1342 88.5838 45.8277 89.7976C45.5882 90.7471 45.2216 92.0377 46.0213 92.7875C46.2372 92.9926 46.5564 93.0087 46.7484 92.7513C47.3016 92.0172 47.1119 90.9705 47.2264 90.0878C47.3916 88.8557 47.637 87.637 47.7984 86.4053C47.8633 85.9002 47.0285 85.7177 46.9147 86.2204Z" fill="#353541"/>
<path fill-rule="evenodd" clip-rule="evenodd" d="M52.7212 88.848C52.4919 89.7162 52.2188 90.5671 51.9221 91.4116C51.6381 92.2199 51.1947 93.0092 51.3729 93.8784C51.4346 94.1862 51.8092 94.3178 52.0498 94.1162C52.6427 93.6213 52.7977 92.9226 53.0175 92.2025C53.3196 91.2215 53.5786 90.2272 53.7908 89.2238C53.9358 88.5327 52.9156 88.1319 52.7212 88.848Z" fill="#353541"/>
<path fill-rule="evenodd" clip-rule="evenodd" d="M59.2475 92.3139C58.8818 93.2707 58.6316 94.2718 58.3848 95.2631C58.1815 96.0887 57.934 96.9246 58.4399 97.6598C58.5578 97.8285 58.8276 97.8274 58.9728 97.703C59.6079 97.1565 59.5839 96.3211 59.7083 95.5361C59.8644 94.5296 60.0542 93.5165 60.1406 92.4985C60.1915 91.97 59.4303 91.8355 59.2475 92.3139Z" fill="#353541"/>
<path fill-rule="evenodd" clip-rule="evenodd" d="M64.2261 93.9778C64.1315 94.7936 64.0319 95.6077 63.9372 96.4235C63.8464 97.176 63.61 97.9697 63.9378 98.681C64.0293 98.883 64.316 98.897 64.4389 98.7205C64.8356 98.164 64.7867 97.5045 64.8327 96.8377C64.8935 95.903 64.9559 94.9688 65.0167 94.0341C65.0524 93.5224 64.2882 93.4754 64.2261 93.9778Z" fill="#353541"/>
<path fill-rule="evenodd" clip-rule="evenodd" d="M70.596 94.8911C70.2653 96.9935 68.7482 100.981 70.522 102.735C70.753 102.961 71.1369 102.924 71.2539 102.601C71.6479 101.533 71.3203 100.29 71.3494 99.1666C71.3891 97.7611 71.5796 96.3681 71.6963 94.9694C71.7591 94.2494 70.7063 94.1989 70.596 94.8911Z" fill="#353541"/>
<path fill-rule="evenodd" clip-rule="evenodd" d="M76.6529 97.6485C76.4145 98.5634 76.2984 99.4768 76.3058 100.423C76.3104 101.334 76.2656 102.402 76.8944 103.129C77.0301 103.289 77.3132 103.292 77.4258 103.103C77.8207 102.452 77.7411 101.754 77.6741 101.02C77.5782 99.9689 77.5588 98.9155 77.7216 97.869C77.8174 97.2548 76.8058 97.0452 76.6529 97.6485Z" fill="#353541"/>
<path fill-rule="evenodd" clip-rule="evenodd" d="M85.0915 100.613C84.8448 101.704 84.1971 104.063 85.399 104.777C85.5517 104.867 85.7606 104.856 85.8596 104.695C86.2223 104.125 86.0539 103.606 85.9506 102.981C85.8252 102.25 85.8908 101.527 85.9983 100.801C86.0772 100.282 85.2083 100.097 85.0915 100.613Z" fill="#353541"/>
<path fill-rule="evenodd" clip-rule="evenodd" d="M90.356 100.335C90.7415 101.434 90.9245 102.584 91.1524 103.721C91.3371 104.63 91.4643 105.729 92.31 106.253C92.4965 106.368 92.7871 106.313 92.8509 106.079C93.1217 105.104 92.59 104.09 92.3496 103.145C92.0641 102.03 91.7973 100.919 91.3618 99.8525C91.0846 99.1756 90.1238 99.6723 90.356 100.335Z" fill="#353541"/>
<path fill-rule="evenodd" clip-rule="evenodd" d="M97.5358 101.204C97.6843 102.042 97.8769 102.87 98.1486 103.678C98.3863 104.378 98.6503 105.46 99.4658 105.677C99.6566 105.727 99.8979 105.655 99.9559 105.443C100.132 104.777 99.7236 104.165 99.4799 103.566C99.1381 102.732 98.9254 101.851 98.748 100.969C98.5909 100.192 97.3959 100.42 97.5358 101.204Z" fill="#353541"/>
<path fill-rule="evenodd" clip-rule="evenodd" d="M68.2666 87.8129C72.3556 90.3643 77.2472 90.5841 81.7601 92.0182C84.0917 92.758 86.4903 93.2703 88.8858 93.7649C91.4674 94.2972 94.4265 95.2944 97.0569 94.8896C97.4604 94.8283 97.6034 94.227 97.2434 94.0119C95.393 92.9059 93.086 92.7636 90.9898 92.3889C88.0622 91.8642 85.1504 91.2787 82.2593 90.6026C77.7183 89.5425 72.7912 89.3452 68.5776 87.206C68.2286 87.028 67.941 87.6099 68.2666 87.8129Z" fill="#353541"/>
<path fill-rule="evenodd" clip-rule="evenodd" d="M62.0039 83.637C61.1673 83.2601 60.3183 82.9655 59.4488 82.6822C58.7596 82.4585 57.9087 82.1485 57.2499 82.5685C56.9622 82.7517 56.8627 83.0139 56.9791 83.3391C57.2543 84.1058 58.0926 84.3043 58.8058 84.5124C59.6813 84.7683 60.5914 84.9201 61.4786 85.1321C62.4667 85.3667 62.9399 84.0619 62.0039 83.637Z" fill="#353541"/>
<path fill-rule="evenodd" clip-rule="evenodd" d="M79.6279 136.449C78.8131 136.293 77.9245 135.928 77.0976 135.944C76.3517 135.955 75.9184 136.899 76.5966 137.37C77.406 137.929 78.5683 137.915 79.5241 138.005C80.547 138.099 80.5899 136.632 79.6279 136.449Z" fill="#353541"/>
<path fill-rule="evenodd" clip-rule="evenodd" d="M83.1078 138.309C89.5197 140.836 95.6323 143.386 102.491 144.489C105.768 145.014 109.099 145.177 112.407 145.355C115.651 145.53 119.272 146.305 122.485 145.832C123.143 145.735 123.115 144.85 122.575 144.621C119.861 143.471 116.429 143.706 113.52 143.552C110.211 143.377 106.908 143.197 103.615 142.789C96.7824 141.941 89.8214 139.925 83.2532 137.895C82.9809 137.808 82.8418 138.204 83.1078 138.309Z" fill="#353541"/>
<path fill-rule="evenodd" clip-rule="evenodd" d="M-21.3463 78.1844C-21.1806 77.3345 -20.3603 76.7755 -19.5098 76.9396C-18.6588 77.102 -18.1003 77.9239 -18.2627 78.775C-18.9353 82.3022 -12.5398 87.4931 -2.13551 93.3412C10.8085 100.619 29.7112 108.535 49.2271 115.521C65.677 121.409 82.584 126.616 96.8316 129.926C106.364 132.139 114.674 133.495 120.813 133.626C126.354 133.745 129.913 132.958 130.616 130.988C130.637 130.929 130.661 130.85 130.681 130.751C130.876 129.907 131.72 129.384 132.564 129.579C133.406 129.776 133.93 130.617 133.734 131.46C133.693 131.639 133.636 131.833 133.564 132.037C132.325 135.49 127.704 136.907 120.741 136.758C114.378 136.622 105.854 135.236 96.1232 132.977C81.7916 129.649 64.7652 124.404 48.1773 118.467C28.4796 111.416 9.39851 103.424 -3.67045 96.0763C-15.2761 89.5551 -22.318 83.2881 -21.3463 78.1844Z" fill="#353541"/>
<path fill-rule="evenodd" clip-rule="evenodd" d="M-23.4805 94.5428C-19.0712 97.659 -15.7165 101.759 -11.0167 104.585C-6.37574 107.372 -0.912928 110.526 4.33325 111.88C4.86859 112.017 5.16166 111.398 4.76037 111.043C0.681713 107.438 -5.25596 105.724 -9.98707 103.099C-14.6712 100.497 -18.6019 96.8382 -23.283 94.2541C-23.4752 94.1497 -23.6683 94.4104 -23.4805 94.5428Z" fill="#353541"/>
<path fill-rule="evenodd" clip-rule="evenodd" d="M19.1909 204.206C20.8007 203.491 22.0429 202.041 23.6258 201.218C24.5739 200.726 25.5736 200.376 26.6491 200.352C27.561 200.331 28.3832 200.811 29.2829 200.552C29.6653 200.44 29.8966 200.066 29.7189 199.679C28.7972 197.642 25.547 198.335 23.9198 198.937C21.9418 199.671 19.3675 201.655 18.5856 203.665C18.4414 204.033 18.8542 204.356 19.1909 204.206Z" fill="#353541"/>
<path fill-rule="evenodd" clip-rule="evenodd" d="M41.7945 205.213C41.8487 205.232 41.8787 205.146 41.8245 205.127C41.7703 205.108 41.7386 205.193 41.7945 205.213Z" fill="#353541"/>
<path fill-rule="evenodd" clip-rule="evenodd" d="M41.6553 205.06C40.3618 206.887 41.8186 209.245 42.9307 210.776C43.8112 211.984 46.5625 215.491 48.3405 214.554C48.5872 214.425 48.6968 214.186 48.6626 213.916C48.5836 213.279 48.1539 212.942 47.6355 212.61C46.6466 211.978 45.7928 211.167 44.9975 210.31C43.6377 208.843 42.6038 207.036 41.9934 205.133C41.9456 204.985 41.7556 204.916 41.6553 205.06Z" fill="#353541"/>
<path fill-rule="evenodd" clip-rule="evenodd" d="M58.9336 216.376C60.7538 215.114 62.2267 214.216 64.4466 213.849C65.8885 213.612 68.126 213.863 69.1994 212.736C69.4151 212.511 69.4968 212.052 69.1588 211.874C67.5636 211.03 64.8923 211.861 63.2288 212.283C61.2528 212.785 59.1853 213.847 58.1112 215.633C57.7761 216.192 58.4145 216.734 58.9336 216.376Z" fill="#353541"/>
<path fill-rule="evenodd" clip-rule="evenodd" d="M2.30376 190.747C1.10376 192.313 1.02626 194.32 1.5032 196.167C1.90185 197.712 3.1792 200.506 5.07993 200.639C5.48703 200.667 6.21326 200.339 6.12781 199.831C5.9817 198.986 5.18664 198.733 4.63814 198.182C3.13565 196.68 2.04004 193.305 3.17631 191.352C3.51954 190.764 2.72403 190.197 2.30376 190.747Z" fill="#353541"/>
<path fill-rule="evenodd" clip-rule="evenodd" d="M1.56253 221.974C0.652522 222.873 -0.183313 223.886 -0.754862 225.04C-1.46095 226.477 -2.45026 228.263 -2.40928 229.891C-2.3964 230.39 -1.83459 230.593 -1.51058 230.207C-0.686682 229.217 -0.44963 227.801 -0.0259483 226.595C0.500878 225.106 1.09435 223.685 2.02766 222.4C2.23995 222.111 1.8222 221.719 1.56253 221.974Z" fill="#353541"/>
<path fill-rule="evenodd" clip-rule="evenodd" d="M6.74976 223.518C5.66228 224.664 5.05108 226.126 4.41173 227.557C3.71884 229.098 2.90276 230.764 2.59236 232.425C2.49659 232.934 3.18605 233.042 3.45491 232.728C4.42068 231.582 4.87204 230.061 5.44656 228.688C6.09953 227.129 6.94818 225.627 7.49979 224.036C7.64698 223.617 7.09091 223.162 6.74976 223.518Z" fill="#353541"/>
<path fill-rule="evenodd" clip-rule="evenodd" d="M11.9067 226.56C11.0351 228.494 8.9117 231.381 9.73624 233.599C9.9009 234.045 10.4686 233.884 10.6342 233.549C11.0963 232.591 11.0894 231.382 11.3639 230.343C11.6874 229.133 12.0608 227.939 12.3974 226.734C12.4864 226.407 12.041 226.256 11.9067 226.56Z" fill="#353541"/>
<path fill-rule="evenodd" clip-rule="evenodd" d="M15.4225 226.26C15.774 229.394 15.2144 232.883 15.9803 235.941C16.1442 236.604 17.0519 236.532 17.1485 235.868C17.598 232.75 16.7872 229.168 16.2507 226.098C16.1597 225.559 15.3644 225.726 15.4225 226.26Z" fill="#353541"/>
<path fill-rule="evenodd" clip-rule="evenodd" d="M19.2306 228.461C20.1478 230.121 20.9318 231.609 21.3715 233.479C21.5693 234.329 21.6742 235.202 21.7621 236.071C21.8373 236.802 21.7381 237.321 22.217 237.886C22.4283 238.136 22.8323 238.115 23.0206 237.847C23.8586 236.634 23.0012 234.094 22.6733 232.773C22.2314 231.005 21.3874 229.005 19.8331 227.949C19.5051 227.727 19.0251 228.09 19.2306 228.461Z" fill="#353541"/>
<path fill-rule="evenodd" clip-rule="evenodd" d="M25.3476 229.57C27.5712 232.393 28.1456 235.712 28.379 239.209C28.4438 240.175 29.9202 239.881 29.8569 238.921C29.6073 235.166 28.6884 231.761 26.0824 228.95C25.6574 228.494 24.9633 229.082 25.3476 229.57Z" fill="#353541"/>
<path fill-rule="evenodd" clip-rule="evenodd" d="M31.7132 232.025C33.1744 234.722 32.7044 238.02 34.3638 240.652C34.9196 241.534 36.1264 240.747 35.5599 239.874C33.9395 237.383 33.9994 234.145 32.3098 231.641C32.0801 231.302 31.5233 231.673 31.7132 232.025Z" fill="#353541"/>
<path fill-rule="evenodd" clip-rule="evenodd" d="M35.5834 232.577C37.3286 233.478 37.9417 235.316 38.2736 237.14C38.4998 238.382 38.287 240.889 39.3732 241.707C39.7024 241.951 40.1176 241.752 40.2684 241.417C40.5968 240.687 40.1355 239.684 39.9884 238.931C39.7896 237.905 39.5488 236.888 39.2444 235.89C38.689 234.092 37.7686 232.556 35.9685 231.822C35.527 231.64 35.1541 232.354 35.5834 232.577Z" fill="#353541"/>
<path fill-rule="evenodd" clip-rule="evenodd" d="M39.1722 232.499C40.542 234.201 41.7513 235.955 42.8289 237.852C43.7555 239.481 44.6372 241.363 46.084 242.593C46.6023 243.036 47.4076 242.314 47.0875 241.739C46.0238 239.839 44.6739 238.059 43.5436 236.186C42.5352 234.512 41.4355 232.929 39.8567 231.749C39.3779 231.389 38.8169 232.055 39.1722 232.499Z" fill="#353541"/>
<path fill-rule="evenodd" clip-rule="evenodd" d="M4.52029 217.175C9.08633 218.732 13.4075 220.785 18.0245 222.222C22.6234 223.654 27.2512 224.966 31.8253 226.468C36.0914 227.869 40.397 229.221 44.8053 230.107C47.1192 230.571 49.4377 230.928 51.7906 231.129C53.4763 231.274 55.6041 231.632 57.1494 230.785C57.7112 230.479 57.5353 229.708 56.9254 229.616C52.6742 228.96 48.4362 228.955 44.1997 228.037C39.888 227.102 35.674 225.715 31.4894 224.339C22.6602 221.437 13.6111 219.297 4.67902 216.724C4.38409 216.638 4.22669 217.076 4.52029 217.175Z" fill="#353541"/>
<path fill-rule="evenodd" clip-rule="evenodd" d="M48.5741 149.354C48.7467 149.582 49.215 149.81 49.8708 149.992C50.7251 150.229 51.8226 150.336 52.9739 150.222C54.1213 150.108 55.313 149.774 56.3649 149.128C57.6338 148.349 58.7042 147.099 59.2353 145.209C60.2532 140.62 62.4027 139.424 64.2383 138.408C65.6487 137.624 66.8224 136.973 66.6927 134.017C64.865 135.815 62.8654 135.459 60.8367 135.097C58.4082 134.665 55.9243 134.222 53.8008 139.578C53.3959 140.61 52.4041 141.389 51.3079 142.25C49.3516 143.794 46.9892 145.654 48.5741 149.354ZM49.451 151.502C48.4131 151.215 47.6095 150.739 47.2418 150.178C47.2105 150.135 47.1832 150.087 47.1614 150.039C45.0442 145.19 47.9399 142.911 50.3375 141.019C51.2596 140.291 52.0958 139.635 52.3449 139.01C54.9355 132.455 58.0603 133.012 61.1099 133.558C63.0645 133.905 64.9783 134.247 66.5631 131.633C66.6738 131.428 66.8773 131.274 67.1247 131.232C67.5505 131.16 67.9562 131.45 68.0258 131.877C68.9706 137.573 67.2045 138.554 64.9966 139.78C63.4434 140.639 61.6251 141.648 60.7602 145.56L60.7501 145.599C60.1034 147.933 58.7714 149.487 57.1811 150.462C55.9129 151.24 54.4881 151.644 53.1283 151.779C51.7724 151.913 50.4709 151.783 49.451 151.502Z" fill="#353541"/>
<path fill-rule="evenodd" clip-rule="evenodd" d="M66.635 134.103C66.4746 136.367 64.162 136.976 62.3418 137.623C59.6852 138.565 56.3996 139.821 54.8494 142.305C53.7226 144.115 52.9032 146.09 51.5953 147.79C50.9505 148.632 49.3524 150.265 48.1723 149.437C47.8923 149.241 48.0499 148.792 48.3904 148.816C50.0482 148.921 51.1662 147.041 51.9285 145.838C52.8858 144.332 53.7033 142.746 54.7587 141.302C56.001 139.605 58.2059 138.704 60.0864 137.938C62.0346 137.142 65.9241 136.589 66.3187 134.079C66.3521 133.884 66.6498 133.898 66.635 134.103Z" fill="#353541"/>
<path fill-rule="evenodd" clip-rule="evenodd" d="M60.7316 142.779C59.6043 144.039 58.3674 144.544 56.6901 144.626C55.1776 144.702 53.9612 144.792 52.7831 145.854C52.0263 146.543 51.5236 147.49 50.655 148.045C50.4836 148.155 50.3436 147.917 50.4253 147.774C51.2817 146.303 52.775 144.822 54.4243 144.325C55.3236 144.056 56.3873 144.175 57.3115 144.108C58.6079 144.012 59.6171 143.519 60.5226 142.591C60.6362 142.478 60.8398 142.66 60.7316 142.779Z" fill="#353541"/>
<path fill-rule="evenodd" clip-rule="evenodd" d="M59.8662 134.797C58.2529 135.491 57.4456 136.822 56.7867 138.372C56.3672 139.35 56.0601 140.534 55.2725 141.284C55.164 141.388 55.0114 141.255 55.0498 141.13C55.4212 139.815 56.1648 138.303 56.8309 137.095C57.5254 135.828 58.3786 135.038 59.7581 134.569C59.9059 134.521 60.0165 134.731 59.8662 134.797Z" fill="#353541"/>
<path fill-rule="evenodd" clip-rule="evenodd" d="M110.075 172.889C110.36 172.93 110.854 172.754 111.447 172.411C112.216 171.967 113.055 171.258 113.781 170.353C114.501 169.455 115.095 168.368 115.37 167.165C115.701 165.708 115.558 164.067 114.573 162.363C112.011 158.428 112.664 156.059 113.219 154.037C113.648 152.482 114.004 151.188 111.798 149.213C111.806 151.778 110.151 152.956 108.473 154.154C106.466 155.587 104.413 157.054 106.758 162.319C107.206 163.324 107.071 164.581 106.922 165.967C106.655 168.446 106.334 171.433 110.075 172.889ZM112.233 173.767C111.277 174.323 110.354 174.561 109.692 174.412C109.658 174.403 109.623 174.391 109.588 174.377C104.641 172.501 105.034 168.836 105.362 165.799C105.488 164.632 105.602 163.576 105.325 162.957C102.46 156.523 105.04 154.68 107.56 152.881C109.181 151.725 110.774 150.59 109.991 147.606C109.937 147.393 109.972 147.156 110.109 146.96C110.352 146.605 110.845 146.517 111.199 146.765C115.934 150.073 115.396 152.022 114.728 154.46C114.257 156.168 113.704 158.174 115.896 161.524L115.919 161.562C117.137 163.66 117.314 165.699 116.899 167.516C116.57 168.965 115.86 170.266 115.006 171.332C114.155 172.395 113.152 173.235 112.233 173.767Z" fill="#353541"/>
<path fill-rule="evenodd" clip-rule="evenodd" d="M111.822 149.317C113.331 151.014 112.147 153.093 111.335 154.848C110.148 157.406 108.751 160.631 109.442 163.478C109.944 165.548 110.78 167.518 111.084 169.64C111.234 170.69 111.286 172.976 109.866 173.24C109.53 173.303 109.321 172.875 109.574 172.648C110.812 171.536 110.249 169.424 109.922 168.036C109.515 166.302 108.953 164.606 108.66 162.843C108.319 160.767 109.216 158.561 109.982 156.681C110.775 154.732 113.102 151.567 111.587 149.528C111.466 149.368 111.686 149.162 111.822 149.317Z" fill="#353541"/>
<path fill-rule="evenodd" clip-rule="evenodd" d="M113.892 159.606C114.006 161.293 113.5 162.529 112.385 163.786C111.381 164.919 110.596 165.852 110.532 167.437C110.49 168.46 110.819 169.482 110.605 170.492C110.568 170.691 110.294 170.624 110.253 170.468C109.798 168.826 109.784 166.722 110.588 165.196C111.024 164.365 111.849 163.688 112.452 162.98C113.288 161.986 113.644 160.922 113.612 159.625C113.611 159.465 113.88 159.447 113.892 159.606Z" fill="#353541"/>
<path fill-rule="evenodd" clip-rule="evenodd" d="M107.583 154.643C106.954 156.281 107.341 157.786 107.982 159.344C108.389 160.329 109.019 161.377 109.005 162.463C109.002 162.613 108.806 162.629 108.741 162.516C108.058 161.329 107.5 159.738 107.101 158.42C106.686 157.038 106.717 155.874 107.345 154.563C107.413 154.419 107.644 154.489 107.583 154.643Z" fill="#353541"/>
<path fill-rule="evenodd" clip-rule="evenodd" d="M-2.25467 129.531C-2.25467 129.531 -0.381862 128.593 -0.0880288 129.122C0.206382 129.65 1.56057 126.615 1.56057 126.615C1.56057 126.615 3.75128 127.278 3.35726 126.13C2.96382 124.98 2.48328 123.322 2.80159 122.263C3.1199 121.205 3.93919 120.707 6.1141 119.649C8.289 118.591 -3.5197 108.602 -6.94712 116.23C-8.21181 119.83 -6.94787 122.295 -6.94787 122.295C-7.08883 123.558 -7.23308 124.82 -7.37462 126.084C-7.37462 126.084 -10.4735 126.756 -14.2361 128.078C-18.5967 128.537 -31.6005 135.914 -20.3735 142.594C-19.8867 149.541 -21.0029 155.24 -25.1003 160.934C-26.1408 162.377 -34.32 167.57 -34.32 167.57C-34.514 169.63 -33.0661 170.589 -33.2601 172.649C-31.539 173.608 -29.8185 174.569 -28.0991 175.527C-28.0991 175.527 -30.3085 171.824 -30.0087 170.067C-27.4572 167.338 -21.2435 167.025 -19.2964 165.476C-17.3466 163.93 -12.0621 158.019 -12.0621 158.019C-12.0621 158.019 -9.36873 166.146 -8.57341 168.127C-7.77973 170.107 -5.47144 180.496 -5.67537 181.224C-5.87438 181.953 -7.98344 183.711 -7.98298 184.776C-7.98522 185.839 1.29066 188.673 1.29066 188.673C1.29066 188.673 1.21847 186.147 -0.488682 184.801C-3.89143 182.76 -1.45177 174.224 -1.247 168.624C-1.18891 167.103 -4.12982 153.897 -4.12982 153.897C-3.03939 149.149 -0.868968 145.908 0.915003 140.741C3.08558 142.927 5.25228 145.113 7.42121 147.298C10.9976 146.249 14.5763 145.199 18.156 144.152C19.1001 143.876 22.7421 143.675 22.9086 141.379C23.0684 139.148 20.7878 137.197 19.5545 137.513C19.106 137.628 18.3074 138.651 17.7945 138.971C15.8862 140.163 8.93819 142.67 8.93819 142.67C8.93819 142.67 3.51699 133.104 1.59959 132.057C-0.32545 131.006 -2.25467 129.531 -2.25467 129.531Z" fill="url(#paint1_linear_337_35780)"/>
<path fill-rule="evenodd" clip-rule="evenodd" d="M-2.59345 128.825C-2.58785 128.82 -0.0765282 127.529 0.597332 128.743L0.600616 128.744C1.07749 129.603 0.839377 126.299 0.840531 126.296C1.01818 125.9 1.48477 125.723 1.87682 125.899C2.04471 125.973 2.17047 126.098 2.25289 126.247C2.46728 126.409 2.67126 126.533 2.62024 126.384C2.41081 125.777 2.17878 125.034 2.04454 124.308L2.03385 124.254C1.89334 123.472 1.85588 122.686 2.05365 122.034C2.26322 121.332 2.63267 120.827 3.29113 120.329C3.86429 119.896 4.6496 119.488 5.77262 118.94L5.807 118.926C5.82707 118.911 5.53714 119.027 5.51894 118.995L5.51565 118.994C5.2593 118.462 4.61116 117.738 3.7362 117.008C2.82701 116.249 1.68579 115.5 0.477362 114.957C-2.06419 113.817 -4.89934 113.638 -6.21356 116.517C-7.3518 119.789 -6.24752 121.941 -6.24539 121.946C-6.1766 122.086 -6.15098 122.239 -6.16816 122.382L-6.59489 126.171C-6.63369 126.529 -6.91074 126.802 -7.25087 126.856C-7.63337 126.942 -10.5035 127.598 -13.9747 128.815C-14.0317 128.836 -14.092 128.85 -14.1516 128.856C-15.832 129.032 -18.9041 130.326 -21.2221 132.233C-22.3083 133.128 -23.2108 134.147 -23.6887 135.229C-24.1284 136.234 -24.1964 137.31 -23.6792 138.402C-23.1353 139.543 -21.9741 140.73 -19.972 141.919C-19.7429 142.055 -19.6079 142.291 -19.5948 142.537L-19.5909 142.537C-19.344 146.084 -19.5052 149.322 -20.2568 152.417C-21.0106 155.519 -22.3527 158.457 -24.4648 161.39C-25.4507 162.762 -31.9637 166.984 -33.5553 168.004C-33.5347 168.676 -33.3009 169.24 -33.0677 169.806C-32.7681 170.524 -32.469 171.243 -32.4585 172.196L-29.9536 173.593C-30.4841 172.371 -30.9532 170.927 -30.7824 169.931C-30.7568 169.774 -30.6857 169.635 -30.5831 169.527L-30.577 169.52C-28.9301 167.769 -26.0681 166.967 -23.5569 166.266C-21.9304 165.813 -20.4704 165.403 -19.7864 164.859C-17.8968 163.358 -12.6618 157.509 -12.6444 157.491C-12.3545 157.171 -11.8628 157.142 -11.5381 157.432C-11.423 157.535 -11.3469 157.665 -11.3062 157.806C-11.1134 158.387 -8.60101 165.952 -7.85249 167.83C-7.43525 168.87 -6.63871 172.04 -5.97623 175.019C-5.30944 178.039 -4.78453 180.942 -4.91963 181.432C-5.04591 181.886 -5.49444 182.411 -5.993 183L-5.99029 183.003C-6.55558 183.666 -7.20621 184.431 -7.20408 184.776C-7.20549 185.138 -2.07711 186.795 0.31648 187.548C0.130411 186.859 -0.23538 186.008 -0.95856 185.429C-3.8058 183.641 -3.15199 178.476 -2.52204 173.525C-2.30227 171.78 -2.08519 170.064 -2.03283 168.591C-1.97749 167.173 -4.88862 154.103 -4.89959 154.066C-4.92517 153.944 -4.92205 153.82 -4.89101 153.705C-4.23766 150.858 -3.21549 148.568 -2.11947 146.105C-1.35149 144.382 -0.545186 142.57 0.173011 140.484C0.315585 140.078 0.759724 139.859 1.16776 140.001C1.28605 140.042 1.38688 140.107 1.46601 140.187L7.64544 146.413C11.0487 145.416 14.5203 144.308 17.937 143.399C18.1224 143.344 18.3925 143.295 18.7129 143.234L18.7141 143.231C19.9017 143.013 22.0307 142.617 22.1237 141.322L22.129 141.265C22.1386 141.012 22.1118 140.762 22.0468 140.522C21.8872 139.899 21.5113 139.335 21.0708 138.918C20.659 138.53 20.2185 138.287 19.8747 138.262C19.8263 138.258 19.7843 138.261 19.7495 138.271C19.6947 138.285 19.3971 138.576 19.1033 138.86C18.8023 139.155 18.504 139.447 18.2048 139.632C16.2091 140.878 9.22454 143.4 9.20349 143.407C8.82233 143.547 8.40275 143.37 8.22787 143.011C7.82405 142.301 2.87283 133.645 1.22128 132.746C-0.754021 131.67 -2.72346 130.162 -2.72946 130.158C-3.07276 129.895 -3.14195 129.404 -2.877 129.059C-2.79765 128.954 -2.70224 128.877 -2.59345 128.825ZM-0.772492 129.5C-0.710989 129.614 -0.646328 129.703 -0.576965 129.773L-0.935898 129.524C-0.853172 129.483 -0.791853 129.471 -0.772492 129.5ZM1.99342 127.516C1.50543 128.475 0.475649 130.245 -0.327499 129.946C0.332225 130.395 1.15317 130.922 1.97102 131.368C3.78091 132.353 8.06311 139.598 9.28432 141.706C11.0146 141.068 15.8825 139.238 17.3746 138.306C17.5176 138.22 17.7588 137.98 18.0094 137.739C18.4487 137.309 18.8974 136.872 19.3549 136.752C19.5572 136.701 19.7685 136.683 19.989 136.702C20.6861 136.751 21.4826 137.153 22.1444 137.78C22.7808 138.38 23.3243 139.202 23.5617 140.129C23.6622 140.521 23.7106 140.935 23.6895 141.357L23.6877 141.436C23.508 143.939 20.6117 144.475 18.9965 144.775L18.9971 144.773C18.7302 144.824 18.5082 144.862 18.3709 144.906L7.67492 148.037C7.39908 148.134 7.08284 148.072 6.86335 147.851L1.22968 142.173C0.593315 143.863 -0.0603719 145.33 -0.685643 146.742C-1.73083 149.092 -2.70398 151.279 -3.3306 153.903C-2.98351 155.468 -0.409477 167.139 -0.465351 168.659C-0.524553 170.214 -0.74373 171.957 -0.971086 173.728C-1.53719 178.203 -2.13173 182.869 -0.114549 184.115C-0.0790676 184.134 -0.0430853 184.158 -0.00991308 184.185C1.98929 185.76 2.07126 188.637 2.06895 188.643L2.06837 188.645C2.07197 188.729 2.0612 188.818 2.03447 188.904C1.90774 189.318 1.46777 189.551 1.05512 189.422C1.02555 189.412 -8.77392 186.429 -8.77263 184.775C-8.76989 183.853 -7.92165 182.858 -7.19011 181.994C-6.80948 181.547 -6.47041 181.149 -6.43139 181.017C-6.367 180.781 -6.88472 178.183 -7.50959 175.365C-8.15538 172.443 -8.92155 169.37 -9.30554 168.419C-9.91231 166.905 -11.5921 161.914 -12.3828 159.542C-13.9897 161.305 -17.3158 164.904 -18.811 166.091C-19.7399 166.828 -21.3476 167.28 -23.1379 167.779C-25.3493 168.399 -27.8638 169.1 -29.2592 170.424C-29.2938 171.92 -27.6003 174.833 -27.4374 175.11C-27.2891 175.344 -27.2677 175.651 -27.4128 175.912C-27.6255 176.291 -28.1013 176.427 -28.4796 176.216L-33.6319 173.345C-33.9022 173.2 -34.0715 172.904 -34.0404 172.579C-33.9625 171.743 -34.242 171.078 -34.5161 170.413C-34.8654 169.569 -35.2197 168.723 -35.1036 167.499L-35.1003 167.5C-35.0795 167.268 -34.952 167.047 -34.7422 166.912C-34.7183 166.896 -26.6932 161.807 -25.7345 160.48C-23.7502 157.717 -22.4853 154.957 -21.7781 152.051C-21.0969 149.25 -20.9347 146.293 -21.1287 143.052C-23.204 141.756 -24.4568 140.415 -25.0908 139.083C-25.8307 137.528 -25.7424 136.01 -25.1222 134.607C-24.539 133.278 -23.4841 132.067 -22.221 131.031C-19.7149 128.967 -16.338 127.551 -14.4093 127.315C-11.5895 126.329 -9.14233 125.705 -8.09239 125.453L-7.75277 122.422C-8.0499 121.686 -8.83101 119.234 -7.68695 115.977L-7.66231 115.918C-5.86624 111.914 -2.1686 112.06 1.11055 113.533C2.45024 114.133 3.71897 114.966 4.73522 115.814C5.78243 116.69 6.57738 117.6 6.92442 118.315C7.35187 119.199 7.26752 119.923 6.5214 120.323L6.45469 120.361C5.40552 120.873 4.68912 121.241 4.23194 121.586C3.85948 121.869 3.65575 122.139 3.54865 122.496C3.4329 122.878 3.46777 123.414 3.56942 123.976L3.57916 124.022C3.7019 124.676 3.91043 125.338 4.09774 125.882C4.74706 127.764 3.00118 127.695 1.99342 127.516Z" fill="#353541"/>
<path fill-rule="evenodd" clip-rule="evenodd" d="M21.2629 189.659L15.4602 124.896L12.797 122.725L15.1641 113.435L19.6102 121.405L17.8341 124.307L23.7611 189.699L21.2629 189.659Z" fill="url(#paint2_linear_337_35780)"/>
<path fill-rule="evenodd" clip-rule="evenodd" d="M20.4789 189.728L14.7085 125.293L12.3008 123.331C12.0507 123.129 11.9622 122.808 12.0385 122.517L14.4009 113.24C14.509 112.822 14.9354 112.569 15.3517 112.677C15.57 112.733 15.7401 112.874 15.843 113.054L20.2886 121.026C20.4305 121.279 20.4152 121.58 20.2759 121.814L18.63 124.497L24.5369 189.631C24.5773 190.062 24.2594 190.442 23.8303 190.481C23.7939 190.485 23.757 190.485 23.719 190.482L21.2446 190.444C20.8411 190.431 20.5145 190.121 20.4789 189.728ZM16.2372 124.825L21.9757 188.888L22.9007 188.903L17.0571 124.424C17.0318 124.249 17.0624 124.062 17.1625 123.898L18.7011 121.384L15.433 115.529L13.6772 122.434L15.9414 124.28C16.1068 124.408 16.2182 124.6 16.2372 124.825Z" fill="#353541"/>
<path fill-rule="evenodd" clip-rule="evenodd" d="M-14.0824 157.535C-20.6954 155.211 -23.651 146.371 -20.6604 137.859C-17.6698 129.346 -9.83658 124.298 -3.22198 126.622C3.39098 128.945 6.34717 137.784 3.35658 146.296C0.36435 154.808 -7.46946 159.858 -14.0824 157.535Z" fill="url(#paint3_linear_337_35780)"/>
<path fill-rule="evenodd" clip-rule="evenodd" d="M-14.344 158.276C-17.8895 157.031 -20.4494 154.057 -21.719 150.268C-22.9638 146.545 -22.9576 142.025 -21.4032 137.601C-19.8487 133.176 -17.0265 129.645 -13.7274 127.521C-10.3681 125.357 -6.51061 124.637 -2.96344 125.883C0.58538 127.13 3.14531 130.104 4.41105 133.893C5.6564 137.615 5.65021 142.135 4.09575 146.559C2.54129 150.984 -0.281493 154.516 -3.5806 156.64C-6.93761 158.804 -10.7951 159.523 -14.344 158.276ZM-20.2317 149.77C-19.1156 153.108 -16.8891 155.717 -13.8233 156.794C-10.7559 157.872 -7.38972 157.227 -4.42954 155.321C-1.41253 153.375 1.17825 150.125 2.61438 146.037C4.04994 141.951 4.06127 137.794 2.92485 134.388C1.80881 131.05 -0.414446 128.442 -3.48352 127.364C-6.54766 126.287 -9.9171 126.931 -12.8773 128.837C-15.8937 130.782 -18.4845 134.032 -19.9206 138.12C-21.3568 142.207 -21.3664 146.364 -20.2317 149.77Z" fill="#353541"/>
<path fill-rule="evenodd" clip-rule="evenodd" d="M2.3244 122.542C2.25259 122.111 2.35654 121.71 2.27167 121.268C2.13765 120.562 1.47659 119.99 0.934004 119.586C-0.0629771 118.84 -1.32501 118.513 -2.55589 118.612C-5.37774 118.837 -6.11669 121.598 -6.63875 123.851C-6.69905 124.106 -7.14026 124.075 -7.15918 123.813C-7.37237 121.116 -5.11518 118.027 -2.29004 118.008C-0.823233 117.999 0.649132 118.5 1.71521 119.537C2.40007 120.204 3.42002 121.746 2.42734 122.58C2.39221 122.606 2.33413 122.588 2.3244 122.542Z" fill="#353541"/>
<path fill-rule="evenodd" clip-rule="evenodd" d="M0.809739 126.827C1.04045 125.976 1.19571 125.329 0.609917 124.564C0.130959 123.936 -0.528223 123.454 -1.0479 122.858C-0.966862 122.853 -0.886404 122.85 -0.805366 122.845C-1.05273 123.26 -1.29829 123.665 -1.37217 124.149C-1.45857 124.725 -0.994299 125.206 -0.727508 125.671C-0.368042 126.297 -0.805059 126.827 -1.0903 127.371C-1.17373 127.524 -1.42934 127.39 -1.36563 127.23C-1.1164 126.63 -0.819158 126.094 -1.22982 125.467C-1.42228 125.174 -1.57308 124.894 -1.66678 124.556C-1.84499 123.892 -1.38279 123.202 -1.05696 122.668C-1.00434 122.581 -0.872775 122.585 -0.814426 122.656C-0.13005 123.455 0.792199 124.088 1.25251 125.052C1.55044 125.67 1.25298 126.322 1.00255 126.893C0.950467 127.015 0.776305 126.954 0.809739 126.827Z" fill="#353541"/>
<path fill-rule="evenodd" clip-rule="evenodd" d="M5.20968 117.777C4.53678 117.906 3.98783 118.239 3.46324 118.666C2.99163 119.052 2.64295 119.603 2.14936 119.952C2.03404 120.033 1.88016 119.909 1.96315 119.783C2.3217 119.236 2.93212 118.78 3.44844 118.387C3.96033 117.997 4.54709 117.745 5.18722 117.667C5.25783 117.661 5.27873 117.764 5.20968 117.777Z" fill="#353541"/>
<path fill-rule="evenodd" clip-rule="evenodd" d="M3.20969 116.423C2.58932 116.813 2.13735 117.28 1.74412 117.895C1.48765 118.294 1.25968 118.906 0.817196 119.125C0.703389 119.181 0.568656 119.065 0.61359 118.943C0.813177 118.417 1.33914 117.87 1.6845 117.423C2.07934 116.914 2.54394 116.485 3.18709 116.356C3.23238 116.348 3.2425 116.404 3.20969 116.423Z" fill="#353541"/>
<path fill-rule="evenodd" clip-rule="evenodd" d="M0.846466 115.163C0.451156 116.215 -0.481487 117.22 -0.453355 118.38C-0.447089 118.64 -0.888019 118.592 -0.823327 118.303C-0.552309 117.069 0.150725 116.198 0.76073 115.118C0.788482 115.071 0.86436 115.112 0.846466 115.163Z" fill="#353541"/>
<path fill-rule="evenodd" clip-rule="evenodd" d="M18.2699 123.327C18.1119 124.044 17.2913 124.52 16.6356 124.705C16.0774 124.86 14.9275 124.991 14.7292 124.242C14.7074 124.163 14.7887 124.073 14.8705 124.087C15.0882 124.114 15.2606 124.217 15.4692 124.29C15.7655 124.392 16.1104 124.351 16.4088 124.295C17.0954 124.169 17.6319 123.75 18.0503 123.216C18.1393 123.094 18.3007 123.192 18.2699 123.327Z" fill="#353541"/>
<path fill-rule="evenodd" clip-rule="evenodd" d="M16.4446 124.515C16.3045 122.849 15.8763 121.226 15.7528 119.56C15.7064 118.883 15.6932 118.201 15.6617 117.523C15.6183 116.591 15.359 115.695 15.3122 114.772C15.3085 114.662 15.4667 114.653 15.51 114.735C16.1746 115.974 15.9908 117.779 16.0464 119.15C16.1147 120.957 16.7026 122.688 16.7346 124.499C16.7314 124.66 16.4557 124.678 16.4446 124.515Z" fill="#353541"/>
<path fill-rule="evenodd" clip-rule="evenodd" d="M19.0445 121.7C18.0051 121.469 16.967 121.056 15.9679 120.68C15.761 120.601 15.8718 120.286 16.0828 120.353C17.098 120.683 18.1661 121.011 19.1207 121.483C19.2562 121.549 19.1921 121.731 19.0445 121.7Z" fill="#353541"/>
<path fill-rule="evenodd" clip-rule="evenodd" d="M16.1009 120.446C15.9907 121.069 15.4718 121.485 14.9772 121.826C14.5333 122.134 13.8137 122.632 13.2507 122.606C13.1015 122.6 13.0604 122.417 13.1583 122.323C13.4773 122.008 14.0643 121.877 14.4643 121.663C15.056 121.345 15.5171 120.925 15.8934 120.375C15.9543 120.285 16.122 120.333 16.1009 120.446Z" fill="#353541"/>
<path fill-rule="evenodd" clip-rule="evenodd" d="M0.736819 146.338C-0.145305 149.096 -1.85983 151.286 -4.22242 152.952C-6.26299 154.389 -9.35569 155.7 -11.9016 155.239C-12.0438 155.213 -12.0757 155.004 -11.9165 154.972C-10.7318 154.731 -9.54003 154.664 -8.36452 154.344C-7.10104 154 -5.91347 153.41 -4.79827 152.731C-2.39251 151.258 -0.438441 148.901 0.651987 146.306C0.675387 146.256 0.753159 146.281 0.736819 146.338Z" fill="#353541"/>
<path fill-rule="evenodd" clip-rule="evenodd" d="M-4.90178 143.553C-3.0123 143.05 -4.08455 139.183 -4.20265 137.932C-4.35459 136.321 -4.33109 134.452 -3.48957 133.018C-3.38655 132.846 -3.155 133.001 -3.19456 133.166C-3.51642 134.513 -3.82429 135.71 -3.78181 137.107C-3.74924 138.265 -3.47403 139.405 -3.42543 140.559C-3.38233 141.644 -3.47031 143.55 -4.87588 143.689C-4.96194 143.698 -4.98859 143.574 -4.90178 143.553Z" fill="#353541"/>
<path fill-rule="evenodd" clip-rule="evenodd" d="M7.77344 145.514C7.88007 144.433 8.5392 142.32 9.74979 142.011C9.87146 141.98 9.9533 142.13 9.89007 142.226C9.51011 142.803 9.00364 143.2 8.68762 143.842C8.40975 144.407 8.28771 145.043 7.95251 145.577C7.89834 145.657 7.7642 145.608 7.77344 145.514Z" fill="#353541"/>
<path fill-rule="evenodd" clip-rule="evenodd" d="M15.2408 140.411C14.2768 141.82 14.2899 143.406 14.8569 144.96C14.9424 145.19 14.6432 145.332 14.5188 145.124C13.6159 143.633 14.0868 141.615 15.0937 140.309C15.1613 140.217 15.303 140.313 15.2408 140.411Z" fill="#353541"/>
<path fill-rule="evenodd" clip-rule="evenodd" d="M14.2101 141.459C14.0259 142.089 13.8291 142.717 13.7217 143.364C13.6682 143.711 13.6576 144.062 13.7038 144.408C13.7621 144.826 14.0379 145.107 14.2077 145.469C14.2636 145.589 14.1442 145.755 14.0069 145.694C12.4487 144.986 13.4976 142.436 13.939 141.364C14.0084 141.193 14.2636 141.281 14.2101 141.459Z" fill="#353541"/>
<path fill-rule="evenodd" clip-rule="evenodd" d="M18.8528 136.404C18.7862 136.84 18.3568 137.107 17.9958 137.294C17.6108 137.496 17.0041 137.757 16.5716 137.633C16.4959 137.612 16.4875 137.515 16.5389 137.468C16.8223 137.214 17.2862 137.17 17.6337 137.032C18.0395 136.87 18.3352 136.669 18.5953 136.317C18.6725 136.208 18.876 136.259 18.8528 136.404Z" fill="#353541"/>
<path fill-rule="evenodd" clip-rule="evenodd" d="M18.4635 135.619C18.2467 135.947 17.9608 136.188 17.6342 136.398C17.3314 136.592 16.9023 136.837 16.5311 136.8C16.4547 136.792 16.4145 136.691 16.4753 136.639C16.7119 136.449 17.0418 136.382 17.3164 136.257C17.6981 136.084 18.0414 135.838 18.293 135.5C18.3702 135.39 18.5386 135.505 18.4635 135.619Z" fill="#353541"/>
<path fill-rule="evenodd" clip-rule="evenodd" d="M18.4927 134.384C18.2663 134.729 17.9971 135.027 17.6681 135.275C17.3983 135.481 17.0032 135.734 16.6509 135.617C16.5627 135.59 16.5502 135.473 16.6134 135.414C16.8202 135.225 17.1362 135.166 17.3802 135.028C17.7287 134.835 18.0188 134.535 18.2492 134.215C18.3635 134.063 18.5949 134.224 18.4927 134.384Z" fill="#353541"/>
<path fill-rule="evenodd" clip-rule="evenodd" d="M18.0043 133.49C17.7373 133.688 17.4127 133.945 17.0735 133.975C17.0222 133.979 16.9968 133.915 17.0468 133.888C17.3505 133.733 17.6398 133.587 17.913 133.382C17.9816 133.329 18.0735 133.435 18.0043 133.49Z" fill="#353541"/>
<path fill-rule="evenodd" clip-rule="evenodd" d="M22.3839 173.597C22.0747 173.915 21.7393 174.192 21.3621 174.425C21.0767 174.602 20.5508 174.906 20.2294 174.686C20.1771 174.651 20.1575 174.57 20.1974 174.52C20.3996 174.275 20.824 174.255 21.1052 174.132C21.5145 173.955 21.8758 173.683 22.2088 173.392C22.3423 173.274 22.5032 173.473 22.3839 173.597Z" fill="#353541"/>
<path fill-rule="evenodd" clip-rule="evenodd" d="M21.937 172.594C21.7171 172.942 21.4463 173.24 21.1217 173.491C20.8797 173.676 20.4157 174.003 20.107 173.847C20.0398 173.812 19.9872 173.726 20.0451 173.655C20.2294 173.43 20.5934 173.398 20.8468 173.26C21.1952 173.067 21.4886 172.767 21.7262 172.448C21.8231 172.314 22.0252 172.454 21.937 172.594Z" fill="#353541"/>
<path fill-rule="evenodd" clip-rule="evenodd" d="M21.997 170.856C21.639 171.165 21.2689 171.473 20.843 171.687C20.4982 171.859 19.9708 172.047 19.6421 171.769C19.5807 171.718 19.5788 171.628 19.6549 171.591C19.9898 171.415 20.41 171.453 20.7687 171.304C21.1541 171.143 21.4907 170.899 21.8262 170.653C21.9633 170.552 22.1304 170.744 21.997 170.856Z" fill="#353541"/>
<path fill-rule="evenodd" clip-rule="evenodd" d="M20.9351 169.416C20.6069 169.583 20.2166 169.88 19.8278 169.846C19.7398 169.839 19.7061 169.709 19.7942 169.674C19.9589 169.604 20.1292 169.561 20.2939 169.491C20.4781 169.408 20.6576 169.307 20.8364 169.219C20.9685 169.158 21.0628 169.352 20.9351 169.416Z" fill="#353541"/>
<path fill-rule="evenodd" clip-rule="evenodd" d="M21.519 167.204C20.9925 167.715 20.3233 168.301 19.557 168.344C19.4214 168.352 19.4243 168.17 19.5123 168.114C19.7903 167.948 20.0941 167.824 20.3716 167.659C20.7102 167.463 21.0133 167.209 21.2968 166.943C21.4574 166.791 21.6729 167.05 21.519 167.204Z" fill="#353541"/>
<path fill-rule="evenodd" clip-rule="evenodd" d="M85.9917 160.536C85.9917 160.536 85.1142 158.631 84.5537 158.86C83.997 159.089 84.8386 155.874 84.8386 155.874C84.8386 155.874 82.7132 155.021 83.7404 154.372C84.7664 153.721 86.1786 152.727 86.5922 151.702C87.0059 150.678 86.6783 149.776 85.6396 147.589C84.6074 145.405 100.069 144.997 97.9688 153.091C96.7042 156.691 94.1794 157.825 94.1794 157.825C93.4996 158.899 92.823 159.973 92.1426 161.048C92.1426 161.048 94.1401 163.511 96.2496 166.895C99.3645 169.981 104.897 183.871 91.9572 182.06C87.2358 187.177 84.5423 192.322 84.1777 199.328C84.0836 201.103 87.2212 210.272 87.2212 210.272C86.0808 211.999 84.3545 211.843 83.2141 213.571C81.2747 213.244 79.3314 212.917 77.387 212.588C77.387 212.588 81.4274 211.081 82.2957 209.523C82.0115 205.798 77.3619 201.669 76.8084 199.241C76.2543 196.815 75.8245 188.897 75.8245 188.897C75.8245 188.897 68.6436 193.554 66.7822 194.602C64.9241 195.651 56.6254 202.313 56.3278 203.008C56.0302 203.703 56.5729 206.393 55.9096 207.225C55.2469 208.055 46.2365 204.465 46.2365 204.465C46.2365 204.465 47.873 202.539 50.0465 202.557C53.978 203.093 57.4133 194.906 60.7529 190.408C61.662 189.186 72.2133 180.72 72.2133 180.72C74.3322 176.333 74.6723 172.449 76.5089 167.3C73.4482 167.648 70.3903 167.999 67.3345 168.348C65.1967 165.292 63.0595 162.234 60.9233 159.178C60.3591 158.373 57.6412 155.937 58.9462 154.041C60.22 152.201 63.2199 152.105 63.9812 153.122C64.2621 153.494 64.2457 154.791 64.4458 155.362C65.1892 157.485 69.0421 163.788 69.0421 163.788C69.0421 163.788 79.2521 159.713 81.406 160.097C83.5638 160.48 85.9917 160.536 85.9917 160.536Z" fill="url(#paint4_linear_337_35780)"/>
<path fill-rule="evenodd" clip-rule="evenodd" d="M86.6979 160.197C86.6936 160.188 85.5444 157.612 84.2598 158.137C83.3468 158.508 85.5994 156.079 85.5973 156.074C85.7092 155.656 85.4561 155.226 85.0366 155.117C84.8627 155.071 84.6862 155.09 84.5287 155.154C84.2584 155.146 84.0238 155.115 84.1568 155.031C84.6949 154.687 85.3418 154.253 85.9042 153.772L85.9428 153.735C86.5449 153.214 87.0644 152.623 87.3197 151.991C87.5917 151.312 87.6227 150.688 87.4202 149.887C87.2426 149.19 86.886 148.382 86.3529 147.251L86.3347 147.219C86.3285 147.195 86.4855 147.468 86.5166 147.453L86.5198 147.454C87.0521 147.2 88.0108 147.04 89.1501 147.018C90.3341 146.994 91.6918 147.122 92.9758 147.455C95.672 148.155 97.9958 149.789 97.2205 152.858C96.0625 156.122 93.8545 157.111 93.8501 157.113C93.7086 157.18 93.5929 157.283 93.5166 157.406L91.4797 160.629C91.2865 160.932 91.3282 161.318 91.5598 161.573C91.8049 161.879 93.637 164.187 95.5811 167.306C95.616 167.359 95.6543 167.408 95.6966 167.45C96.898 168.638 98.4854 171.57 99.1017 174.507C99.389 175.885 99.4558 177.245 99.1521 178.388C98.8669 179.447 98.2468 180.329 97.1572 180.856C96.022 181.408 94.3736 181.608 92.0679 181.283C91.8074 181.247 91.553 181.346 91.3838 181.528L91.3811 181.525C88.9696 184.139 87.0734 186.768 85.7239 189.653C84.372 192.544 83.5819 195.676 83.3954 199.285C83.3065 200.973 85.7478 208.34 86.3479 210.131C85.915 210.643 85.3799 210.937 84.8442 211.233C84.1613 211.605 83.4779 211.98 82.8739 212.717L80.0458 212.24C81.2206 211.617 82.4931 210.785 82.9843 209.902C83.0625 209.763 83.0909 209.609 83.0817 209.462L83.0813 209.452C82.8913 207.056 81.1595 204.641 79.6388 202.523C78.653 201.152 77.7669 199.918 77.5769 199.067C77.0414 196.713 76.6148 188.876 76.6124 188.851C76.5869 188.419 76.2209 188.09 75.7866 188.112C75.6289 188.12 75.4915 188.175 75.3712 188.26C74.8574 188.593 68.1659 192.923 66.404 193.919C65.428 194.47 62.8236 196.445 60.4466 198.357C58.0344 200.295 55.8123 202.233 55.6115 202.699C55.4261 203.132 55.4474 203.823 55.468 204.594L55.4641 204.595C55.4903 205.466 55.5199 206.469 55.3019 206.738C55.077 207.021 50.0387 205.107 47.7005 204.196C48.2768 203.775 49.094 203.34 50.017 203.34C53.3605 203.726 56.0812 199.287 58.686 195.03C59.6056 193.532 60.5095 192.057 61.3866 190.874C62.2339 189.734 72.6801 181.356 72.7085 181.333C72.8078 181.255 72.8832 181.156 72.9307 181.048C74.1985 178.416 74.8363 175.992 75.5216 173.384C76.0004 171.559 76.5044 169.641 77.2456 167.563C77.3914 167.158 77.1784 166.709 76.7715 166.564C76.6565 166.524 76.5372 166.511 76.4257 166.524L67.71 167.517C65.6782 164.61 63.6623 161.574 61.5652 158.728C61.4548 158.569 61.2748 158.362 61.0629 158.114L61.064 158.111C60.2735 157.198 58.8603 155.557 59.5973 154.489L59.6289 154.441C59.7765 154.236 59.9567 154.06 60.1579 153.913C60.6719 153.527 61.318 153.322 61.9224 153.272C62.4833 153.225 62.9825 153.312 63.2646 153.507C63.3083 153.535 63.3386 153.565 63.3629 153.595C63.3936 153.639 63.4442 154.052 63.4955 154.458C63.5461 154.876 63.5961 155.29 63.7109 155.62C64.4886 157.841 68.3641 164.179 68.3759 164.198C68.5862 164.545 69.0242 164.669 69.3849 164.499C70.146 164.197 79.4212 160.54 81.2725 160.871C83.4868 161.267 85.9665 161.322 85.9737 161.323C86.4059 161.333 86.7638 160.992 86.7757 160.558C86.7762 160.426 86.7501 160.306 86.6979 160.197ZM84.8517 159.583L84.8544 159.586C84.7358 159.635 84.6296 159.664 84.5308 159.677L84.9638 159.706C84.9255 159.62 84.8882 159.574 84.8517 159.583ZM83.9341 156.306C83.7188 157.36 83.4153 159.385 84.2288 159.654C83.4296 159.591 82.4629 159.49 81.5458 159.326C79.5144 158.961 71.6419 161.936 69.3735 162.819C68.4224 161.239 65.7655 156.765 65.1842 155.104C65.13 154.949 65.087 154.609 65.0484 154.267C64.9718 153.655 64.8981 153.034 64.6096 152.653C64.4867 152.488 64.3299 152.34 64.1496 152.218C63.5749 151.82 62.7022 151.635 61.79 151.71C60.9215 151.781 59.983 152.083 59.2181 152.658C58.8915 152.899 58.5982 153.193 58.3503 153.536L58.3025 153.599C56.8775 155.663 58.8017 157.894 59.8711 159.137L59.875 159.136C60.0517 159.342 60.1977 159.51 60.2839 159.633L66.6649 168.763C66.8195 169.011 67.1079 169.162 67.4174 169.127L75.3646 168.22C74.8038 169.937 74.3933 171.489 74.0013 172.983C73.3471 175.47 72.7387 177.785 71.5831 180.223C70.3332 181.228 61.0286 188.725 60.1216 189.946C59.1916 191.195 58.2758 192.694 57.3453 194.218C54.9883 198.063 52.5307 202.075 50.1809 201.786C50.1408 201.779 50.0979 201.775 50.0555 201.775C47.5102 201.754 45.6469 203.948 45.6413 203.953L45.644 203.956C45.5885 204.019 45.5415 204.095 45.5082 204.179C45.3519 204.582 45.5462 205.038 45.9484 205.196C45.978 205.206 55.49 209.008 56.5198 207.716C57.0976 206.996 57.0586 205.688 57.0278 204.557L57.024 204.558C57.007 203.97 56.9934 203.447 57.0472 203.32C57.1444 203.096 59.1733 201.392 61.4204 199.583C63.7549 197.708 66.2747 195.79 67.1657 195.287C68.5863 194.485 73.0183 191.642 75.1226 190.286C75.2704 192.665 75.618 197.555 76.0418 199.417C76.3057 200.573 77.2807 201.932 78.359 203.439C79.703 205.308 81.2237 207.426 81.4844 209.332C80.5758 210.521 77.4323 211.735 77.132 211.849C76.8662 211.938 76.6609 212.165 76.611 212.46C76.5364 212.888 76.8229 213.291 77.253 213.365L83.0691 214.347C83.3705 214.403 83.6876 214.278 83.8666 214.005C84.3289 213.303 84.9596 212.958 85.5925 212.612C86.3932 212.172 87.1956 211.732 87.8736 210.706L87.8703 210.705C87.9995 210.51 88.0383 210.258 87.9557 210.02C87.9468 209.993 84.8686 201.003 84.9533 199.369C85.1303 195.971 85.8727 193.027 87.1385 190.318C88.3586 187.706 90.0784 185.296 92.2601 182.89C94.6898 183.177 96.5061 182.914 97.8338 182.272C99.3842 181.521 100.26 180.279 100.658 178.799C101.034 177.397 100.965 175.791 100.631 174.194C99.9665 171.016 98.2173 167.799 96.8601 166.408C95.2767 163.875 93.7577 161.858 93.0957 161.005L94.7267 158.427C95.4186 158.039 97.562 156.614 98.7061 153.358L98.7241 153.296C99.8268 149.048 96.8507 146.849 93.3674 145.947C91.9502 145.578 90.439 145.435 89.1157 145.461C87.751 145.489 86.5613 145.702 85.8437 146.042L85.8464 146.045C84.9561 146.467 84.5701 147.083 84.9018 147.862L84.927 147.932C85.4288 148.988 85.7541 149.723 85.8982 150.279C86.0121 150.733 86.0022 151.071 85.8623 151.416C85.7137 151.787 85.3509 152.184 84.9203 152.558L84.884 152.588C84.3791 153.022 83.7991 153.407 83.316 153.715C81.6373 154.779 83.0393 155.816 83.9341 156.306Z" fill="#353541"/>
<path fill-rule="evenodd" clip-rule="evenodd" d="M30.0355 192.74L75.0696 145.838L78.5051 145.81L82.4692 137.08L74.0147 140.518L73.5858 143.893L28.0615 191.209L30.0355 192.74Z" fill="url(#paint5_linear_337_35780)"/>
<path fill-rule="evenodd" clip-rule="evenodd" d="M30.6032 193.285L75.4066 146.618L78.5128 146.593C78.8311 146.59 79.1041 146.397 79.2264 146.122L83.1857 137.406C83.3612 137.011 83.188 136.548 82.7926 136.37C82.5903 136.279 82.3661 136.282 82.1765 136.359L73.7215 139.799C73.4527 139.907 73.2763 140.152 73.239 140.421L72.8417 143.543L27.4977 190.671C27.198 190.983 27.2071 191.477 27.5174 191.776C27.545 191.803 27.5722 191.825 27.6049 191.848L29.5598 193.365C29.8793 193.606 30.3265 193.568 30.6032 193.285ZM74.5071 145.296L29.9607 191.693L29.2263 191.125L74.1177 144.471C74.2502 144.352 74.3399 144.186 74.3644 143.995L74.7365 141.071L80.9451 138.545L77.9998 145.032L75.0787 145.056C74.8695 145.053 74.6623 145.133 74.5071 145.296Z" fill="#353541"/>
<path fill-rule="evenodd" clip-rule="evenodd" d="M77.7033 189.782C84.3163 192.105 92.155 187.057 95.1456 178.545C98.1362 170.033 95.1784 161.193 88.5637 158.87C81.9541 156.547 74.1193 161.595 71.1287 170.107C68.1381 178.619 71.0936 187.46 77.7033 189.782Z" fill="url(#paint6_linear_337_35780)"/>
<path fill-rule="evenodd" clip-rule="evenodd" d="M77.4418 190.523C80.9906 191.77 84.8482 191.05 88.2085 188.888C91.5049 186.761 94.3304 183.231 95.8849 178.807C97.4393 174.382 97.4422 169.861 96.2001 166.141C94.9327 162.351 92.3728 159.377 88.8223 158.13C85.2768 156.884 81.4226 157.605 78.0617 159.769C74.7626 161.893 71.9404 165.424 70.3859 169.848C68.8315 174.273 68.8247 178.794 70.0701 182.516C71.3397 186.304 73.8963 189.277 77.4418 190.523ZM87.3563 187.568C84.3977 189.474 81.0316 190.119 77.9625 189.041C74.8983 187.964 72.6751 185.356 71.5574 182.017C70.421 178.611 70.4323 174.455 71.8685 170.367C73.304 166.281 75.8948 163.031 78.9118 161.084C81.8704 159.178 85.2365 158.533 88.3023 159.61C91.3697 160.688 93.593 163.296 94.7107 166.635C95.8509 170.04 95.8396 174.197 94.4035 178.285C92.9657 182.372 90.3749 185.622 87.3563 187.568Z" fill="#353541"/>
<path fill-rule="evenodd" clip-rule="evenodd" d="M86.7909 152.217C87.1167 151.926 87.2864 151.548 87.627 151.256C88.1798 150.791 89.0499 150.757 89.7264 150.781C90.9705 150.823 92.1565 151.356 93.0582 152.204C95.116 154.143 93.9663 156.759 92.9677 158.845C92.8516 159.081 93.2171 159.333 93.397 159.141C95.2473 157.169 95.4212 153.348 93.2287 151.566C92.0898 150.642 90.6245 150.111 89.1473 150.254C88.1957 150.346 86.4358 150.911 86.6885 152.183C86.6977 152.225 86.7546 152.247 86.7909 152.217Z" fill="#353541"/>
<path fill-rule="evenodd" clip-rule="evenodd" d="M85.2908 156.507C85.6398 155.698 85.9265 155.097 86.8621 154.866C87.6285 154.676 88.4447 154.712 89.223 154.572C89.1627 154.517 89.1019 154.465 89.0384 154.409C88.9717 154.888 88.9135 155.358 88.6688 155.782C88.3753 156.286 87.7125 156.371 87.2104 156.565C86.5397 156.83 86.5512 157.517 86.4335 158.119C86.4027 158.291 86.6893 158.348 86.7366 158.182C86.9135 157.557 87.0202 156.954 87.7333 156.721C88.0666 156.613 88.3594 156.489 88.6403 156.283C89.1981 155.877 89.2644 155.048 89.3487 154.43C89.3619 154.329 89.2601 154.251 89.164 154.267C88.1315 154.463 87.0181 154.38 86.0556 154.845C85.4367 155.141 85.2609 155.836 85.0992 156.438C85.0652 156.566 85.2393 156.628 85.2908 156.507Z" fill="#353541"/>
<path fill-rule="evenodd" clip-rule="evenodd" d="M91.2097 152.169C92.2448 152.291 92.6674 153.168 92.8598 154.081C92.9426 154.481 92.9655 154.899 92.9733 155.308C92.978 155.594 92.898 155.911 92.9784 156.186C93.0086 156.295 93.17 156.361 93.2397 156.241C93.6012 155.612 93.3228 154.334 93.0912 153.701C92.7601 152.815 92.2158 152.111 91.2195 152.073C91.154 152.07 91.1514 152.161 91.2097 152.169Z" fill="#353541"/>
<path fill-rule="evenodd" clip-rule="evenodd" d="M87.523 146.697C87.964 147.217 88.184 147.82 88.3264 148.481C88.4529 149.078 88.3802 149.726 88.5471 150.307C88.5862 150.442 88.7839 150.442 88.7979 150.291C88.8607 149.64 88.6694 148.903 88.5121 148.273C88.3569 147.648 88.0532 147.084 87.6057 146.624C87.5547 146.575 87.4737 146.642 87.523 146.697Z" fill="#353541"/>
<path fill-rule="evenodd" clip-rule="evenodd" d="M89.9286 146.889C90.1691 147.581 90.2297 148.228 90.1487 148.953C90.1009 149.425 89.8943 150.045 90.1057 150.493C90.1594 150.608 90.3386 150.603 90.3786 150.479C90.5519 149.943 90.4847 149.189 90.4932 148.623C90.5036 147.979 90.4096 147.354 89.9881 146.851C89.9611 146.818 89.9121 146.852 89.9286 146.889Z" fill="#353541"/>
<path fill-rule="evenodd" clip-rule="evenodd" d="M92.5603 147.384C92.2077 148.451 92.3069 149.819 91.5628 150.707C91.3949 150.906 91.7689 151.145 91.8993 150.879C92.4595 149.747 92.456 148.627 92.6553 147.403C92.6617 147.348 92.5749 147.332 92.5603 147.384Z" fill="#353541"/>
<path fill-rule="evenodd" clip-rule="evenodd" d="M95.2892 148.303C94.9111 148.833 94.7379 149.463 94.4279 150.035C94.1186 150.605 93.6299 151.166 93.1856 151.632C93.0154 151.807 93.2491 152.098 93.4315 151.925C94.4887 150.949 94.9522 149.698 95.53 148.427C95.5957 148.282 95.3749 148.18 95.2892 148.303Z" fill="#353541"/>
<path fill-rule="evenodd" clip-rule="evenodd" d="M97.6765 150.694C96.7506 151.696 95.5552 152.597 94.2007 152.88C93.9239 152.938 94.004 153.367 94.2808 153.309C95.7641 152.996 96.9917 152.076 97.8405 150.842C97.9093 150.741 97.7634 150.599 97.6765 150.694Z" fill="#353541"/>
<path fill-rule="evenodd" clip-rule="evenodd" d="M96.8904 154.059C96.6028 154.373 96.1513 154.429 95.7521 154.53C95.4878 154.594 94.9237 154.603 94.7807 154.863C94.7375 154.944 94.7608 155.035 94.8478 155.071C95.0092 155.137 95.1544 155.05 95.3143 155.004C95.5234 154.945 95.7364 154.89 95.9418 154.82C96.3478 154.679 96.6527 154.42 96.9207 154.088C96.9403 154.069 96.9083 154.04 96.8904 154.059Z" fill="#353541"/>
<path fill-rule="evenodd" clip-rule="evenodd" d="M73.856 142.857C73.5303 143.516 73.873 144.4 74.2689 144.955C74.6045 145.423 75.4228 146.246 76.046 145.786C76.1095 145.736 76.1054 145.617 76.0328 145.576C75.843 145.46 75.6474 145.434 75.4388 145.36C75.1403 145.254 74.9003 145.007 74.6991 144.776C74.2455 144.249 74.0855 143.585 74.0964 142.908C74.1016 142.757 73.918 142.733 73.856 142.857Z" fill="#353541"/>
<path fill-rule="evenodd" clip-rule="evenodd" d="M74.5398 144.926C75.6912 143.714 77.0406 142.715 78.1756 141.491C78.6386 140.993 79.0755 140.469 79.5238 139.961C80.1409 139.26 80.9002 138.722 81.5139 138.031C81.589 137.949 81.4712 137.843 81.383 137.878C80.0925 138.431 79.1069 139.954 78.2063 140.989C77.0194 142.355 75.4813 143.339 74.3238 144.732C74.222 144.859 74.4261 145.045 74.5398 144.926Z" fill="#353541"/>
<path fill-rule="evenodd" clip-rule="evenodd" d="M74.2679 141.101C75.2264 141.573 76.2912 141.899 77.3065 142.23C77.5201 142.299 77.631 141.984 77.4213 141.903C76.4223 141.526 75.3874 141.115 74.3441 140.885C74.2004 140.853 74.1363 141.035 74.2679 141.101Z" fill="#353541"/>
<path fill-rule="evenodd" clip-rule="evenodd" d="M77.3506 141.964C77.0497 142.521 77.1946 143.17 77.3671 143.745C77.5245 144.264 77.771 145.102 78.2266 145.433C78.3469 145.522 78.4931 145.405 78.4743 145.269C78.422 144.825 78.0463 144.355 77.8679 143.938C77.6053 143.32 77.5078 142.704 77.5587 142.039C77.5671 141.931 77.4111 141.865 77.3506 141.964Z" fill="#353541"/>
<path fill-rule="evenodd" clip-rule="evenodd" d="M78.4109 202.126C80.4493 203.658 82.7347 204.43 85.3093 203.894C85.496 203.857 85.4887 203.557 85.291 203.558C84.2678 203.554 83.2794 203.641 82.2626 203.509C80.9458 203.338 79.5987 202.717 78.4915 202.012C78.4124 201.964 78.339 202.073 78.4109 202.126Z" fill="#353541"/>
<path fill-rule="evenodd" clip-rule="evenodd" d="M79.8852 203.838C81.4777 204.774 83.8951 205.59 85.6507 204.612C85.7357 204.564 85.7273 204.404 85.6132 204.409C84.721 204.442 83.907 204.679 82.996 204.582C81.9354 204.469 80.9893 203.953 79.9871 203.632C79.866 203.593 79.7679 203.767 79.8852 203.838Z" fill="#353541"/>
<path fill-rule="evenodd" clip-rule="evenodd" d="M58.6765 194.18C57.9254 195.845 58.5301 198.485 60.0778 199.538C60.3039 199.693 60.5351 199.356 60.3186 199.189C59.0022 198.165 58.336 195.833 58.8731 194.251C58.9193 194.12 58.7308 194.057 58.6765 194.18Z" fill="#353541"/>
<path fill-rule="evenodd" clip-rule="evenodd" d="M57.8065 196.245C57.7859 197.013 57.8788 197.773 58.1299 198.498C58.3594 199.158 58.8208 200.051 59.5478 200.257C59.7375 200.31 59.8525 200.078 59.7003 199.954C59.1191 199.486 58.7395 199.048 58.4495 198.344C58.1734 197.675 57.9922 196.956 57.9101 196.239C57.9012 196.181 57.8096 196.189 57.8065 196.245Z" fill="#353541"/>
<path fill-rule="evenodd" clip-rule="evenodd" d="M54.558 200.054C53.9902 201.077 54.8667 203.011 56.0612 203.183C56.3052 203.219 56.3393 202.875 56.1403 202.785C55.2749 202.385 54.3634 201.123 54.6896 200.121C54.7129 200.044 54.6021 199.981 54.558 200.054Z" fill="#353541"/>
<path fill-rule="evenodd" clip-rule="evenodd" d="M56.3852 204.574C55.6798 204.539 55.0634 204.712 54.4815 205.107C54.0711 205.382 53.3901 206.123 53.5627 206.656C53.5857 206.732 53.6741 206.78 53.7417 206.719C53.8981 206.584 53.9165 206.468 53.9923 206.273C54.1219 205.957 54.3493 205.688 54.6052 205.464C55.0868 205.039 55.7756 204.875 56.3965 204.8C56.5267 204.786 56.513 204.579 56.3852 204.574Z" fill="#353541"/>
<path fill-rule="evenodd" clip-rule="evenodd" d="M86.0875 207.671C85.2572 207.933 84.9402 208.63 84.8119 209.453C84.7193 210.037 84.7894 211.497 85.5657 211.615C85.6338 211.626 85.6935 211.551 85.6785 211.489C85.6317 211.28 85.5074 211.166 85.3959 210.98C85.1877 210.637 85.1374 210.208 85.1271 209.816C85.1108 209.085 85.4108 208.105 86.1196 207.764C86.1679 207.742 86.1451 207.655 86.0875 207.671Z" fill="#353541"/>
<path fill-rule="evenodd" clip-rule="evenodd" d="M86.3293 160.849C89.4284 161.532 91.3109 164.916 92.176 167.697C92.753 169.553 92.9364 171.506 92.8545 173.441C92.7628 175.683 92.0354 177.69 91.4513 179.825C91.3969 180.022 91.6739 180.195 91.7911 179.998C93.9098 176.379 93.9689 171.099 92.6377 167.202C91.6174 164.217 89.6794 161.269 86.3556 160.722C86.2842 160.71 86.2563 160.831 86.3293 160.849Z" fill="#353541"/>
<path fill-rule="evenodd" clip-rule="evenodd" d="M73.145 171.778C72.1052 174.48 72.073 177.262 72.8781 180.04C73.5714 182.438 75.1612 185.394 77.4358 186.627C77.5663 186.697 77.7217 186.554 77.618 186.429C76.8443 185.5 75.9544 184.702 75.2389 183.718C74.4684 182.659 73.9078 181.454 73.4655 180.228C72.5097 177.574 72.4593 174.513 73.231 171.806C73.2429 171.752 73.1646 171.722 73.145 171.778Z" fill="#353541"/>
<path fill-rule="evenodd" clip-rule="evenodd" d="M76.6167 172.045C77.5516 172.131 78.2861 172.557 78.9392 173.21C79.4743 173.741 79.7464 174.453 80.2403 175.007C80.2836 175.057 80.3806 175.017 80.363 174.946C79.9592 173.417 78.2136 171.923 76.6246 171.928C76.5535 171.93 76.5436 172.038 76.6167 172.045Z" fill="#353541"/>
<path fill-rule="evenodd" clip-rule="evenodd" d="M80.277 174.699C79.4552 171.527 82.9056 170.232 85.3327 169.655C87.0483 169.248 88.6981 168.408 89.7494 166.944C89.8671 166.783 89.6468 166.611 89.4997 166.72C88.1799 167.687 87.3095 168.694 85.6524 169.165C84.4672 169.502 83.33 169.734 82.2328 170.319C80.5606 171.212 79.3635 172.875 80.0849 174.762C80.1267 174.869 80.3022 174.811 80.277 174.699Z" fill="#353541"/>
<path fill-rule="evenodd" clip-rule="evenodd" d="M89.2973 167.011C89.4232 167.877 89.6175 168.706 89.6259 169.585C89.631 170.669 89.0428 171.319 88.4573 172.145C88.4037 172.224 88.4961 172.334 88.58 172.289C90.4865 171.307 90.1022 168.634 89.5574 166.964C89.5043 166.805 89.2741 166.841 89.2973 167.011Z" fill="#353541"/>
<path fill-rule="evenodd" clip-rule="evenodd" d="M88.6455 172.284C89.1107 172.231 89.049 172.706 88.8695 172.981C88.7385 173.18 88.4704 173.307 88.2681 173.421C88.0352 173.553 87.4594 173.742 87.4536 174.069C87.4494 174.123 87.4868 174.158 87.5374 174.166C87.8042 174.216 88.204 173.882 88.4291 173.751C88.7105 173.585 89.0817 173.38 89.2184 173.064C89.4582 172.503 89.3122 171.752 88.5656 172.049C88.4232 172.102 88.5093 172.298 88.6455 172.284Z" fill="#353541"/>
<path fill-rule="evenodd" clip-rule="evenodd" d="M88.0419 174.003C88.5185 174.196 89.027 174.524 88.4975 174.986C88.0975 175.337 87.5932 175.558 87.1075 175.764C86.3078 176.101 85.4361 176.303 84.6701 176.707C84.5989 176.747 84.6164 176.86 84.7005 176.867C85.1196 176.904 85.5398 176.738 85.9253 176.602C86.6635 176.35 87.3798 176.055 88.0509 175.664C88.3884 175.465 88.9524 175.12 88.9866 174.671C89.0188 174.18 88.4785 173.974 88.0978 173.843C87.9916 173.804 87.9368 173.96 88.0419 174.003Z" fill="#353541"/>
<path fill-rule="evenodd" clip-rule="evenodd" d="M84.4255 176.998C86.0178 177.677 86.1545 179.615 86.5639 181.077C86.791 181.886 87.366 183.422 88.4137 183.377C88.5025 183.371 88.5524 183.282 88.4997 183.206C88.0775 182.611 87.525 182.308 87.195 181.592C86.8817 180.902 86.735 180.133 86.5259 179.404C86.1957 178.258 85.6649 177.258 84.4543 176.915C84.4023 176.901 84.3757 176.976 84.4255 176.998Z" fill="#353541"/>
<path fill-rule="evenodd" clip-rule="evenodd" d="M76.1071 172.532C75.7901 172.93 75.652 173.365 75.8607 173.848C75.9339 174.018 76.1936 173.893 76.1198 173.725C75.9518 173.352 75.9948 172.941 76.1931 172.592C76.2244 172.534 76.1493 172.48 76.1071 172.532Z" fill="#353541"/>
<path fill-rule="evenodd" clip-rule="evenodd" d="M75.8518 173.876C75.2379 174 74.7186 174.412 74.539 175.028C74.5013 175.146 74.6518 175.274 74.7514 175.175C74.9378 174.991 75.1598 174.884 75.4061 174.808C75.6048 174.747 75.8377 174.72 75.9953 174.576C76.0411 174.535 76.0349 174.442 75.968 174.428C75.5094 174.315 74.887 174.652 74.5779 174.97C74.647 175.02 74.7206 175.068 74.7903 175.116C75.0169 174.624 75.338 174.183 75.8843 174.015C75.964 173.987 75.9446 173.859 75.8518 173.876Z" fill="#353541"/>
<path fill-rule="evenodd" clip-rule="evenodd" d="M75.9449 174.654C76.497 175.699 76.6955 176.878 77.1711 177.957C77.5749 178.872 78.3337 179.534 79.1433 180.082C80.6252 181.087 82.8491 181.429 84.2984 180.214C84.4263 180.108 84.2896 179.94 84.1511 179.987C82.1824 180.657 80.5499 180.56 78.8314 179.305C77.2364 178.139 77.1216 176.138 76.1275 174.565C76.0592 174.46 75.8812 174.536 75.9449 174.654Z" fill="#353541"/>
<path fill-rule="evenodd" clip-rule="evenodd" d="M83.7668 179.746C83.9478 180.308 84.0271 180.823 83.9812 181.416C83.9428 181.882 83.7164 182.5 83.9674 182.921C83.9985 182.974 84.0759 182.99 84.1142 182.933C84.3926 182.509 84.3302 181.767 84.3636 181.268C84.4016 180.687 84.3159 180.121 83.9578 179.654C83.8942 179.567 83.7295 179.637 83.7668 179.746Z" fill="#353541"/>
<path fill-rule="evenodd" clip-rule="evenodd" d="M85.1035 180.896C84.9834 181.269 84.7896 181.606 84.5947 181.945C84.4429 182.204 84.2328 182.429 84.1253 182.708C84.1132 182.743 84.1528 182.783 84.1856 182.763C84.7955 182.403 85.0348 181.564 85.1774 180.922C85.1875 180.872 85.1213 180.845 85.1035 180.896Z" fill="#353541"/>
<path fill-rule="evenodd" clip-rule="evenodd" d="M84.971 181.224C85.5635 182.122 86.7544 183.103 87.9198 182.896C87.9883 182.885 87.9996 182.801 87.9457 182.76C87.5819 182.471 87.0792 182.363 86.6521 182.171C86.0775 181.91 85.6004 181.502 85.1452 181.074C85.0373 180.972 84.8877 181.098 84.971 181.224Z" fill="#353541"/>
<path fill-rule="evenodd" clip-rule="evenodd" d="M81.4107 177.216C79.9379 176.259 80.3809 174.505 80.1819 173.049C80.1683 172.935 80.0259 172.951 79.9855 173.035C79.6236 173.755 79.8035 174.793 79.972 175.548C80.1392 176.312 80.5313 177.134 81.3304 177.376C81.4242 177.404 81.4995 177.273 81.4107 177.216Z" fill="#353541"/>
<path fill-rule="evenodd" clip-rule="evenodd" d="M88.1655 169.066C87.2786 169.967 86.249 170.702 85.1219 171.268C84.1991 171.73 83.1267 172.04 82.2898 172.641C82.1978 172.708 82.2815 172.848 82.382 172.83C84.5113 172.485 86.8769 170.738 88.2649 169.156C88.3126 169.099 88.2154 169.014 88.1655 169.066Z" fill="#353541"/>
<path fill-rule="evenodd" clip-rule="evenodd" d="M81.9104 173.067C82.1894 173.492 81.9358 173.951 81.6011 174.247C81.5017 174.336 81.1021 174.528 81.3428 174.693C81.3886 174.726 81.4545 174.733 81.5045 174.706C82.1388 174.377 82.5939 173.544 82.0751 172.93C81.9821 172.821 81.8373 172.955 81.9104 173.067Z" fill="#353541"/>
<path fill-rule="evenodd" clip-rule="evenodd" d="M81.5986 174.745C82.2223 174.798 82.1915 175.306 81.9805 175.76C81.883 175.964 81.7472 176.156 81.5947 176.322C81.5055 176.424 81.3581 176.512 81.3727 176.665C81.3778 176.692 81.3989 176.711 81.4246 176.722C81.8445 176.914 83.1017 174.638 81.6051 174.617C81.5264 174.615 81.5145 174.738 81.5986 174.745Z" fill="#353541"/>
<path fill-rule="evenodd" clip-rule="evenodd" d="M87.5606 171.842C86.7752 172.423 85.9667 173.001 85.1481 173.529C84.3656 174.033 83.4419 174.24 82.6714 174.721C82.5997 174.762 82.6054 174.888 82.7023 174.89C83.6146 174.91 84.559 174.334 85.3132 173.873C86.2037 173.33 86.8847 172.631 87.5973 171.885C87.6198 171.858 87.5907 171.82 87.5606 171.842Z" fill="#353541"/>
<path fill-rule="evenodd" clip-rule="evenodd" d="M85.6642 174.83C85.0675 175.152 84.3755 175.304 83.8276 175.707C83.7791 175.74 83.8337 175.805 83.8792 175.786C84.5043 175.546 85.153 175.313 85.7388 174.985C85.8372 174.931 85.7631 174.774 85.6642 174.83Z" fill="#353541"/>
<path fill-rule="evenodd" clip-rule="evenodd" d="M75.9525 172.354C75.7036 172.254 75.5178 172.125 75.3879 171.881C75.3393 171.924 75.289 171.968 75.2377 172.009C75.479 172.141 75.7679 172.16 76.0041 172.302C76.1044 172.363 76.2558 172.263 76.1895 172.142C75.9952 171.791 76.0222 171.446 76.1335 171.072C76.0818 171.098 76.0253 171.122 75.9736 171.149C76.0076 171.157 76.0361 171.165 76.068 171.169C76.0327 171.138 75.9958 171.107 75.9611 171.074C75.981 171.375 76.0748 171.633 76.2604 171.877C76.3903 172.048 76.6521 172.312 76.8796 172.205C76.9152 172.188 76.9323 172.15 76.9263 172.115C76.9077 172.005 76.8701 171.975 76.7819 171.911C76.6338 171.807 76.501 171.707 76.3894 171.562C76.269 171.411 76.2154 171.217 76.1941 171.03C76.1848 170.963 76.1131 170.936 76.0583 170.913C75.996 170.885 75.9199 170.929 75.8985 170.989C75.7463 171.412 75.7309 171.855 75.9657 172.253C76.0163 172.194 76.0678 172.136 76.1211 172.079C75.8796 171.957 75.5952 171.974 75.3578 171.84C75.2759 171.795 75.1568 171.871 75.2075 171.968C75.3726 172.287 75.5782 172.379 75.9103 172.479C75.9925 172.508 76.0352 172.387 75.9525 172.354Z" fill="#353541"/>
<path fill-rule="evenodd" clip-rule="evenodd" d="M79.2897 173.131C78.1265 171.556 81.3852 169.211 82.2594 168.309C83.3857 167.147 84.5363 165.674 84.7732 164.027C84.8039 163.83 84.5262 163.806 84.4554 163.96C83.8641 165.212 83.3557 166.339 82.4486 167.402C81.6991 168.285 80.7716 169.002 80.0119 169.872C79.2992 170.693 78.1795 172.235 79.1858 173.222C79.2459 173.282 79.3442 173.202 79.2897 173.131Z" fill="#353541"/>
<path fill-rule="evenodd" clip-rule="evenodd" d="M84.7199 164.404C84.8506 164.904 84.8631 165.425 84.8582 165.938C84.8573 166.403 84.658 166.875 84.7185 167.329C84.7294 167.403 84.8223 167.411 84.8628 167.359C85.1392 166.993 85.1245 166.399 85.1354 165.958C85.145 165.395 84.9895 164.897 84.7681 164.387C84.7569 164.361 84.7115 164.375 84.7199 164.404Z" fill="#353541"/>
<path fill-rule="evenodd" clip-rule="evenodd" d="M84.9775 165.91C85.4254 166.453 85.4615 167.117 85.4159 167.794C85.3915 168.11 85.3095 168.411 85.1897 168.705C85.063 169.013 84.8128 169.195 84.652 169.469C84.6248 169.515 84.6584 169.582 84.7187 169.568C85.3558 169.436 85.6064 168.344 85.7019 167.815C85.8226 167.13 85.7065 166.199 85.0969 165.78C85.0076 165.719 84.9111 165.831 84.9775 165.91Z" fill="#353541"/>
<path fill-rule="evenodd" clip-rule="evenodd" d="M82.3687 169.255C82.248 169.363 82.1046 169.44 81.9662 169.518C81.9134 169.548 81.9529 169.63 82.0078 169.605C82.1686 169.536 82.3179 169.468 82.4579 169.359C82.5255 169.303 82.4335 169.197 82.3687 169.255Z" fill="#353541"/>
<path fill-rule="evenodd" clip-rule="evenodd" d="M76.616 173.464C76.6283 173.45 76.6401 173.437 76.6524 173.423C76.7095 173.366 76.7218 173.289 76.6694 173.222C76.6613 173.214 76.6564 173.207 76.6489 173.197C76.6317 173.172 76.5939 173.159 76.5651 173.167C76.5535 173.169 76.5452 173.171 76.533 173.175C76.4468 173.194 76.4121 173.261 76.4175 173.341C76.4215 173.361 76.4229 173.378 76.4237 173.396C76.4296 173.48 76.5577 173.525 76.616 173.464Z" fill="#353541"/>
<path fill-rule="evenodd" clip-rule="evenodd" d="M68.1677 166.733C68.7606 165.823 69.5709 163.763 68.8198 162.765C68.7427 162.664 68.5862 162.731 68.5756 162.845C68.5111 163.533 68.6585 164.159 68.5035 164.857C68.3669 165.472 68.0641 166.045 67.9918 166.671C67.9804 166.767 68.119 166.814 68.1677 166.733Z" fill="#353541"/>
<path fill-rule="evenodd" clip-rule="evenodd" d="M65.5382 158.082C65.4056 159.783 64.4065 161.014 62.9921 161.872C62.7819 161.997 62.9264 162.296 63.1536 162.211C64.7907 161.612 65.6855 159.743 65.7164 158.095C65.7183 157.979 65.5494 157.966 65.5382 158.082Z" fill="#353541"/>
<path fill-rule="evenodd" clip-rule="evenodd" d="M65.6841 159.544C65.4342 160.15 65.1946 160.763 64.8704 161.334C64.6986 161.639 64.4843 161.918 64.2331 162.161C63.9266 162.45 63.5354 162.497 63.1729 162.672C63.0579 162.732 63.0469 162.936 63.1923 162.974C64.8509 163.397 65.6304 160.752 65.9535 159.638C66.0081 159.462 65.754 159.371 65.6841 159.544Z" fill="#353541"/>
<path fill-rule="evenodd" clip-rule="evenodd" d="M97.7124 178.059C97.0814 177.539 96.009 176.793 95.1459 177.206C94.9594 177.295 95.0409 177.536 95.2161 177.568C95.6065 177.639 95.9858 177.584 96.3812 177.688C96.7904 177.794 97.2494 177.985 97.597 178.22C97.707 178.295 97.8114 178.14 97.7124 178.059Z" fill="#353541"/>
<path fill-rule="evenodd" clip-rule="evenodd" d="M65.2231 152.696C65.0021 153.078 65.1706 153.555 65.3354 153.926C65.5091 154.325 65.8158 154.907 66.2343 155.082C66.3065 155.113 66.3738 155.042 66.3628 154.974C66.3011 154.598 65.9665 154.273 65.7817 153.948C65.5664 153.568 65.4579 153.225 65.4782 152.79C65.4864 152.656 65.2956 152.568 65.2231 152.696Z" fill="#353541"/>
<path fill-rule="evenodd" clip-rule="evenodd" d="M66.0165 152.325C65.9837 152.718 66.056 153.085 66.1795 153.453C66.2941 153.794 66.4745 154.253 66.7885 154.457C66.8533 154.498 66.9478 154.445 66.9298 154.365C66.8674 154.069 66.6518 153.811 66.5157 153.542C66.3257 153.168 66.2121 152.761 66.2272 152.34C66.2321 152.205 66.0324 152.191 66.0165 152.325Z" fill="#353541"/>
<path fill-rule="evenodd" clip-rule="evenodd" d="M66.7685 151.344C66.7261 151.754 66.7544 152.157 66.8542 152.555C66.9359 152.885 67.0896 153.33 67.4339 153.459C67.5199 153.493 67.6027 153.409 67.5903 153.323C67.5441 153.045 67.3376 152.803 67.23 152.542C67.079 152.173 67.0438 151.758 67.0606 151.364C67.073 151.176 66.787 151.155 66.7685 151.344Z" fill="#353541"/>
<path fill-rule="evenodd" clip-rule="evenodd" d="M67.7106 150.953C67.7952 151.274 67.8846 151.676 68.1336 151.913C68.1677 151.947 68.231 151.914 68.2087 151.862C68.0689 151.551 67.9343 151.256 67.8493 150.926C67.8259 150.84 67.6911 150.866 67.7106 150.953Z" fill="#353541"/>
<path fill-rule="evenodd" clip-rule="evenodd" d="M39.2073 179.508C39.2497 179.949 39.3381 180.375 39.4884 180.794C39.6039 181.111 39.8173 181.675 40.2089 181.706C40.2683 181.71 40.3374 181.66 40.3346 181.595C40.3331 181.279 40.0149 180.997 39.8722 180.725C39.6654 180.332 39.5519 179.893 39.474 179.458C39.4416 179.282 39.1918 179.336 39.2073 179.508Z" fill="#353541"/>
<path fill-rule="evenodd" clip-rule="evenodd" d="M40.1833 179.005C40.1376 179.414 40.1609 179.815 40.2585 180.215C40.3287 180.509 40.489 181.056 40.8244 181.126C40.9018 181.142 40.997 181.107 40.9957 181.016C40.9927 180.725 40.7292 180.472 40.6178 180.206C40.4668 179.837 40.425 179.42 40.4391 179.023C40.4473 178.858 40.2025 178.84 40.1833 179.005Z" fill="#353541"/>
<path fill-rule="evenodd" clip-rule="evenodd" d="M41.221 177.609C41.3099 178.076 41.4064 178.547 41.6049 178.98C41.7661 179.33 42.0602 179.807 42.4906 179.795C42.5705 179.794 42.6261 179.725 42.5921 179.648C42.4407 179.302 42.0886 179.069 41.9019 178.728C41.7024 178.361 41.5888 177.959 41.484 177.559C41.4371 177.393 41.1902 177.439 41.221 177.609Z" fill="#353541"/>
<path fill-rule="evenodd" clip-rule="evenodd" d="M42.9509 177.15C43.1024 177.486 43.2214 177.962 43.5456 178.179C43.6186 178.229 43.7229 178.147 43.6796 178.065C43.5946 177.908 43.4856 177.767 43.4039 177.61C43.3088 177.429 43.2386 177.24 43.1512 177.058C43.0861 176.928 42.8913 177.021 42.9509 177.15Z" fill="#353541"/>
<path fill-rule="evenodd" clip-rule="evenodd" d="M43.88 175.06C43.968 175.786 44.1268 176.664 44.698 177.176C44.7956 177.266 44.9103 177.123 44.8733 177.024C44.7636 176.721 44.6041 176.434 44.4873 176.131C44.3478 175.767 44.2714 175.38 44.2164 174.995C44.1831 174.775 43.8532 174.842 43.88 175.06Z" fill="#353541"/>
<path fill-rule="evenodd" clip-rule="evenodd" d="M62.5918 192.753C64.0746 193.56 65.8789 194.519 67.6233 194.03C67.771 193.987 67.756 193.794 67.6072 193.766C66.7115 193.604 65.8271 193.663 64.9265 193.431C64.1493 193.232 63.382 192.962 62.6539 192.623C62.5833 192.593 62.5186 192.714 62.5918 192.753Z" fill="#353541"/>
<path fill-rule="evenodd" clip-rule="evenodd" d="M82.5042 207.661C83.0629 208.02 83.5866 208.231 84.2589 208.241C84.8046 208.248 85.6034 208.202 85.9989 207.79C86.0672 207.717 86.0355 207.602 85.93 207.587C85.508 207.528 85.0718 207.729 84.6479 207.79C83.9975 207.887 83.1761 207.834 82.5944 207.53C82.5054 207.484 82.4148 207.606 82.5042 207.661Z" fill="#353541"/>
<defs>
<linearGradient id="paint0_linear_337_35780" x1="-22.2665" y1="239.352" x2="-220.287" y2="141.598" gradientUnits="userSpaceOnUse">
<stop stop-color="#E1880D"/>
<stop offset="1" stop-color="#FFF4E4"/>
</linearGradient>
<linearGradient id="paint1_linear_337_35780" x1="-23.9351" y1="179.894" x2="-78.9214" y2="153.507" gradientUnits="userSpaceOnUse">
<stop stop-color="#E1880D"/>
<stop offset="1" stop-color="#FFF4E4"/>
</linearGradient>
<linearGradient id="paint2_linear_337_35780" x1="2.32595" y1="183.006" x2="-37.5281" y2="165.381" gradientUnits="userSpaceOnUse">
<stop stop-color="#E1880D"/>
<stop offset="1" stop-color="#FFF4E4"/>
</linearGradient>
<linearGradient id="paint3_linear_337_35780" x1="-18.216" y1="156.082" x2="-47.7601" y2="141.255" gradientUnits="userSpaceOnUse">
<stop stop-color="#E1880D"/>
<stop offset="1" stop-color="#FFF4E4"/>
</linearGradient>
<linearGradient id="paint4_linear_337_35780" x1="56.1862" y1="208.044" x2="1.19894" y2="181.657" gradientUnits="userSpaceOnUse">
<stop stop-color="#E1880D"/>
<stop offset="1" stop-color="#FFF4E4"/>
</linearGradient>
<linearGradient id="paint5_linear_337_35780" x1="38.1287" y1="195.584" x2="-1.72538" y2="177.959" gradientUnits="userSpaceOnUse">
<stop stop-color="#E1880D"/>
<stop offset="1" stop-color="#FFF4E4"/>
</linearGradient>
<linearGradient id="paint6_linear_337_35780" x1="73.573" y1="188.331" x2="44.029" y2="173.504" gradientUnits="userSpaceOnUse">
<stop stop-color="#E1880D"/>
<stop offset="1" stop-color="#FFF4E4"/>
</linearGradient>
</defs>
</svg>
