<svg width="21" height="20" viewBox="0 0 21 20" fill="none" xmlns="http://www.w3.org/2000/svg">
<path d="M2.91797 3.33399C2.91797 3.10064 2.99853 2.9034 3.15966 2.74228C3.32078 2.58116 3.51802 2.50059 3.75137 2.50059H17.0858C17.3192 2.50059 17.5164 2.58116 17.6775 2.74228C17.8386 2.9034 17.9192 3.10064 17.9192 3.33399V16.6684C17.9192 16.9018 17.8386 17.099 17.6775 17.2601C17.5164 17.4213 17.3192 17.5018 17.0858 17.5018H3.75137C3.51802 17.5018 3.32078 17.4213 3.15966 17.2601C2.99853 17.099 2.91797 16.9018 2.91797 16.6684V3.33399ZM4.58477 4.1674V15.835H16.2524V4.1674H4.58477ZM9.26849 7.01763L13.3355 9.71786C13.4133 9.77342 13.4605 9.84564 13.4772 9.93454C13.4938 10.0234 13.48 10.1068 13.4355 10.1846C13.4022 10.2179 13.3688 10.2512 13.3355 10.2846L9.26849 12.9848C9.19071 13.0404 9.10737 13.0598 9.01847 13.0431C8.92958 13.0265 8.85735 12.9792 8.80179 12.9015C8.76845 12.8459 8.75178 12.7848 8.75178 12.7181V7.28432C8.75178 7.19543 8.78512 7.11764 8.85179 7.05097C8.91846 6.9843 8.99625 6.95096 9.08514 6.95096C9.15182 6.95096 9.21293 6.97318 9.26849 7.01763Z" fill="#C084FC"/>
</svg>
