<svg width="19" height="18" viewBox="0 0 19 18" fill="none" xmlns="http://www.w3.org/2000/svg">
<path d="M16.5 5.25H17.25V12.75H16.5V15C16.5 15.21 16.4275 15.3875 16.2825 15.5325C16.1375 15.6775 15.96 15.75 15.75 15.75H2.25C2.04 15.75 1.8625 15.6775 1.7175 15.5325C1.5725 15.3875 1.5 15.21 1.5 15V3C1.5 2.79 1.5725 2.6125 1.7175 2.4675C1.8625 2.3225 2.04 2.25 2.25 2.25H15.75C15.96 2.25 16.1375 2.3225 16.2825 2.4675C16.4275 2.6125 16.5 2.79 16.5 3V5.25ZM15 12.75H10.5C9.82 12.75 9.1925 12.5825 8.6175 12.2475C8.0425 11.9125 7.5875 11.4575 7.2525 10.8825C6.9175 10.3075 6.75 9.68 6.75 9C6.75 8.32 6.9175 7.6925 7.2525 7.1175C7.5875 6.5425 8.0425 6.0875 8.6175 5.7525C9.1925 5.4175 9.82 5.25 10.5 5.25H15V3.75H3V14.25H15V12.75ZM15.75 11.25V6.75H10.5C10.09 6.75 9.7125 6.85 9.3675 7.05C9.0225 7.25 8.75 7.5225 8.55 7.8675C8.35 8.2125 8.25 8.59 8.25 9C8.25 9.41 8.35 9.7875 8.55 10.1325C8.75 10.4775 9.0225 10.75 9.3675 10.95C9.7125 11.15 10.09 11.25 10.5 11.25H15.75ZM10.5 8.25H12.75V9.75H10.5V8.25Z" fill="white"/>
</svg>
