<svg width="80" height="81" viewBox="0 0 80 81" fill="none" xmlns="http://www.w3.org/2000/svg">
<path d="M23.5312 11.1533V16.7351" stroke="url(#paint0_linear_106_4530)" stroke-width="0.25143" stroke-miterlimit="10"/>
<path d="M59.2343 79.7679L69.4926 73.985C69.9703 73.6582 70.3223 73.0799 70.3223 72.4262V37.9049C70.3223 36.1448 69.392 34.4854 67.8583 33.6054C58.4045 28.0739 35.6501 14.8739 24.1095 8.18584C23.5061 7.83384 22.8523 7.73327 22.2489 7.83384L10.9346 14.0442L59.2343 79.7679Z" fill="url(#paint1_linear_106_4530)" stroke="url(#paint2_linear_106_4530)" stroke-width="0.25143" stroke-miterlimit="10"/>
<path d="M36.0776 2.17712L39.7737 0.341678C44.0228 -1.01604 51.3394 4.2137 53.8286 11.0275C56.1418 17.3635 56.0412 22.7944 52.5966 24.6298L49.0766 26.3898L49.8309 16.1566L45.104 6.65257L37.4354 3.58512L36.0776 2.17712Z" fill="url(#paint3_linear_106_4530)" stroke="url(#paint4_linear_106_4530)" stroke-width="0.25143" stroke-miterlimit="10"/>
<path d="M67.6321 75.1171V39.6403C67.6321 37.8803 66.7018 36.2209 65.1681 35.3409C55.7143 29.8094 35.0971 17.8414 23.5565 11.1533L18.7542 13.8436C30.2948 20.5317 50.912 32.4997 60.3658 38.0312C61.8995 38.9363 62.8298 40.5706 62.8298 42.3306V77.8074" fill="#2E2D27"/>
<path d="M67.6321 75.1171V39.6403C67.6321 37.8803 66.7018 36.2209 65.1681 35.3409C55.7143 29.8094 35.0971 17.8414 23.5565 11.1533L18.7542 13.8436C30.2948 20.5317 50.912 32.4997 60.3658 38.0312C61.8995 38.9363 62.8298 40.5706 62.8298 42.3306V77.8074" stroke="url(#paint5_linear_106_4530)" stroke-width="0.25143" stroke-miterlimit="10"/>
<path d="M48.0708 26.7919C46.9897 27.1439 45.7074 27.0936 44.3245 26.7667C40.3016 25.7359 35.625 21.9896 33.7644 16.9107C31.2753 10.0969 31.8536 3.55975 36.1028 2.20203C40.3519 0.844308 47.6685 6.07405 50.1577 12.8878C52.6217 19.6513 52.32 25.4342 48.0708 26.7919Z" fill="url(#paint6_linear_106_4530)" stroke="url(#paint7_linear_106_4530)" stroke-width="0.25143" stroke-miterlimit="10"/>
<path d="M57.1977 79.869C47.6183 74.2621 25.6936 61.5398 14.2284 54.902C11.4124 53.2677 9.67749 50.2506 9.67749 47.0071V16.383C9.67749 14.2207 12.0158 12.8881 13.8764 13.9692C25.417 20.6573 48.1714 33.8573 57.6252 39.3888C59.1589 40.294 60.0892 41.9282 60.0892 43.6883V78.2096C60.064 79.693 58.4549 80.5982 57.1977 79.869Z" fill="url(#paint8_linear_106_4530)" stroke="url(#paint9_linear_106_4530)" stroke-width="0.25143" stroke-miterlimit="10"/>
<path d="M46.4115 23.4483C45.632 23.6997 44.6766 23.6746 43.696 23.4231C40.7794 22.6688 37.36 19.9283 36.0023 16.2322C34.192 11.2791 34.5943 6.50191 37.6869 5.52133C40.7794 4.54075 46.1098 8.33735 47.9201 13.2905C49.7303 18.2437 49.5041 22.4677 46.4115 23.4483Z" fill="#2E2D27" stroke="url(#paint10_linear_106_4530)" stroke-width="0.25143" stroke-miterlimit="10"/>
<path d="M40.3774 44.417C40.3776 43.2567 41.6304 42.5385 42.6274 43.1182L59.7876 53.0625V68.2109L42.5024 58.1875H42.5015C41.1822 57.4051 40.3775 56.013 40.3774 54.4746V44.417Z" fill="url(#paint11_linear_106_4530)" stroke="url(#paint12_linear_106_4530)" stroke-width="0.25143"/>
<path d="M44.8323 48.8896C45.1886 48.8035 45.6069 48.8578 46.052 49.0361C46.4965 49.2142 46.9602 49.5127 47.3997 49.9043C48.2244 50.6393 48.9539 51.6897 49.3157 52.8428L49.3831 53.0742C49.7198 54.3216 49.8156 55.4511 49.6418 56.3076C49.4689 57.1601 49.0345 57.724 48.3176 57.8975L48.3167 57.8984C47.9922 57.9794 47.6256 57.9552 47.2297 57.834L47.0588 57.7764L47.0549 57.7754L46.7971 57.6768C45.5002 57.1254 44.1276 55.72 43.6663 53.9902C43.3302 52.7333 43.2584 51.5278 43.4573 50.6006C43.6565 49.6722 44.1189 49.0503 44.8303 48.8896H44.8323Z" fill="url(#paint13_linear_106_4530)" stroke="url(#paint14_linear_106_4530)" stroke-width="0.25143"/>
<defs>
<linearGradient id="paint0_linear_106_4530" x1="23.6746" y1="11.1533" x2="24.6602" y2="11.2061" gradientUnits="userSpaceOnUse">
<stop stop-color="#F97316"/>
<stop offset="1" stop-color="#F97316"/>
</linearGradient>
<linearGradient id="paint1_linear_106_4530" x1="19.4497" y1="7.79686" x2="74.7786" y2="21.4471" gradientUnits="userSpaceOnUse">
<stop stop-color="#F97316"/>
<stop offset="1" stop-color="#F97316"/>
</linearGradient>
<linearGradient id="paint2_linear_106_4530" x1="19.4497" y1="7.79686" x2="74.7786" y2="21.4471" gradientUnits="userSpaceOnUse">
<stop stop-color="#F97316"/>
<stop offset="1" stop-color="#F97316"/>
</linearGradient>
<linearGradient id="paint3_linear_106_4530" x1="38.8482" y1="0.12597" x2="57.0651" y2="4.1332" gradientUnits="userSpaceOnUse">
<stop stop-color="#F97316"/>
<stop offset="1" stop-color="#F97316"/>
</linearGradient>
<linearGradient id="paint4_linear_106_4530" x1="38.8482" y1="0.12597" x2="57.0651" y2="4.1332" gradientUnits="userSpaceOnUse">
<stop stop-color="#F97316"/>
<stop offset="1" stop-color="#F97316"/>
</linearGradient>
<linearGradient id="paint5_linear_106_4530" x1="25.7624" y1="11.1533" x2="71.8558" y2="21.2592" gradientUnits="userSpaceOnUse">
<stop stop-color="#F97316"/>
<stop offset="1" stop-color="#F97316"/>
</linearGradient>
<linearGradient id="paint6_linear_106_4530" x1="35.0727" y1="1.98632" x2="53.2919" y2="6.21059" gradientUnits="userSpaceOnUse">
<stop stop-color="#F97316"/>
<stop offset="1" stop-color="#F97316"/>
</linearGradient>
<linearGradient id="paint7_linear_106_4530" x1="35.0727" y1="1.98632" x2="53.2919" y2="6.21059" gradientUnits="userSpaceOnUse">
<stop stop-color="#F97316"/>
<stop offset="1" stop-color="#F97316"/>
</linearGradient>
<linearGradient id="paint8_linear_106_4530" x1="16.9056" y1="13.5859" x2="64.2989" y2="24.3212" gradientUnits="userSpaceOnUse">
<stop stop-color="#F97316"/>
<stop offset="1" stop-color="#F97316"/>
</linearGradient>
<linearGradient id="paint9_linear_106_4530" x1="16.9056" y1="13.5859" x2="64.2989" y2="24.3212" gradientUnits="userSpaceOnUse">
<stop stop-color="#F97316"/>
<stop offset="1" stop-color="#F97316"/>
</linearGradient>
<linearGradient id="paint10_linear_106_4530" x1="36.9496" y1="5.36621" x2="50.2142" y2="8.43763" gradientUnits="userSpaceOnUse">
<stop stop-color="#F97316"/>
<stop offset="1" stop-color="#F97316"/>
</linearGradient>
<linearGradient id="paint11_linear_106_4530" x1="43.0706" y1="42.7871" x2="61.5332" y2="47.0198" gradientUnits="userSpaceOnUse">
<stop stop-color="#F97316"/>
<stop offset="1" stop-color="#F97316"/>
</linearGradient>
<linearGradient id="paint12_linear_106_4530" x1="43.0706" y1="42.7871" x2="61.5332" y2="47.0198" gradientUnits="userSpaceOnUse">
<stop stop-color="#F97316"/>
<stop offset="1" stop-color="#F97316"/>
</linearGradient>
<linearGradient id="paint13_linear_106_4530" x1="44.1726" y1="48.7236" x2="50.4438" y2="50.0536" gradientUnits="userSpaceOnUse">
<stop stop-color="#F97316"/>
<stop offset="1" stop-color="#F97316"/>
</linearGradient>
<linearGradient id="paint14_linear_106_4530" x1="44.1726" y1="48.7236" x2="50.4438" y2="50.0536" gradientUnits="userSpaceOnUse">
<stop stop-color="#F97316"/>
<stop offset="1" stop-color="#F97316"/>
</linearGradient>
</defs>
</svg>
