<svg width="18" height="18" viewBox="0 0 18 18" fill="none" xmlns="http://www.w3.org/2000/svg">
<path d="M9.64535 2.44531L16.8004 14.8203C16.9004 14.9903 16.9229 15.1753 16.8679 15.3753C16.8129 15.5753 16.6954 15.7303 16.5154 15.8403C16.4054 15.9103 16.2804 15.9453 16.1404 15.9453H1.86035C1.65035 15.9453 1.47285 15.8703 1.32785 15.7203C1.18285 15.5703 1.11035 15.3953 1.11035 15.1953C1.11035 15.0553 1.14035 14.9303 1.20035 14.8203L8.35535 2.44531C8.45535 2.26531 8.60535 2.14781 8.80535 2.09281C9.00535 2.03781 9.19535 2.06031 9.37535 2.16031C9.49535 2.23031 9.58535 2.32531 9.64535 2.44531ZM3.15035 14.4453H14.8504L9.00035 4.32031L3.15035 14.4453ZM8.25035 12.1953H9.75035V13.6953H8.25035V12.1953ZM8.25035 6.94531H9.75035V10.6953H8.25035V6.94531Z" fill="#EF4444"/>
</svg>
