<svg width="19" height="18" viewBox="0 0 19 18" fill="none" xmlns="http://www.w3.org/2000/svg">
<path d="M9.375 16.5C8.355 16.5 7.38 16.305 6.45 15.915C5.56 15.535 4.7675 14.9975 4.0725 14.3025C3.3775 13.6075 2.84 12.815 2.46 11.925C2.07 10.995 1.875 10.02 1.875 9C1.875 7.98 2.07 7.005 2.46 6.075C2.84 5.185 3.3775 4.3925 4.0725 3.6975C4.7675 3.0025 5.56 2.465 6.45 2.085C7.38 1.695 8.355 1.5 9.375 1.5C10.395 1.5 11.37 1.695 12.3 2.085C13.19 2.465 13.9825 3.0025 14.6775 3.6975C15.3725 4.3925 15.91 5.185 16.29 6.075C16.68 7.005 16.875 7.98 16.875 9C16.875 10.02 16.68 10.995 16.29 11.925C15.91 12.815 15.3725 13.6075 14.6775 14.3025C13.9825 14.9975 13.19 15.535 12.3 15.915C11.37 16.305 10.395 16.5 9.375 16.5ZM7.665 14.745C6.915 13.165 6.49 11.5 6.39 9.75H3.42C3.52 10.53 3.7625 11.26 4.1475 11.94C4.5325 12.62 5.0275 13.2025 5.6325 13.6875C6.2375 14.1725 6.915 14.525 7.665 14.745ZM7.905 9.75C8.015 11.55 8.505 13.24 9.375 14.82C10.245 13.24 10.735 11.55 10.845 9.75H7.905ZM15.33 9.75H12.36C12.26 11.5 11.84 13.165 11.1 14.745C11.84 14.525 12.5125 14.1725 13.1175 13.6875C13.7225 13.2025 14.2175 12.62 14.6025 11.94C14.9875 11.26 15.23 10.53 15.33 9.75ZM3.42 8.25H6.39C6.49 6.5 6.915 4.835 7.665 3.255C6.915 3.475 6.2375 3.8275 5.6325 4.3125C5.0275 4.7975 4.5325 5.38 4.1475 6.06C3.7625 6.74 3.52 7.47 3.42 8.25ZM7.905 8.25H10.845C10.735 6.45 10.245 4.76 9.375 3.18C8.505 4.76 8.015 6.45 7.905 8.25ZM11.1 3.255C11.84 4.835 12.26 6.5 12.36 8.25H15.33C15.23 7.47 14.9875 6.74 14.6025 6.06C14.2175 5.38 13.7225 4.7975 13.1175 4.3125C12.5125 3.8275 11.84 3.475 11.1 3.255Z" fill="white"/>
</svg>
