<svg width="21" height="20" viewBox="0 0 21 20" fill="none" xmlns="http://www.w3.org/2000/svg">
<path d="M10.4186 13.3349H7.08498V6.66764H10.4186C11.0186 6.66764 11.5742 6.81765 12.0854 7.11767C12.5965 7.4177 13.0021 7.82329 13.3022 8.33444C13.6022 8.8456 13.7522 9.4012 13.7522 10.0012C13.7522 10.6013 13.6022 11.1569 13.3022 11.668C13.0021 12.1792 12.5965 12.5848 12.0854 12.8848C11.5742 13.1848 11.0186 13.3349 10.4186 13.3349ZM8.75178 8.33444V11.668H10.4186C10.7186 11.668 10.9964 11.593 11.252 11.443C11.5076 11.293 11.7104 11.0902 11.8604 10.8346C12.0104 10.5791 12.0854 10.3013 12.0854 10.0012C12.0854 9.70122 12.0104 9.42342 11.8604 9.16784C11.7104 8.91227 11.5076 8.70947 11.252 8.55946C10.9964 8.40945 10.7186 8.33444 10.4186 8.33444H8.75178ZM12.9188 3.33403H4.58477V16.6685H16.2524V6.66764H12.9188V3.33403ZM2.91797 2.50063C2.91797 2.26727 2.99853 2.07004 3.15966 1.90891C3.32078 1.74779 3.51802 1.66722 3.75137 1.66722H13.7522L17.9192 5.83424V17.5019C17.9192 17.7241 17.8386 17.9186 17.6775 18.0852C17.5164 18.2519 17.3192 18.3353 17.0858 18.3353H3.75137C3.51802 18.3353 3.32078 18.2547 3.15966 18.0936C2.99853 17.9325 2.91797 17.7352 2.91797 17.5019V2.50063Z" fill="#F87171"/>
</svg>
