<svg width="24" height="48" viewBox="0 0 24 48" fill="none" xmlns="http://www.w3.org/2000/svg">
<path d="M17.2244 28.0534C17.4911 27.924 17.5342 27.9672 17.5342 27.9672C17.5342 27.9672 17.1734 25.9542 17.1212 25.1667C17.0701 24.3804 16.5277 20.6359 16.5277 20.6359C16.5277 20.6359 15.8651 19.4751 15.7958 19.4116C15.7266 19.348 13.2836 16.9697 13.2836 16.9697L12.5938 21.3065L13.5242 35.1883C13.5242 35.1883 14.6487 35.7965 15.0152 35.8703C15.3828 35.944 15.5632 35.5469 15.7266 35.3234C15.89 35.0998 16.3121 35.1078 16.3121 35.1078C16.3121 35.1078 16.3031 34.9784 16.3031 34.7288C16.3031 34.4792 16.0795 33.9118 16.0704 33.5759C16.0614 33.2401 16.4665 33.1538 16.6559 33.1289C16.8454 33.1028 16.7422 33.0256 16.7252 32.793C16.7081 32.5604 16.4313 32.2937 16.4313 32.2937C16.4313 32.2937 16.4755 31.6572 16.4415 31.3985C16.4074 31.1409 16.4676 31.0626 16.5357 30.9684C16.6049 30.8742 16.9317 30.9423 17.0259 30.8913C17.12 30.8402 17.1461 30.7018 17.0815 30.5123C17.0168 30.3228 16.8715 30.2797 16.7161 30.0561C16.5618 29.8326 16.6469 29.7464 16.7161 29.6C16.7853 29.4536 17.1632 29.4275 17.2664 29.3333C17.3697 29.2391 17.2925 29.179 17.1972 28.9975C17.1019 28.817 16.8795 28.5674 16.8625 28.3949C16.8454 28.2225 16.9566 28.1793 17.2233 28.0511L17.2244 28.0534Z" fill="#343434"/>
<path d="M14.6117 22.4732C14.4982 21.966 13.856 18.0274 13.8491 17.9877C13.8457 17.9696 13.8299 17.9582 13.8117 17.9605C13.7935 17.9639 13.7822 17.9809 13.7845 17.9979C13.7913 18.0377 14.4335 21.9784 14.547 22.4879C14.6071 22.7557 14.7626 23.9437 14.9124 25.092C15.0508 26.1484 15.1813 27.147 15.2357 27.4238C15.3492 27.998 16.3046 31.8888 16.3148 31.9286C16.3182 31.9433 16.3318 31.9535 16.3466 31.9535C16.3489 31.9535 16.3523 31.9535 16.3545 31.9535C16.3716 31.949 16.3829 31.9308 16.3784 31.9138C16.3682 31.8741 15.4139 27.9844 15.3004 27.4113C15.2459 27.1367 15.1155 26.1394 14.9782 25.0841C14.8284 23.9346 14.6729 22.7455 14.6117 22.4743V22.4732Z" fill="white"/>
<path d="M16.2259 22.2383C16.2077 22.2383 16.193 22.253 16.193 22.2712C16.193 22.2916 16.1771 24.3511 16.3132 25.4086C16.4494 26.4639 16.741 28.1977 16.7433 28.2147C16.7455 28.2306 16.7603 28.2419 16.775 28.2419C16.7773 28.2419 16.7785 28.2419 16.7807 28.2419C16.7989 28.2385 16.8102 28.2215 16.808 28.2045C16.8057 28.1875 16.5141 26.4548 16.3779 25.4007C16.2417 24.3488 16.2576 22.2927 16.2576 22.2723C16.2576 22.2542 16.2429 22.2394 16.2247 22.2394L16.2259 22.2383Z" fill="white"/>
<path d="M15.2284 18.3372C15.2136 18.3394 15.1955 18.3508 15.1943 18.3689C15.1943 18.4041 15.1262 21.9114 15.1943 22.8192C15.1955 22.8362 15.2102 22.8498 15.2272 22.8498C15.2272 22.8498 15.2284 22.8498 15.2295 22.8498C15.2477 22.8487 15.2613 22.8328 15.2601 22.8146C15.1921 21.9103 15.2601 18.4064 15.2601 18.3712C15.2601 18.353 15.2465 18.3383 15.2284 18.3372Z" fill="white"/>
<path d="M15.7934 24.6404C15.7752 24.6404 15.7616 24.6563 15.7628 24.6744C15.7639 24.6971 15.8853 26.9801 16.0385 27.7063C16.1928 28.4382 16.4685 29.7635 16.4685 29.7635L16.5332 29.7499C16.5332 29.7499 16.2586 28.4246 16.1032 27.6927C15.9511 26.9722 15.8297 24.6937 15.8286 24.671C15.8274 24.6529 15.8127 24.6415 15.7945 24.6404H15.7934Z" fill="white"/>
<path d="M13.9874 22.5707C13.8513 21.5427 13.2181 17.9083 13.2124 17.8708C13.209 17.8527 13.1931 17.8402 13.175 17.8436C13.1568 17.847 13.1455 17.864 13.1477 17.881C13.1546 17.9173 13.7866 21.5518 13.9227 22.5775C14.0589 23.6055 14.708 27.0425 14.7148 27.0766L15.4546 31.5007L15.9016 33.5999C15.905 33.6158 15.9187 33.626 15.9334 33.626C15.9357 33.626 15.938 33.626 15.9402 33.626C15.9584 33.6226 15.9697 33.6045 15.9652 33.5874L15.5181 31.4894L14.7783 27.0664C14.7715 27.0323 14.1236 23.5965 13.9874 22.5707Z" fill="white"/>
<path d="M21.1927 11.9352L16.6533 43.791L17.288 43.8815L21.8274 12.0257L21.1927 11.9352Z" fill="#343434"/>
<path d="M21.1361 11.6551L21.0911 11.9707C21.0856 12.0098 21.1127 12.046 21.1518 12.0516L21.8371 12.1492C21.8761 12.1548 21.9123 12.1276 21.9179 12.0885L21.9629 11.7729C21.9685 11.7338 21.9413 11.6976 21.9022 11.692L21.217 11.5944C21.1779 11.5888 21.1417 11.616 21.1361 11.6551Z" fill="#343434"/>
<path d="M21.8707 11.7683C21.8707 11.7683 21.9331 11.4551 21.9535 11.4324C21.9739 11.4098 22.1305 11.2237 22.1305 11.2237C22.1305 11.2237 22.2145 11.2441 22.3824 11.4075C22.5503 11.5709 22.7546 11.9476 22.7546 11.9476C22.7546 11.9476 22.9997 11.7116 23.1404 11.3939C23.525 10.5247 23.3503 9.80303 23.2323 9.56701C23.0757 9.25157 22.7591 9.27085 22.6468 9.36844C22.5356 9.46375 22.3767 9.73835 22.2814 9.67254C22.1861 9.60673 22.0397 9.53411 22.0397 9.53411L21.587 9.45241L21.2137 9.48645C21.2137 9.48645 21.2137 9.3276 21.0866 9.15512C20.7757 8.73756 20.315 9.20164 20.1414 9.56815C19.9678 9.93465 20.0041 10.409 20.0336 10.6915C20.0631 10.974 20.3536 11.6719 20.3536 11.6719C20.3536 11.6719 20.568 11.4063 20.7087 11.3439C20.8789 11.2691 21.0945 11.1147 21.0945 11.1147L21.2386 11.3473L21.2307 11.6787L21.8695 11.7695L21.8707 11.7683Z" fill="#343434"/>
<path d="M21.4924 9.16525C21.455 9.4251 21.5934 9.65998 21.7999 9.68948C22.0065 9.71898 22.205 9.53176 22.2413 9.27192C22.2788 9.01207 22.1404 8.77719 21.9338 8.74769C21.7273 8.71819 21.5288 8.90541 21.4924 9.16525Z" fill="#343434"/>
<path d="M20.609 9.44207C20.449 9.57143 20.2663 9.85851 20.2584 9.86985C20.2482 9.8846 20.2527 9.90502 20.2686 9.91524C20.2743 9.91864 20.2799 9.92092 20.2856 9.92092C20.2958 9.92092 20.3072 9.91524 20.3128 9.90616C20.3151 9.9039 20.4978 9.61682 20.6499 9.49427C20.7508 9.41257 20.8405 9.3808 20.9165 9.40123C21.0243 9.42959 21.0742 9.55327 21.0742 9.55441C21.081 9.57143 21.0992 9.57937 21.1162 9.57256C21.1332 9.56576 21.1412 9.5476 21.1355 9.53058C21.1332 9.52377 21.0742 9.37513 20.9335 9.33768C20.8359 9.31158 20.7259 9.34676 20.6079 9.44321L20.609 9.44207Z" fill="white"/>
<path d="M20.6628 9.77913C20.5175 9.89373 20.2021 10.3431 20.1885 10.3624C20.1783 10.3771 20.1817 10.3975 20.1964 10.4077C20.2021 10.4123 20.2089 10.4134 20.2157 10.4134C20.2259 10.4134 20.2361 10.4089 20.2429 10.3998C20.2464 10.3953 20.5663 9.93912 20.7036 9.83018C20.8591 9.7065 21.0202 9.80522 21.027 9.80976C21.0429 9.81997 21.0622 9.81544 21.0724 9.79955C21.0815 9.78367 21.0781 9.76437 21.0622 9.75416C21.0599 9.75303 20.8557 9.62595 20.6628 9.77913Z" fill="white"/>
<path d="M20.6166 10.3747C20.468 10.6186 20.3761 11.0453 20.3727 11.0623C20.3693 11.0805 20.3806 11.0975 20.3976 11.1009C20.3999 11.1009 20.4022 11.1009 20.4044 11.1009C20.4192 11.1009 20.4328 11.0907 20.4362 11.0748C20.4362 11.0703 20.5293 10.6413 20.6722 10.4076C20.8583 10.1024 20.9752 10.0978 20.9809 10.0978C21.0002 10.1001 21.0138 10.0876 21.0172 10.0695C21.0194 10.0513 21.007 10.0343 20.9888 10.032C20.9729 10.0297 20.8311 10.0207 20.6155 10.3724L20.6166 10.3747Z" fill="white"/>
<path d="M22.7181 9.52832C22.7181 9.52832 22.7147 9.52832 22.7124 9.52832C22.5706 9.52832 22.4752 9.652 22.4707 9.65654C22.4594 9.67129 22.4628 9.69171 22.4764 9.70306C22.4911 9.71327 22.5115 9.711 22.5229 9.69739C22.5229 9.69739 22.6035 9.59413 22.7124 9.59413C22.7135 9.59413 22.7158 9.59413 22.7169 9.59413C22.7964 9.5964 22.8735 9.65087 22.9473 9.75753C23.0585 9.91752 23.1549 10.2443 23.1549 10.2477C23.1595 10.2625 23.1719 10.2715 23.1867 10.2715C23.1901 10.2715 23.1924 10.2715 23.1958 10.2704C23.2128 10.2647 23.223 10.2466 23.2185 10.2296C23.2139 10.2159 23.1186 9.88915 23.0006 9.72008C22.9132 9.59527 22.8179 9.53059 22.7169 9.52832H22.7181Z" fill="white"/>
<path d="M22.4798 9.89378C22.4628 9.89946 22.4526 9.91648 22.4571 9.93464C22.4628 9.95166 22.4798 9.963 22.498 9.95733C22.5059 9.95506 22.6875 9.90513 22.8021 10.0674C22.9031 10.2104 23.0835 10.738 23.0857 10.7437C23.0903 10.7573 23.1028 10.7664 23.1164 10.7664C23.1198 10.7664 23.1232 10.7664 23.1266 10.7641C23.1436 10.7584 23.1527 10.7391 23.147 10.7221C23.1391 10.7006 22.9621 10.1809 22.8554 10.0288C22.7136 9.82911 22.481 9.89378 22.4787 9.89378H22.4798Z" fill="white"/>
<path d="M22.7415 11.3732C22.7415 11.3732 22.7427 11.3732 22.7438 11.3732C22.7608 11.3732 22.7756 11.3596 22.7767 11.3426C22.7779 11.3244 22.8096 10.8898 22.7347 10.6141C22.6269 10.2158 22.4874 10.1852 22.4715 10.1829C22.4545 10.1795 22.4386 10.192 22.4352 10.209C22.4318 10.2261 22.4431 10.2431 22.4601 10.2476C22.4613 10.2476 22.5747 10.2782 22.6701 10.6311C22.7415 10.8967 22.7098 11.3335 22.7098 11.3381C22.7086 11.3562 22.7223 11.3721 22.7404 11.3732H22.7415Z" fill="white"/>
<path d="M12.7996 20.3396C13.2001 20.2057 13.5076 17.7537 13.5916 17.8751C13.9524 18.3993 14.3802 19.2821 14.589 19.5964C14.7694 19.8687 15.4412 20.8196 15.4412 20.8196C15.8712 21.3155 16.5361 21.8454 16.9231 22.1007C17.3327 22.3707 18.5638 22.9301 18.5638 22.9301C18.5638 22.9301 18.683 23.3431 18.7726 23.4464C18.9235 23.6211 19.0722 23.7789 19.2117 23.8821C19.3513 23.9854 19.6656 24.2259 19.6656 24.2259L19.7757 21.4062C19.7757 21.4062 19.5022 21.4403 19.332 21.4868C19.1607 21.5322 19.0222 21.7909 19.0222 21.7909C19.0222 21.7909 17.664 20.301 17.369 20.1036C16.5974 19.5862 16.8425 19.7882 16.6553 19.7042C16.6314 19.5226 16.5361 19.0903 16.3273 18.6126C15.9676 17.7888 15.5138 17.6152 15.5138 17.6152C15.5138 17.6152 15.1632 16.535 14.9578 16.173C14.513 15.3912 13.9615 15.2267 13.9615 15.2267L12.5375 15.1995L12.6668 16.3115C12.6668 16.3115 12.2606 20.5189 12.8019 20.3385L12.7996 20.3396Z" fill="white"/>
<path d="M16.8004 20.3953C16.7845 20.4044 16.7788 20.4237 16.7868 20.4396C16.7879 20.4418 16.9105 20.6711 16.9536 20.7959C16.9956 20.9184 16.9956 21.1056 16.9956 21.1079C16.9956 21.1261 17.0103 21.1408 17.0285 21.1408C17.0466 21.1408 17.0614 21.1261 17.0614 21.1079C17.0614 21.1 17.0614 20.9071 17.016 20.7743C16.9717 20.6438 16.8503 20.418 16.8458 20.4078C16.8367 20.3919 16.8174 20.3862 16.8015 20.3942L16.8004 20.3953Z" fill="#343434"/>
<path d="M20.6962 23.0697V23.005C20.6962 22.8757 20.61 22.769 20.4954 22.7474C20.5827 22.7077 20.644 22.6147 20.644 22.5057V22.4411C20.644 22.2958 20.5351 22.179 20.4 22.179H19.7283C19.5933 22.179 19.4843 22.297 19.4843 22.4411V22.5057C19.4843 22.6351 19.5706 22.7418 19.6852 22.7633C19.5978 22.803 19.5365 22.8961 19.5365 23.005V23.0697C19.5365 23.1741 19.5933 23.2626 19.675 23.3057C19.574 23.3375 19.5002 23.4373 19.5002 23.5565V23.6212C19.5002 23.6994 19.5331 23.7698 19.5842 23.8175C19.5195 23.8651 19.4775 23.9445 19.4775 24.0342C19.4775 24.1794 19.5865 24.2963 19.7215 24.2963H20.2242C20.3592 24.2963 20.4681 24.1783 20.4681 24.0342C20.4681 23.9774 20.4511 23.9252 20.4227 23.8833C20.5544 23.8799 20.6599 23.7641 20.6599 23.6212V23.5565C20.6599 23.4521 20.6032 23.3636 20.5215 23.3205C20.6224 23.2887 20.6962 23.1888 20.6962 23.0697Z" fill="white"/>
<path d="M19.8796 21.4482C19.756 21.4107 19.6811 21.421 19.6811 21.421L19.6641 22.0155C19.6641 22.0155 19.7253 22.0711 19.8036 22.1358C19.8819 22.2005 19.9352 22.1789 20.0351 22.1664C20.135 22.154 20.2484 21.9066 20.1667 21.6887C20.1032 21.5197 19.9738 21.4765 19.8808 21.4482H19.8796Z" fill="white"/>
<path d="M20.512 22.7146L19.653 22.7225C19.6349 22.7225 19.6201 22.7373 19.6201 22.7554C19.6201 22.7736 19.6349 22.7884 19.653 22.7884L20.512 22.7804C20.5301 22.7804 20.5449 22.7657 20.5449 22.7475C20.5449 22.7293 20.5301 22.7146 20.512 22.7146Z" fill="#343434"/>
<path d="M19.6745 23.2729C19.6564 23.2729 19.6416 23.2877 19.6416 23.3047C19.6416 23.3229 19.6552 23.3376 19.6734 23.3376L20.5346 23.3524C20.5528 23.3524 20.5675 23.3376 20.5675 23.3206C20.5675 23.3024 20.5539 23.2877 20.5357 23.2877L19.6745 23.2729Z" fill="#343434"/>
<path d="M19.586 23.7846C19.5679 23.7812 19.552 23.7971 19.5508 23.8153C19.5497 23.8334 19.5633 23.8493 19.5815 23.8504L20.4438 23.9163C20.4438 23.9163 20.445 23.9163 20.4461 23.9163C20.4631 23.9163 20.4779 23.9026 20.479 23.8856C20.4802 23.8675 20.4665 23.8516 20.4484 23.8504L19.586 23.7846Z" fill="#343434"/>
<path d="M19.6867 21.8444C19.605 21.8069 19.5154 21.791 19.428 21.8001C19.4099 21.8024 19.3974 21.8183 19.3985 21.8364C19.4008 21.8546 19.4144 21.8682 19.4348 21.8659C19.5108 21.858 19.588 21.8716 19.6595 21.9045C19.6663 21.9079 19.6742 21.9113 19.6765 21.9158C19.6788 21.9204 19.6799 21.9306 19.681 21.9397L19.6947 22.0543C19.6969 22.0713 19.7106 22.0838 19.7276 22.0838C19.7287 22.0838 19.7298 22.0838 19.731 22.0838C19.7491 22.0815 19.7616 22.0656 19.7593 22.0475L19.7457 21.9317C19.7446 21.917 19.7423 21.8988 19.7321 21.8829C19.7208 21.8625 19.7026 21.8523 19.6856 21.8455L19.6867 21.8444Z" fill="#343434"/>
<path d="M19.728 22.212C19.7462 22.212 19.7609 22.1973 19.7609 22.1791C19.7609 22.161 19.7462 22.1462 19.728 22.1462C19.5748 22.1462 19.4511 22.279 19.4511 22.4413V22.5059C19.4511 22.6217 19.5147 22.7249 19.61 22.7726C19.5442 22.8282 19.5033 22.9133 19.5033 23.0052V23.0699C19.5033 23.1618 19.5419 23.2446 19.6077 23.3002C19.5215 23.3513 19.467 23.4477 19.467 23.5567V23.6213C19.467 23.6928 19.492 23.7609 19.5362 23.8154C19.4784 23.871 19.4443 23.9504 19.4443 24.0344C19.4443 24.1978 19.5692 24.3294 19.7212 24.3294C19.7394 24.3294 19.7541 24.3146 19.7541 24.2965C19.7541 24.2783 19.7394 24.2636 19.7212 24.2636C19.6043 24.2636 19.5101 24.1603 19.5101 24.0344C19.5101 23.9583 19.5453 23.8869 19.6032 23.8437C19.6111 23.8381 19.6157 23.829 19.6168 23.8199C19.6168 23.8097 19.6134 23.8006 19.6066 23.7938C19.5601 23.7496 19.5328 23.6872 19.5328 23.6213V23.5567C19.5328 23.4545 19.5941 23.3672 19.6849 23.3377C19.6974 23.3331 19.7065 23.3218 19.7076 23.3093C19.7087 23.2957 19.7019 23.2832 19.6906 23.2775C19.6157 23.2389 19.5691 23.1595 19.5691 23.071V23.0063C19.5691 22.9144 19.6202 22.8305 19.6985 22.7953C19.711 22.7896 19.7189 22.776 19.7178 22.7612C19.7167 22.7465 19.7053 22.7351 19.6917 22.7329C19.5907 22.7136 19.5181 22.6183 19.5181 22.5071V22.4424C19.5181 22.3153 19.6134 22.2132 19.7291 22.2132L19.728 22.212Z" fill="#343434"/>
<path d="M19.424 22.6057C19.3774 22.6443 19.3048 22.6919 19.2197 22.6953C19.1414 22.6976 19.0733 22.6658 19.0291 22.6068C19.0177 22.5921 18.9973 22.5898 18.9826 22.6012C18.9678 22.6125 18.9656 22.6329 18.9769 22.6477C19.0325 22.7203 19.1187 22.7623 19.2095 22.7623C19.2141 22.7623 19.2175 22.7623 19.222 22.7623C19.3037 22.7589 19.3888 22.7226 19.466 22.6579C19.4796 22.6466 19.4818 22.625 19.4694 22.6114C19.458 22.5978 19.4365 22.5955 19.4228 22.6068L19.424 22.6057Z" fill="#343434"/>
<path d="M18.5617 23.0709C18.5923 23.1877 18.6479 23.291 18.7012 23.3897C18.741 23.4635 18.7829 23.5406 18.8408 23.603C18.8476 23.6098 18.8556 23.6132 18.8646 23.6132C18.8726 23.6132 18.8805 23.6098 18.8873 23.6042C18.901 23.5917 18.901 23.5713 18.8885 23.5576C18.8363 23.502 18.7966 23.4283 18.758 23.3579C18.7058 23.2615 18.6525 23.1628 18.6241 23.0538C18.5866 22.9131 18.5923 22.7668 18.5969 22.6113C18.6003 22.516 18.6037 22.4184 18.5969 22.3231C18.5957 22.3049 18.5821 22.2891 18.5617 22.2925C18.5435 22.2936 18.5299 22.3095 18.531 22.3276C18.5379 22.4195 18.5344 22.516 18.531 22.609C18.5254 22.7622 18.5208 22.9199 18.5605 23.0709H18.5617Z" fill="#343434"/>
<path d="M15.1914 32.3073L14.6263 32.1836C14.6263 32.1836 14.4652 32.1949 14.2473 32.3039C14.0294 32.4128 13.7061 33.021 13.7061 33.021L13.8774 35.3743L14.0873 35.4799C14.0873 35.4799 13.9841 33.4454 13.9375 33.4057C13.891 33.3659 14.1111 33.0437 14.2019 32.8724C14.2938 32.6999 15.1914 32.3084 15.1914 32.3084V32.3073Z" fill="white"/>
<path d="M13.1963 17.8752L13.1793 18.2383L12.916 20.594C12.916 20.594 13.1917 21.9272 13.421 22.5071C13.6502 23.0869 15.1968 32.1837 15.1968 32.1837C15.1968 32.1837 15.2558 31.1977 15.2558 30.7846C15.2558 30.3716 14.0303 23.9685 14.0303 23.9685C14.0303 23.9685 13.3268 21.2521 13.3688 20.8266C13.6241 18.2463 13.1963 17.8764 13.1963 17.8764V17.8752Z" fill="#343434"/>
<path d="M11.9523 41.9112C11.9738 42.1971 12.1213 42.3299 12.2938 42.4218C12.4663 42.5137 12.9394 42.9063 13.0767 43.1355C13.214 43.3647 13.3275 43.3829 13.5113 43.4759C13.6951 43.5678 14.0106 43.544 14.2727 43.5406C14.5405 43.5372 14.7402 43.4374 14.7402 43.3001C14.7402 43.1628 14.4996 42.9324 14.4077 42.8065C14.3158 42.6805 13.9368 42.3537 13.8177 42.112C13.6974 41.8715 13.4557 41.1487 13.3354 40.7357C13.2152 40.3226 13.4727 39.652 13.5079 39.2901C13.542 38.9292 13.8687 36.6916 13.8778 36.2956C13.8858 35.8996 13.6974 32.8711 13.6974 32.8711L13.5715 33.0209C13.5715 33.0209 12.8316 33.2989 12.4697 33.5644C12.1077 33.8299 11.2998 34.6129 11.2998 34.6129C11.2998 34.6129 11.4371 36.2672 11.4371 36.5883C11.4371 36.9095 12.1054 40.1694 12.1417 41.0511C12.1554 41.3756 11.9205 41.48 11.9534 41.9112H11.9523Z" fill="white"/>
<path d="M11.3455 35.8802C11.3455 35.8802 12.5596 36.1355 12.8785 36.2989C13.1973 36.4623 13.9326 36.8243 13.9326 36.8243L13.9349 36.308C13.9349 36.308 12.9159 35.8439 12.5823 35.7316C12.2487 35.6192 11.2979 35.3628 11.2979 35.3628L11.3455 35.8802Z" fill="#343434"/>
<path d="M11.3214 36.6769L11.3873 37.1671C11.3873 37.1671 12.708 36.0539 12.9429 35.8701C13.3344 35.5638 13.8768 35.2971 13.8768 35.2971L13.8337 34.6946C13.8337 34.6946 12.9758 35.3402 12.4278 35.7215C12.0885 35.9575 11.3203 36.6769 11.3203 36.6769H11.3214Z" fill="#343434"/>
<path d="M11.7324 38.8691L11.8311 39.3718C11.8311 39.3718 12.4847 38.6944 12.8285 38.3846C13.1723 38.0748 13.8191 37.6028 13.8191 37.6028L13.877 37.0491C13.877 37.0491 13.422 37.3305 12.8285 37.8161C12.4893 38.0941 11.7324 38.868 11.7324 38.868V38.8691Z" fill="#343434"/>
<path d="M12.0328 41.3665C12.085 41.3234 12.7556 40.4974 13.1947 40.1967C13.3615 40.0821 13.391 40.0514 13.391 40.0514L13.4897 39.5544C13.4897 39.5544 12.9099 39.8869 12.6784 40.0934C12.4458 40.2999 11.9727 40.764 11.9727 40.764C11.9727 40.764 11.9817 41.4097 12.0328 41.3665Z" fill="#343434"/>
<path d="M11.9683 39.9334C11.9683 39.9334 12.2837 40.0503 12.7569 40.317C13.23 40.5836 13.4536 40.9365 13.4536 40.9365L13.5307 40.4543C13.5307 40.4543 13.1098 40.1309 12.8397 39.9675C12.5685 39.8041 11.9297 39.5771 11.9297 39.5771L11.9671 39.9334H11.9683Z" fill="#343434"/>
<path d="M13.1236 42.0827C12.9046 42.4015 12.7412 42.9598 12.7412 42.9598L12.9738 43.2355C12.9738 43.2355 13.2314 42.448 13.3823 42.2767C13.5332 42.1042 13.8124 41.8251 13.8124 41.8251L13.6875 41.4597C13.6875 41.4597 13.3437 41.7649 13.1236 42.0838V42.0827Z" fill="#343434"/>
<path d="M12.9069 42.2243C12.6198 42.2878 12.1875 42.4625 12.1875 42.4625L12.4576 42.6759C12.4576 42.6759 12.9114 42.4875 13.1758 42.4603C13.4402 42.433 13.5548 42.3956 13.8124 42.4217C14.07 42.4478 14.2526 42.5023 14.2526 42.5023L14.028 42.2072L13.9633 42.138C13.9633 42.138 13.481 42.0983 12.908 42.2243H12.9069Z" fill="#343434"/>
<path d="M11.5522 37.9342C11.5522 37.9342 12.2602 38.1237 12.646 38.3472C13.0318 38.5708 13.6128 39.07 13.6128 39.07L13.6843 38.5333C13.6843 38.5333 13.0806 38.0329 12.789 37.882C12.2409 37.5984 11.4932 37.469 11.4932 37.469L11.5522 37.9331V37.9342Z" fill="#343434"/>
<path d="M13.6503 43.5259C13.5357 43.518 13.4846 43.4737 13.3383 43.3364C13.3122 43.3114 13.2838 43.2853 13.2532 43.257C13.0614 43.0822 12.0833 42.0871 12.0731 42.0769C11.997 41.9997 11.8722 41.9986 11.7939 42.0746C11.7168 42.1507 11.7156 42.2755 11.7917 42.3538C11.8325 42.3946 12.7868 43.3659 12.9865 43.5486C13.0149 43.5747 13.0421 43.5997 13.0671 43.6235C13.2248 43.7721 13.3621 43.9015 13.6219 43.9196C13.6458 43.9219 13.6764 43.9219 13.7104 43.9219C14.0089 43.9219 14.642 43.864 14.7203 43.8572C14.8281 43.847 14.9087 43.7517 14.8985 43.6428C14.8882 43.535 14.7907 43.4555 14.684 43.4646C14.4537 43.4862 13.8205 43.5372 13.6492 43.5259H13.6503Z" fill="#343434"/>
<path d="M8.31038 38.9463C8.32741 38.9031 8.86071 37.2941 8.939 36.9151C9.01616 36.5362 9.32593 34.6798 9.32593 34.6798C9.32593 34.6798 9.1024 34.429 8.95603 34.3258C8.80965 34.2225 6.7967 33.2932 6.7967 33.2932C6.7967 33.2932 6.71046 40.8219 6.6594 40.9774C6.60834 41.1317 6.59019 41.4936 6.29857 41.7342C6.00696 41.9747 5.24899 42.7146 5.19679 42.8008C5.14573 42.887 5.00729 43.1446 5.11055 43.283C5.21381 43.4203 5.61095 43.7653 6.17035 43.7188C6.45516 43.6949 6.85684 43.2308 7.03726 43.0935C7.21767 42.9562 7.61368 42.887 7.79409 42.6975C7.97451 42.508 7.98018 42.2187 7.97224 42.0201C7.96316 41.8227 7.81793 41.6786 7.83495 41.3779C7.85197 41.0772 7.94955 39.9788 8.12997 39.4625C8.31038 38.9462 8.29336 38.9894 8.31038 38.9463Z" fill="white"/>
<path d="M6.61914 35.7057C6.61914 35.7057 7.77993 36.2219 8.06474 36.4523C8.34955 36.6826 9.00767 37.1966 9.00767 37.1966L9.12114 36.6928C9.12114 36.6928 8.2009 36.0143 7.89 35.8316C7.57909 35.6489 6.68268 35.1882 6.68268 35.1882L6.61914 35.7045V35.7057Z" fill="#343434"/>
<path d="M6.58301 36.7451C6.58301 36.7451 8.00705 35.9837 8.25668 35.8611C8.67198 35.658 9.20642 35.5287 9.20642 35.5287L9.3301 34.9375C9.3301 34.9375 8.42575 35.3585 7.85727 35.5968C7.50438 35.7443 6.6579 36.2571 6.6579 36.2571L6.58414 36.7451H6.58301Z" fill="#343434"/>
<path d="M6.5459 38.9542C6.5459 38.9542 7.30388 38.4459 7.69308 38.2246C8.08114 38.0022 8.78352 37.6924 8.78352 37.6924L8.97074 37.1682C8.97074 37.1682 8.48963 37.3373 7.83151 37.6732C7.45479 37.8661 6.57994 38.4436 6.57994 38.4436L6.54703 38.9542H6.5459Z" fill="#343434"/>
<path d="M6.60741 41.0045C6.66187 40.9659 7.39942 40.1977 7.86124 39.9345C8.03599 39.8346 8.06889 39.8063 8.06889 39.8063L8.20846 39.3184C8.20846 39.3184 7.60367 39.602 7.35517 39.7881C7.10667 39.9742 6.59606 40.3986 6.59606 40.3986C6.59606 40.3986 6.55181 41.042 6.60627 41.0034L6.60741 41.0045Z" fill="#343434"/>
<path d="M6.63877 39.5952L6.62402 39.9526C6.62402 39.9526 6.89522 40.1081 7.28782 40.4326C7.68156 40.7571 7.83587 41.135 7.83587 41.135L7.97317 40.6675C7.97317 40.6675 7.63503 40.2942 7.4115 40.0979C7.18797 39.9016 6.63877 39.5952 6.63877 39.5952Z" fill="#343434"/>
<path d="M6.63356 37.9342C6.63356 37.9342 7.2758 38.1237 7.62642 38.3472C7.97704 38.5708 8.50353 39.07 8.50353 39.07L8.56821 38.5333C8.56821 38.5333 8.02016 38.0329 7.75578 37.882C7.25878 37.5984 6.5791 37.469 6.5791 37.469L6.63243 37.9331L6.63356 37.9342Z" fill="#343434"/>
<path d="M5.87846 42.0145L5.65039 42.2812C5.65039 42.2812 6.25518 42.2437 6.58197 42.3651C6.99159 42.5183 7.5839 42.8723 7.5839 42.8723L7.84375 42.6806C7.84375 42.6806 7.4103 42.2448 6.66481 42.0417C6.33801 41.9532 5.87733 42.0134 5.87733 42.0134L5.87846 42.0145Z" fill="#343434"/>
<path d="M6.23055 41.7092L6.0127 41.9146C6.0127 41.9146 6.15907 41.9294 6.38828 42.2153C6.58912 42.4661 6.61181 43.4748 6.61181 43.4748L6.91704 43.1968C6.91704 43.1968 6.89095 42.6181 6.77861 42.3469C6.58231 41.8738 6.23055 41.7092 6.23055 41.7092Z" fill="#343434"/>
<path d="M7.92894 42.5388C7.84497 42.5876 7.72015 42.6659 7.57378 42.7589C7.16642 43.0154 6.48561 43.4443 6.21328 43.5067C5.71062 43.6224 5.06158 43.172 5.05477 43.1674C4.96626 43.105 4.84258 43.1254 4.78017 43.2151C4.71776 43.3036 4.73819 43.4261 4.82783 43.4897C4.8562 43.5101 5.44283 43.9186 6.04194 43.9186C6.12932 43.9186 6.21669 43.9095 6.30179 43.8902C6.61383 43.8187 7.18005 43.4715 7.7837 43.0914C7.92554 43.0029 8.04581 42.9269 8.12751 42.8792C8.22169 42.8248 8.25346 42.7033 8.199 42.6103C8.14453 42.5161 8.02312 42.4843 7.93007 42.5388H7.92894Z" fill="#343434"/>
<path d="M6.54561 23.174C6.54561 23.174 8.22836 23.2001 9.37894 21.8577C10.5295 20.5154 11.6767 18.0202 11.7743 17.5731C11.8719 17.1261 11.528 15.2618 11.528 15.2618C11.528 15.2618 10.9142 15.1097 10.837 15.095C10.702 15.0689 10.6214 13.9432 10.6214 13.9432L8.96024 14.2825V14.6445C8.96024 14.8022 8.79911 15.0586 8.65387 15.1199C8.58352 15.1494 8.27828 15.2708 8.06383 15.2992C7.96965 15.3117 7.87547 15.2992 7.81193 15.2289C7.6474 15.0507 7.25933 14.716 6.58078 14.6036C6.19045 14.539 5.68892 14.5946 5.33603 14.6104C5.1976 14.6161 5.06257 14.5719 4.95591 14.4834C4.77096 14.3268 4.42487 14.0703 4.1446 14.0102C3.62832 13.899 2.83063 13.9013 2.83063 13.9013C2.83063 13.9013 3.07686 13.5064 3.22323 12.2253C3.27656 11.7556 3.34351 10.1863 3.34351 10.1863L1.8094 11.0169C1.8094 11.0169 1.28745 12.3274 1.11497 13.1773C0.9425 14.0272 0.982214 14.5583 1.07185 14.9406C1.15696 15.3049 1.92628 15.8961 2.41647 16.1457C2.90666 16.3953 4.30005 16.9252 4.93662 17.1442C5.30426 17.2702 6.15641 17.5743 6.15641 17.5743C6.15641 17.5743 6.65227 19.223 6.72376 19.5622C6.84971 20.1557 6.89056 21.102 6.81794 21.9882C6.79638 22.2594 6.54221 23.1751 6.54221 23.1751L6.54561 23.174Z" fill="white"/>
<path d="M7.75065 18.9393C7.54073 18.8077 7.44656 18.4991 7.3955 18.3334C7.3694 18.2472 7.35918 18.2165 7.34103 18.2018C7.3206 18.1859 7.27068 18.1711 7.15948 18.1405C7.0097 18.0985 6.80432 18.0406 6.68404 17.968C6.49342 17.8523 6.29031 17.5992 6.28804 17.597C6.27669 17.5834 6.25626 17.5811 6.24151 17.5913C6.2279 17.6027 6.22563 17.6231 6.23584 17.6378C6.24492 17.6492 6.44803 17.9022 6.64887 18.0236C6.77709 18.1019 6.987 18.1609 7.14132 18.204C7.2094 18.2233 7.28656 18.2449 7.29791 18.2517C7.30472 18.2619 7.3206 18.3107 7.33308 18.3538C7.38642 18.5274 7.48513 18.8508 7.71548 18.9961C7.94241 19.139 8.28169 19.1583 8.44962 19.1583C8.50863 19.1583 8.54608 19.156 8.55175 19.156C8.56991 19.1549 8.58352 19.139 8.58238 19.1209C8.58125 19.1027 8.56877 19.0868 8.54721 19.0902C8.54267 19.0902 8.03773 19.122 7.74952 18.9405L7.75065 18.9393Z" fill="#343434"/>
<path d="M9.72266 19.7665V21.3063C9.72266 21.3245 9.73741 21.3392 9.75557 21.3392C9.77372 21.3392 9.78847 21.3245 9.78847 21.3063V19.7665C9.78847 19.7484 9.77372 19.7336 9.75557 19.7336C9.73741 19.7336 9.72266 19.7484 9.72266 19.7665Z" fill="#343434"/>
<path d="M2.34035 13.9806C2.32446 13.9886 2.31765 14.009 2.32559 14.0249C2.33127 14.0362 2.34262 14.043 2.3551 14.043C2.35964 14.043 2.36531 14.0419 2.36985 14.0396C2.62629 13.9092 2.82486 13.9341 2.82713 13.9341C2.84415 13.9353 2.86117 13.9239 2.86457 13.9058C2.86684 13.8876 2.85436 13.8717 2.8362 13.8683C2.82713 13.8683 2.61608 13.8399 2.34035 13.9806Z" fill="#343434"/>
<path d="M13.1324 17.4813C13.129 17.487 12.733 18.0929 12.2984 18.1859C12.2882 18.1882 12.2791 18.195 12.2746 18.2052C12.2428 18.279 12.236 18.3788 12.2281 18.4832C12.2099 18.7226 12.1895 18.9938 11.8945 19.1028C11.174 19.3683 10.5601 19.1674 10.5544 19.1652C10.5374 19.1595 10.5192 19.1686 10.5124 19.1856C10.5068 19.2026 10.5158 19.2219 10.5329 19.2276C10.5487 19.2333 10.7757 19.307 11.115 19.307C11.3419 19.307 11.6188 19.2741 11.9172 19.164C12.2519 19.0404 12.2746 18.734 12.2939 18.4878C12.3007 18.3959 12.3075 18.3085 12.3291 18.2449C12.7353 18.1462 13.0882 17.6606 13.1699 17.5414L13.5761 17.7672C13.592 17.7763 13.6124 17.7706 13.6204 17.7548C13.6294 17.7389 13.6238 17.7184 13.6079 17.7105L13.1756 17.4699C13.1608 17.4609 13.1415 17.4665 13.1324 17.4813Z" fill="#343434"/>
<path d="M12.9912 20.5936C12.9912 20.5936 12.4454 22.543 11.6829 24.1962C11.2653 25.1028 9.94455 26.5053 9.45096 26.865C8.05756 27.8806 6.26134 28.3719 6.26134 28.3719V30.9771C6.26134 31.8293 6.08887 33.5631 6.08887 33.5631C6.08887 33.5631 6.53139 33.4962 6.75947 33.5189C7.19292 33.5597 7.27575 33.6618 7.41305 33.8513C7.47659 33.9387 7.53447 34.0454 7.57872 34.135C7.62864 34.236 7.73871 34.2904 7.84878 34.2666C8.0099 34.2326 8.24932 34.2178 8.46264 34.3495C8.67256 34.4799 8.80078 34.6263 8.87226 34.7273C8.93581 34.8181 9.02545 34.8873 9.13098 34.9213C9.21494 34.9474 9.33635 34.9826 9.51223 35.0269C10.0285 35.1585 10.4756 35.8688 10.4756 35.8688C10.4756 35.8688 10.8602 35.7837 11.1553 35.3219C11.4004 34.9384 12.3433 33.9273 12.619 33.7594C12.8505 33.6187 13.1092 33.5393 13.2885 33.4746C13.4803 33.4054 13.6402 33.2715 13.7412 33.0945C13.8649 32.8766 14.0601 32.5816 14.2791 32.4261C14.6513 32.1618 15.1948 32.273 15.1948 32.273C15.1948 32.273 15.1392 30.7786 14.7432 28.2062C14.4413 26.2432 13.4349 22.2684 13.4349 22.2684L12.9878 20.5913L12.9912 20.5936Z" fill="#343434"/>
<path d="M11.6771 23.7185C11.6589 23.7219 11.6476 23.739 11.651 23.7571C11.6567 23.7832 12.1684 26.3987 12.3046 27.1805C12.4407 27.9623 12.5599 29.1287 12.561 29.1401C12.5633 29.1571 12.5769 29.1696 12.5939 29.1696C12.5939 29.1696 12.5962 29.1696 12.5973 29.1696C12.6155 29.1673 12.628 29.1514 12.6268 29.1333C12.6257 29.1219 12.5065 27.9532 12.3704 27.1691C12.2342 26.3862 11.7213 23.7707 11.7168 23.7435C11.7134 23.7253 11.6952 23.714 11.6782 23.7174L11.6771 23.7185Z" fill="white"/>
<path d="M10.8005 30.2191H10.8016C10.8198 30.2191 10.8334 30.2055 10.8345 30.1874C10.8345 30.176 10.8742 29.0016 10.8447 28.2062C10.8152 27.4119 10.6598 24.751 10.6587 24.7238C10.6587 24.7057 10.6405 24.692 10.6235 24.6932C10.6053 24.6943 10.5917 24.7102 10.5928 24.7284C10.594 24.7556 10.7494 27.4153 10.7789 28.2085C10.8084 29.0016 10.7687 30.1726 10.7687 30.1851C10.7687 30.2032 10.7823 30.218 10.8005 30.2191Z" fill="white"/>
<path d="M12.0164 22.9094C11.9993 22.914 11.988 22.9321 11.9937 22.9503C11.9993 22.9696 12.5134 24.8634 12.7006 25.5964C12.8265 26.0911 13.3315 28.4671 13.3371 28.491C13.3405 28.5069 13.3542 28.5171 13.3689 28.5171C13.3712 28.5171 13.3734 28.5171 13.3757 28.5171C13.3939 28.5137 13.4052 28.4955 13.4007 28.4785C13.3961 28.4547 12.8901 26.0775 12.7641 25.5816C12.5769 24.8475 12.0617 22.9537 12.0561 22.9344C12.0515 22.9174 12.0334 22.906 12.0164 22.9117V22.9094Z" fill="white"/>
<path d="M14.3515 31.4107C14.1337 31.565 13.9385 31.8612 13.8137 32.079C13.7127 32.2561 13.5527 32.3899 13.3609 32.4592C13.1817 32.5238 12.923 32.6033 12.6915 32.744C12.4146 32.9119 11.4728 33.9229 11.2277 34.3064C10.9327 34.7683 10.548 34.8534 10.548 34.8534C10.548 34.8534 10.101 34.1419 9.58469 34.0114C9.40995 33.9672 9.28854 33.932 9.20344 33.9059C9.09791 33.873 9.00827 33.8026 8.94359 33.7119C8.8721 33.6109 8.74389 33.4634 8.53397 33.334C8.32065 33.2024 8.08123 33.2171 7.9201 33.2512C7.81004 33.275 7.69884 33.2205 7.65005 33.1196C7.60579 33.0299 7.54792 32.9221 7.48438 32.8359C7.34708 32.6464 7.26425 32.5443 6.83079 32.5034C6.63109 32.4841 6.26799 32.5329 6.17948 32.5454C6.13523 33.1071 6.08984 33.5655 6.08984 33.5655C6.08984 33.5655 6.53237 33.4985 6.76044 33.5212C7.1939 33.5621 7.27673 33.6642 7.41403 33.8537C7.47757 33.9411 7.53544 34.0477 7.5797 34.1374C7.62962 34.2384 7.73969 34.2928 7.84975 34.269C8.01088 34.235 8.2503 34.2202 8.46362 34.3518C8.67354 34.4823 8.80175 34.6287 8.87324 34.7297C8.93678 34.8205 9.02643 34.8897 9.13309 34.9237C9.21706 34.9498 9.33847 34.985 9.51434 35.0292C10.0306 35.1609 10.4777 35.8712 10.4777 35.8712C10.4777 35.8712 10.8624 35.7849 11.1574 35.3243C11.4025 34.9407 12.3443 33.9297 12.6211 33.7618C12.8526 33.6211 13.1113 33.5417 13.2906 33.477C13.4824 33.4078 13.6424 33.2739 13.7433 33.0969C13.867 32.879 14.0622 32.584 14.2812 32.4285C14.6534 32.1641 15.1969 32.2753 15.1969 32.2753C15.1969 32.2753 15.2899 31.9088 15.2298 31.2348C15.0426 31.2201 14.6046 31.2314 14.3504 31.4107H14.3515Z" fill="white"/>
<path d="M14.2631 32.4011C14.0407 32.5588 13.8422 32.8573 13.7162 33.0797C13.6198 33.2487 13.4655 33.3781 13.2805 33.445C13.251 33.4552 13.2192 33.4666 13.1863 33.4779C13.015 33.5381 12.8017 33.613 12.6054 33.7321C12.333 33.8978 11.3822 34.9122 11.1303 35.3059C10.8863 35.6883 10.5765 35.8063 10.4926 35.8324C10.4131 35.711 10.0024 35.1187 9.5224 34.9973C9.36921 34.9587 9.24212 34.9224 9.14341 34.8918C9.04696 34.8611 8.96299 34.7987 8.90058 34.7102C8.82796 34.607 8.69634 34.456 8.48188 34.3233C8.25948 34.186 8.01212 34.1996 7.84418 34.2359C7.74887 34.2552 7.65355 34.2087 7.61044 34.1213C7.55257 34.0044 7.49697 33.9069 7.4425 33.832C7.2984 33.6334 7.20195 33.5267 6.7651 33.4859C6.53475 33.4632 6.1047 33.5279 6.08541 33.5313C6.06725 33.5335 6.05477 33.5506 6.05818 33.5687C6.06045 33.5869 6.07633 33.5994 6.09562 33.5959C6.10016 33.5959 6.53588 33.5301 6.75942 33.5517C7.1872 33.5925 7.25868 33.6913 7.39031 33.8705C7.4425 33.942 7.49697 34.0362 7.55257 34.1497C7.60817 34.2643 7.73525 34.3256 7.85893 34.2995C8.01552 34.2666 8.24587 34.2529 8.44897 34.3789C8.65435 34.506 8.77917 34.6501 8.84952 34.7477C8.91988 34.8475 9.01519 34.919 9.12525 34.9542C9.22511 34.986 9.35446 35.0211 9.50764 35.0608C10.0046 35.1868 10.4472 35.8812 10.4517 35.888C10.4574 35.8982 10.4687 35.9039 10.4801 35.9039C10.4823 35.9039 10.4846 35.9039 10.4869 35.9039C10.5028 35.9005 10.8874 35.8097 11.187 35.3422C11.4355 34.9542 12.3727 33.9522 12.6405 33.79C12.8312 33.6742 13.0399 33.6005 13.209 33.5415C13.2419 33.5301 13.2737 33.5188 13.3032 33.5074C13.5029 33.4348 13.6697 33.2953 13.7729 33.1126C13.8966 32.8958 14.0873 32.6065 14.3006 32.4556C14.6569 32.2037 15.1856 32.3069 15.1913 32.3081C15.2083 32.3115 15.2265 32.3001 15.2299 32.282C15.2333 32.2638 15.222 32.2468 15.2038 32.2434C15.1811 32.2389 14.6421 32.1333 14.262 32.4023L14.2631 32.4011Z" fill="white"/>
<path d="M13.8043 32.7109C13.8168 32.7155 13.8304 32.7132 13.8395 32.7041L14.2264 32.3263C14.2332 32.3206 14.2367 32.3115 14.2367 32.3024V31.776L14.5986 31.5524L14.669 32.1141C14.6701 32.1232 14.6746 32.1311 14.6814 32.1368C14.6883 32.1425 14.6973 32.1447 14.7064 32.1425L15.0684 32.0857C15.0865 32.0834 15.099 32.0664 15.0956 32.0483C15.0933 32.0301 15.0775 32.0188 15.0582 32.021L14.7302 32.0732L14.6576 31.4945C14.6565 31.4832 14.6497 31.4741 14.6395 31.4696C14.6293 31.465 14.6179 31.465 14.6077 31.4707L14.1856 31.7306C14.1754 31.7362 14.1697 31.7476 14.1697 31.7589V32.29L13.8486 32.6031V32.3036C13.8486 32.2911 13.8418 32.2798 13.8304 32.2741C13.8191 32.2684 13.8055 32.2707 13.7953 32.2786L13.456 32.5555C13.448 32.5612 13.4435 32.5714 13.4435 32.5804V33.0956L13.1224 33.2454L12.9976 32.7143C12.9953 32.7041 12.9874 32.6951 12.9771 32.6916C12.9669 32.6882 12.9556 32.6894 12.9465 32.695L12.5017 32.9935C12.4915 33.0003 12.4858 33.0128 12.487 33.0252L12.5618 33.5801L12.1602 33.8944L12.108 33.5483C12.1057 33.5359 12.0978 33.5256 12.0853 33.5222C12.0728 33.5177 12.0603 33.5222 12.0512 33.5302L11.6564 33.933C11.6507 33.9387 11.6473 33.9477 11.6473 33.9557V34.4391L11.3386 34.8192L11.2694 34.4447C11.2672 34.4323 11.2569 34.4221 11.2445 34.4186C11.232 34.4152 11.2184 34.4198 11.2104 34.4311L10.9256 34.8078C10.9256 34.8078 10.9188 34.8203 10.9188 34.8271V35.2402L10.5739 35.5431V35.079C10.5739 35.0711 10.5716 35.0632 10.5659 35.0575L10.3481 34.8056C10.3401 34.7965 10.3288 34.7931 10.3174 34.7954C10.3061 34.7976 10.297 34.8056 10.2925 34.8169L10.1484 35.2334L9.7739 34.927L9.92822 34.3755C9.93276 34.3608 9.92596 34.3449 9.91234 34.3381L9.41761 34.0703C9.40967 34.0658 9.39946 34.0646 9.39038 34.068C9.3813 34.0714 9.37449 34.0782 9.37109 34.0873C9.27464 34.3585 9.1589 34.6535 9.11465 34.7273C9.06359 34.6853 8.92629 34.5435 8.80147 34.4096L8.95466 33.933C8.95806 33.9205 8.95466 33.908 8.94672 33.899L8.52007 33.4882C8.51213 33.4803 8.50078 33.4768 8.48943 33.4803C8.47808 33.4825 8.47015 33.4916 8.46674 33.5018L8.27271 34.0964L7.78933 34.034L7.90166 33.411C7.90393 33.3997 7.8994 33.3883 7.89032 33.3804L7.48523 33.0332C7.47615 33.0252 7.4648 33.023 7.45346 33.0275C7.44211 33.0309 7.43417 33.04 7.4319 33.0513L7.33205 33.5075L6.86455 33.3066L6.93717 32.6769C6.93831 32.6678 6.9349 32.6587 6.92923 32.6519C6.92356 32.6451 6.91448 32.6406 6.90427 32.6406H6.29267C6.27451 32.6406 6.25977 32.6553 6.25977 32.6735C6.25977 32.6916 6.27451 32.7064 6.29267 32.7064H6.86796L6.79647 33.3237C6.79534 33.3384 6.80328 33.352 6.81576 33.3577L7.34226 33.5847C7.35134 33.5881 7.36155 33.5881 7.37063 33.5847C7.3797 33.5801 7.38538 33.5722 7.38765 33.562L7.4841 33.1206L7.83358 33.419L7.71898 34.0567C7.71784 34.0658 7.71898 34.0748 7.72465 34.0816C7.73032 34.0885 7.73827 34.0941 7.74735 34.0953L8.292 34.1645C8.30675 34.1656 8.32263 34.1577 8.32717 34.1418L8.51326 33.571L8.88771 33.9319L8.73453 34.4073C8.73112 34.4186 8.73453 34.4311 8.74134 34.4391C8.95579 34.6728 9.08061 34.7942 9.11351 34.801C9.14415 34.809 9.17933 34.8147 9.41988 34.1452L9.85787 34.3823L9.70469 34.9293C9.70129 34.9417 9.70469 34.9554 9.71603 34.9633L10.1438 35.3139C10.1518 35.3207 10.1631 35.323 10.1733 35.3196C10.1835 35.3173 10.1915 35.3094 10.1949 35.2992L10.3356 34.8918L10.5081 35.0915V35.6157C10.5081 35.6282 10.516 35.6407 10.5273 35.6452C10.5319 35.6475 10.5364 35.6487 10.541 35.6487C10.5489 35.6487 10.5568 35.6464 10.5625 35.6407L10.9733 35.2799C10.9801 35.2742 10.9846 35.2651 10.9846 35.2549V34.8385L11.2184 34.5298L11.2865 34.9009C11.2887 34.9134 11.2978 34.9236 11.3103 34.927C11.3228 34.9304 11.3352 34.9259 11.3443 34.9156L11.7052 34.472C11.7097 34.4663 11.712 34.4584 11.712 34.4516V33.9704L12.0512 33.6244L12.1012 33.9614C12.1023 33.9727 12.1102 33.9829 12.1216 33.9875C12.1329 33.992 12.1443 33.9897 12.1545 33.9829L12.6152 33.6221C12.6243 33.6153 12.6288 33.6028 12.6277 33.5915L12.5539 33.0389L12.942 32.779L13.0656 33.3021C13.0679 33.3112 13.0747 33.3203 13.0827 33.3237C13.0917 33.3282 13.102 33.3282 13.111 33.3237L13.4878 33.1478C13.4991 33.1421 13.507 33.1308 13.507 33.1183V32.5975L13.7805 32.3739V32.6826C13.7805 32.6962 13.7884 32.7075 13.8009 32.7132L13.8043 32.7109Z" fill="#343434"/>
<path d="M7.2277 33.5903C7.22543 33.6085 7.23791 33.6244 7.25607 33.6266C7.2572 33.6266 7.25834 33.6266 7.25947 33.6266C7.27649 33.6266 7.29011 33.6142 7.29238 33.5971C7.29351 33.5835 7.44783 32.2491 7.48187 31.8066C7.51591 31.3629 7.48187 30.2487 7.48187 30.2373C7.48187 30.2192 7.46371 30.2033 7.44783 30.2055C7.42967 30.2055 7.41606 30.2214 7.41606 30.2396C7.41606 30.2509 7.4501 31.3618 7.41606 31.8021C7.38202 32.2434 7.22883 33.5767 7.22656 33.5903H7.2277Z" fill="white"/>
<path d="M8.60436 33.0173L8.46706 34.2099C8.46479 34.228 8.47728 34.2439 8.49543 34.2462C8.49657 34.2462 8.4977 34.2462 8.49883 34.2462C8.51585 34.2462 8.52946 34.2337 8.53173 34.2167L8.66903 33.0241C8.6713 33.006 8.65882 32.9901 8.64067 32.9878C8.62138 32.9855 8.60663 32.9991 8.60436 33.0162V33.0173Z" fill="white"/>
<path d="M9.96379 32.3025L9.86621 34.935C9.86621 34.9531 9.87983 34.9679 9.89799 34.969H9.89912C9.91614 34.969 9.93089 34.9554 9.93203 34.9373L10.0296 32.3048C10.0296 32.2866 10.016 32.2719 9.99784 32.2707C9.97741 32.2685 9.96493 32.2843 9.96379 32.3025Z" fill="white"/>
<path d="M12.6957 30.6697C12.6776 30.6697 12.664 30.6856 12.6651 30.7037L12.8035 33.4054C12.8035 33.4224 12.8194 33.4361 12.8364 33.4361H12.8376C12.8557 33.4361 12.8693 33.4202 12.8682 33.402L12.7298 30.7003C12.7298 30.6822 12.715 30.6697 12.6957 30.6697Z" fill="white"/>
<path d="M13.8159 29.982C13.7977 29.982 13.7841 29.9979 13.7852 30.016L13.9044 32.3047C13.9044 32.3217 13.9202 32.3353 13.9373 32.3353H13.9384C13.9566 32.3353 13.9702 32.3195 13.969 32.3013L13.8499 30.0126C13.8499 29.9945 13.8329 29.9809 13.8159 29.982Z" fill="white"/>
<path d="M13.2528 15.3616C13.6261 15.0519 14.2037 15.3503 14.2037 15.3503C14.2037 15.3503 13.8383 14.7364 13.4718 14.7047C13.3345 14.6933 13.1688 14.8283 13.1688 14.8283C13.1688 14.8283 12.9169 14.6445 12.6922 14.6445C12.4676 14.6445 12.3655 14.7591 12.3655 14.7591C12.3655 14.7591 12.2418 14.6377 12.0421 14.5844C11.8424 14.531 11.8321 14.6967 11.7175 14.6717C11.6029 14.6468 11.6018 14.5639 11.3624 14.6729C11.3159 14.6944 11.2251 14.7966 11.1729 15.1177C11.1207 15.4388 11.098 15.6113 11.098 15.6113L11.5746 16.6801C11.5746 16.6801 11.5916 17.4098 11.317 18.1836C11.0413 18.9575 9.52078 21.489 9.29157 21.7636C9.06237 22.0382 8.27149 22.77 7.70528 22.9471C7.13906 23.1241 6.53881 23.1422 6.53881 23.1422C6.53881 23.1422 6.64661 22.753 6.71923 22.517C6.81227 22.2152 6.8327 21.8532 6.8327 21.8532L6.63072 21.8396C6.63072 21.8396 6.4991 22.0234 6.39016 22.2356C6.28123 22.4478 5.9431 22.8551 5.72524 23.0673C5.50738 23.2795 5.15108 23.5201 5.15108 23.5201C5.15108 23.5201 5.1681 23.9785 5.16243 24.1453C5.15675 24.3121 5.3576 24.3745 5.41433 24.5129C5.4722 24.6502 5.29405 24.9895 5.14995 25.1835C5.00698 25.3787 5.13293 25.4536 5.24186 25.6658C5.35079 25.878 5.67758 25.9926 5.67758 25.9926C5.67758 25.9926 5.61971 26.3194 5.50511 26.4975C5.3905 26.6757 5.37916 26.7619 5.38483 26.9502C5.3905 27.1397 5.78084 27.2543 5.79219 27.3292C5.80353 27.4041 5.58567 27.5698 5.56298 27.5868C5.54028 27.6038 5.48241 28.1201 5.59702 28.3675C5.71162 28.6137 5.91246 28.9643 5.91246 28.9643C5.91246 28.9643 6.27329 28.7748 6.78958 28.6546C7.30586 28.5343 8.86607 27.9896 10.1744 26.7324C11.4827 25.4763 13.1041 21.8975 13.2437 19.9991C13.3912 17.9896 12.9918 17.4654 12.7796 17.0058C12.5549 16.5168 12.429 16.4124 12.429 16.4124L12.4517 16.2944C12.4517 16.2944 12.8114 15.727 13.2528 15.3605V15.3616Z" fill="#343434"/>
<path d="M10.1515 26.7097C8.92492 27.8875 7.41124 28.4764 6.78262 28.6228C6.26861 28.7431 5.90097 28.9337 5.89756 28.9348C5.88168 28.9428 5.87487 28.9632 5.88395 28.9791C5.88962 28.9904 5.90097 28.9961 5.91345 28.9961C5.91913 28.9961 5.92366 28.995 5.9282 28.9927C5.9316 28.9904 6.29244 28.8043 6.79851 28.6863C7.43394 28.5377 8.96123 27.9442 10.198 26.7562C11.5381 25.4695 13.0688 21.8612 13.2765 20.0037C13.4784 18.2006 13.0813 17.4767 12.8181 16.9979C12.7511 16.8753 12.6921 16.7698 12.6603 16.6699C12.6547 16.6529 12.6365 16.6438 12.6195 16.6484C12.6025 16.6541 12.5922 16.6722 12.5979 16.6892C12.632 16.7948 12.691 16.9037 12.7602 17.0285C13.0189 17.5005 13.4104 18.2143 13.2107 19.9957C13.003 21.843 11.4825 25.4298 10.1515 26.7086V26.7097Z" fill="white"/>
<path d="M11.7223 14.6275C11.7178 14.6332 11.6043 14.7807 11.5873 14.9656C11.5703 15.1404 11.5305 15.4479 11.5305 15.4513C11.5283 15.4695 11.5408 15.4853 11.5589 15.4876C11.56 15.4876 11.5612 15.4876 11.5634 15.4876C11.5793 15.4876 11.5941 15.4751 11.5963 15.4592C11.5963 15.4558 11.6372 15.1483 11.6542 14.9713C11.6701 14.8057 11.7745 14.6684 11.7756 14.6672C11.787 14.6525 11.7836 14.632 11.77 14.6207C11.7552 14.6094 11.7348 14.6116 11.7234 14.6264L11.7223 14.6275Z" fill="white"/>
<path d="M12.3351 14.8283C12.3283 14.8363 12.1683 15.0122 12.1207 15.2255C12.0753 15.4286 12.0367 15.5602 12.0367 15.5614C12.0311 15.5784 12.0413 15.5965 12.0594 15.6022C12.0628 15.6022 12.0662 15.6033 12.0685 15.6033C12.0833 15.6033 12.0957 15.5943 12.1003 15.5795C12.1003 15.5784 12.14 15.4445 12.1854 15.2391C12.2285 15.0439 12.3828 14.8749 12.3839 14.8726C12.3964 14.859 12.3953 14.8386 12.3817 14.8261C12.3681 14.8136 12.3476 14.8147 12.3351 14.8283Z" fill="white"/>
<path d="M12.7865 15.1234C12.5845 15.373 12.3111 15.6193 12.3088 15.6215C12.2952 15.634 12.2941 15.6544 12.3065 15.6681C12.3134 15.6749 12.3224 15.6794 12.3315 15.6794C12.3395 15.6794 12.3474 15.6771 12.3531 15.6715C12.3553 15.6692 12.6333 15.4196 12.8387 15.1654C13.018 14.943 13.1156 14.9782 13.1201 14.9793C13.1349 14.9872 13.1553 14.9804 13.1632 14.9646C13.1712 14.9487 13.1655 14.9282 13.1496 14.9203C13.1349 14.9124 13.0055 14.8556 12.7877 15.1234H12.7865Z" fill="white"/>
<path d="M10.9834 21.3482L10.685 21.8759C10.6759 21.8918 10.6816 21.9122 10.6975 21.9201C10.7032 21.9224 10.7077 21.9247 10.7134 21.9247C10.7247 21.9247 10.7361 21.919 10.7417 21.9076L11.039 21.3811C11.0447 21.3732 11.561 20.5267 11.8912 19.4C12.2225 18.2687 11.9513 17.1567 11.949 17.1453C11.9445 17.1283 11.9275 17.1158 11.9093 17.1215C11.8923 17.126 11.881 17.1442 11.8855 17.1612C11.8878 17.1726 12.1544 18.2664 11.8288 19.3807C11.5008 20.4984 10.9891 21.338 10.9823 21.3471L10.9834 21.3482Z" fill="white"/>
<path d="M11.9765 21.0942C11.8891 21.2769 11.7881 21.4527 11.6826 21.6275C11.9379 21.3098 12.1546 20.9591 12.3112 20.5768C12.4667 20.1921 12.5223 19.7836 12.5892 19.3785C12.6823 18.5808 12.7209 17.698 12.3305 16.9707C12.621 17.7287 12.5507 18.5695 12.4553 19.3604C12.3714 19.9584 12.2681 20.5597 11.9754 21.0942H11.9765Z" fill="white"/>
<path d="M6.31282 23.191C6.4331 23.1921 6.54543 23.174 6.54543 23.174L6.72585 22.5056C6.72585 22.5056 6.62827 22.6384 6.42175 22.8733C6.33552 22.9708 6.07227 23.1252 6.07227 23.1252C6.07227 23.1252 6.1551 23.1887 6.31282 23.191Z" fill="white"/>
<path d="M5.5166 24.5514C5.76623 24.8555 6.14182 25.0927 6.5503 25.0484C7.34799 24.9928 8.05604 24.5616 8.69147 24.1134C9.00691 23.882 9.30874 23.6335 9.58333 23.3555C9.42675 23.4723 9.27243 23.5892 9.11131 23.6993C8.32837 24.2337 7.49664 24.8113 6.54236 24.9508C6.15997 25.0235 5.80141 24.8113 5.5166 24.5514Z" fill="white"/>
<path d="M6.55476 26.3184C6.32215 26.2673 6.10656 26.1436 5.89551 26.0336C6.84978 26.922 8.19439 26.1175 8.96371 25.3652C9.07832 25.2483 9.19179 25.1303 9.29164 25.001C9.16909 25.1088 9.04769 25.2154 8.91947 25.3153C8.24546 25.8418 7.4455 26.383 6.5559 26.3184H6.55476Z" fill="white"/>
<path d="M5.46191 23.4758C6.91092 24.1486 8.3985 22.9879 9.36866 21.9871C9.22569 22.1028 9.08271 22.2185 8.9352 22.3275C7.94802 23.0662 6.74752 23.9013 5.46305 23.4758H5.46191Z" fill="white"/>
<path d="M6.07242 27.606C6.32546 27.7535 6.64204 27.7422 6.92685 27.7184C7.4159 27.6423 7.8346 27.3382 8.21019 27.0421C8.63683 26.6699 9.07596 26.2614 9.48672 25.8756C9.62288 25.7406 9.76358 25.6101 9.89747 25.4717C9.74316 25.5863 9.59451 25.7077 9.44246 25.8268C9.17921 26.0424 8.8093 26.3454 8.554 26.5644C7.87999 27.1635 7.03918 27.9203 6.07129 27.606H6.07242Z" fill="white"/>
<path d="M6.60922 22.9415L6.49121 23.1752C6.51164 23.1741 7.14706 23.1219 7.7042 22.9483C8.27041 22.7713 9.06242 22.0394 9.29049 21.7648C9.5197 21.4914 11.0402 18.9599 11.3159 18.1849C11.4441 17.8229 11.5088 17.4723 11.5417 17.2C11.4033 17.5018 10.5965 19.2606 10.5182 19.4319C10.4762 19.5238 9.63431 21.1873 8.78556 22.0303C7.93681 22.8734 6.60922 22.9415 6.60922 22.9415Z" fill="white"/>
<path d="M8.26953 28.0782C8.26953 28.0782 9.76619 27.4235 10.2847 26.9866C11.2447 26.1742 11.6373 25.1382 11.7928 24.8466C12.2149 24.0535 12.8367 21.6377 12.8367 21.6377C12.8367 21.6377 11.7349 24.4517 10.944 25.7827C10.152 27.1137 8.27067 28.0793 8.27067 28.0793L8.26953 28.0782Z" fill="white"/>
<path d="M12.5947 16.0879L12.5993 16.1786C12.5993 16.1786 13.2926 15.5364 13.5399 15.39C13.6455 15.3276 13.8883 15.2346 13.9586 15.2607C13.7884 15.1688 13.4287 15.2153 13.2529 15.3616C12.9805 15.5875 12.74 15.8893 12.5947 16.0879Z" fill="white"/>
<path d="M11.7518 17.3699C12.2787 17.3235 12.6682 16.8588 12.6218 16.332C12.5755 15.8051 12.1108 15.4156 11.5839 15.4619C11.057 15.5083 10.6675 15.973 10.7138 16.4999C10.7602 17.0268 11.2249 17.4163 11.7518 17.3699Z" fill="white"/>
<path d="M12.0136 16.1876C12.0136 16.1876 11.5904 16.2603 11.5904 16.2455C11.5904 16.2308 11.6868 15.7031 11.6868 15.7031L11.3271 16.4566L11.7118 16.4316C11.7118 16.4316 11.4349 17.1657 11.4497 17.1544C11.4644 17.1431 12.0136 16.1876 12.0136 16.1876Z" fill="#343434"/>
<path d="M10.6475 16.4134C10.6475 16.9773 11.107 17.4369 11.671 17.4369C12.2349 17.4369 12.6944 16.9773 12.6944 16.4134C12.6944 15.8494 12.2349 15.3899 11.671 15.3899C11.107 15.3899 10.6475 15.8494 10.6475 16.4134ZM12.5628 16.4134C12.5628 16.9058 12.1623 17.3053 11.671 17.3053C11.1796 17.3053 10.7791 16.9047 10.7791 16.4134C10.7791 15.9221 11.1796 15.5215 11.671 15.5215C12.1623 15.5215 12.5628 15.9221 12.5628 16.4134Z" fill="white"/>
<path d="M9.35758 10.1376C8.60755 10.1376 7.67143 10.7424 7.74972 12.1585C7.81894 13.4225 10.9393 13.5099 11.2173 12.4183C11.3955 11.7216 11.189 11.2496 10.9246 10.8071C10.7748 10.5575 10.3391 10.1353 9.35758 10.1365V10.1376Z" fill="white"/>
<path d="M11.3853 14.5879C11.4103 14.5538 11.4182 14.5391 11.4182 14.5391C11.4182 14.5391 11.3048 14.6071 11.3853 14.5879Z" fill="white"/>
<path d="M12.2327 11.7682C12.2327 11.7682 12.3553 11.6025 12.37 11.4414C12.4018 11.1089 12.1749 10.9943 12.1749 10.9943C12.1749 10.9943 12.2781 10.8854 12.2203 10.6267C12.1624 10.368 11.8821 10.1388 11.8821 10.1388C11.8821 10.1388 11.8651 9.75412 11.6983 9.65086C11.5315 9.5476 11.1241 9.45002 11.1241 9.45002C11.1241 9.45002 10.9868 9.14025 10.8722 9.12323C10.7883 9.11074 10.6476 9.11642 10.5795 9.12095C10.5534 9.12209 10.5284 9.11528 10.5057 9.10167C10.4263 9.05174 10.2232 8.93373 10.1063 8.93941C9.94746 8.94621 9.834 9.02905 9.76932 9.09146C9.73187 9.12777 9.674 9.1323 9.63315 9.10053C9.55826 9.04153 9.44139 8.96437 9.36196 8.98593C9.28821 9.00635 9.21332 9.06082 9.16453 9.1028C9.13275 9.13004 9.08737 9.13457 9.05219 9.11075C8.98751 9.06649 8.79348 9.00295 8.65732 9.0404C8.51548 9.07898 8.42244 9.1811 8.37591 9.2435C8.35435 9.27301 8.32145 9.29343 8.28514 9.29116C8.17507 9.28662 8.0548 9.21173 7.80289 9.36945C7.54759 9.52831 7.63383 9.66902 7.60773 9.79951C7.59752 9.84716 7.55781 9.88461 7.50901 9.89028C7.42278 9.90049 7.29001 9.93567 7.20037 10.0469C7.10052 10.1705 7.10392 10.3589 7.11414 10.461C7.11867 10.5041 7.10052 10.5461 7.06534 10.57C6.99953 10.6153 6.90308 10.7027 6.89968 10.823C6.89627 10.9331 6.96096 10.9841 6.98365 11.0375C6.9984 11.0726 6.99159 11.1123 6.96663 11.1407C6.90762 11.2111 6.80891 11.3495 6.80437 11.497C6.79983 11.6468 6.84408 11.7875 6.87131 11.859C6.88266 11.8896 6.88039 11.9225 6.86564 11.9509C6.81912 12.0371 6.72494 12.2323 6.70679 12.3911C6.69203 12.5262 6.776 12.7043 6.83841 12.8166C6.88266 12.8949 6.88266 12.9903 6.83841 13.0708C6.77373 13.1866 6.73175 13.3136 6.7465 13.4453C6.776 13.7028 6.85996 13.8129 6.92918 13.8583C6.98705 13.8969 7.02563 13.9581 7.02677 14.0285C7.03017 14.1613 7.05853 14.353 7.18335 14.4393C7.29795 14.5187 7.4205 14.5221 7.50333 14.5119C7.55213 14.5062 7.59525 14.5448 7.59412 14.5936C7.59412 14.6946 7.62134 14.8421 7.76772 14.909C7.92771 14.9828 8.10586 14.9113 8.20231 14.858C8.24316 14.8353 8.29308 14.8421 8.32939 14.8704C8.38272 14.9113 8.47237 14.9453 8.59945 14.8636C8.81164 14.7263 8.8105 14.0898 8.8105 14.0898L7.96743 12.1472L7.83126 11.9736C7.83126 11.9736 7.91183 11.9191 7.97423 11.7262C8.03778 11.5322 7.94019 11.1691 7.94587 11.1645C7.95154 11.16 8.09451 11.1021 8.18075 11.0057C8.26699 10.9081 8.29535 10.7504 8.29535 10.7504C8.29535 10.7504 8.42471 10.73 8.56995 10.6562C8.71519 10.5813 8.8105 10.2659 8.8105 10.2659C8.8105 10.2659 8.86043 10.3805 9.07715 10.3464C9.29388 10.3124 9.38238 10.1399 9.38238 10.1399C9.38238 10.1399 9.37445 10.2148 9.62067 10.3351C9.8669 10.4554 10.0235 10.3351 10.0235 10.3351C10.0235 10.3351 10.0711 10.5359 10.2039 10.5529C10.3378 10.57 10.567 10.5983 10.567 10.5983C10.567 10.5983 10.5897 10.8162 10.7156 10.8559C10.8416 10.8956 10.9528 10.9365 10.9528 10.9365C10.9528 10.9365 10.8541 11.1146 10.9278 11.2871C11.0027 11.4596 11.1457 11.5469 11.1457 11.5469C11.1457 11.5469 11.0254 11.6967 11.0765 11.8907C11.1275 12.0848 11.2081 12.1358 11.2081 12.1358C11.2081 12.1358 11.3397 12.0564 11.0992 12.6725C10.8586 13.2887 10.6408 14.1034 10.6408 14.1034L10.7213 14.9521C10.7213 14.9521 10.8938 15.1246 11.1343 14.8716C11.2751 14.7241 11.3465 14.6367 11.3817 14.5879C11.3011 14.6061 11.4146 14.5391 11.4146 14.5391C11.4146 14.5391 11.4067 14.5539 11.3817 14.5879C11.4112 14.5811 11.4646 14.5641 11.5587 14.5266C11.9139 14.3893 11.9604 14.0909 11.9604 14.0909C11.9604 14.0909 12.075 14.3337 12.1556 13.9423C12.2361 13.5508 12.1556 13.4022 12.1556 13.4022C12.1556 13.4022 12.2588 13.3352 12.3734 13.064C12.488 12.794 12.3224 12.5636 12.3224 12.5636C12.3224 12.5636 12.4404 12.3787 12.4483 12.1404C12.4585 11.8431 12.2305 11.7671 12.2305 11.7671L12.2327 11.7682Z" fill="#343434"/>
<path d="M11.4189 12.7088C11.4189 12.4853 11.1783 12.0723 11.1783 12.0723C11.1783 12.0723 11.0002 12.1063 10.9139 12.2152C10.8277 12.3242 10.8504 12.3991 10.8504 12.3991C10.8504 12.3991 10.7188 12.3537 10.5667 12.4569C10.4827 12.5137 10.426 12.6181 10.426 12.6181C10.426 12.6181 10.2728 12.3662 10.1594 12.3423C10.047 12.3196 9.87455 12.3196 9.87455 12.3196C9.87455 12.3196 9.693 12.2186 9.60336 12.1948C9.50577 12.1687 9.24707 12.1517 9.11885 12.2776L8.98608 12.407C8.96906 12.424 8.94637 12.4342 8.92254 12.4354C8.84765 12.4388 8.67518 12.4513 8.57873 12.491C8.45278 12.542 8.24059 12.7463 8.24059 12.7463C8.24059 12.7463 8.26669 12.6067 8.24059 12.5103C8.17932 12.2776 7.9694 12.1494 7.9694 12.1494C7.9694 12.1494 7.59949 12.4286 7.86614 12.8314C8.02046 13.0651 7.94671 13.3658 7.9694 13.4747C7.9921 13.5837 8.24059 13.772 8.24059 13.772C8.24059 13.772 8.32683 13.9388 8.4176 14.0591C8.50951 14.1794 8.78525 14.1624 8.78525 14.1624C8.78525 14.1624 8.83063 14.3746 9.11203 14.4324C9.39344 14.4903 9.96419 14.4914 10.1503 14.4279C10.3375 14.3643 10.5168 14.0648 10.5168 14.0648C10.5168 14.0648 10.5917 14.117 10.7585 13.9456C10.9253 13.7732 10.8844 13.5315 10.8844 13.5315C10.8844 13.5315 11.1488 13.4872 11.201 13.3443C11.2532 13.2013 11.2294 12.9982 11.2294 12.9982C11.2294 12.9982 11.4189 12.9346 11.4189 12.7111V12.7088Z" fill="#343434"/>
<path d="M9.8457 11.7092C9.8457 11.8091 9.92627 11.8896 10.0261 11.8896C10.126 11.8896 10.2065 11.8091 10.2065 11.7092C10.2065 11.6094 10.126 11.5288 10.0261 11.5288C9.92627 11.5288 9.8457 11.6094 9.8457 11.7092Z" fill="#343434"/>
<path d="M8.63281 11.7261C8.63281 11.8259 8.71338 11.9065 8.81323 11.9065C8.91308 11.9065 8.99364 11.8259 8.99364 11.7261C8.99364 11.6262 8.91308 11.5457 8.81323 11.5457C8.71338 11.5457 8.63281 11.6262 8.63281 11.7261Z" fill="#343434"/>
<path d="M9.3239 11.7967C9.28418 11.8432 9.22518 11.9124 9.23199 12.0191C9.23993 12.1484 9.37155 12.2154 9.44871 12.2335C9.45438 12.2347 9.45892 12.2358 9.4646 12.2358C9.4941 12.2358 9.52133 12.2154 9.52814 12.1859C9.53722 12.1507 9.51566 12.1155 9.48048 12.1064C9.47935 12.1064 9.36815 12.0747 9.36361 12.0111C9.3602 11.9578 9.39197 11.9215 9.42488 11.8829C9.44417 11.8602 9.46233 11.8387 9.47368 11.8126C9.50885 11.7286 9.50885 11.6378 9.47368 11.5584C9.43396 11.4699 9.34999 11.3984 9.34091 11.3916C9.31254 11.3678 9.2717 11.3723 9.249 11.4007C9.22631 11.429 9.22971 11.4699 9.25808 11.4937C9.27737 11.5096 9.33183 11.5618 9.35453 11.6129C9.38063 11.673 9.36928 11.7275 9.35453 11.7626C9.35226 11.7694 9.33751 11.7865 9.3273 11.7978L9.3239 11.7967Z" fill="#343434"/>
<path d="M9.68624 11.1373C9.59206 11.2235 9.60794 11.3472 9.57617 11.3937C9.57617 11.3937 9.80311 11.3097 9.97559 11.2212C10.1481 11.1327 10.569 11.0601 10.569 11.0601V10.9364C10.569 10.9364 10.4862 10.9364 10.4056 10.9364C10.3251 10.9364 10.0584 11.0022 10.0584 11.0022C10.0584 11.0022 10.1333 10.9194 10.0845 10.9387C10.0357 10.9591 9.83488 11.093 9.81445 11.0964C9.79403 11.0998 9.86325 10.9841 9.86325 10.9841C9.86325 10.9841 9.78042 11.0499 9.6851 11.1361L9.68624 11.1373Z" fill="#343434"/>
<path d="M8.24136 10.9365V11.0602C8.24136 11.0602 8.66347 11.1317 8.83481 11.2213C9.00729 11.3098 9.23422 11.3938 9.23422 11.3938C9.20245 11.3484 9.21947 11.2236 9.12416 11.1374C9.02998 11.0511 8.94601 10.9853 8.94601 10.9853C8.94601 10.9853 9.01522 11.0999 8.9948 11.0977C8.97438 11.0943 8.77353 10.9604 8.72474 10.9399C8.67595 10.9195 8.75085 11.0035 8.75085 11.0035C8.75085 11.0035 8.48419 10.9365 8.40362 10.9377C8.32306 10.9377 8.24023 10.9377 8.24023 10.9377L8.24136 10.9365Z" fill="#343434"/>
<path d="M9.35969 10.9036C9.34153 10.9059 9.32905 10.9229 9.33132 10.9399L9.37217 11.2553C9.37444 11.2724 9.38805 11.2837 9.40507 11.2837C9.40621 11.2837 9.40735 11.2837 9.40961 11.2837C9.42777 11.2814 9.44025 11.2644 9.43798 11.2474L9.39713 10.932C9.39486 10.9138 9.37784 10.9013 9.36082 10.9036H9.35969Z" fill="#343434"/>
<path d="M9.84582 12.5136C9.65633 12.458 9.73803 12.4557 9.67108 12.4171C9.60413 12.3785 9.51903 12.3649 9.46684 12.3672C9.4101 12.3695 9.36358 12.3842 9.2728 12.4829C9.18203 12.5816 9.05721 12.5737 9.01863 12.6418C8.98005 12.711 8.9063 12.9175 9.01863 13.0026C9.13097 13.0888 9.31819 13.1183 9.384 13.1229C9.44868 13.1274 9.50541 13.0412 9.57576 13.0503C9.64725 13.0593 9.69378 13.124 9.78455 13.124C9.87533 13.124 9.97858 13.0684 10.0943 12.9822C10.2101 12.8959 10.1454 12.6985 10.0943 12.6418C10.0433 12.5862 10.0342 12.5692 9.84469 12.5124L9.84582 12.5136Z" fill="white"/>
<path d="M9.14453 12.7894C9.14453 12.8847 9.32382 12.9619 9.54508 12.9619C9.76635 12.9619 9.94562 12.8847 9.94562 12.7894C9.94562 12.6941 9.76635 12.6169 9.54508 12.6169C9.32382 12.6169 9.14453 12.6941 9.14453 12.7894Z" fill="white"/>
<path d="M9.08004 12.7395C9.05281 12.7395 9.03125 12.7611 9.03125 12.7883C9.03125 12.8155 9.05281 12.8371 9.08004 12.8371H9.99233C10.0196 12.8371 10.0411 12.8155 10.0411 12.7883C10.0411 12.7611 10.0196 12.7395 9.99233 12.7395H9.08004Z" fill="#343434"/>
<path d="M10.2267 13.5542C10.2097 13.5599 10.1995 13.5781 10.2052 13.5951C10.2097 13.6098 10.2222 13.6189 10.2369 13.6189C10.2404 13.6189 10.2438 13.6189 10.246 13.6178C10.2755 13.6087 10.2994 13.5826 10.3107 13.5486C10.3186 13.5225 10.3175 13.4964 10.3164 13.4726C10.3152 13.4419 10.313 13.392 10.2789 13.3591C10.2596 13.3409 10.2358 13.333 10.2177 13.3262C10.1927 13.3182 10.1621 13.308 10.128 13.3137C10.0928 13.3205 10.0679 13.3432 10.0452 13.3625C10.0361 13.3704 10.027 13.3784 10.018 13.3852C9.97257 13.417 9.90222 13.4101 9.86364 13.3693C9.86023 13.3659 9.85796 13.3625 9.85683 13.3602C9.8557 13.3557 9.8557 13.3477 9.85683 13.3409L9.86137 13.2218C9.86137 13.2036 9.84775 13.1889 9.82959 13.1877C9.8103 13.1877 9.79669 13.2014 9.79555 13.2195L9.79102 13.3387C9.79102 13.3511 9.79101 13.3682 9.79669 13.384C9.80236 13.3977 9.81144 13.409 9.81711 13.4147C9.87725 13.4782 9.98504 13.4896 10.0565 13.4396C10.0679 13.4317 10.0792 13.4215 10.0906 13.4124C10.1087 13.3965 10.1246 13.3818 10.1416 13.3795C10.1587 13.3761 10.1779 13.3829 10.1984 13.3897C10.212 13.3943 10.2267 13.3988 10.2358 13.4079C10.2506 13.4215 10.2517 13.4487 10.2528 13.4771C10.2528 13.4975 10.254 13.5157 10.2494 13.5316C10.246 13.544 10.2381 13.5542 10.229 13.5565L10.2267 13.5542Z" fill="white"/>
<path d="M10.1246 14.0989L10.0656 14.1272C10.0497 14.1352 10.0417 14.1545 10.0497 14.1715C10.0553 14.1828 10.0667 14.1908 10.0792 14.1908C10.0837 14.1908 10.0882 14.1908 10.0928 14.1874L10.1518 14.159C10.1597 14.1556 10.1699 14.1499 10.179 14.1409C10.1949 14.1238 10.1972 14.1011 10.1983 14.0898C10.2017 14.0603 10.2006 14.0296 10.1983 14.0001C10.196 13.9843 10.1938 13.965 10.1836 13.9457C10.1733 13.9264 10.1575 13.9116 10.145 13.9014C10.1109 13.8731 10.0678 13.8504 10.0122 13.8299L9.97705 13.8175C9.94869 13.8073 9.92145 13.7982 9.89649 13.7857C9.87039 13.7721 9.83635 13.7494 9.81819 13.7153C9.81025 13.6995 9.78982 13.6927 9.77394 13.7006C9.75805 13.7085 9.75124 13.729 9.75919 13.7448C9.77961 13.7846 9.81592 13.8186 9.86585 13.8436C9.89422 13.8583 9.92486 13.8685 9.95436 13.8787L9.9884 13.8912C10.0383 13.9094 10.0746 13.9287 10.103 13.9525C10.1109 13.9593 10.12 13.9672 10.1246 13.9763C10.1291 13.9854 10.1314 13.9967 10.1325 14.007C10.1359 14.0319 10.1359 14.0569 10.1325 14.0818C10.1325 14.0909 10.1302 14.0943 10.1302 14.0943C10.1291 14.0943 10.1246 14.0966 10.1223 14.0989H10.1246Z" fill="white"/>
<path d="M9.6137 14.2394C9.60916 14.2463 9.59895 14.2497 9.58647 14.2497C9.57399 14.2497 9.55923 14.2429 9.54108 14.2315C9.52519 14.2224 9.5059 14.2258 9.49569 14.2417C9.48547 14.2576 9.49002 14.2769 9.5059 14.2871C9.52292 14.2985 9.55015 14.3132 9.58192 14.3155C9.58419 14.3155 9.58646 14.3155 9.58987 14.3155C9.62277 14.3155 9.65341 14.2996 9.6693 14.2746C9.68291 14.2531 9.68405 14.2304 9.68518 14.2122C9.68859 14.1475 9.69199 14.0602 9.64433 13.9921C9.63412 13.9773 9.6137 13.9739 9.59895 13.9841C9.5842 13.9944 9.58079 14.0148 9.591 14.0295C9.62277 14.0749 9.62277 14.1373 9.61937 14.2088C9.61937 14.2213 9.61824 14.2338 9.6137 14.2394Z" fill="white"/>
<path d="M9.50162 13.7529C9.51864 13.7472 9.52885 13.729 9.52431 13.712C9.51863 13.695 9.50048 13.6848 9.48346 13.6893C9.35864 13.7256 9.26447 13.8209 9.20433 13.889C9.16915 13.9287 9.13625 13.973 9.13057 14.0275C9.12376 14.0967 9.16802 14.1682 9.2361 14.1965C9.27468 14.2124 9.31553 14.2147 9.35184 14.2147C9.35865 14.2147 9.36432 14.2147 9.36999 14.2147C9.38815 14.2147 9.4029 14.1999 9.4029 14.1818C9.4029 14.1636 9.38815 14.1489 9.36999 14.1489C9.33255 14.1489 9.29397 14.1489 9.26106 14.1364C9.21908 14.1194 9.19185 14.0751 9.19525 14.0343C9.19865 14.0002 9.22021 13.9684 9.25312 13.9321C9.34049 13.8334 9.41879 13.7767 9.50162 13.7529Z" fill="white"/>
<path d="M10.9471 12.8325C10.9653 12.8325 10.9823 12.8223 10.9846 12.8041C10.9891 12.7758 10.9925 12.7428 10.9834 12.7099C10.971 12.6668 10.9335 12.6351 10.8949 12.6373C10.8677 12.6373 10.8461 12.6509 10.828 12.6646C10.7667 12.7099 10.7179 12.7689 10.6714 12.8257C10.6578 12.8427 10.643 12.8597 10.6294 12.8767C10.5988 12.913 10.5613 12.9494 10.5194 12.9528C10.4989 12.9539 10.4774 12.9482 10.4535 12.9425C10.4195 12.9335 10.3809 12.9233 10.3571 12.8983C10.3446 12.8858 10.3242 12.8847 10.3106 12.8983C10.2981 12.9108 10.297 12.9312 10.3106 12.9448C10.3469 12.9823 10.3968 12.9959 10.4365 13.0061C10.4592 13.0129 10.4853 13.0197 10.5125 13.0197C10.5159 13.0197 10.5205 13.0197 10.525 13.0197C10.5908 13.014 10.6408 12.9664 10.6805 12.921C10.6952 12.904 10.7088 12.887 10.7236 12.8688C10.7701 12.8121 10.8132 12.7587 10.8688 12.7179C10.8779 12.7111 10.8893 12.7031 10.8972 12.7031C10.9063 12.7031 10.9176 12.7145 10.9222 12.7281C10.9278 12.7474 10.9244 12.7712 10.9222 12.7939C10.9199 12.8121 10.9324 12.8291 10.9505 12.8313L10.9471 12.8325Z" fill="white"/>
<path d="M8.61015 12.9607C8.60221 12.9527 8.59653 12.9437 8.58973 12.9346C8.58178 12.9221 8.57158 12.9096 8.55909 12.8971C8.51371 12.8552 8.43995 12.8495 8.38208 12.8847C8.33556 12.913 8.30152 12.963 8.28677 13.0254C8.28677 13.0276 8.28449 13.0333 8.28336 13.0367C8.26974 13.0435 8.2618 13.0605 8.26748 13.0764C8.27202 13.09 8.28449 13.0991 8.29925 13.0991C8.30265 13.0991 8.30606 13.0991 8.30946 13.098C8.3401 13.0878 8.34804 13.0571 8.35144 13.0413C8.36166 12.997 8.38549 12.9607 8.41726 12.9425C8.45016 12.9232 8.49215 12.9255 8.51598 12.9471C8.52392 12.9539 8.53073 12.9641 8.53754 12.9743C8.54661 12.9868 8.55569 12.9993 8.5659 13.0095C8.60335 13.0458 8.66121 13.056 8.71 13.0367C8.72702 13.0299 8.73497 13.0106 8.72816 12.9936C8.72135 12.9766 8.70206 12.9698 8.68504 12.9754C8.66122 12.9857 8.63058 12.98 8.61242 12.9618L8.61015 12.9607Z" fill="white"/>
<path d="M8.36597 13.2739C8.38299 13.2671 8.38979 13.2478 8.38298 13.2308C8.37617 13.2138 8.35688 13.207 8.33986 13.2138C8.27746 13.241 8.24001 13.3102 8.23661 13.4056C8.23434 13.4725 8.24569 13.5236 8.27406 13.5621C8.29902 13.5973 8.34327 13.6234 8.38979 13.6234C8.40681 13.6234 8.42497 13.62 8.44199 13.6109C8.45787 13.603 8.46468 13.5826 8.4556 13.5667C8.44766 13.5508 8.42724 13.544 8.41135 13.5531C8.38412 13.5678 8.34667 13.5497 8.32852 13.5247C8.30923 13.4975 8.30129 13.46 8.30356 13.4078C8.30356 13.3829 8.31264 13.2978 8.3671 13.2739H8.36597Z" fill="white"/>
<path d="M9.0681 13.3444C9.08285 13.3444 9.11802 13.3705 9.14412 13.392C9.18043 13.4215 9.22015 13.4556 9.26667 13.468C9.36198 13.493 9.42893 13.4454 9.43233 13.4442C9.44708 13.434 9.45049 13.4136 9.44027 13.3988C9.43006 13.3841 9.40964 13.3807 9.39489 13.3909C9.39262 13.392 9.3495 13.4215 9.28482 13.4045C9.25305 13.3966 9.22015 13.3682 9.18724 13.3421C9.14526 13.3069 9.10554 13.2729 9.06129 13.2797C8.9864 13.2876 8.94101 13.3432 8.92853 13.3954C8.91604 13.4454 8.93534 13.5361 8.98072 13.5849C8.98753 13.5917 8.99548 13.5951 9.00456 13.5951C9.0125 13.5951 9.02044 13.5917 9.02724 13.5861C9.04086 13.5736 9.04086 13.5531 9.02838 13.5395C9.00001 13.51 8.98413 13.4431 8.99207 13.4113C8.99888 13.3818 9.02498 13.35 9.0681 13.3455V13.3444Z" fill="white"/>
<path d="M8.68136 13.6405C8.73129 13.6235 8.80164 13.6711 8.82434 13.6916C8.83795 13.7029 8.85838 13.7018 8.87086 13.6881C8.88334 13.6745 8.88107 13.6541 8.86746 13.6416C8.86292 13.6382 8.75739 13.5474 8.66094 13.5781C8.59059 13.6008 8.52818 13.6291 8.54066 13.7256C8.54293 13.7426 8.55655 13.754 8.57357 13.754C8.5747 13.754 8.57698 13.754 8.57811 13.754C8.59627 13.7517 8.60875 13.7347 8.60648 13.7165C8.60194 13.6791 8.60421 13.6655 8.68136 13.6405Z" fill="white"/>
<path d="M11.698 11.8044C11.6617 11.8487 11.6333 11.8838 11.6413 11.9224C11.6458 11.944 11.6628 11.9621 11.6901 11.9758C11.7922 12.0234 11.9363 12.1902 11.9374 12.1913C11.9442 12.1993 11.9533 12.2027 11.9624 12.2027C11.9703 12.2027 11.9771 12.2004 11.9839 12.1948C11.9976 12.1834 11.9987 12.1618 11.9873 12.1482C11.9805 12.1414 11.8319 11.9701 11.7184 11.9168C11.7093 11.9122 11.7059 11.9088 11.7059 11.9088C11.7059 11.8986 11.7309 11.868 11.7491 11.8464C11.791 11.7953 11.8478 11.7261 11.8648 11.6319C11.9249 11.2904 11.6004 11.1611 11.597 11.1588C11.5811 11.152 11.5607 11.161 11.555 11.1769C11.5482 11.194 11.5573 11.2132 11.5732 11.2201C11.5845 11.2246 11.8512 11.3324 11.8001 11.6195C11.7865 11.6966 11.7377 11.7568 11.698 11.8044Z" fill="white"/>
<path d="M11.4042 11.3144C11.3884 11.3223 11.3816 11.3428 11.3895 11.3587C11.3952 11.37 11.4065 11.3768 11.419 11.3768C11.4235 11.3768 11.4292 11.3757 11.4338 11.3734C11.5325 11.3246 11.7027 11.1238 11.6641 10.9297C11.6278 10.7505 11.3078 10.4123 11.2942 10.3976C11.2817 10.3839 11.2613 10.384 11.2477 10.3964C11.234 10.4089 11.234 10.4293 11.2465 10.443C11.3362 10.5371 11.5733 10.8095 11.5994 10.9433C11.6301 11.0954 11.4882 11.2735 11.4042 11.3155V11.3144Z" fill="white"/>
<path d="M11.8075 12.8948C11.8075 12.7518 11.7712 12.6475 11.7008 12.5873C11.6214 12.5192 11.5272 12.5328 11.5227 12.5328C11.5045 12.5351 11.4932 12.5521 11.4954 12.5703C11.4977 12.5885 11.5159 12.6009 11.5329 12.5975C11.5363 12.5975 11.6021 12.5885 11.6588 12.6372C11.7144 12.6849 11.7417 12.7711 11.7417 12.8948C11.7417 13.2568 11.6634 13.3623 11.6169 13.3941C11.5771 13.4202 11.542 13.4066 11.5408 13.4066C11.525 13.3998 11.5079 13.4066 11.4989 13.4202C11.4909 13.4349 11.4943 13.4531 11.5079 13.4633C11.5102 13.4644 11.694 13.5983 11.6838 13.7277C11.6725 13.8695 11.559 14.0533 11.4353 14.1294C11.3048 14.2088 11.0983 14.2508 11.096 14.2519C11.0779 14.2553 11.0665 14.2723 11.0699 14.2905C11.0733 14.3064 11.087 14.3166 11.1017 14.3166C11.104 14.3166 11.1063 14.3166 11.1085 14.3166C11.1176 14.3143 11.3286 14.2723 11.4682 14.1861C11.6101 14.0999 11.736 13.8968 11.7485 13.7334C11.7564 13.6278 11.6759 13.5291 11.6146 13.469C11.6259 13.4644 11.6384 13.4588 11.6509 13.4508C11.7542 13.3839 11.8064 13.1966 11.8064 12.896L11.8075 12.8948Z" fill="white"/>
<path d="M7.58027 13.899C7.66651 14.2326 7.88324 14.2894 8.08068 14.3155C8.15443 14.3257 8.21684 14.3291 8.26903 14.3291C8.37115 14.3291 8.42902 14.3155 8.43243 14.3155C8.45058 14.3109 8.4608 14.2939 8.4574 14.2758C8.45286 14.2587 8.43583 14.2474 8.41768 14.2508C8.41654 14.2508 8.29514 14.278 8.08976 14.2508C7.85941 14.219 7.7119 14.1487 7.64382 13.8832C7.60297 13.7254 7.61659 13.6176 7.62566 13.5461C7.63361 13.4837 7.64042 13.4247 7.57914 13.4066C7.51674 13.3873 7.27391 13.2046 7.27391 12.9629C7.27391 12.8824 7.34312 12.7553 7.4044 12.6429C7.4929 12.4818 7.56893 12.3422 7.47816 12.2889C7.41121 12.2492 7.25803 12.1346 7.27505 11.9235C7.30342 11.5741 7.59616 11.4379 7.60864 11.4333C7.62453 11.4265 7.63247 11.4072 7.62566 11.3902C7.62566 11.3891 7.56666 11.2461 7.53262 11.0884C7.50766 10.967 7.63701 10.782 7.68921 10.7208C7.70055 10.7071 7.69942 10.6867 7.68581 10.6742C7.67219 10.6629 7.65176 10.664 7.63928 10.6776C7.63134 10.6879 7.43163 10.9239 7.46908 11.1009C7.49517 11.2246 7.53489 11.3358 7.55418 11.3868C7.47135 11.4322 7.23647 11.5911 7.21037 11.9179C7.19675 12.0892 7.28413 12.2492 7.44525 12.3445C7.48156 12.3661 7.40099 12.5136 7.34766 12.61C7.27958 12.7348 7.20923 12.8631 7.20923 12.9606C7.20923 13.2398 7.47589 13.4418 7.56439 13.469C7.56893 13.4758 7.56439 13.5098 7.56099 13.5359C7.55191 13.6074 7.53716 13.7277 7.58141 13.8979L7.58027 13.899Z" fill="white"/>
<path d="M7.39341 11.4937C7.39341 11.4937 6.61954 11.9498 6.6445 11.9498C6.66947 11.9498 6.91116 12.1688 6.91116 12.1688L6.39941 12.6703L7.12221 12.1688L6.9418 11.9067L7.28334 11.7422L7.39341 11.4937Z" fill="white"/>
<path d="M7.3848 13.4305C7.40069 13.4214 7.40523 13.401 7.39616 13.3851C7.38708 13.3692 7.36665 13.3647 7.35076 13.3738C7.27474 13.418 7.14766 13.5508 7.21006 13.7391C7.28495 13.9672 7.6004 14.0387 7.61401 14.0421C7.61628 14.0421 7.61855 14.0421 7.62082 14.0421C7.63557 14.0421 7.64919 14.0319 7.65259 14.016C7.65599 13.999 7.64579 13.9808 7.62763 13.9774C7.62536 13.9774 7.33488 13.9105 7.27134 13.7176C7.21006 13.5338 7.37572 13.4339 7.38253 13.4294L7.3848 13.4305Z" fill="white"/>
<path d="M8.09153 10.1513C7.78516 10.4792 7.74545 10.5393 7.74091 10.5507C7.7341 10.5677 7.74091 10.5881 7.7568 10.5949C7.76134 10.5972 7.76587 10.5983 7.77041 10.5983C7.78289 10.5983 7.79424 10.5915 7.79878 10.5802C7.79991 10.5779 7.83282 10.5234 8.13805 10.1967C8.42173 9.89255 9.09232 9.72121 9.84349 9.75979C10.4937 9.79383 11.1041 10.3203 11.1098 10.3249C11.1234 10.3362 11.1438 10.3351 11.1563 10.3215C11.1688 10.3078 11.1665 10.2874 11.1529 10.2749C11.1268 10.2523 10.5198 9.72802 9.8469 9.69285C9.23416 9.66108 8.45009 9.76547 8.0904 10.1513H8.09153Z" fill="white"/>
<path d="M7.55664 10.1942C7.55664 10.1942 7.61791 10.2771 7.77677 10.3179C7.93449 10.3588 8.21136 10.0808 8.21136 10.0808C8.21136 10.0808 7.93222 9.94686 7.77564 10.0342C7.61905 10.1216 7.55664 10.1931 7.55664 10.1931V10.1942Z" fill="white"/>
<path d="M8.18766 9.58044C8.18766 9.58044 8.20127 9.68255 8.32042 9.79489C8.43956 9.90722 8.81514 9.79716 8.81514 9.79716C8.81514 9.79716 8.63473 9.54526 8.45544 9.54639C8.27616 9.54866 8.18652 9.58044 8.18652 9.58044H8.18766Z" fill="white"/>
<path d="M8.99234 9.41597C8.99234 9.41597 8.99234 9.51923 9.09333 9.64631C9.19545 9.77453 9.58352 9.7178 9.58352 9.7178C9.58352 9.7178 9.44054 9.4432 9.2624 9.41937C9.08425 9.39668 8.99121 9.41484 8.99121 9.41484L8.99234 9.41597Z" fill="white"/>
<path d="M9.78586 9.36938C9.78586 9.36938 9.75863 9.46924 9.82444 9.61902C9.89025 9.7688 10.2795 9.81419 10.2795 9.81419C10.2795 9.81419 10.2125 9.51122 10.0468 9.44314C9.88118 9.37506 9.78586 9.36938 9.78586 9.36938Z" fill="white"/>
<path d="M10.5578 9.42944C10.5578 9.42944 10.4874 9.50433 10.475 9.66773C10.4625 9.83112 10.7859 10.0535 10.7859 10.0535C10.7859 10.0535 10.8676 9.7551 10.7541 9.61666C10.6395 9.47823 10.5589 9.42944 10.5589 9.42944H10.5578Z" fill="white"/>
<path d="M11.0451 9.74146C11.0451 9.74146 10.9747 9.81634 10.9623 9.97974C10.9498 10.1431 11.2732 10.3655 11.2732 10.3655C11.2732 10.3655 11.3549 10.0671 11.2414 9.92868C11.1268 9.79024 11.0462 9.74146 11.0462 9.74146H11.0451Z" fill="white"/>
<path d="M10.5529 10.326C10.5529 10.326 10.6232 10.3895 10.7889 10.4588C10.9546 10.528 11.2156 10.3623 11.2156 10.3623C11.2156 10.3623 10.9081 10.1183 10.756 10.1785C10.604 10.2375 10.5518 10.3271 10.5518 10.3271L10.5529 10.326Z" fill="white"/>
<path d="M10.0732 10.1534C10.0732 10.1534 10.1561 10.1988 10.3331 10.2283C10.5101 10.2578 10.7268 10.0366 10.7268 10.0366C10.7268 10.0366 10.3728 9.86864 10.2378 9.96168C10.1027 10.0536 10.0732 10.1523 10.0732 10.1523V10.1534Z" fill="white"/>
<path d="M9.56934 9.99005C9.56934 9.99005 9.6567 10.0264 9.83599 10.0377C10.0153 10.049 10.2082 9.80623 10.2082 9.80623C10.2082 9.80623 9.83826 9.67687 9.71344 9.7824C9.58863 9.88792 9.56934 9.99005 9.56934 9.99005Z" fill="white"/>
<path d="M8.928 10.0854C8.928 10.0854 9.02332 10.09 9.19466 10.0412C9.36713 9.99124 9.46698 9.69849 9.46698 9.69849C9.46698 9.69849 9.07438 9.70076 8.99382 9.84259C8.91212 9.98443 8.928 10.0865 8.928 10.0865V10.0854Z" fill="white"/>
<path d="M8.37207 10.2011C8.37207 10.3645 8.43675 10.445 8.43675 10.445C8.43675 10.445 8.52185 10.4019 8.64553 10.2726C8.77034 10.1432 8.71021 9.83911 8.71021 9.83911C8.71021 9.83911 8.37207 10.0365 8.37207 10.1999V10.2011Z" fill="white"/>
<path d="M7.87504 10.6107C7.91021 10.7706 7.98964 10.8353 7.98964 10.8353C7.98964 10.8353 8.06339 10.7752 8.15757 10.6231C8.25175 10.4711 8.12921 10.1863 8.12921 10.1863C8.12921 10.1863 7.83986 10.4518 7.87504 10.6107Z" fill="white"/>
<path d="M11.7707 13.0266L11.748 13.2036L11.9523 13.7006L12.1214 13.586L12.388 14.1136L12.1781 13.3511L12.0068 13.4521L11.7707 13.0266Z" fill="white"/>
<path d="M11.4521 12.7089C11.4521 12.4785 11.2172 12.0723 11.207 12.0553C11.1979 12.0394 11.1775 12.0337 11.1616 12.0439C11.1457 12.053 11.1412 12.0735 11.1503 12.0893C11.1525 12.0939 11.3863 12.4967 11.3863 12.71C11.3863 12.9063 11.2263 12.963 11.2195 12.9653C11.2036 12.971 11.1945 12.988 11.1979 13.0039C11.1979 13.005 11.2342 13.165 11.1707 13.3307C11.131 13.4328 10.9472 13.4861 10.8802 13.4975C10.8632 13.5009 10.8519 13.5156 10.853 13.5327C10.853 13.5349 10.87 13.7471 10.7338 13.9241C10.6556 14.0251 10.5466 14.0308 10.5239 14.0308C10.5205 14.0308 10.5194 14.0308 10.5183 14.0308C10.5012 14.0308 10.4865 14.0444 10.4854 14.0626C10.4854 14.0807 10.4978 14.0955 10.516 14.0966C10.516 14.0966 10.5183 14.0966 10.5228 14.0966C10.5546 14.0966 10.6896 14.0887 10.7849 13.9638C10.9075 13.805 10.9188 13.6257 10.9188 13.5565C10.9914 13.5395 11.1821 13.4839 11.232 13.3545C11.2876 13.2093 11.2751 13.0731 11.266 13.0164C11.3228 12.988 11.451 12.9018 11.451 12.71L11.4521 12.7089Z" fill="white"/>
<path d="M7.93763 13.4805C7.96146 13.5917 8.17024 13.7573 8.21563 13.7925C8.23265 13.8254 8.30981 13.9684 8.39264 14.0773C8.47321 14.1828 8.66611 14.1942 8.74894 14.1942C8.7705 14.1942 8.78525 14.1942 8.78751 14.1942C8.80567 14.1942 8.81929 14.1772 8.81815 14.159C8.81815 14.1409 8.80454 14.1284 8.78298 14.1284C8.71149 14.1329 8.51065 14.125 8.44371 14.0376C8.3552 13.9207 8.27009 13.7573 8.26896 13.7562C8.26669 13.7517 8.26329 13.7482 8.25989 13.7448C8.16798 13.6745 8.01592 13.5383 8.00117 13.4668C7.9955 13.4396 7.99663 13.3931 7.9989 13.3398C8.00344 13.1991 8.01025 12.9869 7.89338 12.8121C7.64715 12.4411 7.97508 12.1858 7.98869 12.1756C8.00344 12.1642 8.00571 12.1438 7.9955 12.129C7.98415 12.1143 7.96373 12.112 7.95011 12.1222C7.94671 12.1256 7.55864 12.4252 7.83891 12.8484C7.94331 13.0062 7.93763 13.1979 7.93309 13.3375C7.93083 13.3976 7.92969 13.4453 7.93763 13.4805Z" fill="white"/>
<path d="M11.0485 11.8987C11.1018 12.0996 11.1858 12.1563 11.1949 12.1631C11.2096 12.1722 11.2301 12.1676 11.2391 12.1529C11.2493 12.1381 11.2448 12.1177 11.23 12.1075C11.23 12.1075 11.1586 12.0576 11.112 11.8817C11.0655 11.7069 11.1733 11.5674 11.1744 11.5662C11.1801 11.5583 11.1824 11.5492 11.1813 11.5401C11.1801 11.5311 11.1744 11.5231 11.1665 11.5174C11.1654 11.5174 11.0303 11.4324 10.9611 11.2724C10.8942 11.118 10.9838 10.9524 10.985 10.9512C10.9895 10.9433 10.9906 10.9331 10.9872 10.924C10.9838 10.9149 10.977 10.9081 10.9679 10.9047C10.9679 10.9047 10.8567 10.865 10.7296 10.8242C10.6434 10.7969 10.6094 10.6483 10.6037 10.5938C10.6026 10.5791 10.5901 10.5666 10.5753 10.5643C10.5753 10.5643 10.3461 10.5359 10.2122 10.5189C10.1033 10.5053 10.059 10.3283 10.059 10.326C10.0568 10.3147 10.0488 10.3067 10.0375 10.3022C10.0273 10.2988 10.0148 10.2999 10.0068 10.3067C10.0057 10.3079 9.86388 10.4134 9.63807 10.3033C9.43383 10.2035 9.41908 10.1411 9.41794 10.1411C9.41908 10.1252 9.41 10.1104 9.39525 10.1059C9.3805 10.1014 9.36348 10.1082 9.35667 10.1218C9.35327 10.1286 9.27271 10.2795 9.07527 10.3113C8.89031 10.3408 8.84492 10.2534 8.84379 10.25C8.83811 10.2375 8.82564 10.2296 8.81202 10.2307C8.7984 10.2307 8.78706 10.2409 8.78252 10.2534C8.75642 10.3374 8.66678 10.5677 8.55785 10.6233C8.41942 10.6948 8.2946 10.7141 8.29346 10.7152C8.27985 10.7175 8.2685 10.7277 8.26623 10.7425C8.26623 10.7436 8.239 10.8922 8.15957 10.9819C8.09149 11.0602 7.98256 11.1112 7.94625 11.1283C7.93604 11.1328 7.93264 11.1351 7.9281 11.1385C7.91221 11.1521 7.91334 11.1612 7.92355 11.2134C7.94284 11.3109 7.99391 11.5696 7.94625 11.716C7.88838 11.893 7.81576 11.9464 7.81576 11.9464C7.80781 11.9509 7.80328 11.96 7.80214 11.9679C7.80101 11.9759 7.80214 11.9861 7.80895 11.9929L7.94511 12.1665C7.95192 12.1744 7.961 12.179 7.97121 12.179C7.97802 12.179 7.98597 12.1767 7.99164 12.1722C8.00639 12.1608 8.00866 12.1404 7.99731 12.1256L7.8793 11.9759C7.91107 11.943 7.9644 11.8715 8.00979 11.7342C8.06312 11.5719 8.01093 11.3098 7.98937 11.1986C7.98823 11.1918 7.9871 11.1861 7.98596 11.1816C8.03248 11.1589 8.13801 11.1056 8.2095 11.025C8.28212 10.9433 8.31502 10.8253 8.32637 10.7765C8.37062 10.7674 8.47388 10.7413 8.58848 10.6823C8.70649 10.6222 8.79046 10.4259 8.82677 10.3283C8.86876 10.3635 8.94705 10.3975 9.08661 10.3759C9.24207 10.351 9.33625 10.2613 9.38164 10.2023C9.41341 10.2421 9.47808 10.2965 9.61084 10.3612C9.8026 10.4542 9.94331 10.4123 10.0091 10.3805C10.0329 10.4463 10.0908 10.5666 10.2043 10.5813C10.311 10.5949 10.48 10.6165 10.5424 10.6244C10.5538 10.688 10.5923 10.8469 10.7104 10.8843C10.7932 10.9104 10.8704 10.9376 10.9123 10.9524C10.8851 11.0159 10.842 11.1566 10.9021 11.2962C10.96 11.4301 11.0576 11.5152 11.1052 11.5515C11.0712 11.6071 11.0076 11.7376 11.0508 11.8953L11.0485 11.8987Z" fill="#343434"/>
<path d="M11.4526 12.7089C11.4526 12.4785 11.2177 12.0723 11.2075 12.0553C11.1984 12.0394 11.178 12.0337 11.1621 12.0439C11.1462 12.053 11.1417 12.0735 11.1508 12.0893C11.153 12.0939 11.3868 12.4967 11.3868 12.71C11.3868 12.9063 11.2268 12.963 11.22 12.9653C11.2052 12.9699 11.1961 12.9846 11.1984 13.0005C11.1984 13.0028 11.22 13.1968 11.1723 13.3318C11.1349 13.4339 10.9499 13.4873 10.8818 13.4986C10.8637 13.502 10.8523 13.5191 10.8546 13.5361C10.8546 13.5383 10.8898 13.7641 10.7377 13.9219C10.6004 14.0637 10.5392 14.0376 10.5392 14.0376C10.5312 14.0319 10.5221 14.0308 10.5131 14.0319C10.504 14.0342 10.496 14.0387 10.4915 14.0467C10.4892 14.0501 10.3156 14.3372 10.142 14.395C9.96728 14.454 9.40333 14.4563 9.1208 14.3984C8.86549 14.3462 8.82124 14.1613 8.81897 14.1545C8.81557 14.1386 8.80195 14.1295 8.78493 14.1284C8.71345 14.1329 8.51261 14.125 8.44566 14.0376C8.35715 13.9207 8.27205 13.7573 8.27091 13.7562C8.26864 13.7517 8.26524 13.7483 8.26183 13.7449C8.16992 13.6745 8.01788 13.5383 8.00313 13.4669C7.99745 13.4396 7.99859 13.3931 8.00086 13.3398C8.00539 13.1991 8.0122 12.9869 7.89533 12.8121C7.6491 12.4411 7.97703 12.1858 7.99065 12.1756C8.0054 12.1642 8.00767 12.1438 7.99745 12.129C7.98611 12.1143 7.96568 12.112 7.95206 12.1222C7.94866 12.1256 7.5606 12.4252 7.84087 12.8484C7.94526 13.0062 7.93959 13.1979 7.93505 13.3375C7.93278 13.3976 7.93164 13.4453 7.93958 13.4805C7.96341 13.5917 8.1722 13.7573 8.21759 13.7925C8.23461 13.8254 8.31176 13.9684 8.3946 14.0773C8.47856 14.1885 8.68848 14.1976 8.76337 14.1942C8.78607 14.2577 8.86663 14.4132 9.10718 14.462C9.24334 14.4903 9.46007 14.5051 9.66658 14.5051C9.8731 14.5051 10.0626 14.4903 10.1636 14.4563C10.3315 14.3996 10.4881 14.1738 10.5346 14.1011C10.5777 14.108 10.6606 14.0943 10.7854 13.9661C10.9272 13.8197 10.9295 13.6302 10.9238 13.5554C10.9987 13.5383 11.1882 13.4827 11.2347 13.3523C11.2778 13.232 11.271 13.0754 11.2665 13.0152C11.3221 12.988 11.4537 12.9018 11.4537 12.7077L11.4526 12.7089Z" fill="white"/>
<path d="M8.69531 11.7692C8.69531 11.8077 8.71574 11.8384 8.7407 11.8384C8.76567 11.8384 8.78609 11.8077 8.78609 11.7692C8.78609 11.7306 8.76567 11.7 8.7407 11.7C8.71574 11.7 8.69531 11.7306 8.69531 11.7692Z" fill="white"/>
<path d="M9.89844 11.7477C9.89844 11.7851 9.91886 11.8169 9.94382 11.8169C9.96878 11.8169 9.98921 11.7863 9.98921 11.7477C9.98921 11.7091 9.96878 11.6785 9.94382 11.6785C9.91886 11.6785 9.89844 11.7091 9.89844 11.7477Z" fill="white"/>
<path d="M11.1843 12.1039C11.2025 12.1005 11.2138 12.0835 11.2104 12.0654C11.207 12.0472 11.19 12.0347 11.1718 12.0393C11.1639 12.0404 10.9812 12.0767 10.8881 12.1947C10.8348 12.2628 10.8189 12.3195 10.8155 12.3581C10.7599 12.3513 10.6589 12.3536 10.5489 12.4285C10.4955 12.4648 10.4524 12.5181 10.4263 12.5556C10.3741 12.4784 10.2629 12.3286 10.1665 12.3093C10.0655 12.2889 9.92026 12.2866 9.88395 12.2855C9.84877 12.2662 9.69672 12.1845 9.61276 12.1618C9.50496 12.1323 9.23604 12.1164 9.09647 12.2526L8.96371 12.3819C8.95236 12.3933 8.93762 12.4001 8.9206 12.4001C8.83096 12.4046 8.66416 12.4183 8.56544 12.458C8.47807 12.4931 8.35665 12.5941 8.28289 12.6599C8.2863 12.6111 8.28517 12.5499 8.27155 12.4988C8.20687 12.2571 7.99468 12.1232 7.9856 12.1176C7.96972 12.1085 7.95043 12.113 7.94022 12.1278C7.93114 12.1437 7.93568 12.1629 7.95043 12.1732C7.9527 12.1743 8.15014 12.2991 8.20687 12.5147C8.2307 12.6032 8.20687 12.736 8.20687 12.7371C8.2046 12.7507 8.21141 12.7655 8.22389 12.7723C8.22843 12.7745 8.23411 12.7768 8.23978 12.7768C8.24772 12.7768 8.2568 12.7734 8.26247 12.7677C8.26474 12.7655 8.47126 12.568 8.5904 12.5192C8.68344 12.4818 8.85478 12.4693 8.924 12.4659C8.95577 12.4636 8.98641 12.4512 9.0091 12.4285L9.14186 12.2991C9.25986 12.1834 9.50269 12.1993 9.59573 12.2242C9.68084 12.2469 9.85671 12.3445 9.85898 12.3456C9.86352 12.3479 9.8692 12.3502 9.87487 12.3502C9.876 12.3502 10.0451 12.3502 10.1529 12.3729C10.2244 12.3876 10.3412 12.5408 10.398 12.6327C10.4036 12.6429 10.4138 12.6497 10.4263 12.6486C10.4377 12.6486 10.449 12.6418 10.4547 12.6316C10.4547 12.6316 10.5092 12.534 10.5852 12.4818C10.7202 12.3899 10.8348 12.4262 10.8394 12.4285C10.8507 12.4319 10.8632 12.4285 10.8723 12.4217C10.8813 12.4137 10.8847 12.4001 10.8813 12.3888C10.8813 12.3865 10.8666 12.3263 10.9392 12.2344C11.0164 12.1368 11.182 12.1028 11.1832 12.1028L11.1843 12.1039Z" fill="#343434"/>
<path d="M9.44111 12.3175C9.39118 12.3424 9.34466 12.3753 9.30381 12.4139C9.29019 12.4264 9.27658 12.44 9.2641 12.4536C9.24027 12.4786 9.21758 12.5024 9.19148 12.5206C9.11886 12.5728 9.02014 12.5852 8.93391 12.5966C8.91575 12.5989 8.90327 12.6159 8.90554 12.6329C8.90781 12.6499 8.92142 12.6613 8.93844 12.6613C8.93958 12.6613 8.94071 12.6613 8.94298 12.6613C9.03262 12.6499 9.14382 12.6352 9.2312 12.5728C9.26183 12.5501 9.28793 12.524 9.31289 12.4979C9.32537 12.4854 9.33786 12.4718 9.35034 12.4604C9.38665 12.4264 9.4275 12.3969 9.47289 12.3753C9.48877 12.3674 9.49558 12.347 9.48764 12.3311C9.47969 12.3152 9.4604 12.3084 9.44338 12.3163L9.44111 12.3175Z" fill="white"/>
<path d="M9.62727 12.3764C9.60571 12.3559 9.57848 12.331 9.54103 12.3298H9.53876C9.52174 12.3298 9.50699 12.3435 9.50586 12.3605C9.50586 12.3786 9.51834 12.3945 9.5365 12.3956C9.55011 12.3956 9.566 12.4115 9.58302 12.4263C9.69989 12.5352 9.93364 12.6158 10.1141 12.6487C10.1163 12.6487 10.1175 12.6487 10.1197 12.6487C10.1356 12.6487 10.1492 12.6373 10.1515 12.6215C10.1549 12.6033 10.1424 12.5863 10.1254 12.5829C9.95407 12.5522 9.73393 12.4773 9.62614 12.3764H9.62727Z" fill="white"/>
<path d="M10.2323 14.3893C10.1812 14.4109 9.79314 14.4449 9.56166 14.4619C9.32905 14.4789 8.96028 14.3723 8.96028 14.3723L8.95801 14.471C8.95801 14.471 9.31884 14.5992 9.79087 14.5992C9.99852 14.5992 10.1177 14.5947 10.3162 14.5266C10.5137 14.4574 10.7043 14.791 10.7043 14.791L10.6305 14.0466L10.5193 14.0625C10.5193 14.0625 10.2856 14.3677 10.2334 14.3893H10.2323Z" fill="#343434"/>
<path d="M11.6112 10.1343L11.7236 10.2999L11.4297 10.595L11.4535 10.6472L11.8847 10.3158L11.8223 10.1456L12.0776 9.91528L11.6112 10.1343Z" fill="white"/>
<path d="M5.2298 4L3.39387 6.52469L4.1144 6.59391L0 13.6517L5.41929 8.66586L4.5104 8.59778L6.70831 6.56554L5.66779 6.36584L7.8725 4.13276L5.2298 4Z" fill="white"/>
<path d="M4.31037 7.85345C4.28427 7.7536 4.20371 7.6946 4.09818 7.66509C4.01649 7.64353 3.43212 7.54368 3.31638 7.54368C3.20064 7.54368 2.98391 7.52666 2.89881 7.60949C2.85569 7.65147 2.87385 7.75132 2.86137 7.75132C2.84888 7.75132 2.73655 7.79899 2.69116 7.85005C2.64577 7.90111 2.66847 7.99301 2.66847 7.99301C2.66847 7.99301 2.5618 7.97146 2.44606 8.09741C2.35983 8.19046 2.38593 8.33797 2.38593 8.33797C2.38593 8.33797 2.32352 8.3425 2.24636 8.38562C2.09885 8.46845 2.07956 8.68745 2.05687 8.83042C2.03531 8.97339 1.99219 10.2306 1.99219 10.2306L2.77854 8.88148C2.77854 8.88148 3.77706 8.82248 3.88712 8.74532C3.99719 8.66816 3.95975 8.5649 3.95975 8.5649C3.95975 8.5649 4.09591 8.54675 4.12881 8.45711C4.15718 8.38108 4.13789 8.31073 4.13789 8.31073C4.13789 8.31073 4.2264 8.31186 4.26271 8.19839C4.29108 8.10989 4.24228 8.0611 4.24228 8.0611C4.24228 8.0611 4.35122 8.01685 4.30923 7.85345H4.31037Z" fill="white"/>
<path d="M2.8439 7.7319C2.8439 7.75005 2.85639 7.76594 2.87454 7.76707C2.88475 7.76707 3.88442 7.82608 4.1193 7.99515C4.12498 7.99968 4.13178 8.00082 4.13859 8.00082C4.1488 8.00082 4.15901 7.99628 4.16582 7.9872C4.17603 7.97245 4.17263 7.95203 4.15788 7.94182C3.90711 7.7614 2.91993 7.70466 2.87795 7.70239C2.85979 7.70239 2.84391 7.71488 2.84277 7.73303L2.8439 7.7319Z" fill="#343434"/>
<path d="M3.69035 8.10876C3.47703 8.07018 2.69182 7.97259 2.68501 7.97146C2.66572 7.96919 2.65097 7.98167 2.6487 7.99982C2.64643 8.01798 2.65892 8.03387 2.67707 8.03614C2.68501 8.03614 3.46795 8.13486 3.67901 8.17344C3.88779 8.21088 4.09544 8.29144 4.09771 8.29258C4.10111 8.29371 4.10565 8.29485 4.11019 8.29485C4.1238 8.29485 4.13515 8.28691 4.14083 8.27443C4.14763 8.2574 4.13969 8.23812 4.12267 8.23244C4.11359 8.22904 3.90821 8.14847 3.69149 8.10989L3.69035 8.10876Z" fill="#343434"/>
<path d="M2.39658 8.31395C2.37956 8.31168 2.36253 8.32643 2.36139 8.34346C2.36026 8.36161 2.37388 8.3775 2.3909 8.37863C2.41813 8.3809 3.04448 8.43196 3.16817 8.43537C3.34404 8.44104 3.80472 8.48075 3.90231 8.54316C3.90798 8.54657 3.91366 8.54883 3.91933 8.54883C3.93068 8.54883 3.94089 8.54316 3.94656 8.53408C3.95678 8.51933 3.95223 8.4989 3.93635 8.48869C3.79565 8.39905 3.17497 8.37069 3.1693 8.37069C3.04675 8.36615 2.40111 8.31395 2.3943 8.31395H2.39658Z" fill="#343434"/>
<path d="M2.54245 8.86669C2.52429 8.86896 2.51067 8.88485 2.51294 8.903C2.51408 8.92002 2.52883 8.93251 2.54585 8.93251C2.54585 8.93251 2.54812 8.93251 2.54925 8.93251L3.79401 8.80996C3.81216 8.80769 3.82578 8.7918 3.82351 8.77365C3.82124 8.75549 3.80422 8.74187 3.7872 8.74414L2.54245 8.86669Z" fill="#343434"/>
<path d="M2.75159 8.85972L1.96752 10.1692C1.95844 10.185 1.96298 10.2055 1.97886 10.2145C1.98454 10.2179 1.99021 10.2191 1.99589 10.2191C2.00723 10.2191 2.01744 10.2134 2.02425 10.2032L2.80832 8.89376C2.8174 8.87788 2.81286 8.85745 2.79698 8.84838C2.78109 8.8393 2.76066 8.84384 2.75159 8.85972Z" fill="#343434"/>
<path d="M2.71944 8.85632L2.48342 9.08666C2.47094 9.09914 2.46981 9.11957 2.48342 9.13318C2.49023 9.13999 2.49818 9.14339 2.50726 9.14339C2.51633 9.14339 2.52428 9.13999 2.52995 9.13431L2.76596 8.90397C2.77844 8.89149 2.77958 8.87106 2.76596 8.85745C2.75348 8.84497 2.73306 8.84383 2.71944 8.85745V8.85632Z" fill="#343434"/>
<path d="M1.30813 12.4909C1.29678 12.4909 1.2843 12.4863 1.27635 12.4772C1.26047 12.4602 1.26274 12.433 1.27976 12.4171L3.29611 10.6152C3.31313 10.5993 3.34036 10.6016 3.35625 10.6186C3.37213 10.6356 3.36987 10.6629 3.35285 10.6788L1.33649 12.4807C1.32855 12.4875 1.31834 12.492 1.30813 12.492V12.4909Z" fill="#343434"/>
<path d="M2.78129 8.92336C2.7586 8.92336 2.74044 8.90635 2.73931 8.88365C2.73817 8.85982 2.75633 8.84053 2.77903 8.83826C3.18865 8.81443 3.79684 8.7577 3.86606 8.71004C3.94549 8.65444 3.92506 8.58523 3.92279 8.57842C3.91825 8.56594 3.92053 8.55346 3.92733 8.54211C3.93414 8.5319 3.94548 8.52396 3.95797 8.52169C3.9886 8.51715 4.07371 8.49445 4.093 8.44112C4.11569 8.37985 4.10094 8.32198 4.10094 8.32084C4.09753 8.30836 4.10094 8.29361 4.10888 8.2834C4.11683 8.27318 4.1293 8.26638 4.14179 8.26638C4.14179 8.26638 4.19966 8.26298 4.22576 8.18355C4.24505 8.12228 4.21668 8.08937 4.21441 8.08823C4.20533 8.07802 4.2008 8.06327 4.2042 8.04965C4.2076 8.03603 4.21668 8.02469 4.22916 8.01902C4.23597 8.01561 4.30178 7.98271 4.27001 7.86129C4.25072 7.78414 4.18945 7.7308 4.08846 7.70357C4.06576 7.6979 4.05215 7.67407 4.05896 7.65138C4.06463 7.62868 4.08846 7.61507 4.11115 7.62188C4.24164 7.65705 4.32561 7.73307 4.35284 7.83973C4.38348 7.95774 4.3449 8.0315 4.30292 8.07008C4.31767 8.10412 4.32447 8.15178 4.30632 8.20851C4.27909 8.29248 4.22803 8.32651 4.18945 8.34013C4.19172 8.37304 4.19058 8.41956 4.17242 8.46835C4.14406 8.54438 4.06236 8.57956 4.0113 8.59431C4.01357 8.64764 3.99428 8.72139 3.91485 8.77699C3.80138 8.85755 2.95377 8.91089 2.7847 8.9211H2.78243L2.78129 8.92336Z" fill="#343434"/>
</svg>
