<svg width="206" height="352" viewBox="0 0 206 352" fill="none" xmlns="http://www.w3.org/2000/svg">
<path d="M151.8 211.98C154.15 210.84 154.53 211.22 154.53 211.22C154.53 211.22 151.35 193.48 150.89 186.54C150.44 179.61 145.66 146.61 145.66 146.61C145.66 146.61 139.82 136.38 139.21 135.82C138.6 135.26 117.07 114.3 117.07 114.3L110.99 152.52L119.19 274.86C119.19 274.86 129.1 280.22 132.33 280.87C135.57 281.52 137.16 278.02 138.6 276.05C140.04 274.08 143.76 274.15 143.76 274.15C143.76 274.15 143.68 273.01 143.68 270.81C143.68 268.61 141.71 263.61 141.63 260.65C141.55 257.69 145.12 256.93 146.79 256.71C148.46 256.48 147.55 255.8 147.4 253.75C147.25 251.7 144.81 249.35 144.81 249.35C144.81 249.35 145.2 243.74 144.9 241.46C144.6 239.19 145.13 238.5 145.73 237.67C146.34 236.84 149.22 237.44 150.05 236.99C150.88 236.54 151.11 235.32 150.54 233.65C149.97 231.98 148.69 231.6 147.32 229.63C145.96 227.66 146.71 226.9 147.32 225.61C147.93 224.32 151.26 224.09 152.17 223.26C153.08 222.43 152.4 221.9 151.56 220.3C150.72 218.71 148.76 216.51 148.61 214.99C148.46 213.47 149.44 213.09 151.79 211.96L151.8 211.98Z" fill="#343434"/>
<path d="M128.77 162.8C127.77 158.33 122.11 123.62 122.05 123.27C122.02 123.11 121.88 123.01 121.72 123.03C121.56 123.06 121.46 123.21 121.48 123.36C121.54 123.71 127.2 158.44 128.2 162.93C128.73 165.29 130.1 175.76 131.42 185.88C132.64 195.19 133.79 203.99 134.27 206.43C135.27 211.49 143.69 245.78 143.78 246.13C143.81 246.26 143.93 246.35 144.06 246.35C144.08 246.35 144.11 246.35 144.13 246.35C144.28 246.31 144.38 246.15 144.34 246C144.25 245.65 135.84 211.37 134.84 206.32C134.36 203.9 133.21 195.11 132 185.81C130.68 175.68 129.31 165.2 128.77 162.81V162.8Z" fill="white"/>
<path d="M143 160.73C142.84 160.73 142.71 160.86 142.71 161.02C142.71 161.2 142.57 179.35 143.77 188.67C144.97 197.97 147.54 213.25 147.56 213.4C147.58 213.54 147.71 213.64 147.84 213.64C147.86 213.64 147.87 213.64 147.89 213.64C148.05 213.61 148.15 213.46 148.13 213.31C148.11 213.16 145.54 197.89 144.34 188.6C143.14 179.33 143.28 161.21 143.28 161.03C143.28 160.87 143.15 160.74 142.99 160.74L143 160.73Z" fill="white"/>
<path d="M134.209 126.35C134.079 126.37 133.919 126.47 133.909 126.63C133.909 126.94 133.309 157.85 133.909 165.85C133.919 166 134.049 166.12 134.199 166.12C134.199 166.12 134.209 166.12 134.219 166.12C134.379 166.11 134.499 165.97 134.489 165.81C133.889 157.84 134.489 126.96 134.489 126.65C134.489 126.49 134.369 126.36 134.209 126.35Z" fill="white"/>
<path d="M139.189 181.9C139.029 181.9 138.91 182.04 138.92 182.2C138.93 182.4 140 202.52 141.35 208.92C142.71 215.37 145.139 227.05 145.139 227.05L145.71 226.93C145.71 226.93 143.29 215.25 141.92 208.8C140.58 202.45 139.509 182.37 139.499 182.17C139.489 182.01 139.359 181.91 139.199 181.9H139.189Z" fill="white"/>
<path d="M123.27 163.66C122.07 154.6 116.49 122.57 116.44 122.24C116.41 122.08 116.27 121.97 116.11 122C115.95 122.03 115.85 122.18 115.87 122.33C115.93 122.65 121.5 154.68 122.7 163.72C123.9 172.78 129.62 203.07 129.68 203.37L136.2 242.36L140.14 260.86C140.17 261 140.29 261.09 140.42 261.09C140.44 261.09 140.46 261.09 140.48 261.09C140.64 261.06 140.74 260.9 140.7 260.75L136.76 242.26L130.24 203.28C130.18 202.98 124.47 172.7 123.27 163.66Z" fill="white"/>
<path d="M186.769 69.9313L146.764 350.675L152.357 351.472L192.363 70.7284L186.769 69.9313Z" fill="#343434"/>
<path d="M186.27 67.4623L185.874 70.2442C185.825 70.5887 186.064 70.9077 186.409 70.9568L192.448 71.8173C192.792 71.8664 193.111 71.627 193.16 71.2825L193.557 68.5006C193.606 68.1562 193.366 67.8371 193.022 67.788L186.983 66.9275C186.639 66.8784 186.32 67.1179 186.27 67.4623Z" fill="#343434"/>
<path d="M192.741 68.4599C192.741 68.4599 193.291 65.6999 193.471 65.4999C193.651 65.2999 195.031 63.6599 195.031 63.6599C195.031 63.6599 195.771 63.8399 197.251 65.2799C198.731 66.7199 200.531 70.0399 200.531 70.0399C200.531 70.0399 202.691 67.9599 203.931 65.1599C207.321 57.4999 205.781 51.1399 204.741 49.0599C203.361 46.2799 200.571 46.4499 199.581 47.3099C198.601 48.1499 197.201 50.57 196.361 49.99C195.521 49.41 194.231 48.7699 194.231 48.7699L190.241 48.05L186.951 48.3499C186.951 48.3499 186.951 46.95 185.831 45.43C183.091 41.75 179.031 45.8399 177.501 49.0699C175.971 52.2999 176.291 56.4799 176.551 58.9699C176.811 61.4599 179.371 67.61 179.371 67.61C179.371 67.61 181.261 65.2699 182.501 64.7199C184.001 64.0599 185.901 62.6999 185.901 62.6999L187.171 64.7499L187.101 67.67L192.731 68.4699L192.741 68.4599Z" fill="#343434"/>
<path d="M189.41 45.5199C189.08 47.8099 190.3 49.8799 192.12 50.1399C193.94 50.3999 195.69 48.7499 196.01 46.4599C196.34 44.1699 195.12 42.0999 193.3 41.8399C191.48 41.5799 189.73 43.2299 189.41 45.5199Z" fill="#343434"/>
<path d="M181.63 47.96C180.22 49.1 178.61 51.63 178.54 51.73C178.45 51.86 178.49 52.04 178.63 52.13C178.68 52.16 178.73 52.18 178.78 52.18C178.87 52.18 178.97 52.13 179.02 52.05C179.04 52.03 180.65 49.5 181.99 48.42C182.88 47.7 183.67 47.42 184.34 47.6C185.29 47.85 185.73 48.94 185.73 48.95C185.79 49.1 185.95 49.17 186.1 49.11C186.25 49.05 186.32 48.89 186.27 48.74C186.25 48.68 185.73 47.37 184.49 47.04C183.63 46.81 182.66 47.12 181.62 47.97L181.63 47.96Z" fill="url(#paint0_linear_372_126)"/>
<path d="M182.1 50.9302C180.82 51.9402 178.04 55.9001 177.92 56.0701C177.83 56.2001 177.86 56.3801 177.99 56.4701C178.04 56.5101 178.1 56.5201 178.16 56.5201C178.25 56.5201 178.34 56.4801 178.4 56.4001C178.43 56.3601 181.25 52.3401 182.46 51.3801C183.83 50.2901 185.25 51.1601 185.31 51.2001C185.45 51.2901 185.62 51.2502 185.71 51.1102C185.79 50.9702 185.76 50.8001 185.62 50.7101C185.6 50.7001 183.8 49.5802 182.1 50.9302Z" fill="url(#paint1_linear_372_126)"/>
<path d="M181.689 56.1801C180.379 58.3301 179.57 62.0901 179.54 62.2401C179.51 62.4001 179.609 62.5501 179.759 62.5801C179.779 62.5801 179.799 62.5801 179.819 62.5801C179.949 62.5801 180.07 62.4901 180.1 62.3501C180.1 62.3101 180.92 58.5301 182.18 56.4701C183.82 53.7801 184.849 53.7401 184.899 53.7401C185.069 53.7601 185.189 53.6501 185.219 53.4901C185.239 53.3301 185.129 53.1801 184.969 53.1601C184.829 53.1401 183.58 53.0601 181.68 56.1601L181.689 56.1801Z" fill="url(#paint2_linear_372_126)"/>
<path d="M200.21 48.72C200.21 48.72 200.18 48.72 200.16 48.72C198.91 48.72 198.07 49.81 198.03 49.85C197.93 49.98 197.96 50.1599 198.08 50.2599C198.21 50.3499 198.39 50.33 198.49 50.21C198.49 50.21 199.2 49.3 200.16 49.3C200.17 49.3 200.19 49.3 200.2 49.3C200.9 49.32 201.58 49.8 202.23 50.74C203.21 52.15 204.06 55.0299 204.06 55.0599C204.1 55.1899 204.21 55.27 204.34 55.27C204.37 55.27 204.39 55.2699 204.42 55.2599C204.57 55.2099 204.66 55.05 204.62 54.9C204.58 54.78 203.74 51.9 202.7 50.41C201.93 49.31 201.09 48.74 200.2 48.72H200.21Z" fill="url(#paint3_linear_372_126)"/>
<path d="M198.11 51.9399C197.96 51.9899 197.87 52.1399 197.91 52.2999C197.96 52.4499 198.11 52.5499 198.27 52.4999C198.34 52.4799 199.94 52.0399 200.95 53.4699C201.84 54.7299 203.43 59.3799 203.45 59.4299C203.49 59.5499 203.6 59.6299 203.72 59.6299C203.75 59.6299 203.78 59.6299 203.81 59.6099C203.96 59.5599 204.04 59.3899 203.99 59.2399C203.92 59.0499 202.36 54.4699 201.42 53.1299C200.17 51.3699 198.12 51.9399 198.1 51.9399H198.11Z" fill="url(#paint4_linear_372_126)"/>
<path d="M200.42 64.9801C200.42 64.9801 200.43 64.9801 200.44 64.9801C200.59 64.9801 200.72 64.86 200.73 64.71C200.74 64.55 201.02 60.72 200.36 58.29C199.41 54.78 198.18 54.5101 198.04 54.4901C197.89 54.4601 197.75 54.57 197.72 54.72C197.69 54.87 197.79 55.02 197.94 55.06C197.95 55.06 198.95 55.33 199.79 58.44C200.42 60.78 200.14 64.6301 200.14 64.6701C200.13 64.8301 200.25 64.9701 200.41 64.9801H200.42Z" fill="url(#paint5_linear_372_126)"/>
<path d="M112.8 144C116.33 142.82 119.04 121.21 119.78 122.28C122.96 126.9 126.73 134.68 128.57 137.45C130.16 139.85 136.08 148.23 136.08 148.23C139.87 152.6 145.73 157.27 149.14 159.52C152.75 161.9 163.6 166.83 163.6 166.83C163.6 166.83 164.65 170.47 165.44 171.38C166.77 172.92 168.08 174.31 169.31 175.22C170.54 176.13 173.31 178.25 173.31 178.25L174.28 153.4C174.28 153.4 171.87 153.7 170.37 154.11C168.86 154.51 167.64 156.79 167.64 156.79C167.64 156.79 155.67 143.66 153.07 141.92C146.27 137.36 148.43 139.14 146.78 138.4C146.57 136.8 145.73 132.99 143.89 128.78C140.72 121.52 136.72 119.99 136.72 119.99C136.72 119.99 133.63 110.47 131.82 107.28C127.9 100.39 123.04 98.9399 123.04 98.9399L110.49 98.7L111.63 108.5C111.63 108.5 108.05 145.58 112.82 143.99L112.8 144Z" fill="url(#paint6_linear_372_126)"/>
<path d="M148.061 144.49C147.921 144.57 147.871 144.74 147.941 144.88C147.951 144.9 149.031 146.92 149.411 148.02C149.781 149.1 149.781 150.75 149.781 150.77C149.781 150.93 149.911 151.06 150.071 151.06C150.231 151.06 150.361 150.93 150.361 150.77C150.361 150.7 150.361 149 149.961 147.83C149.571 146.68 148.501 144.69 148.461 144.6C148.381 144.46 148.211 144.41 148.071 144.48L148.061 144.49Z" fill="#343434"/>
<path d="M182.39 168.06V167.49C182.39 166.35 181.63 165.41 180.62 165.22C181.39 164.87 181.93 164.05 181.93 163.09V162.52C181.93 161.24 180.97 160.21 179.78 160.21H173.86C172.67 160.21 171.71 161.25 171.71 162.52V163.09C171.71 164.23 172.47 165.17 173.48 165.36C172.71 165.71 172.17 166.53 172.17 167.49V168.06C172.17 168.98 172.67 169.76 173.39 170.14C172.5 170.42 171.85 171.3 171.85 172.35V172.92C171.85 173.61 172.14 174.23 172.59 174.65C172.02 175.07 171.65 175.77 171.65 176.56C171.65 177.84 172.61 178.87 173.8 178.87H178.23C179.42 178.87 180.38 177.83 180.38 176.56C180.38 176.06 180.23 175.6 179.98 175.23C181.14 175.2 182.07 174.18 182.07 172.92V172.35C182.07 171.43 181.57 170.65 180.85 170.27C181.74 169.99 182.39 169.11 182.39 168.06Z" fill="url(#paint7_linear_372_126)"/>
<path d="M175.201 153.77C174.111 153.44 173.451 153.53 173.451 153.53L173.301 158.77C173.301 158.77 173.841 159.26 174.531 159.83C175.221 160.4 175.691 160.21 176.571 160.1C177.451 159.99 178.451 157.81 177.731 155.89C177.171 154.4 176.031 154.02 175.211 153.77H175.201Z" fill="url(#paint8_linear_372_126)"/>
<path d="M180.77 164.93L173.2 165C173.04 165 172.91 165.13 172.91 165.29C172.91 165.45 173.04 165.58 173.2 165.58L180.77 165.51C180.93 165.51 181.06 165.38 181.06 165.22C181.06 165.06 180.93 164.93 180.77 164.93Z" fill="#343434"/>
<path d="M173.391 169.85C173.231 169.85 173.101 169.98 173.101 170.13C173.101 170.29 173.221 170.42 173.381 170.42L180.971 170.55C181.131 170.55 181.261 170.42 181.261 170.27C181.261 170.11 181.141 169.98 180.981 169.98L173.391 169.85Z" fill="#343434"/>
<path d="M172.61 174.36C172.45 174.33 172.31 174.47 172.3 174.63C172.29 174.79 172.41 174.93 172.57 174.94L180.17 175.52C180.17 175.52 180.18 175.52 180.19 175.52C180.34 175.52 180.47 175.4 180.48 175.25C180.49 175.09 180.37 174.95 180.21 174.94L172.61 174.36Z" fill="#343434"/>
<path d="M173.501 157.26C172.781 156.93 171.991 156.79 171.221 156.87C171.061 156.89 170.951 157.03 170.961 157.19C170.981 157.35 171.101 157.47 171.281 157.45C171.951 157.38 172.631 157.5 173.261 157.79C173.321 157.82 173.391 157.85 173.411 157.89C173.431 157.93 173.441 158.02 173.451 158.1L173.571 159.11C173.591 159.26 173.711 159.37 173.861 159.37C173.871 159.37 173.881 159.37 173.891 159.37C174.051 159.35 174.161 159.21 174.141 159.05L174.021 158.03C174.011 157.9 173.991 157.74 173.901 157.6C173.801 157.42 173.641 157.33 173.491 157.27L173.501 157.26Z" fill="#343434"/>
<path d="M173.86 160.5C174.02 160.5 174.15 160.37 174.15 160.21C174.15 160.05 174.02 159.92 173.86 159.92C172.51 159.92 171.42 161.09 171.42 162.52V163.09C171.42 164.11 171.98 165.02 172.82 165.44C172.24 165.93 171.88 166.68 171.88 167.49V168.06C171.88 168.87 172.22 169.6 172.8 170.09C172.04 170.54 171.56 171.39 171.56 172.35V172.92C171.56 173.55 171.78 174.15 172.17 174.63C171.66 175.12 171.36 175.82 171.36 176.56C171.36 178 172.46 179.16 173.8 179.16C173.96 179.16 174.09 179.03 174.09 178.87C174.09 178.71 173.96 178.58 173.8 178.58C172.77 178.58 171.94 177.67 171.94 176.56C171.94 175.89 172.25 175.26 172.76 174.88C172.83 174.83 172.87 174.75 172.88 174.67C172.88 174.58 172.85 174.5 172.79 174.44C172.38 174.05 172.14 173.5 172.14 172.92V172.35C172.14 171.45 172.68 170.68 173.48 170.42C173.59 170.38 173.67 170.28 173.68 170.17C173.69 170.05 173.63 169.94 173.53 169.89C172.87 169.55 172.46 168.85 172.46 168.07V167.5C172.46 166.69 172.91 165.95 173.6 165.64C173.71 165.59 173.78 165.47 173.77 165.34C173.76 165.21 173.66 165.11 173.54 165.09C172.65 164.92 172.01 164.08 172.01 163.1V162.53C172.01 161.41 172.85 160.51 173.87 160.51L173.86 160.5Z" fill="#343434"/>
<path d="M171.18 163.97C170.77 164.31 170.13 164.73 169.38 164.76C168.69 164.78 168.09 164.5 167.7 163.98C167.6 163.85 167.42 163.83 167.29 163.93C167.16 164.03 167.14 164.21 167.24 164.34C167.73 164.98 168.49 165.35 169.29 165.35C169.33 165.35 169.36 165.35 169.4 165.35C170.12 165.32 170.87 165 171.55 164.43C171.67 164.33 171.69 164.14 171.58 164.02C171.48 163.9 171.29 163.88 171.17 163.98L171.18 163.97Z" fill="#343434"/>
<path d="M163.58 168.07C163.85 169.1 164.34 170.01 164.81 170.88C165.16 171.53 165.53 172.21 166.04 172.76C166.1 172.82 166.17 172.85 166.25 172.85C166.32 172.85 166.39 172.82 166.45 172.77C166.57 172.66 166.57 172.48 166.46 172.36C166 171.87 165.65 171.22 165.31 170.6C164.85 169.75 164.38 168.88 164.13 167.92C163.8 166.68 163.85 165.39 163.89 164.02C163.92 163.18 163.95 162.32 163.89 161.48C163.88 161.32 163.76 161.18 163.58 161.21C163.42 161.22 163.3 161.36 163.31 161.52C163.37 162.33 163.34 163.18 163.31 164C163.26 165.35 163.22 166.74 163.57 168.07H163.58Z" fill="#343434"/>
<path d="M133.88 249.47L128.9 248.38C128.9 248.38 127.48 248.48 125.56 249.44C123.64 250.4 120.79 255.76 120.79 255.76L122.3 276.5L124.15 277.43C124.15 277.43 123.24 259.5 122.83 259.15C122.42 258.8 124.36 255.96 125.16 254.45C125.97 252.93 133.88 249.48 133.88 249.48V249.47Z" fill="white"/>
<path d="M116.3 122.28L116.15 125.48L113.83 146.24C113.83 146.24 116.26 157.99 118.28 163.1C120.3 168.21 133.93 248.38 133.93 248.38C133.93 248.38 134.45 239.69 134.45 236.05C134.45 232.41 123.65 175.98 123.65 175.98C123.65 175.98 117.45 152.04 117.82 148.29C120.07 125.55 116.3 122.29 116.3 122.29V122.28Z" fill="#343434"/>
<path d="M105.34 334.11C105.53 336.63 106.83 337.8 108.35 338.61C109.87 339.42 114.04 342.88 115.25 344.9C116.46 346.92 117.46 347.08 119.08 347.9C120.7 348.71 123.48 348.5 125.79 348.47C128.15 348.44 129.91 347.56 129.91 346.35C129.91 345.14 127.79 343.11 126.98 342C126.17 340.89 122.83 338.01 121.78 335.88C120.72 333.76 118.59 327.39 117.53 323.75C116.47 320.11 118.74 314.2 119.05 311.01C119.35 307.83 122.23 288.11 122.31 284.62C122.38 281.13 120.72 254.44 120.72 254.44L119.61 255.76C119.61 255.76 113.09 258.21 109.9 260.55C106.71 262.89 99.5898 269.79 99.5898 269.79C99.5898 269.79 100.8 284.37 100.8 287.2C100.8 290.03 106.69 318.76 107.01 326.53C107.13 329.39 105.06 330.31 105.35 334.11H105.34Z" fill="url(#paint9_linear_372_126)"/>
<path d="M99.9904 280.96C99.9904 280.96 110.69 283.21 113.5 284.65C116.31 286.09 122.79 289.28 122.79 289.28L122.81 284.73C122.81 284.73 113.83 280.64 110.89 279.65C107.95 278.66 99.5703 276.4 99.5703 276.4L99.9904 280.96Z" fill="#343434"/>
<path d="M99.7805 287.98L100.361 292.3C100.361 292.3 112 282.49 114.07 280.87C117.52 278.17 122.301 275.82 122.301 275.82L121.921 270.51C121.921 270.51 114.361 276.2 109.531 279.56C106.541 281.64 99.7705 287.98 99.7705 287.98H99.7805Z" fill="#343434"/>
<path d="M103.4 307.3L104.27 311.73C104.27 311.73 110.03 305.76 113.06 303.03C116.09 300.3 121.79 296.14 121.79 296.14L122.3 291.26C122.3 291.26 118.29 293.74 113.06 298.02C110.07 300.47 103.4 307.29 103.4 307.29V307.3Z" fill="#343434"/>
<path d="M106.051 329.31C106.511 328.93 112.421 321.65 116.291 319C117.761 317.99 118.021 317.72 118.021 317.72L118.891 313.34C118.891 313.34 113.781 316.27 111.741 318.09C109.691 319.91 105.521 324 105.521 324C105.521 324 105.601 329.69 106.051 329.31Z" fill="#343434"/>
<path d="M105.481 316.68C105.481 316.68 108.261 317.71 112.431 320.06C116.601 322.41 118.571 325.52 118.571 325.52L119.251 321.27C119.251 321.27 115.541 318.42 113.161 316.98C110.771 315.54 105.141 313.54 105.141 313.54L105.471 316.68H105.481Z" fill="#343434"/>
<path d="M115.66 335.62C113.73 338.43 112.29 343.35 112.29 343.35L114.34 345.78C114.34 345.78 116.61 338.84 117.94 337.33C119.27 335.81 121.73 333.35 121.73 333.35L120.63 330.13C120.63 330.13 117.6 332.82 115.66 335.63V335.62Z" fill="#343434"/>
<path d="M113.75 336.87C111.22 337.43 107.41 338.97 107.41 338.97L109.79 340.85C109.79 340.85 113.79 339.19 116.12 338.95C118.45 338.71 119.46 338.38 121.73 338.61C124 338.84 125.61 339.32 125.61 339.32L123.63 336.72L123.06 336.11C123.06 336.11 118.81 335.76 113.76 336.87H113.75Z" fill="#343434"/>
<path d="M101.81 299.06C101.81 299.06 108.05 300.73 111.45 302.7C114.85 304.67 119.97 309.07 119.97 309.07L120.6 304.34C120.6 304.34 115.28 299.93 112.71 298.6C107.88 296.1 101.29 294.96 101.29 294.96L101.81 299.05V299.06Z" fill="#343434"/>
<path d="M120.3 348.34C119.29 348.27 118.84 347.88 117.55 346.67C117.32 346.45 117.07 346.22 116.8 345.97C115.11 344.43 106.49 335.66 106.4 335.57C105.73 334.89 104.63 334.88 103.94 335.55C103.26 336.22 103.25 337.32 103.92 338.01C104.28 338.37 112.69 346.93 114.45 348.54C114.7 348.77 114.94 348.99 115.16 349.2C116.55 350.51 117.76 351.65 120.05 351.81C120.26 351.83 120.53 351.83 120.83 351.83C123.46 351.83 129.04 351.32 129.73 351.26C130.68 351.17 131.39 350.33 131.3 349.37C131.21 348.42 130.35 347.72 129.41 347.8C127.38 347.99 121.8 348.44 120.29 348.34H120.3Z" fill="#343434"/>
<path d="M73.2398 307.98C73.3898 307.6 78.0897 293.42 78.7797 290.08C79.4597 286.74 82.1897 270.38 82.1897 270.38C82.1897 270.38 80.2198 268.17 78.9298 267.26C77.6398 266.35 59.8997 258.16 59.8997 258.16C59.8997 258.16 59.1397 324.51 58.6897 325.88C58.2397 327.24 58.0797 330.43 55.5097 332.55C52.9397 334.67 46.2598 341.19 45.7998 341.95C45.3498 342.71 44.1297 344.98 45.0397 346.2C45.9497 347.41 49.4497 350.45 54.3797 350.04C56.8897 349.83 60.4297 345.74 62.0197 344.53C63.6097 343.32 67.0997 342.71 68.6897 341.04C70.2797 339.37 70.3297 336.82 70.2597 335.07C70.1797 333.33 68.8998 332.06 69.0498 329.41C69.1998 326.76 70.0597 317.08 71.6497 312.53C73.2397 307.98 73.0898 308.36 73.2398 307.98Z" fill="url(#paint10_linear_372_126)"/>
<path d="M58.3398 279.42C58.3398 279.42 68.5698 283.97 71.0798 286C73.5898 288.03 79.3898 292.56 79.3898 292.56L80.3898 288.12C80.3898 288.12 72.2799 282.14 69.5399 280.53C66.7999 278.92 58.8998 274.86 58.8998 274.86L58.3398 279.41V279.42Z" fill="#343434"/>
<path d="M58.0195 288.58C58.0195 288.58 70.5695 281.87 72.7695 280.79C76.4295 279 81.1395 277.86 81.1395 277.86L82.2296 272.65C82.2296 272.65 74.2595 276.36 69.2495 278.46C66.1395 279.76 58.6796 284.28 58.6796 284.28L58.0295 288.58H58.0195Z" fill="#343434"/>
<path d="M57.6904 308.05C57.6904 308.05 64.3705 303.57 67.8005 301.62C71.2205 299.66 77.4105 296.93 77.4105 296.93L79.0604 292.31C79.0604 292.31 74.8204 293.8 69.0204 296.76C65.7004 298.46 57.9905 303.55 57.9905 303.55L57.7004 308.05H57.6904Z" fill="#343434"/>
<path d="M58.2299 326.12C58.7099 325.78 65.2099 319.01 69.2799 316.69C70.8199 315.81 71.1099 315.56 71.1099 315.56L72.3399 311.26C72.3399 311.26 67.0099 313.76 64.8199 315.4C62.6299 317.04 58.1299 320.78 58.1299 320.78C58.1299 320.78 57.7399 326.45 58.2199 326.11L58.2299 326.12Z" fill="#343434"/>
<path d="M58.5099 313.7L58.3799 316.85C58.3799 316.85 60.7699 318.22 64.2299 321.08C67.6999 323.94 69.0599 327.27 69.0599 327.27L70.2699 323.15C70.2699 323.15 67.2899 319.86 65.3199 318.13C63.3499 316.4 58.5099 313.7 58.5099 313.7Z" fill="#343434"/>
<path d="M58.4604 299.06C58.4604 299.06 64.1204 300.73 67.2104 302.7C70.3004 304.67 74.9404 309.07 74.9404 309.07L75.5104 304.34C75.5104 304.34 70.6805 299.93 68.3505 298.6C63.9705 296.1 57.9805 294.96 57.9805 294.96L58.4504 299.05L58.4604 299.06Z" fill="#343434"/>
<path d="M51.8098 335.02L49.7998 337.37C49.7998 337.37 55.1298 337.04 58.0098 338.11C61.6198 339.46 66.8398 342.58 66.8398 342.58L69.1298 340.89C69.1298 340.89 65.3098 337.05 58.7398 335.26C55.8598 334.48 51.7998 335.01 51.7998 335.01L51.8098 335.02Z" fill="#343434"/>
<path d="M54.9102 332.33L52.9902 334.14C52.9902 334.14 54.2802 334.27 56.3002 336.79C58.0702 339 58.2702 347.89 58.2702 347.89L60.9602 345.44C60.9602 345.44 60.7302 340.34 59.7402 337.95C58.0102 333.78 54.9102 332.33 54.9102 332.33Z" fill="#343434"/>
<path d="M69.88 339.64C69.14 340.07 68.04 340.76 66.75 341.58C63.16 343.84 57.16 347.62 54.76 348.17C50.33 349.19 44.61 345.22 44.55 345.18C43.77 344.63 42.68 344.81 42.13 345.6C41.58 346.38 41.76 347.46 42.55 348.02C42.8 348.2 47.97 351.8 53.25 351.8C54.02 351.8 54.79 351.72 55.54 351.55C58.29 350.92 63.28 347.86 68.6 344.51C69.85 343.73 70.91 343.06 71.63 342.64C72.46 342.16 72.74 341.09 72.26 340.27C71.78 339.44 70.71 339.16 69.89 339.64H69.88Z" fill="#343434"/>
<path d="M57.6897 168.98C57.6897 168.98 72.5197 169.21 82.6597 157.38C92.7997 145.55 102.91 123.56 103.77 119.62C104.63 115.68 101.6 99.25 101.6 99.25C101.6 99.25 96.1897 97.91 95.5097 97.78C94.3197 97.55 93.6098 87.63 93.6098 87.63L78.9697 90.6201V93.81C78.9697 95.2 77.5497 97.46 76.2697 98C75.6497 98.26 72.9597 99.33 71.0697 99.58C70.2397 99.69 69.4097 99.58 68.8497 98.96C67.3997 97.39 63.9797 94.44 57.9997 93.45C54.5597 92.88 50.1397 93.37 47.0297 93.51C45.8097 93.56 44.6198 93.17 43.6798 92.39C42.0498 91.01 38.9997 88.75 36.5297 88.22C31.9797 87.24 24.9497 87.26 24.9497 87.26C24.9497 87.26 27.1197 83.7801 28.4097 72.4901C28.8797 68.3501 29.4697 54.52 29.4697 54.52L15.9497 61.84C15.9497 61.84 11.3497 73.39 9.82973 80.88C8.30973 88.37 8.65972 93.05 9.44972 96.42C10.1997 99.63 16.9798 104.84 21.2998 107.04C25.6198 109.24 37.8997 113.91 43.5097 115.84C46.7497 116.95 54.2597 119.63 54.2597 119.63C54.2597 119.63 58.6297 134.16 59.2597 137.15C60.3697 142.38 60.7297 150.72 60.0897 158.53C59.8997 160.92 57.6597 168.99 57.6597 168.99L57.6897 168.98Z" fill="url(#paint11_linear_372_126)"/>
<path d="M68.3102 131.66C66.4602 130.5 65.6303 127.78 65.1803 126.32C64.9503 125.56 64.8602 125.29 64.7002 125.16C64.5202 125.02 64.0802 124.89 63.1002 124.62C61.7802 124.25 59.9702 123.74 58.9102 123.1C57.2302 122.08 55.4403 119.85 55.4203 119.83C55.3203 119.71 55.1402 119.69 55.0102 119.78C54.8902 119.88 54.8702 120.06 54.9602 120.19C55.0402 120.29 56.8302 122.52 58.6002 123.59C59.7302 124.28 61.5802 124.8 62.9402 125.18C63.5402 125.35 64.2202 125.54 64.3202 125.6C64.3802 125.69 64.5202 126.12 64.6302 126.5C65.1002 128.03 65.9702 130.88 68.0002 132.16C70.0002 133.42 72.9902 133.59 74.4702 133.59C74.9902 133.59 75.3203 133.57 75.3703 133.57C75.5303 133.56 75.6502 133.42 75.6402 133.26C75.6302 133.1 75.5202 132.96 75.3302 132.99C75.2902 132.99 70.8403 133.27 68.3003 131.67L68.3102 131.66Z" fill="#343434"/>
<path d="M85.6895 138.95V152.52C85.6895 152.68 85.8195 152.81 85.9795 152.81C86.1395 152.81 86.2695 152.68 86.2695 152.52V138.95C86.2695 138.79 86.1395 138.66 85.9795 138.66C85.8195 138.66 85.6895 138.79 85.6895 138.95Z" fill="#343434"/>
<path d="M20.63 87.9601C20.49 88.0301 20.43 88.2101 20.5 88.3501C20.55 88.4501 20.65 88.5101 20.76 88.5101C20.8 88.5101 20.85 88.5001 20.89 88.4801C23.15 87.3301 24.9001 87.5501 24.9201 87.5501C25.0701 87.5601 25.22 87.4601 25.25 87.3001C25.27 87.1401 25.16 87.0001 25 86.9701C24.92 86.9701 23.06 86.7201 20.63 87.9601Z" fill="#343434"/>
<path d="M115.74 118.81C115.71 118.86 112.22 124.2 108.39 125.02C108.3 125.04 108.22 125.1 108.18 125.19C107.9 125.84 107.84 126.72 107.77 127.64C107.61 129.75 107.43 132.14 104.83 133.1C98.4796 135.44 93.0696 133.67 93.0196 133.65C92.8696 133.6 92.7096 133.68 92.6496 133.83C92.5996 133.98 92.6796 134.15 92.8296 134.2C92.9696 134.25 94.9696 134.9 97.9596 134.9C99.9596 134.9 102.4 134.61 105.03 133.64C107.98 132.55 108.18 129.85 108.35 127.68C108.41 126.87 108.47 126.1 108.66 125.54C112.24 124.67 115.35 120.39 116.07 119.34L119.65 121.33C119.79 121.41 119.97 121.36 120.04 121.22C120.12 121.08 120.07 120.9 119.93 120.83L116.12 118.71C115.99 118.63 115.82 118.68 115.74 118.81Z" fill="#343434"/>
<path d="M114.491 146.24C114.491 146.24 109.681 163.42 102.961 177.99C99.2811 185.98 87.6411 198.34 83.2911 201.51C71.0111 210.46 55.1812 214.79 55.1812 214.79V237.75C55.1812 245.26 53.6611 260.54 53.6611 260.54C53.6611 260.54 57.5611 259.95 59.5711 260.15C63.3911 260.51 64.1211 261.41 65.3311 263.08C65.8911 263.85 66.4011 264.79 66.7911 265.58C67.2311 266.47 68.2011 266.95 69.1711 266.74C70.5911 266.44 72.7011 266.31 74.5811 267.47C76.4311 268.62 77.5611 269.91 78.1911 270.8C78.7511 271.6 79.5411 272.21 80.4711 272.51C81.2111 272.74 82.2811 273.05 83.8311 273.44C88.3811 274.6 92.3211 280.86 92.3211 280.86C92.3211 280.86 95.7111 280.11 98.3111 276.04C100.471 272.66 108.781 263.75 111.211 262.27C113.251 261.03 115.531 260.33 117.111 259.76C118.801 259.15 120.211 257.97 121.101 256.41C122.191 254.49 123.911 251.89 125.841 250.52C129.121 248.19 133.911 249.17 133.911 249.17C133.911 249.17 133.421 236 129.931 213.33C127.271 196.03 118.401 161 118.401 161L114.461 146.22L114.491 146.24Z" fill="#343434"/>
<path d="M102.911 173.78C102.751 173.81 102.651 173.96 102.681 174.12C102.731 174.35 107.241 197.4 108.441 204.29C109.641 211.18 110.691 221.46 110.701 221.56C110.721 221.71 110.841 221.82 110.991 221.82C110.991 221.82 111.011 221.82 111.021 221.82C111.181 221.8 111.291 221.66 111.281 221.5C111.271 221.4 110.221 211.1 109.021 204.19C107.821 197.29 103.301 174.24 103.261 174C103.231 173.84 103.071 173.74 102.921 173.77L102.911 173.78Z" fill="white"/>
<path d="M95.1802 231.07H95.1902C95.3502 231.07 95.4702 230.95 95.4802 230.79C95.4802 230.69 95.8302 220.34 95.5702 213.33C95.3102 206.33 93.9402 182.88 93.9302 182.64C93.9302 182.48 93.7702 182.36 93.6202 182.37C93.4602 182.38 93.3402 182.52 93.3502 182.68C93.3602 182.92 94.7302 206.36 94.9902 213.35C95.2502 220.34 94.9002 230.66 94.9002 230.77C94.9002 230.93 95.0202 231.06 95.1802 231.07Z" fill="white"/>
<path d="M105.901 166.65C105.751 166.69 105.651 166.85 105.701 167.01C105.751 167.18 110.281 183.87 111.931 190.33C113.041 194.69 117.491 215.63 117.541 215.84C117.571 215.98 117.691 216.07 117.821 216.07C117.841 216.07 117.86 216.07 117.88 216.07C118.04 216.04 118.141 215.88 118.101 215.73C118.061 215.52 113.601 194.57 112.491 190.2C110.841 183.73 106.3 167.04 106.25 166.87C106.21 166.72 106.051 166.62 105.901 166.67V166.65Z" fill="white"/>
<path d="M126.481 241.57C124.561 242.93 122.841 245.54 121.741 247.46C120.851 249.02 119.441 250.2 117.751 250.81C116.171 251.38 113.891 252.08 111.851 253.32C109.411 254.8 101.111 263.71 98.9509 267.09C96.3509 271.16 92.9609 271.91 92.9609 271.91C92.9609 271.91 89.0209 265.64 84.4709 264.49C82.9309 264.1 81.8609 263.79 81.1109 263.56C80.1809 263.27 79.3909 262.65 78.8209 261.85C78.1909 260.96 77.0609 259.66 75.2109 258.52C73.3309 257.36 71.2209 257.49 69.8009 257.79C68.8309 258 67.8509 257.52 67.4209 256.63C67.0309 255.84 66.5209 254.89 65.9609 254.13C64.7509 252.46 64.0209 251.56 60.2009 251.2C58.4409 251.03 55.2409 251.46 54.4609 251.57C54.0709 256.52 53.6709 260.56 53.6709 260.56C53.6709 260.56 57.5709 259.97 59.5809 260.17C63.4009 260.53 64.1309 261.43 65.3409 263.1C65.9009 263.87 66.4109 264.81 66.8009 265.6C67.2409 266.49 68.2109 266.97 69.1809 266.76C70.6009 266.46 72.7109 266.33 74.5909 267.49C76.4409 268.64 77.5709 269.93 78.2009 270.82C78.7609 271.62 79.5509 272.23 80.4909 272.53C81.2309 272.76 82.3009 273.07 83.8509 273.46C88.4009 274.62 92.3409 280.88 92.3409 280.88C92.3409 280.88 95.7309 280.12 98.3309 276.06C100.491 272.68 108.791 263.77 111.231 262.29C113.271 261.05 115.551 260.35 117.131 259.78C118.821 259.17 120.231 257.99 121.121 256.43C122.211 254.51 123.931 251.91 125.861 250.54C129.141 248.21 133.931 249.19 133.931 249.19C133.931 249.19 134.751 245.96 134.221 240.02C132.571 239.89 128.711 239.99 126.471 241.57H126.481Z" fill="url(#paint12_linear_372_126)"/>
<path d="M125.701 250.3C123.741 251.69 121.991 254.32 120.881 256.28C120.031 257.77 118.671 258.91 117.041 259.5C116.781 259.59 116.501 259.69 116.211 259.79C114.701 260.32 112.821 260.98 111.091 262.03C108.691 263.49 100.311 272.43 98.0907 275.9C95.9407 279.27 93.2107 280.31 92.4707 280.54C91.7707 279.47 88.1507 274.25 83.9207 273.18C82.5707 272.84 81.4507 272.52 80.5807 272.25C79.7307 271.98 78.9907 271.43 78.4407 270.65C77.8007 269.74 76.6407 268.41 74.7507 267.24C72.7907 266.03 70.6107 266.15 69.1307 266.47C68.2907 266.64 67.4507 266.23 67.0707 265.46C66.5607 264.43 66.0707 263.57 65.5907 262.91C64.3207 261.16 63.4707 260.22 59.6207 259.86C57.5907 259.66 53.8007 260.23 53.6307 260.26C53.4707 260.28 53.3607 260.43 53.3907 260.59C53.4107 260.75 53.5507 260.86 53.7207 260.83C53.7607 260.83 57.6007 260.25 59.5707 260.44C63.3407 260.8 63.9707 261.67 65.1307 263.25C65.5907 263.88 66.0707 264.71 66.5607 265.71C67.0507 266.72 68.1707 267.26 69.2607 267.03C70.6407 266.74 72.6707 266.62 74.4607 267.73C76.2707 268.85 77.3707 270.12 77.9907 270.98C78.6107 271.86 79.4507 272.49 80.4207 272.8C81.3007 273.08 82.4407 273.39 83.7907 273.74C88.1707 274.85 92.0707 280.97 92.1107 281.03C92.1607 281.12 92.2607 281.17 92.3607 281.17C92.3807 281.17 92.4007 281.17 92.4207 281.17C92.5607 281.14 95.9507 280.34 98.5907 276.22C100.781 272.8 109.041 263.97 111.401 262.54C113.081 261.52 114.921 260.87 116.411 260.35C116.701 260.25 116.981 260.15 117.241 260.05C119.001 259.41 120.471 258.18 121.381 256.57C122.471 254.66 124.151 252.11 126.031 250.78C129.171 248.56 133.831 249.47 133.881 249.48C134.031 249.51 134.191 249.41 134.221 249.25C134.251 249.09 134.151 248.94 133.991 248.91C133.791 248.87 129.041 247.94 125.691 250.31L125.701 250.3Z" fill="white"/>
<path d="M121.661 253.03C121.771 253.07 121.891 253.05 121.971 252.97L125.381 249.64C125.441 249.59 125.471 249.51 125.471 249.43V244.79L128.661 242.82L129.281 247.77C129.291 247.85 129.331 247.92 129.391 247.97C129.451 248.02 129.531 248.04 129.611 248.02L132.801 247.52C132.961 247.5 133.071 247.35 133.041 247.19C133.021 247.03 132.881 246.93 132.711 246.95L129.821 247.41L129.181 242.31C129.171 242.21 129.111 242.13 129.021 242.09C128.931 242.05 128.831 242.05 128.741 242.1L125.021 244.39C124.931 244.44 124.881 244.54 124.881 244.64V249.32L122.051 252.08V249.44C122.051 249.33 121.991 249.23 121.891 249.18C121.791 249.13 121.671 249.15 121.581 249.22L118.591 251.66C118.521 251.71 118.481 251.8 118.481 251.88V256.42L115.651 257.74L114.551 253.06C114.531 252.97 114.461 252.89 114.371 252.86C114.281 252.83 114.181 252.84 114.101 252.89L110.181 255.52C110.091 255.58 110.041 255.69 110.051 255.8L110.711 260.69L107.171 263.46L106.711 260.41C106.691 260.3 106.621 260.21 106.511 260.18C106.401 260.14 106.291 260.18 106.211 260.25L102.731 263.8C102.681 263.85 102.651 263.93 102.651 264V268.26L99.9309 271.61L99.3209 268.31C99.3009 268.2 99.2109 268.11 99.1009 268.08C98.9909 268.05 98.8709 268.09 98.8009 268.19L96.2909 271.51C96.2909 271.51 96.2309 271.62 96.2309 271.68V275.32L93.1909 277.99V273.9C93.1909 273.83 93.1709 273.76 93.1209 273.71L91.2009 271.49C91.1309 271.41 91.0309 271.38 90.9309 271.4C90.8309 271.42 90.7509 271.49 90.7109 271.59L89.4409 275.26L86.1409 272.56L87.5009 267.7C87.5409 267.57 87.4809 267.43 87.3609 267.37L83.0009 265.01C82.9309 264.97 82.8409 264.96 82.7609 264.99C82.6809 265.02 82.6209 265.08 82.5909 265.16C81.7409 267.55 80.7209 270.15 80.3309 270.8C79.8809 270.43 78.6709 269.18 77.5709 268L78.9209 263.8C78.9509 263.69 78.9209 263.58 78.8509 263.5L75.0909 259.88C75.0209 259.81 74.9209 259.78 74.8209 259.81C74.7209 259.83 74.6509 259.91 74.6209 260L72.9109 265.24L68.6509 264.69L69.6409 259.2C69.6609 259.1 69.6209 259 69.5409 258.93L65.9709 255.87C65.8909 255.8 65.7909 255.78 65.6909 255.82C65.5909 255.85 65.5209 255.93 65.5009 256.03L64.6209 260.05L60.5009 258.28L61.1409 252.73C61.1509 252.65 61.1209 252.57 61.0709 252.51C61.0209 252.45 60.9409 252.41 60.8509 252.41H55.4609C55.3009 252.41 55.1709 252.54 55.1709 252.7C55.1709 252.86 55.3009 252.99 55.4609 252.99H60.5309L59.9009 258.43C59.8909 258.56 59.9609 258.68 60.0709 258.73L64.7109 260.73C64.7909 260.76 64.8809 260.76 64.9609 260.73C65.0409 260.69 65.0909 260.62 65.1109 260.53L65.9609 256.64L69.0409 259.27L68.0309 264.89C68.0209 264.97 68.0309 265.05 68.0809 265.11C68.1309 265.17 68.2009 265.22 68.2809 265.23L73.0809 265.84C73.2109 265.85 73.3509 265.78 73.3909 265.64L75.0309 260.61L78.3309 263.79L76.9809 267.98C76.9509 268.08 76.9809 268.19 77.0409 268.26C78.9309 270.32 80.0309 271.39 80.3209 271.45C80.5909 271.52 80.9009 271.57 83.0209 265.67L86.8809 267.76L85.5309 272.58C85.5009 272.69 85.5309 272.81 85.6309 272.88L89.4009 275.97C89.4709 276.03 89.5709 276.05 89.6609 276.02C89.7509 276 89.8209 275.93 89.8509 275.84L91.0909 272.25L92.6109 274.01V278.63C92.6109 278.74 92.6809 278.85 92.7809 278.89C92.8209 278.91 92.8609 278.92 92.9009 278.92C92.9709 278.92 93.0409 278.9 93.0909 278.85L96.7109 275.67C96.7709 275.62 96.8109 275.54 96.8109 275.45V271.78L98.8709 269.06L99.4709 272.33C99.4909 272.44 99.5709 272.53 99.6809 272.56C99.7909 272.59 99.9009 272.55 99.9809 272.46L103.161 268.55C103.201 268.5 103.221 268.43 103.221 268.37V264.13L106.211 261.08L106.651 264.05C106.661 264.15 106.731 264.24 106.831 264.28C106.931 264.32 107.031 264.3 107.121 264.24L111.181 261.06C111.261 261 111.301 260.89 111.291 260.79L110.641 255.92L114.061 253.63L115.151 258.24C115.171 258.32 115.231 258.4 115.301 258.43C115.381 258.47 115.471 258.47 115.551 258.43L118.871 256.88C118.971 256.83 119.041 256.73 119.041 256.62V252.03L121.451 250.06V252.78C121.451 252.9 121.521 253 121.631 253.05L121.661 253.03Z" fill="#343434"/>
<path d="M63.7004 260.78C63.6804 260.94 63.7904 261.08 63.9504 261.1C63.9604 261.1 63.9705 261.1 63.9805 261.1C64.1305 261.1 64.2504 260.99 64.2704 260.84C64.2804 260.72 65.6404 248.96 65.9404 245.06C66.2404 241.15 65.9404 231.33 65.9404 231.23C65.9404 231.07 65.7804 230.93 65.6404 230.95C65.4804 230.95 65.3605 231.09 65.3605 231.25C65.3605 231.35 65.6605 241.14 65.3605 245.02C65.0605 248.91 63.7104 260.66 63.6904 260.78H63.7004Z" fill="white"/>
<path d="M75.8305 255.73L74.6205 266.24C74.6005 266.4 74.7105 266.54 74.8705 266.56C74.8805 266.56 74.8905 266.56 74.9005 266.56C75.0505 266.56 75.1705 266.45 75.1905 266.3L76.4005 255.79C76.4205 255.63 76.3105 255.49 76.1505 255.47C75.9805 255.45 75.8505 255.57 75.8305 255.72V255.73Z" fill="white"/>
<path d="M87.8102 249.43L86.9502 272.63C86.9502 272.79 87.0702 272.92 87.2302 272.93H87.2402C87.3902 272.93 87.5202 272.81 87.5302 272.65L88.3902 249.45C88.3902 249.29 88.2702 249.16 88.1102 249.15C87.9302 249.13 87.8202 249.27 87.8102 249.43Z" fill="white"/>
<path d="M111.891 235.04C111.731 235.04 111.611 235.18 111.621 235.34L112.841 259.15C112.841 259.3 112.981 259.42 113.131 259.42H113.141C113.301 259.42 113.421 259.28 113.411 259.12L112.191 235.31C112.191 235.15 112.061 235.04 111.891 235.04Z" fill="white"/>
<path d="M121.761 228.98C121.601 228.98 121.481 229.12 121.491 229.28L122.541 249.45C122.541 249.6 122.681 249.72 122.831 249.72H122.841C123.001 249.72 123.121 249.58 123.111 249.42L122.061 229.25C122.061 229.09 121.911 228.97 121.761 228.98Z" fill="white"/>
<path d="M116.8 100.13C120.09 97.4001 125.18 100.03 125.18 100.03C125.18 100.03 121.96 94.6201 118.73 94.3401C117.52 94.2401 116.06 95.4301 116.06 95.4301C116.06 95.4301 113.84 93.8101 111.86 93.8101C109.88 93.8101 108.98 94.8201 108.98 94.8201C108.98 94.8201 107.89 93.7501 106.13 93.2801C104.37 92.8101 104.28 94.2701 103.27 94.0501C102.26 93.8301 102.25 93.1001 100.14 94.0601C99.7303 94.2501 98.9303 95.1501 98.4703 97.9801C98.0103 100.81 97.8103 102.33 97.8103 102.33L102.01 111.75C102.01 111.75 102.16 118.18 99.7403 125C97.3103 131.82 83.9103 154.13 81.8903 156.55C79.8703 158.97 72.9003 165.42 67.9103 166.98C62.9203 168.54 57.6303 168.7 57.6303 168.7C57.6303 168.7 58.5803 165.27 59.2203 163.19C60.0403 160.53 60.2203 157.34 60.2203 157.34L58.4403 157.22C58.4403 157.22 57.2803 158.84 56.3203 160.71C55.3603 162.58 52.3803 166.17 50.4603 168.04C48.5403 169.91 45.4003 172.03 45.4003 172.03C45.4003 172.03 45.5503 176.07 45.5003 177.54C45.4503 179.01 47.2203 179.56 47.7203 180.78C48.2303 181.99 46.6603 184.98 45.3903 186.69C44.1303 188.41 45.2403 189.07 46.2003 190.94C47.1603 192.81 50.0403 193.82 50.0403 193.82C50.0403 193.82 49.5303 196.7 48.5203 198.27C47.5103 199.84 47.4103 200.6 47.4603 202.26C47.5103 203.93 50.9503 204.94 51.0503 205.6C51.1503 206.26 49.2303 207.72 49.0303 207.87C48.8303 208.02 48.3203 212.57 49.3303 214.75C50.3403 216.92 52.1103 220.01 52.1103 220.01C52.1103 220.01 55.2903 218.34 59.8403 217.28C64.3903 216.22 78.1403 211.42 89.6703 200.34C101.2 189.27 115.49 157.73 116.72 141C118.02 123.29 114.5 118.67 112.63 114.62C110.65 110.31 109.54 109.39 109.54 109.39L109.74 108.35C109.74 108.35 112.91 103.35 116.8 100.12V100.13Z" fill="#343434"/>
<path d="M89.47 200.14C78.66 210.52 65.32 215.71 59.78 217C55.25 218.06 52.01 219.74 51.98 219.75C51.84 219.82 51.7801 220 51.8601 220.14C51.9101 220.24 52.0101 220.29 52.1201 220.29C52.1701 220.29 52.21 220.28 52.25 220.26C52.28 220.24 55.46 218.6 59.92 217.56C65.52 216.25 78.98 211.02 89.88 200.55C101.69 189.21 115.18 157.41 117.01 141.04C118.79 125.15 115.29 118.77 112.97 114.55C112.38 113.47 111.86 112.54 111.58 111.66C111.53 111.51 111.37 111.43 111.22 111.47C111.07 111.52 110.98 111.68 111.03 111.83C111.33 112.76 111.85 113.72 112.46 114.82C114.74 118.98 118.19 125.27 116.43 140.97C114.6 157.25 101.2 188.86 89.47 200.13V200.14Z" fill="white"/>
<path d="M103.31 93.6601C103.27 93.7101 102.271 95.0101 102.121 96.6401C101.971 98.1801 101.621 100.89 101.621 100.92C101.601 101.08 101.711 101.22 101.871 101.24C101.881 101.24 101.89 101.24 101.91 101.24C102.05 101.24 102.18 101.13 102.2 100.99C102.2 100.96 102.56 98.2501 102.71 96.6901C102.85 95.2301 103.77 94.0201 103.78 94.0101C103.88 93.8801 103.85 93.7001 103.73 93.6001C103.6 93.5001 103.42 93.5201 103.32 93.6501L103.31 93.6601Z" fill="white"/>
<path d="M108.71 95.4301C108.65 95.5001 107.24 97.0501 106.82 98.9301C106.42 100.72 106.08 101.88 106.08 101.89C106.03 102.04 106.12 102.2 106.28 102.25C106.31 102.25 106.34 102.26 106.36 102.26C106.49 102.26 106.6 102.18 106.64 102.05C106.64 102.04 106.99 100.86 107.39 99.0501C107.77 97.3301 109.13 95.8401 109.14 95.8201C109.25 95.7001 109.24 95.5201 109.12 95.4101C109 95.3001 108.82 95.3101 108.71 95.4301Z" fill="white"/>
<path d="M112.69 98.03C110.91 100.23 108.5 102.4 108.48 102.42C108.36 102.53 108.35 102.71 108.46 102.83C108.52 102.89 108.6 102.93 108.68 102.93C108.75 102.93 108.82 102.91 108.87 102.86C108.89 102.84 111.34 100.64 113.15 98.4C114.73 96.44 115.59 96.75 115.63 96.76C115.76 96.83 115.94 96.77 116.01 96.63C116.08 96.49 116.03 96.31 115.89 96.24C115.76 96.17 114.62 95.67 112.7 98.03H112.69Z" fill="white"/>
<path d="M96.801 152.89L94.171 157.54C94.091 157.68 94.141 157.86 94.281 157.93C94.331 157.95 94.371 157.97 94.421 157.97C94.521 157.97 94.621 157.92 94.671 157.82L97.291 153.18C97.341 153.11 101.891 145.65 104.801 135.72C107.721 125.75 105.331 115.95 105.311 115.85C105.271 115.7 105.121 115.59 104.961 115.64C104.811 115.68 104.711 115.84 104.751 115.99C104.771 116.09 107.121 125.73 104.251 135.55C101.361 145.4 96.851 152.8 96.791 152.88L96.801 152.89Z" fill="white"/>
<path d="M105.551 150.65C104.781 152.26 103.891 153.81 102.961 155.35C105.211 152.55 107.121 149.46 108.501 146.09C109.871 142.7 110.361 139.1 110.951 135.53C111.771 128.5 112.111 120.72 108.671 114.31C111.231 120.99 110.611 128.4 109.771 135.37C109.031 140.64 108.121 145.94 105.541 150.65H105.551Z" fill="white"/>
<path d="M55.6405 169.13C56.7005 169.14 57.6905 168.98 57.6905 168.98L59.2805 163.09C59.2805 163.09 58.4205 164.26 56.6005 166.33C55.8405 167.19 53.5205 168.55 53.5205 168.55C53.5205 168.55 54.2505 169.11 55.6405 169.13Z" fill="white"/>
<path d="M48.6211 181.12C50.8211 183.8 54.1311 185.89 57.7311 185.5C64.7611 185.01 71.0011 181.21 76.6011 177.26C79.3811 175.22 82.0411 173.03 84.4611 170.58C83.0811 171.61 81.7211 172.64 80.3011 173.61C73.4011 178.32 66.0711 183.41 57.6611 184.64C54.2911 185.28 51.1311 183.41 48.6211 181.12Z" fill="white"/>
<path d="M57.7709 196.69C55.7209 196.24 53.8209 195.15 51.9609 194.18C60.3709 202.01 72.2209 194.92 79.0009 188.29C80.0109 187.26 81.0109 186.22 81.8909 185.08C80.8109 186.03 79.741 186.97 78.611 187.85C72.671 192.49 65.6209 197.26 57.7809 196.69H57.7709Z" fill="white"/>
<path d="M48.1406 171.64C60.9106 177.57 74.0206 167.34 82.5706 158.52C81.3106 159.54 80.0506 160.56 78.7506 161.52C70.0506 168.03 59.4706 175.39 48.1506 171.64H48.1406Z" fill="white"/>
<path d="M53.5208 208.04C55.7508 209.34 58.5408 209.24 61.0508 209.03C65.3608 208.36 69.0508 205.68 72.3608 203.07C76.1208 199.79 79.9908 196.19 83.6108 192.79C84.8108 191.6 86.0508 190.45 87.2308 189.23C85.8708 190.24 84.5608 191.31 83.2208 192.36C80.9008 194.26 77.6407 196.93 75.3907 198.86C69.4507 204.14 62.0407 210.81 53.5107 208.04H53.5208Z" fill="white"/>
<path d="M58.2509 166.93L57.2109 168.99C57.3909 168.98 62.9909 168.52 67.9009 166.99C72.8909 165.43 79.8709 158.98 81.8809 156.56C83.9009 154.15 97.301 131.84 99.731 125.01C100.861 121.82 101.431 118.73 101.721 116.33C100.501 118.99 93.3909 134.49 92.7009 136C92.3309 136.81 84.911 151.47 77.431 158.9C69.951 166.33 58.2509 166.93 58.2509 166.93Z" fill="white"/>
<path d="M72.8809 212.2C72.8809 212.2 86.0709 206.43 90.6409 202.58C99.1009 195.42 102.561 186.29 103.931 183.72C107.651 176.73 113.131 155.44 113.131 155.44C113.131 155.44 103.421 180.24 96.4509 191.97C89.4709 203.7 72.8909 212.21 72.8909 212.21L72.8809 212.2Z" fill="white"/>
<path d="M111.001 106.53L111.041 107.33C111.041 107.33 117.151 101.67 119.331 100.38C120.261 99.8299 122.401 99.01 123.021 99.24C121.521 98.43 118.351 98.8399 116.801 100.13C114.401 102.12 112.281 104.78 111.001 106.53Z" fill="white"/>
<path d="M103.575 117.828C108.218 117.419 111.651 113.324 111.242 108.68C110.834 104.037 106.738 100.604 102.095 101.013C97.4517 101.422 94.0188 105.517 94.4275 110.16C94.8362 114.804 98.9317 118.237 103.575 117.828Z" fill="url(#paint13_linear_372_126)"/>
<path d="M105.88 107.41C105.88 107.41 102.15 108.05 102.15 107.92C102.15 107.79 103 103.14 103 103.14L99.8301 109.78L103.22 109.56C103.22 109.56 100.78 116.03 100.91 115.93C101.04 115.83 105.88 107.41 105.88 107.41Z" fill="#343434"/>
<path d="M93.8408 109.4C93.8408 114.37 97.8908 118.42 102.861 118.42C107.831 118.42 111.881 114.37 111.881 109.4C111.881 104.43 107.831 100.38 102.861 100.38C97.8908 100.38 93.8408 104.43 93.8408 109.4ZM110.721 109.4C110.721 113.74 107.191 117.26 102.861 117.26C98.5308 117.26 95.0008 113.73 95.0008 109.4C95.0008 105.07 98.5308 101.54 102.861 101.54C107.191 101.54 110.721 105.07 110.721 109.4Z" fill="white"/>
<path d="M82.4703 54.0901C75.8603 54.0901 67.6103 59.4201 68.3003 71.9001C68.9103 83.0401 96.4103 83.8101 98.8603 74.1901C100.43 68.0501 98.6103 63.8901 96.2803 59.9901C94.9603 57.7901 91.1203 54.0701 82.4703 54.0801V54.0901Z" fill="url(#paint14_linear_372_126)"/>
<path d="M100.34 93.3101C100.56 93.0101 100.63 92.8801 100.63 92.8801C100.63 92.8801 99.6296 93.4801 100.34 93.3101Z" fill="url(#paint15_linear_372_126)"/>
<path d="M107.81 68.4601C107.81 68.4601 108.89 67 109.02 65.58C109.3 62.65 107.3 61.64 107.3 61.64C107.3 61.64 108.21 60.6801 107.7 58.4001C107.19 56.1201 104.72 54.1001 104.72 54.1001C104.72 54.1001 104.57 50.7101 103.1 49.8001C101.63 48.8901 98.0398 48.0301 98.0398 48.0301C98.0398 48.0301 96.8297 45.3001 95.8197 45.1501C95.0797 45.0401 93.8398 45.09 93.2398 45.13C93.0098 45.14 92.7898 45.0801 92.5898 44.9601C91.8898 44.5201 90.0997 43.4801 89.0697 43.5301C87.6697 43.5901 86.6698 44.3201 86.0998 44.8701C85.7698 45.1901 85.2597 45.23 84.8997 44.95C84.2397 44.43 83.2097 43.75 82.5097 43.94C81.8597 44.12 81.1997 44.6001 80.7697 44.9701C80.4897 45.2101 80.0898 45.2501 79.7798 45.0401C79.2098 44.6501 77.4998 44.0901 76.2998 44.4201C75.0498 44.7601 74.2297 45.6601 73.8197 46.2101C73.6297 46.4701 73.3397 46.65 73.0197 46.63C72.0497 46.59 70.9897 45.93 68.7697 47.32C66.5197 48.72 67.2798 49.9601 67.0498 51.1101C66.9598 51.5301 66.6098 51.8601 66.1798 51.9101C65.4198 52.0001 64.2497 52.3101 63.4597 53.2901C62.5797 54.3801 62.6097 56.04 62.6997 56.94C62.7397 57.32 62.5797 57.6901 62.2697 57.9001C61.6897 58.3001 60.8397 59.07 60.8097 60.13C60.7797 61.1 61.3498 61.5501 61.5498 62.0201C61.6798 62.3301 61.6197 62.6801 61.3997 62.9301C60.8797 63.5501 60.0098 64.77 59.9698 66.07C59.9298 67.39 60.3197 68.63 60.5597 69.26C60.6597 69.53 60.6397 69.82 60.5097 70.07C60.0997 70.83 59.2698 72.55 59.1098 73.95C58.9798 75.14 59.7197 76.71 60.2697 77.7C60.6597 78.39 60.6597 79.23 60.2697 79.94C59.6997 80.96 59.3297 82.0801 59.4597 83.2401C59.7197 85.5101 60.4597 86.48 61.0697 86.88C61.5797 87.22 61.9198 87.76 61.9298 88.38C61.9598 89.55 62.2097 91.24 63.3097 92C64.3197 92.7 65.3997 92.73 66.1297 92.64C66.5597 92.59 66.9398 92.9301 66.9298 93.3601C66.9298 94.2501 67.1697 95.55 68.4597 96.14C69.8697 96.79 71.4398 96.16 72.2898 95.69C72.6498 95.49 73.0898 95.5501 73.4098 95.8001C73.8798 96.1601 74.6698 96.4601 75.7898 95.7401C77.6598 94.5301 77.6497 88.9201 77.6497 88.9201L70.2198 71.8001L69.0197 70.2701C69.0197 70.2701 69.7298 69.7901 70.2798 68.0901C70.8398 66.3801 69.9798 63.18 70.0298 63.14C70.0798 63.1 71.3398 62.5901 72.0998 61.7401C72.8598 60.8801 73.1098 59.4901 73.1098 59.4901C73.1098 59.4901 74.2498 59.3101 75.5298 58.6601C76.8098 58.0001 77.6497 55.2201 77.6497 55.2201C77.6497 55.2201 78.0897 56.2301 79.9997 55.9301C81.9097 55.6301 82.6897 54.1101 82.6897 54.1101C82.6897 54.1101 82.6198 54.77 84.7898 55.83C86.9598 56.89 88.3398 55.83 88.3398 55.83C88.3398 55.83 88.7598 57.6 89.9298 57.75C91.1098 57.9 93.1297 58.1501 93.1297 58.1501C93.1297 58.1501 93.3297 60.0701 94.4397 60.4201C95.5497 60.7701 96.5298 61.13 96.5298 61.13C96.5298 61.13 95.6597 62.7001 96.3097 64.2201C96.9697 65.7401 98.2298 66.51 98.2298 66.51C98.2298 66.51 97.1698 67.8301 97.6198 69.5401C98.0698 71.2501 98.7798 71.7 98.7798 71.7C98.7798 71.7 99.9397 71.0001 97.8197 76.4301C95.6997 81.8601 93.7798 89.0401 93.7798 89.0401L94.4898 96.5201C94.4898 96.5201 96.0097 98.04 98.1297 95.81C99.3697 94.51 99.9997 93.74 100.31 93.31C99.5997 93.47 100.6 92.88 100.6 92.88C100.6 92.88 100.53 93.01 100.31 93.31C100.57 93.25 101.04 93.1001 101.87 92.7701C105 91.5601 105.41 88.9301 105.41 88.9301C105.41 88.9301 106.42 91.0701 107.13 87.6201C107.84 84.1701 107.13 82.8601 107.13 82.8601C107.13 82.8601 108.04 82.27 109.05 79.88C110.06 77.5 108.6 75.4701 108.6 75.4701C108.6 75.4701 109.64 73.8401 109.71 71.7401C109.8 69.1201 107.79 68.45 107.79 68.45L107.81 68.4601Z" fill="#343434"/>
<path d="M100.64 76.7501C100.64 74.7801 98.5199 71.1401 98.5199 71.1401C98.5199 71.1401 96.9499 71.4401 96.1899 72.4001C95.4299 73.3601 95.6299 74.0201 95.6299 74.0201C95.6299 74.0201 94.4699 73.6202 93.1299 74.5302C92.3899 75.0302 91.8899 75.9501 91.8899 75.9501C91.8899 75.9501 90.54 73.7301 89.54 73.5201C88.55 73.3201 87.03 73.3201 87.03 73.3201C87.03 73.3201 85.4299 72.4302 84.6399 72.2202C83.7799 71.9902 81.5 71.8401 80.37 72.9501L79.1999 74.0901C79.0499 74.2401 78.8499 74.3301 78.6399 74.3401C77.9799 74.3701 76.46 74.4801 75.61 74.8301C74.5 75.2801 72.6299 77.0801 72.6299 77.0801C72.6299 77.0801 72.8599 75.8501 72.6299 75.0001C72.0899 72.9501 70.24 71.8201 70.24 71.8201C70.24 71.8201 66.9799 74.2801 69.3299 77.8301C70.6899 79.8901 70.04 82.5401 70.24 83.5001C70.44 84.4601 72.6299 86.1202 72.6299 86.1202C72.6299 86.1202 73.3899 87.5901 74.1899 88.6501C74.9999 89.7101 77.43 89.5601 77.43 89.5601C77.43 89.5601 77.8299 91.4301 80.3099 91.9401C82.7899 92.4501 87.8199 92.4601 89.4599 91.9001C91.1099 91.3401 92.6899 88.7001 92.6899 88.7001C92.6899 88.7001 93.3499 89.1601 94.8199 87.6501C96.2899 86.1301 95.93 84.0001 95.93 84.0001C95.93 84.0001 98.26 83.6102 98.72 82.3502C99.18 81.0902 98.97 79.3002 98.97 79.3002C98.97 79.3002 100.64 78.7401 100.64 76.7701V76.7501Z" fill="#343434"/>
<path d="M86.7705 67.9401C86.7705 68.8201 87.4805 69.5301 88.3605 69.5301C89.2405 69.5301 89.9505 68.8201 89.9505 67.9401C89.9505 67.0601 89.2405 66.3501 88.3605 66.3501C87.4805 66.3501 86.7705 67.0601 86.7705 67.9401Z" fill="#343434"/>
<path d="M76.0801 68.09C76.0801 68.97 76.7901 69.6801 77.6701 69.6801C78.5501 69.6801 79.2601 68.97 79.2601 68.09C79.2601 67.21 78.5501 66.5 77.6701 66.5C76.7901 66.5 76.0801 67.21 76.0801 68.09Z" fill="#343434"/>
<path d="M82.1702 68.7101C81.8202 69.1201 81.3002 69.7301 81.3602 70.6701C81.4302 71.8101 82.5902 72.4 83.2702 72.56C83.3202 72.57 83.3602 72.5801 83.4102 72.5801C83.6702 72.5801 83.9102 72.4001 83.9702 72.1401C84.0502 71.8301 83.8602 71.52 83.5502 71.44C83.5402 71.44 82.5602 71.1601 82.5202 70.6001C82.4902 70.1301 82.7702 69.8101 83.0602 69.4701C83.2302 69.2701 83.3902 69.0801 83.4902 68.8501C83.8002 68.1101 83.8002 67.3101 83.4902 66.6101C83.1402 65.8301 82.4002 65.2001 82.3202 65.1401C82.0702 64.9301 81.7102 64.9701 81.5102 65.2201C81.3102 65.4701 81.3402 65.8301 81.5902 66.0401C81.7602 66.1801 82.2402 66.6401 82.4402 67.0901C82.6702 67.6201 82.5702 68.1001 82.4402 68.4101C82.4202 68.4701 82.2902 68.6201 82.2002 68.7201L82.1702 68.7101Z" fill="#343434"/>
<path d="M85.3704 62.8999C84.5404 63.6599 84.6804 64.7499 84.4004 65.1599C84.4004 65.1599 86.4004 64.4199 87.9204 63.6399C89.4404 62.8599 93.1504 62.2199 93.1504 62.2199V61.1299C93.1504 61.1299 92.4204 61.1299 91.7104 61.1299C91.0004 61.1299 88.6504 61.7099 88.6504 61.7099C88.6504 61.7099 89.3104 60.9799 88.8804 61.1499C88.4504 61.3299 86.6804 62.51 86.5004 62.54C86.3204 62.57 86.9304 61.55 86.9304 61.55C86.9304 61.55 86.2004 62.1299 85.3604 62.8899L85.3704 62.8999Z" fill="#343434"/>
<path d="M72.6301 61.1301V62.2202C72.6301 62.2202 76.3501 62.8501 77.8601 63.6401C79.3801 64.4201 81.3801 65.1602 81.3801 65.1602C81.1001 64.7602 81.2501 63.6601 80.4101 62.9001C79.5801 62.1401 78.8401 61.5601 78.8401 61.5601C78.8401 61.5601 79.4501 62.5702 79.2701 62.5502C79.0901 62.5202 77.3201 61.3402 76.8901 61.1602C76.4601 60.9802 77.1201 61.7202 77.1201 61.7202C77.1201 61.7202 74.7701 61.1301 74.0601 61.1401C73.3501 61.1401 72.6201 61.1401 72.6201 61.1401L72.6301 61.1301Z" fill="#343434"/>
<path d="M82.4906 60.84C82.3306 60.86 82.2206 61.01 82.2406 61.16L82.6006 63.94C82.6206 64.09 82.7406 64.19 82.8906 64.19C82.9006 64.19 82.9106 64.19 82.9306 64.19C83.0906 64.17 83.2006 64.02 83.1806 63.87L82.8206 61.09C82.8006 60.93 82.6506 60.82 82.5006 60.84H82.4906Z" fill="#343434"/>
<path d="M86.7698 75.0301C85.0998 74.5401 85.8198 74.5202 85.2298 74.1802C84.6398 73.8402 83.8898 73.7202 83.4298 73.7402C82.9298 73.7602 82.5198 73.8901 81.7198 74.7601C80.9198 75.6301 79.8198 75.5601 79.4798 76.1601C79.1398 76.7701 78.4898 78.5901 79.4798 79.3401C80.4698 80.1001 82.1198 80.3601 82.6998 80.4001C83.2698 80.4401 83.7698 79.6801 84.3898 79.7601C85.0198 79.8401 85.4298 80.4101 86.2298 80.4101C87.0298 80.4101 87.9398 79.9201 88.9598 79.1601C89.9798 78.4001 89.4098 76.6601 88.9598 76.1601C88.5098 75.6701 88.4298 75.5201 86.7598 75.0201L86.7698 75.0301Z" fill="url(#paint16_linear_372_126)"/>
<path d="M80.5898 77.46C80.5898 78.3 82.1699 78.98 84.1199 78.98C86.0699 78.98 87.6498 78.3 87.6498 77.46C87.6498 76.62 86.0699 75.9399 84.1199 75.9399C82.1699 75.9399 80.5898 76.62 80.5898 77.46Z" fill="white"/>
<path d="M80.0198 77.02C79.7798 77.02 79.5898 77.21 79.5898 77.45C79.5898 77.69 79.7798 77.88 80.0198 77.88H88.0598C88.2998 77.88 88.4899 77.69 88.4899 77.45C88.4899 77.21 88.2998 77.02 88.0598 77.02H80.0198Z" fill="#343434"/>
<path d="M90.13 84.2C89.98 84.25 89.89 84.4099 89.94 84.5599C89.98 84.6899 90.09 84.77 90.22 84.77C90.25 84.77 90.28 84.7699 90.3 84.7599C90.56 84.6799 90.7701 84.45 90.8701 84.15C90.9401 83.92 90.93 83.69 90.92 83.48C90.91 83.21 90.89 82.77 90.59 82.48C90.42 82.32 90.21 82.2499 90.05 82.1899C89.83 82.1199 89.56 82.03 89.26 82.08C88.95 82.14 88.73 82.3399 88.53 82.5099C88.45 82.5799 88.37 82.65 88.29 82.71C87.89 82.99 87.2701 82.9299 86.9301 82.5699C86.9001 82.5399 86.8801 82.51 86.8701 82.49C86.8601 82.45 86.8601 82.3799 86.8701 82.3199L86.91 81.27C86.91 81.11 86.79 80.98 86.63 80.97C86.46 80.97 86.34 81.0899 86.33 81.2499L86.29 82.3C86.29 82.41 86.29 82.56 86.34 82.7C86.39 82.82 86.47 82.92 86.52 82.97C87.05 83.53 88 83.6299 88.63 83.1899C88.73 83.1199 88.8301 83.03 88.9301 82.95C89.0901 82.81 89.23 82.68 89.38 82.66C89.53 82.63 89.7 82.6899 89.88 82.7499C90 82.7899 90.13 82.83 90.21 82.91C90.34 83.03 90.35 83.27 90.36 83.52C90.36 83.7 90.37 83.8599 90.33 83.9999C90.3 84.1099 90.23 84.2 90.15 84.22L90.13 84.2Z" fill="url(#paint17_linear_372_126)"/>
<path d="M89.2298 89L88.7098 89.25C88.5698 89.32 88.4998 89.49 88.5698 89.64C88.6198 89.74 88.7198 89.81 88.8298 89.81C88.8698 89.81 88.9098 89.81 88.9498 89.78L89.4698 89.53C89.5398 89.5 89.6298 89.45 89.7098 89.37C89.8498 89.22 89.8698 89.02 89.8798 88.92C89.9098 88.66 89.8998 88.39 89.8798 88.13C89.8598 87.99 89.8398 87.82 89.7498 87.65C89.6598 87.48 89.5198 87.35 89.4098 87.26C89.1098 87.01 88.7298 86.81 88.2398 86.63L87.9298 86.52C87.6798 86.43 87.4398 86.35 87.2198 86.24C86.9898 86.12 86.6898 85.92 86.5298 85.62C86.4598 85.48 86.2798 85.42 86.1398 85.49C85.9998 85.56 85.9398 85.74 86.0098 85.88C86.1898 86.23 86.5098 86.53 86.9498 86.75C87.1998 86.88 87.4698 86.97 87.7298 87.06L88.0298 87.17C88.4698 87.33 88.7898 87.5 89.0398 87.71C89.1098 87.77 89.1898 87.84 89.2298 87.92C89.2698 88 89.2898 88.1 89.2998 88.19C89.3298 88.41 89.3298 88.63 89.2998 88.85C89.2998 88.93 89.2798 88.96 89.2798 88.96C89.2698 88.96 89.2298 88.98 89.2098 89H89.2298Z" fill="url(#paint18_linear_372_126)"/>
<path d="M84.7307 90.24C84.6907 90.3 84.6007 90.3299 84.4907 90.3299C84.3807 90.3299 84.2507 90.27 84.0907 90.17C83.9507 90.09 83.7806 90.1199 83.6906 90.2599C83.6006 90.3999 83.6407 90.57 83.7807 90.66C83.9307 90.76 84.1706 90.89 84.4506 90.91C84.4706 90.91 84.4906 90.91 84.5206 90.91C84.8106 90.91 85.0807 90.77 85.2207 90.55C85.3407 90.36 85.3507 90.1599 85.3607 89.9999C85.3907 89.4299 85.4206 88.6599 85.0006 88.0599C84.9106 87.9299 84.7307 87.9 84.6007 87.99C84.4707 88.08 84.4407 88.2599 84.5307 88.3899C84.8107 88.7899 84.8107 89.34 84.7807 89.97C84.7807 90.08 84.7707 90.19 84.7307 90.24Z" fill="url(#paint19_linear_372_126)"/>
<path d="M83.74 85.9501C83.89 85.9001 83.9799 85.7401 83.9399 85.5901C83.8899 85.4401 83.7299 85.3501 83.5799 85.3901C82.4799 85.7101 81.65 86.5501 81.12 87.1501C80.81 87.5001 80.5199 87.8902 80.4699 88.3702C80.4099 88.9802 80.7999 89.6101 81.3999 89.8601C81.7399 90.0001 82.1 90.0201 82.42 90.0201C82.48 90.0201 82.5299 90.0201 82.5799 90.0201C82.7399 90.0201 82.87 89.8901 82.87 89.7301C82.87 89.5701 82.7399 89.4401 82.5799 89.4401C82.2499 89.4401 81.91 89.4401 81.62 89.3301C81.25 89.1801 81.0099 88.7902 81.0399 88.4302C81.0699 88.1302 81.26 87.8501 81.55 87.5301C82.32 86.6601 83.01 86.1601 83.74 85.9501Z" fill="url(#paint20_linear_372_126)"/>
<path d="M96.4805 77.8401C96.6405 77.8401 96.7904 77.7501 96.8104 77.5901C96.8504 77.3401 96.8805 77.0501 96.8005 76.7601C96.6905 76.3801 96.3604 76.1001 96.0204 76.1201C95.7804 76.1201 95.5905 76.2401 95.4305 76.3601C94.8905 76.7601 94.4605 77.2801 94.0505 77.7801C93.9305 77.9301 93.8005 78.0801 93.6805 78.2301C93.4105 78.5501 93.0804 78.8701 92.7104 78.9001C92.5304 78.9101 92.3404 78.8601 92.1304 78.8101C91.8304 78.7301 91.4904 78.6401 91.2804 78.4201C91.1704 78.3101 90.9905 78.3001 90.8705 78.4201C90.7605 78.5301 90.7505 78.7101 90.8705 78.8301C91.1905 79.1601 91.6305 79.2801 91.9805 79.3701C92.1805 79.4301 92.4104 79.4901 92.6504 79.4901C92.6804 79.4901 92.7204 79.4901 92.7604 79.4901C93.3404 79.4401 93.7804 79.0201 94.1304 78.6201C94.2604 78.4701 94.3804 78.3201 94.5104 78.1601C94.9204 77.6601 95.3005 77.1901 95.7905 76.8301C95.8705 76.7701 95.9705 76.7001 96.0405 76.7001C96.1205 76.7001 96.2204 76.8001 96.2604 76.9201C96.3104 77.0901 96.2804 77.3001 96.2604 77.5001C96.2404 77.6601 96.3504 77.8101 96.5104 77.8301L96.4805 77.8401Z" fill="url(#paint21_linear_372_126)"/>
<path d="M75.88 78.9699C75.81 78.8999 75.76 78.82 75.7 78.74C75.63 78.63 75.5401 78.5199 75.4301 78.4099C75.0301 78.0399 74.3801 77.99 73.8701 78.3C73.4601 78.55 73.1601 78.99 73.0301 79.54C73.0301 79.56 73.01 79.6099 73 79.6399C72.88 79.6999 72.8101 79.85 72.8601 79.99C72.9001 80.11 73.01 80.1899 73.14 80.1899C73.17 80.1899 73.2001 80.19 73.2301 80.18C73.5001 80.09 73.5701 79.82 73.6001 79.68C73.6901 79.29 73.9001 78.9699 74.1801 78.8099C74.4701 78.6399 74.8401 78.66 75.0501 78.85C75.1201 78.91 75.1801 78.9999 75.2401 79.0899C75.3201 79.1999 75.4001 79.3099 75.4901 79.3999C75.8201 79.7199 76.33 79.8099 76.76 79.6399C76.91 79.5799 76.9801 79.4099 76.9201 79.2599C76.8601 79.1099 76.6901 79.05 76.5401 79.1C76.3301 79.19 76.0601 79.14 75.9001 78.98L75.88 78.9699Z" fill="url(#paint22_linear_372_126)"/>
<path d="M73.7304 81.73C73.8804 81.67 73.9404 81.5 73.8804 81.35C73.8204 81.2 73.6503 81.14 73.5003 81.2C72.9503 81.44 72.6204 82.05 72.5904 82.89C72.5704 83.48 72.6704 83.93 72.9204 84.27C73.1404 84.58 73.5303 84.81 73.9403 84.81C74.0903 84.81 74.2504 84.78 74.4004 84.7C74.5404 84.63 74.6004 84.45 74.5204 84.31C74.4504 84.17 74.2704 84.11 74.1304 84.19C73.8904 84.32 73.5604 84.16 73.4004 83.94C73.2304 83.7 73.1604 83.37 73.1804 82.91C73.1804 82.69 73.2604 81.94 73.7404 81.73H73.7304Z" fill="url(#paint23_linear_372_126)"/>
<path d="M79.9201 82.3502C80.0501 82.3502 80.36 82.5802 80.59 82.7702C80.91 83.0302 81.2601 83.3302 81.6701 83.4402C82.5101 83.6602 83.1 83.2402 83.13 83.2302C83.26 83.1402 83.29 82.9602 83.2 82.8302C83.11 82.7002 82.9301 82.6702 82.8001 82.7602C82.7801 82.7702 82.4 83.0302 81.83 82.8802C81.55 82.8102 81.2601 82.5602 80.9701 82.3302C80.6001 82.0202 80.2501 81.7202 79.8601 81.7802C79.2001 81.8502 78.8 82.3402 78.69 82.8002C78.58 83.2402 78.75 84.0402 79.15 84.4702C79.21 84.5302 79.2801 84.5601 79.3601 84.5601C79.4301 84.5601 79.5 84.5302 79.56 84.4802C79.68 84.3702 79.68 84.1902 79.57 84.0702C79.32 83.8102 79.18 83.2202 79.25 82.9402C79.31 82.6802 79.5401 82.4002 79.9201 82.3602V82.3502Z" fill="url(#paint24_linear_372_126)"/>
<path d="M76.51 84.9601C76.95 84.8101 77.57 85.2301 77.77 85.4101C77.89 85.5101 78.07 85.5 78.18 85.38C78.29 85.26 78.27 85.0801 78.15 84.9701C78.11 84.9401 77.18 84.1401 76.33 84.4101C75.71 84.6101 75.16 84.8601 75.27 85.7101C75.29 85.8601 75.4099 85.9601 75.5599 85.9601C75.5699 85.9601 75.59 85.9601 75.6 85.9601C75.76 85.9401 75.87 85.79 75.85 85.63C75.81 85.3 75.83 85.1801 76.51 84.9601Z" fill="url(#paint25_linear_372_126)"/>
<path d="M103.1 68.78C102.78 69.17 102.53 69.48 102.6 69.82C102.64 70.01 102.79 70.17 103.03 70.29C103.93 70.71 105.2 72.18 105.21 72.19C105.27 72.26 105.35 72.29 105.43 72.29C105.5 72.29 105.561 72.27 105.621 72.22C105.741 72.12 105.75 71.93 105.65 71.81C105.59 71.75 104.28 70.24 103.28 69.77C103.2 69.73 103.17 69.7 103.17 69.7C103.17 69.61 103.39 69.34 103.55 69.15C103.92 68.7 104.42 68.09 104.57 67.26C105.1 64.25 102.24 63.11 102.21 63.09C102.07 63.03 101.89 63.11 101.84 63.25C101.78 63.4 101.86 63.57 102 63.63C102.1 63.67 104.45 64.62 104 67.15C103.88 67.83 103.45 68.36 103.1 68.78Z" fill="url(#paint26_linear_372_126)"/>
<path d="M100.51 64.4601C100.37 64.5301 100.31 64.7101 100.38 64.8501C100.43 64.9501 100.53 65.0101 100.64 65.0101C100.68 65.0101 100.73 65.0001 100.77 64.9801C101.64 64.5501 103.14 62.7801 102.8 61.0701C102.48 59.4901 99.6604 56.5101 99.5404 56.3801C99.4304 56.2601 99.2503 56.2601 99.1303 56.3701C99.0103 56.4801 99.0104 56.6601 99.1204 56.7801C99.9104 57.6101 102 60.0101 102.23 61.1901C102.5 62.5301 101.25 64.1001 100.51 64.4701V64.4601Z" fill="url(#paint27_linear_372_126)"/>
<path d="M104.06 78.39C104.06 77.13 103.74 76.21 103.12 75.68C102.42 75.08 101.59 75.2 101.55 75.2C101.39 75.22 101.29 75.37 101.31 75.53C101.33 75.69 101.49 75.8 101.64 75.77C101.67 75.77 102.25 75.69 102.75 76.12C103.24 76.54 103.48 77.3 103.48 78.39C103.48 81.58 102.79 82.51 102.38 82.79C102.03 83.02 101.72 82.9 101.71 82.9C101.57 82.84 101.42 82.9 101.34 83.02C101.27 83.15 101.3 83.31 101.42 83.4C101.44 83.41 103.06 84.59 102.97 85.73C102.87 86.98 101.87 88.6 100.78 89.27C99.63 89.97 97.81 90.34 97.79 90.35C97.63 90.38 97.53 90.53 97.56 90.69C97.59 90.83 97.71 90.92 97.84 90.92C97.86 90.92 97.88 90.92 97.9 90.92C97.98 90.9 99.84 90.53 101.07 89.77C102.32 89.01 103.43 87.22 103.54 85.78C103.61 84.85 102.9 83.98 102.36 83.45C102.46 83.41 102.57 83.36 102.68 83.29C103.59 82.7 104.05 81.05 104.05 78.4L104.06 78.39Z" fill="url(#paint28_linear_372_126)"/>
<path d="M66.8102 87.2402C67.5702 90.1802 69.4803 90.6801 71.2203 90.9101C71.8703 91.0001 72.4203 91.0301 72.8803 91.0301C73.7803 91.0301 74.2903 90.9101 74.3203 90.9101C74.4803 90.8701 74.5703 90.7201 74.5403 90.5601C74.5003 90.4101 74.3502 90.3101 74.1902 90.3401C74.1802 90.3401 73.1103 90.5801 71.3003 90.3401C69.2703 90.0601 67.9703 89.4402 67.3703 87.1002C67.0103 85.7102 67.1303 84.7601 67.2103 84.1301C67.2803 83.5801 67.3403 83.0601 66.8003 82.9001C66.2503 82.7301 64.1103 81.1202 64.1103 78.9902C64.1103 78.2802 64.7203 77.1602 65.2603 76.1702C66.0403 74.7502 66.7103 73.5202 65.9103 73.0502C65.3203 72.7002 63.9703 71.6901 64.1203 69.8301C64.3703 66.7501 66.9502 65.5501 67.0602 65.5101C67.2002 65.4501 67.2703 65.2801 67.2103 65.1301C67.2103 65.1201 66.6903 63.8601 66.3903 62.4701C66.1703 61.4001 67.3103 59.7702 67.7703 59.2302C67.8703 59.1102 67.8603 58.9301 67.7403 58.8201C67.6203 58.7201 67.4403 58.7302 67.3303 58.8502C67.2603 58.9402 65.5003 61.0201 65.8303 62.5801C66.0603 63.6701 66.4103 64.6502 66.5803 65.1002C65.8503 65.5002 63.7803 66.9001 63.5503 69.7801C63.4303 71.2901 64.2003 72.7002 65.6203 73.5402C65.9403 73.7302 65.2303 75.0301 64.7603 75.8801C64.1603 76.9801 63.5403 78.1101 63.5403 78.9701C63.5403 81.4301 65.8903 83.2101 66.6703 83.4501C66.7103 83.5101 66.6703 83.8102 66.6403 84.0402C66.5603 84.6702 66.4303 85.7302 66.8203 87.2302L66.8102 87.2402Z" fill="url(#paint29_linear_372_126)"/>
<path d="M65.1604 66.04C65.1604 66.04 58.3404 70.06 58.5604 70.06C58.7804 70.06 60.9104 71.9901 60.9104 71.9901L56.4004 76.41L62.7704 71.9901L61.1804 69.6801L64.1904 68.23L65.1604 66.04Z" fill="url(#paint30_linear_372_126)"/>
<path d="M65.0798 83.1101C65.2198 83.0301 65.2598 82.8501 65.1798 82.7101C65.0998 82.5701 64.9198 82.5301 64.7798 82.6101C64.1098 83.0001 62.9898 84.1701 63.5398 85.8301C64.1998 87.8401 66.9798 88.4701 67.0998 88.5001C67.1198 88.5001 67.1398 88.5001 67.1598 88.5001C67.2898 88.5001 67.4098 88.4101 67.4398 88.2701C67.4698 88.1201 67.3798 87.9601 67.2198 87.9301C67.1998 87.9301 64.6398 87.3401 64.0798 85.6401C63.5398 84.0201 64.9998 83.1401 65.0598 83.1001L65.0798 83.1101Z" fill="url(#paint31_linear_372_126)"/>
<path d="M71.3104 54.2102C68.6104 57.1002 68.2604 57.6302 68.2204 57.7302C68.1604 57.8802 68.2204 58.0602 68.3604 58.1202C68.4004 58.1402 68.4404 58.1502 68.4804 58.1502C68.5904 58.1502 68.6904 58.0902 68.7304 57.9902C68.7404 57.9702 69.0304 57.4902 71.7204 54.6102C74.2204 51.9302 80.1304 50.4201 86.7504 50.7601C92.4804 51.0601 97.8604 55.7002 97.9104 55.7402C98.0304 55.8402 98.2104 55.8302 98.3204 55.7102C98.4304 55.5902 98.4104 55.4102 98.2904 55.3002C98.0604 55.1002 92.7104 50.4802 86.7804 50.1702C81.3804 49.8902 74.4704 50.8102 71.3004 54.2102H71.3104Z" fill="white"/>
<path d="M66.6006 54.59C66.6006 54.59 67.1406 55.32 68.5406 55.68C69.9306 56.04 72.3706 53.59 72.3706 53.59C72.3706 53.59 69.9106 52.41 68.5306 53.18C67.1506 53.95 66.6006 54.58 66.6006 54.58V54.59Z" fill="white"/>
<path d="M72.1604 49.18C72.1604 49.18 72.2804 50.0799 73.3304 51.0699C74.3804 52.0599 77.6904 51.0899 77.6904 51.0899C77.6904 51.0899 76.1004 48.8699 74.5204 48.8799C72.9404 48.8999 72.1504 49.18 72.1504 49.18H72.1604Z" fill="white"/>
<path d="M79.2502 47.73C79.2502 47.73 79.2502 48.64 80.1402 49.76C81.0402 50.89 84.4602 50.39 84.4602 50.39C84.4602 50.39 83.2002 47.97 81.6302 47.76C80.0602 47.56 79.2402 47.72 79.2402 47.72L79.2502 47.73Z" fill="white"/>
<path d="M86.2504 47.3201C86.2504 47.3201 86.0104 48.2001 86.5904 49.5201C87.1704 50.8401 90.6004 51.2401 90.6004 51.2401C90.6004 51.2401 90.0104 48.5701 88.5504 47.9701C87.0904 47.3701 86.2504 47.3201 86.2504 47.3201Z" fill="white"/>
<path d="M93.0505 47.8501C93.0505 47.8501 92.4305 48.5101 92.3205 49.9501C92.2105 51.3901 95.0605 53.3501 95.0605 53.3501C95.0605 53.3501 95.7805 50.7201 94.7805 49.5001C93.7705 48.2801 93.0605 47.8501 93.0605 47.8501H93.0505Z" fill="white"/>
<path d="M97.3405 50.6001C97.3405 50.6001 96.7205 51.2601 96.6105 52.7001C96.5005 54.1401 99.3505 56.1001 99.3505 56.1001C99.3505 56.1001 100.07 53.4701 99.0705 52.2501C98.0605 51.0301 97.3505 50.6001 97.3505 50.6001H97.3405Z" fill="white"/>
<path d="M93.011 55.75C93.011 55.75 93.631 56.31 95.091 56.92C96.551 57.53 98.851 56.07 98.851 56.07C98.851 56.07 96.141 53.92 94.801 54.45C93.461 54.97 93.001 55.76 93.001 55.76L93.011 55.75Z" fill="white"/>
<path d="M88.7803 54.23C88.7803 54.23 89.5103 54.63 91.0703 54.89C92.6303 55.15 94.5403 53.2 94.5403 53.2C94.5403 53.2 91.4203 51.72 90.2303 52.54C89.0403 53.35 88.7803 54.22 88.7803 54.22V54.23Z" fill="white"/>
<path d="M84.3408 52.7901C84.3408 52.7901 85.1108 53.1101 86.6908 53.2101C88.2708 53.3101 89.9708 51.1701 89.9708 51.1701C89.9708 51.1701 86.7108 50.0301 85.6108 50.9601C84.5108 51.8901 84.3408 52.7901 84.3408 52.7901Z" fill="white"/>
<path d="M78.6907 53.6302C78.6907 53.6302 79.5307 53.6702 81.0407 53.2402C82.5607 52.8002 83.4407 50.2202 83.4407 50.2202C83.4407 50.2202 79.9807 50.2402 79.2707 51.4902C78.5507 52.7402 78.6907 53.6402 78.6907 53.6402V53.6302Z" fill="white"/>
<path d="M73.791 54.65C73.791 56.09 74.361 56.8 74.361 56.8C74.361 56.8 75.111 56.42 76.201 55.28C77.301 54.14 76.771 51.46 76.771 51.46C76.771 51.46 73.791 53.2 73.791 54.64V54.65Z" fill="white"/>
<path d="M69.4109 58.26C69.7209 59.67 70.4209 60.2401 70.4209 60.2401C70.4209 60.2401 71.0709 59.7101 71.9009 58.3701C72.7309 57.0301 71.6509 54.52 71.6509 54.52C71.6509 54.52 69.1009 56.86 69.4109 58.26Z" fill="white"/>
<path d="M103.74 79.55L103.54 81.11L105.34 85.4901L106.83 84.48L109.18 89.13L107.33 82.41L105.82 83.3L103.74 79.55Z" fill="url(#paint32_linear_372_126)"/>
<path d="M100.93 76.7499C100.93 74.7199 98.8601 71.14 98.7701 70.99C98.6901 70.85 98.5102 70.7999 98.3702 70.8899C98.2302 70.9699 98.1901 71.15 98.2701 71.29C98.2901 71.33 100.35 74.8799 100.35 76.7599C100.35 78.4899 98.9401 78.9899 98.8801 79.0099C98.7401 79.0599 98.6601 79.21 98.6901 79.35C98.6901 79.36 99.0101 80.77 98.4501 82.23C98.1001 83.13 96.4801 83.5999 95.8901 83.6999C95.7401 83.7299 95.6401 83.8599 95.6501 84.0099C95.6501 84.0299 95.8002 85.8999 94.6002 87.4599C93.9102 88.3499 92.9501 88.3999 92.7501 88.3999C92.7201 88.3999 92.7101 88.3999 92.7001 88.3999C92.5501 88.3999 92.4202 88.52 92.4102 88.68C92.4102 88.84 92.5202 88.97 92.6802 88.98C92.6802 88.98 92.7002 88.98 92.7402 88.98C93.0202 88.98 94.2102 88.9099 95.0502 87.8099C96.1302 86.4099 96.2302 84.8299 96.2302 84.2199C96.8702 84.0699 98.5502 83.5799 98.9902 82.4399C99.4802 81.1599 99.3702 79.9599 99.2902 79.4599C99.7902 79.2099 100.92 78.4499 100.92 76.7599L100.93 76.7499Z" fill="url(#paint33_linear_372_126)"/>
<path d="M69.9598 83.5502C70.1698 84.5302 72.0098 85.9902 72.4098 86.3002C72.5598 86.5902 73.2398 87.8501 73.9698 88.8101C74.6798 89.7401 76.3798 89.8401 77.1098 89.8401C77.2998 89.8401 77.4298 89.8401 77.4498 89.8401C77.6098 89.8401 77.7298 89.6901 77.7198 89.5301C77.7198 89.3701 77.5998 89.2601 77.4098 89.2601C76.7798 89.3001 75.0098 89.2301 74.4198 88.4601C73.6398 87.4301 72.8898 85.9902 72.8798 85.9802C72.8598 85.9402 72.8298 85.9101 72.7998 85.8801C71.9898 85.2601 70.6498 84.0602 70.5198 83.4302C70.4698 83.1902 70.4798 82.7801 70.4998 82.3101C70.5398 81.0701 70.5998 79.2001 69.5698 77.6601C67.3998 74.3901 70.2898 72.1402 70.4098 72.0502C70.5398 71.9502 70.5598 71.7701 70.4698 71.6401C70.3698 71.5101 70.1898 71.4901 70.0698 71.5801C70.0398 71.6101 66.6198 74.2502 69.0898 77.9802C70.0098 79.3702 69.9598 81.0602 69.9198 82.2902C69.8998 82.8202 69.8898 83.2402 69.9598 83.5502Z" fill="url(#paint34_linear_372_126)"/>
<path d="M97.3703 69.61C97.8403 71.38 98.5802 71.88 98.6602 71.94C98.7902 72.02 98.9703 71.98 99.0503 71.85C99.1403 71.72 99.1002 71.54 98.9702 71.45C98.9702 71.45 98.3403 71.01 97.9303 69.46C97.5203 67.92 98.4702 66.69 98.4802 66.68C98.5302 66.61 98.5502 66.53 98.5402 66.45C98.5302 66.37 98.4802 66.2999 98.4102 66.2499C98.4002 66.2499 97.2102 65.5 96.6002 64.09C96.0102 62.73 96.8002 61.27 96.8102 61.26C96.8502 61.19 96.8602 61.1 96.8302 61.02C96.8002 60.94 96.7402 60.88 96.6602 60.85C96.6602 60.85 95.6802 60.5 94.5602 60.14C93.8002 59.9 93.5002 58.59 93.4502 58.11C93.4402 57.98 93.3302 57.87 93.2002 57.85C93.2002 57.85 91.1802 57.6 90.0002 57.45C89.0402 57.33 88.6502 55.7699 88.6502 55.7499C88.6302 55.6499 88.5602 55.58 88.4602 55.54C88.3702 55.51 88.2602 55.52 88.1902 55.58C88.1802 55.59 86.9302 56.52 84.9402 55.55C83.1402 54.67 83.0102 54.12 83.0002 54.12C83.0102 53.98 82.9303 53.8499 82.8003 53.8099C82.6703 53.7699 82.5202 53.83 82.4602 53.95C82.4302 54.01 81.7202 55.34 79.9802 55.62C78.3502 55.88 77.9502 55.11 77.9402 55.08C77.8902 54.97 77.7802 54.9 77.6602 54.91C77.5402 54.91 77.4402 55 77.4002 55.11C77.1702 55.85 76.3802 57.88 75.4202 58.37C74.2002 59 73.1002 59.17 73.0902 59.18C72.9702 59.2 72.8702 59.29 72.8502 59.42C72.8502 59.43 72.6102 60.74 71.9102 61.53C71.3102 62.22 70.3502 62.67 70.0302 62.82C69.9402 62.86 69.9103 62.88 69.8703 62.91C69.7303 63.03 69.7402 63.11 69.8302 63.57C70.0002 64.43 70.4502 66.7099 70.0302 67.9999C69.5202 69.5599 68.8802 70.03 68.8802 70.03C68.8102 70.07 68.7702 70.15 68.7602 70.22C68.7502 70.29 68.7602 70.38 68.8202 70.44L70.0202 71.97C70.0802 72.04 70.1602 72.08 70.2502 72.08C70.3102 72.08 70.3803 72.06 70.4303 72.02C70.5603 71.92 70.5802 71.74 70.4802 71.61L69.4402 70.29C69.7202 70 70.1902 69.37 70.5902 68.16C71.0602 66.73 70.6002 64.42 70.4102 63.44C70.4002 63.38 70.3902 63.33 70.3802 63.29C70.7902 63.09 71.7202 62.62 72.3502 61.91C72.9902 61.19 73.2802 60.15 73.3802 59.72C73.7702 59.64 74.6802 59.41 75.6902 58.89C76.7302 58.36 77.4702 56.63 77.7902 55.77C78.1602 56.08 78.8502 56.38 80.0802 56.19C81.4502 55.97 82.2803 55.18 82.6803 54.66C82.9603 55.01 83.5302 55.4899 84.7002 56.0599C86.3902 56.8799 87.6302 56.51 88.2102 56.23C88.4202 56.81 88.9303 57.8699 89.9303 57.9999C90.8703 58.1199 92.3602 58.31 92.9102 58.38C93.0102 58.94 93.3502 60.34 94.3902 60.67C95.1202 60.9 95.8002 61.14 96.1702 61.27C95.9302 61.83 95.5502 63.07 96.0802 64.3C96.5902 65.48 97.4503 66.23 97.8703 66.55C97.5703 67.04 97.0102 68.19 97.3902 69.58L97.3703 69.61Z" fill="#343434"/>
<path d="M100.931 76.7499C100.931 74.7199 98.8605 71.14 98.7705 70.99C98.6905 70.85 98.5106 70.7999 98.3706 70.8899C98.2306 70.9699 98.1905 71.15 98.2705 71.29C98.2905 71.33 100.351 74.8799 100.351 76.7599C100.351 78.4899 98.9405 78.9899 98.8805 79.0099C98.7505 79.0499 98.6705 79.1799 98.6905 79.3199C98.6905 79.3399 98.8805 81.05 98.4605 82.24C98.1305 83.14 96.5005 83.6099 95.9005 83.7099C95.7405 83.7399 95.6406 83.89 95.6606 84.04C95.6606 84.06 95.9705 86.0499 94.6305 87.4399C93.4205 88.6899 92.8805 88.4599 92.8805 88.4599C92.8105 88.4099 92.7305 88.4 92.6505 88.41C92.5705 88.43 92.5005 88.47 92.4605 88.54C92.4405 88.57 90.9105 91.1 89.3805 91.61C87.8405 92.13 82.8705 92.1499 80.3805 91.6399C78.1305 91.1799 77.7405 89.55 77.7205 89.49C77.6905 89.35 77.5706 89.2699 77.4206 89.2599C76.7906 89.2999 75.0206 89.2299 74.4306 88.4599C73.6506 87.4299 72.9005 85.99 72.8905 85.98C72.8705 85.94 72.8405 85.9099 72.8105 85.8799C72.0005 85.2599 70.6605 84.06 70.5305 83.43C70.4805 83.19 70.4905 82.7799 70.5105 82.3099C70.5505 81.0699 70.6105 79.2 69.5805 77.66C67.4105 74.39 70.3006 72.14 70.4206 72.05C70.5506 71.95 70.5706 71.7699 70.4806 71.6399C70.3806 71.5099 70.2005 71.4899 70.0805 71.5799C70.0505 71.6099 66.6306 74.25 69.1006 77.98C70.0206 79.37 69.9706 81.06 69.9306 82.29C69.9106 82.82 69.9005 83.24 69.9705 83.55C70.1805 84.53 72.0206 85.99 72.4206 86.3C72.5706 86.59 73.2506 87.8499 73.9806 88.8099C74.7206 89.7899 76.5706 89.8699 77.2306 89.8399C77.4306 90.3999 78.1405 91.7699 80.2605 92.1999C81.4605 92.4499 83.3705 92.5799 85.1905 92.5799C87.0105 92.5799 88.6805 92.4499 89.5705 92.1499C91.0505 91.6499 92.4305 89.6599 92.8405 89.0199C93.2205 89.0799 93.9506 88.9599 95.0506 87.8299C96.3006 86.5399 96.3205 84.8699 96.2705 84.2099C96.9305 84.0599 98.6005 83.57 99.0105 82.42C99.3905 81.36 99.3306 79.9799 99.2906 79.4499C99.7806 79.2099 100.941 78.45 100.941 76.74L100.931 76.7499Z" fill="url(#paint35_linear_372_126)"/>
<path d="M76.6299 68.4701C76.6299 68.8101 76.8099 69.0801 77.0299 69.0801C77.2499 69.0801 77.4299 68.8101 77.4299 68.4701C77.4299 68.1301 77.2499 67.8601 77.0299 67.8601C76.8099 67.8601 76.6299 68.1301 76.6299 68.4701Z" fill="white"/>
<path d="M87.2402 68.2802C87.2402 68.6102 87.4202 68.8901 87.6402 68.8901C87.8602 68.8901 88.0402 68.6202 88.0402 68.2802C88.0402 67.9402 87.8602 67.6702 87.6402 67.6702C87.4202 67.6702 87.2402 67.9402 87.2402 68.2802Z" fill="white"/>
<path d="M98.5706 71.4201C98.7306 71.3901 98.8307 71.24 98.8007 71.08C98.7707 70.92 98.6206 70.8101 98.4606 70.8501C98.3906 70.8601 96.7806 71.18 95.9606 72.22C95.4906 72.82 95.3506 73.32 95.3206 73.66C94.8306 73.6 93.9406 73.62 92.9706 74.28C92.5006 74.6 92.1206 75.07 91.8906 75.4C91.4306 74.72 90.4506 73.4001 89.6006 73.2301C88.7106 73.0501 87.4307 73.03 87.1107 73.02C86.8007 72.85 85.4606 72.1301 84.7206 71.9301C83.7706 71.6701 81.4007 71.5301 80.1707 72.7301L79.0006 73.8701C78.9006 73.9701 78.7707 74.03 78.6207 74.03C77.8307 74.07 76.3607 74.1901 75.4907 74.5401C74.7207 74.8501 73.6506 75.74 73.0006 76.32C73.0306 75.89 73.0206 75.35 72.9006 74.9C72.3306 72.77 70.4606 71.5901 70.3806 71.5401C70.2406 71.4601 70.0706 71.5 69.9806 71.63C69.9006 71.77 69.9406 71.94 70.0706 72.03C70.0906 72.04 71.8306 73.1401 72.3306 75.0401C72.5406 75.8201 72.3306 76.99 72.3306 77C72.3106 77.12 72.3706 77.25 72.4806 77.31C72.5206 77.33 72.5707 77.3501 72.6207 77.3501C72.6907 77.3501 72.7706 77.32 72.8206 77.27C72.8406 77.25 74.6606 75.51 75.7106 75.08C76.5306 74.75 78.0406 74.6401 78.6506 74.6101C78.9306 74.5901 79.2006 74.48 79.4006 74.28L80.5706 73.14C81.6106 72.12 83.7506 72.2601 84.5706 72.4801C85.3206 72.6801 86.8706 73.5401 86.8906 73.5501C86.9306 73.5701 86.9806 73.59 87.0306 73.59C87.0406 73.59 88.5306 73.5901 89.4806 73.7901C90.1106 73.9201 91.1406 75.27 91.6406 76.08C91.6906 76.17 91.7806 76.23 91.8906 76.22C91.9906 76.22 92.0906 76.16 92.1406 76.07C92.1406 76.07 92.6206 75.21 93.2906 74.75C94.4806 73.94 95.4906 74.26 95.5306 74.28C95.6306 74.31 95.7406 74.28 95.8206 74.22C95.9006 74.15 95.9306 74.0301 95.9006 73.9301C95.9006 73.9101 95.7706 73.38 96.4106 72.57C97.0906 71.71 98.5506 71.41 98.5606 71.41L98.5706 71.4201Z" fill="#343434"/>
<path d="M83.2106 73.3001C82.7706 73.5201 82.3606 73.8101 82.0006 74.1501C81.8806 74.2601 81.7606 74.38 81.6506 74.5C81.4406 74.72 81.2406 74.9301 81.0106 75.0901C80.3706 75.5501 79.5006 75.66 78.7406 75.76C78.5806 75.78 78.4706 75.93 78.4906 76.08C78.5106 76.23 78.6306 76.33 78.7806 76.33C78.7906 76.33 78.8006 76.33 78.8206 76.33C79.6106 76.23 80.5906 76.1001 81.3606 75.5501C81.6306 75.3501 81.8606 75.12 82.0806 74.89C82.1906 74.78 82.3006 74.66 82.4106 74.56C82.7306 74.26 83.0906 74 83.4906 73.81C83.6306 73.74 83.6906 73.5601 83.6206 73.4201C83.5506 73.2801 83.3806 73.2201 83.2306 73.2901L83.2106 73.3001Z" fill="white"/>
<path d="M84.8503 73.8201C84.6603 73.6401 84.4203 73.4202 84.0903 73.4102H84.0703C83.9203 73.4102 83.7903 73.5302 83.7803 73.6802C83.7803 73.8402 83.8903 73.9802 84.0503 73.9902C84.1703 73.9902 84.3103 74.1301 84.4603 74.2601C85.4903 75.2201 87.5503 75.9302 89.1403 76.2202C89.1603 76.2202 89.1702 76.2202 89.1902 76.2202C89.3302 76.2202 89.4503 76.1202 89.4703 75.9802C89.5003 75.8202 89.3903 75.6701 89.2403 75.6401C87.7303 75.3701 85.7903 74.7101 84.8403 73.8201H84.8503Z" fill="white"/>
<path d="M90.1802 91.56C89.7302 91.75 86.3102 92.05 84.2702 92.2C82.2202 92.35 78.9702 91.41 78.9702 91.41L78.9502 92.28C78.9502 92.28 82.1302 93.41 86.2902 93.41C88.1202 93.41 89.1702 93.37 90.9202 92.77C92.6602 92.16 94.3402 95.1 94.3402 95.1L93.6902 88.54L92.7102 88.6801C92.7102 88.6801 90.6502 91.37 90.1902 91.56H90.1802Z" fill="#343434"/>
<path d="M102.33 54.0601L103.32 55.5201L100.73 58.1202L100.94 58.5801L104.74 55.6602L104.19 54.1602L106.44 52.1301L102.33 54.0601Z" fill="url(#paint36_linear_372_126)"/>
<path d="M46.09 0L29.91 22.25L36.26 22.86L0 85.06L47.76 41.1201L39.75 40.52L59.1201 22.61L49.95 20.85L69.38 1.17004L46.09 0Z" fill="url(#paint37_linear_372_126)"/>
<path d="M37.9896 33.96C37.7596 33.08 37.0496 32.56 36.1196 32.3C35.3996 32.11 30.2496 31.23 29.2296 31.23C28.2096 31.23 26.2996 31.08 25.5496 31.81C25.1696 32.18 25.3296 33.06 25.2196 33.06C25.1096 33.06 24.1196 33.48 23.7196 33.93C23.3196 34.38 23.5196 35.19 23.5196 35.19C23.5196 35.19 22.5796 35 21.5596 36.11C20.7996 36.93 21.0296 38.23 21.0296 38.23C21.0296 38.23 20.4796 38.27 19.7996 38.65C18.4996 39.38 18.3296 41.31 18.1296 42.57C17.9396 43.83 17.5596 54.91 17.5596 54.91L24.4896 43.02C24.4896 43.02 33.2896 42.5 34.2596 41.82C35.2296 41.14 34.8996 40.23 34.8996 40.23C34.8996 40.23 36.0996 40.07 36.3896 39.28C36.6396 38.61 36.4696 37.99 36.4696 37.99C36.4696 37.99 37.2496 38 37.5696 37C37.8196 36.22 37.3896 35.79 37.3896 35.79C37.3896 35.79 38.3496 35.4 37.9796 33.96H37.9896Z" fill="url(#paint38_linear_372_126)"/>
<path d="M25.0598 32.8899C25.0598 33.0499 25.1698 33.1899 25.3298 33.1999C25.4198 33.1999 34.2298 33.7199 36.2998 35.2099C36.3498 35.2499 36.4098 35.2599 36.4698 35.2599C36.5598 35.2599 36.6498 35.2199 36.7098 35.1399C36.7998 35.0099 36.7698 34.8299 36.6398 34.7399C34.4298 33.1499 25.7298 32.6499 25.3598 32.6299C25.1998 32.6299 25.0598 32.7399 25.0498 32.8999L25.0598 32.8899Z" fill="#343434"/>
<path d="M32.5193 36.2099C30.6393 35.8699 23.7193 35.0099 23.6593 34.9999C23.4893 34.9799 23.3593 35.0899 23.3393 35.2499C23.3193 35.4099 23.4293 35.5499 23.5893 35.5699C23.6593 35.5699 30.5593 36.4399 32.4193 36.7799C34.2593 37.1099 36.0893 37.8199 36.1093 37.8299C36.1393 37.8399 36.1793 37.8499 36.2193 37.8499C36.3393 37.8499 36.4393 37.7799 36.4893 37.6699C36.5493 37.5199 36.4792 37.35 36.3292 37.3C36.2492 37.27 34.4393 36.5599 32.5293 36.2199L32.5193 36.2099Z" fill="#343434"/>
<path d="M21.1192 38.0199C20.9692 37.9999 20.8192 38.1299 20.8092 38.2799C20.7992 38.4399 20.9192 38.5799 21.0692 38.5899C21.3092 38.6099 26.8292 39.0599 27.9192 39.0899C29.4692 39.1399 33.5292 39.4899 34.3892 40.0399C34.4392 40.0699 34.4892 40.0899 34.5392 40.0899C34.6392 40.0899 34.7292 40.0399 34.7792 39.9599C34.8692 39.8299 34.8292 39.6498 34.6892 39.5598C33.4492 38.7698 27.9792 38.5199 27.9292 38.5199C26.8492 38.4799 21.1592 38.0199 21.0992 38.0199H21.1192Z" fill="#343434"/>
<path d="M22.4097 42.8898C22.2497 42.9098 22.1296 43.0498 22.1496 43.2098C22.1596 43.3598 22.2896 43.4698 22.4396 43.4698C22.4396 43.4698 22.4596 43.4698 22.4696 43.4698L33.4396 42.3898C33.5996 42.3698 33.7196 42.2298 33.6996 42.0698C33.6796 41.9098 33.5296 41.7898 33.3796 41.8098L22.4097 42.8898Z" fill="#343434"/>
<path d="M24.2496 42.8297L17.3396 54.3698C17.2596 54.5098 17.2996 54.6897 17.4396 54.7697C17.4896 54.7997 17.5396 54.8097 17.5896 54.8097C17.6896 54.8097 17.7796 54.7597 17.8396 54.6697L24.7496 43.1297C24.8296 42.9897 24.7896 42.8097 24.6496 42.7297C24.5096 42.6497 24.3296 42.6897 24.2496 42.8297Z" fill="#343434"/>
<path d="M23.97 42.8L21.89 44.8299C21.78 44.9399 21.77 45.12 21.89 45.24C21.95 45.3 22.02 45.3299 22.1 45.3299C22.18 45.3299 22.25 45.2999 22.3 45.2499L24.38 43.22C24.49 43.11 24.5 42.9299 24.38 42.8099C24.27 42.6999 24.09 42.6899 23.97 42.8099V42.8Z" fill="#343434"/>
<path d="M11.5298 74.8301C11.4298 74.8301 11.3198 74.7901 11.2498 74.7101C11.1098 74.5601 11.1298 74.3201 11.2798 74.1801L29.0499 58.3001C29.1999 58.1601 29.4398 58.1801 29.5798 58.3301C29.7198 58.4801 29.6999 58.7201 29.5499 58.8601L11.7798 74.7401C11.7098 74.8001 11.6198 74.8401 11.5298 74.8401V74.8301Z" fill="#343434"/>
<path d="M24.5101 43.39C24.3101 43.39 24.1501 43.24 24.1401 43.04C24.1301 42.83 24.2901 42.66 24.4901 42.64C28.1001 42.43 33.4601 41.93 34.0701 41.51C34.7701 41.02 34.5901 40.41 34.5701 40.35C34.5301 40.24 34.5501 40.13 34.6101 40.03C34.6701 39.94 34.7701 39.87 34.8801 39.85C35.1501 39.81 35.9001 39.61 36.0701 39.14C36.2701 38.6 36.1401 38.09 36.1401 38.08C36.1101 37.97 36.1401 37.84 36.2101 37.75C36.2801 37.66 36.3901 37.6 36.5001 37.6C36.5001 37.6 37.0101 37.5701 37.2401 36.8701C37.4101 36.3301 37.1601 36.04 37.1401 36.03C37.0601 35.94 37.0201 35.81 37.0501 35.69C37.0801 35.57 37.1601 35.47 37.2701 35.42C37.3301 35.39 37.9101 35.1 37.6301 34.03C37.4601 33.35 36.9201 32.88 36.0301 32.64C35.8301 32.59 35.7101 32.38 35.7701 32.18C35.8201 31.98 36.0301 31.86 36.2301 31.92C37.3801 32.23 38.1201 32.9 38.3601 33.84C38.6301 34.88 38.2901 35.5301 37.9201 35.8701C38.0501 36.1701 38.1101 36.59 37.9501 37.09C37.7101 37.83 37.2601 38.13 36.9201 38.25C36.9401 38.54 36.9301 38.95 36.7701 39.38C36.5201 40.05 35.8001 40.36 35.3501 40.49C35.3701 40.96 35.2001 41.61 34.5001 42.1C33.5001 42.81 26.0301 43.2801 24.5401 43.3701H24.5201L24.5101 43.39Z" fill="#343434"/>
<defs>
<linearGradient id="paint0_linear_372_126" x1="181.048" y1="52.18" x2="171.428" y2="49.8111" gradientUnits="userSpaceOnUse">
<stop stop-color="#E1880D"/>
<stop offset="1" stop-color="#FFF4E4"/>
</linearGradient>
<linearGradient id="paint1_linear_372_126" x1="180.454" y1="56.5201" x2="170.557" y2="54.4653" gradientUnits="userSpaceOnUse">
<stop stop-color="#E1880D"/>
<stop offset="1" stop-color="#FFF4E4"/>
</linearGradient>
<linearGradient id="paint2_linear_372_126" x1="181.399" y1="62.5801" x2="174.026" y2="61.8471" gradientUnits="userSpaceOnUse">
<stop stop-color="#E1880D"/>
<stop offset="1" stop-color="#FFF4E4"/>
</linearGradient>
<linearGradient id="paint3_linear_372_126" x1="200.153" y1="55.27" x2="191.673" y2="53.8496" gradientUnits="userSpaceOnUse">
<stop stop-color="#E1880D"/>
<stop offset="1" stop-color="#FFF4E4"/>
</linearGradient>
<linearGradient id="paint4_linear_372_126" x1="199.902" y1="59.6299" x2="192.042" y2="58.6138" gradientUnits="userSpaceOnUse">
<stop stop-color="#E1880D"/>
<stop offset="1" stop-color="#FFF4E4"/>
</linearGradient>
<linearGradient id="paint5_linear_372_126" x1="198.726" y1="64.9801" x2="194.699" y2="64.7852" gradientUnits="userSpaceOnUse">
<stop stop-color="#E1880D"/>
<stop offset="1" stop-color="#FFF4E4"/>
</linearGradient>
<linearGradient id="paint6_linear_372_126" x1="131.306" y1="178.25" x2="49.042" y2="167.359" gradientUnits="userSpaceOnUse">
<stop stop-color="#E1880D"/>
<stop offset="1" stop-color="#FFF4E4"/>
</linearGradient>
<linearGradient id="paint7_linear_372_126" x1="175.172" y1="178.87" x2="161.237" y2="177.549" gradientUnits="userSpaceOnUse">
<stop stop-color="#E1880D"/>
<stop offset="1" stop-color="#FFF4E4"/>
</linearGradient>
<linearGradient id="paint8_linear_372_126" x1="174.834" y1="160.221" x2="168.792" y2="159.526" gradientUnits="userSpaceOnUse">
<stop stop-color="#E1880D"/>
<stop offset="1" stop-color="#FFF4E4"/>
</linearGradient>
<linearGradient id="paint9_linear_372_126" x1="109.531" y1="348.516" x2="69.9499" y2="346.415" gradientUnits="userSpaceOnUse">
<stop stop-color="#E1880D"/>
<stop offset="1" stop-color="#FFF4E4"/>
</linearGradient>
<linearGradient id="paint10_linear_372_126" x1="56.9998" y1="350.078" x2="8.15519" y2="346.797" gradientUnits="userSpaceOnUse">
<stop stop-color="#E1880D"/>
<stop offset="1" stop-color="#FFF4E4"/>
</linearGradient>
<linearGradient id="paint11_linear_372_126" x1="39.9721" y1="168.99" x2="-82.3004" y2="152.249" gradientUnits="userSpaceOnUse">
<stop stop-color="#E1880D"/>
<stop offset="1" stop-color="#FFF4E4"/>
</linearGradient>
<linearGradient id="paint12_linear_372_126" x1="80.1409" y1="280.88" x2="-15.4409" y2="249.805" gradientUnits="userSpaceOnUse">
<stop stop-color="#E1880D"/>
<stop offset="1" stop-color="#FFF4E4"/>
</linearGradient>
<linearGradient id="paint13_linear_372_126" x1="100.681" y1="118.083" x2="78.9385" y2="116.439" gradientUnits="userSpaceOnUse">
<stop stop-color="#E1880D"/>
<stop offset="1" stop-color="#FFF4E4"/>
</linearGradient>
<linearGradient id="paint14_linear_372_126" x1="78.4861" y1="80.8724" x2="39.1041" y2="73.3211" gradientUnits="userSpaceOnUse">
<stop stop-color="#E1880D"/>
<stop offset="1" stop-color="#FFF4E4"/>
</linearGradient>
<linearGradient id="paint15_linear_372_126" x1="100.264" y1="93.3405" x2="99.5766" y2="93.2066" gradientUnits="userSpaceOnUse">
<stop stop-color="#E1880D"/>
<stop offset="1" stop-color="#FFF4E4"/>
</linearGradient>
<linearGradient id="paint16_linear_372_126" x1="82.422" y1="80.4101" x2="69.4598" y2="77.0257" gradientUnits="userSpaceOnUse">
<stop stop-color="#E1880D"/>
<stop offset="1" stop-color="#FFF4E4"/>
</linearGradient>
<linearGradient id="paint17_linear_372_126" x1="87.8105" y1="84.77" x2="81.9756" y2="83.5971" gradientUnits="userSpaceOnUse">
<stop stop-color="#E1880D"/>
<stop offset="1" stop-color="#FFF4E4"/>
</linearGradient>
<linearGradient id="paint18_linear_372_126" x1="87.2652" y1="89.81" x2="82.2462" y2="89.0652" gradientUnits="userSpaceOnUse">
<stop stop-color="#E1880D"/>
<stop offset="1" stop-color="#FFF4E4"/>
</linearGradient>
<linearGradient id="paint19_linear_372_126" x1="84.211" y1="90.91" x2="81.9623" y2="90.6939" gradientUnits="userSpaceOnUse">
<stop stop-color="#E1880D"/>
<stop offset="1" stop-color="#FFF4E4"/>
</linearGradient>
<linearGradient id="paint20_linear_372_126" x1="81.6067" y1="90.0201" x2="77.1125" y2="89.464" gradientUnits="userSpaceOnUse">
<stop stop-color="#E1880D"/>
<stop offset="1" stop-color="#FFF4E4"/>
</linearGradient>
<linearGradient id="paint21_linear_372_126" x1="92.7733" y1="79.4901" x2="85.4729" y2="77.326" gradientUnits="userSpaceOnUse">
<stop stop-color="#E1880D"/>
<stop offset="1" stop-color="#FFF4E4"/>
</linearGradient>
<linearGradient id="paint22_linear_372_126" x1="74.1874" y1="80.1899" x2="69.328" y2="78.6232" gradientUnits="userSpaceOnUse">
<stop stop-color="#E1880D"/>
<stop offset="1" stop-color="#FFF4E4"/>
</linearGradient>
<linearGradient id="paint23_linear_372_126" x1="73.2333" y1="84.81" x2="70.6768" y2="84.5818" gradientUnits="userSpaceOnUse">
<stop stop-color="#E1880D"/>
<stop offset="1" stop-color="#FFF4E4"/>
</linearGradient>
<linearGradient id="paint24_linear_372_126" x1="80.1637" y1="84.5601" x2="74.5617" y2="83.0393" gradientUnits="userSpaceOnUse">
<stop stop-color="#E1880D"/>
<stop offset="1" stop-color="#FFF4E4"/>
</linearGradient>
<linearGradient id="paint25_linear_372_126" x1="76.2383" y1="85.9601" x2="72.6543" y2="84.8583" gradientUnits="userSpaceOnUse">
<stop stop-color="#E1880D"/>
<stop offset="1" stop-color="#FFF4E4"/>
</linearGradient>
<linearGradient id="paint26_linear_372_126" x1="103.099" y1="72.29" x2="98.0197" y2="71.9363" gradientUnits="userSpaceOnUse">
<stop stop-color="#E1880D"/>
<stop offset="1" stop-color="#FFF4E4"/>
</linearGradient>
<linearGradient id="paint27_linear_372_126" x1="100.289" y1="65.0101" x2="95.3256" y2="64.6529" gradientUnits="userSpaceOnUse">
<stop stop-color="#E1880D"/>
<stop offset="1" stop-color="#FFF4E4"/>
</linearGradient>
<linearGradient id="paint28_linear_372_126" x1="99.6877" y1="90.92" x2="91.2107" y2="90.3425" gradientUnits="userSpaceOnUse">
<stop stop-color="#E1880D"/>
<stop offset="1" stop-color="#FFF4E4"/>
</linearGradient>
<linearGradient id="paint29_linear_372_126" x1="67.1475" y1="91.0301" x2="52.7819" y2="90.2232" gradientUnits="userSpaceOnUse">
<stop stop-color="#E1880D"/>
<stop offset="1" stop-color="#FFF4E4"/>
</linearGradient>
<linearGradient id="paint30_linear_372_126" x1="59.2727" y1="76.41" x2="48.0224" y2="74.8446" gradientUnits="userSpaceOnUse">
<stop stop-color="#E1880D"/>
<stop offset="1" stop-color="#FFF4E4"/>
</linearGradient>
<linearGradient id="paint31_linear_372_126" x1="64.7215" y1="88.5001" x2="59.482" y2="87.9103" gradientUnits="userSpaceOnUse">
<stop stop-color="#E1880D"/>
<stop offset="1" stop-color="#FFF4E4"/>
</linearGradient>
<linearGradient id="paint32_linear_372_126" x1="105.389" y1="89.13" x2="98.0746" y2="88.4207" gradientUnits="userSpaceOnUse">
<stop stop-color="#E1880D"/>
<stop offset="1" stop-color="#FFF4E4"/>
</linearGradient>
<linearGradient id="paint33_linear_372_126" x1="95.2038" y1="88.98" x2="84.1163" y2="88.1219" gradientUnits="userSpaceOnUse">
<stop stop-color="#E1880D"/>
<stop offset="1" stop-color="#FFF4E4"/>
</linearGradient>
<linearGradient id="paint34_linear_372_126" x1="71.3178" y1="89.8401" x2="58.9377" y2="88.7795" gradientUnits="userSpaceOnUse">
<stop stop-color="#E1880D"/>
<stop offset="1" stop-color="#FFF4E4"/>
</linearGradient>
<linearGradient id="paint35_linear_372_126" x1="78.9387" y1="92.5799" x2="38.568" y2="82.5647" gradientUnits="userSpaceOnUse">
<stop stop-color="#E1880D"/>
<stop offset="1" stop-color="#FFF4E4"/>
</linearGradient>
<linearGradient id="paint36_linear_372_126" x1="102.603" y1="58.5801" x2="95.2832" y2="57.5128" gradientUnits="userSpaceOnUse">
<stop stop-color="#E1880D"/>
<stop offset="1" stop-color="#FFF4E4"/>
</linearGradient>
<linearGradient id="paint37_linear_372_126" x1="22.749" y1="85.06" x2="-66.4687" y2="73.0732" gradientUnits="userSpaceOnUse">
<stop stop-color="#E1880D"/>
<stop offset="1" stop-color="#FFF4E4"/>
</linearGradient>
<linearGradient id="paint38_linear_372_126" x1="24.2829" y1="54.91" x2="-2.02621" y2="51.1595" gradientUnits="userSpaceOnUse">
<stop stop-color="#E1880D"/>
<stop offset="1" stop-color="#FFF4E4"/>
</linearGradient>
</defs>
</svg>
