<svg width="21" height="20" viewBox="0 0 21 20" fill="none" xmlns="http://www.w3.org/2000/svg">
<path d="M17.0858 18.3353H3.75137C3.51802 18.3353 3.32078 18.2547 3.15966 18.0936C2.99853 17.9325 2.91797 17.7352 2.91797 17.5019V2.50063C2.91797 2.26727 2.99853 2.07004 3.15966 1.90891C3.32078 1.74779 3.51802 1.66722 3.75137 1.66722H17.0858C17.3192 1.66722 17.5164 1.74779 17.6775 1.90891C17.8386 2.07004 17.9192 2.26727 17.9192 2.50063V17.5019C17.9192 17.7352 17.8386 17.9325 17.6775 18.0936C17.5164 18.2547 17.3192 18.3353 17.0858 18.3353ZM16.2524 16.6685V3.33403H4.58477V16.6685H16.2524ZM12.0854 10.0012V14.1683H8.75178V11.668H10.4186V10.0012H12.0854ZM10.4186 3.33403H12.0854V5.00083H10.4186V3.33403ZM8.75178 5.00083H10.4186V6.66764H8.75178V5.00083ZM10.4186 6.66764H12.0854V8.33444H10.4186V6.66764ZM8.75178 8.33444H10.4186V10.0012H8.75178V8.33444Z" fill="#FACC15"/>
</svg>
